<?xml version="1.0" encoding="UTF-8"?>
<!DOCTYPE svg PUBLIC "-//W3C//DTD SVG 1.1//EN" "http://www.w3.org/Graphics/SVG/1.1/DTD/svg11.dtd">
<svg xmlns="http://www.w3.org/2000/svg" version="1.1" width="1500px" height="1500px" style="shape-rendering:geometricPrecision; text-rendering:geometricPrecision; image-rendering:optimizeQuality; fill-rule:evenodd; clip-rule:evenodd" xmlns:xlink="http://www.w3.org/1999/xlink">
<g><path style="opacity:1" fill="#0a97d9" d="M -0.5,-0.5 C 499.5,-0.5 999.5,-0.5 1499.5,-0.5C 1499.5,499.5 1499.5,999.5 1499.5,1499.5C 999.5,1499.5 499.5,1499.5 -0.5,1499.5C -0.5,999.5 -0.5,499.5 -0.5,-0.5 Z"/></g>
<g><path style="opacity:1" fill="#fefefe" d="M 137.5,128.5 C 151.833,128.5 166.167,128.5 180.5,128.5C 180.5,223.833 180.5,319.167 180.5,414.5C 162.5,414.5 144.5,414.5 126.5,414.5C 126.5,338.167 126.5,261.833 126.5,185.5C 125.209,185.263 124.209,185.596 123.5,186.5C 111.242,191.031 98.9088,195.364 86.5,199.5C 85.5044,186.344 85.1711,173.01 85.5,159.5C 96.6869,154.573 107.687,149.073 118.5,143C 125.303,138.687 131.636,133.853 137.5,128.5 Z"/></g>
<g><path style="opacity:1" fill="#b4def3" d="M 137.5,128.5 C 151.99,127.504 166.657,127.171 181.5,127.5C 181.5,223.5 181.5,319.5 181.5,415.5C 163.167,415.5 144.833,415.5 126.5,415.5C 126.5,415.167 126.5,414.833 126.5,414.5C 144.5,414.5 162.5,414.5 180.5,414.5C 180.5,319.167 180.5,223.833 180.5,128.5C 166.167,128.5 151.833,128.5 137.5,128.5 Z"/></g>
<g><path style="opacity:1" fill="#fefefe" d="M 279.5,128.5 C 299.833,128.5 320.167,128.5 340.5,128.5C 340.168,187.669 340.501,246.669 341.5,305.5C 350.833,305.5 360.167,305.5 369.5,305.5C 369.5,319.167 369.5,332.833 369.5,346.5C 359.985,346.173 350.652,346.506 341.5,347.5C 340.503,369.66 340.169,391.994 340.5,414.5C 324.167,414.5 307.833,414.5 291.5,414.5C 291.5,391.833 291.5,369.167 291.5,346.5C 262.833,346.5 234.167,346.5 205.5,346.5C 205.333,331.496 205.5,316.496 206,301.5C 230.603,243.85 255.103,186.183 279.5,128.5 Z"/></g>
<g><path style="opacity:1" fill="#b6dff3" d="M 279.5,128.5 C 299.993,127.503 320.66,127.169 341.5,127.5C 341.5,186.833 341.5,246.167 341.5,305.5C 340.501,246.669 340.168,187.669 340.5,128.5C 320.167,128.5 299.833,128.5 279.5,128.5 Z"/></g>
<g><path style="opacity:1" fill="#fefefe" d="M 478.5,128.5 C 484.833,128.5 491.167,128.5 497.5,128.5C 497.168,160.338 497.502,192.004 498.5,223.5C 507.167,223.5 515.833,223.5 524.5,223.5C 524.5,228.167 524.5,232.833 524.5,237.5C 509.167,237.5 493.833,237.5 478.5,237.5C 478.5,201.167 478.5,164.833 478.5,128.5 Z"/></g>
<g><path style="opacity:1" fill="#c1e4f5" d="M 478.5,128.5 C 478.5,128.167 478.5,127.833 478.5,127.5C 485.167,127.5 491.833,127.5 498.5,127.5C 498.5,159.5 498.5,191.5 498.5,223.5C 497.502,192.004 497.168,160.338 497.5,128.5C 491.167,128.5 484.833,128.5 478.5,128.5 Z"/></g>
<g><path style="opacity:1" fill="#fefffe" d="M 531.5,128.5 C 537.833,128.5 544.167,128.5 550.5,128.5C 550.5,164.833 550.5,201.167 550.5,237.5C 544.167,237.5 537.833,237.5 531.5,237.5C 531.5,201.167 531.5,164.833 531.5,128.5 Z"/></g>
<g><path style="opacity:1" fill="#c1e4f5" d="M 531.5,128.5 C 537.979,127.509 544.646,127.176 551.5,127.5C 551.832,164.337 551.498,201.004 550.5,237.5C 550.5,201.167 550.5,164.833 550.5,128.5C 544.167,128.5 537.833,128.5 531.5,128.5 Z"/></g>
<g><path style="opacity:1" fill="#bee3f5" d="M 608.5,141.5 C 608.5,137.167 608.5,132.833 608.5,128.5C 593.833,128.5 579.167,128.5 564.5,128.5C 564.5,164.833 564.5,201.167 564.5,237.5C 563.502,201.004 563.168,164.337 563.5,127.5C 578.833,127.5 594.167,127.5 609.5,127.5C 609.819,132.363 609.486,137.03 608.5,141.5 Z"/></g>
<g><path style="opacity:1" fill="#fefffe" d="M 608.5,141.5 C 600.167,141.5 591.833,141.5 583.5,141.5C 583.172,152.346 583.506,163.013 584.5,173.5C 590.833,173.5 597.167,173.5 603.5,173.5C 603.5,178.167 603.5,182.833 603.5,187.5C 596.833,187.5 590.167,187.5 583.5,187.5C 583.5,204.167 583.5,220.833 583.5,237.5C 577.167,237.5 570.833,237.5 564.5,237.5C 564.5,201.167 564.5,164.833 564.5,128.5C 579.167,128.5 593.833,128.5 608.5,128.5C 608.5,132.833 608.5,137.167 608.5,141.5 Z"/></g>
<g><path style="opacity:1" fill="#fefefe" d="M 615.5,128.5 C 630.5,128.5 645.5,128.5 660.5,128.5C 660.5,132.833 660.5,137.167 660.5,141.5C 651.983,141.174 643.65,141.507 635.5,142.5C 635.5,152.833 635.5,163.167 635.5,173.5C 642.167,173.5 648.833,173.5 655.5,173.5C 655.5,178.167 655.5,182.833 655.5,187.5C 648.646,187.176 641.979,187.509 635.5,188.5C 635.5,200.167 635.5,211.833 635.5,223.5C 644.167,223.5 652.833,223.5 661.5,223.5C 661.5,228.167 661.5,232.833 661.5,237.5C 646.167,237.5 630.833,237.5 615.5,237.5C 615.5,201.167 615.5,164.833 615.5,128.5 Z"/></g>
<g><path style="opacity:1" fill="#c1e4f5" d="M 615.5,128.5 C 630.658,127.504 645.991,127.17 661.5,127.5C 661.5,132.5 661.5,137.5 661.5,142.5C 652.833,142.5 644.167,142.5 635.5,142.5C 643.65,141.507 651.983,141.174 660.5,141.5C 660.5,137.167 660.5,132.833 660.5,128.5C 645.5,128.5 630.5,128.5 615.5,128.5 Z"/></g>
<g><path style="opacity:1" fill="#85cbec" d="M 608.5,141.5 C 600.684,142.492 592.684,142.826 584.5,142.5C 584.5,152.833 584.5,163.167 584.5,173.5C 583.506,163.013 583.172,152.346 583.5,141.5C 591.833,141.5 600.167,141.5 608.5,141.5 Z"/></g>
<g><path style="opacity:1" fill="#c0e4f5" d="M 85.5,159.5 C 85.1711,173.01 85.5044,186.344 86.5,199.5C 86.44,200.043 86.1067,200.376 85.5,200.5C 84.1745,186.672 84.1745,173.006 85.5,159.5 Z"/></g>
<g><path style="opacity:1" fill="#47b0e2" d="M 123.5,186.5 C 124.209,185.596 125.209,185.263 126.5,185.5C 126.5,261.833 126.5,338.167 126.5,414.5C 126.5,414.833 126.5,415.167 126.5,415.5C 126.166,338.995 125.166,262.661 123.5,186.5 Z"/></g>
<g><path style="opacity:1" fill="#1298d9" d="M 290.5,185.5 C 291.499,225.33 291.832,265.33 291.5,305.5C 277.151,305.833 262.818,305.499 248.5,304.5C 262.8,264.909 276.8,225.242 290.5,185.5 Z"/></g>
<g><path style="opacity:1" fill="#6cbfe7" d="M 603.5,173.5 C 604.487,178.305 604.821,183.305 604.5,188.5C 597.833,188.5 591.167,188.5 584.5,188.5C 584.83,205.009 584.496,221.342 583.5,237.5C 583.5,220.833 583.5,204.167 583.5,187.5C 590.167,187.5 596.833,187.5 603.5,187.5C 603.5,182.833 603.5,178.167 603.5,173.5 Z"/></g>
<g><path style="opacity:1" fill="#5bb7e5" d="M 655.5,173.5 C 656.487,178.305 656.821,183.305 656.5,188.5C 649.5,188.5 642.5,188.5 635.5,188.5C 641.979,187.509 648.646,187.176 655.5,187.5C 655.5,182.833 655.5,178.167 655.5,173.5 Z"/></g>
<g><path style="opacity:1" fill="#63bbe6" d="M 478.5,127.5 C 478.5,127.833 478.5,128.167 478.5,128.5C 478.5,164.833 478.5,201.167 478.5,237.5C 493.833,237.5 509.167,237.5 524.5,237.5C 509.009,238.496 493.342,238.83 477.5,238.5C 477.168,201.33 477.502,164.33 478.5,127.5 Z"/></g>
<g><path style="opacity:1" fill="#fdfefe" d="M 677.5,305.5 C 685.707,305.257 693.707,306.423 701.5,309C 708.837,313.5 713.337,320 715,328.5C 715.936,351.537 715.603,374.537 714,397.5C 710.847,409.651 703.014,416.484 690.5,418C 669.325,421.129 656.825,412.296 653,391.5C 652.333,371.5 652.333,351.5 653,331.5C 654.889,316.781 663.055,308.115 677.5,305.5 Z"/></g>
<g><path style="opacity:1" fill="#88ccec" d="M 861.5,307.5 C 856.167,307.5 850.833,307.5 845.5,307.5C 845.5,308.833 845.5,310.167 845.5,311.5C 844.549,310.081 844.216,308.415 844.5,306.5C 850.358,306.178 856.025,306.511 861.5,307.5 Z"/></g>
<g><path style="opacity:1" fill="#83caeb" d="M 916.5,307.5 C 921.975,306.511 927.642,306.178 933.5,306.5C 933.737,307.791 933.404,308.791 932.5,309.5C 927.604,307.554 922.271,306.887 916.5,307.5 Z"/></g>
<g><path style="opacity:1" fill="#8dceed" d="M 993.5,307.5 C 1011.99,306.503 1030.66,306.17 1049.5,306.5C 1049.5,311.833 1049.5,317.167 1049.5,322.5C 1043.5,322.5 1037.5,322.5 1031.5,322.5C 1036.98,321.511 1042.64,321.178 1048.5,321.5C 1048.5,316.833 1048.5,312.167 1048.5,307.5C 1030.17,307.5 1011.83,307.5 993.5,307.5 Z"/></g>
<g><path style="opacity:1" fill="#fcfdfe" d="M 478.5,307.5 C 492.218,307.094 505.885,307.594 519.5,309C 531.976,312.745 537.976,321.245 537.5,334.5C 538.116,346.135 533.116,353.969 522.5,358C 535.295,362.059 541.295,370.892 540.5,384.5C 541.267,403.016 532.6,413.683 514.5,416.5C 502.5,416.5 490.5,416.5 478.5,416.5C 478.5,380.167 478.5,343.833 478.5,307.5 Z"/></g>
<g><path style="opacity:1" fill="#fdfefe" d="M 549.5,307.5 C 564.5,307.5 579.5,307.5 594.5,307.5C 594.5,311.833 594.5,316.167 594.5,320.5C 585.983,320.174 577.65,320.507 569.5,321.5C 569.5,331.833 569.5,342.167 569.5,352.5C 576.167,352.5 582.833,352.5 589.5,352.5C 589.5,357.167 589.5,361.833 589.5,366.5C 582.833,366.5 576.167,366.5 569.5,366.5C 569.5,378.5 569.5,390.5 569.5,402.5C 578.167,402.5 586.833,402.5 595.5,402.5C 595.5,407.167 595.5,411.833 595.5,416.5C 580.167,416.5 564.833,416.5 549.5,416.5C 549.5,380.167 549.5,343.833 549.5,307.5 Z"/></g>
<g><path style="opacity:1" fill="#bae1f4" d="M 622.5,307.5 C 616.167,307.5 609.833,307.5 603.5,307.5C 603.5,343.833 603.5,380.167 603.5,416.5C 602.502,380.004 602.168,343.337 602.5,306.5C 609.354,306.176 616.021,306.509 622.5,307.5 Z"/></g>
<g><path style="opacity:1" fill="#fefefe" d="M 622.5,307.5 C 622.168,339.338 622.502,371.004 623.5,402.5C 631.65,403.493 639.983,403.826 648.5,403.5C 648.5,407.833 648.5,412.167 648.5,416.5C 633.5,416.5 618.5,416.5 603.5,416.5C 603.5,380.167 603.5,343.833 603.5,307.5C 609.833,307.5 616.167,307.5 622.5,307.5 Z"/></g>
<g><path style="opacity:1" fill="#fcfdfe" d="M 754.5,416.5 C 749.167,416.5 743.833,416.5 738.5,416.5C 738.737,415.209 738.404,414.209 737.5,413.5C 733.102,378.211 728.102,343.045 722.5,308C 725.333,307.833 728.167,307.667 731,307.5C 734.276,307.558 737.276,308.224 740,309.5C 742.733,331.165 745.4,352.832 748,374.5C 752.526,352.359 756.359,330.026 759.5,307.5C 764.43,307.197 769.263,307.531 774,308.5C 777.343,330.224 781.01,351.89 785,373.5C 788.406,351.924 791.406,330.257 794,308.5C 799.407,307.527 804.907,307.193 810.5,307.5C 805.418,343.822 800.418,380.156 795.5,416.5C 789.833,416.5 784.167,416.5 778.5,416.5C 775.532,392.693 771.699,369.026 767,345.5C 763.026,369.353 758.859,393.02 754.5,416.5 Z"/></g>
<g><path style="opacity:1" fill="#fcfefe" d="M 861.5,307.5 C 864.234,329.492 867.234,351.492 870.5,373.5C 875.031,351.649 878.697,329.649 881.5,307.5C 886.5,307.5 891.5,307.5 896.5,307.5C 899.413,329.311 903.08,350.977 907.5,372.5C 911.075,350.899 914.075,329.232 916.5,307.5C 922.271,306.887 927.604,307.554 932.5,309.5C 927.593,345.181 922.593,380.847 917.5,416.5C 911.697,417.087 906.197,416.42 901,414.5C 897.538,391.395 893.538,368.395 889,345.5C 884.518,368.393 880.685,391.393 877.5,414.5C 872.13,416.379 866.463,417.045 860.5,416.5C 855.593,381.484 850.593,346.484 845.5,311.5C 845.5,310.167 845.5,308.833 845.5,307.5C 850.833,307.5 856.167,307.5 861.5,307.5 Z"/></g>
<g><path style="opacity:1" fill="#fcfdfe" d="M 997.5,415.5 C 994.686,416.165 991.686,416.498 988.5,416.5C 984.902,416.409 981.569,415.743 978.5,414.5C 977.035,406.913 976.035,399.246 975.5,391.5C 968.833,391.5 962.167,391.5 955.5,391.5C 954.166,399.503 952.833,407.503 951.5,415.5C 945.202,416.496 938.868,416.83 932.5,416.5C 939.727,380.866 946.893,345.199 954,309.5C 961.222,307.556 968.722,306.889 976.5,307.5C 983.239,343.527 990.239,379.527 997.5,415.5 Z"/></g>
<g><path style="opacity:1" fill="#fefffe" d="M 993.5,307.5 C 1011.83,307.5 1030.17,307.5 1048.5,307.5C 1048.5,312.167 1048.5,316.833 1048.5,321.5C 1042.64,321.178 1036.98,321.511 1031.5,322.5C 1031.5,353.833 1031.5,385.167 1031.5,416.5C 1024.83,416.5 1018.17,416.5 1011.5,416.5C 1011.5,384.833 1011.5,353.167 1011.5,321.5C 1005.5,321.5 999.5,321.5 993.5,321.5C 993.5,316.833 993.5,312.167 993.5,307.5 Z"/></g>
<g><path style="opacity:1" fill="#b4def3" d="M 1099.5,307.5 C 1084.5,307.5 1069.5,307.5 1054.5,307.5C 1054.5,343.833 1054.5,380.167 1054.5,416.5C 1053.5,380.004 1053.17,343.337 1053.5,306.5C 1069.01,306.17 1084.34,306.504 1099.5,307.5 Z"/></g>
<g><path style="opacity:1" fill="#fefefe" d="M 1099.5,307.5 C 1099.5,312.167 1099.5,316.833 1099.5,321.5C 1090.83,321.5 1082.17,321.5 1073.5,321.5C 1073.5,331.833 1073.5,342.167 1073.5,352.5C 1080.5,352.5 1087.5,352.5 1094.5,352.5C 1094.5,357.167 1094.5,361.833 1094.5,366.5C 1087.5,366.5 1080.5,366.5 1073.5,366.5C 1073.17,378.678 1073.5,390.678 1074.5,402.5C 1082.65,403.493 1090.98,403.826 1099.5,403.5C 1099.5,407.833 1099.5,412.167 1099.5,416.5C 1084.5,416.5 1069.5,416.5 1054.5,416.5C 1054.5,380.167 1054.5,343.833 1054.5,307.5C 1069.5,307.5 1084.5,307.5 1099.5,307.5 Z"/></g>
<g><path style="opacity:1" fill="#53b5e4" d="M 1140.5,307.5 C 1129.5,307.5 1118.5,307.5 1107.5,307.5C 1107.5,343.833 1107.5,380.167 1107.5,416.5C 1106.5,380.004 1106.17,343.337 1106.5,306.5C 1118.01,306.172 1129.35,306.505 1140.5,307.5 Z"/></g>
<g><path style="opacity:1" fill="#fdfefe" d="M 1140.5,307.5 C 1159.33,308.664 1168.33,318.664 1167.5,337.5C 1168.45,348.932 1164.12,357.598 1154.5,363.5C 1159.25,380.931 1164.25,398.265 1169.5,415.5C 1162.83,416.833 1156.17,416.833 1149.5,415.5C 1144.87,399.24 1140.54,382.907 1136.5,366.5C 1133.5,366.5 1130.5,366.5 1127.5,366.5C 1127.5,383.167 1127.5,399.833 1127.5,416.5C 1120.83,416.5 1114.17,416.5 1107.5,416.5C 1107.5,380.167 1107.5,343.833 1107.5,307.5C 1118.5,307.5 1129.5,307.5 1140.5,307.5 Z"/></g>
<g><path style="opacity:1" fill="#acdbf2" d="M 549.5,307.5 C 564.658,306.504 579.991,306.17 595.5,306.5C 595.5,311.5 595.5,316.5 595.5,321.5C 586.833,321.5 578.167,321.5 569.5,321.5C 577.65,320.507 585.983,320.174 594.5,320.5C 594.5,316.167 594.5,311.833 594.5,307.5C 579.5,307.5 564.5,307.5 549.5,307.5 Z"/></g>
<g><path style="opacity:1" fill="#1298d9" d="M 498.5,321.5 C 519.674,320.649 525.34,329.815 515.5,349C 510.068,351.205 504.402,352.038 498.5,351.5C 498.5,341.5 498.5,331.5 498.5,321.5 Z"/></g>
<g><path style="opacity:1" fill="#1e9ada" d="M 680.5,320.5 C 688.163,319.076 692.996,322.076 695,329.5C 695.667,351.167 695.667,372.833 695,394.5C 692.073,402.546 686.573,405.046 678.5,402C 675.246,399.658 673.412,396.491 673,392.5C 672.333,371.833 672.333,351.167 673,330.5C 673.846,325.76 676.346,322.426 680.5,320.5 Z"/></g>
<g><path style="opacity:1" fill="#1798d9" d="M 1127.5,320.5 C 1146.28,319.675 1152.78,328.342 1147,346.5C 1145.88,348.624 1144.38,350.457 1142.5,352C 1137.63,353.388 1132.63,353.888 1127.5,353.5C 1127.5,342.5 1127.5,331.5 1127.5,320.5 Z"/></g>
<g><path style="opacity:1" fill="#52b4e4" d="M 993.5,321.5 C 999.5,321.5 1005.5,321.5 1011.5,321.5C 1011.5,353.167 1011.5,384.833 1011.5,416.5C 1010.5,385.338 1010.17,354.004 1010.5,322.5C 1004.64,322.822 998.975,322.489 993.5,321.5 Z"/></g>
<g><path style="opacity:1" fill="#289ddb" d="M 964.5,334.5 C 965.222,334.918 965.722,335.584 966,336.5C 968.06,350.525 970.226,364.525 972.5,378.5C 967.833,378.5 963.167,378.5 958.5,378.5C 960.284,363.8 962.284,349.133 964.5,334.5 Z"/></g>
<g><path style="opacity:1" fill="#1698d9" d="M 498.5,365.5 C 518.55,365.093 525.717,374.76 520,394.5C 518.407,398.428 515.573,400.928 511.5,402C 507.179,402.499 502.846,402.666 498.5,402.5C 498.5,390.167 498.5,377.833 498.5,365.5 Z"/></g>
<g><path style="opacity:1" fill="#85cbec" d="M 1094.5,366.5 C 1088.02,367.491 1081.35,367.824 1074.5,367.5C 1074.5,379.167 1074.5,390.833 1074.5,402.5C 1073.5,390.678 1073.17,378.678 1073.5,366.5C 1080.5,366.5 1087.5,366.5 1094.5,366.5 Z"/></g>
<g><path style="opacity:1" fill="#c1e4f5" d="M 623.5,402.5 C 632.167,402.5 640.833,402.5 649.5,402.5C 649.819,407.363 649.486,412.03 648.5,416.5C 648.5,412.167 648.5,407.833 648.5,403.5C 639.983,403.826 631.65,403.493 623.5,402.5 Z"/></g>
<g><path style="opacity:1" fill="#c1e4f5" d="M 1074.5,402.5 C 1083.17,402.5 1091.83,402.5 1100.5,402.5C 1100.82,407.363 1100.49,412.03 1099.5,416.5C 1099.5,412.167 1099.5,407.833 1099.5,403.5C 1090.98,403.826 1082.65,403.493 1074.5,402.5 Z"/></g>
<g><path style="opacity:1" fill="#9cd4ef" d="M 341.5,347.5 C 341.5,370.167 341.5,392.833 341.5,415.5C 324.658,415.83 307.992,415.497 291.5,414.5C 307.833,414.5 324.167,414.5 340.5,414.5C 340.169,391.994 340.503,369.66 341.5,347.5 Z"/></g>
<g><path style="opacity:1" fill="#64bbe6" d="M 478.5,307.5 C 478.5,343.833 478.5,380.167 478.5,416.5C 490.5,416.5 502.5,416.5 514.5,416.5C 502.345,417.495 490.011,417.829 477.5,417.5C 477.168,380.663 477.502,343.996 478.5,307.5 Z"/></g>
<g><path style="opacity:1" fill="#63bbe6" d="M 549.5,307.5 C 549.5,343.833 549.5,380.167 549.5,416.5C 564.833,416.5 580.167,416.5 595.5,416.5C 580.009,417.496 564.342,417.83 548.5,417.5C 548.168,380.663 548.502,343.996 549.5,307.5 Z"/></g>
<g><path style="opacity:1" fill="#56b5e4" d="M 737.5,413.5 C 738.404,414.209 738.737,415.209 738.5,416.5C 743.833,416.5 749.167,416.5 754.5,416.5C 749.025,417.489 743.358,417.822 737.5,417.5C 737.5,416.167 737.5,414.833 737.5,413.5 Z"/></g>
<g><path style="opacity:1" fill="#50b3e3" d="M 877.5,414.5 C 877.5,415.5 877.5,416.5 877.5,417.5C 871.642,417.822 865.975,417.489 860.5,416.5C 866.463,417.045 872.13,416.379 877.5,414.5 Z"/></g>
<g><path style="opacity:1" fill="#4eb2e3" d="M 978.5,414.5 C 981.569,415.743 984.902,416.409 988.5,416.5C 991.686,416.498 994.686,416.165 997.5,415.5C 998.043,415.56 998.376,415.893 998.5,416.5C 991.866,417.497 985.2,417.83 978.5,417.5C 978.5,416.5 978.5,415.5 978.5,414.5 Z"/></g>
<g><path style="opacity:1" fill="#fdfefe" d="M 525.5,593.5 C 526.873,593.343 528.207,593.51 529.5,594C 571.258,628.357 618.925,641.69 672.5,634C 698.287,627.277 720.62,614.611 739.5,596C 741.695,594.627 744.029,594.294 746.5,595C 788.279,635.094 836.946,646.428 892.5,629C 917.094,620.539 939.761,608.706 960.5,593.5C 1014.94,643.559 1075.61,652.392 1142.5,620C 1144.92,619.313 1147.09,619.813 1149,621.5C 1149.67,634.833 1149.67,648.167 1149,661.5C 1104.58,700.414 1056.41,705.581 1004.5,677C 997.328,672.581 990.328,667.915 983.5,663C 977.282,657.111 970.782,651.611 964,646.5C 906.657,699.352 843.823,706.519 775.5,668C 764.622,661.067 753.955,653.901 743.5,646.5C 725.449,660.534 705.782,672.034 684.5,681C 638.848,699.408 595.182,695.741 553.5,670C 543.037,662.535 532.87,654.702 523,646.5C 506.35,662.418 487.517,675.251 466.5,685C 418.71,703.952 375.877,696.119 338,661.5C 337.333,648.5 337.333,635.5 338,622.5C 339.481,619.92 341.648,619.087 344.5,620C 383.974,640.43 424.974,644.097 467.5,631C 489.726,622.736 509.06,610.236 525.5,593.5 Z"/></g>
<g><path style="opacity:1" fill="#fefefe" d="M 524.5,718.5 C 530.274,719.727 535.274,722.56 539.5,727C 563.614,743.221 589.948,754.221 618.5,760C 665.896,766.609 706.563,753.276 740.5,720C 742.5,719.333 744.5,719.333 746.5,720C 786.923,758.939 834.256,770.605 888.5,755C 914.586,746.875 938.419,734.709 960,718.5C 960.833,718.667 961.667,718.833 962.5,719C 1009.42,763.223 1063.42,774.557 1124.5,753C 1130.67,750.722 1136.67,748.055 1142.5,745C 1145.03,744.104 1147.19,744.604 1149,746.5C 1149.67,759.833 1149.67,773.167 1149,786.5C 1107.02,823.29 1060.86,829.457 1010.5,805C 994.561,796.526 980.227,785.86 967.5,773C 966.271,772.219 964.938,771.719 963.5,771.5C 947.058,786.9 928.392,799.067 907.5,808C 869.562,820.668 832.229,819.002 795.5,803C 777.019,794.357 759.852,783.857 744,771.5C 732.649,779.101 721.149,786.601 709.5,794C 641.824,830.79 579.824,823.29 523.5,771.5C 512.902,780.472 501.902,788.972 490.5,797C 437.551,829.952 387.051,826.786 339,787.5C 337.868,780.434 337.368,773.267 337.5,766C 337.667,759.5 337.833,753 338,746.5C 339.808,744.604 341.975,744.104 344.5,745C 391.079,768.467 438.079,769.467 485.5,748C 500.004,740.089 513.004,730.256 524.5,718.5 Z"/></g>
<g><path style="opacity:1" fill="#fefefe" d="M 342.5,914.5 C 391.277,919.229 433.61,938.062 469.5,971C 494.197,994.013 514.697,1020.18 531,1049.5C 590.296,1000.75 656.13,962.578 728.5,935C 814.001,903.801 897.667,908.134 979.5,948C 1048.28,984.435 1106.45,1033.6 1154,1095.5C 1155.42,1098.03 1155.75,1100.7 1155,1103.5C 1104.76,1170.09 1042.26,1221.59 967.5,1258C 910.848,1283.46 851.848,1291.46 790.5,1282C 753.546,1274.35 717.88,1262.68 683.5,1247C 628.896,1220.8 578.063,1188.97 531,1151.5C 509.667,1188.84 481.834,1220.68 447.5,1247C 415.915,1269.97 380.582,1282.64 341.5,1285C 339.813,1283.09 339.313,1280.92 340,1278.5C 368.756,1232.31 387.423,1182.31 396,1128.5C 400.122,1091.69 396.455,1055.69 385,1020.5C 373.116,985.176 357.949,951.342 339.5,919C 340.315,917.357 341.315,915.857 342.5,914.5 Z"/></g>
<g><path style="opacity:1" fill="#0e97d9" d="M 927.5,1019.5 C 956.699,1018 975.866,1031 985,1058.5C 988.749,1081.82 980.916,1099.99 961.5,1113C 933.061,1126.18 909.895,1120.02 892,1094.5C 880.007,1068.27 885.174,1046.1 907.5,1028C 913.888,1024.27 920.555,1021.43 927.5,1019.5 Z"/></g>
</svg>
