<?xml version="1.0" encoding="UTF-8"?>
<!DOCTYPE svg PUBLIC "-//W3C//DTD SVG 1.1//EN" "http://www.w3.org/Graphics/SVG/1.1/DTD/svg11.dtd">
<svg xmlns="http://www.w3.org/2000/svg" version="1.1" width="1500px" height="1500px" style="shape-rendering:geometricPrecision; text-rendering:geometricPrecision; image-rendering:optimizeQuality; fill-rule:evenodd; clip-rule:evenodd" xmlns:xlink="http://www.w3.org/1999/xlink">
<g><path style="opacity:1" fill="#56c02b" d="M -0.5,-0.5 C 499.5,-0.5 999.5,-0.5 1499.5,-0.5C 1499.5,499.5 1499.5,999.5 1499.5,1499.5C 999.5,1499.5 499.5,1499.5 -0.5,1499.5C -0.5,999.5 -0.5,499.5 -0.5,-0.5 Z"/></g>
<g><path style="opacity:1" fill="#c1e7b1" d="M 583.5,142.5 C 591.316,141.508 599.316,141.174 607.5,141.5C 607.5,137.167 607.5,132.833 607.5,128.5C 592.833,128.5 578.167,128.5 563.5,128.5C 563.5,164.833 563.5,201.167 563.5,237.5C 562.502,201.004 562.168,164.337 562.5,127.5C 577.833,127.5 593.167,127.5 608.5,127.5C 608.5,132.5 608.5,137.5 608.5,142.5C 600.167,142.5 591.833,142.5 583.5,142.5 Z"/></g>
<g><path style="opacity:1" fill="#fefefe" d="M 85.5,199.5 C 84.5044,186.344 84.1711,173.01 84.5,159.5C 103.582,152.132 120.915,141.966 136.5,129C 151.163,128.5 165.83,128.333 180.5,128.5C 180.5,223.833 180.5,319.167 180.5,414.5C 162.167,414.5 143.833,414.5 125.5,414.5C 125.5,338.167 125.5,261.833 125.5,185.5C 112.254,190.36 98.9204,195.027 85.5,199.5 Z"/></g>
<g><path style="opacity:1" fill="#fefefe" d="M 350.5,128.5 C 350.5,143.833 350.5,159.167 350.5,174.5C 321.329,174.169 292.329,174.502 263.5,175.5C 262.51,196.178 261.677,216.844 261,237.5C 278.036,225.462 296.87,221.629 317.5,226C 334.317,230.814 346.151,241.314 353,257.5C 360.164,275.976 363.331,295.142 362.5,315C 362.93,335.875 360.43,356.375 355,376.5C 345.384,402.768 326.55,416.935 298.5,419C 241.829,425.487 213.163,400.32 212.5,343.5C 212.5,339.833 212.5,336.167 212.5,332.5C 229.833,332.5 247.167,332.5 264.5,332.5C 264.194,335.385 264.527,338.052 265.5,340.5C 265.693,350.045 267.193,359.378 270,368.5C 275.357,377.59 283.191,380.757 293.5,378C 300.64,376.193 305.14,371.693 307,364.5C 308.036,361.247 308.703,357.914 309,354.5C 311.302,331.114 310.968,307.78 308,284.5C 304.577,269.195 295.077,263.028 279.5,266C 269.352,270.993 263.686,279.159 262.5,290.5C 246.833,290.5 231.167,290.5 215.5,290.5C 215.5,284.5 215.5,278.5 215.5,272.5C 216.119,224.491 217.119,176.491 218.5,128.5C 262.5,128.5 306.5,128.5 350.5,128.5 Z"/></g>
<g><path style="opacity:1" fill="#fefefe" d="M 477.5,127.5 C 484.167,127.5 490.833,127.5 497.5,127.5C 497.5,159.5 497.5,191.5 497.5,223.5C 506.167,223.5 514.833,223.5 523.5,223.5C 523.5,228.167 523.5,232.833 523.5,237.5C 508.167,237.5 492.833,237.5 477.5,237.5C 477.5,200.833 477.5,164.167 477.5,127.5 Z"/></g>
<g><path style="opacity:1" fill="#fefefe" d="M 530.5,127.5 C 537.167,127.5 543.833,127.5 550.5,127.5C 550.5,164.167 550.5,200.833 550.5,237.5C 543.833,237.5 537.167,237.5 530.5,237.5C 530.5,200.833 530.5,164.167 530.5,127.5 Z"/></g>
<g><path style="opacity:1" fill="#fdfefd" d="M 583.5,142.5 C 583.5,152.833 583.5,163.167 583.5,173.5C 590.167,173.5 596.833,173.5 603.5,173.5C 603.5,178.167 603.5,182.833 603.5,187.5C 596.833,187.5 590.167,187.5 583.5,187.5C 583.5,204.167 583.5,220.833 583.5,237.5C 576.833,237.5 570.167,237.5 563.5,237.5C 563.5,201.167 563.5,164.833 563.5,128.5C 578.167,128.5 592.833,128.5 607.5,128.5C 607.5,132.833 607.5,137.167 607.5,141.5C 599.316,141.174 591.316,141.508 583.5,142.5 Z"/></g>
<g><path style="opacity:1" fill="#fdfefd" d="M 655.5,187.5 C 648.5,187.5 641.5,187.5 634.5,187.5C 634.5,199.5 634.5,211.5 634.5,223.5C 642.984,224.493 651.651,224.826 660.5,224.5C 660.5,228.833 660.5,233.167 660.5,237.5C 645.167,237.5 629.833,237.5 614.5,237.5C 614.5,200.833 614.5,164.167 614.5,127.5C 629.833,127.5 645.167,127.5 660.5,127.5C 660.5,132.5 660.5,137.5 660.5,142.5C 651.833,142.5 643.167,142.5 634.5,142.5C 634.5,152.833 634.5,163.167 634.5,173.5C 641.5,173.5 648.5,173.5 655.5,173.5C 655.5,178.167 655.5,182.833 655.5,187.5 Z"/></g>
<g><path style="opacity:1" fill="#abe095" d="M 84.5,159.5 C 84.1711,173.01 84.5044,186.344 85.5,199.5C 85.44,200.043 85.1067,200.376 84.5,200.5C 83.1745,186.672 83.1745,173.006 84.5,159.5 Z"/></g>
<g><path style="opacity:1" fill="#caebbc" d="M 350.5,128.5 C 351.496,143.991 351.83,159.658 351.5,175.5C 322.167,175.5 292.833,175.5 263.5,175.5C 292.329,174.502 321.329,174.169 350.5,174.5C 350.5,159.167 350.5,143.833 350.5,128.5 Z"/></g>
<g><path style="opacity:1" fill="#80d060" d="M 655.5,187.5 C 649.021,188.491 642.354,188.824 635.5,188.5C 635.5,200.167 635.5,211.833 635.5,223.5C 635.167,223.5 634.833,223.5 634.5,223.5C 634.5,211.5 634.5,199.5 634.5,187.5C 641.5,187.5 648.5,187.5 655.5,187.5 Z"/></g>
<g><path style="opacity:1" fill="#caebbc" d="M 634.5,223.5 C 634.833,223.5 635.167,223.5 635.5,223.5C 644.167,223.5 652.833,223.5 661.5,223.5C 661.819,228.363 661.486,233.03 660.5,237.5C 660.5,233.167 660.5,228.833 660.5,224.5C 651.651,224.826 642.984,224.493 634.5,223.5 Z"/></g>
<g><path style="opacity:1" fill="#d0edc5" d="M 215.5,272.5 C 215.5,278.5 215.5,284.5 215.5,290.5C 231.167,290.5 246.833,290.5 262.5,290.5C 246.675,291.496 230.675,291.83 214.5,291.5C 214.177,284.978 214.51,278.645 215.5,272.5 Z"/></g>
<g><path style="opacity:1" fill="#fdfefd" d="M 500.5,305.5 C 510.067,304.643 519.067,306.476 527.5,311C 533.197,315.892 536.697,322.059 538,329.5C 538.935,352.203 538.602,374.87 537,397.5C 533.851,409.646 526.017,416.48 513.5,418C 491.863,421.006 479.363,411.839 476,390.5C 475.094,368.803 475.427,347.137 477,325.5C 480.785,313.868 488.619,307.202 500.5,305.5 Z"/></g>
<g><path style="opacity:1" fill="#fefefe" d="M 588.5,366.5 C 588.783,367.289 589.283,367.956 590,368.5C 590.5,348.169 590.667,327.836 590.5,307.5C 595.833,307.5 601.167,307.5 606.5,307.5C 606.5,343.833 606.5,380.167 606.5,416.5C 601.833,416.5 597.167,416.5 592.5,416.5C 584.366,395.433 576.032,374.433 567.5,353.5C 567.44,352.957 567.107,352.624 566.5,352.5C 565.5,373.823 565.167,395.156 565.5,416.5C 560.167,416.5 554.833,416.5 549.5,416.5C 549.5,380.167 549.5,343.833 549.5,307.5C 554.43,307.197 559.263,307.531 564,308.5C 572.27,327.817 580.437,347.15 588.5,366.5 Z"/></g>
<g><path style="opacity:1" fill="#cdecc0" d="M 606.5,307.5 C 601.167,307.5 595.833,307.5 590.5,307.5C 590.667,327.836 590.5,348.169 590,368.5C 589.283,367.956 588.783,367.289 588.5,366.5C 589.497,346.674 589.83,326.674 589.5,306.5C 595.358,306.178 601.025,306.511 606.5,307.5 Z"/></g>
<g><path style="opacity:1" fill="#cfecc3" d="M 667.5,307.5 C 661.167,307.5 654.833,307.5 648.5,307.5C 648.5,343.833 648.5,380.167 648.5,416.5C 647.502,380.004 647.168,343.337 647.5,306.5C 654.354,306.176 661.021,306.509 667.5,307.5 Z"/></g>
<g><path style="opacity:1" fill="#fefefe" d="M 667.5,307.5 C 667.5,339.167 667.5,370.833 667.5,402.5C 676.167,402.5 684.833,402.5 693.5,402.5C 693.5,407.167 693.5,411.833 693.5,416.5C 678.5,416.5 663.5,416.5 648.5,416.5C 648.5,380.167 648.5,343.833 648.5,307.5C 654.833,307.5 661.167,307.5 667.5,307.5 Z"/></g>
<g><path style="opacity:1" fill="#fdfefd" d="M 695.5,416.5 C 695.5,415.833 695.5,415.167 695.5,414.5C 702.393,378.805 709.393,343.139 716.5,307.5C 723.833,307.5 731.167,307.5 738.5,307.5C 745.261,343.803 752.594,379.97 760.5,416C 754.175,416.5 747.842,416.666 741.5,416.5C 740.167,408.169 738.834,399.836 737.5,391.5C 730.833,391.5 724.167,391.5 717.5,391.5C 716.177,399.774 715.177,408.107 714.5,416.5C 708.167,416.5 701.833,416.5 695.5,416.5 Z"/></g>
<g><path style="opacity:1" fill="#d0edc5" d="M 780.5,307.5 C 776.167,307.5 771.833,307.5 767.5,307.5C 767.5,343.833 767.5,380.167 767.5,416.5C 766.502,380.004 766.168,343.337 766.5,306.5C 771.363,306.181 776.03,306.514 780.5,307.5 Z"/></g>
<g><path style="opacity:1" fill="#fefefe" d="M 780.5,307.5 C 789.07,326.314 797.403,345.314 805.5,364.5C 805.987,365.473 806.487,366.473 807,367.5C 807.5,347.503 807.667,327.503 807.5,307.5C 812.833,307.5 818.167,307.5 823.5,307.5C 823.5,343.833 823.5,380.167 823.5,416.5C 819.116,416.826 814.783,416.492 810.5,415.5C 802.154,395.479 793.821,375.479 785.5,355.5C 785.217,354.711 784.717,354.044 784,353.5C 783.5,374.497 783.333,395.497 783.5,416.5C 778.167,416.5 772.833,416.5 767.5,416.5C 767.5,380.167 767.5,343.833 767.5,307.5C 771.833,307.5 776.167,307.5 780.5,307.5 Z"/></g>
<g><path style="opacity:1" fill="#80d061" d="M 807.5,307.5 C 807.667,327.503 807.5,347.503 807,367.5C 806.487,366.473 805.987,365.473 805.5,364.5C 806.167,345.5 806.833,326.5 807.5,307.5 Z"/></g>
<g><path style="opacity:1" fill="#fefefe" d="M 836.5,307.5 C 849.171,307.333 861.838,307.5 874.5,308C 886.226,310.06 893.393,316.893 896,328.5C 896.667,349.833 896.667,371.167 896,392.5C 894.279,405.888 886.779,413.721 873.5,416C 861.171,416.5 848.838,416.667 836.5,416.5C 836.5,380.167 836.5,343.833 836.5,307.5 Z"/></g>
<g><path style="opacity:1" fill="#5cc233" d="M 503.5,320.5 C 511.163,319.076 515.996,322.076 518,329.5C 518.667,350.833 518.667,372.167 518,393.5C 516.278,401.284 511.445,404.451 503.5,403C 498.638,400.792 496.138,396.959 496,391.5C 495.333,371.833 495.333,352.167 496,332.5C 496.271,326.93 498.771,322.93 503.5,320.5 Z"/></g>
<g><path style="opacity:1" fill="#59c02f" d="M 856.5,321.5 C 860.514,321.334 864.514,321.501 868.5,322C 873.228,323.396 875.728,326.562 876,331.5C 876.93,352.871 876.597,374.204 875,395.5C 874.167,399 872,401.167 868.5,402C 864.514,402.499 860.514,402.666 856.5,402.5C 856.5,375.5 856.5,348.5 856.5,321.5 Z"/></g>
<g><path style="opacity:1" fill="#d0edc4" d="M 265.5,340.5 C 264.527,338.052 264.194,335.385 264.5,332.5C 247.167,332.5 229.833,332.5 212.5,332.5C 212.5,336.167 212.5,339.833 212.5,343.5C 211.517,339.702 211.183,335.702 211.5,331.5C 229.5,331.5 247.5,331.5 265.5,331.5C 265.5,334.5 265.5,337.5 265.5,340.5 Z"/></g>
<g><path style="opacity:1" fill="#5fc337" d="M 727.5,336.5 C 730.319,350.283 732.652,364.283 734.5,378.5C 729.833,378.5 725.167,378.5 720.5,378.5C 722.324,364.386 724.657,350.386 727.5,336.5 Z"/></g>
<g><path style="opacity:1" fill="#d5efcb" d="M 567.5,353.5 C 566.833,374.5 566.167,395.5 565.5,416.5C 565.167,395.156 565.5,373.823 566.5,352.5C 567.107,352.624 567.44,352.957 567.5,353.5 Z"/></g>
<g><path style="opacity:1" fill="#aadf94" d="M 785.5,355.5 C 784.833,375.833 784.167,396.167 783.5,416.5C 783.333,395.497 783.5,374.497 784,353.5C 784.717,354.044 785.217,354.711 785.5,355.5 Z"/></g>
<g><path style="opacity:1" fill="#abe095" d="M 693.5,402.5 C 694.167,406.5 694.833,410.5 695.5,414.5C 695.5,415.167 695.5,415.833 695.5,416.5C 694.833,416.5 694.167,416.5 693.5,416.5C 693.5,411.833 693.5,407.167 693.5,402.5 Z"/></g>
<g><path style="opacity:1" fill="#fefefe" d="M 575.5,594.5 C 628.537,591.585 666.371,613.919 689,661.5C 699.686,691.172 698.853,720.505 686.5,749.5C 730.445,760.608 759.945,787.608 775,830.5C 787.35,879.614 775.517,921.781 739.5,957C 720.689,972.835 699.022,982.502 674.5,986C 618.5,986.667 562.5,986.667 506.5,986C 474.232,987.113 448.399,974.946 429,949.5C 406.322,912.016 408.822,876.349 436.5,842.5C 406.465,822.625 393.632,794.625 398,758.5C 409.689,716.074 437.522,694.408 481.5,693.5C 489.669,638.334 521.003,605.334 575.5,594.5 Z"/></g>
<g><path style="opacity:1" fill="#fdfefd" d="M 940.5,594.5 C 957.527,592.755 972.86,596.922 986.5,607C 991.355,611.855 996.188,616.688 1001,621.5C 1017.61,616.098 1034.11,616.265 1050.5,622C 1062.28,627.444 1071.11,635.944 1077,647.5C 1078.93,655.809 1075.76,659.309 1067.5,658C 1064.29,654.051 1060.29,651.051 1055.5,649C 1035.22,641.141 1015.56,642.474 996.5,653C 994.5,653.667 992.5,653.667 990.5,653C 986.212,647.59 982.045,642.09 978,636.5C 963.141,619.989 944.641,612.822 922.5,615C 918.577,610.739 918.577,606.406 922.5,602C 928.374,598.883 934.374,596.383 940.5,594.5 Z"/></g>
<g><path style="opacity:1" fill="#fdfefd" d="M 913.5,679.5 C 937.197,676.677 957.697,683.344 975,699.5C 975.817,702.964 975.483,706.298 974,709.5C 972.426,710.848 970.593,711.514 968.5,711.5C 953.25,704.495 937.583,703.662 921.5,709C 912.77,712.198 904.437,716.198 896.5,721C 889.54,726.292 882.873,731.958 876.5,738C 874.167,738.667 871.833,738.667 869.5,738C 844.918,717.083 816.918,710.416 785.5,718C 782.212,720.301 778.712,722.134 775,723.5C 772.127,723.402 770.127,722.068 769,719.5C 768.333,716.5 768.333,713.5 769,710.5C 792.819,685.075 820.986,678.909 853.5,692C 859.573,694.785 865.406,697.952 871,701.5C 883.647,691.094 897.814,683.761 913.5,679.5 Z"/></g>
<g><path style="opacity:1" fill="#fdfefd" d="M 898.5,869.5 C 924.828,869.442 948.328,877.442 969,893.5C 987.646,878.895 1008.81,870.895 1032.5,869.5C 1056.83,870.582 1077.33,879.915 1094,897.5C 1095.15,901.829 1094.32,905.662 1091.5,909C 1090.17,909.167 1088.83,909.333 1087.5,909.5C 1080.28,905.937 1072.61,903.437 1064.5,902C 1029.08,899.138 998.75,910.138 973.5,935C 970.5,935.667 967.5,935.667 964.5,935C 935.513,906.559 901.179,896.559 861.5,905C 859.004,906.08 856.67,907.414 854.5,909C 845.42,910.402 842.253,906.569 845,897.5C 859.486,881.675 877.319,872.341 898.5,869.5 Z"/></g>
<g><path style="opacity:1" fill="#fdfefd" d="M 573.5,1015.5 C 589.503,1015.33 605.503,1015.5 621.5,1016C 622,1016.5 622.5,1017 623,1017.5C 623.667,1055.17 623.667,1092.83 623,1130.5C 622.5,1131 622,1131.5 621.5,1132C 605.5,1132.67 589.5,1132.67 573.5,1132C 573,1131.5 572.5,1131 572,1130.5C 571.333,1092.83 571.333,1055.17 572,1017.5C 572.717,1016.96 573.217,1016.29 573.5,1015.5 Z"/></g>
<g><path style="opacity:1" fill="#fefefe" d="M 373.5,1179.5 C 619.167,1179.33 864.834,1179.5 1110.5,1180C 1111,1180.5 1111.5,1181 1112,1181.5C 1112.67,1197.5 1112.67,1213.5 1112,1229.5C 1111.5,1230 1111,1230.5 1110.5,1231C 864.5,1231.67 618.5,1231.67 372.5,1231C 371.342,1214.57 371.176,1198.07 372,1181.5C 372.717,1180.96 373.217,1180.29 373.5,1179.5 Z"/></g>
<g><path style="opacity:1" fill="#fefefd" d="M 373.5,1268.5 C 619.167,1268.33 864.834,1268.5 1110.5,1269C 1111,1269.5 1111.5,1270 1112,1270.5C 1112.67,1286.5 1112.67,1302.5 1112,1318.5C 1111.5,1319 1111,1319.5 1110.5,1320C 864.5,1320.67 618.5,1320.67 372.5,1320C 371.342,1303.57 371.176,1287.07 372,1270.5C 372.717,1269.96 373.217,1269.29 373.5,1268.5 Z"/></g>
</svg>
