<?xml version="1.0" encoding="UTF-8"?>
<!DOCTYPE svg PUBLIC "-//W3C//DTD SVG 1.1//EN" "http://www.w3.org/Graphics/SVG/1.1/DTD/svg11.dtd">
<svg xmlns="http://www.w3.org/2000/svg" version="1.1" width="1500px" height="1500px" style="shape-rendering:geometricPrecision; text-rendering:geometricPrecision; image-rendering:optimizeQuality; fill-rule:evenodd; clip-rule:evenodd" xmlns:xlink="http://www.w3.org/1999/xlink">
<g><path style="opacity:1" fill="#4c9f38" d="M -0.5,-0.5 C 499.5,-0.5 999.5,-0.5 1499.5,-0.5C 1499.5,499.5 1499.5,999.5 1499.5,1499.5C 999.5,1499.5 499.5,1499.5 -0.5,1499.5C -0.5,999.5 -0.5,499.5 -0.5,-0.5 Z"/></g>
<g><path style="opacity:1" fill="#fefefd" d="M 179.5,124.5 C 247.062,121.231 276.896,153.231 269,220.5C 265.915,234.844 259.081,247.01 248.5,257C 244.326,259.588 239.993,261.921 235.5,264C 252.056,270.893 262.556,283.06 267,300.5C 273.239,328.47 271.239,355.804 261,382.5C 250.933,403.884 234.099,416.051 210.5,419C 195.379,420.164 180.379,419.497 165.5,417C 140.651,409.481 125.484,392.981 120,367.5C 116.967,352.993 115.801,338.326 116.5,323.5C 134.833,323.5 153.167,323.5 171.5,323.5C 170.937,335.286 171.771,346.953 174,358.5C 178.356,371.265 187.19,376.099 200.5,373C 208.521,370.975 213.021,365.808 214,357.5C 217.634,340.079 217.3,322.745 213,305.5C 210.229,297.73 205.063,292.23 197.5,289C 189.92,287.399 182.253,286.565 174.5,286.5C 174.5,273.167 174.5,259.833 174.5,246.5C 185.095,247.717 195.095,245.883 204.5,241C 211.597,234.067 215.431,225.567 216,215.5C 216.698,205.801 216.365,196.134 215,186.5C 211.077,171.11 201.243,165.277 185.5,169C 179.508,171.659 175.675,176.159 174,182.5C 171.837,194.397 171.004,206.397 171.5,218.5C 153.167,218.5 134.833,218.5 116.5,218.5C 114.878,199.971 117.045,181.971 123,164.5C 134.519,140.811 153.353,127.478 179.5,124.5 Z"/></g>
<g><path style="opacity:1" fill="#fdfdfc" d="M 452.5,153.5 C 452.5,156.833 452.5,160.167 452.5,163.5C 446.5,163.5 440.5,163.5 434.5,163.5C 434.81,160.287 434.477,157.287 433.5,154.5C 433.653,144.235 428.653,140.068 418.5,142C 416,143.167 414.167,145 413,147.5C 411.368,168.436 411.034,189.436 412,210.5C 412.988,222.58 419.155,226.413 430.5,222C 432.563,219.489 434.063,216.656 435,213.5C 435.499,207.509 435.666,201.509 435.5,195.5C 431.5,195.5 427.5,195.5 423.5,195.5C 423.5,190.833 423.5,186.167 423.5,181.5C 433.5,181.5 443.5,181.5 453.5,181.5C 453.5,200.167 453.5,218.833 453.5,237.5C 449.167,237.5 444.833,237.5 440.5,237.5C 440.11,234.161 439.61,230.827 439,227.5C 435.05,235.816 428.383,239.816 419,239.5C 402.276,237.774 393.276,228.441 392,211.5C 391.333,191.167 391.333,170.833 392,150.5C 395.495,134.336 405.495,126.336 422,126.5C 441.194,125.536 451.361,134.536 452.5,153.5 Z"/></g>
<g><path style="opacity:1" fill="#fbfdfb" d="M 488.5,126.5 C 499.134,125.207 509.134,127.04 518.5,132C 524.252,137.23 527.752,143.73 529,151.5C 529.92,173.533 529.587,195.533 528,217.5C 525.705,228.959 518.872,235.792 507.5,238C 500.5,238.667 493.5,238.667 486.5,238C 474.931,234.427 468.431,226.593 467,214.5C 465.014,192.836 465.014,171.169 467,149.5C 469.234,137.103 476.4,129.436 488.5,126.5 Z"/></g>
<g><path style="opacity:1" fill="#fcfdfc" d="M 565.5,126.5 C 574.923,125.647 583.923,127.147 592.5,131C 598.757,136.006 602.59,142.506 604,150.5C 604.667,171.5 604.667,192.5 604,213.5C 601.204,231.074 590.871,239.741 573,239.5C 554.122,239.622 543.789,230.289 542,211.5C 541.045,189.783 541.378,168.116 543,146.5C 546.668,135.323 554.168,128.656 565.5,126.5 Z"/></g>
<g><path style="opacity:1" fill="#cde4c7" d="M 898.5,128.5 C 891.08,128.203 883.746,128.536 876.5,129.5C 879.768,128.178 883.435,127.511 887.5,127.5C 891.349,127.501 895.016,127.835 898.5,128.5 Z"/></g>
<g><path style="opacity:1" fill="#cbe3c5" d="M 1031.5,142.5 C 1031.5,137.833 1031.5,133.167 1031.5,128.5C 1013.17,128.5 994.833,128.5 976.5,128.5C 976.5,133.167 976.5,137.833 976.5,142.5C 975.513,137.695 975.179,132.695 975.5,127.5C 994.5,127.5 1013.5,127.5 1032.5,127.5C 1032.82,132.695 1032.49,137.695 1031.5,142.5 Z"/></g>
<g><path style="opacity:1" fill="#fdfdfc" d="M 618.5,127.5 C 631.875,127.143 645.208,127.643 658.5,129C 669.009,131.509 675.509,138.009 678,148.5C 679.987,170.503 679.987,192.503 678,214.5C 675.693,227.807 667.86,235.307 654.5,237C 642.505,237.5 630.505,237.667 618.5,237.5C 618.5,200.833 618.5,164.167 618.5,127.5 Z"/></g>
<g><path style="opacity:1" fill="#fefefd" d="M 725.5,127.5 C 732.167,127.5 738.833,127.5 745.5,127.5C 745.5,142.833 745.5,158.167 745.5,173.5C 752.833,173.5 760.167,173.5 767.5,173.5C 767.5,158.167 767.5,142.833 767.5,127.5C 774.167,127.5 780.833,127.5 787.5,127.5C 787.5,164.167 787.5,200.833 787.5,237.5C 780.833,237.5 774.167,237.5 767.5,237.5C 767.5,221.167 767.5,204.833 767.5,188.5C 760.167,188.5 752.833,188.5 745.5,188.5C 745.5,204.833 745.5,221.167 745.5,237.5C 738.833,237.5 732.167,237.5 725.5,237.5C 725.5,200.833 725.5,164.167 725.5,127.5 Z"/></g>
<g><path style="opacity:1" fill="#fdfefd" d="M 844.5,187.5 C 837.5,187.5 830.5,187.5 823.5,187.5C 823.5,199.5 823.5,211.5 823.5,223.5C 831.984,224.493 840.651,224.826 849.5,224.5C 849.5,228.833 849.5,233.167 849.5,237.5C 834.167,237.5 818.833,237.5 803.5,237.5C 803.5,200.833 803.5,164.167 803.5,127.5C 818.833,127.5 834.167,127.5 849.5,127.5C 849.5,132.5 849.5,137.5 849.5,142.5C 840.833,142.5 832.167,142.5 823.5,142.5C 823.5,152.833 823.5,163.167 823.5,173.5C 830.5,173.5 837.5,173.5 844.5,173.5C 844.5,178.167 844.5,182.833 844.5,187.5 Z"/></g>
<g><path style="opacity:1" fill="#fcfdfc" d="M 898.5,128.5 C 905.449,164.577 912.782,200.577 920.5,236.5C 914.202,237.496 907.868,237.83 901.5,237.5C 900.167,229.167 898.833,220.833 897.5,212.5C 891.167,212.5 884.833,212.5 878.5,212.5C 876.916,220.965 875.249,229.298 873.5,237.5C 867.074,238.12 861.074,237.453 855.5,235.5C 862.245,200.108 869.245,164.774 876.5,129.5C 883.746,128.536 891.08,128.203 898.5,128.5 Z"/></g>
<g><path style="opacity:1" fill="#fefefe" d="M 930.5,127.5 C 937.167,127.5 943.833,127.5 950.5,127.5C 950.5,159.5 950.5,191.5 950.5,223.5C 959.167,223.5 967.833,223.5 976.5,223.5C 976.5,228.167 976.5,232.833 976.5,237.5C 961.167,237.5 945.833,237.5 930.5,237.5C 930.5,200.833 930.5,164.167 930.5,127.5 Z"/></g>
<g><path style="opacity:1" fill="#fefffe" d="M 1031.5,142.5 C 1025.83,142.5 1020.17,142.5 1014.5,142.5C 1014.5,174.167 1014.5,205.833 1014.5,237.5C 1007.83,237.5 1001.17,237.5 994.5,237.5C 994.5,205.833 994.5,174.167 994.5,142.5C 988.5,142.5 982.5,142.5 976.5,142.5C 976.5,137.833 976.5,133.167 976.5,128.5C 994.833,128.5 1013.17,128.5 1031.5,128.5C 1031.5,133.167 1031.5,137.833 1031.5,142.5 Z"/></g>
<g><path style="opacity:1" fill="#fefefd" d="M 1040.5,127.5 C 1047.17,127.5 1053.83,127.5 1060.5,127.5C 1060.5,142.833 1060.5,158.167 1060.5,173.5C 1067.83,173.5 1075.17,173.5 1082.5,173.5C 1082.5,158.167 1082.5,142.833 1082.5,127.5C 1089.17,127.5 1095.83,127.5 1102.5,127.5C 1102.5,164.167 1102.5,200.833 1102.5,237.5C 1095.83,237.5 1089.17,237.5 1082.5,237.5C 1082.5,221.167 1082.5,204.833 1082.5,188.5C 1075.17,188.5 1067.83,188.5 1060.5,188.5C 1060.5,204.833 1060.5,221.167 1060.5,237.5C 1053.83,237.5 1047.17,237.5 1040.5,237.5C 1040.5,200.833 1040.5,164.167 1040.5,127.5 Z"/></g>
<g><path style="opacity:1" fill="#4d9f39" d="M 493.5,141.5 C 500.445,139.775 505.278,142.108 508,148.5C 508.667,170.833 508.667,193.167 508,215.5C 506.988,221.337 503.488,224.004 497.5,223.5C 490.757,223.74 487.257,220.406 487,213.5C 486.333,192.5 486.333,171.5 487,150.5C 487.833,146.506 489.999,143.506 493.5,141.5 Z"/></g>
<g><path style="opacity:1" fill="#4ea03b" d="M 568.5,141.5 C 576.544,139.766 581.71,142.766 584,150.5C 584.667,172.167 584.667,193.833 584,215.5C 581.047,223.146 575.547,225.646 567.5,223C 565.19,221.363 563.69,219.196 563,216.5C 562.333,193.5 562.333,170.5 563,147.5C 564.36,144.977 566.193,142.977 568.5,141.5 Z"/></g>
<g><path style="opacity:1" fill="#4fa03b" d="M 638.5,142.5 C 642.846,142.334 647.179,142.501 651.5,143C 653.624,144.122 655.457,145.622 657,147.5C 658.134,158.598 658.634,169.765 658.5,181C 658.612,192.879 658.112,204.712 657,216.5C 656.315,219.057 654.815,220.891 652.5,222C 647.934,223.309 643.267,223.809 638.5,223.5C 638.5,196.5 638.5,169.5 638.5,142.5 Z"/></g>
<g><path style="opacity:1" fill="#79b76a" d="M 976.5,142.5 C 982.5,142.5 988.5,142.5 994.5,142.5C 994.5,174.167 994.5,205.833 994.5,237.5C 993.502,206.338 993.168,175.004 993.5,143.5C 987.642,143.822 981.975,143.489 976.5,142.5 Z"/></g>
<g><path style="opacity:1" fill="#57a444" d="M 887.5,158.5 C 888.222,158.918 888.722,159.584 889,160.5C 890.836,173.512 892.669,186.512 894.5,199.5C 889.786,199.827 885.12,199.493 880.5,198.5C 882.617,185.13 884.951,171.796 887.5,158.5 Z"/></g>
<g><path style="opacity:1" fill="#c7e1c1" d="M 452.5,153.5 C 453.482,156.962 453.815,160.629 453.5,164.5C 446.833,164.5 440.167,164.5 433.5,164.5C 433.5,161.167 433.5,157.833 433.5,154.5C 434.477,157.287 434.81,160.287 434.5,163.5C 440.5,163.5 446.5,163.5 452.5,163.5C 452.5,160.167 452.5,156.833 452.5,153.5 Z"/></g>
<g><path style="opacity:1" fill="#79b76a" d="M 844.5,187.5 C 838.021,188.491 831.354,188.824 824.5,188.5C 824.5,200.167 824.5,211.833 824.5,223.5C 824.167,223.5 823.833,223.5 823.5,223.5C 823.5,211.5 823.5,199.5 823.5,187.5C 830.5,187.5 837.5,187.5 844.5,187.5 Z"/></g>
<g><path style="opacity:1" fill="#c7e0c0" d="M 823.5,223.5 C 823.833,223.5 824.167,223.5 824.5,223.5C 833.167,223.5 841.833,223.5 850.5,223.5C 850.819,228.363 850.486,233.03 849.5,237.5C 849.5,233.167 849.5,228.833 849.5,224.5C 840.651,224.826 831.984,224.493 823.5,223.5 Z"/></g>
<g><path style="opacity:1" fill="#7bb86c" d="M 855.5,235.5 C 861.074,237.453 867.074,238.12 873.5,237.5C 867.355,238.49 861.022,238.823 854.5,238.5C 854.263,237.209 854.596,236.209 855.5,235.5 Z"/></g>
<g><path style="opacity:1" fill="#a3cd99" d="M 710.5,307.5 C 716.013,306.184 721.68,306.184 727.5,307.5C 727.376,308.107 727.043,308.44 726.5,308.5C 721.36,307.512 716.026,307.179 710.5,307.5 Z"/></g>
<g><path style="opacity:1" fill="#fcfdfc" d="M 1217.5,305.5 C 1245.91,302.572 1258.57,315.238 1255.5,343.5C 1249.17,343.5 1242.83,343.5 1236.5,343.5C 1236.67,338.156 1236.5,332.823 1236,327.5C 1234.31,322.977 1230.98,320.644 1226,320.5C 1219.98,320.672 1216.31,323.672 1215,329.5C 1214.33,350.167 1214.33,370.833 1215,391.5C 1217.09,402.641 1223.26,405.807 1233.5,401C 1236.17,397.664 1237.67,393.831 1238,389.5C 1238.5,384.511 1238.67,379.511 1238.5,374.5C 1234.5,374.5 1230.5,374.5 1226.5,374.5C 1226.5,369.833 1226.5,365.167 1226.5,360.5C 1236.5,360.5 1246.5,360.5 1256.5,360.5C 1256.5,379.167 1256.5,397.833 1256.5,416.5C 1252.12,416.826 1247.78,416.492 1243.5,415.5C 1242.76,412.557 1242.26,409.557 1242,406.5C 1238.26,414.54 1231.93,418.54 1223,418.5C 1208.75,418.248 1199.75,411.248 1196,397.5C 1194.91,385.369 1194.41,373.202 1194.5,361C 1194.39,349.454 1194.89,337.954 1196,326.5C 1199.12,315.208 1206.29,308.208 1217.5,305.5 Z"/></g>
<g><path style="opacity:1" fill="#fcfdfc" d="M 409.5,306.5 C 416.755,306.187 423.921,306.52 431,307.5C 438.169,343.853 445.336,380.186 452.5,416.5C 446.167,416.5 439.833,416.5 433.5,416.5C 432.817,408.387 431.484,400.387 429.5,392.5C 423.202,391.504 416.868,391.17 410.5,391.5C 409.167,399.832 407.834,408.165 406.5,416.5C 400.167,416.5 393.833,416.5 387.5,416.5C 394.833,379.833 402.167,343.167 409.5,306.5 Z"/></g>
<g><path style="opacity:1" fill="#cee4c8" d="M 476.5,307.5 C 472.167,307.5 467.833,307.5 463.5,307.5C 463.5,343.833 463.5,380.167 463.5,416.5C 462.502,380.004 462.168,343.337 462.5,306.5C 467.363,306.181 472.03,306.514 476.5,307.5 Z"/></g>
<g><path style="opacity:1" fill="#fcfdfb" d="M 481.5,355.5 C 481.217,354.711 480.717,354.044 480,353.5C 479.5,374.497 479.333,395.497 479.5,416.5C 474.167,416.5 468.833,416.5 463.5,416.5C 463.5,380.167 463.5,343.833 463.5,307.5C 467.833,307.5 472.167,307.5 476.5,307.5C 485.072,326.319 493.406,345.319 501.5,364.5C 501.987,365.473 502.487,366.473 503,367.5C 503.5,347.503 503.667,327.503 503.5,307.5C 508.901,306.175 514.401,306.175 520,307.5C 520.5,343.832 520.667,380.165 520.5,416.5C 515.786,416.827 511.12,416.493 506.5,415.5C 497.77,395.638 489.437,375.638 481.5,355.5 Z"/></g>
<g><path style="opacity:1" fill="#79b76a" d="M 503.5,307.5 C 503.667,327.503 503.5,347.503 503,367.5C 502.487,366.473 501.987,365.473 501.5,364.5C 502.167,345.5 502.833,326.5 503.5,307.5 Z"/></g>
<g><path style="opacity:1" fill="#fdfefd" d="M 535.5,306.5 C 548.538,306.173 561.538,306.673 574.5,308C 585.587,310.089 592.421,316.589 595,327.5C 595.667,349.5 595.667,371.5 595,393.5C 592.797,406.37 585.297,413.87 572.5,416C 560.171,416.5 547.838,416.667 535.5,416.5C 535.5,379.833 535.5,343.167 535.5,306.5 Z"/></g>
<g><path style="opacity:1" fill="#fcfdfc" d="M 710.5,307.5 C 716.026,307.179 721.36,307.512 726.5,308.5C 721.5,344.5 716.5,380.5 711.5,416.5C 705.833,416.5 700.167,416.5 694.5,416.5C 691.458,392.707 687.625,369.04 683,345.5C 678.729,369.126 674.896,392.792 671.5,416.5C 665.5,416.5 659.5,416.5 653.5,416.5C 648.874,379.784 643.874,343.118 638.5,306.5C 644.631,305.908 650.464,306.575 656,308.5C 658.585,330.179 661.252,351.846 664,373.5C 668.797,351.723 672.63,329.723 675.5,307.5C 680.5,307.5 685.5,307.5 690.5,307.5C 693.803,330.183 697.303,352.849 701,375.5C 704.059,352.801 707.225,330.134 710.5,307.5 Z"/></g>
<g><path style="opacity:1" fill="#c8e1c2" d="M 784.5,307.5 C 769.5,307.5 754.5,307.5 739.5,307.5C 739.5,343.833 739.5,380.167 739.5,416.5C 738.502,380.004 738.168,343.337 738.5,306.5C 754.009,306.17 769.342,306.504 784.5,307.5 Z"/></g>
<g><path style="opacity:1" fill="#fcfdfb" d="M 784.5,307.5 C 784.5,312.167 784.5,316.833 784.5,321.5C 776.167,321.5 767.833,321.5 759.5,321.5C 759.5,331.833 759.5,342.167 759.5,352.5C 766.167,352.5 772.833,352.5 779.5,352.5C 779.5,357.5 779.5,362.5 779.5,367.5C 772.833,367.5 766.167,367.5 759.5,367.5C 759.5,379.167 759.5,390.833 759.5,402.5C 767.65,403.493 775.983,403.826 784.5,403.5C 784.5,407.833 784.5,412.167 784.5,416.5C 769.5,416.5 754.5,416.5 739.5,416.5C 739.5,380.167 739.5,343.833 739.5,307.5C 754.5,307.5 769.5,307.5 784.5,307.5 Z"/></g>
<g><path style="opacity:1" fill="#cce3c7" d="M 815.5,307.5 C 809.167,307.5 802.833,307.5 796.5,307.5C 796.5,343.833 796.5,380.167 796.5,416.5C 795.502,380.004 795.168,343.337 795.5,306.5C 802.354,306.176 809.021,306.509 815.5,307.5 Z"/></g>
<g><path style="opacity:1" fill="#fbfdfb" d="M 815.5,307.5 C 816.498,338.996 816.832,370.662 816.5,402.5C 824.65,403.493 832.983,403.826 841.5,403.5C 841.5,407.833 841.5,412.167 841.5,416.5C 826.5,416.5 811.5,416.5 796.5,416.5C 796.5,380.167 796.5,343.833 796.5,307.5C 802.833,307.5 809.167,307.5 815.5,307.5 Z"/></g>
<g><path style="opacity:1" fill="#f7fbf6" d="M 872.5,402.5 C 880.65,403.493 888.983,403.826 897.5,403.5C 897.5,407.833 897.5,412.167 897.5,416.5C 882.167,416.5 866.833,416.5 851.5,416.5C 851.17,379.927 851.504,343.427 852.5,307C 859.082,306.19 865.582,306.357 872,307.5C 872.5,339.165 872.667,370.832 872.5,402.5 Z"/></g>
<g><path style="opacity:1" fill="#fdfdfc" d="M 955.5,307.5 C 968.504,307.333 981.504,307.5 994.5,308C 999.473,309.237 1003.97,311.404 1008,314.5C 1015.49,325.846 1016.49,337.846 1011,350.5C 1008.07,354.381 1004.24,356.881 999.5,358C 1012.29,362.059 1018.29,370.892 1017.5,384.5C 1018.58,400.557 1011.58,411.057 996.5,416C 982.837,416.5 969.171,416.667 955.5,416.5C 955.5,380.167 955.5,343.833 955.5,307.5 Z"/></g>
<g><path style="opacity:1" fill="#c8e1c2" d="M 1075.5,307.5 C 1060.5,307.5 1045.5,307.5 1030.5,307.5C 1030.5,343.833 1030.5,380.167 1030.5,416.5C 1029.5,380.004 1029.17,343.337 1029.5,306.5C 1045.01,306.17 1060.34,306.504 1075.5,307.5 Z"/></g>
<g><path style="opacity:1" fill="#fefefe" d="M 1075.5,307.5 C 1075.5,312.167 1075.5,316.833 1075.5,321.5C 1066.83,321.5 1058.17,321.5 1049.5,321.5C 1049.5,331.833 1049.5,342.167 1049.5,352.5C 1056.5,352.5 1063.5,352.5 1070.5,352.5C 1070.5,357.167 1070.5,361.833 1070.5,366.5C 1063.5,366.5 1056.5,366.5 1049.5,366.5C 1049.5,378.5 1049.5,390.5 1049.5,402.5C 1057.98,403.493 1066.65,403.826 1075.5,403.5C 1075.5,407.833 1075.5,412.167 1075.5,416.5C 1060.5,416.5 1045.5,416.5 1030.5,416.5C 1030.5,380.167 1030.5,343.833 1030.5,307.5C 1045.5,307.5 1060.5,307.5 1075.5,307.5 Z"/></g>
<g><path style="opacity:1" fill="#fefffe" d="M 1087.5,307.5 C 1093.83,307.5 1100.17,307.5 1106.5,307.5C 1106.5,343.833 1106.5,380.167 1106.5,416.5C 1100.17,416.5 1093.83,416.5 1087.5,416.5C 1087.5,380.167 1087.5,343.833 1087.5,307.5 Z"/></g>
<g><path style="opacity:1" fill="#cce3c7" d="M 1087.5,307.5 C 1093.98,306.509 1100.65,306.176 1107.5,306.5C 1107.83,343.337 1107.5,380.004 1106.5,416.5C 1106.5,380.167 1106.5,343.833 1106.5,307.5C 1100.17,307.5 1093.83,307.5 1087.5,307.5 Z"/></g>
<g><path style="opacity:1" fill="#fefefe" d="M 1162.5,366.5 C 1162.78,367.289 1163.28,367.956 1164,368.5C 1164.5,348.169 1164.67,327.836 1164.5,307.5C 1169.83,307.5 1175.17,307.5 1180.5,307.5C 1180.5,343.833 1180.5,380.167 1180.5,416.5C 1175.83,416.5 1171.17,416.5 1166.5,416.5C 1158.36,395.421 1150.03,374.421 1141.5,353.5C 1141.44,352.957 1141.11,352.624 1140.5,352.5C 1139.5,373.823 1139.17,395.156 1139.5,416.5C 1134.17,416.5 1128.83,416.5 1123.5,416.5C 1123.5,380.167 1123.5,343.833 1123.5,307.5C 1128.43,307.197 1133.26,307.531 1138,308.5C 1146.45,327.739 1154.62,347.073 1162.5,366.5 Z"/></g>
<g><path style="opacity:1" fill="#cae2c4" d="M 1180.5,307.5 C 1175.17,307.5 1169.83,307.5 1164.5,307.5C 1164.67,327.836 1164.5,348.169 1164,368.5C 1163.28,367.956 1162.78,367.289 1162.5,366.5C 1163.5,346.674 1163.83,326.674 1163.5,306.5C 1169.36,306.178 1175.02,306.511 1180.5,307.5 Z"/></g>
<g><path style="opacity:1" fill="#4fa03b" d="M 555.5,321.5 C 559.514,321.334 563.514,321.501 567.5,322C 570.102,322.883 572.269,324.383 574,326.5C 575.134,337.765 575.634,349.099 575.5,360.5C 575.613,372.546 575.113,384.546 574,396.5C 572.749,399.381 570.583,401.214 567.5,402C 563.514,402.499 559.514,402.666 555.5,402.5C 555.5,375.5 555.5,348.5 555.5,321.5 Z"/></g>
<g><path style="opacity:1" fill="#4ea03a" d="M 975.5,321.5 C 992.884,319.05 999.717,326.383 996,343.5C 994.833,347.333 992.333,349.833 988.5,351C 984.179,351.499 979.846,351.666 975.5,351.5C 975.5,341.5 975.5,331.5 975.5,321.5 Z"/></g>
<g><path style="opacity:1" fill="#54a340" d="M 426.5,373.5 C 426.5,374.833 426.5,376.167 426.5,377.5C 422.167,377.5 417.833,377.5 413.5,377.5C 415.448,363.143 417.615,348.809 420,334.5C 422.601,347.438 424.767,360.438 426.5,373.5 Z"/></g>
<g><path style="opacity:1" fill="#d3e7ce" d="M 1141.5,353.5 C 1140.83,374.5 1140.17,395.5 1139.5,416.5C 1139.17,395.156 1139.5,373.823 1140.5,352.5C 1141.11,352.624 1141.44,352.957 1141.5,353.5 Z"/></g>
<g><path style="opacity:1" fill="#a5ce9b" d="M 481.5,355.5 C 480.833,375.833 480.167,396.167 479.5,416.5C 479.333,395.497 479.5,374.497 480,353.5C 480.717,354.044 481.217,354.711 481.5,355.5 Z"/></g>
<g><path style="opacity:1" fill="#4ea03a" d="M 975.5,366.5 C 993.407,364.577 1000.91,372.577 998,390.5C 997.565,397.241 994.065,401.074 987.5,402C 983.514,402.499 979.514,402.666 975.5,402.5C 975.5,390.5 975.5,378.5 975.5,366.5 Z"/></g>
<g><path style="opacity:1" fill="#f1f7f0" d="M 907.5,366.5 C 918.5,366.5 929.5,366.5 940.5,366.5C 940.5,371.167 940.5,375.833 940.5,380.5C 929.5,380.5 918.5,380.5 907.5,380.5C 907.5,375.833 907.5,371.167 907.5,366.5 Z"/></g>
<g><path style="opacity:1" fill="#85bd77" d="M 1070.5,366.5 C 1064.02,367.491 1057.35,367.824 1050.5,367.5C 1050.5,379.167 1050.5,390.833 1050.5,402.5C 1050.17,402.5 1049.83,402.5 1049.5,402.5C 1049.5,390.5 1049.5,378.5 1049.5,366.5C 1056.5,366.5 1063.5,366.5 1070.5,366.5 Z"/></g>
<g><path style="opacity:1" fill="#80bb72" d="M 426.5,373.5 C 427.451,374.919 427.784,376.585 427.5,378.5C 422.637,378.819 417.97,378.486 413.5,377.5C 417.833,377.5 422.167,377.5 426.5,377.5C 426.5,376.167 426.5,374.833 426.5,373.5 Z"/></g>
<g><path style="opacity:1" fill="#d2e6cc" d="M 759.5,402.5 C 768.167,402.5 776.833,402.5 785.5,402.5C 785.819,407.363 785.486,412.03 784.5,416.5C 784.5,412.167 784.5,407.833 784.5,403.5C 775.983,403.826 767.65,403.493 759.5,402.5 Z"/></g>
<g><path style="opacity:1" fill="#d2e6cc" d="M 816.5,402.5 C 825.167,402.5 833.833,402.5 842.5,402.5C 842.819,407.363 842.486,412.03 841.5,416.5C 841.5,412.167 841.5,407.833 841.5,403.5C 832.983,403.826 824.65,403.493 816.5,402.5 Z"/></g>
<g><path style="opacity:1" fill="#d2e6cc" d="M 872.5,402.5 C 881.167,402.5 889.833,402.5 898.5,402.5C 898.819,407.363 898.486,412.03 897.5,416.5C 897.5,412.167 897.5,407.833 897.5,403.5C 888.983,403.826 880.65,403.493 872.5,402.5 Z"/></g>
<g><path style="opacity:1" fill="#c7e0c0" d="M 1049.5,402.5 C 1049.83,402.5 1050.17,402.5 1050.5,402.5C 1059.17,402.5 1067.83,402.5 1076.5,402.5C 1076.82,407.363 1076.49,412.03 1075.5,416.5C 1075.5,412.167 1075.5,407.833 1075.5,403.5C 1066.65,403.826 1057.98,403.493 1049.5,402.5 Z"/></g>
<g><path style="opacity:1" fill="#fdfefd" d="M 1003.5,563.5 C 1012.03,562.172 1018.87,564.838 1024,571.5C 1056.61,638.378 1088.94,705.378 1121,772.5C 1123.57,789.26 1116.41,797.093 1099.5,796C 1096.4,794.561 1093.56,792.727 1091,790.5C 1064.73,736.956 1038.73,683.289 1013,629.5C 948.944,840.338 885.277,1051.34 822,1262.5C 815.147,1272.67 806.314,1274.84 795.5,1269C 792.469,1266.44 790.302,1263.27 789,1259.5C 771.325,1154.76 753.325,1050.1 735,945.5C 707.333,996.5 679.667,1047.5 652,1098.5C 641.648,1107.1 631.982,1106.43 623,1096.5C 610.153,1014.26 597.82,931.928 586,849.5C 564.532,898.435 542.532,947.101 520,995.5C 517.749,997.377 515.249,998.877 512.5,1000C 427.167,1000.67 341.833,1000.67 256.5,1000C 245.536,995.236 241.702,987.069 245,975.5C 247.751,970.41 251.917,967.243 257.5,966C 336.833,965.667 416.167,965.333 495.5,965C 523.795,902.241 551.962,839.408 580,776.5C 584.848,768.944 591.682,766.444 600.5,769C 607.862,771.542 612.028,776.708 613,784.5C 624.853,866.808 636.52,949.141 648,1031.5C 675.587,981.326 702.921,930.993 730,880.5C 736.915,873.897 744.748,872.73 753.5,877C 757.194,879.687 759.694,883.187 761,887.5C 777.347,984.22 794.013,1080.89 811,1177.5C 871.337,976.817 931.67,776.15 992,575.5C 993.08,573.004 994.414,570.67 996,568.5C 998.479,566.686 1000.98,565.019 1003.5,563.5 Z"/></g>
<g><path style="opacity:1" fill="#fefefe" d="M 1059.5,861.5 C 1073.24,859.603 1085.91,862.436 1097.5,870C 1109.2,877.857 1119.86,887.024 1129.5,897.5C 1140.87,885.625 1153.53,875.458 1167.5,867C 1202.37,855.626 1229.2,865.793 1248,897.5C 1263.03,930.566 1259.7,961.566 1238,990.5C 1201.99,1026.68 1165.82,1062.68 1129.5,1098.5C 1092.51,1062.01 1055.68,1025.35 1019,988.5C 998.017,958.46 996.017,927.127 1013,894.5C 1024.09,877.21 1039.59,866.21 1059.5,861.5 Z"/></g>
</svg>
