<?xml version="1.0" encoding="UTF-8"?>
<!DOCTYPE svg PUBLIC "-//W3C//DTD SVG 1.1//EN" "http://www.w3.org/Graphics/SVG/1.1/DTD/svg11.dtd">
<svg xmlns="http://www.w3.org/2000/svg" version="1.1" width="1500px" height="1500px" style="shape-rendering:geometricPrecision; text-rendering:geometricPrecision; image-rendering:optimizeQuality; fill-rule:evenodd; clip-rule:evenodd" xmlns:xlink="http://www.w3.org/1999/xlink">
<g><path style="opacity:1" fill="#bf8b2e" d="M -0.5,-0.5 C 499.5,-0.5 999.5,-0.5 1499.5,-0.5C 1499.5,499.5 1499.5,999.5 1499.5,1499.5C 999.5,1499.5 499.5,1499.5 -0.5,1499.5C -0.5,999.5 -0.5,499.5 -0.5,-0.5 Z"/></g>
<g><path style="opacity:1" fill="#fefefe" d="M 273.5,371.5 C 301.328,372.498 329.328,372.831 357.5,372.5C 357.5,386.5 357.5,400.5 357.5,414.5C 308.833,414.5 260.167,414.5 211.5,414.5C 211.333,401.496 211.5,388.496 212,375.5C 239.667,332.833 267.333,290.167 295,247.5C 300.468,238.23 305.135,228.564 309,218.5C 311.119,208.926 311.786,199.259 311,189.5C 305.847,171.508 294.68,166.341 277.5,174C 269.4,181.707 265.233,191.207 265,202.5C 264.5,210.493 264.334,218.493 264.5,226.5C 246.833,226.5 229.167,226.5 211.5,226.5C 209.435,205.123 212.268,184.457 220,164.5C 233.911,136.444 256.744,123.111 288.5,124.5C 338.201,124.038 363.868,148.538 365.5,198C 365.944,213.174 363.111,227.674 357,241.5C 351.507,252.49 345.507,263.157 339,273.5C 316.908,306.023 295.075,338.69 273.5,371.5 Z"/></g>
<g><path style="opacity:1" fill="#fefdfc" d="M 619.5,126.5 C 641.855,124.195 653.189,134.195 653.5,156.5C 647.858,157.628 642.191,158.628 636.5,159.5C 637.554,152.141 635.221,146.307 629.5,142C 619.552,141.034 615.385,145.534 617,155.5C 617.956,158.377 619.289,161.044 621,163.5C 631.519,171.931 641.186,181.264 650,191.5C 656.086,202.376 657.086,213.709 653,225.5C 649.206,231.966 643.706,236.132 636.5,238C 610.952,241.437 598.286,230.437 598.5,205C 604.147,203.671 609.813,202.504 615.5,201.5C 615.272,206.675 616.105,211.675 618,216.5C 621.487,223.494 626.654,225.161 633.5,221.5C 637.756,213.936 637.256,206.603 632,199.5C 621.869,190.946 612.203,181.946 603,172.5C 594.333,157.152 596.166,143.318 608.5,131C 612.053,128.879 615.72,127.379 619.5,126.5 Z"/></g>
<g><path style="opacity:1" fill="#fdfcfa" d="M 751.5,126.5 C 760.923,125.647 769.923,127.147 778.5,131C 784.684,135.203 788.518,141.036 790,148.5C 791.975,170.84 791.975,193.174 790,215.5C 788.124,227.041 781.624,234.541 770.5,238C 761.77,238.876 753.104,238.542 744.5,237C 736.419,232.909 731.253,226.409 729,217.5C 727.903,205.873 727.403,194.207 727.5,182.5C 727.403,170.793 727.903,159.127 729,147.5C 732.231,135.764 739.731,128.764 751.5,126.5 Z"/></g>
<g><path style="opacity:1" fill="#fefdfb" d="M 888.5,126.5 C 911.776,123.978 923.276,133.978 923,156.5C 917.842,158.173 912.675,158.84 907.5,158.5C 907.358,152.567 905.358,147.401 901.5,143C 892.902,139.963 888.235,142.963 887.5,152C 887.443,156.721 888.943,160.888 892,164.5C 902.684,172.852 912.351,182.186 921,192.5C 927.822,204.014 928.156,215.681 922,227.5C 918.574,232.306 914.074,235.806 908.5,238C 881.938,242.559 868.605,231.392 868.5,204.5C 874.098,203.873 879.598,202.873 885,201.5C 885.7,207.781 887.367,213.781 890,219.5C 894.719,224.366 899.719,224.699 905,220.5C 907.455,213.499 906.788,206.832 903,200.5C 893.333,191.5 883.667,182.5 874,173.5C 868.367,163.449 867.034,152.783 870,141.5C 874.046,133.746 880.213,128.746 888.5,126.5 Z"/></g>
<g><path style="opacity:1" fill="#e7d4b2" d="M 567.5,142.5 C 575.65,141.507 583.983,141.174 592.5,141.5C 592.5,137.167 592.5,132.833 592.5,128.5C 577.5,128.5 562.5,128.5 547.5,128.5C 547.5,164.833 547.5,201.167 547.5,237.5C 546.502,201.004 546.168,164.337 546.5,127.5C 562.167,127.5 577.833,127.5 593.5,127.5C 593.5,132.5 593.5,137.5 593.5,142.5C 584.833,142.5 576.167,142.5 567.5,142.5 Z"/></g>
<g><path style="opacity:1" fill="#fefefe" d="M 137.5,128.5 C 151.833,128.5 166.167,128.5 180.5,128.5C 180.5,223.833 180.5,319.167 180.5,414.5C 162.5,414.5 144.5,414.5 126.5,414.5C 126.833,338.164 126.5,261.83 125.5,185.5C 112.629,190.568 99.6287,195.235 86.5,199.5C 85.5044,186.344 85.1711,173.01 85.5,159.5C 101.054,152.469 116.054,144.303 130.5,135C 132.907,132.817 135.24,130.65 137.5,128.5 Z"/></g>
<g><path style="opacity:1" fill="#ebdbbe" d="M 137.5,128.5 C 151.99,127.504 166.657,127.171 181.5,127.5C 181.5,223.5 181.5,319.5 181.5,415.5C 162.992,415.83 144.659,415.497 126.5,414.5C 144.5,414.5 162.5,414.5 180.5,414.5C 180.5,319.167 180.5,223.833 180.5,128.5C 166.167,128.5 151.833,128.5 137.5,128.5 Z"/></g>
<g><path style="opacity:1" fill="#eee0c8" d="M 510.5,128.5 C 499.167,128.5 487.833,128.5 476.5,128.5C 476.5,164.833 476.5,201.167 476.5,237.5C 475.502,201.004 475.168,164.337 475.5,127.5C 487.345,127.172 499.012,127.505 510.5,128.5 Z"/></g>
<g><path style="opacity:1" fill="#fefdfc" d="M 510.5,128.5 C 522.832,129.017 530.998,135.017 535,146.5C 535.87,154.897 535.537,163.23 534,171.5C 533.529,173.246 532.862,174.913 532,176.5C 529.1,179.4 526.267,182.233 523.5,185C 528.468,202.072 533.134,219.239 537.5,236.5C 531.021,237.491 524.354,237.824 517.5,237.5C 513.4,221.17 509.233,204.837 505,188.5C 502.281,187.556 499.448,187.223 496.5,187.5C 496.5,204.167 496.5,220.833 496.5,237.5C 489.833,237.5 483.167,237.5 476.5,237.5C 476.5,201.167 476.5,164.833 476.5,128.5C 487.833,128.5 499.167,128.5 510.5,128.5 Z"/></g>
<g><path style="opacity:1" fill="#fefdfc" d="M 567.5,142.5 C 567.5,152.833 567.5,163.167 567.5,173.5C 574.167,173.5 580.833,173.5 587.5,173.5C 587.5,178.167 587.5,182.833 587.5,187.5C 580.833,187.5 574.167,187.5 567.5,187.5C 567.5,199.5 567.5,211.5 567.5,223.5C 575.65,224.493 583.983,224.826 592.5,224.5C 592.5,228.833 592.5,233.167 592.5,237.5C 577.5,237.5 562.5,237.5 547.5,237.5C 547.5,201.167 547.5,164.833 547.5,128.5C 562.5,128.5 577.5,128.5 592.5,128.5C 592.5,132.833 592.5,137.167 592.5,141.5C 583.983,141.174 575.65,141.507 567.5,142.5 Z"/></g>
<g><path style="opacity:1" fill="#fefefd" d="M 663.5,127.5 C 677.226,127.073 690.893,127.573 704.5,129C 713.667,131.5 719.5,137.333 722,146.5C 727.639,177.595 714.805,191.595 683.5,188.5C 683.5,204.833 683.5,221.167 683.5,237.5C 676.833,237.5 670.167,237.5 663.5,237.5C 663.5,200.833 663.5,164.167 663.5,127.5 Z"/></g>
<g><path style="opacity:1" fill="#fefefd" d="M 840.5,186.5 C 840.783,187.289 841.283,187.956 842,188.5C 842.5,168.169 842.667,147.836 842.5,127.5C 847.833,127.5 853.167,127.5 858.5,127.5C 858.5,164.167 858.5,200.833 858.5,237.5C 853.901,237.8 849.401,237.467 845,236.5C 836.138,215.581 827.471,194.581 819,173.5C 818.5,194.831 818.333,216.164 818.5,237.5C 812.833,237.5 807.167,237.5 801.5,237.5C 801.5,200.833 801.5,164.167 801.5,127.5C 806.214,127.173 810.88,127.507 815.5,128.5C 824.229,147.693 832.562,167.026 840.5,186.5 Z"/></g>
<g><path style="opacity:1" fill="#dec496" d="M 842.5,127.5 C 842.667,147.836 842.5,168.169 842,188.5C 841.283,187.956 840.783,187.289 840.5,186.5C 841.167,166.833 841.833,147.167 842.5,127.5 Z"/></g>
<g><path style="opacity:1" fill="#fefffe" d="M 934.5,128.5 C 940.833,128.5 947.167,128.5 953.5,128.5C 953.5,164.833 953.5,201.167 953.5,237.5C 947.167,237.5 940.833,237.5 934.5,237.5C 934.5,201.167 934.5,164.833 934.5,128.5 Z"/></g>
<g><path style="opacity:1" fill="#eee1ca" d="M 934.5,128.5 C 940.979,127.509 947.646,127.176 954.5,127.5C 954.832,164.337 954.498,201.004 953.5,237.5C 953.5,201.167 953.5,164.833 953.5,128.5C 947.167,128.5 940.833,128.5 934.5,128.5 Z"/></g>
<g><path style="opacity:1" fill="#eee1c9" d="M 1000.5,128.5 C 989.5,128.5 978.5,128.5 967.5,128.5C 967.5,164.833 967.5,201.167 967.5,237.5C 966.502,201.004 966.168,164.337 966.5,127.5C 978.012,127.172 989.346,127.505 1000.5,128.5 Z"/></g>
<g><path style="opacity:1" fill="#fefdfc" d="M 1000.5,128.5 C 1012.77,128.376 1020.94,134.043 1025,145.5C 1025.85,152.899 1025.51,160.233 1024,167.5C 1021.62,173.275 1017.45,177.108 1011.5,179C 1024.43,183.159 1030.43,192.159 1029.5,206C 1029.94,220.472 1023.61,230.472 1010.5,236C 996.226,237.43 981.892,237.93 967.5,237.5C 967.5,201.167 967.5,164.833 967.5,128.5C 978.5,128.5 989.5,128.5 1000.5,128.5 Z"/></g>
<g><path style="opacity:1" fill="#ead9ba" d="M 1058.5,223.5 C 1057.5,192.004 1057.17,160.338 1057.5,128.5C 1051.17,128.5 1044.83,128.5 1038.5,128.5C 1038.5,164.833 1038.5,201.167 1038.5,237.5C 1037.5,201.004 1037.17,164.337 1037.5,127.5C 1044.5,127.5 1051.5,127.5 1058.5,127.5C 1058.5,159.5 1058.5,191.5 1058.5,223.5 Z"/></g>
<g><path style="opacity:1" fill="#fefefe" d="M 1058.5,223.5 C 1066.65,224.493 1074.98,224.826 1083.5,224.5C 1083.5,228.833 1083.5,233.167 1083.5,237.5C 1068.5,237.5 1053.5,237.5 1038.5,237.5C 1038.5,201.167 1038.5,164.833 1038.5,128.5C 1044.83,128.5 1051.17,128.5 1057.5,128.5C 1057.17,160.338 1057.5,192.004 1058.5,223.5 Z"/></g>
<g><path style="opacity:1" fill="#fefefd" d="M 1131.5,187.5 C 1124.5,187.5 1117.5,187.5 1110.5,187.5C 1110.5,199.5 1110.5,211.5 1110.5,223.5C 1118.98,224.493 1127.65,224.826 1136.5,224.5C 1136.5,228.833 1136.5,233.167 1136.5,237.5C 1121.17,237.5 1105.83,237.5 1090.5,237.5C 1090.5,200.833 1090.5,164.167 1090.5,127.5C 1105.83,127.5 1121.17,127.5 1136.5,127.5C 1136.5,132.5 1136.5,137.5 1136.5,142.5C 1127.83,142.5 1119.17,142.5 1110.5,142.5C 1110.5,152.833 1110.5,163.167 1110.5,173.5C 1117.5,173.5 1124.5,173.5 1131.5,173.5C 1131.5,178.167 1131.5,182.833 1131.5,187.5 Z"/></g>
<g><path style="opacity:1" fill="#bf8b2f" d="M 754.5,141.5 C 762.001,139.833 767.168,142.5 770,149.5C 770.667,171.5 770.667,193.5 770,215.5C 768.953,221.38 765.453,224.046 759.5,223.5C 753.547,224.046 750.047,221.38 749,215.5C 748.333,193.167 748.333,170.833 749,148.5C 749.967,145.379 751.8,143.046 754.5,141.5 Z"/></g>
<g><path style="opacity:1" fill="#ddc18f" d="M 506.5,142.5 C 503.167,142.5 499.833,142.5 496.5,142.5C 496.5,153.167 496.5,163.833 496.5,174.5C 495.505,163.679 495.172,152.679 495.5,141.5C 499.371,141.185 503.038,141.518 506.5,142.5 Z"/></g>
<g><path style="opacity:1" fill="#bf8b2f" d="M 506.5,142.5 C 511.187,142.761 514.353,145.094 516,149.5C 520.665,166.972 514.165,175.306 496.5,174.5C 496.5,163.833 496.5,153.167 496.5,142.5C 499.833,142.5 503.167,142.5 506.5,142.5 Z"/></g>
<g><path style="opacity:1" fill="#bf8b2e" d="M 683.5,142.5 C 701.943,140.298 708.443,148.298 703,166.5C 702.339,171.4 699.506,173.9 694.5,174C 690.848,174.499 687.182,174.665 683.5,174.5C 683.5,163.833 683.5,153.167 683.5,142.5 Z"/></g>
<g><path style="opacity:1" fill="#bf8c30" d="M 987.5,142.5 C 1006.73,140.937 1012.9,149.27 1006,167.5C 1004.27,169.617 1002.1,171.117 999.5,172C 995.514,172.499 991.514,172.666 987.5,172.5C 987.5,162.5 987.5,152.5 987.5,142.5 Z"/></g>
<g><path style="opacity:1" fill="#eee1c9" d="M 85.5,159.5 C 85.1711,173.01 85.5044,186.344 86.5,199.5C 86.44,200.043 86.1067,200.376 85.5,200.5C 84.1745,186.672 84.1745,173.006 85.5,159.5 Z"/></g>
<g><path style="opacity:1" fill="#dbbe8a" d="M 996.5,187.5 C 993.5,187.5 990.5,187.5 987.5,187.5C 987.5,199.167 987.5,210.833 987.5,222.5C 991.5,222.5 995.5,222.5 999.5,222.5C 995.366,223.485 991.032,223.818 986.5,223.5C 986.5,211.167 986.5,198.833 986.5,186.5C 990.042,186.187 993.375,186.521 996.5,187.5 Z"/></g>
<g><path style="opacity:1" fill="#bf8b2f" d="M 996.5,187.5 C 1002.69,187.679 1006.86,190.679 1009,196.5C 1009.67,202.5 1009.67,208.5 1009,214.5C 1007.48,219.191 1004.31,221.857 999.5,222.5C 995.5,222.5 991.5,222.5 987.5,222.5C 987.5,210.833 987.5,199.167 987.5,187.5C 990.5,187.5 993.5,187.5 996.5,187.5 Z"/></g>
<g><path style="opacity:1" fill="#cfa862" d="M 1131.5,187.5 C 1125.02,188.491 1118.35,188.824 1111.5,188.5C 1111.5,200.167 1111.5,211.833 1111.5,223.5C 1111.17,223.5 1110.83,223.5 1110.5,223.5C 1110.5,211.5 1110.5,199.5 1110.5,187.5C 1117.5,187.5 1124.5,187.5 1131.5,187.5 Z"/></g>
<g><path style="opacity:1" fill="#eee1c9" d="M 567.5,223.5 C 576.167,223.5 584.833,223.5 593.5,223.5C 593.819,228.363 593.486,233.03 592.5,237.5C 592.5,233.167 592.5,228.833 592.5,224.5C 583.983,224.826 575.65,224.493 567.5,223.5 Z"/></g>
<g><path style="opacity:1" fill="#eee1c9" d="M 1058.5,223.5 C 1067.17,223.5 1075.83,223.5 1084.5,223.5C 1084.82,228.363 1084.49,233.03 1083.5,237.5C 1083.5,233.167 1083.5,228.833 1083.5,224.5C 1074.98,224.826 1066.65,224.493 1058.5,223.5 Z"/></g>
<g><path style="opacity:1" fill="#ebdabd" d="M 1110.5,223.5 C 1110.83,223.5 1111.17,223.5 1111.5,223.5C 1120.17,223.5 1128.83,223.5 1137.5,223.5C 1137.82,228.363 1137.49,233.03 1136.5,237.5C 1136.5,233.167 1136.5,228.833 1136.5,224.5C 1127.65,224.826 1118.98,224.493 1110.5,223.5 Z"/></g>
<g><path style="opacity:1" fill="#cea761" d="M 537.5,236.5 C 538.043,236.56 538.376,236.893 538.5,237.5C 531.344,238.819 524.344,238.819 517.5,237.5C 524.354,237.824 531.021,237.491 537.5,236.5 Z"/></g>
<g><path style="opacity:1" fill="#fefcfb" d="M 534.5,331.5 C 534.5,336.5 534.5,341.5 534.5,346.5C 528.167,346.5 521.833,346.5 515.5,346.5C 515.929,339.053 515.429,331.719 514,324.5C 509.8,320.286 504.966,319.452 499.5,322C 497.106,323.952 495.606,326.452 495,329.5C 494.333,350.167 494.333,370.833 495,391.5C 495.524,401.676 500.69,405.176 510.5,402C 512.348,400.482 513.848,398.649 515,396.5C 515.5,389.508 515.666,382.508 515.5,375.5C 522.167,375.5 528.833,375.5 535.5,375.5C 535.271,382.515 534.771,389.515 534,396.5C 532.043,409.457 524.543,416.624 511.5,418C 487.536,420.368 475.036,409.535 474,385.5C 473.128,366.805 473.462,348.138 475,329.5C 476.752,316.161 484.252,308.328 497.5,306C 507.457,304.284 516.79,305.951 525.5,311C 531.643,316.453 534.643,323.286 534.5,331.5 Z"/></g>
<g><path style="opacity:1" fill="#fdfcfb" d="M 566.5,305.5 C 575.928,304.56 584.928,306.06 593.5,310C 600.602,315.359 604.768,322.525 606,331.5C 606.932,353.204 606.598,374.87 605,396.5C 601.863,409.329 593.696,416.496 580.5,418C 558.002,420.833 545.502,410.999 543,388.5C 542.333,369.833 542.333,351.167 543,332.5C 544.378,317.675 552.211,308.675 566.5,305.5 Z"/></g>
<g><path style="opacity:1" fill="#fdfcfb" d="M 704.5,305.5 C 726.972,303.32 738.305,313.32 738.5,335.5C 732.948,337.144 727.281,338.144 721.5,338.5C 722.653,332.068 720.986,326.568 716.5,322C 704.829,320.007 700.329,324.84 703,336.5C 704.271,339.433 705.938,342.099 708,344.5C 718.351,352.519 727.684,361.519 736,371.5C 741.986,381.679 742.986,392.346 739,403.5C 731.497,415.457 720.663,420.291 706.5,418C 689.866,412.74 682.532,401.407 684.5,384C 689.867,382.939 695.2,381.773 700.5,380.5C 701.079,385.971 702.246,391.304 704,396.5C 706.633,401.732 710.799,403.565 716.5,402C 718.667,401.167 720.167,399.667 721,397.5C 722.301,391.078 721.301,385.078 718,379.5C 708.333,370.5 698.667,361.5 689,352.5C 682.593,341.141 681.926,329.474 687,317.5C 691.429,311.375 697.262,307.375 704.5,305.5 Z"/></g>
<g><path style="opacity:1" fill="#fefcfb" d="M 1083.5,305.5 C 1093.77,304.326 1103.43,306.159 1112.5,311C 1118.53,316.904 1122.03,324.07 1123,332.5C 1123.67,352.167 1123.67,371.833 1123,391.5C 1119.2,412.267 1106.7,421.1 1085.5,418C 1074.63,417.129 1067.13,411.629 1063,401.5C 1061.68,396.9 1060.68,392.234 1060,387.5C 1059.1,367.469 1059.44,347.469 1061,327.5C 1063.79,315.205 1071.29,307.871 1083.5,305.5 Z"/></g>
<g><path style="opacity:1" fill="#fdfcfb" d="M 655.5,364.5 C 655.987,365.473 656.487,366.473 657,367.5C 657.5,347.503 657.667,327.503 657.5,307.5C 662.901,306.175 668.401,306.175 674,307.5C 674.5,343.832 674.667,380.165 674.5,416.5C 669.57,416.803 664.737,416.469 660,415.5C 651.729,395.516 643.563,375.516 635.5,355.5C 635.217,354.711 634.717,354.044 634,353.5C 633.5,374.497 633.333,395.497 633.5,416.5C 627.833,416.5 622.167,416.5 616.5,416.5C 616.5,379.833 616.5,343.167 616.5,306.5C 621.43,306.197 626.263,306.531 631,307.5C 639.179,326.521 647.346,345.521 655.5,364.5 Z"/></g>
<g><path style="opacity:1" fill="#cfa762" d="M 657.5,307.5 C 657.667,327.503 657.5,347.503 657,367.5C 656.487,366.473 655.987,365.473 655.5,364.5C 656.167,345.5 656.833,326.5 657.5,307.5 Z"/></g>
<g><path style="opacity:1" fill="#fdfcfa" d="M 748.5,306.5 C 754.833,306.5 761.167,306.5 767.5,306.5C 767.333,334.835 767.5,363.169 768,391.5C 769.883,401.859 775.717,405.026 785.5,401C 787.041,399.421 788.208,397.587 789,395.5C 790.425,365.86 790.925,336.194 790.5,306.5C 796.833,306.5 803.167,306.5 809.5,306.5C 809.667,335.169 809.5,363.835 809,392.5C 806.821,410.361 796.654,419.028 778.5,418.5C 762.128,419.078 752.295,411.412 749,395.5C 747.207,365.796 747.04,336.13 748.5,306.5 Z"/></g>
<g><path style="opacity:1" fill="#fdfcfa" d="M 881.5,359.5 C 881.666,354.156 881.499,348.823 881,343.5C 880.209,344.745 879.709,346.078 879.5,347.5C 875.088,370.558 870.422,393.558 865.5,416.5C 861.003,417.055 856.836,416.389 853,414.5C 848,391.167 843,367.833 838,344.5C 836.834,368.486 836.334,392.486 836.5,416.5C 831.5,416.5 826.5,416.5 821.5,416.5C 821.5,410.833 821.5,405.167 821.5,399.5C 821.5,368.496 821.833,337.496 822.5,306.5C 829.5,306.5 836.5,306.5 843.5,306.5C 848.504,331.52 853.671,356.52 859,381.5C 864.761,356.941 870.094,332.274 875,307.5C 881.744,306.521 888.578,306.188 895.5,306.5C 896.381,343.161 897.048,379.828 897.5,416.5C 892.167,416.5 886.833,416.5 881.5,416.5C 881.5,397.5 881.5,378.5 881.5,359.5 Z"/></g>
<g><path style="opacity:1" fill="#fefdfc" d="M 967.5,322.5 C 971.014,334.97 969.848,346.97 964,358.5C 959.874,362.482 955.041,365.315 949.5,367C 942.864,367.952 936.197,368.452 929.5,368.5C 929.5,384.5 929.5,400.5 929.5,416.5C 922.833,416.5 916.167,416.5 909.5,416.5C 909.5,379.833 909.5,343.167 909.5,306.5C 923.226,306.073 936.893,306.573 950.5,308C 958.522,310.197 964.189,315.031 967.5,322.5 Z"/></g>
<g><path style="opacity:1" fill="#fefdfb" d="M 986.5,416.5 C 986.5,384.833 986.5,353.167 986.5,321.5C 980.167,321.5 973.833,321.5 967.5,321.5C 967.5,316.5 967.5,311.5 967.5,306.5C 986.5,306.5 1005.5,306.5 1024.5,306.5C 1024.5,311.833 1024.5,317.167 1024.5,322.5C 1018.5,322.5 1012.5,322.5 1006.5,322.5C 1006.5,353.833 1006.5,385.167 1006.5,416.5C 999.833,416.5 993.167,416.5 986.5,416.5 Z"/></g>
<g><path style="opacity:1" fill="#fefffe" d="M 1029.5,307.5 C 1035.83,307.5 1042.17,307.5 1048.5,307.5C 1048.5,343.833 1048.5,380.167 1048.5,416.5C 1042.17,416.5 1035.83,416.5 1029.5,416.5C 1029.5,380.167 1029.5,343.833 1029.5,307.5 Z"/></g>
<g><path style="opacity:1" fill="#ecddc3" d="M 1029.5,307.5 C 1035.98,306.509 1042.65,306.176 1049.5,306.5C 1049.83,343.337 1049.5,380.004 1048.5,416.5C 1048.5,380.167 1048.5,343.833 1048.5,307.5C 1042.17,307.5 1035.83,307.5 1029.5,307.5 Z"/></g>
<g><path style="opacity:1" fill="#eddec5" d="M 1147.5,307.5 C 1143.17,307.5 1138.83,307.5 1134.5,307.5C 1134.5,343.833 1134.5,380.167 1134.5,416.5C 1133.5,380.004 1133.17,343.337 1133.5,306.5C 1138.36,306.181 1143.03,306.514 1147.5,307.5 Z"/></g>
<g><path style="opacity:1" fill="#fefcfb" d="M 1152.5,355.5 C 1152.22,354.711 1151.72,354.044 1151,353.5C 1150.5,374.497 1150.33,395.497 1150.5,416.5C 1145.17,416.5 1139.83,416.5 1134.5,416.5C 1134.5,380.167 1134.5,343.833 1134.5,307.5C 1138.83,307.5 1143.17,307.5 1147.5,307.5C 1156.4,326.174 1164.73,345.174 1172.5,364.5C 1172.99,365.473 1173.49,366.473 1174,367.5C 1174.5,347.503 1174.67,327.503 1174.5,307.5C 1179.9,306.175 1185.4,306.175 1191,307.5C 1191.5,343.832 1191.67,380.165 1191.5,416.5C 1186.79,416.827 1182.12,416.493 1177.5,415.5C 1168.77,395.638 1160.44,375.638 1152.5,355.5 Z"/></g>
<g><path style="opacity:1" fill="#cfa862" d="M 1174.5,307.5 C 1174.67,327.503 1174.5,347.503 1174,367.5C 1173.49,366.473 1172.99,365.473 1172.5,364.5C 1173.17,345.5 1173.83,326.5 1174.5,307.5 Z"/></g>
<g><path style="opacity:1" fill="#bf8b2f" d="M 570.5,320.5 C 577.128,319.231 581.961,321.564 585,327.5C 585.667,349.833 585.667,372.167 585,394.5C 581.663,403.249 575.829,405.415 567.5,401C 565.765,398.808 564.598,396.308 564,393.5C 563.333,371.833 563.333,350.167 564,328.5C 565.305,325.039 567.471,322.372 570.5,320.5 Z"/></g>
<g><path style="opacity:1" fill="#bf8c31" d="M 929.5,321.5 C 943.216,318.072 950.216,323.239 950.5,337C 950.524,351.021 943.524,356.521 929.5,353.5C 929.5,342.833 929.5,332.167 929.5,321.5 Z"/></g>
<g><path style="opacity:1" fill="#bf8b2f" d="M 1087.5,320.5 C 1090.94,320.301 1094.27,320.801 1097.5,322C 1099.81,323.109 1101.31,324.943 1102,327.5C 1102.67,349.833 1102.67,372.167 1102,394.5C 1100.86,400.136 1097.36,403.136 1091.5,403.5C 1085.23,403.064 1081.73,399.731 1081,393.5C 1080.33,371.833 1080.33,350.167 1081,328.5C 1082.3,325.039 1084.47,322.372 1087.5,320.5 Z"/></g>
<g><path style="opacity:1" fill="#d1ac69" d="M 967.5,322.5 C 967.5,322.167 967.5,321.833 967.5,321.5C 973.833,321.5 980.167,321.5 986.5,321.5C 986.5,353.167 986.5,384.833 986.5,416.5C 985.502,385.338 985.168,354.004 985.5,322.5C 979.5,322.5 973.5,322.5 967.5,322.5 Z"/></g>
<g><path style="opacity:1" fill="#dfc597" d="M 881.5,359.5 C 880.833,355.5 880.167,351.5 879.5,347.5C 879.709,346.078 880.209,344.745 881,343.5C 881.499,348.823 881.666,354.156 881.5,359.5 Z"/></g>
<g><path style="opacity:1" fill="#e2caa0" d="M 534.5,331.5 C 535.488,336.64 535.821,341.974 535.5,347.5C 528.646,347.824 521.979,347.491 515.5,346.5C 521.833,346.5 528.167,346.5 534.5,346.5C 534.5,341.5 534.5,336.5 534.5,331.5 Z"/></g>
<g><path style="opacity:1" fill="#cfa863" d="M 635.5,355.5 C 634.833,375.833 634.167,396.167 633.5,416.5C 633.333,395.497 633.5,374.497 634,353.5C 634.717,354.044 635.217,354.711 635.5,355.5 Z"/></g>
<g><path style="opacity:1" fill="#dec496" d="M 1152.5,355.5 C 1151.83,375.833 1151.17,396.167 1150.5,416.5C 1150.33,395.497 1150.5,374.497 1151,353.5C 1151.72,354.044 1152.22,354.711 1152.5,355.5 Z"/></g>
<g><path style="opacity:1" fill="#e9d7b8" d="M 273.5,371.5 C 301.833,371.5 330.167,371.5 358.5,371.5C 358.5,386.167 358.5,400.833 358.5,415.5C 309.33,415.832 260.33,415.499 211.5,414.5C 260.167,414.5 308.833,414.5 357.5,414.5C 357.5,400.5 357.5,386.5 357.5,372.5C 329.328,372.831 301.328,372.498 273.5,371.5 Z"/></g>
<g><path style="opacity:1" fill="#d5b274" d="M 821.5,399.5 C 821.5,405.167 821.5,410.833 821.5,416.5C 826.5,416.5 831.5,416.5 836.5,416.5C 831.36,417.488 826.026,417.821 820.5,417.5C 820.177,411.31 820.51,405.31 821.5,399.5 Z"/></g>
<g><path style="opacity:1" fill="#fdfcfb" d="M 866.5,485.5 C 874.507,485.334 882.507,485.5 890.5,486C 901.853,490.163 908.353,498.33 910,510.5C 910.667,530.5 910.667,550.5 910,570.5C 905.972,591.785 893.139,600.618 871.5,597C 861.036,595.696 853.869,590.196 850,580.5C 848.592,576.943 847.592,573.276 847,569.5C 846.085,548.8 846.419,528.133 848,507.5C 850.219,496.665 856.386,489.331 866.5,485.5 Z"/></g>
<g><path style="opacity:1" fill="#fefdfb" d="M 1082.5,485.5 C 1113.99,481.322 1127.32,494.989 1122.5,526.5C 1116.17,526.5 1109.83,526.5 1103.5,526.5C 1103.93,518.721 1103.43,511.054 1102,503.5C 1101.1,502.299 1099.93,501.465 1098.5,501C 1090.55,498.302 1085.38,500.802 1083,508.5C 1082.33,529.5 1082.33,550.5 1083,571.5C 1085.25,582.626 1091.25,585.293 1101,579.5C 1101.29,577.956 1101.96,576.623 1103,575.5C 1103.5,568.508 1103.67,561.508 1103.5,554.5C 1109.83,554.5 1116.17,554.5 1122.5,554.5C 1122.67,561.508 1122.5,568.508 1122,575.5C 1120.17,588 1113,595.167 1100.5,597C 1076.57,600.069 1063.73,589.569 1062,565.5C 1061.14,546.14 1061.47,526.807 1063,507.5C 1065.54,496.466 1072.04,489.133 1082.5,485.5 Z"/></g>
<g><path style="opacity:1" fill="#fdfcfa" d="M 1237.5,485.5 C 1244.51,485.334 1251.51,485.5 1258.5,486C 1271.01,488.793 1278.17,496.626 1280,509.5C 1280.91,531.863 1280.58,554.196 1279,576.5C 1276.05,587.779 1268.89,594.612 1257.5,597C 1243.86,600.117 1232.36,596.617 1223,586.5C 1220.42,582.167 1218.75,577.5 1218,572.5C 1216.03,550.839 1216.03,529.172 1218,507.5C 1220.51,496.5 1227.01,489.167 1237.5,485.5 Z"/></g>
<g><path style="opacity:1" fill="#fdfcfa" d="M 491.5,486.5 C 499.087,486.186 506.587,486.519 514,487.5C 521.618,523.759 528.785,560.092 535.5,596.5C 529.167,596.5 522.833,596.5 516.5,596.5C 515.631,587.753 514.298,579.086 512.5,570.5C 506.167,570.5 499.833,570.5 493.5,570.5C 492.167,579.166 490.834,587.832 489.5,596.5C 483.167,596.5 476.833,596.5 470.5,596.5C 477.24,559.798 484.24,523.132 491.5,486.5 Z"/></g>
<g><path style="opacity:1" fill="#fefefd" d="M 581.5,545.5 C 581.783,546.289 582.283,546.956 583,547.5C 583.5,527.169 583.667,506.836 583.5,486.5C 588.833,486.5 594.167,486.5 599.5,486.5C 599.5,523.167 599.5,559.833 599.5,596.5C 594.901,596.8 590.401,596.467 586,595.5C 577.211,574.926 568.711,554.259 560.5,533.5C 560.217,532.711 559.717,532.044 559,531.5C 558.5,552.831 558.333,574.164 558.5,595.5C 553.167,595.5 547.833,595.5 542.5,595.5C 542.5,559.167 542.5,522.833 542.5,486.5C 547.43,486.197 552.263,486.531 557,487.5C 565.455,506.739 573.622,526.073 581.5,545.5 Z"/></g>
<g><path style="opacity:1" fill="#eee1ca" d="M 583.5,486.5 C 583.667,506.836 583.5,527.169 583,547.5C 582.283,546.956 581.783,546.289 581.5,545.5C 582.167,525.833 582.833,506.167 583.5,486.5 Z"/></g>
<g><path style="opacity:1" fill="#fefdfb" d="M 611.5,486.5 C 623.838,486.333 636.171,486.5 648.5,487C 660.242,488.08 667.742,494.247 671,505.5C 672.571,526.803 672.904,548.137 672,569.5C 670.527,582.961 663.36,591.461 650.5,595C 637.542,596.353 624.542,596.853 611.5,596.5C 611.5,559.833 611.5,523.167 611.5,486.5 Z"/></g>
<g><path style="opacity:1" fill="#fefefd" d="M 746.5,546.5 C 741.5,546.5 736.5,546.5 731.5,546.5C 731.5,562.833 731.5,579.167 731.5,595.5C 725.021,596.491 718.354,596.824 711.5,596.5C 711.5,559.833 711.5,523.167 711.5,486.5C 724.837,486.333 738.171,486.5 751.5,487C 762.854,489.69 769.354,496.857 771,508.5C 772.234,517.438 771.234,526.105 768,534.5C 762.965,542.269 755.798,546.269 746.5,546.5 Z"/></g>
<g><path style="opacity:1" fill="#fdfbf9" d="M 777.5,486.5 C 790.171,486.333 802.838,486.5 815.5,487C 826.734,488.575 833.9,494.741 837,505.5C 837.667,512.5 837.667,519.5 837,526.5C 835.518,533.141 831.852,538.141 826,541.5C 825.833,542.167 825.667,542.833 825.5,543.5C 830.576,561.061 835.243,578.728 839.5,596.5C 832.8,596.83 826.134,596.497 819.5,595.5C 815.022,579.587 810.855,563.587 807,547.5C 804.281,546.556 801.448,546.223 798.5,546.5C 798.667,562.837 798.5,579.17 798,595.5C 791.256,596.479 784.422,596.812 777.5,596.5C 777.5,559.833 777.5,523.167 777.5,486.5 Z"/></g>
<g><path style="opacity:1" fill="#fdfcfb" d="M 920.5,486.5 C 932.838,486.333 945.171,486.5 957.5,487C 969.685,488.19 977.185,494.69 980,506.5C 981.988,529.163 981.988,551.829 980,574.5C 976.196,588.284 967.029,595.451 952.5,596C 941.839,596.5 931.172,596.667 920.5,596.5C 920.5,559.833 920.5,523.167 920.5,486.5 Z"/></g>
<g><path style="opacity:1" fill="#fdfcfa" d="M 990.5,486.5 C 997.167,486.5 1003.83,486.5 1010.5,486.5C 1010.33,514.502 1010.5,542.502 1011,570.5C 1012.76,581.463 1018.6,584.63 1028.5,580C 1030.04,578.068 1031.21,575.901 1032,573.5C 1032.5,544.502 1032.67,515.502 1032.5,486.5C 1039.17,486.5 1045.83,486.5 1052.5,486.5C 1052.67,514.169 1052.5,541.835 1052,569.5C 1050.92,588.745 1040.75,598.079 1021.5,597.5C 1001.5,597.002 991.336,586.669 991,566.5C 990.5,539.835 990.333,513.169 990.5,486.5 Z"/></g>
<g><path style="opacity:1" fill="#fefefe" d="M 1125.5,486.5 C 1143.83,486.5 1162.17,486.5 1180.5,486.5C 1180.5,491.167 1180.5,495.833 1180.5,500.5C 1174.64,500.178 1168.98,500.511 1163.5,501.5C 1163.5,533.167 1163.5,564.833 1163.5,596.5C 1156.83,596.5 1150.17,596.5 1143.5,596.5C 1143.5,564.833 1143.5,533.167 1143.5,501.5C 1137.69,500.51 1131.69,500.177 1125.5,500.5C 1125.5,495.833 1125.5,491.167 1125.5,486.5 Z"/></g>
<g><path style="opacity:1" fill="#fefdfb" d="M 1186.5,486.5 C 1193.17,486.5 1199.83,486.5 1206.5,486.5C 1206.5,523.167 1206.5,559.833 1206.5,596.5C 1199.83,596.5 1193.17,596.5 1186.5,596.5C 1186.5,559.833 1186.5,523.167 1186.5,486.5 Z"/></g>
<g><path style="opacity:1" fill="#fefdfc" d="M 1347.5,486.5 C 1347.5,522.833 1347.5,559.167 1347.5,595.5C 1343.17,595.5 1338.83,595.5 1334.5,595.5C 1325.97,575.247 1317.64,554.914 1309.5,534.5C 1309.22,533.711 1308.72,533.044 1308,532.5C 1307.5,553.497 1307.33,574.497 1307.5,595.5C 1302.02,596.489 1296.36,596.822 1290.5,596.5C 1290.5,559.833 1290.5,523.167 1290.5,486.5C 1295.54,486.173 1300.54,486.506 1305.5,487.5C 1314,507.167 1322.5,526.833 1331,546.5C 1331.5,526.503 1331.67,506.503 1331.5,486.5C 1336.83,486.5 1342.17,486.5 1347.5,486.5 Z"/></g>
<g><path style="opacity:1" fill="#eddec5" d="M 1347.5,486.5 C 1348.5,522.996 1348.83,559.663 1348.5,596.5C 1343.64,596.819 1338.97,596.486 1334.5,595.5C 1338.83,595.5 1343.17,595.5 1347.5,595.5C 1347.5,559.167 1347.5,522.833 1347.5,486.5 Z"/></g>
<g><path style="opacity:1" fill="#c08e34" d="M 731.5,500.5 C 749.672,498.433 756.505,506.433 752,524.5C 751.117,527.102 749.617,529.269 747.5,531C 742.292,532.397 736.959,532.897 731.5,532.5C 731.5,521.833 731.5,511.167 731.5,500.5 Z"/></g>
<g><path style="opacity:1" fill="#bf8b2f" d="M 798.5,500.5 C 804.072,499.99 809.405,500.823 814.5,503C 817.863,506.479 819.197,510.646 818.5,515.5C 819.197,529.515 812.531,535.182 798.5,532.5C 798.5,521.833 798.5,511.167 798.5,500.5 Z"/></g>
<g><path style="opacity:1" fill="#bf8b2f" d="M 872.5,500.5 C 876.514,500.334 880.514,500.501 884.5,501C 886.378,502.543 887.878,504.376 889,506.5C 889.667,528.833 889.667,551.167 889,573.5C 886.375,582.06 880.875,584.56 872.5,581C 870.263,578.97 868.763,576.47 868,573.5C 867.333,551.5 867.333,529.5 868,507.5C 869.012,504.798 870.512,502.465 872.5,500.5 Z"/></g>
<g><path style="opacity:1" fill="#ead8ba" d="M 1125.5,486.5 C 1125.5,491.167 1125.5,495.833 1125.5,500.5C 1131.69,500.177 1137.69,500.51 1143.5,501.5C 1137.17,501.5 1130.83,501.5 1124.5,501.5C 1124.18,496.305 1124.51,491.305 1125.5,486.5 Z"/></g>
<g><path style="opacity:1" fill="#eee1ca" d="M 1180.5,486.5 C 1181.49,491.305 1181.82,496.305 1181.5,501.5C 1175.5,501.5 1169.5,501.5 1163.5,501.5C 1168.98,500.511 1174.64,500.178 1180.5,500.5C 1180.5,495.833 1180.5,491.167 1180.5,486.5 Z"/></g>
<g><path style="opacity:1" fill="#bf8b2f" d="M 1242.5,500.5 C 1246.51,500.334 1250.51,500.501 1254.5,501C 1256.38,502.543 1257.88,504.376 1259,506.5C 1259.67,529.167 1259.67,551.833 1259,574.5C 1257.58,580.06 1253.91,582.727 1248,582.5C 1241.58,581.744 1238.25,578.077 1238,571.5C 1237.33,550.5 1237.33,529.5 1238,508.5C 1238.74,505.352 1240.24,502.685 1242.5,500.5 Z"/></g>
<g><path style="opacity:1" fill="#ddc292" d="M 643.5,501.5 C 639.833,501.5 636.167,501.5 632.5,501.5C 632.5,528.167 632.5,554.833 632.5,581.5C 631.502,554.672 631.169,527.672 631.5,500.5C 635.702,500.183 639.702,500.517 643.5,501.5 Z"/></g>
<g><path style="opacity:1" fill="#bf8b2e" d="M 643.5,501.5 C 647.417,502.248 649.917,504.582 651,508.5C 651.667,529.833 651.667,551.167 651,572.5C 650.394,575.548 648.894,578.048 646.5,580C 641.915,581.225 637.248,581.725 632.5,581.5C 632.5,554.833 632.5,528.167 632.5,501.5C 636.167,501.5 639.833,501.5 643.5,501.5 Z"/></g>
<g><path style="opacity:1" fill="#ddc292" d="M 952.5,501.5 C 948.833,501.5 945.167,501.5 941.5,501.5C 941.5,528.167 941.5,554.833 941.5,581.5C 940.502,554.672 940.169,527.672 940.5,500.5C 944.702,500.183 948.702,500.517 952.5,501.5 Z"/></g>
<g><path style="opacity:1" fill="#bf8b2e" d="M 952.5,501.5 C 956.443,502.276 958.943,504.609 960,508.5C 960.667,529.5 960.667,550.5 960,571.5C 959.681,574.973 958.181,577.806 955.5,580C 950.915,581.225 946.248,581.725 941.5,581.5C 941.5,554.833 941.5,528.167 941.5,501.5C 945.167,501.5 948.833,501.5 952.5,501.5 Z"/></g>
<g><path style="opacity:1" fill="#c18e34" d="M 509.5,553.5 C 509.5,554.5 509.5,555.5 509.5,556.5C 505.167,556.5 500.833,556.5 496.5,556.5C 498.123,542.426 500.29,528.426 503,514.5C 505.412,527.468 507.579,540.468 509.5,553.5 Z"/></g>
<g><path style="opacity:1" fill="#ecdcc0" d="M 560.5,533.5 C 559.503,554.327 559.169,575.327 559.5,596.5C 553.642,596.822 547.975,596.489 542.5,595.5C 547.833,595.5 553.167,595.5 558.5,595.5C 558.333,574.164 558.5,552.831 559,531.5C 559.717,532.044 560.217,532.711 560.5,533.5 Z"/></g>
<g><path style="opacity:1" fill="#dec496" d="M 1309.5,534.5 C 1308.83,554.833 1308.17,575.167 1307.5,595.5C 1307.33,574.497 1307.5,553.497 1308,532.5C 1308.72,533.044 1309.22,533.711 1309.5,534.5 Z"/></g>
<g><path style="opacity:1" fill="#d2ad6c" d="M 746.5,546.5 C 742.03,547.486 737.363,547.819 732.5,547.5C 732.83,563.675 732.496,579.675 731.5,595.5C 731.5,579.167 731.5,562.833 731.5,546.5C 736.5,546.5 741.5,546.5 746.5,546.5 Z"/></g>
<g><path style="opacity:1" fill="#d2ae6d" d="M 509.5,553.5 C 510.434,554.568 510.768,555.901 510.5,557.5C 505.637,557.819 500.97,557.486 496.5,556.5C 500.833,556.5 505.167,556.5 509.5,556.5C 509.5,555.5 509.5,554.5 509.5,553.5 Z"/></g>
<g><path style="opacity:1" fill="#fefefe" d="M 480.5,728.5 C 545.284,726.261 602.617,745.428 652.5,786C 678.29,808.778 700.79,834.278 720,862.5C 733.418,882.329 746.085,902.663 758,923.5C 772.079,950.658 786.412,977.658 801,1004.5C 819.033,1035.21 841.533,1062.38 868.5,1086C 897.877,1109.19 930.877,1125.19 967.5,1134C 1012.56,1142.59 1053.56,1133.59 1090.5,1107C 1113.7,1087.13 1129.2,1062.29 1137,1032.5C 1144.07,1003.92 1146.4,974.918 1144,945.5C 1136.25,860.417 1090.09,811.584 1005.5,799C 961.557,794.982 921.557,805.649 885.5,831C 857.502,852.328 833.669,877.495 814,906.5C 810.796,909.113 807.63,909.113 804.5,906.5C 793.5,887.167 782.5,867.833 771.5,848.5C 803.254,803.909 843.921,770.076 893.5,747C 974.604,716.277 1051.6,724.277 1124.5,771C 1175.18,809.483 1204.35,860.649 1212,924.5C 1217.23,968.783 1214.23,1012.45 1203,1055.5C 1178.77,1131.36 1128.27,1179.86 1051.5,1201C 1001.84,1211.27 953.51,1206.93 906.5,1188C 846.727,1162.9 798.227,1123.74 761,1070.5C 754.667,1060.83 748.333,1051.17 742,1041.5C 725.985,1011.47 709.985,981.468 694,951.5C 674.087,915.251 649.92,882.084 621.5,852C 583.611,814.586 537.944,796.586 484.5,798C 392.108,809.067 343.941,861.233 340,954.5C 337.652,984.732 341.652,1014.07 352,1042.5C 374.43,1090.25 411.597,1119.41 463.5,1130C 496.791,1135.46 529.124,1132.13 560.5,1120C 567.738,1116.8 574.571,1112.97 581,1108.5C 581.507,1107 581.007,1105.84 579.5,1105C 569.035,1096.2 558.868,1087.04 549,1077.5C 547.729,1073.83 548.896,1071.33 552.5,1070C 596.5,1057.67 640.5,1045.33 684.5,1033C 688.761,1031.64 693.095,1031.3 697.5,1032C 698.894,1033.74 699.561,1035.74 699.5,1038C 691.282,1086.09 683.449,1134.26 676,1182.5C 673.79,1185.29 670.956,1186.12 667.5,1185C 657.248,1174.74 646.414,1165.24 635,1156.5C 574.263,1199.71 507.429,1212.55 434.5,1195C 350.824,1170.32 297.99,1115.82 276,1031.5C 268.696,989.166 268.696,946.833 276,904.5C 295.98,814.187 350.813,757.687 440.5,735C 453.859,732.168 467.193,730.002 480.5,728.5 Z"/></g>
</svg>
