<?xml version="1.0" encoding="UTF-8"?>
<!DOCTYPE svg PUBLIC "-//W3C//DTD SVG 1.1//EN" "http://www.w3.org/Graphics/SVG/1.1/DTD/svg11.dtd">
<svg xmlns="http://www.w3.org/2000/svg" version="1.1" width="1500px" height="1500px" style="shape-rendering:geometricPrecision; text-rendering:geometricPrecision; image-rendering:optimizeQuality; fill-rule:evenodd; clip-rule:evenodd" xmlns:xlink="http://www.w3.org/1999/xlink">
<g><path style="opacity:1" fill="#19486a" d="M -0.5,-0.5 C 499.5,-0.5 999.5,-0.5 1499.5,-0.5C 1499.5,499.5 1499.5,999.5 1499.5,1499.5C 999.5,1499.5 499.5,1499.5 -0.5,1499.5C -0.5,999.5 -0.5,499.5 -0.5,-0.5 Z"/></g>
<g><path style="opacity:1" fill="#fafbfc" d="M 942.5,202.5 C 943.5,202.5 944.5,202.5 945.5,202.5C 945.263,203.791 945.596,204.791 946.5,205.5C 946.445,211.801 948.445,217.301 952.5,222C 958.134,224.776 962.634,223.609 966,218.5C 967.301,212.078 966.301,206.078 963,200.5C 953.667,191.833 944.333,183.167 935,174.5C 929.043,165.718 927.043,156.052 929,145.5C 931.907,135.594 938.407,129.427 948.5,127C 971.207,123.88 983.207,133.713 984.5,156.5C 978.499,157.5 972.499,158.5 966.5,159.5C 967.653,153.068 965.986,147.568 961.5,143C 950.549,140.616 946.049,145.116 948,156.5C 948.471,158.246 949.138,159.913 950,161.5C 958.477,169.733 967.143,177.733 976,185.5C 987.871,199.04 989.537,213.707 981,229.5C 967.17,241.791 952.67,242.624 937.5,232C 931.044,224.027 928.044,214.86 928.5,204.5C 933.167,203.833 937.833,203.167 942.5,202.5 Z"/></g>
<g><path style="opacity:1" fill="#fbfcfc" d="M 1190.5,126.5 C 1210.94,123.846 1222.6,132.513 1225.5,152.5C 1225.17,153.833 1224.83,155.167 1224.5,156.5C 1219.26,158.014 1213.93,159.014 1208.5,159.5C 1209.19,152.341 1206.85,146.508 1201.5,142C 1190.96,141.216 1186.79,146.05 1189,156.5C 1189.56,158.725 1190.56,160.725 1192,162.5C 1200.67,170.5 1209.33,178.5 1218,186.5C 1228.6,199.414 1230.27,213.414 1223,228.5C 1219.21,233.308 1214.38,236.475 1208.5,238C 1183.12,241.459 1170.12,230.292 1169.5,204.5C 1175.57,203.924 1181.57,202.924 1187.5,201.5C 1187.27,208.243 1188.77,214.577 1192,220.5C 1201.35,226.398 1206.85,223.898 1208.5,213C 1208.34,208.864 1207.18,205.031 1205,201.5C 1195.94,192.619 1186.61,183.953 1177,175.5C 1168.72,163.959 1167.39,151.625 1173,138.5C 1177.43,132.375 1183.26,128.375 1190.5,126.5 Z"/></g>
<g><path style="opacity:1" fill="#bccad3" d="M 727.5,142.5 C 727.5,137.833 727.5,133.167 727.5,128.5C 709.167,128.5 690.833,128.5 672.5,128.5C 672.5,133.167 672.5,137.833 672.5,142.5C 672.167,142.5 671.833,142.5 671.5,142.5C 671.5,137.5 671.5,132.5 671.5,127.5C 690.5,127.5 709.5,127.5 728.5,127.5C 728.821,132.695 728.487,137.695 727.5,142.5 Z"/></g>
<g><path style="opacity:1" fill="#c5d1d9" d="M 804.5,128.5 C 819.658,127.504 834.991,127.17 850.5,127.5C 850.5,132.5 850.5,137.5 850.5,142.5C 841.833,142.5 833.167,142.5 824.5,142.5C 832.65,141.507 840.983,141.174 849.5,141.5C 849.5,137.167 849.5,132.833 849.5,128.5C 834.5,128.5 819.5,128.5 804.5,128.5 Z"/></g>
<g><path style="opacity:1" fill="#fefefe" d="M 183.5,414.5 C 165.167,414.5 146.833,414.5 128.5,414.5C 128.833,338.164 128.5,261.83 127.5,185.5C 126.893,185.624 126.56,185.957 126.5,186.5C 113.845,190.83 101.178,195.163 88.5,199.5C 87.5044,186.344 87.1711,173.01 87.5,159.5C 106.69,151.571 124.357,141.071 140.5,128C 154.829,127.5 169.163,127.333 183.5,127.5C 183.5,223.167 183.5,318.833 183.5,414.5 Z"/></g>
<g><path style="opacity:1" fill="#fefefe" d="M 346.5,165.5 C 327.147,248.245 307.48,330.912 287.5,413.5C 269.577,414.486 251.577,414.819 233.5,414.5C 253.187,333.083 273.187,251.75 293.5,170.5C 268.005,169.502 242.339,169.169 216.5,169.5C 216.5,155.833 216.5,142.167 216.5,128.5C 259.833,128.5 303.167,128.5 346.5,128.5C 346.5,140.833 346.5,153.167 346.5,165.5 Z"/></g>
<g><path style="opacity:1" fill="#a8bac6" d="M 346.5,165.5 C 346.5,153.167 346.5,140.833 346.5,128.5C 303.167,128.5 259.833,128.5 216.5,128.5C 216.5,142.167 216.5,155.833 216.5,169.5C 242.339,169.169 268.005,169.502 293.5,170.5C 267.5,170.5 241.5,170.5 215.5,170.5C 215.5,156.167 215.5,141.833 215.5,127.5C 259.5,127.5 303.5,127.5 347.5,127.5C 347.829,140.344 347.495,153.011 346.5,165.5 Z"/></g>
<g><path style="opacity:1" fill="#96acbb" d="M 515.5,128.5 C 503.167,128.5 490.833,128.5 478.5,128.5C 478.5,164.833 478.5,201.167 478.5,237.5C 477.502,201.004 477.168,164.337 477.5,127.5C 490.344,127.171 503.011,127.505 515.5,128.5 Z"/></g>
<g><path style="opacity:1" fill="#fcfdfd" d="M 515.5,128.5 C 527.622,129.787 534.789,136.454 537,148.5C 541.326,178.341 528.493,191.674 498.5,188.5C 498.5,204.833 498.5,221.167 498.5,237.5C 491.833,237.5 485.167,237.5 478.5,237.5C 478.5,201.167 478.5,164.833 478.5,128.5C 490.833,128.5 503.167,128.5 515.5,128.5 Z"/></g>
<g><path style="opacity:1" fill="#fafbfb" d="M 553.5,237.5 C 546.978,237.823 540.645,237.49 534.5,236.5C 541.342,200.464 548.508,164.464 556,128.5C 563.333,127.167 570.667,127.167 578,128.5C 585.358,164.789 592.525,201.123 599.5,237.5C 593.167,237.5 586.833,237.5 580.5,237.5C 579.491,229.11 578.157,220.777 576.5,212.5C 570.167,212.5 563.833,212.5 557.5,212.5C 556.166,220.836 554.833,229.17 553.5,237.5 Z"/></g>
<g><path style="opacity:1" fill="#fdfdfd" d="M 669.5,237.5 C 662.412,237.795 655.412,237.462 648.5,236.5C 644.658,220.131 640.658,203.798 636.5,187.5C 633.5,187.5 630.5,187.5 627.5,187.5C 627.5,204.167 627.5,220.833 627.5,237.5C 620.833,237.5 614.167,237.5 607.5,237.5C 607.5,200.833 607.5,164.167 607.5,127.5C 619.171,127.333 630.838,127.5 642.5,128C 655.595,129.109 663.762,135.942 667,148.5C 668.583,159.097 666.916,169.097 662,178.5C 659.331,180.34 656.831,182.34 654.5,184.5C 659.707,202.121 664.707,219.787 669.5,237.5 Z"/></g>
<g><path style="opacity:1" fill="#fdfdfd" d="M 727.5,142.5 C 721.833,142.5 716.167,142.5 710.5,142.5C 710.5,174.167 710.5,205.833 710.5,237.5C 703.833,237.5 697.167,237.5 690.5,237.5C 690.5,205.833 690.5,174.167 690.5,142.5C 684.5,142.5 678.5,142.5 672.5,142.5C 672.5,137.833 672.5,133.167 672.5,128.5C 690.833,128.5 709.167,128.5 727.5,128.5C 727.5,133.167 727.5,137.833 727.5,142.5 Z"/></g>
<g><path style="opacity:1" fill="#fbfbfc" d="M 772.5,185.5 C 772.987,186.473 773.487,187.473 774,188.5C 774.5,168.169 774.667,147.836 774.5,127.5C 780.167,127.5 785.833,127.5 791.5,127.5C 791.5,164.167 791.5,200.833 791.5,237.5C 786.57,237.803 781.737,237.469 777,236.5C 768.729,216.516 760.563,196.516 752.5,176.5C 752.217,175.711 751.717,175.044 751,174.5C 750.5,195.497 750.333,216.497 750.5,237.5C 744.833,237.5 739.167,237.5 733.5,237.5C 733.5,200.833 733.5,164.167 733.5,127.5C 738.43,127.197 743.263,127.531 748,128.5C 756.182,147.526 764.348,166.526 772.5,185.5 Z"/></g>
<g><path style="opacity:1" fill="#53768f" d="M 774.5,127.5 C 774.667,147.836 774.5,168.169 774,188.5C 773.487,187.473 772.987,186.473 772.5,185.5C 773.167,166.167 773.833,146.833 774.5,127.5 Z"/></g>
<g><path style="opacity:1" fill="#fdfdfd" d="M 804.5,128.5 C 819.5,128.5 834.5,128.5 849.5,128.5C 849.5,132.833 849.5,137.167 849.5,141.5C 840.983,141.174 832.65,141.507 824.5,142.5C 824.5,152.833 824.5,163.167 824.5,173.5C 831.167,173.5 837.833,173.5 844.5,173.5C 844.5,178.167 844.5,182.833 844.5,187.5C 837.833,187.5 831.167,187.5 824.5,187.5C 824.5,199.5 824.5,211.5 824.5,223.5C 833.167,223.5 841.833,223.5 850.5,223.5C 850.5,228.167 850.5,232.833 850.5,237.5C 835.167,237.5 819.833,237.5 804.5,237.5C 804.5,201.167 804.5,164.833 804.5,128.5 Z"/></g>
<g><path style="opacity:1" fill="#fdfdfd" d="M 893.5,128.5 C 904.423,128.867 912.256,133.867 917,143.5C 918.537,151.77 918.87,160.103 918,168.5C 917.197,171.244 916.197,173.911 915,176.5C 912.1,179.4 909.267,182.233 906.5,185C 911.324,202.141 915.991,219.308 920.5,236.5C 914.021,237.491 907.354,237.824 900.5,237.5C 896.398,221.006 892.065,204.673 887.5,188.5C 884.713,187.523 881.713,187.19 878.5,187.5C 878.5,204.167 878.5,220.833 878.5,237.5C 872.167,237.5 865.833,237.5 859.5,237.5C 859.5,201.167 859.5,164.833 859.5,128.5C 870.833,128.5 882.167,128.5 893.5,128.5 Z"/></g>
<g><path style="opacity:1" fill="#fdfefe" d="M 1037.5,237.5 C 1037.5,220.833 1037.5,204.167 1037.5,187.5C 1029.98,187.175 1022.65,187.508 1015.5,188.5C 1015.5,204.833 1015.5,221.167 1015.5,237.5C 1008.83,237.5 1002.17,237.5 995.5,237.5C 995.5,201.167 995.5,164.833 995.5,128.5C 1001.83,128.5 1008.17,128.5 1014.5,128.5C 1014.17,143.676 1014.5,158.676 1015.5,173.5C 1022.83,173.5 1030.17,173.5 1037.5,173.5C 1037.5,158.167 1037.5,142.833 1037.5,127.5C 1044.17,127.5 1050.83,127.5 1057.5,127.5C 1057.5,164.167 1057.5,200.833 1057.5,237.5C 1050.83,237.5 1044.17,237.5 1037.5,237.5 Z"/></g>
<g><path style="opacity:1" fill="#aebfcb" d="M 1015.5,173.5 C 1014.5,158.676 1014.17,143.676 1014.5,128.5C 1008.17,128.5 1001.83,128.5 995.5,128.5C 995.5,164.833 995.5,201.167 995.5,237.5C 994.502,201.004 994.168,164.337 994.5,127.5C 1001.5,127.5 1008.5,127.5 1015.5,127.5C 1015.5,142.833 1015.5,158.167 1015.5,173.5 Z"/></g>
<g><path style="opacity:1" fill="#fefefe" d="M 1071.5,127.5 C 1078.17,127.5 1084.83,127.5 1091.5,127.5C 1091.5,164.167 1091.5,200.833 1091.5,237.5C 1084.83,237.5 1078.17,237.5 1071.5,237.5C 1071.5,200.833 1071.5,164.167 1071.5,127.5 Z"/></g>
<g><path style="opacity:1" fill="#96acbb" d="M 1142.5,128.5 C 1130.17,128.5 1117.83,128.5 1105.5,128.5C 1105.5,164.833 1105.5,201.167 1105.5,237.5C 1104.5,201.004 1104.17,164.337 1104.5,127.5C 1117.34,127.171 1130.01,127.505 1142.5,128.5 Z"/></g>
<g><path style="opacity:1" fill="#fcfdfd" d="M 1142.5,128.5 C 1154.17,129.665 1161.34,135.999 1164,147.5C 1168.82,177.841 1155.99,191.507 1125.5,188.5C 1125.5,204.833 1125.5,221.167 1125.5,237.5C 1118.83,237.5 1112.17,237.5 1105.5,237.5C 1105.5,201.167 1105.5,164.833 1105.5,128.5C 1117.83,128.5 1130.17,128.5 1142.5,128.5 Z"/></g>
<g><path style="opacity:1" fill="#1b496b" d="M 498.5,142.5 C 503.959,142.103 509.292,142.603 514.5,144C 517.981,147.751 519.314,152.251 518.5,157.5C 520.254,165.822 517.254,171.322 509.5,174C 505.848,174.499 502.182,174.665 498.5,174.5C 498.5,163.833 498.5,153.167 498.5,142.5 Z"/></g>
<g><path style="opacity:1" fill="#1e4b6c" d="M 627.5,141.5 C 644.677,139.847 651.51,147.513 648,164.5C 646.932,169.235 644.099,172.402 639.5,174C 635.514,174.499 631.514,174.666 627.5,174.5C 627.5,163.5 627.5,152.5 627.5,141.5 Z"/></g>
<g><path style="opacity:1" fill="#849daf" d="M 889.5,142.5 C 886.167,142.5 882.833,142.5 879.5,142.5C 879.5,153.167 879.5,163.833 879.5,174.5C 878.505,163.679 878.172,152.679 878.5,141.5C 882.371,141.185 886.038,141.518 889.5,142.5 Z"/></g>
<g><path style="opacity:1" fill="#1b496b" d="M 889.5,142.5 C 894.228,142.775 897.394,145.108 899,149.5C 903.868,167.187 897.368,175.52 879.5,174.5C 879.5,163.833 879.5,153.167 879.5,142.5C 882.833,142.5 886.167,142.5 889.5,142.5 Z"/></g>
<g><path style="opacity:1" fill="#1b496b" d="M 1125.5,142.5 C 1130.96,142.103 1136.29,142.603 1141.5,144C 1143.05,145.214 1144.22,146.714 1145,148.5C 1145.67,154.833 1145.67,161.167 1145,167.5C 1143.88,169.624 1142.38,171.457 1140.5,173C 1135.6,174.325 1130.6,174.825 1125.5,174.5C 1125.5,163.833 1125.5,153.167 1125.5,142.5 Z"/></g>
<g><path style="opacity:1" fill="#7d97ab" d="M 671.5,142.5 C 671.833,142.5 672.167,142.5 672.5,142.5C 678.5,142.5 684.5,142.5 690.5,142.5C 690.5,174.167 690.5,205.833 690.5,237.5C 697.167,237.5 703.833,237.5 710.5,237.5C 703.687,238.491 696.687,238.825 689.5,238.5C 689.5,206.833 689.5,175.167 689.5,143.5C 683.31,143.823 677.31,143.49 671.5,142.5 Z"/></g>
<g><path style="opacity:1" fill="#214c6e" d="M 573.5,195.5 C 573.5,196.5 573.5,197.5 573.5,198.5C 569.167,198.5 564.833,198.5 560.5,198.5C 560.5,197.5 560.5,196.5 560.5,195.5C 562.773,182.193 564.94,168.86 567,155.5C 569.494,168.794 571.66,182.128 573.5,195.5 Z"/></g>
<g><path style="opacity:1" fill="#c4d0d9" d="M 87.5,159.5 C 87.1711,173.01 87.5044,186.344 88.5,199.5C 88.44,200.043 88.1067,200.376 87.5,200.5C 86.1745,186.672 86.1745,173.006 87.5,159.5 Z"/></g>
<g><path style="opacity:1" fill="#53768f" d="M 752.5,176.5 C 751.833,196.833 751.167,217.167 750.5,237.5C 750.333,216.497 750.5,195.497 751,174.5C 751.717,175.044 752.217,175.711 752.5,176.5 Z"/></g>
<g><path style="opacity:1" fill="#5c7d94" d="M 126.5,186.5 C 126.56,185.957 126.893,185.624 127.5,185.5C 128.5,261.83 128.833,338.164 128.5,414.5C 146.833,414.5 165.167,414.5 183.5,414.5C 165.007,415.497 146.341,415.83 127.5,415.5C 127.833,338.998 127.499,262.665 126.5,186.5 Z"/></g>
<g><path style="opacity:1" fill="#88a0b2" d="M 893.5,128.5 C 882.167,128.5 870.833,128.5 859.5,128.5C 859.5,164.833 859.5,201.167 859.5,237.5C 865.833,237.5 872.167,237.5 878.5,237.5C 878.5,220.833 878.5,204.167 878.5,187.5C 881.713,187.19 884.713,187.523 887.5,188.5C 884.833,188.5 882.167,188.5 879.5,188.5C 879.5,205.167 879.5,221.833 879.5,238.5C 872.5,238.5 865.5,238.5 858.5,238.5C 858.5,201.5 858.5,164.5 858.5,127.5C 870.345,127.172 882.012,127.505 893.5,128.5 Z"/></g>
<g><path style="opacity:1" fill="#608098" d="M 1015.5,188.5 C 1022.65,187.508 1029.98,187.175 1037.5,187.5C 1037.5,204.167 1037.5,220.833 1037.5,237.5C 1036.5,221.342 1036.17,205.009 1036.5,188.5C 1029.5,188.5 1022.5,188.5 1015.5,188.5 Z"/></g>
<g><path style="opacity:1" fill="#97adbc" d="M 560.5,195.5 C 560.5,196.5 560.5,197.5 560.5,198.5C 564.833,198.5 569.167,198.5 573.5,198.5C 573.5,197.5 573.5,196.5 573.5,195.5C 574.434,196.568 574.768,197.901 574.5,199.5C 569.5,199.5 564.5,199.5 559.5,199.5C 559.232,197.901 559.566,196.568 560.5,195.5 Z"/></g>
<g><path style="opacity:1" fill="#869eb0" d="M 942.5,202.5 C 943.568,201.566 944.901,201.232 946.5,201.5C 946.5,202.833 946.5,204.167 946.5,205.5C 945.596,204.791 945.263,203.791 945.5,202.5C 944.5,202.5 943.5,202.5 942.5,202.5 Z"/></g>
<g><path style="opacity:1" fill="#50748d" d="M 534.5,236.5 C 540.645,237.49 546.978,237.823 553.5,237.5C 546.989,238.818 540.322,238.818 533.5,237.5C 533.624,236.893 533.957,236.56 534.5,236.5 Z"/></g>
<g><path style="opacity:1" fill="#52758e" d="M 648.5,236.5 C 655.412,237.462 662.412,237.795 669.5,237.5C 666.183,238.165 662.683,238.499 659,238.5C 655.098,238.488 651.598,237.821 648.5,236.5 Z"/></g>
<g><path style="opacity:1" fill="#52758e" d="M 920.5,236.5 C 921.043,236.56 921.376,236.893 921.5,237.5C 914.344,238.819 907.344,238.819 900.5,237.5C 907.354,237.824 914.021,237.491 920.5,236.5 Z"/></g>
<g><path style="opacity:1" fill="#fafbfc" d="M 552.5,305.5 C 574.637,302.511 587.47,311.844 591,333.5C 591.667,352.5 591.667,371.5 591,390.5C 586.876,412.332 573.709,421.499 551.5,418C 536.203,414.29 528.37,404.457 528,388.5C 527.047,367.782 527.38,347.115 529,326.5C 532.349,314.31 540.182,307.31 552.5,305.5 Z"/></g>
<g><path style="opacity:1" fill="#fcfcfd" d="M 942.5,361.5 C 952.5,361.5 962.5,361.5 972.5,361.5C 972.5,379.833 972.5,398.167 972.5,416.5C 968.167,416.5 963.833,416.5 959.5,416.5C 959.789,413.351 959.289,410.351 958,407.5C 950.784,418.385 940.951,421.552 928.5,417C 917.273,411.402 911.439,402.235 911,389.5C 910.098,368.47 910.431,347.47 912,326.5C 916.333,312.164 926,305.164 941,305.5C 951.2,305.042 959.867,308.375 967,315.5C 971.368,324.309 973.201,333.642 972.5,343.5C 965.833,343.5 959.167,343.5 952.5,343.5C 952.666,337.824 952.499,332.157 952,326.5C 947.313,320.065 941.479,318.898 934.5,323C 933.54,324.419 932.707,325.919 932,327.5C 930.391,348.791 930.057,370.124 931,391.5C 933.005,402.441 939.171,405.608 949.5,401C 951.563,398.489 953.063,395.656 954,392.5C 954.499,386.509 954.666,380.509 954.5,374.5C 950.5,374.5 946.5,374.5 942.5,374.5C 942.5,370.167 942.5,365.833 942.5,361.5 Z"/></g>
<g><path style="opacity:1" fill="#fafbfc" d="M 1006.5,305.5 C 1016.95,304.365 1026.62,306.531 1035.5,312C 1041.24,317.991 1044.41,325.158 1045,333.5C 1045.67,352.5 1045.67,371.5 1045,390.5C 1043.63,406.462 1035.13,415.629 1019.5,418C 997.929,421.085 985.429,411.919 982,390.5C 981.333,371.167 981.333,351.833 982,332.5C 983.474,317.201 991.641,308.201 1006.5,305.5 Z"/></g>
<g><path style="opacity:1" fill="#fbfcfc" d="M 1193.5,305.5 C 1211.01,302.818 1222.17,309.818 1227,326.5C 1227.82,329.554 1227.65,332.554 1226.5,335.5C 1221.25,336.931 1215.92,337.931 1210.5,338.5C 1210.81,333.629 1209.97,328.963 1208,324.5C 1202.32,320.207 1196.98,320.541 1192,325.5C 1190.73,331.631 1191.73,337.298 1195,342.5C 1204,350.833 1213,359.167 1222,367.5C 1228.89,376.725 1231.22,387.058 1229,398.5C 1226.31,409.854 1219.14,416.354 1207.5,418C 1184.24,419.253 1172.24,408.086 1171.5,384.5C 1177.29,383.676 1182.95,382.343 1188.5,380.5C 1188.73,388.922 1191.73,396.088 1197.5,402C 1200.93,402.701 1204.26,402.368 1207.5,401C 1211.75,393.267 1211.25,385.767 1206,378.5C 1195.87,369.946 1186.2,360.946 1177,351.5C 1171.87,340.777 1171.2,329.777 1175,318.5C 1179.61,311.792 1185.78,307.459 1193.5,305.5 Z"/></g>
<g><path style="opacity:1" fill="#8ba3b4" d="M 523.5,307.5 C 508.5,307.5 493.5,307.5 478.5,307.5C 478.5,343.833 478.5,380.167 478.5,416.5C 477.502,380.004 477.168,343.337 477.5,306.5C 493.009,306.17 508.342,306.504 523.5,307.5 Z"/></g>
<g><path style="opacity:1" fill="#fcfcfd" d="M 523.5,307.5 C 523.5,312.167 523.5,316.833 523.5,321.5C 515.167,321.5 506.833,321.5 498.5,321.5C 498.5,331.833 498.5,342.167 498.5,352.5C 504.645,353.49 510.978,353.823 517.5,353.5C 517.5,357.833 517.5,362.167 517.5,366.5C 510.978,366.177 504.645,366.51 498.5,367.5C 498.5,383.833 498.5,400.167 498.5,416.5C 491.833,416.5 485.167,416.5 478.5,416.5C 478.5,380.167 478.5,343.833 478.5,307.5C 493.5,307.5 508.5,307.5 523.5,307.5 Z"/></g>
<g><path style="opacity:1" fill="#fcfcfd" d="M 601.5,306.5 C 612.505,306.333 623.505,306.5 634.5,307C 656.12,309.706 664.953,321.873 661,343.5C 660.622,352.599 656.455,359.266 648.5,363.5C 653.378,381.241 658.378,398.907 663.5,416.5C 656.5,416.5 649.5,416.5 642.5,416.5C 638.626,399.798 634.626,383.131 630.5,366.5C 627.5,366.5 624.5,366.5 621.5,366.5C 621.5,383.167 621.5,399.833 621.5,416.5C 614.833,416.5 608.167,416.5 601.5,416.5C 601.5,379.833 601.5,343.167 601.5,306.5 Z"/></g>
<g><path style="opacity:1" fill="#f9fafb" d="M 712.5,416.5 C 712.5,384.833 712.5,353.167 712.5,321.5C 706.167,321.5 699.833,321.5 693.5,321.5C 693.5,316.5 693.5,311.5 693.5,306.5C 712.5,306.5 731.5,306.5 750.5,306.5C 750.5,311.833 750.5,317.167 750.5,322.5C 744.5,322.5 738.5,322.5 732.5,322.5C 732.5,353.833 732.5,385.167 732.5,416.5C 725.833,416.5 719.167,416.5 712.5,416.5 Z"/></g>
<g><path style="opacity:1" fill="#fbfcfc" d="M 754.5,307.5 C 761.167,307.5 767.833,307.5 774.5,307.5C 774.171,322.676 774.504,337.676 775.5,352.5C 782.5,352.5 789.5,352.5 796.5,352.5C 797.496,337.676 797.829,322.676 797.5,307.5C 804.167,307.5 810.833,307.5 817.5,307.5C 817.5,343.833 817.5,380.167 817.5,416.5C 810.833,416.5 804.167,416.5 797.5,416.5C 797.83,399.991 797.496,383.658 796.5,367.5C 789.5,367.5 782.5,367.5 775.5,367.5C 774.504,383.658 774.17,399.991 774.5,416.5C 767.833,416.5 761.167,416.5 754.5,416.5C 754.5,380.167 754.5,343.833 754.5,307.5 Z"/></g>
<g><path style="opacity:1" fill="#8ba3b4" d="M 754.5,307.5 C 761.313,306.509 768.313,306.175 775.5,306.5C 775.5,321.833 775.5,337.167 775.5,352.5C 774.504,337.676 774.171,322.676 774.5,307.5C 767.833,307.5 761.167,307.5 754.5,307.5 Z"/></g>
<g><path style="opacity:1" fill="#8ba3b4" d="M 817.5,307.5 C 810.833,307.5 804.167,307.5 797.5,307.5C 797.829,322.676 797.496,337.676 796.5,352.5C 796.5,337.167 796.5,321.833 796.5,306.5C 803.687,306.175 810.687,306.509 817.5,307.5 Z"/></g>
<g><path style="opacity:1" fill="#fcfcfd" d="M 870.5,366.5 C 863.5,366.5 856.5,366.5 849.5,366.5C 849.172,378.678 849.505,390.678 850.5,402.5C 858.833,402.5 867.167,402.5 875.5,402.5C 875.5,407.167 875.5,411.833 875.5,416.5C 860.167,416.5 844.833,416.5 829.5,416.5C 829.5,379.833 829.5,343.167 829.5,306.5C 844.833,306.5 860.167,306.5 875.5,306.5C 875.5,311.5 875.5,316.5 875.5,321.5C 866.833,321.5 858.167,321.5 849.5,321.5C 849.5,331.833 849.5,342.167 849.5,352.5C 856.5,352.5 863.5,352.5 870.5,352.5C 870.5,357.167 870.5,361.833 870.5,366.5 Z"/></g>
<g><path style="opacity:1" fill="#fafbfb" d="M 1069.5,416.5 C 1062.75,417.123 1056.41,416.456 1050.5,414.5C 1057.22,378.747 1064.38,343.081 1072,307.5C 1079.08,306.52 1086.25,306.187 1093.5,306.5C 1100.96,343.129 1108.29,379.796 1115.5,416.5C 1109.17,416.5 1102.83,416.5 1096.5,416.5C 1095.33,408.139 1093.99,399.805 1092.5,391.5C 1086.13,391.17 1079.8,391.504 1073.5,392.5C 1071.95,400.465 1070.62,408.465 1069.5,416.5 Z"/></g>
<g><path style="opacity:1" fill="#7f99ac" d="M 1142.5,307.5 C 1135.83,307.5 1129.17,307.5 1122.5,307.5C 1122.5,343.833 1122.5,380.167 1122.5,416.5C 1137.83,416.5 1153.17,416.5 1168.5,416.5C 1153.01,417.496 1137.34,417.83 1121.5,417.5C 1121.5,380.5 1121.5,343.5 1121.5,306.5C 1128.69,306.175 1135.69,306.509 1142.5,307.5 Z"/></g>
<g><path style="opacity:1" fill="#fcfcfd" d="M 1142.5,307.5 C 1142.5,339.167 1142.5,370.833 1142.5,402.5C 1151.17,402.5 1159.83,402.5 1168.5,402.5C 1168.5,407.167 1168.5,411.833 1168.5,416.5C 1153.17,416.5 1137.83,416.5 1122.5,416.5C 1122.5,380.167 1122.5,343.833 1122.5,307.5C 1129.17,307.5 1135.83,307.5 1142.5,307.5 Z"/></g>
<g><path style="opacity:1" fill="#1b496b" d="M 555.5,320.5 C 562.617,319.14 567.451,321.807 570,328.5C 570.667,350.167 570.667,371.833 570,393.5C 567.645,402.262 562.145,405.095 553.5,402C 551.19,400.363 549.69,398.196 549,395.5C 548.333,372.833 548.333,350.167 549,327.5C 550.018,323.985 552.185,321.652 555.5,320.5 Z"/></g>
<g><path style="opacity:1" fill="#1b496b" d="M 621.5,321.5 C 640.344,319.785 646.844,328.118 641,346.5C 639.437,349.728 636.937,351.895 633.5,353C 629.514,353.499 625.514,353.666 621.5,353.5C 621.5,342.833 621.5,332.167 621.5,321.5 Z"/></g>
<g><path style="opacity:1" fill="#1b496b" d="M 1009.5,320.5 C 1017.21,319.097 1022.05,322.097 1024,329.5C 1024.67,351.5 1024.67,373.5 1024,395.5C 1019.32,404.503 1012.99,405.837 1005,399.5C 1004.03,397.608 1003.36,395.608 1003,393.5C 1002.33,371.833 1002.33,350.167 1003,328.5C 1004.28,325.062 1006.44,322.395 1009.5,320.5 Z"/></g>
<g><path style="opacity:1" fill="#5b7c94" d="M 693.5,321.5 C 699.833,321.5 706.167,321.5 712.5,321.5C 712.5,353.167 712.5,384.833 712.5,416.5C 711.502,385.338 711.168,354.004 711.5,322.5C 705.31,322.823 699.31,322.49 693.5,321.5 Z"/></g>
<g><path style="opacity:1" fill="#204c6d" d="M 1089.5,377.5 C 1084.71,378.097 1080.37,377.43 1076.5,375.5C 1078.34,362.113 1080.51,348.779 1083,335.5C 1085.28,349.494 1087.44,363.494 1089.5,377.5 Z"/></g>
<g><path style="opacity:1" fill="#b4c4ce" d="M 498.5,352.5 C 505.167,352.5 511.833,352.5 518.5,352.5C 518.5,357.5 518.5,362.5 518.5,367.5C 511.833,367.5 505.167,367.5 498.5,367.5C 504.645,366.51 510.978,366.177 517.5,366.5C 517.5,362.167 517.5,357.833 517.5,353.5C 510.978,353.823 504.645,353.49 498.5,352.5 Z"/></g>
<g><path style="opacity:1" fill="#618198" d="M 942.5,361.5 C 952.653,360.506 962.986,360.172 973.5,360.5C 973.83,379.341 973.497,398.007 972.5,416.5C 972.5,398.167 972.5,379.833 972.5,361.5C 962.5,361.5 952.5,361.5 942.5,361.5 Z"/></g>
<g><path style="opacity:1" fill="#628299" d="M 870.5,366.5 C 864.021,367.491 857.354,367.824 850.5,367.5C 850.5,379.167 850.5,390.833 850.5,402.5C 849.505,390.678 849.172,378.678 849.5,366.5C 856.5,366.5 863.5,366.5 870.5,366.5 Z"/></g>
<g><path style="opacity:1" fill="#587992" d="M 1076.5,375.5 C 1080.37,377.43 1084.71,378.097 1089.5,377.5C 1085.03,378.486 1080.36,378.819 1075.5,378.5C 1075.26,377.209 1075.6,376.209 1076.5,375.5 Z"/></g>
<g><path style="opacity:1" fill="#8aa2b3" d="M 287.5,413.5 C 278.859,414.832 269.859,415.498 260.5,415.5C 251.327,415.5 242.327,415.166 233.5,414.5C 251.577,414.819 269.577,414.486 287.5,413.5 Z"/></g>
<g><path style="opacity:1" fill="#69879d" d="M 775.5,367.5 C 775.5,384.167 775.5,400.833 775.5,417.5C 768.313,417.825 761.313,417.491 754.5,416.5C 761.167,416.5 767.833,416.5 774.5,416.5C 774.17,399.991 774.504,383.658 775.5,367.5 Z"/></g>
<g><path style="opacity:1" fill="#69879d" d="M 796.5,367.5 C 797.496,383.658 797.83,399.991 797.5,416.5C 804.167,416.5 810.833,416.5 817.5,416.5C 810.687,417.491 803.687,417.825 796.5,417.5C 796.5,400.833 796.5,384.167 796.5,367.5 Z"/></g>
<g><path style="opacity:1" fill="#5c7d95" d="M 875.5,402.5 C 876.487,407.305 876.821,412.305 876.5,417.5C 860.658,417.83 844.991,417.496 829.5,416.5C 844.833,416.5 860.167,416.5 875.5,416.5C 875.5,411.833 875.5,407.167 875.5,402.5 Z"/></g>
<g><path style="opacity:1" fill="#53768f" d="M 1050.5,414.5 C 1056.41,416.456 1062.75,417.123 1069.5,416.5C 1063.02,417.491 1056.35,417.824 1049.5,417.5C 1049.26,416.209 1049.6,415.209 1050.5,414.5 Z"/></g>
<g><path style="opacity:1" fill="#fdfdfe" d="M 740.5,582.5 C 825.902,579.301 890.069,614.301 933,687.5C 937.381,695.809 940.881,704.475 943.5,713.5C 1028.02,719.991 1087.18,761.991 1121,839.5C 1146.16,913.361 1134.16,980.361 1085,1040.5C 1076.45,1049.39 1067.62,1057.89 1058.5,1066C 1077.43,1149.21 1054.76,1218.54 990.5,1274C 929.404,1318.39 863.404,1327.39 792.5,1301C 781.146,1295.66 770.146,1289.83 759.5,1283.5C 688.703,1327.06 617.037,1328.56 544.5,1288C 477.833,1243.16 447,1180.33 452,1099.5C 453.435,1088.36 455.601,1077.36 458.5,1066.5C 394.374,1010.62 371.541,940.953 390,857.5C 410.041,794.125 450.875,749.958 512.5,725C 532.018,718.593 552.018,714.593 572.5,713C 599.161,645.338 647.827,603.004 718.5,586C 726.003,584.994 733.336,583.827 740.5,582.5 Z"/></g>
<g><path style="opacity:1" fill="#19486a" d="M 743.5,622.5 C 802.552,619.451 850.052,641.118 886,687.5C 891.879,696.755 897.379,706.255 902.5,716C 837.275,730.083 789.275,766.583 758.5,825.5C 727.741,766.591 679.741,730.091 614.5,716C 640.821,661.849 683.821,630.683 743.5,622.5 Z"/></g>
<g><path style="opacity:1" fill="#19486a" d="M 556.5,754.5 C 558.5,754.5 560.5,754.5 562.5,754.5C 556.385,821.004 577.052,877.504 624.5,924C 558.323,934.492 508.49,968.659 475,1026.5C 440.986,995.119 423.819,956.119 423.5,909.5C 426.119,844.751 456.119,797.584 513.5,768C 527.416,761.748 541.749,757.248 556.5,754.5 Z"/></g>
<g><path style="opacity:1" fill="#19486a" d="M 954.5,754.5 C 1020.21,764.712 1064.37,801.045 1087,863.5C 1101.79,918.027 1091.79,967.36 1057,1011.5C 1052.32,1016.35 1047.49,1021.02 1042.5,1025.5C 1009.16,968.048 959.49,933.881 893.5,923C 939.849,876.469 960.182,820.302 954.5,754.5 Z"/></g>
<g><path style="opacity:1" fill="#1a486a" d="M 603.5,755.5 C 669.024,767.854 711.858,805.854 732,869.5C 737.774,890.923 738.941,912.59 735.5,934.5C 679.975,924.471 639.808,894.138 615,843.5C 602.658,815.255 598.825,785.922 603.5,755.5 Z"/></g>
<g><path style="opacity:1" fill="#1a486a" d="M 908.5,755.5 C 910.467,755.261 912.301,755.594 914,756.5C 920.333,820.978 897.5,872.144 845.5,910C 826.161,922.392 805.161,930.558 782.5,934.5C 774.052,867.978 797.385,815.812 852.5,778C 869.914,767.254 888.581,759.754 908.5,755.5 Z"/></g>
<g><path style="opacity:1" fill="#1a486a" d="M 859.5,961.5 C 925.556,961.479 975.056,989.813 1008,1046.5C 1008.78,1047.94 1008.61,1049.28 1007.5,1050.5C 947.581,1077.97 891.248,1072.13 838.5,1033C 820.797,1018.41 806.797,1000.91 796.5,980.5C 805.148,975.014 814.481,970.847 824.5,968C 836.115,964.752 847.781,962.585 859.5,961.5 Z"/></g>
<g><path style="opacity:1" fill="#1a486a" d="M 630.5,963.5 C 661.714,960.693 691.214,966.36 719,980.5C 719.52,982.289 719.187,983.956 718,985.5C 683.005,1043.25 631.505,1070.42 563.5,1067C 544.523,1064.62 526.523,1059.12 509.5,1050.5C 508.417,1049.64 508.251,1048.64 509,1047.5C 536.01,999.99 576.51,971.99 630.5,963.5 Z"/></g>
<g><path style="opacity:1" fill="#1a486a" d="M 756.5,1008.5 C 763.812,1013.65 769.979,1019.98 775,1027.5C 808.42,1075.54 814.42,1126.87 793,1181.5C 785.095,1200.37 773.761,1216.71 759,1230.5C 727.744,1199.95 711.91,1162.62 711.5,1118.5C 712.184,1075.82 727.184,1039.15 756.5,1008.5 Z"/></g>
<g><path style="opacity:1" fill="#19486a" d="M 673.5,1083.5 C 664.579,1149.07 682.246,1206.4 726.5,1255.5C 680.631,1281.64 633.297,1284.47 584.5,1264C 531.41,1238.23 500.576,1196.06 492,1137.5C 490.826,1121.54 491.66,1105.71 494.5,1090C 494.833,1089.5 495.167,1089 495.5,1088.5C 548.646,1112.62 602.312,1113.79 656.5,1092C 662.506,1089.66 668.173,1086.83 673.5,1083.5 Z"/></g>
<g><path style="opacity:1" fill="#19486a" d="M 842.5,1083.5 C 901.146,1113.63 960.646,1115.29 1021,1088.5C 1032,1146.5 1015.83,1196 972.5,1237C 925.638,1274.89 873.304,1284.89 815.5,1267C 807.863,1263.68 800.363,1260.18 793,1256.5C 792.333,1255.5 792.333,1254.5 793,1253.5C 835.992,1204.81 852.492,1148.14 842.5,1083.5 Z"/></g>
</svg>
