<?xml version="1.0" encoding="UTF-8"?>
<!DOCTYPE svg PUBLIC "-//W3C//DTD SVG 1.1//EN" "http://www.w3.org/Graphics/SVG/1.1/DTD/svg11.dtd">
<svg xmlns="http://www.w3.org/2000/svg" version="1.1" width="1500px" height="1500px" style="shape-rendering:geometricPrecision; text-rendering:geometricPrecision; image-rendering:optimizeQuality; fill-rule:evenodd; clip-rule:evenodd" xmlns:xlink="http://www.w3.org/1999/xlink">
<g><path style="opacity:1" fill="#c5192d" d="M -0.5,-0.5 C 499.5,-0.5 999.5,-0.5 1499.5,-0.5C 1499.5,499.5 1499.5,999.5 1499.5,1499.5C 999.5,1499.5 499.5,1499.5 -0.5,1499.5C -0.5,999.5 -0.5,499.5 -0.5,-0.5 Z"/></g>
<g><path style="opacity:1" fill="#fefbfb" d="M 413.5,126.5 C 422.748,125.882 431.748,127.049 440.5,130C 447.785,134.96 452.285,141.793 454,150.5C 454.667,171.5 454.667,192.5 454,213.5C 452.783,223.456 447.95,230.956 439.5,236C 442.667,239.167 445.833,242.333 449,245.5C 449.298,250.504 448.131,255.171 445.5,259.5C 437.356,254.523 430.69,248.023 425.5,240C 407.29,240.502 396.123,232.002 392,214.5C 391.053,191.458 391.386,168.458 393,145.5C 396.596,135.627 403.429,129.294 413.5,126.5 Z"/></g>
<g><path style="opacity:1" fill="#f0c5ca" d="M 754.5,127.5 C 754.5,127.833 754.5,128.167 754.5,128.5C 736.167,128.5 717.833,128.5 699.5,128.5C 699.5,133.167 699.5,137.833 699.5,142.5C 698.513,137.695 698.179,132.695 698.5,127.5C 717.167,127.5 735.833,127.5 754.5,127.5 Z"/></g>
<g><path style="opacity:1" fill="#fefefe" d="M 186.5,128.5 C 206.833,128.5 227.167,128.5 247.5,128.5C 247.168,187.669 247.501,246.669 248.5,305.5C 257.833,305.5 267.167,305.5 276.5,305.5C 276.5,319.167 276.5,332.833 276.5,346.5C 267.167,346.5 257.833,346.5 248.5,346.5C 248.5,369.167 248.5,391.833 248.5,414.5C 231.833,414.5 215.167,414.5 198.5,414.5C 198.5,391.833 198.5,369.167 198.5,346.5C 169.833,346.5 141.167,346.5 112.5,346.5C 112.333,331.496 112.5,316.496 113,301.5C 137.515,243.807 162.015,186.141 186.5,128.5 Z"/></g>
<g><path style="opacity:1" fill="#eeb9bf" d="M 186.5,128.5 C 206.993,127.503 227.66,127.169 248.5,127.5C 248.5,186.833 248.5,246.167 248.5,305.5C 247.501,246.669 247.168,187.669 247.5,128.5C 227.167,128.5 206.833,128.5 186.5,128.5 Z"/></g>
<g><path style="opacity:1" fill="#fefdfd" d="M 509.5,208.5 C 510.498,182.005 510.831,155.339 510.5,128.5C 516.5,128.5 522.5,128.5 528.5,128.5C 528.5,155.167 528.5,181.833 528.5,208.5C 528.681,228.653 518.681,238.986 498.5,239.5C 480.302,239.464 470.135,230.464 468,212.5C 467.5,184.169 467.333,155.835 467.5,127.5C 473.833,127.5 480.167,127.5 486.5,127.5C 486.333,153.169 486.5,178.835 487,204.5C 487.303,208.894 487.97,213.227 489,217.5C 491.919,223.025 496.419,224.858 502.5,223C 507.782,219.682 510.116,214.848 509.5,208.5 Z"/></g>
<g><path style="opacity:1" fill="#f0c5ca" d="M 528.5,208.5 C 528.5,181.833 528.5,155.167 528.5,128.5C 522.5,128.5 516.5,128.5 510.5,128.5C 510.831,155.339 510.498,182.005 509.5,208.5C 509.5,181.5 509.5,154.5 509.5,127.5C 516.167,127.5 522.833,127.5 529.5,127.5C 529.831,154.672 529.498,181.672 528.5,208.5 Z"/></g>
<g><path style="opacity:1" fill="#fefafb" d="M 560.5,127.5 C 567.755,127.187 574.921,127.52 582,128.5C 589.107,164.869 596.274,201.202 603.5,237.5C 597.167,237.5 590.833,237.5 584.5,237.5C 583.707,229.073 582.373,220.74 580.5,212.5C 574.167,212.5 567.833,212.5 561.5,212.5C 560.491,220.89 559.157,229.223 557.5,237.5C 551.167,237.5 544.833,237.5 538.5,237.5C 545.961,200.861 553.294,164.195 560.5,127.5 Z"/></g>
<g><path style="opacity:1" fill="#edb4ba" d="M 634.5,223.5 C 633.502,192.004 633.168,160.338 633.5,128.5C 627.167,128.5 620.833,128.5 614.5,128.5C 614.5,164.833 614.5,201.167 614.5,237.5C 613.502,201.004 613.168,164.337 613.5,127.5C 620.5,127.5 627.5,127.5 634.5,127.5C 634.5,159.5 634.5,191.5 634.5,223.5 Z"/></g>
<g><path style="opacity:1" fill="#fefefe" d="M 634.5,223.5 C 642.65,224.493 650.983,224.826 659.5,224.5C 659.5,228.833 659.5,233.167 659.5,237.5C 644.5,237.5 629.5,237.5 614.5,237.5C 614.5,201.167 614.5,164.833 614.5,128.5C 620.833,128.5 627.167,128.5 633.5,128.5C 633.168,160.338 633.502,192.004 634.5,223.5 Z"/></g>
<g><path style="opacity:1" fill="#fefefe" d="M 670.5,127.5 C 677.167,127.5 683.833,127.5 690.5,127.5C 690.5,164.167 690.5,200.833 690.5,237.5C 683.833,237.5 677.167,237.5 670.5,237.5C 670.5,200.833 670.5,164.167 670.5,127.5 Z"/></g>
<g><path style="opacity:1" fill="#fefdfd" d="M 754.5,128.5 C 754.5,133.167 754.5,137.833 754.5,142.5C 748.833,142.5 743.167,142.5 737.5,142.5C 737.5,174.167 737.5,205.833 737.5,237.5C 730.833,237.5 724.167,237.5 717.5,237.5C 717.5,205.833 717.5,174.167 717.5,142.5C 711.5,142.5 705.5,142.5 699.5,142.5C 699.5,137.833 699.5,133.167 699.5,128.5C 717.833,128.5 736.167,128.5 754.5,128.5 Z"/></g>
<g><path style="opacity:1" fill="#e08791" d="M 754.5,127.5 C 755.167,127.5 755.833,127.5 756.5,127.5C 756.5,128.167 756.5,128.833 756.5,129.5C 755.833,133.833 755.167,138.167 754.5,142.5C 754.5,137.833 754.5,133.167 754.5,128.5C 754.5,128.167 754.5,127.833 754.5,127.5 Z"/></g>
<g><path style="opacity:1" fill="#fefcfc" d="M 756.5,127.5 C 762.758,127.19 768.924,127.524 775,128.5C 779.535,142.439 783.869,156.439 788,170.5C 792.339,156.472 796.672,142.472 801,128.5C 807.111,127.191 813.278,127.191 819.5,128.5C 812.234,150.463 805.068,172.463 798,194.5C 797.5,208.829 797.333,223.163 797.5,237.5C 791.167,237.5 784.833,237.5 778.5,237.5C 778.667,223.163 778.5,208.829 778,194.5C 770.721,172.831 763.555,151.164 756.5,129.5C 756.5,128.833 756.5,128.167 756.5,127.5 Z"/></g>
<g><path style="opacity:1" fill="#c51d2f" d="M 418.5,141.5 C 424.898,140.053 429.731,142.053 433,147.5C 433.667,170.5 433.667,193.5 433,216.5C 431.466,221.689 427.966,224.023 422.5,223.5C 415.993,223.497 412.493,220.163 412,213.5C 411.333,192.833 411.333,172.167 412,151.5C 412.435,146.945 414.602,143.611 418.5,141.5 Z"/></g>
<g><path style="opacity:1" fill="#c62232" d="M 570.5,158.5 C 571.222,158.918 571.722,159.584 572,160.5C 574.228,173.036 576.395,185.536 578.5,198C 573.845,198.499 569.179,198.666 564.5,198.5C 566.5,185.169 568.5,171.836 570.5,158.5 Z"/></g>
<g><path style="opacity:1" fill="#c51b2e" d="M 197.5,185.5 C 198.499,225.33 198.832,265.33 198.5,305.5C 184.167,305.5 169.833,305.5 155.5,305.5C 169.48,265.53 183.48,225.53 197.5,185.5 Z"/></g>
<g><path style="opacity:1" fill="#f0c5ca" d="M 634.5,223.5 C 643.167,223.5 651.833,223.5 660.5,223.5C 660.819,228.363 660.486,233.03 659.5,237.5C 659.5,233.167 659.5,228.833 659.5,224.5C 650.983,224.826 642.65,224.493 634.5,223.5 Z"/></g>
<g><path style="opacity:1" fill="#fefbfb" d="M 658.5,329.5 C 658.5,335.167 658.5,340.833 658.5,346.5C 652.167,346.5 645.833,346.5 639.5,346.5C 639.929,339.053 639.429,331.719 638,324.5C 633.8,320.286 628.966,319.452 623.5,322C 621.383,323.731 619.883,325.898 619,328.5C 618.333,349.5 618.333,370.5 619,391.5C 618.796,398.793 622.296,402.793 629.5,403.5C 634.242,403.22 637.408,400.887 639,396.5C 639.5,389.508 639.666,382.508 639.5,375.5C 646.167,375.5 652.833,375.5 659.5,375.5C 659.536,382.868 659.036,390.201 658,397.5C 655.608,409.891 648.108,416.724 635.5,418C 615.107,420.911 602.941,412.411 599,392.5C 597.049,371.171 597.049,349.837 599,328.5C 601.869,316.298 609.369,308.798 621.5,306C 633.501,303.661 644.001,306.494 653,314.5C 656.518,318.886 658.351,323.886 658.5,329.5 Z"/></g>
<g><path style="opacity:1" fill="#fefbfb" d="M 852.5,305.5 C 862.766,304.326 872.432,306.159 881.5,311C 887.197,315.892 890.697,322.059 892,329.5C 892.935,352.203 892.602,374.87 891,397.5C 887.649,410.092 879.482,416.925 866.5,418C 846.696,420.868 834.53,412.701 830,393.5C 829.333,371.833 829.333,350.167 830,328.5C 833.042,316.293 840.542,308.626 852.5,305.5 Z"/></g>
<g><path style="opacity:1" fill="#fefdfd" d="M 393.5,307.5 C 408.5,307.5 423.5,307.5 438.5,307.5C 438.5,311.833 438.5,316.167 438.5,320.5C 429.983,320.174 421.65,320.507 413.5,321.5C 413.5,331.833 413.5,342.167 413.5,352.5C 420.167,352.5 426.833,352.5 433.5,352.5C 433.5,357.167 433.5,361.833 433.5,366.5C 426.833,366.5 420.167,366.5 413.5,366.5C 413.5,378.5 413.5,390.5 413.5,402.5C 422.167,402.5 430.833,402.5 439.5,402.5C 439.5,407.167 439.5,411.833 439.5,416.5C 424.167,416.5 408.833,416.5 393.5,416.5C 393.5,380.167 393.5,343.833 393.5,307.5 Z"/></g>
<g><path style="opacity:1" fill="#fefbfc" d="M 450.5,307.5 C 462.838,307.333 475.171,307.5 487.5,308C 499.883,310.05 507.383,317.216 510,329.5C 510.667,350.167 510.667,370.833 510,391.5C 508.481,404.749 501.314,412.916 488.5,416C 475.838,416.5 463.171,416.667 450.5,416.5C 450.5,380.167 450.5,343.833 450.5,307.5 Z"/></g>
<g><path style="opacity:1" fill="#fefdfd" d="M 565.5,385.5 C 566.498,359.672 566.831,333.672 566.5,307.5C 572.5,307.5 578.5,307.5 584.5,307.5C 584.5,333.833 584.5,360.167 584.5,386.5C 583.927,411.221 571.26,421.721 546.5,418C 532.094,414.585 524.594,405.419 524,390.5C 523.5,362.835 523.333,335.169 523.5,307.5C 529.833,307.5 536.167,307.5 542.5,307.5C 542.333,333.835 542.5,360.169 543,386.5C 542.992,392.696 545.158,397.863 549.5,402C 561.585,403.413 566.919,397.913 565.5,385.5 Z"/></g>
<g><path style="opacity:1" fill="#efbec4" d="M 584.5,386.5 C 584.5,360.167 584.5,333.833 584.5,307.5C 578.5,307.5 572.5,307.5 566.5,307.5C 566.831,333.672 566.498,359.672 565.5,385.5C 565.5,359.167 565.5,332.833 565.5,306.5C 572.167,306.5 578.833,306.5 585.5,306.5C 585.831,333.339 585.498,360.005 584.5,386.5 Z"/></g>
<g><path style="opacity:1" fill="#fefbfb" d="M 731.5,415.5 C 725.69,416.49 719.69,416.823 713.5,416.5C 711.215,408.449 709.881,400.116 709.5,391.5C 702.833,391.5 696.167,391.5 689.5,391.5C 688.585,399.908 687.252,408.241 685.5,416.5C 679.167,416.5 672.833,416.5 666.5,416.5C 673.705,379.809 681.038,343.142 688.5,306.5C 695.755,306.187 702.921,306.52 710,307.5C 717.275,343.485 724.442,379.485 731.5,415.5 Z"/></g>
<g><path style="opacity:1" fill="#fef9f9" d="M 730.5,307.5 C 749.167,307.5 767.833,307.5 786.5,307.5C 786.5,312.167 786.5,316.833 786.5,321.5C 780.833,321.5 775.167,321.5 769.5,321.5C 769.5,353.167 769.5,384.833 769.5,416.5C 762.5,416.5 755.5,416.5 748.5,416.5C 748.5,384.833 748.5,353.167 748.5,321.5C 742.5,321.5 736.5,321.5 730.5,321.5C 730.5,316.833 730.5,312.167 730.5,307.5 Z"/></g>
<g><path style="opacity:1" fill="#fefffe" d="M 795.5,307.5 C 801.833,307.5 808.167,307.5 814.5,307.5C 814.5,343.833 814.5,380.167 814.5,416.5C 808.167,416.5 801.833,416.5 795.5,416.5C 795.5,380.167 795.5,343.833 795.5,307.5 Z"/></g>
<g><path style="opacity:1" fill="#fefefe" d="M 945.5,365.5 C 945.783,366.289 946.283,366.956 947,367.5C 947.5,347.503 947.667,327.503 947.5,307.5C 952.833,307.5 958.167,307.5 963.5,307.5C 963.5,343.833 963.5,380.167 963.5,416.5C 958.901,416.8 954.401,416.467 950,415.5C 941.333,394.833 932.667,374.167 924,353.5C 923.5,374.497 923.333,395.497 923.5,416.5C 917.833,416.5 912.167,416.5 906.5,416.5C 906.5,380.167 906.5,343.833 906.5,307.5C 911.43,307.197 916.263,307.531 921,308.5C 929.179,327.521 937.346,346.521 945.5,365.5 Z"/></g>
<g><path style="opacity:1" fill="#e18b95" d="M 947.5,307.5 C 947.667,327.503 947.5,347.503 947,367.5C 946.283,366.956 945.783,366.289 945.5,365.5C 946.167,346.167 946.833,326.833 947.5,307.5 Z"/></g>
<g><path style="opacity:1" fill="#ecb1b7" d="M 393.5,307.5 C 408.658,306.504 423.991,306.17 439.5,306.5C 439.5,311.5 439.5,316.5 439.5,321.5C 430.833,321.5 422.167,321.5 413.5,321.5C 421.65,320.507 429.983,320.174 438.5,320.5C 438.5,316.167 438.5,311.833 438.5,307.5C 423.5,307.5 408.5,307.5 393.5,307.5 Z"/></g>
<g><path style="opacity:1" fill="#c51a2d" d="M 470.5,321.5 C 475.248,321.275 479.915,321.775 484.5,323C 486,323.833 487.167,325 488,326.5C 489.136,338.433 489.636,350.433 489.5,362.5C 489.333,373.5 489.167,384.5 489,395.5C 487.859,397.609 486.359,399.442 484.5,401C 479.934,402.309 475.267,402.809 470.5,402.5C 470.5,375.5 470.5,348.5 470.5,321.5 Z"/></g>
<g><path style="opacity:1" fill="#c61f30" d="M 856.5,320.5 C 862.801,319.314 867.634,321.314 871,326.5C 871.667,349.5 871.667,372.5 871,395.5C 869.715,400.909 866.215,403.575 860.5,403.5C 854.259,403.093 850.759,399.759 850,393.5C 849.333,372.5 849.333,351.5 850,330.5C 850.435,325.945 852.602,322.611 856.5,320.5 Z"/></g>
<g><path style="opacity:1" fill="#c72635" d="M 698.5,334.5 C 701.577,348.951 704.244,363.617 706.5,378.5C 701.833,378.5 697.167,378.5 692.5,378.5C 694.934,363.895 696.934,349.228 698.5,334.5 Z"/></g>
<g><path style="opacity:1" fill="#e597a0" d="M 658.5,329.5 C 659.49,335.31 659.823,341.31 659.5,347.5C 652.646,347.824 645.979,347.491 639.5,346.5C 645.833,346.5 652.167,346.5 658.5,346.5C 658.5,340.833 658.5,335.167 658.5,329.5 Z"/></g>
<g><path style="opacity:1" fill="#d35261" d="M 731.5,415.5 C 732.043,415.56 732.376,415.893 732.5,416.5C 726.012,417.817 719.678,417.817 713.5,416.5C 719.69,416.823 725.69,416.49 731.5,415.5 Z"/></g>
<g><path style="opacity:1" fill="#fefefe" d="M 1140.5,602.5 C 1159.93,600.951 1172.77,609.285 1179,627.5C 1179.5,641.496 1179.67,655.496 1179.5,669.5C 1158.17,669.5 1136.83,669.5 1115.5,669.5C 1115.05,654.095 1115.55,638.762 1117,623.5C 1121.6,612.73 1129.43,605.73 1140.5,602.5 Z"/></g>
<g><path style="opacity:1" fill="#fefbfb" d="M 362.5,647.5 C 363.167,825.5 363.833,1003.5 364.5,1181.5C 461.783,1208.66 559.116,1235.82 656.5,1263C 669.786,1264.57 683.119,1264.9 696.5,1264C 795.943,1232.13 895.276,1199.96 994.5,1167.5C 995.333,993.834 995.833,820.168 996,646.5C 1005.67,654.167 1015.33,661.833 1025,669.5C 1025.83,842.501 1025.67,1015.5 1024.5,1188.5C 915.37,1222.53 806.37,1257.03 697.5,1292C 685.5,1292.67 673.5,1292.67 661.5,1292C 552.515,1262.34 443.681,1232.17 335,1201.5C 334.333,1024.17 334.333,846.833 335,669.5C 344.33,662.333 353.497,655 362.5,647.5 Z"/></g>
<g><path style="opacity:1" fill="#f0c5ca" d="M 362.5,647.5 C 362.56,646.957 362.893,646.624 363.5,646.5C 364.5,824.832 364.833,1003.17 364.5,1181.5C 363.833,1003.5 363.167,825.5 362.5,647.5 Z"/></g>
<g><path style="opacity:1" fill="#fefefe" d="M 392.5,647.5 C 482.779,699.273 572.945,751.273 663,803.5C 663.5,947.5 663.667,1091.5 663.5,1235.5C 573.121,1208.66 482.788,1181.66 392.5,1154.5C 392.5,985.5 392.5,816.5 392.5,647.5 Z"/></g>
<g><path style="opacity:1" fill="#fefefe" d="M 965.5,647.5 C 966.5,816.333 966.833,985.333 966.5,1154.5C 875.555,1181.65 784.555,1208.65 693.5,1235.5C 693.167,1091.83 693.5,948.165 694.5,804.5C 785.131,752.503 875.465,700.169 965.5,647.5 Z"/></g>
<g><path style="opacity:1" fill="#fefefe" d="M 1115.5,694.5 C 1136.83,694.5 1158.17,694.5 1179.5,694.5C 1179.67,845.167 1179.5,995.834 1179,1146.5C 1168.79,1183.03 1158.12,1219.36 1147,1255.5C 1136.67,1219.5 1126.33,1183.5 1116,1147.5C 1115.5,996.5 1115.33,845.5 1115.5,694.5 Z"/></g>
</svg>
