<?xml version="1.0" encoding="UTF-8"?>
<!DOCTYPE svg PUBLIC "-//W3C//DTD SVG 1.1//EN" "http://www.w3.org/Graphics/SVG/1.1/DTD/svg11.dtd">
<svg xmlns="http://www.w3.org/2000/svg" version="1.1" width="1500px" height="1500px" style="shape-rendering:geometricPrecision; text-rendering:geometricPrecision; image-rendering:optimizeQuality; fill-rule:evenodd; clip-rule:evenodd" xmlns:xlink="http://www.w3.org/1999/xlink">
<g><path style="opacity:1" fill="#ff3a21" d="M -0.5,-0.5 C 499.5,-0.5 999.5,-0.5 1499.5,-0.5C 1499.5,499.5 1499.5,999.5 1499.5,1499.5C 999.5,1499.5 499.5,1499.5 -0.5,1499.5C -0.5,999.5 -0.5,499.5 -0.5,-0.5 Z"/></g>
<g><path style="opacity:1" fill="#fffcfc" d="M 452.5,151.5 C 452.5,155.5 452.5,159.5 452.5,163.5C 446.5,163.5 440.5,163.5 434.5,163.5C 434.81,160.287 434.477,157.287 433.5,154.5C 433.681,144.245 428.681,140.078 418.5,142C 416,143.167 414.167,145 413,147.5C 411.367,169.103 411.033,190.769 412,212.5C 414.155,223.162 420.322,226.329 430.5,222C 432.563,219.489 434.063,216.656 435,213.5C 435.499,207.509 435.666,201.509 435.5,195.5C 431.5,195.5 427.5,195.5 423.5,195.5C 423.5,190.833 423.5,186.167 423.5,181.5C 433.5,181.5 443.5,181.5 453.5,181.5C 453.5,200.167 453.5,218.833 453.5,237.5C 449.116,237.826 444.783,237.492 440.5,236.5C 439.756,233.557 439.256,230.557 439,227.5C 436.235,233.931 431.402,237.764 424.5,239C 408.151,241.079 397.651,234.246 393,218.5C 391.91,206.035 391.41,193.535 391.5,181C 391.377,169.446 391.877,157.946 393,146.5C 399.316,130.254 411.149,123.754 428.5,127C 443.423,128.423 451.423,136.589 452.5,151.5 Z"/></g>
<g><path style="opacity:1" fill="#ffb7ad" d="M 692.5,142.5 C 700.65,141.507 708.983,141.174 717.5,141.5C 717.5,137.167 717.5,132.833 717.5,128.5C 702.5,128.5 687.5,128.5 672.5,128.5C 672.5,164.833 672.5,201.167 672.5,237.5C 671.502,201.004 671.168,164.337 671.5,127.5C 687.167,127.5 702.833,127.5 718.5,127.5C 718.5,132.5 718.5,137.5 718.5,142.5C 709.833,142.5 701.167,142.5 692.5,142.5 Z"/></g>
<g><path style="opacity:1" fill="#fffdfd" d="M 119.5,332.5 C 137.167,332.5 154.833,332.5 172.5,332.5C 172.19,335.713 172.523,338.713 173.5,341.5C 173.396,351.546 175.23,361.212 179,370.5C 181.087,374.302 184.254,376.802 188.5,378C 200.684,381.019 209.184,376.852 214,365.5C 216.793,357.415 218.126,349.082 218,340.5C 218.667,327.833 218.667,315.167 218,302.5C 217.715,292.783 215.715,283.45 212,274.5C 205.782,266.492 197.616,263.658 187.5,266C 177.111,271.091 171.111,279.424 169.5,291C 153.837,291.5 138.17,291.667 122.5,291.5C 123.613,237.167 124.78,182.833 126,128.5C 170.094,127.503 214.261,127.17 258.5,127.5C 258.5,143.5 258.5,159.5 258.5,175.5C 229.5,175.5 200.5,175.5 171.5,175.5C 170.067,196.151 169.234,216.817 169,237.5C 180.488,228.282 193.655,223.949 208.5,224.5C 234.773,223.937 252.606,235.937 262,260.5C 268.128,277.975 270.961,295.975 270.5,314.5C 270.593,335.167 268.093,355.501 263,375.5C 254.008,401.491 235.842,415.991 208.5,419C 192.987,420.339 177.654,419.339 162.5,416C 138.76,407.574 125.26,390.741 122,365.5C 120.132,354.577 119.299,343.577 119.5,332.5 Z"/></g>
<g><path style="opacity:1" fill="#ffcbc4" d="M 488.5,142.5 C 496.65,141.507 504.983,141.174 513.5,141.5C 513.5,137.167 513.5,132.833 513.5,128.5C 498.5,128.5 483.5,128.5 468.5,128.5C 468.5,164.833 468.5,201.167 468.5,237.5C 467.502,201.004 467.168,164.337 467.5,127.5C 483.167,127.5 498.833,127.5 514.5,127.5C 514.5,132.5 514.5,137.5 514.5,142.5C 505.833,142.5 497.167,142.5 488.5,142.5 Z"/></g>
<g><path style="opacity:1" fill="#fffcfc" d="M 488.5,142.5 C 488.5,152.833 488.5,163.167 488.5,173.5C 495.167,173.5 501.833,173.5 508.5,173.5C 508.5,178.167 508.5,182.833 508.5,187.5C 501.833,187.5 495.167,187.5 488.5,187.5C 488.5,199.5 488.5,211.5 488.5,223.5C 496.65,224.493 504.983,224.826 513.5,224.5C 513.5,228.833 513.5,233.167 513.5,237.5C 498.5,237.5 483.5,237.5 468.5,237.5C 468.5,201.167 468.5,164.833 468.5,128.5C 483.5,128.5 498.5,128.5 513.5,128.5C 513.5,132.833 513.5,137.167 513.5,141.5C 504.983,141.174 496.65,141.507 488.5,142.5 Z"/></g>
<g><path style="opacity:1" fill="#ffcdc7" d="M 539.5,128.5 C 534.833,128.5 530.167,128.5 525.5,128.5C 525.5,164.833 525.5,201.167 525.5,237.5C 524.502,201.004 524.168,164.337 524.5,127.5C 529.695,127.179 534.695,127.513 539.5,128.5 Z"/></g>
<g><path style="opacity:1" fill="#fffefe" d="M 539.5,128.5 C 547.712,148.594 556.212,168.594 565,188.5C 565.5,168.503 565.667,148.503 565.5,128.5C 570.833,128.5 576.167,128.5 581.5,128.5C 581.5,164.833 581.5,201.167 581.5,237.5C 577.116,237.826 572.783,237.492 568.5,236.5C 559.878,216.259 551.544,195.926 543.5,175.5C 543.217,174.711 542.717,174.044 542,173.5C 541.5,194.831 541.333,216.164 541.5,237.5C 536.167,237.5 530.833,237.5 525.5,237.5C 525.5,201.167 525.5,164.833 525.5,128.5C 530.167,128.5 534.833,128.5 539.5,128.5 Z"/></g>
<g><path style="opacity:1" fill="#ffcdc7" d="M 565.5,128.5 C 570.975,127.511 576.642,127.178 582.5,127.5C 582.832,164.337 582.498,201.004 581.5,237.5C 581.5,201.167 581.5,164.833 581.5,128.5C 576.167,128.5 570.833,128.5 565.5,128.5 Z"/></g>
<g><path style="opacity:1" fill="#ffccc5" d="M 632.5,128.5 C 621.167,128.5 609.833,128.5 598.5,128.5C 598.5,164.833 598.5,201.167 598.5,237.5C 597.502,201.004 597.168,164.337 597.5,127.5C 609.345,127.172 621.012,127.505 632.5,128.5 Z"/></g>
<g><path style="opacity:1" fill="#fffbfa" d="M 632.5,128.5 C 645.207,129.046 653.373,135.379 657,147.5C 658.581,168.133 658.915,188.8 658,209.5C 657.762,219.141 653.929,226.975 646.5,233C 643.911,234.197 641.244,235.197 638.5,236C 625.218,237.403 611.885,237.903 598.5,237.5C 598.5,201.167 598.5,164.833 598.5,128.5C 609.833,128.5 621.167,128.5 632.5,128.5 Z"/></g>
<g><path style="opacity:1" fill="#fffdfd" d="M 692.5,142.5 C 692.5,152.833 692.5,163.167 692.5,173.5C 699.167,173.5 705.833,173.5 712.5,173.5C 712.5,178.167 712.5,182.833 712.5,187.5C 705.833,187.5 699.167,187.5 692.5,187.5C 692.5,199.5 692.5,211.5 692.5,223.5C 701.167,223.5 709.833,223.5 718.5,223.5C 718.5,228.167 718.5,232.833 718.5,237.5C 703.167,237.5 687.833,237.5 672.5,237.5C 672.5,201.167 672.5,164.833 672.5,128.5C 687.5,128.5 702.5,128.5 717.5,128.5C 717.5,132.833 717.5,137.167 717.5,141.5C 708.983,141.174 700.65,141.507 692.5,142.5 Z"/></g>
<g><path style="opacity:1" fill="#ffa498" d="M 761.5,128.5 C 750.833,128.5 740.167,128.5 729.5,128.5C 729.5,164.833 729.5,201.167 729.5,237.5C 728.502,201.004 728.168,164.337 728.5,127.5C 739.679,127.172 750.679,127.505 761.5,128.5 Z"/></g>
<g><path style="opacity:1" fill="#fffcfc" d="M 761.5,128.5 C 779.877,128.877 789.21,138.21 789.5,156.5C 789.604,163.551 788.104,170.217 785,176.5C 782.1,179.4 779.267,182.233 776.5,185C 781.404,201.786 786.071,218.619 790.5,235.5C 784.588,237.456 778.255,238.123 771.5,237.5C 766.565,221.097 762.231,204.43 758.5,187.5C 755.5,187.5 752.5,187.5 749.5,187.5C 749.5,204.167 749.5,220.833 749.5,237.5C 742.833,237.5 736.167,237.5 729.5,237.5C 729.5,201.167 729.5,164.833 729.5,128.5C 740.167,128.5 750.833,128.5 761.5,128.5 Z"/></g>
<g><path style="opacity:1" fill="#ff3a21" d="M 618.5,142.5 C 623.248,142.275 627.915,142.775 632.5,144C 634.378,145.543 635.878,147.376 637,149.5C 637.167,160.167 637.333,170.833 637.5,181.5C 637.625,193.554 637.125,205.554 636,217.5C 635.167,219.667 633.667,221.167 631.5,222C 627.249,223.195 622.915,223.695 618.5,223.5C 618.5,196.5 618.5,169.5 618.5,142.5 Z"/></g>
<g><path style="opacity:1" fill="#ff3c23" d="M 749.5,141.5 C 767.049,140.204 773.549,148.204 769,165.5C 768.071,170.219 765.237,173.052 760.5,174C 756.848,174.499 753.182,174.665 749.5,174.5C 749.5,163.5 749.5,152.5 749.5,141.5 Z"/></g>
<g><path style="opacity:1" fill="#ffbfb7" d="M 452.5,151.5 C 453.485,155.634 453.818,159.968 453.5,164.5C 446.833,164.5 440.167,164.5 433.5,164.5C 433.5,161.167 433.5,157.833 433.5,154.5C 434.477,157.287 434.81,160.287 434.5,163.5C 440.5,163.5 446.5,163.5 452.5,163.5C 452.5,159.5 452.5,155.5 452.5,151.5 Z"/></g>
<g><path style="opacity:1" fill="#ff9d90" d="M 543.5,175.5 C 542.833,196.167 542.167,216.833 541.5,237.5C 541.333,216.164 541.5,194.831 542,173.5C 542.717,174.044 543.217,174.711 543.5,175.5 Z"/></g>
<g><path style="opacity:1" fill="#ffccc6" d="M 488.5,223.5 C 497.167,223.5 505.833,223.5 514.5,223.5C 514.819,228.363 514.486,233.03 513.5,237.5C 513.5,233.167 513.5,228.833 513.5,224.5C 504.983,224.826 496.65,224.493 488.5,223.5 Z"/></g>
<g><path style="opacity:1" fill="#ff6e5c" d="M 790.5,235.5 C 791.404,236.209 791.737,237.209 791.5,238.5C 784.646,238.824 777.979,238.491 771.5,237.5C 778.255,238.123 784.588,237.456 790.5,235.5 Z"/></g>
<g><path style="opacity:1" fill="#fffdfc" d="M 471.5,305.5 C 481.766,304.326 491.432,306.159 500.5,311C 504.877,315.043 508.044,319.876 510,325.5C 511.611,347.458 511.945,369.458 511,391.5C 510.067,401.888 505.234,409.721 496.5,415C 499.667,418.167 502.833,421.333 506,424.5C 505.834,428.853 505.167,433.187 504,437.5C 503.586,437.957 503.086,438.291 502.5,438.5C 494.356,433.523 487.69,427.023 482.5,419C 470.157,419.676 460.323,415.176 453,405.5C 451.601,402.637 450.601,399.637 450,396.5C 448.387,373.876 448.054,351.209 449,328.5C 452.024,316.311 459.524,308.644 471.5,305.5 Z"/></g>
<g><path style="opacity:1" fill="#ff9b8d" d="M 755.5,307.5 C 780.833,306.167 806.167,306.167 831.5,307.5C 825.31,307.177 819.31,307.51 813.5,308.5C 812.833,312.833 812.167,317.167 811.5,321.5C 811.5,316.833 811.5,312.167 811.5,307.5C 792.833,307.5 774.167,307.5 755.5,307.5 Z"/></g>
<g><path style="opacity:1" fill="#fff9f8" d="M 393.5,307.5 C 408.5,307.5 423.5,307.5 438.5,307.5C 438.5,311.833 438.5,316.167 438.5,320.5C 429.983,320.174 421.65,320.507 413.5,321.5C 413.5,331.833 413.5,342.167 413.5,352.5C 420.167,352.5 426.833,352.5 433.5,352.5C 433.5,357.5 433.5,362.5 433.5,367.5C 426.833,367.5 420.167,367.5 413.5,367.5C 413.5,379.167 413.5,390.833 413.5,402.5C 422.167,402.5 430.833,402.5 439.5,402.5C 439.5,407.167 439.5,411.833 439.5,416.5C 423.833,416.5 408.167,416.5 392.5,416.5C 392.168,379.996 392.502,343.663 393.5,307.5 Z"/></g>
<g><path style="opacity:1" fill="#fffdfd" d="M 524.5,307.5 C 530.833,307.5 537.167,307.5 543.5,307.5C 543.169,334.672 543.502,361.672 544.5,388.5C 544.603,399.448 549.936,403.948 560.5,402C 564.334,398.338 566.334,393.838 566.5,388.5C 567.498,361.672 567.831,334.672 567.5,307.5C 573.833,307.5 580.167,307.5 586.5,307.5C 586.952,337.536 586.452,367.536 585,397.5C 580.92,412.395 571.086,419.395 555.5,418.5C 539.931,419.417 530.098,412.417 526,397.5C 524.548,367.536 524.048,337.536 524.5,307.5 Z"/></g>
<g><path style="opacity:1" fill="#ffc5be" d="M 524.5,307.5 C 530.979,306.509 537.646,306.176 544.5,306.5C 544.5,333.833 544.5,361.167 544.5,388.5C 543.502,361.672 543.169,334.672 543.5,307.5C 537.167,307.5 530.833,307.5 524.5,307.5 Z"/></g>
<g><path style="opacity:1" fill="#ffc5be" d="M 586.5,307.5 C 580.167,307.5 573.833,307.5 567.5,307.5C 567.831,334.672 567.498,361.672 566.5,388.5C 566.5,361.167 566.5,333.833 566.5,306.5C 573.354,306.176 580.021,306.509 586.5,307.5 Z"/></g>
<g><path style="opacity:1" fill="#fffbfa" d="M 660.5,415.5 C 654.69,416.49 648.69,416.823 642.5,416.5C 640.658,408.657 638.991,400.657 637.5,392.5C 631.202,391.504 624.868,391.17 618.5,391.5C 617.425,399.875 616.092,408.208 614.5,416.5C 608.167,416.5 601.833,416.5 595.5,416.5C 602.83,379.843 610.164,343.177 617.5,306.5C 624.755,306.187 631.921,306.52 639,307.5C 646.122,343.528 653.289,379.528 660.5,415.5 Z"/></g>
<g><path style="opacity:1" fill="#ffc7c0" d="M 690.5,307.5 C 684.167,307.5 677.833,307.5 671.5,307.5C 671.5,343.833 671.5,380.167 671.5,416.5C 670.502,380.004 670.168,343.337 670.5,306.5C 677.354,306.176 684.021,306.509 690.5,307.5 Z"/></g>
<g><path style="opacity:1" fill="#fffbfa" d="M 690.5,307.5 C 691.498,338.996 691.832,370.662 691.5,402.5C 699.65,403.493 707.983,403.826 716.5,403.5C 716.5,407.833 716.5,412.167 716.5,416.5C 701.5,416.5 686.5,416.5 671.5,416.5C 671.5,380.167 671.5,343.833 671.5,307.5C 677.833,307.5 684.167,307.5 690.5,307.5 Z"/></g>
<g><path style="opacity:1" fill="#fffefd" d="M 727.5,306.5 C 734.167,306.5 740.833,306.5 747.5,306.5C 747.5,343.167 747.5,379.833 747.5,416.5C 740.833,416.5 734.167,416.5 727.5,416.5C 727.5,379.833 727.5,343.167 727.5,306.5 Z"/></g>
<g><path style="opacity:1" fill="#fff8f7" d="M 755.5,307.5 C 774.167,307.5 792.833,307.5 811.5,307.5C 811.5,312.167 811.5,316.833 811.5,321.5C 806.025,322.489 800.358,322.822 794.5,322.5C 794.5,353.833 794.5,385.167 794.5,416.5C 787.5,416.5 780.5,416.5 773.5,416.5C 773.5,385.167 773.5,353.833 773.5,322.5C 767.5,322.5 761.5,322.5 755.5,322.5C 755.5,317.5 755.5,312.5 755.5,307.5 Z"/></g>
<g><path style="opacity:1" fill="#fffcfc" d="M 813.5,308.5 C 819.31,307.51 825.31,307.177 831.5,307.5C 836.461,321.221 840.961,335.221 845,349.5C 849.336,335.489 853.669,321.489 858,307.5C 864.076,306.524 870.242,306.19 876.5,306.5C 869.444,328.835 862.278,351.168 855,373.5C 854.5,387.829 854.333,402.163 854.5,416.5C 848.167,416.5 841.833,416.5 835.5,416.5C 835.667,402.163 835.5,387.829 835,373.5C 827.718,351.82 820.551,330.153 813.5,308.5 Z"/></g>
<g><path style="opacity:1" fill="#ffbcb3" d="M 393.5,307.5 C 408.658,306.504 423.991,306.17 439.5,306.5C 439.5,311.5 439.5,316.5 439.5,321.5C 430.833,321.5 422.167,321.5 413.5,321.5C 421.65,320.507 429.983,320.174 438.5,320.5C 438.5,316.167 438.5,311.833 438.5,307.5C 423.5,307.5 408.5,307.5 393.5,307.5 Z"/></g>
<g><path style="opacity:1" fill="#ff4027" d="M 475.5,320.5 C 483.271,319.295 488.438,322.295 491,329.5C 491.667,350.5 491.667,371.5 491,392.5C 490.197,395.244 489.197,397.911 488,400.5C 482.882,403.999 477.715,404.165 472.5,401C 470.947,398.345 469.78,395.512 469,392.5C 468.333,371.5 468.333,350.5 469,329.5C 469.873,325.475 472.039,322.475 475.5,320.5 Z"/></g>
<g><path style="opacity:1" fill="#ffc7bf" d="M 119.5,332.5 C 137.326,331.503 155.326,331.17 173.5,331.5C 173.5,334.833 173.5,338.167 173.5,341.5C 172.523,338.713 172.19,335.713 172.5,332.5C 154.833,332.5 137.167,332.5 119.5,332.5 Z"/></g>
<g><path style="opacity:1" fill="#ff4228" d="M 634.5,373.5 C 634.5,374.833 634.5,376.167 634.5,377.5C 630.167,377.5 625.833,377.5 621.5,377.5C 623.232,363.775 625.398,350.109 628,336.5C 630.815,348.72 632.981,361.054 634.5,373.5 Z"/></g>
<g><path style="opacity:1" fill="#ff7260" d="M 634.5,373.5 C 635.451,374.919 635.784,376.585 635.5,378.5C 630.637,378.819 625.97,378.486 621.5,377.5C 625.833,377.5 630.167,377.5 634.5,377.5C 634.5,376.167 634.5,374.833 634.5,373.5 Z"/></g>
<g><path style="opacity:1" fill="#ffccc6" d="M 691.5,402.5 C 700.167,402.5 708.833,402.5 717.5,402.5C 717.819,407.363 717.486,412.03 716.5,416.5C 716.5,412.167 716.5,407.833 716.5,403.5C 707.983,403.826 699.65,403.493 691.5,402.5 Z"/></g>
<g><path style="opacity:1" fill="#ff6957" d="M 660.5,415.5 C 661.043,415.56 661.376,415.893 661.5,416.5C 655.012,417.817 648.678,417.817 642.5,416.5C 648.69,416.823 654.69,416.49 660.5,415.5 Z"/></g>
<g><path style="opacity:1" fill="#fffefd" d="M 1030.5,757.5 C 1030.83,733.824 1030.5,710.157 1029.5,686.5C 1028.89,686.624 1028.56,686.957 1028.5,687.5C 1001.85,714.479 975.188,741.479 948.5,768.5C 995.637,838.829 1005.47,914.163 978,994.5C 952.62,1060.21 907.786,1107.38 843.5,1136C 825.314,1143.23 806.647,1148.73 787.5,1152.5C 786.502,1176.66 786.169,1200.99 786.5,1225.5C 811.5,1225.5 836.5,1225.5 861.5,1225.5C 862.117,1225.61 862.617,1225.94 863,1226.5C 863.827,1250.07 863.66,1273.57 862.5,1297C 837.502,1297.5 812.502,1297.67 787.5,1297.5C 787.667,1321.17 787.5,1344.84 787,1368.5C 786.5,1369 786,1369.5 785.5,1370C 762.5,1370.67 739.5,1370.67 716.5,1370C 716,1369.5 715.5,1369 715,1368.5C 714.5,1344.84 714.333,1321.17 714.5,1297.5C 689.498,1297.67 664.498,1297.5 639.5,1297C 638.34,1273.57 638.173,1250.07 639,1226.5C 639.383,1225.94 639.883,1225.61 640.5,1225.5C 665.5,1225.5 690.5,1225.5 715.5,1225.5C 715.831,1201.33 715.498,1177.33 714.5,1153.5C 621.387,1137.87 555.887,1086.87 518,1000.5C 486.231,913.033 497.898,832.033 553,757.5C 615.19,683.647 694.357,653.48 790.5,667C 830.413,674.796 866.413,690.963 898.5,715.5C 925.986,688.514 953.32,661.347 980.5,634C 955.5,633.667 930.5,633.333 905.5,633C 904.34,610.906 904.173,588.739 905,566.5C 936.929,565.835 968.929,565.502 1001,565.5C 1033.07,565.502 1065.07,565.835 1097,566.5C 1097.67,630.167 1097.67,693.833 1097,757.5C 1074.74,758.831 1052.57,758.831 1030.5,757.5 Z"/></g>
<g><path style="opacity:1" fill="#ffcdc7" d="M 1028.5,687.5 C 1028.56,686.957 1028.89,686.624 1029.5,686.5C 1030.5,710.157 1030.83,733.824 1030.5,757.5C 1029.83,734.167 1029.17,710.833 1028.5,687.5 Z"/></g>
<g><path style="opacity:1" fill="#ff3a21" d="M 731.5,728.5 C 805.845,725.916 863.012,755.583 903,817.5C 935.321,877.957 935.655,938.623 904,999.5C 860.367,1068.06 797.867,1097.56 716.5,1088C 657.977,1076.45 614.477,1044.61 586,992.5C 564.972,949.484 560.639,904.817 573,858.5C 593.073,797.427 633.573,756.594 694.5,736C 706.79,732.672 719.123,730.172 731.5,728.5 Z"/></g>
<g><path style="opacity:1" fill="#fffcfc" d="M 636.5,834.5 C 710.501,834.333 784.501,834.5 858.5,835C 859,835.5 859.5,836 860,836.5C 860.825,855.074 860.659,873.574 859.5,892C 784.834,892.5 710.167,892.667 635.5,892.5C 635.18,873.091 635.513,853.757 636.5,834.5 Z"/></g>
<g><path style="opacity:1" fill="#fffcfc" d="M 636.5,929.5 C 710.501,929.333 784.501,929.5 858.5,930C 859,930.5 859.5,931 860,931.5C 860.825,950.074 860.659,968.574 859.5,987C 784.834,987.5 710.167,987.667 635.5,987.5C 635.18,968.091 635.513,948.757 636.5,929.5 Z"/></g>
<g><path style="opacity:1" fill="#ff7c6a" d="M 714.5,1153.5 C 715.498,1177.33 715.831,1201.33 715.5,1225.5C 690.5,1225.5 665.5,1225.5 640.5,1225.5C 664.994,1224.5 689.661,1224.17 714.5,1224.5C 714.5,1200.83 714.5,1177.17 714.5,1153.5 Z"/></g>
<g><path style="opacity:1" fill="#ff7c6b" d="M 787.5,1152.5 C 787.5,1176.5 787.5,1200.5 787.5,1224.5C 812.339,1224.17 837.006,1224.5 861.5,1225.5C 836.5,1225.5 811.5,1225.5 786.5,1225.5C 786.169,1200.99 786.502,1176.66 787.5,1152.5 Z"/></g>
</svg>
