<?xml version="1.0" encoding="UTF-8"?>
<!DOCTYPE svg PUBLIC "-//W3C//DTD SVG 1.1//EN" "http://www.w3.org/Graphics/SVG/1.1/DTD/svg11.dtd">
<svg xmlns="http://www.w3.org/2000/svg" version="1.1" width="1500px" height="1500px" style="shape-rendering:geometricPrecision; text-rendering:geometricPrecision; image-rendering:optimizeQuality; fill-rule:evenodd; clip-rule:evenodd" xmlns:xlink="http://www.w3.org/1999/xlink">
<g><path style="opacity:1" fill="#a21942" d="M -0.5,-0.5 C 499.5,-0.5 999.5,-0.5 1499.5,-0.5C 1499.5,499.5 1499.5,999.5 1499.5,1499.5C 999.5,1499.5 499.5,1499.5 -0.5,1499.5C -0.5,999.5 -0.5,499.5 -0.5,-0.5 Z"/></g>
<g><path style="opacity:1" fill="#fefefe" d="M 177.5,124.5 C 240.102,121.27 268.602,150.937 263,213.5C 260.73,234.214 251.564,251.047 235.5,264C 251.832,273.676 261.998,287.843 266,306.5C 269.623,327.237 269.289,347.904 265,368.5C 256.227,399.606 235.727,416.439 203.5,419C 187.798,420.604 172.465,418.938 157.5,414C 140.605,406.772 128.772,394.605 122,377.5C 115.828,356.616 113.828,335.283 116,313.5C 119.093,292.119 129.593,275.619 147.5,264C 127.92,247.002 118.587,225.502 119.5,199.5C 118.487,158.444 137.82,133.444 177.5,124.5 Z"/></g>
<g><path style="opacity:1" fill="#fefcfc" d="M 560.5,151.5 C 560.5,156.833 560.5,162.167 560.5,167.5C 554.167,167.5 547.833,167.5 541.5,167.5C 541.929,160.053 541.429,152.719 540,145.5C 533.708,139.952 527.708,140.285 522,146.5C 521.667,148.5 521.333,150.5 521,152.5C 520.333,172.833 520.333,193.167 521,213.5C 522.354,222.603 527.521,225.769 536.5,223C 538,222.167 539.167,221 540,219.5C 541.432,211.946 541.932,204.279 541.5,196.5C 548.167,196.5 554.833,196.5 561.5,196.5C 563.891,232.627 547.891,245.46 513.5,235C 505.87,229.914 501.703,222.747 501,213.5C 500.333,192.167 500.333,170.833 501,149.5C 506.302,131.251 518.469,123.751 537.5,127C 551.876,128.876 559.543,137.042 560.5,151.5 Z"/></g>
<g><path style="opacity:1" fill="#fdfbfc" d="M 893.5,126.5 C 904.276,125.421 914.276,127.587 923.5,133C 929.38,139.293 932.546,146.793 933,155.5C 933.667,173.5 933.667,191.5 933,209.5C 932.745,224.892 925.245,234.392 910.5,238C 890.375,242.997 877.208,235.831 871,216.5C 869.429,195.197 869.096,173.863 870,152.5C 871.853,138.158 879.686,129.491 893.5,126.5 Z"/></g>
<g><path style="opacity:1" fill="#e7c5cf" d="M 743.5,142.5 C 743.5,137.833 743.5,133.167 743.5,128.5C 725.167,128.5 706.833,128.5 688.5,128.5C 688.5,133.167 688.5,137.833 688.5,142.5C 688.167,142.5 687.833,142.5 687.5,142.5C 687.5,137.5 687.5,132.5 687.5,127.5C 706.5,127.5 725.5,127.5 744.5,127.5C 744.821,132.695 744.487,137.695 743.5,142.5 Z"/></g>
<g><path style="opacity:1" fill="#e6c1cc" d="M 775.5,128.5 C 780.975,127.511 786.642,127.178 792.5,127.5C 792.5,128.833 792.5,130.167 792.5,131.5C 791.596,130.791 791.263,129.791 791.5,128.5C 786.167,128.5 780.833,128.5 775.5,128.5 Z"/></g>
<g><path style="opacity:1" fill="#e6c2cd" d="M 1057.5,128.5 C 1063.68,127.183 1070.01,127.183 1076.5,128.5C 1076.38,129.107 1076.04,129.44 1075.5,129.5C 1069.69,128.51 1063.69,128.177 1057.5,128.5 Z"/></g>
<g><path style="opacity:1" fill="#e5c0cb" d="M 1151.5,129.5 C 1144.17,128.167 1136.83,128.167 1129.5,129.5C 1132.77,128.178 1136.43,127.511 1140.5,127.5C 1144.57,127.511 1148.23,128.178 1151.5,129.5 Z"/></g>
<g><path style="opacity:1" fill="#fefdfe" d="M 376.5,127.5 C 387.505,127.333 398.505,127.5 409.5,128C 423.94,128.447 432.773,135.614 436,149.5C 436.667,170.5 436.667,191.5 436,212.5C 434.5,227.333 426.333,235.5 411.5,237C 399.838,237.5 388.171,237.667 376.5,237.5C 376.5,200.833 376.5,164.167 376.5,127.5 Z"/></g>
<g><path style="opacity:1" fill="#e7c5cf" d="M 493.5,128.5 C 478.5,128.5 463.5,128.5 448.5,128.5C 448.5,164.833 448.5,201.167 448.5,237.5C 447.502,201.004 447.168,164.337 447.5,127.5C 463.009,127.17 478.342,127.504 493.5,128.5 Z"/></g>
<g><path style="opacity:1" fill="#fefefe" d="M 493.5,128.5 C 493.5,133.167 493.5,137.833 493.5,142.5C 484.833,142.5 476.167,142.5 467.5,142.5C 467.5,152.833 467.5,163.167 467.5,173.5C 474.5,173.5 481.5,173.5 488.5,173.5C 488.5,178.167 488.5,182.833 488.5,187.5C 481.5,187.5 474.5,187.5 467.5,187.5C 467.172,199.678 467.505,211.678 468.5,223.5C 476.65,224.493 484.983,224.826 493.5,224.5C 493.5,228.833 493.5,233.167 493.5,237.5C 478.5,237.5 463.5,237.5 448.5,237.5C 448.5,201.167 448.5,164.833 448.5,128.5C 463.5,128.5 478.5,128.5 493.5,128.5 Z"/></g>
<g><path style="opacity:1" fill="#fefdfd" d="M 571.5,127.5 C 586.833,127.5 602.167,127.5 617.5,127.5C 617.5,132.5 617.5,137.5 617.5,142.5C 608.833,142.5 600.167,142.5 591.5,142.5C 591.5,152.833 591.5,163.167 591.5,173.5C 598.167,173.5 604.833,173.5 611.5,173.5C 611.5,178.167 611.5,182.833 611.5,187.5C 604.833,187.5 598.167,187.5 591.5,187.5C 591.5,199.5 591.5,211.5 591.5,223.5C 600.167,223.5 608.833,223.5 617.5,223.5C 617.5,228.167 617.5,232.833 617.5,237.5C 602.167,237.5 586.833,237.5 571.5,237.5C 571.5,200.833 571.5,164.167 571.5,127.5 Z"/></g>
<g><path style="opacity:1" fill="#fefdfe" d="M 664.5,186.5 C 664.783,187.289 665.283,187.956 666,188.5C 666.5,168.169 666.667,147.836 666.5,127.5C 671.833,127.5 677.167,127.5 682.5,127.5C 682.5,164.167 682.5,200.833 682.5,237.5C 677.901,237.8 673.401,237.467 669,236.5C 660.818,216.808 652.651,197.141 644.5,177.5C 644.013,176.527 643.513,175.527 643,174.5C 642.5,195.497 642.333,216.497 642.5,237.5C 636.833,237.5 631.167,237.5 625.5,237.5C 625.5,200.833 625.5,164.167 625.5,127.5C 630.43,127.197 635.263,127.531 640,128.5C 648.27,147.817 656.437,167.15 664.5,186.5 Z"/></g>
<g><path style="opacity:1" fill="#d18ca0" d="M 666.5,127.5 C 666.667,147.836 666.5,168.169 666,188.5C 665.283,187.956 664.783,187.289 664.5,186.5C 665.167,166.833 665.833,147.167 666.5,127.5 Z"/></g>
<g><path style="opacity:1" fill="#fefffe" d="M 743.5,142.5 C 737.833,142.5 732.167,142.5 726.5,142.5C 726.5,174.167 726.5,205.833 726.5,237.5C 719.833,237.5 713.167,237.5 706.5,237.5C 706.5,205.833 706.5,174.167 706.5,142.5C 700.5,142.5 694.5,142.5 688.5,142.5C 688.5,137.833 688.5,133.167 688.5,128.5C 706.833,128.5 725.167,128.5 743.5,128.5C 743.5,133.167 743.5,137.833 743.5,142.5 Z"/></g>
<g><path style="opacity:1" fill="#fdfcfc" d="M 775.5,128.5 C 780.833,128.5 786.167,128.5 791.5,128.5C 791.263,129.791 791.596,130.791 792.5,131.5C 795.17,152.857 798.003,174.19 801,195.5C 804.449,173.472 808.116,151.472 812,129.5C 816.518,127.593 821.352,126.926 826.5,127.5C 829.729,150.602 833.562,173.602 838,196.5C 840.918,173.492 843.751,150.492 846.5,127.5C 852.206,127.171 857.872,127.505 863.5,128.5C 858.009,164.106 852.842,199.773 848,235.5C 842.803,237.42 837.303,238.087 831.5,237.5C 828.207,214.257 824.04,191.257 819,168.5C 814.735,191.426 810.901,214.426 807.5,237.5C 801.833,237.5 796.167,237.5 790.5,237.5C 785.593,201.154 780.593,164.821 775.5,128.5 Z"/></g>
<g><path style="opacity:1" fill="#d495a8" d="M 976.5,128.5 C 965.833,128.5 955.167,128.5 944.5,128.5C 944.5,164.833 944.5,201.167 944.5,237.5C 943.502,201.004 943.168,164.337 943.5,127.5C 954.679,127.172 965.679,127.505 976.5,128.5 Z"/></g>
<g><path style="opacity:1" fill="#fefcfc" d="M 976.5,128.5 C 991.436,128.194 1000.6,135.194 1004,149.5C 1006.92,164.043 1002.75,175.877 991.5,185C 996.124,202.465 1001.12,219.798 1006.5,237C 999.508,237.5 992.508,237.666 985.5,237.5C 981.5,220.833 977.5,204.167 973.5,187.5C 970.5,187.5 967.5,187.5 964.5,187.5C 964.5,204.167 964.5,220.833 964.5,237.5C 957.833,237.5 951.167,237.5 944.5,237.5C 944.5,201.167 944.5,164.833 944.5,128.5C 955.167,128.5 965.833,128.5 976.5,128.5 Z"/></g>
<g><path style="opacity:1" fill="#fefdfd" d="M 1035.5,127.5 C 1035.33,143.17 1035.5,158.837 1036,174.5C 1036.51,173.473 1037.01,172.473 1037.5,171.5C 1043.8,156.919 1050.46,142.586 1057.5,128.5C 1063.69,128.177 1069.69,128.51 1075.5,129.5C 1068.98,145.37 1062.32,161.203 1055.5,177C 1062.87,196.951 1070.54,216.784 1078.5,236.5C 1071.61,237.811 1064.78,237.811 1058,236.5C 1052,219.833 1046,203.167 1040,186.5C 1038.67,188.5 1037.33,190.5 1036,192.5C 1035.5,207.496 1035.33,222.496 1035.5,237.5C 1028.83,237.5 1022.17,237.5 1015.5,237.5C 1015.5,200.833 1015.5,164.167 1015.5,127.5C 1022.17,127.5 1028.83,127.5 1035.5,127.5 Z"/></g>
<g><path style="opacity:1" fill="#b95472" d="M 1035.5,127.5 C 1036.17,142.167 1036.83,156.833 1037.5,171.5C 1037.01,172.473 1036.51,173.473 1036,174.5C 1035.5,158.837 1035.33,143.17 1035.5,127.5 Z"/></g>
<g><path style="opacity:1" fill="#fefcfc" d="M 1151.5,129.5 C 1158.32,165.269 1165.65,200.936 1173.5,236.5C 1167.2,237.496 1160.87,237.83 1154.5,237.5C 1152.75,229.244 1151.42,220.911 1150.5,212.5C 1143.83,212.5 1137.17,212.5 1130.5,212.5C 1129.37,220.822 1128.37,229.155 1127.5,237.5C 1120.83,237.666 1114.16,237.5 1107.5,237C 1115.28,201.275 1122.61,165.442 1129.5,129.5C 1136.83,128.167 1144.17,128.167 1151.5,129.5 Z"/></g>
<g><path style="opacity:1" fill="#fefefe" d="M 1219.5,187.5 C 1219.56,188.043 1219.89,188.376 1220.5,188.5C 1221.5,168.511 1221.83,148.511 1221.5,128.5C 1226.83,128.5 1232.17,128.5 1237.5,128.5C 1237.5,164.833 1237.5,201.167 1237.5,237.5C 1232.9,237.8 1228.4,237.467 1224,236.5C 1215.33,215.833 1206.67,195.167 1198,174.5C 1197.5,195.497 1197.33,216.497 1197.5,237.5C 1191.83,237.5 1186.17,237.5 1180.5,237.5C 1180.5,200.833 1180.5,164.167 1180.5,127.5C 1185.21,127.173 1189.88,127.507 1194.5,128.5C 1203.13,148.083 1211.46,167.75 1219.5,187.5 Z"/></g>
<g><path style="opacity:1" fill="#e7c5cf" d="M 1237.5,128.5 C 1232.17,128.5 1226.83,128.5 1221.5,128.5C 1221.83,148.511 1221.5,168.511 1220.5,188.5C 1219.89,188.376 1219.56,188.043 1219.5,187.5C 1220.5,167.674 1220.83,147.674 1220.5,127.5C 1226.36,127.178 1232.02,127.511 1237.5,128.5 Z"/></g>
<g><path style="opacity:1" fill="#fefdfe" d="M 1250.5,127.5 C 1261.51,127.333 1272.51,127.5 1283.5,128C 1297.98,128.46 1306.81,135.626 1310,149.5C 1310.67,170.5 1310.67,191.5 1310,212.5C 1308.49,227.343 1300.32,235.509 1285.5,237C 1273.84,237.5 1262.17,237.667 1250.5,237.5C 1250.5,200.833 1250.5,164.167 1250.5,127.5 Z"/></g>
<g><path style="opacity:1" fill="#a21b43" d="M 896.5,141.5 C 904.077,139.87 909.244,142.536 912,149.5C 912.667,171.167 912.667,192.833 912,214.5C 911.415,220.92 907.915,223.92 901.5,223.5C 896.072,224.037 892.572,221.704 891,216.5C 890.333,193.833 890.333,171.167 891,148.5C 891.967,145.379 893.8,143.046 896.5,141.5 Z"/></g>
<g><path style="opacity:1" fill="#a31d44" d="M 396.5,142.5 C 400.846,142.334 405.179,142.501 409.5,143C 413.165,144.668 415.332,147.501 416,151.5C 416.906,173.197 416.573,194.863 415,216.5C 414.315,219.057 412.815,220.891 410.5,222C 405.934,223.309 401.267,223.809 396.5,223.5C 396.5,196.5 396.5,169.5 396.5,142.5 Z"/></g>
<g><path style="opacity:1" fill="#a31f45" d="M 964.5,141.5 C 978.036,139.022 985.036,144.522 985.5,158C 985.041,171.583 978.041,177.083 964.5,174.5C 964.5,163.5 964.5,152.5 964.5,141.5 Z"/></g>
<g><path style="opacity:1" fill="#a31d44" d="M 1270.5,142.5 C 1274.85,142.334 1279.18,142.501 1283.5,143C 1287.17,144.668 1289.33,147.501 1290,151.5C 1290.17,161.5 1290.33,171.5 1290.5,181.5C 1290.61,193.213 1290.11,204.879 1289,216.5C 1287.88,218.624 1286.38,220.457 1284.5,222C 1279.91,223.225 1275.25,223.725 1270.5,223.5C 1270.5,196.5 1270.5,169.5 1270.5,142.5 Z"/></g>
<g><path style="opacity:1" fill="#b95371" d="M 687.5,142.5 C 687.833,142.5 688.167,142.5 688.5,142.5C 694.5,142.5 700.5,142.5 706.5,142.5C 706.5,174.167 706.5,205.833 706.5,237.5C 705.502,206.338 705.168,175.004 705.5,143.5C 699.31,143.823 693.31,143.49 687.5,142.5 Z"/></g>
<g><path style="opacity:1" fill="#a82b4c" d="M 1140.5,157.5 C 1143.32,171.283 1145.65,185.283 1147.5,199.5C 1142.83,199.5 1138.17,199.5 1133.5,199.5C 1135.4,185.421 1137.74,171.421 1140.5,157.5 Z"/></g>
<g><path style="opacity:1" fill="#a21c43" d="M 187.5,165.5 C 201.256,165.083 209.089,171.749 211,185.5C 211.667,195.5 211.667,205.5 211,215.5C 210.605,225.368 207.105,233.868 200.5,241C 188.205,245.771 179.705,241.938 175,229.5C 171.252,213.98 170.586,198.313 173,182.5C 175.225,174.453 180.058,168.787 187.5,165.5 Z"/></g>
<g><path style="opacity:1" fill="#d698aa" d="M 560.5,151.5 C 561.489,156.975 561.822,162.642 561.5,168.5C 554.646,168.824 547.979,168.491 541.5,167.5C 547.833,167.5 554.167,167.5 560.5,167.5C 560.5,162.167 560.5,156.833 560.5,151.5 Z"/></g>
<g><path style="opacity:1" fill="#b95371" d="M 644.5,177.5 C 643.833,197.5 643.167,217.5 642.5,237.5C 642.333,216.497 642.5,195.497 643,174.5C 643.513,175.527 644.013,176.527 644.5,177.5 Z"/></g>
<g><path style="opacity:1" fill="#e7c4cf" d="M 468.5,223.5 C 477.167,223.5 485.833,223.5 494.5,223.5C 494.819,228.363 494.486,233.03 493.5,237.5C 493.5,233.167 493.5,228.833 493.5,224.5C 484.983,224.826 476.65,224.493 468.5,223.5 Z"/></g>
<g><path style="opacity:1" fill="#a31d44" d="M 185.5,288.5 C 201.202,286.262 210.369,292.929 213,308.5C 216.896,327.351 216.229,346.018 211,364.5C 205.519,376.656 196.352,380.823 183.5,377C 176.254,373.034 172.087,366.868 171,358.5C 167.388,340.412 167.722,322.412 172,304.5C 173.859,296.817 178.359,291.484 185.5,288.5 Z"/></g>
<g><path style="opacity:1" fill="#fdfbfb" d="M 452.5,305.5 C 481.732,303.566 494.399,317.233 490.5,346.5C 484.167,346.5 477.833,346.5 471.5,346.5C 471.884,339.411 471.384,332.411 470,325.5C 465.727,320.197 460.561,319.197 454.5,322.5C 453.139,324.028 451.972,325.695 451,327.5C 450.333,350.167 450.333,372.833 451,395.5C 455.282,404.437 461.282,405.77 469,399.5C 469.862,397.913 470.529,396.246 471,394.5C 471.5,388.175 471.666,381.842 471.5,375.5C 477.833,375.5 484.167,375.5 490.5,375.5C 493.503,412.345 477.503,425.178 442.5,414C 435.114,408.403 430.947,400.903 430,391.5C 429.068,369.796 429.402,348.13 431,326.5C 434.097,315.235 441.264,308.235 452.5,305.5 Z"/></g>
<g><path style="opacity:1" fill="#fdfbfb" d="M 523.5,305.5 C 534.33,304.165 544.33,306.332 553.5,312C 558.99,318.456 562.157,325.956 563,334.5C 563.94,354.877 563.606,375.21 562,395.5C 558.933,408.567 550.767,416.067 537.5,418C 515.872,421.017 503.372,411.85 500,390.5C 499.333,370.833 499.333,351.167 500,331.5C 501.811,317.197 509.644,308.53 523.5,305.5 Z"/></g>
<g><path style="opacity:1" fill="#fdfafb" d="M 667.5,305.5 C 676.928,304.56 685.928,306.06 694.5,310C 701.602,315.359 705.768,322.525 707,331.5C 707.667,351.167 707.667,370.833 707,390.5C 705.634,406.462 697.134,415.629 681.5,418C 660.095,420.888 647.595,411.721 644,390.5C 643.333,371.833 643.333,353.167 644,334.5C 644.778,318.873 652.611,309.206 667.5,305.5 Z"/></g>
<g><path style="opacity:1" fill="#fefcfc" d="M 864.5,305.5 C 893.589,303.597 906.256,317.263 902.5,346.5C 895.833,346.5 889.167,346.5 882.5,346.5C 882.929,339.053 882.429,331.719 881,324.5C 876.8,320.286 871.966,319.452 866.5,322C 865.213,323.41 864.046,324.91 863,326.5C 861.367,348.103 861.033,369.769 862,391.5C 863.674,402.42 869.508,405.586 879.5,401C 880.46,399.581 881.293,398.081 882,396.5C 882.997,389.533 883.497,382.533 883.5,375.5C 889.833,375.5 896.167,375.5 902.5,375.5C 904.038,387.587 901.871,398.92 896,409.5C 887.257,417.121 877.09,419.955 865.5,418C 851.01,415.172 843.177,406.338 842,391.5C 841.333,370.833 841.333,350.167 842,329.5C 844.606,316.732 852.106,308.732 864.5,305.5 Z"/></g>
<g><path style="opacity:1" fill="#fdfbfc" d="M 974.5,361.5 C 984.167,361.5 993.833,361.5 1003.5,361.5C 1003.5,379.833 1003.5,398.167 1003.5,416.5C 999.167,416.5 994.833,416.5 990.5,416.5C 990.875,413.603 990.375,410.937 989,408.5C 984.653,415.508 978.32,418.841 970,418.5C 957.872,418.367 949.539,412.7 945,401.5C 943.842,397.203 942.842,392.869 942,388.5C 941.089,368.466 941.422,348.466 943,328.5C 945.292,315.208 953.125,307.708 966.5,306C 993.675,303.675 1006.01,316.175 1003.5,343.5C 997.167,343.5 990.833,343.5 984.5,343.5C 984.804,337.423 984.304,331.423 983,325.5C 977.256,319.39 971.256,319.056 965,324.5C 964.333,325.833 963.667,327.167 963,328.5C 962.042,351.217 962.376,373.884 964,396.5C 965.554,400.874 968.721,403.208 973.5,403.5C 979.301,403.016 983.135,400.016 985,394.5C 986.305,387.874 986.638,381.208 986,374.5C 982.27,373.54 978.437,373.207 974.5,373.5C 974.5,369.5 974.5,365.5 974.5,361.5 Z"/></g>
<g><path style="opacity:1" fill="#fefdfd" d="M 1110.5,305.5 C 1120.77,304.325 1130.44,306.159 1139.5,311C 1146.12,317.415 1149.62,325.249 1150,334.5C 1150.91,355.2 1150.58,375.867 1149,396.5C 1146.13,409.707 1137.96,416.874 1124.5,418C 1105.19,420.986 1093.02,413.153 1088,394.5C 1087.04,371.117 1087.37,347.783 1089,324.5C 1092.82,314.346 1099.99,308.012 1110.5,305.5 Z"/></g>
<g><path style="opacity:1" fill="#ce859b" d="M 1230.5,307.5 C 1235.98,306.511 1241.64,306.178 1247.5,306.5C 1247.74,307.791 1247.4,308.791 1246.5,309.5C 1241.6,307.554 1236.27,306.887 1230.5,307.5 Z"/></g>
<g><path style="opacity:1" fill="#fefefe" d="M 376.5,307.5 C 391.833,307.5 407.167,307.5 422.5,307.5C 422.5,312.167 422.5,316.833 422.5,321.5C 413.833,321.5 405.167,321.5 396.5,321.5C 396.5,331.833 396.5,342.167 396.5,352.5C 403.167,352.5 409.833,352.5 416.5,352.5C 416.5,357.167 416.5,361.833 416.5,366.5C 409.833,366.5 403.167,366.5 396.5,366.5C 396.5,378.5 396.5,390.5 396.5,402.5C 405.167,402.5 413.833,402.5 422.5,402.5C 422.5,407.167 422.5,411.833 422.5,416.5C 407.167,416.5 391.833,416.5 376.5,416.5C 376.5,380.167 376.5,343.833 376.5,307.5 Z"/></g>
<g><path style="opacity:1" fill="#e5bfca" d="M 588.5,307.5 C 584.167,307.5 579.833,307.5 575.5,307.5C 575.5,343.833 575.5,380.167 575.5,416.5C 574.502,380.004 574.168,343.337 574.5,306.5C 579.363,306.181 584.03,306.514 588.5,307.5 Z"/></g>
<g><path style="opacity:1" fill="#fefefe" d="M 588.5,307.5 C 597.558,327.293 606.391,347.293 615,367.5C 615.5,347.503 615.667,327.503 615.5,307.5C 620.833,307.5 626.167,307.5 631.5,307.5C 631.5,343.833 631.5,380.167 631.5,416.5C 627.116,416.826 622.783,416.492 618.5,415.5C 610.152,395.474 601.818,375.474 593.5,355.5C 593.013,354.527 592.513,353.527 592,352.5C 591.5,373.831 591.333,395.164 591.5,416.5C 586.167,416.5 580.833,416.5 575.5,416.5C 575.5,380.167 575.5,343.833 575.5,307.5C 579.833,307.5 584.167,307.5 588.5,307.5 Z"/></g>
<g><path style="opacity:1" fill="#e5beca" d="M 615.5,307.5 C 620.975,306.511 626.642,306.178 632.5,306.5C 632.832,343.337 632.498,380.004 631.5,416.5C 631.5,380.167 631.5,343.833 631.5,307.5C 626.167,307.5 620.833,307.5 615.5,307.5 Z"/></g>
<g><path style="opacity:1" fill="#fdfcfc" d="M 720.5,307.5 C 727.5,307.5 734.5,307.5 741.5,307.5C 746.504,332.52 751.671,357.52 757,382.5C 762.813,357.62 767.98,332.62 772.5,307.5C 779.5,307.5 786.5,307.5 793.5,307.5C 794.289,343.83 794.956,380.163 795.5,416.5C 790.5,416.5 785.5,416.5 780.5,416.5C 780.07,392.793 779.237,369.127 778,345.5C 772.951,369.129 768.118,392.796 763.5,416.5C 759.167,416.5 754.833,416.5 750.5,416.5C 746.504,392.688 741.671,369.021 736,345.5C 734.727,369.149 734.227,392.815 734.5,416.5C 729.167,416.5 723.833,416.5 718.5,416.5C 719.442,380.172 720.109,343.839 720.5,307.5 Z"/></g>
<g><path style="opacity:1" fill="#fefffe" d="M 809.5,307.5 C 815.833,307.5 822.167,307.5 828.5,307.5C 828.5,343.833 828.5,380.167 828.5,416.5C 822.167,416.5 815.833,416.5 809.5,416.5C 809.5,380.167 809.5,343.833 809.5,307.5 Z"/></g>
<g><path style="opacity:1" fill="#e5bdc9" d="M 809.5,307.5 C 815.979,306.509 822.646,306.176 829.5,306.5C 829.832,343.337 829.498,380.004 828.5,416.5C 828.5,380.167 828.5,343.833 828.5,307.5C 822.167,307.5 815.833,307.5 809.5,307.5 Z"/></g>
<g><path style="opacity:1" fill="#fefdfd" d="M 1016.5,307.5 C 1029.17,307.333 1041.84,307.5 1054.5,308C 1066.6,309.764 1073.76,316.598 1076,328.5C 1077.83,338.855 1076.16,348.522 1071,357.5C 1068.37,359.557 1065.87,361.723 1063.5,364C 1068.81,381.435 1073.81,398.935 1078.5,416.5C 1071.5,416.5 1064.5,416.5 1057.5,416.5C 1053.63,399.815 1049.63,383.148 1045.5,366.5C 1042.5,366.5 1039.5,366.5 1036.5,366.5C 1036.5,383.167 1036.5,399.833 1036.5,416.5C 1029.83,416.5 1023.17,416.5 1016.5,416.5C 1016.5,380.167 1016.5,343.833 1016.5,307.5 Z"/></g>
<g><path style="opacity:1" fill="#fefcfc" d="M 1230.5,307.5 C 1236.27,306.887 1241.6,307.554 1246.5,309.5C 1241.03,345.09 1236.03,380.757 1231.5,416.5C 1225.91,416.807 1220.41,416.473 1215,415.5C 1210.82,392.21 1206.82,368.877 1203,345.5C 1198.68,368.413 1194.68,391.413 1191,414.5C 1185.46,416.425 1179.63,417.092 1173.5,416.5C 1169.25,380.392 1164.25,344.392 1158.5,308.5C 1164.13,307.505 1169.79,307.171 1175.5,307.5C 1178.44,330.149 1181.27,352.816 1184,375.5C 1188.16,352.892 1191.99,330.226 1195.5,307.5C 1200.17,307.5 1204.83,307.5 1209.5,307.5C 1213.47,329.13 1217.3,350.797 1221,372.5C 1224.7,350.811 1227.86,329.144 1230.5,307.5 Z"/></g>
<g><path style="opacity:1" fill="#fefefe" d="M 1267.5,416.5 C 1267.5,384.833 1267.5,353.167 1267.5,321.5C 1261.5,321.5 1255.5,321.5 1249.5,321.5C 1249.5,316.833 1249.5,312.167 1249.5,307.5C 1268.17,307.5 1286.83,307.5 1305.5,307.5C 1305.5,312.167 1305.5,316.833 1305.5,321.5C 1299.5,321.5 1293.5,321.5 1287.5,321.5C 1287.5,353.167 1287.5,384.833 1287.5,416.5C 1280.83,416.5 1274.17,416.5 1267.5,416.5 Z"/></g>
<g><path style="opacity:1" fill="#fefefe" d="M 1311.5,307.5 C 1318.17,307.5 1324.83,307.5 1331.5,307.5C 1331.5,322.5 1331.5,337.5 1331.5,352.5C 1338.83,352.5 1346.17,352.5 1353.5,352.5C 1353.5,337.5 1353.5,322.5 1353.5,307.5C 1360.17,307.5 1366.83,307.5 1373.5,307.5C 1373.5,343.833 1373.5,380.167 1373.5,416.5C 1366.83,416.5 1360.17,416.5 1353.5,416.5C 1353.5,400.167 1353.5,383.833 1353.5,367.5C 1346.17,367.5 1338.83,367.5 1331.5,367.5C 1331.5,383.833 1331.5,400.167 1331.5,416.5C 1324.83,416.5 1318.17,416.5 1311.5,416.5C 1311.5,380.167 1311.5,343.833 1311.5,307.5 Z"/></g>
<g><path style="opacity:1" fill="#a21b43" d="M 527.5,320.5 C 534.553,319.337 539.386,322.004 542,328.5C 542.667,350.5 542.667,372.5 542,394.5C 539.095,402.534 533.595,405.034 525.5,402C 523.383,400.269 521.883,398.102 521,395.5C 520.333,373.5 520.333,351.5 521,329.5C 521.245,324.978 523.411,321.978 527.5,320.5 Z"/></g>
<g><path style="opacity:1" fill="#a21b43" d="M 671.5,320.5 C 678.694,319.175 683.527,321.842 686,328.5C 686.667,350.5 686.667,372.5 686,394.5C 683.095,402.534 677.595,405.034 669.5,402C 666.819,399.806 665.319,396.973 665,393.5C 664.333,371.833 664.333,350.167 665,328.5C 666.305,325.039 668.471,322.372 671.5,320.5 Z"/></g>
<g><path style="opacity:1" fill="#a31e44" d="M 1036.5,320.5 C 1055.26,319.63 1061.76,328.297 1056,346.5C 1054.44,349.728 1051.94,351.895 1048.5,353C 1044.51,353.499 1040.51,353.666 1036.5,353.5C 1036.5,342.5 1036.5,331.5 1036.5,320.5 Z"/></g>
<g><path style="opacity:1" fill="#a42146" d="M 1114.5,320.5 C 1123.39,319.176 1128.55,322.843 1130,331.5C 1130.67,350.833 1130.67,370.167 1130,389.5C 1128.34,403.156 1121.67,406.489 1110,399.5C 1108.96,397.285 1108.29,394.952 1108,392.5C 1107.33,371.5 1107.33,350.5 1108,329.5C 1108.87,325.475 1111.04,322.475 1114.5,320.5 Z"/></g>
<g><path style="opacity:1" fill="#bc5b77" d="M 1249.5,321.5 C 1255.5,321.5 1261.5,321.5 1267.5,321.5C 1267.5,353.167 1267.5,384.833 1267.5,416.5C 1266.5,385.338 1266.17,354.004 1266.5,322.5C 1260.64,322.822 1254.98,322.489 1249.5,321.5 Z"/></g>
<g><path style="opacity:1" fill="#d18ca1" d="M 593.5,355.5 C 592.833,375.833 592.167,396.167 591.5,416.5C 591.333,395.164 591.5,373.831 592,352.5C 592.513,353.527 593.013,354.527 593.5,355.5 Z"/></g>
<g><path style="opacity:1" fill="#e2b6c3" d="M 974.5,361.5 C 984.319,360.506 994.319,360.173 1004.5,360.5C 1004.83,379.341 1004.5,398.007 1003.5,416.5C 1003.5,398.167 1003.5,379.833 1003.5,361.5C 993.833,361.5 984.167,361.5 974.5,361.5 Z"/></g>
<g><path style="opacity:1" fill="#fefdfd" d="M 1098.5,555.5 C 1102.65,554.733 1105.32,556.233 1106.5,560C 1097.72,601.18 1088.89,642.347 1080,683.5C 1078.47,686.087 1076.31,686.92 1073.5,686C 1064.17,676.667 1054.83,667.333 1045.5,658C 1044.83,657.333 1044.17,657.333 1043.5,658C 942.833,758.667 842.167,859.333 741.5,960C 740.167,960.667 738.833,960.667 737.5,960C 696.333,918.833 655.167,877.667 614,836.5C 549.167,901.333 484.333,966.167 419.5,1031C 417.5,1031.67 415.5,1031.67 413.5,1031C 402.667,1020.17 391.833,1009.33 381,998.5C 379.699,996.635 379.365,994.635 380,992.5C 457.167,915.333 534.333,838.167 611.5,761C 612.833,760.333 614.167,760.333 615.5,761C 656.167,801.667 696.833,842.333 737.5,883C 738.5,883.667 739.5,883.667 740.5,883C 828.833,794.667 917.167,706.333 1005.5,618C 996,608.5 986.5,599 977,589.5C 976.104,586.975 976.604,584.808 978.5,583C 1018.7,574.115 1058.7,564.948 1098.5,555.5 Z"/></g>
<g><path style="opacity:1" fill="#fefefe" d="M 1041.5,732.5 C 1045.68,731.846 1048.52,733.512 1050,737.5C 1050.67,930.833 1050.67,1124.17 1050,1317.5C 1048.88,1319.62 1047.38,1321.46 1045.5,1323C 989.833,1323.67 934.167,1323.67 878.5,1323C 876.19,1321.36 874.69,1319.2 874,1316.5C 873.333,1176.83 873.333,1037.17 874,897.5C 875.506,891.325 878.673,886.158 883.5,882C 936.062,831.934 988.729,782.101 1041.5,732.5 Z"/></g>
<g><path style="opacity:1" fill="#fefefe" d="M 598.5,923.5 C 602.49,922.616 605.323,923.949 607,927.5C 607.667,1057.83 607.667,1188.17 607,1318.5C 606.167,1320.67 604.667,1322.17 602.5,1323C 547.167,1323.67 491.833,1323.67 436.5,1323C 434.333,1322.17 432.833,1320.67 432,1318.5C 431.009,1239.78 431.342,1161.11 433,1082.5C 436.083,1077.41 439.917,1072.91 444.5,1069C 495.729,1020.27 547.062,971.768 598.5,923.5 Z"/></g>
<g><path style="opacity:1" fill="#fefefe" d="M 821.5,948.5 C 825.49,947.616 828.323,948.949 830,952.5C 830.667,1074.5 830.667,1196.5 830,1318.5C 829.167,1320.67 827.667,1322.17 825.5,1323C 770.167,1323.67 714.833,1323.67 659.5,1323C 657.333,1322.17 655.833,1320.67 655,1318.5C 654.333,1198.17 654.333,1077.83 655,957.5C 655.796,955.033 657.463,953.7 660,953.5C 663.296,954.13 666.13,955.63 668.5,958C 691.434,982.268 714.934,1005.77 739,1028.5C 739.833,1028.33 740.667,1028.17 741.5,1028C 768.062,1001.27 794.728,974.771 821.5,948.5 Z"/></g>
</svg>
