<?xml version="1.0" encoding="UTF-8"?>
<!DOCTYPE svg PUBLIC "-//W3C//DTD SVG 1.1//EN" "http://www.w3.org/Graphics/SVG/1.1/DTD/svg11.dtd">
<svg xmlns="http://www.w3.org/2000/svg" version="1.1" width="1500px" height="1500px" style="shape-rendering:geometricPrecision; text-rendering:geometricPrecision; image-rendering:optimizeQuality; fill-rule:evenodd; clip-rule:evenodd" xmlns:xlink="http://www.w3.org/1999/xlink">
<g><path style="opacity:1" fill="#26bde2" d="M -0.5,-0.5 C 499.5,-0.5 999.5,-0.5 1499.5,-0.5C 1499.5,499.5 1499.5,999.5 1499.5,1499.5C 999.5,1499.5 499.5,1499.5 -0.5,1499.5C -0.5,999.5 -0.5,499.5 -0.5,-0.5 Z"/></g>
<g><path style="opacity:1" fill="#fefefe" d="M 267.5,201.5 C 250.5,201.5 233.5,201.5 216.5,201.5C 216.806,198.615 216.473,195.948 215.5,193.5C 216.441,184.076 213.774,175.91 207.5,169C 190.661,162.502 180.161,168.002 176,185.5C 173.527,207.763 172.86,230.096 174,252.5C 181.335,243.579 190.835,238.412 202.5,237C 241.47,233.964 263.97,251.797 270,290.5C 275.318,320.912 272.651,350.579 262,379.5C 253.278,400.877 237.445,413.377 214.5,417C 156.797,424.717 124.963,399.55 119,341.5C 118.333,295.5 118.333,249.5 119,203.5C 119.86,181.248 126.86,161.248 140,143.5C 155.304,129.841 173.304,123.508 194,124.5C 245.552,124.22 270.052,149.887 267.5,201.5 Z"/></g>
<g><path style="opacity:1" fill="#fdfefe" d="M 451.5,149.5 C 451.5,155.5 451.5,161.5 451.5,167.5C 445.5,167.5 439.5,167.5 433.5,167.5C 433.821,162.305 433.487,157.305 432.5,152.5C 432.037,143.547 427.37,140.047 418.5,142C 414.479,143.868 412.313,147.035 412,151.5C 411.333,172.5 411.333,193.5 412,214.5C 415.051,224.358 421.051,226.691 430,221.5C 430.667,220.167 431.333,218.833 432,217.5C 432.5,210.508 432.666,203.508 432.5,196.5C 439.167,196.5 445.833,196.5 452.5,196.5C 454.98,232.527 438.98,245.361 404.5,235C 397.688,229.894 393.522,223.061 392,214.5C 391.333,193.167 391.333,171.833 392,150.5C 395.522,134.152 405.689,126.152 422.5,126.5C 439.043,125.726 448.71,133.393 451.5,149.5 Z"/></g>
<g><path style="opacity:1" fill="#c8eef7" d="M 766.5,128.5 C 760.729,127.887 755.396,128.554 750.5,130.5C 749.596,129.791 749.263,128.791 749.5,127.5C 755.358,127.178 761.025,127.511 766.5,128.5 Z"/></g>
<g><path style="opacity:1" fill="#c7eef7" d="M 863.5,128.5 C 866.817,127.835 870.317,127.501 874,127.5C 877.902,127.512 881.402,128.179 884.5,129.5C 877.588,128.538 870.588,128.205 863.5,128.5 Z"/></g>
<g><path style="opacity:1" fill="#c0ecf6" d="M 960.5,142.5 C 960.5,137.833 960.5,133.167 960.5,128.5C 942.167,128.5 923.833,128.5 905.5,128.5C 905.5,133.167 905.5,137.833 905.5,142.5C 904.513,137.695 904.179,132.695 904.5,127.5C 923.5,127.5 942.5,127.5 961.5,127.5C 961.821,132.695 961.487,137.695 960.5,142.5 Z"/></g>
<g><path style="opacity:1" fill="#fefefe" d="M 465.5,127.5 C 472.167,127.5 478.833,127.5 485.5,127.5C 485.5,159.5 485.5,191.5 485.5,223.5C 494.167,223.5 502.833,223.5 511.5,223.5C 511.5,228.167 511.5,232.833 511.5,237.5C 496.167,237.5 480.833,237.5 465.5,237.5C 465.5,200.833 465.5,164.167 465.5,127.5 Z"/></g>
<g><path style="opacity:1" fill="#fdfefe" d="M 521.5,127.5 C 536.833,127.5 552.167,127.5 567.5,127.5C 567.5,132.5 567.5,137.5 567.5,142.5C 558.833,142.5 550.167,142.5 541.5,142.5C 541.5,152.833 541.5,163.167 541.5,173.5C 548.167,173.5 554.833,173.5 561.5,173.5C 561.5,178.167 561.5,182.833 561.5,187.5C 554.833,187.5 548.167,187.5 541.5,187.5C 541.5,199.5 541.5,211.5 541.5,223.5C 550.167,223.5 558.833,223.5 567.5,223.5C 567.5,228.167 567.5,232.833 567.5,237.5C 552.167,237.5 536.833,237.5 521.5,237.5C 521.5,200.833 521.5,164.167 521.5,127.5 Z"/></g>
<g><path style="opacity:1" fill="#fdfefe" d="M 595.5,127.5 C 602.422,127.188 609.256,127.521 616,128.5C 623.813,164.715 630.98,201.049 637.5,237.5C 631.5,237.5 625.5,237.5 619.5,237.5C 618.007,229.193 616.673,220.86 615.5,212.5C 608.833,212.5 602.167,212.5 595.5,212.5C 594.646,220.916 593.312,229.249 591.5,237.5C 585.158,237.666 578.825,237.5 572.5,237C 580.487,200.563 588.154,164.063 595.5,127.5 Z"/></g>
<g><path style="opacity:1" fill="#98dff1" d="M 662.5,128.5 C 657.833,128.5 653.167,128.5 648.5,128.5C 648.5,164.833 648.5,201.167 648.5,237.5C 647.502,201.004 647.168,164.337 647.5,127.5C 652.695,127.179 657.695,127.513 662.5,128.5 Z"/></g>
<g><path style="opacity:1" fill="#fdfefe" d="M 662.5,128.5 C 671.028,148.085 679.362,167.752 687.5,187.5C 687.783,188.289 688.283,188.956 689,189.5C 689.5,169.169 689.667,148.836 689.5,128.5C 694.833,128.5 700.167,128.5 705.5,128.5C 705.5,164.833 705.5,201.167 705.5,237.5C 700.901,237.8 696.401,237.467 692,236.5C 683.333,215.833 674.667,195.167 666,174.5C 665.5,195.497 665.333,216.497 665.5,237.5C 659.833,237.5 654.167,237.5 648.5,237.5C 648.5,201.167 648.5,164.833 648.5,128.5C 653.167,128.5 657.833,128.5 662.5,128.5 Z"/></g>
<g><path style="opacity:1" fill="#c8eef7" d="M 705.5,128.5 C 700.167,128.5 694.833,128.5 689.5,128.5C 689.667,148.836 689.5,169.169 689,189.5C 688.283,188.956 687.783,188.289 687.5,187.5C 688.497,167.674 688.83,147.674 688.5,127.5C 694.358,127.178 700.025,127.511 705.5,128.5 Z"/></g>
<g><path style="opacity:1" fill="#fdfefe" d="M 750.5,130.5 C 755.396,128.554 760.729,127.887 766.5,128.5C 769.429,150.94 772.595,173.273 776,195.5C 779.342,173.114 783.009,150.781 787,128.5C 791.667,127.167 796.333,127.167 801,128.5C 804.294,150.596 808.127,172.596 812.5,194.5C 815.583,172.17 818.583,149.837 821.5,127.5C 826.833,127.5 832.167,127.5 837.5,127.5C 832.5,164.167 827.5,200.833 822.5,237.5C 816.697,238.087 811.197,237.42 806,235.5C 802.539,212.4 798.539,189.4 794,166.5C 789.301,190.028 785.467,213.695 782.5,237.5C 776.833,237.5 771.167,237.5 765.5,237.5C 760.407,201.847 755.407,166.181 750.5,130.5 Z"/></g>
<g><path style="opacity:1" fill="#fdfefe" d="M 863.5,128.5 C 870.588,128.205 877.588,128.538 884.5,129.5C 891.082,165.327 898.415,200.994 906.5,236.5C 900.202,237.496 893.868,237.83 887.5,237.5C 886.273,229.137 884.939,220.803 883.5,212.5C 876.833,212.5 870.167,212.5 863.5,212.5C 862.219,220.798 861.219,229.131 860.5,237.5C 854.167,237.5 847.833,237.5 841.5,237.5C 848.087,200.897 855.42,164.564 863.5,128.5 Z"/></g>
<g><path style="opacity:1" fill="#fdfefe" d="M 960.5,142.5 C 954.833,142.5 949.167,142.5 943.5,142.5C 943.5,174.167 943.5,205.833 943.5,237.5C 936.833,237.5 930.167,237.5 923.5,237.5C 923.5,205.833 923.5,174.167 923.5,142.5C 917.5,142.5 911.5,142.5 905.5,142.5C 905.5,137.833 905.5,133.167 905.5,128.5C 923.833,128.5 942.167,128.5 960.5,128.5C 960.5,133.167 960.5,137.833 960.5,142.5 Z"/></g>
<g><path style="opacity:1" fill="#c6eef7" d="M 989.5,142.5 C 997.65,141.507 1005.98,141.174 1014.5,141.5C 1014.5,137.167 1014.5,132.833 1014.5,128.5C 999.5,128.5 984.5,128.5 969.5,128.5C 969.5,164.833 969.5,201.167 969.5,237.5C 968.502,201.004 968.168,164.337 968.5,127.5C 984.167,127.5 999.833,127.5 1015.5,127.5C 1015.5,132.5 1015.5,137.5 1015.5,142.5C 1006.83,142.5 998.167,142.5 989.5,142.5 Z"/></g>
<g><path style="opacity:1" fill="#fefefe" d="M 989.5,142.5 C 988.506,152.653 988.172,162.986 988.5,173.5C 995.5,173.5 1002.5,173.5 1009.5,173.5C 1009.5,178.167 1009.5,182.833 1009.5,187.5C 1002.5,187.5 995.5,187.5 988.5,187.5C 988.172,199.678 988.505,211.678 989.5,223.5C 997.65,224.493 1005.98,224.826 1014.5,224.5C 1014.5,228.833 1014.5,233.167 1014.5,237.5C 999.5,237.5 984.5,237.5 969.5,237.5C 969.5,201.167 969.5,164.833 969.5,128.5C 984.5,128.5 999.5,128.5 1014.5,128.5C 1014.5,132.833 1014.5,137.167 1014.5,141.5C 1005.98,141.174 997.65,141.507 989.5,142.5 Z"/></g>
<g><path style="opacity:1" fill="#9ce0f2" d="M 1058.5,128.5 C 1047.83,128.5 1037.17,128.5 1026.5,128.5C 1026.5,164.833 1026.5,201.167 1026.5,237.5C 1025.5,201.004 1025.17,164.337 1025.5,127.5C 1036.68,127.172 1047.68,127.505 1058.5,128.5 Z"/></g>
<g><path style="opacity:1" fill="#fefefe" d="M 1058.5,128.5 C 1071.79,128.21 1080.62,134.21 1085,146.5C 1085.83,154.888 1085.5,163.221 1084,171.5C 1082.43,176.571 1079.26,180.238 1074.5,182.5C 1074.17,183.5 1073.83,184.5 1073.5,185.5C 1078.78,202.681 1083.45,220.014 1087.5,237.5C 1080.83,237.5 1074.17,237.5 1067.5,237.5C 1063.81,221.064 1059.64,204.731 1055,188.5C 1051.94,187.549 1048.78,187.216 1045.5,187.5C 1045.5,204.167 1045.5,220.833 1045.5,237.5C 1039.17,237.5 1032.83,237.5 1026.5,237.5C 1026.5,201.167 1026.5,164.833 1026.5,128.5C 1037.17,128.5 1047.83,128.5 1058.5,128.5 Z"/></g>
<g><path style="opacity:1" fill="#8cdbef" d="M 1056.5,142.5 C 1053.17,142.5 1049.83,142.5 1046.5,142.5C 1046.5,153.167 1046.5,163.833 1046.5,174.5C 1045.51,163.679 1045.17,152.679 1045.5,141.5C 1049.37,141.185 1053.04,141.518 1056.5,142.5 Z"/></g>
<g><path style="opacity:1" fill="#2abde2" d="M 1056.5,142.5 C 1061.5,142.334 1064.67,144.667 1066,149.5C 1066.67,155.167 1066.67,160.833 1066,166.5C 1065.21,169.583 1063.38,171.749 1060.5,173C 1055.91,174.225 1051.25,174.725 1046.5,174.5C 1046.5,163.833 1046.5,153.167 1046.5,142.5C 1049.83,142.5 1053.17,142.5 1056.5,142.5 Z"/></g>
<g><path style="opacity:1" fill="#3bc1e3" d="M 880.5,198.5 C 876.167,198.5 871.833,198.5 867.5,198.5C 867.5,196.833 867.5,195.167 867.5,193.5C 868.974,180.638 871.141,167.972 874,155.5C 876.602,169.778 878.769,184.112 880.5,198.5 Z"/></g>
<g><path style="opacity:1" fill="#41c2e4" d="M 605.5,155.5 C 608.245,169.974 610.578,184.64 612.5,199.5C 607.833,199.5 603.167,199.5 598.5,199.5C 600.346,184.722 602.679,170.056 605.5,155.5 Z"/></g>
<g><path style="opacity:1" fill="#a9e4f3" d="M 451.5,149.5 C 452.49,155.645 452.823,161.978 452.5,168.5C 445.833,168.5 439.167,168.5 432.5,168.5C 432.5,163.167 432.5,157.833 432.5,152.5C 433.487,157.305 433.821,162.305 433.5,167.5C 439.5,167.5 445.5,167.5 451.5,167.5C 451.5,161.5 451.5,155.5 451.5,149.5 Z"/></g>
<g><path style="opacity:1" fill="#8ddbef" d="M 867.5,193.5 C 867.5,195.167 867.5,196.833 867.5,198.5C 871.833,198.5 876.167,198.5 880.5,198.5C 876.03,199.486 871.363,199.819 866.5,199.5C 866.205,197.265 866.539,195.265 867.5,193.5 Z"/></g>
<g><path style="opacity:1" fill="#c8eef7" d="M 215.5,193.5 C 216.473,195.948 216.806,198.615 216.5,201.5C 233.5,201.5 250.5,201.5 267.5,201.5C 250.341,202.497 233.008,202.83 215.5,202.5C 215.5,199.5 215.5,196.5 215.5,193.5 Z"/></g>
<g><path style="opacity:1" fill="#c7eef7" d="M 989.5,223.5 C 998.167,223.5 1006.83,223.5 1015.5,223.5C 1015.82,228.363 1015.49,233.03 1014.5,237.5C 1014.5,233.167 1014.5,228.833 1014.5,224.5C 1005.98,224.826 997.65,224.493 989.5,223.5 Z"/></g>
<g><path style="opacity:1" fill="#2abde2" d="M 190.5,278.5 C 202.724,277.023 210.891,282.023 215,293.5C 218.503,316.883 218.17,340.216 214,363.5C 209.059,376.926 199.892,381.093 186.5,376C 178.487,368.647 174.321,359.481 174,348.5C 173.333,329.5 173.333,310.5 174,291.5C 177.939,285.048 183.439,280.714 190.5,278.5 Z"/></g>
<g><path style="opacity:1" fill="#fcfefe" d="M 662.5,305.5 C 683.959,304.298 694.626,314.298 694.5,335.5C 689.236,336.871 683.903,337.871 678.5,338.5C 679.163,331.96 677.163,326.46 672.5,322C 660.996,319.843 656.496,324.676 659,336.5C 665.5,345.667 673.333,353.5 682.5,360C 696.749,372.591 700.583,387.758 694,405.5C 687.99,414.464 679.49,418.797 668.5,418.5C 650.027,416.632 640.361,406.298 639.5,387.5C 639.709,386.006 640.376,384.839 641.5,384C 646.5,382.93 651.5,382.263 656.5,382C 657.14,386.92 658.307,391.754 660,396.5C 662.919,402.025 667.419,403.858 673.5,402C 679.643,395.403 680.143,388.236 675,380.5C 665.333,371.5 655.667,362.5 646,353.5C 638.334,341.519 637.668,329.185 644,316.5C 648.87,310.425 655.037,306.759 662.5,305.5 Z"/></g>
<g><path style="opacity:1" fill="#fdfefe" d="M 1125.5,305.5 C 1135.01,304.973 1144.01,306.806 1152.5,311C 1158.49,316.138 1161.99,322.638 1163,330.5C 1163.67,351.5 1163.67,372.5 1163,393.5C 1159.47,411.454 1148.47,419.788 1130,418.5C 1112.64,417.81 1102.98,408.81 1101,391.5C 1100.06,369.791 1100.39,348.124 1102,326.5C 1105.35,314.31 1113.18,307.31 1125.5,305.5 Z"/></g>
<g><path style="opacity:1" fill="#fdfefe" d="M 409.5,307.5 C 416.5,307.5 423.5,307.5 430.5,307.5C 438.156,343.772 445.49,380.106 452.5,416.5C 446.167,416.5 439.833,416.5 433.5,416.5C 432.582,408.155 431.582,399.822 430.5,391.5C 423.833,391.5 417.167,391.5 410.5,391.5C 409.247,399.858 407.914,408.192 406.5,416.5C 400.167,416.5 393.833,416.5 387.5,416.5C 394.574,380.128 401.908,343.794 409.5,307.5 Z"/></g>
<g><path style="opacity:1" fill="#c3edf7" d="M 476.5,307.5 C 472.167,307.5 467.833,307.5 463.5,307.5C 463.5,343.833 463.5,380.167 463.5,416.5C 462.502,380.004 462.168,343.337 462.5,306.5C 467.363,306.181 472.03,306.514 476.5,307.5 Z"/></g>
<g><path style="opacity:1" fill="#fefefe" d="M 476.5,307.5 C 485.072,326.319 493.406,345.319 501.5,364.5C 501.987,365.473 502.487,366.473 503,367.5C 503.5,347.503 503.667,327.503 503.5,307.5C 508.833,307.5 514.167,307.5 519.5,307.5C 519.5,343.833 519.5,380.167 519.5,416.5C 515.116,416.826 510.783,416.492 506.5,415.5C 498.152,395.474 489.818,375.474 481.5,355.5C 481.013,354.527 480.513,353.527 480,352.5C 479.5,373.831 479.333,395.164 479.5,416.5C 474.167,416.5 468.833,416.5 463.5,416.5C 463.5,380.167 463.5,343.833 463.5,307.5C 467.833,307.5 472.167,307.5 476.5,307.5 Z"/></g>
<g><path style="opacity:1" fill="#5dcee9" d="M 503.5,307.5 C 503.667,327.503 503.5,347.503 503,367.5C 502.487,366.473 501.987,365.473 501.5,364.5C 502.167,345.5 502.833,326.5 503.5,307.5 Z"/></g>
<g><path style="opacity:1" fill="#fefefe" d="M 535.5,307.5 C 548.171,307.333 560.838,307.5 573.5,308C 585.134,309.637 592.301,316.137 595,327.5C 595.667,349.5 595.667,371.5 595,393.5C 592.577,407.256 584.41,414.756 570.5,416C 558.838,416.5 547.171,416.667 535.5,416.5C 535.5,380.167 535.5,343.833 535.5,307.5 Z"/></g>
<g><path style="opacity:1" fill="#fdfefe" d="M 724.5,307.5 C 731.833,307.5 739.167,307.5 746.5,307.5C 753.627,343.803 760.627,380.136 767.5,416.5C 761.5,416.5 755.5,416.5 749.5,416.5C 747.981,408.202 746.648,399.868 745.5,391.5C 738.833,391.5 732.167,391.5 725.5,391.5C 724.646,399.916 723.312,408.249 721.5,416.5C 715.158,416.666 708.825,416.5 702.5,416C 710.661,380.029 717.994,343.862 724.5,307.5 Z"/></g>
<g><path style="opacity:1" fill="#fefefe" d="M 817.5,366.5 C 817.783,367.289 818.283,367.956 819,368.5C 819.5,348.169 819.667,327.836 819.5,307.5C 824.833,307.5 830.167,307.5 835.5,307.5C 835.5,343.833 835.5,380.167 835.5,416.5C 830.833,416.5 826.167,416.5 821.5,416.5C 813.561,395.685 805.228,375.019 796.5,354.5C 796.217,353.711 795.717,353.044 795,352.5C 794.5,373.831 794.333,395.164 794.5,416.5C 789.167,416.5 783.833,416.5 778.5,416.5C 778.5,380.167 778.5,343.833 778.5,307.5C 783.214,307.173 787.88,307.507 792.5,308.5C 800.846,327.855 809.179,347.188 817.5,366.5 Z"/></g>
<g><path style="opacity:1" fill="#bfebf6" d="M 835.5,307.5 C 830.167,307.5 824.833,307.5 819.5,307.5C 819.667,327.836 819.5,348.169 819,368.5C 818.283,367.956 817.783,367.289 817.5,366.5C 818.497,346.674 818.83,326.674 818.5,306.5C 824.358,306.178 830.025,306.511 835.5,307.5 Z"/></g>
<g><path style="opacity:1" fill="#fefffe" d="M 851.5,307.5 C 858.167,307.5 864.833,307.5 871.5,307.5C 871.5,343.833 871.5,380.167 871.5,416.5C 864.833,416.5 858.167,416.5 851.5,416.5C 851.5,380.167 851.5,343.833 851.5,307.5 Z"/></g>
<g><path style="opacity:1" fill="#fdfefe" d="M 935.5,307.5 C 935.5,312.167 935.5,316.833 935.5,321.5C 929.833,321.5 924.167,321.5 918.5,321.5C 918.5,353.167 918.5,384.833 918.5,416.5C 911.833,416.5 905.167,416.5 898.5,416.5C 898.5,384.833 898.5,353.167 898.5,321.5C 892.5,321.5 886.5,321.5 880.5,321.5C 880.5,316.833 880.5,312.167 880.5,307.5C 898.833,307.5 917.167,307.5 935.5,307.5 Z"/></g>
<g><path style="opacity:1" fill="#fdfefe" d="M 959.5,307.5 C 966.833,307.5 974.167,307.5 981.5,307.5C 988.823,343.77 995.823,380.103 1002.5,416.5C 996.5,416.5 990.5,416.5 984.5,416.5C 983.007,408.193 981.673,399.86 980.5,391.5C 973.833,391.5 967.167,391.5 960.5,391.5C 959.219,399.798 958.219,408.131 957.5,416.5C 951.167,416.5 944.833,416.5 938.5,416.5C 945.37,380.149 952.37,343.815 959.5,307.5 Z"/></g>
<g><path style="opacity:1" fill="#fdfefe" d="M 1020.5,416.5 C 1020.5,384.833 1020.5,353.167 1020.5,321.5C 1014.17,321.5 1007.83,321.5 1001.5,321.5C 1001.5,316.833 1001.5,312.167 1001.5,307.5C 1020.17,307.5 1038.83,307.5 1057.5,307.5C 1057.5,312.167 1057.5,316.833 1057.5,321.5C 1051.83,321.5 1046.17,321.5 1040.5,321.5C 1040.5,353.167 1040.5,384.833 1040.5,416.5C 1033.83,416.5 1027.17,416.5 1020.5,416.5 Z"/></g>
<g><path style="opacity:1" fill="#fefffe" d="M 1066.5,307.5 C 1072.83,307.5 1079.17,307.5 1085.5,307.5C 1085.5,343.833 1085.5,380.167 1085.5,416.5C 1079.17,416.5 1072.83,416.5 1066.5,416.5C 1066.5,380.167 1066.5,343.833 1066.5,307.5 Z"/></g>
<g><path style="opacity:1" fill="#c2ecf7" d="M 1066.5,307.5 C 1072.98,306.509 1079.65,306.176 1086.5,306.5C 1086.83,343.337 1086.5,380.004 1085.5,416.5C 1085.5,380.167 1085.5,343.833 1085.5,307.5C 1079.17,307.5 1072.83,307.5 1066.5,307.5 Z"/></g>
<g><path style="opacity:1" fill="#c3edf7" d="M 1191.5,307.5 C 1187.17,307.5 1182.83,307.5 1178.5,307.5C 1178.5,343.833 1178.5,380.167 1178.5,416.5C 1177.5,380.004 1177.17,343.337 1177.5,306.5C 1182.36,306.181 1187.03,306.514 1191.5,307.5 Z"/></g>
<g><path style="opacity:1" fill="#fefefe" d="M 1191.5,307.5 C 1200.07,326.319 1208.41,345.319 1216.5,364.5C 1216.46,365.756 1216.96,366.756 1218,367.5C 1218.5,347.503 1218.67,327.503 1218.5,307.5C 1223.83,307.5 1229.17,307.5 1234.5,307.5C 1234.5,343.833 1234.5,380.167 1234.5,416.5C 1230.12,416.826 1225.78,416.492 1221.5,415.5C 1213.15,395.479 1204.82,375.479 1196.5,355.5C 1196.01,354.527 1195.51,353.527 1195,352.5C 1194.5,373.831 1194.33,395.164 1194.5,416.5C 1189.17,416.5 1183.83,416.5 1178.5,416.5C 1178.5,380.167 1178.5,343.833 1178.5,307.5C 1182.83,307.5 1187.17,307.5 1191.5,307.5 Z"/></g>
<g><path style="opacity:1" fill="#5ecee9" d="M 1218.5,307.5 C 1218.67,327.503 1218.5,347.503 1218,367.5C 1216.96,366.756 1216.46,365.756 1216.5,364.5C 1217.17,345.5 1217.83,326.5 1218.5,307.5 Z"/></g>
<g><path style="opacity:1" fill="#2bbee2" d="M 555.5,321.5 C 559.514,321.334 563.514,321.501 567.5,322C 570.196,322.69 572.363,324.19 574,326.5C 575.134,337.765 575.634,349.099 575.5,360.5C 575.613,372.546 575.113,384.546 574,396.5C 572.749,399.381 570.583,401.214 567.5,402C 563.514,402.499 559.514,402.666 555.5,402.5C 555.5,375.5 555.5,348.5 555.5,321.5 Z"/></g>
<g><path style="opacity:1" fill="#30bee2" d="M 1128.5,320.5 C 1135.62,319.14 1140.45,321.807 1143,328.5C 1143.67,350.5 1143.67,372.5 1143,394.5C 1140.07,402.546 1134.57,405.046 1126.5,402C 1123.37,399.612 1121.53,396.446 1121,392.5C 1120.33,372.833 1120.33,353.167 1121,333.5C 1120.99,327.49 1123.49,323.157 1128.5,320.5 Z"/></g>
<g><path style="opacity:1" fill="#95def1" d="M 935.5,307.5 C 917.167,307.5 898.833,307.5 880.5,307.5C 880.5,312.167 880.5,316.833 880.5,321.5C 886.5,321.5 892.5,321.5 898.5,321.5C 898.5,353.167 898.5,384.833 898.5,416.5C 897.502,385.338 897.168,354.004 897.5,322.5C 891.5,322.5 885.5,322.5 879.5,322.5C 879.5,317.167 879.5,311.833 879.5,306.5C 898.341,306.17 917.007,306.503 935.5,307.5 Z"/></g>
<g><path style="opacity:1" fill="#93def1" d="M 1001.5,321.5 C 1007.83,321.5 1014.17,321.5 1020.5,321.5C 1020.5,353.167 1020.5,384.833 1020.5,416.5C 1019.5,385.338 1019.17,354.004 1019.5,322.5C 1013.31,322.823 1007.31,322.49 1001.5,321.5 Z"/></g>
<g><path style="opacity:1" fill="#3ec1e4" d="M 419.5,334.5 C 423.006,348.854 425.673,363.521 427.5,378.5C 422.833,378.5 418.167,378.5 413.5,378.5C 415.336,363.816 417.336,349.15 419.5,334.5 Z"/></g>
<g><path style="opacity:1" fill="#3fc1e4" d="M 735.5,334.5 C 738.461,348.937 740.794,363.603 742.5,378.5C 737.833,378.5 733.167,378.5 728.5,378.5C 730.346,363.722 732.679,349.056 735.5,334.5 Z"/></g>
<g><path style="opacity:1" fill="#3bc1e3" d="M 970.5,336.5 C 973.461,350.265 975.794,364.265 977.5,378.5C 972.833,378.5 968.167,378.5 963.5,378.5C 965.186,364.383 967.52,350.383 970.5,336.5 Z"/></g>
<g><path style="opacity:1" fill="#c8eef7" d="M 796.5,354.5 C 795.833,375.167 795.167,395.833 794.5,416.5C 794.333,395.164 794.5,373.831 795,352.5C 795.717,353.044 796.217,353.711 796.5,354.5 Z"/></g>
<g><path style="opacity:1" fill="#93def1" d="M 481.5,355.5 C 480.833,375.833 480.167,396.167 479.5,416.5C 479.333,395.164 479.5,373.831 480,352.5C 480.513,353.527 481.013,354.527 481.5,355.5 Z"/></g>
<g><path style="opacity:1" fill="#5ecee9" d="M 1196.5,355.5 C 1195.83,375.833 1195.17,396.167 1194.5,416.5C 1194.33,395.164 1194.5,373.831 1195,352.5C 1195.51,353.527 1196.01,354.527 1196.5,355.5 Z"/></g>
<g><path style="opacity:1" fill="#fefefe" d="M 938.5,1172.5 C 899.5,1172.5 860.5,1172.5 821.5,1172.5C 821.5,1173.5 821.5,1174.5 821.5,1175.5C 819.167,1204.83 816.833,1234.17 814.5,1263.5C 820.167,1263.5 825.833,1263.5 831.5,1263.5C 841.348,1263.17 851.014,1263.51 860.5,1264.5C 824.495,1301.34 787.995,1337.67 751,1373.5C 714.005,1337.34 677.172,1301.01 640.5,1264.5C 655.991,1263.5 671.658,1263.17 687.5,1263.5C 687.81,1260.29 687.477,1257.29 686.5,1254.5C 684.831,1229.14 682.831,1203.8 680.5,1178.5C 680.5,1176.5 680.5,1174.5 680.5,1172.5C 642.167,1172.5 603.833,1172.5 565.5,1172.5C 563.629,1172.14 562.129,1171.14 561,1169.5C 530.333,984.167 499.667,798.833 469,613.5C 468.333,610.833 468.333,608.167 469,605.5C 469.903,604.299 471.069,603.465 472.5,603C 656.833,602.333 841.167,602.333 1025.5,603C 1027,603.833 1028.17,605 1029,606.5C 1000.83,793.859 972.162,981.192 943,1168.5C 942.208,1170.64 940.708,1171.98 938.5,1172.5 Z"/></g>
<g><path style="opacity:1" fill="#93def1" d="M 492.5,627.5 C 663.333,626.5 834.333,626.167 1005.5,626.5C 1005.74,627.791 1005.4,628.791 1004.5,629.5C 834.17,627.501 663.503,626.835 492.5,627.5 Z"/></g>
<g><path style="opacity:1" fill="#27bde2" d="M 492.5,627.5 C 663.503,626.835 834.17,627.501 1004.5,629.5C 999.833,660.167 995.167,690.833 990.5,721.5C 974.676,717.078 959.009,717.578 943.5,723C 911.205,737.544 877.538,747.211 842.5,752C 807.736,754.462 774.069,749.462 741.5,737C 722.478,728.881 703.145,721.548 683.5,715C 666.841,709.938 649.841,708.271 632.5,710C 608.921,717.526 585.254,724.859 561.5,732C 545.705,735.661 529.705,737.495 513.5,737.5C 506.756,700.779 499.756,664.112 492.5,627.5 Z"/></g>
<g><path style="opacity:1" fill="#27bde2" d="M 749.5,813.5 C 751.074,813.937 752.241,814.937 753,816.5C 778.165,854.159 802.831,892.159 827,930.5C 842.837,957.654 846.504,986.321 838,1016.5C 826.873,1045.96 806.04,1064.46 775.5,1072C 760.203,1073.55 744.869,1073.88 729.5,1073C 689.558,1063.73 666.058,1038.89 659,998.5C 656.935,973.495 662.268,950.162 675,928.5C 699.854,890.11 724.688,851.777 749.5,813.5 Z"/></g>
<g><path style="opacity:1" fill="#60cfe9" d="M 565.5,1172.5 C 603.833,1172.5 642.167,1172.5 680.5,1172.5C 680.5,1174.5 680.5,1176.5 680.5,1178.5C 679.549,1177.08 679.216,1175.41 679.5,1173.5C 641.33,1173.83 603.33,1173.5 565.5,1172.5 Z"/></g>
<g><path style="opacity:1" fill="#5ccee9" d="M 938.5,1172.5 C 899.45,1172.85 860.45,1173.85 821.5,1175.5C 821.5,1174.5 821.5,1173.5 821.5,1172.5C 860.5,1172.5 899.5,1172.5 938.5,1172.5 Z"/></g>
<g><path style="opacity:1" fill="#65d0ea" d="M 686.5,1254.5 C 687.477,1257.29 687.81,1260.29 687.5,1263.5C 671.658,1263.17 655.991,1263.5 640.5,1264.5C 639.957,1264.44 639.624,1264.11 639.5,1263.5C 655.152,1262.5 670.819,1262.17 686.5,1262.5C 686.5,1259.83 686.5,1257.17 686.5,1254.5 Z"/></g>
<g><path style="opacity:1" fill="#93def1" d="M 831.5,1263.5 C 841.341,1262.18 851.341,1262.18 861.5,1263.5C 861.376,1264.11 861.043,1264.44 860.5,1264.5C 851.014,1263.51 841.348,1263.17 831.5,1263.5 Z"/></g>
</svg>
