<?xml version="1.0" encoding="UTF-8"?>
<!DOCTYPE svg PUBLIC "-//W3C//DTD SVG 1.1//EN" "http://www.w3.org/Graphics/SVG/1.1/DTD/svg11.dtd">
<svg xmlns="http://www.w3.org/2000/svg" version="1.1" width="1500px" height="1500px" style="shape-rendering:geometricPrecision; text-rendering:geometricPrecision; image-rendering:optimizeQuality; fill-rule:evenodd; clip-rule:evenodd" xmlns:xlink="http://www.w3.org/1999/xlink">
<g><path style="opacity:1" fill="#fd6925" d="M -0.5,-0.5 C 499.5,-0.5 999.5,-0.5 1499.5,-0.5C 1499.5,499.5 1499.5,999.5 1499.5,1499.5C 999.5,1499.5 499.5,1499.5 -0.5,1499.5C -0.5,999.5 -0.5,499.5 -0.5,-0.5 Z"/></g>
<g><path style="opacity:1" fill="#fffefe" d="M 212.5,334.5 C 213.661,320.339 213.827,306.006 213,291.5C 212.283,292.044 211.783,292.711 211.5,293.5C 201.315,303.064 189.148,307.397 175,306.5C 150.655,306.817 133.655,295.817 124,273.5C 119.895,262.851 117.228,251.851 116,240.5C 114.935,221.762 115.602,203.095 118,184.5C 128.729,140.127 156.896,120.294 202.5,125C 235.447,127.938 256.28,145.438 265,177.5C 267.236,185.011 268.569,192.678 269,200.5C 269.667,245.5 269.667,290.5 269,335.5C 268.086,354.492 263.419,372.492 255,389.5C 245.468,405.012 231.634,414.179 213.5,417C 199.875,418.551 186.208,418.884 172.5,418C 144.335,414.167 127.502,398.334 122,370.5C 120.048,360.932 119.214,351.265 119.5,341.5C 136.833,341.5 154.167,341.5 171.5,341.5C 171.055,351.953 172.888,361.953 177,371.5C 183.383,376.266 190.549,377.766 198.5,376C 204.521,373.512 208.354,369.012 210,362.5C 212.062,353.285 212.895,343.951 212.5,334.5 Z"/></g>
<g><path style="opacity:1" fill="#fffcfb" d="M 616.5,139.5 C 616.5,140.167 616.833,140.5 617.5,140.5C 618.984,145.033 619.65,149.7 619.5,154.5C 613.905,155.886 608.238,156.886 602.5,157.5C 603.186,150.341 600.853,144.508 595.5,140C 584.872,139.704 580.705,144.871 583,155.5C 584,157.167 585,158.833 586,160.5C 594.667,168.5 603.333,176.5 612,184.5C 622.617,197.411 624.284,211.411 617,226.5C 605.993,237.834 593.16,240.334 578.5,234C 570.846,229.68 566.346,223.18 565,214.5C 564.172,210.534 563.672,206.534 563.5,202.5C 569.545,201.758 575.545,200.758 581.5,199.5C 581.41,206.218 582.91,212.551 586,218.5C 591.314,222.636 596.314,222.302 601,217.5C 603.265,211.218 602.598,205.218 599,199.5C 588.309,189.809 577.976,179.809 568,169.5C 562.486,158.641 562.152,147.641 567,136.5C 578.228,123.871 591.728,121.037 607.5,128C 611.572,130.97 614.572,134.803 616.5,139.5 Z"/></g>
<g><path style="opacity:1" fill="#fffbfa" d="M 1032.5,124.5 C 1041.79,123.74 1050.79,124.906 1059.5,128C 1066.77,132.044 1070.94,138.21 1072,146.5C 1073.1,157.96 1073.6,169.46 1073.5,181C 1073.61,192.213 1073.11,203.38 1072,214.5C 1070.36,226.134 1063.86,233.301 1052.5,236C 1027.95,241.499 1013.78,231.999 1010,207.5C 1009.33,189.5 1009.33,171.5 1010,153.5C 1011.09,138.605 1018.59,128.939 1032.5,124.5 Z"/></g>
<g><path style="opacity:1" fill="#fffcfb" d="M 1300.5,124.5 C 1310.56,123.646 1320.23,125.146 1329.5,129C 1335.77,134.043 1339.61,140.543 1341,148.5C 1341.67,169.833 1341.67,191.167 1341,212.5C 1339.55,224.58 1333.05,232.414 1321.5,236C 1312.76,236.91 1304.09,236.576 1295.5,235C 1286.65,231.477 1281.48,224.977 1280,215.5C 1278.9,203.54 1278.4,191.54 1278.5,179.5C 1278.39,167.787 1278.89,156.121 1280,144.5C 1283.44,134.221 1290.28,127.554 1300.5,124.5 Z"/></g>
<g><path style="opacity:1" fill="#fff7f4" d="M 332.5,125.5 C 339.5,125.5 346.5,125.5 353.5,125.5C 353.5,162.167 353.5,198.833 353.5,235.5C 346.5,235.5 339.5,235.5 332.5,235.5C 332.5,198.833 332.5,162.167 332.5,125.5 Z"/></g>
<g><path style="opacity:1" fill="#ffd9c8" d="M 376.5,126.5 C 372.167,126.5 367.833,126.5 363.5,126.5C 363.5,162.833 363.5,199.167 363.5,235.5C 362.502,199.004 362.168,162.337 362.5,125.5C 367.363,125.181 372.03,125.514 376.5,126.5 Z"/></g>
<g><path style="opacity:1" fill="#fffcfb" d="M 403.5,125.5 C 409.167,125.5 414.833,125.5 420.5,125.5C 420.5,162.167 420.5,198.833 420.5,235.5C 415.57,235.803 410.737,235.469 406,234.5C 397.729,214.516 389.563,194.516 381.5,174.5C 381.013,173.527 380.513,172.527 380,171.5C 379.5,192.831 379.333,214.164 379.5,235.5C 374.167,235.5 368.833,235.5 363.5,235.5C 363.5,199.167 363.5,162.833 363.5,126.5C 367.833,126.5 372.167,126.5 376.5,126.5C 385.072,145.319 393.406,164.319 401.5,183.5C 401.987,184.473 402.487,185.473 403,186.5C 403.5,166.169 403.667,145.836 403.5,125.5 Z"/></g>
<g><path style="opacity:1" fill="#fd8f5c" d="M 403.5,125.5 C 403.667,145.836 403.5,166.169 403,186.5C 402.487,185.473 401.987,184.473 401.5,183.5C 402.167,164.167 402.833,144.833 403.5,125.5 Z"/></g>
<g><path style="opacity:1" fill="#fffcfb" d="M 429.5,125.5 C 440.172,125.333 450.839,125.5 461.5,126C 477.12,126.527 486.286,134.361 489,149.5C 489.667,169.5 489.667,189.5 489,209.5C 487.841,223.678 480.341,232.178 466.5,235C 454.171,235.5 441.838,235.667 429.5,235.5C 429.5,198.833 429.5,162.167 429.5,125.5 Z"/></g>
<g><path style="opacity:1" fill="#fffcfb" d="M 496.5,125.5 C 502.833,125.5 509.167,125.5 515.5,125.5C 515.333,152.169 515.5,178.835 516,205.5C 516.263,210.017 517.263,214.351 519,218.5C 529.003,224.537 535.337,221.871 538,210.5C 538.5,182.169 538.667,153.835 538.5,125.5C 545.167,125.5 551.833,125.5 558.5,125.5C 558.667,153.169 558.5,180.835 558,208.5C 556.632,228.538 545.965,237.872 526,236.5C 508.36,237.503 498.694,229.169 497,211.5C 496.5,182.835 496.333,154.169 496.5,125.5 Z"/></g>
<g><path style="opacity:1" fill="#fd8e5b" d="M 618.5,125.5 C 618.5,130.5 618.5,135.5 618.5,140.5C 618.167,140.5 617.833,140.5 617.5,140.5C 616.833,140.5 616.5,140.167 616.5,139.5C 617.167,134.833 617.833,130.167 618.5,125.5 Z"/></g>
<g><path style="opacity:1" fill="#fffdfc" d="M 618.5,125.5 C 637.167,125.5 655.833,125.5 674.5,125.5C 674.5,130.5 674.5,135.5 674.5,140.5C 668.5,140.5 662.5,140.5 656.5,140.5C 656.5,172.167 656.5,203.833 656.5,235.5C 649.833,235.5 643.167,235.5 636.5,235.5C 636.5,203.833 636.5,172.167 636.5,140.5C 630.5,140.5 624.5,140.5 618.5,140.5C 618.5,135.5 618.5,130.5 618.5,125.5 Z"/></g>
<g><path style="opacity:1" fill="#fd8e5b" d="M 674.5,125.5 C 675.167,125.5 675.833,125.5 676.5,125.5C 676.5,162.167 676.5,198.833 676.5,235.5C 675.833,203.833 675.167,172.167 674.5,140.5C 674.5,135.5 674.5,130.5 674.5,125.5 Z"/></g>
<g><path style="opacity:1" fill="#fffdfc" d="M 676.5,125.5 C 687.838,125.333 699.172,125.5 710.5,126C 732.033,129.846 740.533,142.68 736,164.5C 734.304,172.34 730.137,178.34 723.5,182.5C 728.5,199.833 733.5,217.167 738.5,234.5C 731.532,235.497 724.532,235.83 717.5,235.5C 713.518,218.856 709.518,202.189 705.5,185.5C 702.5,185.5 699.5,185.5 696.5,185.5C 696.5,202.167 696.5,218.833 696.5,235.5C 689.833,235.5 683.167,235.5 676.5,235.5C 676.5,198.833 676.5,162.167 676.5,125.5 Z"/></g>
<g><path style="opacity:1" fill="#fffcfb" d="M 737.5,125.5 C 743.833,125.5 750.167,125.5 756.5,125.5C 760.763,139.79 764.929,154.124 769,168.5C 773.514,154.62 777.848,140.62 782,126.5C 788.076,125.524 794.242,125.19 800.5,125.5C 793.842,147.974 786.676,170.307 779,192.5C 778.5,206.829 778.333,221.163 778.5,235.5C 772.167,235.5 765.833,235.5 759.5,235.5C 759.667,221.163 759.5,206.829 759,192.5C 751.722,170.168 744.556,147.835 737.5,125.5 Z"/></g>
<g><path style="opacity:1" fill="#fefffe" d="M 849.5,126.5 C 855.833,126.5 862.167,126.5 868.5,126.5C 868.5,162.833 868.5,199.167 868.5,235.5C 862.167,235.5 855.833,235.5 849.5,235.5C 849.5,199.167 849.5,162.833 849.5,126.5 Z"/></g>
<g><path style="opacity:1" fill="#ffd9c8" d="M 849.5,126.5 C 855.979,125.509 862.646,125.176 869.5,125.5C 869.832,162.337 869.498,199.004 868.5,235.5C 868.5,199.167 868.5,162.833 868.5,126.5C 862.167,126.5 855.833,126.5 849.5,126.5 Z"/></g>
<g><path style="opacity:1" fill="#feb796" d="M 893.5,126.5 C 888.833,126.5 884.167,126.5 879.5,126.5C 879.5,162.833 879.5,199.167 879.5,235.5C 878.502,199.004 878.168,162.337 878.5,125.5C 883.695,125.179 888.695,125.513 893.5,126.5 Z"/></g>
<g><path style="opacity:1" fill="#fffefe" d="M 893.5,126.5 C 901.985,146.141 910.485,165.807 919,185.5C 919.5,165.836 919.667,146.169 919.5,126.5C 924.833,126.5 930.167,126.5 935.5,126.5C 935.5,162.833 935.5,199.167 935.5,235.5C 931.116,235.826 926.783,235.492 922.5,234.5C 913.878,214.259 905.544,193.926 897.5,173.5C 897.217,172.711 896.717,172.044 896,171.5C 895.5,192.831 895.333,214.164 895.5,235.5C 890.167,235.5 884.833,235.5 879.5,235.5C 879.5,199.167 879.5,162.833 879.5,126.5C 884.167,126.5 888.833,126.5 893.5,126.5 Z"/></g>
<g><path style="opacity:1" fill="#ffd9c8" d="M 919.5,126.5 C 924.975,125.511 930.642,125.178 936.5,125.5C 936.832,162.337 936.498,199.004 935.5,235.5C 935.5,199.167 935.5,162.833 935.5,126.5C 930.167,126.5 924.833,126.5 919.5,126.5 Z"/></g>
<g><path style="opacity:1" fill="#fffefd" d="M 984.5,184.5 C 984.783,185.289 985.283,185.956 986,186.5C 986.5,166.169 986.667,145.836 986.5,125.5C 991.833,125.5 997.167,125.5 1002.5,125.5C 1002.5,162.167 1002.5,198.833 1002.5,235.5C 997.901,235.8 993.401,235.467 989,234.5C 980.333,213.833 971.667,193.167 963,172.5C 962.5,193.497 962.333,214.497 962.5,235.5C 956.833,235.5 951.167,235.5 945.5,235.5C 945.5,198.833 945.5,162.167 945.5,125.5C 950.214,125.173 954.88,125.507 959.5,126.5C 968.229,145.693 976.562,165.026 984.5,184.5 Z"/></g>
<g><path style="opacity:1" fill="#feb391" d="M 986.5,125.5 C 986.667,145.836 986.5,166.169 986,186.5C 985.283,185.956 984.783,185.289 984.5,184.5C 985.167,164.833 985.833,145.167 986.5,125.5 Z"/></g>
<g><path style="opacity:1" fill="#fffbfa" d="M 1075.5,125.5 C 1081.76,125.19 1087.92,125.524 1094,126.5C 1098.79,150.803 1103.46,175.136 1108,199.5C 1112.39,174.798 1116.89,150.131 1121.5,125.5C 1127.5,125.5 1133.5,125.5 1139.5,125.5C 1132.29,162.192 1124.96,198.859 1117.5,235.5C 1110.83,235.5 1104.17,235.5 1097.5,235.5C 1090.55,198.756 1083.22,162.089 1075.5,125.5 Z"/></g>
<g><path style="opacity:1" fill="#fffbf9" d="M 1199.5,233.5 C 1193.93,235.453 1187.93,236.12 1181.5,235.5C 1179.79,227.229 1178.46,218.896 1177.5,210.5C 1170.83,210.5 1164.17,210.5 1157.5,210.5C 1156.66,218.59 1155.32,226.59 1153.5,234.5C 1147.2,235.496 1140.87,235.83 1134.5,235.5C 1141.84,198.823 1149.17,162.157 1156.5,125.5C 1163.83,125.5 1171.17,125.5 1178.5,125.5C 1185.32,161.543 1192.32,197.543 1199.5,233.5 Z"/></g>
<g><path style="opacity:1" fill="#fffefd" d="M 1248.5,140.5 C 1242.5,140.5 1236.5,140.5 1230.5,140.5C 1230.5,172.167 1230.5,203.833 1230.5,235.5C 1223.83,235.5 1217.17,235.5 1210.5,235.5C 1210.5,203.833 1210.5,172.167 1210.5,140.5C 1204.5,140.5 1198.5,140.5 1192.5,140.5C 1192.5,135.5 1192.5,130.5 1192.5,125.5C 1211.17,125.5 1229.83,125.5 1248.5,125.5C 1248.5,130.5 1248.5,135.5 1248.5,140.5 Z"/></g>
<g><path style="opacity:1" fill="#fffefe" d="M 1250.5,125.5 C 1257.17,125.5 1263.83,125.5 1270.5,125.5C 1270.5,162.167 1270.5,198.833 1270.5,235.5C 1263.83,235.5 1257.17,235.5 1250.5,235.5C 1250.5,198.833 1250.5,162.167 1250.5,125.5 Z"/></g>
<g><path style="opacity:1" fill="#feb796" d="M 1363.5,126.5 C 1358.83,126.5 1354.17,126.5 1349.5,126.5C 1349.5,162.833 1349.5,199.167 1349.5,235.5C 1348.5,199.004 1348.17,162.337 1348.5,125.5C 1353.69,125.179 1358.69,125.513 1363.5,126.5 Z"/></g>
<g><path style="opacity:1" fill="#fffdfd" d="M 1363.5,126.5 C 1372.11,146.057 1380.45,165.724 1388.5,185.5C 1388.78,186.289 1389.28,186.956 1390,187.5C 1390.5,167.169 1390.67,146.836 1390.5,126.5C 1395.83,126.5 1401.17,126.5 1406.5,126.5C 1406.5,162.833 1406.5,199.167 1406.5,235.5C 1401.79,235.827 1397.12,235.493 1392.5,234.5C 1383.9,213.874 1375.4,193.207 1367,172.5C 1366.5,193.497 1366.33,214.497 1366.5,235.5C 1360.83,235.5 1355.17,235.5 1349.5,235.5C 1349.5,199.167 1349.5,162.833 1349.5,126.5C 1354.17,126.5 1358.83,126.5 1363.5,126.5 Z"/></g>
<g><path style="opacity:1" fill="#ffd9c8" d="M 1406.5,126.5 C 1401.17,126.5 1395.83,126.5 1390.5,126.5C 1390.67,146.836 1390.5,167.169 1390,187.5C 1389.28,186.956 1388.78,186.289 1388.5,185.5C 1389.5,165.674 1389.83,145.674 1389.5,125.5C 1395.36,125.178 1401.02,125.511 1406.5,126.5 Z"/></g>
<g><path style="opacity:1" fill="#fd6b28" d="M 1037.5,139.5 C 1044.2,138.27 1049.04,140.603 1052,146.5C 1052.67,168.833 1052.67,191.167 1052,213.5C 1050.99,219.337 1047.49,222.004 1041.5,221.5C 1035.12,221.961 1031.62,218.961 1031,212.5C 1030.33,190.833 1030.33,169.167 1031,147.5C 1032.3,144.039 1034.47,141.372 1037.5,139.5 Z"/></g>
<g><path style="opacity:1" fill="#fd6b28" d="M 1305.5,139.5 C 1314.12,137.714 1319.28,141.047 1321,149.5C 1321.67,170.167 1321.67,190.833 1321,211.5C 1319.25,220.883 1313.75,224.05 1304.5,221C 1302.19,219.363 1300.69,217.196 1300,214.5C 1299.33,191.5 1299.33,168.5 1300,145.5C 1301.36,142.977 1303.19,140.977 1305.5,139.5 Z"/></g>
<g><path style="opacity:1" fill="#fd6925" d="M 449.5,140.5 C 455.105,139.908 460.439,140.741 465.5,143C 466.211,144.255 467.044,145.421 468,146.5C 468.667,168.833 468.667,191.167 468,213.5C 467.214,216.583 465.381,218.749 462.5,220C 458.27,221.29 453.936,221.79 449.5,221.5C 449.5,194.5 449.5,167.5 449.5,140.5 Z"/></g>
<g><path style="opacity:1" fill="#fd6b28" d="M 696.5,139.5 C 714.434,138.655 720.934,146.988 716,164.5C 714.73,168.77 711.896,171.27 707.5,172C 703.848,172.499 700.182,172.665 696.5,172.5C 696.5,161.5 696.5,150.5 696.5,139.5 Z"/></g>
<g><path style="opacity:1" fill="#feaf8b" d="M 674.5,140.5 C 669.025,141.489 663.358,141.822 657.5,141.5C 657.832,173.004 657.498,204.338 656.5,235.5C 656.5,203.833 656.5,172.167 656.5,140.5C 662.5,140.5 668.5,140.5 674.5,140.5 Z"/></g>
<g><path style="opacity:1" fill="#fe8f5c" d="M 1248.5,140.5 C 1243.02,141.489 1237.36,141.822 1231.5,141.5C 1231.83,173.004 1231.5,204.338 1230.5,235.5C 1230.5,203.833 1230.5,172.167 1230.5,140.5C 1236.5,140.5 1242.5,140.5 1248.5,140.5 Z"/></g>
<g><path style="opacity:1" fill="#fd6d2b" d="M 1167.5,156.5 C 1170.46,169.599 1172.8,182.933 1174.5,196.5C 1169.83,196.5 1165.17,196.5 1160.5,196.5C 1162.62,183.096 1164.96,169.763 1167.5,156.5 Z"/></g>
<g><path style="opacity:1" fill="#fd6a27" d="M 186.5,165.5 C 199.746,163.871 207.913,169.538 211,182.5C 211.993,186.442 212.66,190.442 213,194.5C 213.667,213.833 213.667,233.167 213,252.5C 205.136,264.343 194.636,267.51 181.5,262C 175.233,255.883 172.067,248.383 172,239.5C 171.152,221.473 171.485,203.473 173,185.5C 173.871,176.17 178.371,169.503 186.5,165.5 Z"/></g>
<g><path style="opacity:1" fill="#fe905d" d="M 381.5,174.5 C 380.833,194.833 380.167,215.167 379.5,235.5C 379.333,214.164 379.5,192.831 380,171.5C 380.513,172.527 381.013,173.527 381.5,174.5 Z"/></g>
<g><path style="opacity:1" fill="#feb492" d="M 897.5,173.5 C 896.833,194.167 896.167,214.833 895.5,235.5C 895.333,214.164 895.5,192.831 896,171.5C 896.717,172.044 897.217,172.711 897.5,173.5 Z"/></g>
<g><path style="opacity:1" fill="#fffaf8" d="M 798.5,217.5 C 804.833,217.5 811.167,217.5 817.5,217.5C 817.666,224.175 817.5,230.842 817,237.5C 816.209,246.954 811.209,252.62 802,254.5C 800.659,251.978 799.826,249.311 799.5,246.5C 805.021,244.972 808.021,241.306 808.5,235.5C 805.167,235.5 801.833,235.5 798.5,235.5C 798.5,229.5 798.5,223.5 798.5,217.5 Z"/></g>
<g><path style="opacity:1" fill="#fe9160" d="M 1199.5,233.5 C 1200.4,234.209 1200.74,235.209 1200.5,236.5C 1193.98,236.823 1187.64,236.49 1181.5,235.5C 1187.93,236.12 1193.93,235.453 1199.5,233.5 Z"/></g>
<g><path style="opacity:1" fill="#fd8e5b" d="M 212.5,334.5 C 212.829,320.656 212.496,306.99 211.5,293.5C 211.783,292.711 212.283,292.044 213,291.5C 213.827,306.006 213.661,320.339 212.5,334.5 Z"/></g>
<g><path style="opacity:1" fill="#feb28f" d="M 370.5,305.5 C 363.08,305.203 355.746,305.536 348.5,306.5C 351.768,305.178 355.435,304.511 359.5,304.5C 363.349,304.501 367.016,304.835 370.5,305.5 Z"/></g>
<g><path style="opacity:1" fill="#feb28f" d="M 821.5,305.5 C 814.08,305.203 806.746,305.536 799.5,306.5C 802.768,305.178 806.435,304.511 810.5,304.5C 814.349,304.501 818.016,304.835 821.5,305.5 Z"/></g>
<g><path style="opacity:1" fill="#fffcfb" d="M 867.5,303.5 C 890.335,301.339 901.669,311.672 901.5,334.5C 895.801,334.907 890.134,335.573 884.5,336.5C 885.109,330.767 883.776,325.6 880.5,321C 867.887,317.611 863.054,322.445 866,335.5C 870.833,343 877,349.167 884.5,354C 893.015,360.889 899.181,369.389 903,379.5C 906.709,405.454 895.542,417.621 869.5,416C 852.535,410.947 844.868,399.447 846.5,381.5C 852.134,380.573 857.801,379.907 863.5,379.5C 863.715,385.029 864.882,390.362 867,395.5C 870.9,400.533 875.733,401.7 881.5,399C 885.984,390.673 885.15,382.84 879,375.5C 870.667,368.167 862.333,360.833 854,353.5C 846.046,342.078 844.38,329.744 849,316.5C 853.576,309.804 859.742,305.471 867.5,303.5 Z"/></g>
<g><path style="opacity:1" fill="#feb390" d="M 902.5,305.5 C 921.326,304.503 940.326,304.17 959.5,304.5C 959.5,309.833 959.5,315.167 959.5,320.5C 953.5,320.5 947.5,320.5 941.5,320.5C 946.975,319.511 952.642,319.178 958.5,319.5C 958.5,314.833 958.5,310.167 958.5,305.5C 939.833,305.5 921.167,305.5 902.5,305.5 Z"/></g>
<g><path style="opacity:1" fill="#fffdfc" d="M 1161.5,328.5 C 1161.5,333.833 1161.5,339.167 1161.5,344.5C 1155.17,344.5 1148.83,344.5 1142.5,344.5C 1142.93,337.053 1142.43,329.719 1141,322.5C 1136.8,318.286 1131.97,317.452 1126.5,320C 1124.88,322.08 1123.38,324.246 1122,326.5C 1121.33,347.833 1121.33,369.167 1122,390.5C 1124.51,401.089 1130.51,403.755 1140,398.5C 1140.67,397.167 1141.33,395.833 1142,394.5C 1142.5,387.508 1142.67,380.508 1142.5,373.5C 1149.17,373.5 1155.83,373.5 1162.5,373.5C 1163.86,385.548 1161.69,396.882 1156,407.5C 1147.64,415.152 1137.81,417.985 1126.5,416C 1111.89,413.72 1103.72,405.22 1102,390.5C 1101.33,369.5 1101.33,348.5 1102,327.5C 1106.81,308.501 1118.97,300.668 1138.5,304C 1152.89,305.889 1160.56,314.055 1161.5,328.5 Z"/></g>
<g><path style="opacity:1" fill="#fffcfa" d="M 370.5,305.5 C 377.925,342.137 385.258,378.803 392.5,415.5C 386.167,415.5 379.833,415.5 373.5,415.5C 372.384,406.802 371.05,398.135 369.5,389.5C 363.167,389.5 356.833,389.5 350.5,389.5C 349.007,397.139 347.674,404.806 346.5,412.5C 343.431,413.743 340.098,414.409 336.5,414.5C 333.087,414.483 330.087,413.816 327.5,412.5C 334.241,377.13 341.241,341.796 348.5,306.5C 355.746,305.536 363.08,305.203 370.5,305.5 Z"/></g>
<g><path style="opacity:1" fill="#ffd2bd" d="M 411.5,305.5 C 407.167,305.5 402.833,305.5 398.5,305.5C 398.5,341.833 398.5,378.167 398.5,414.5C 403.833,414.5 409.167,414.5 414.5,414.5C 409.025,415.489 403.358,415.822 397.5,415.5C 397.5,378.5 397.5,341.5 397.5,304.5C 402.363,304.181 407.03,304.514 411.5,305.5 Z"/></g>
<g><path style="opacity:1" fill="#fffefe" d="M 411.5,305.5 C 420.072,324.319 428.406,343.319 436.5,362.5C 436.987,363.473 437.487,364.473 438,365.5C 438.5,345.503 438.667,325.503 438.5,305.5C 443.833,305.5 449.167,305.5 454.5,305.5C 454.5,341.833 454.5,378.167 454.5,414.5C 450.167,414.5 445.833,414.5 441.5,414.5C 432.973,394.252 424.639,373.919 416.5,353.5C 416.217,352.711 415.717,352.044 415,351.5C 414.5,372.497 414.333,393.497 414.5,414.5C 409.167,414.5 403.833,414.5 398.5,414.5C 398.5,378.167 398.5,341.833 398.5,305.5C 402.833,305.5 407.167,305.5 411.5,305.5 Z"/></g>
<g><path style="opacity:1" fill="#fe8f5c" d="M 438.5,305.5 C 438.667,325.503 438.5,345.503 438,365.5C 437.487,364.473 436.987,363.473 436.5,362.5C 437.167,343.5 437.833,324.5 438.5,305.5 Z"/></g>
<g><path style="opacity:1" fill="#feb391" d="M 438.5,305.5 C 443.975,304.511 449.642,304.178 455.5,304.5C 455.5,341.5 455.5,378.5 455.5,415.5C 450.637,415.819 445.97,415.486 441.5,414.5C 445.833,414.5 450.167,414.5 454.5,414.5C 454.5,378.167 454.5,341.833 454.5,305.5C 449.167,305.5 443.833,305.5 438.5,305.5 Z"/></g>
<g><path style="opacity:1" fill="#feb28f" d="M 499.5,305.5 C 488.5,305.5 477.5,305.5 466.5,305.5C 466.5,341.833 466.5,378.167 466.5,414.5C 477.167,414.5 487.833,414.5 498.5,414.5C 487.679,415.495 476.679,415.828 465.5,415.5C 465.5,378.5 465.5,341.5 465.5,304.5C 477.012,304.172 488.346,304.505 499.5,305.5 Z"/></g>
<g><path style="opacity:1" fill="#fffdfc" d="M 499.5,305.5 C 514.402,306.238 523.235,313.905 526,328.5C 526.667,348.5 526.667,368.5 526,388.5C 524.42,405.248 515.254,413.914 498.5,414.5C 487.833,414.5 477.167,414.5 466.5,414.5C 466.5,378.167 466.5,341.833 466.5,305.5C 477.5,305.5 488.5,305.5 499.5,305.5 Z"/></g>
<g><path style="opacity:1" fill="#feb391" d="M 583.5,305.5 C 577.167,305.5 570.833,305.5 564.5,305.5C 564.5,341.833 564.5,378.167 564.5,414.5C 570.833,414.5 577.167,414.5 583.5,414.5C 577.021,415.491 570.354,415.824 563.5,415.5C 563.5,378.5 563.5,341.5 563.5,304.5C 570.354,304.176 577.021,304.509 583.5,305.5 Z"/></g>
<g><path style="opacity:1" fill="#fefffe" d="M 583.5,305.5 C 583.5,341.833 583.5,378.167 583.5,414.5C 577.167,414.5 570.833,414.5 564.5,414.5C 564.5,378.167 564.5,341.833 564.5,305.5C 570.833,305.5 577.167,305.5 583.5,305.5 Z"/></g>
<g><path style="opacity:1" fill="#fffdfd" d="M 634.5,364.5 C 634.783,365.289 635.283,365.956 636,366.5C 636.5,346.169 636.667,325.836 636.5,305.5C 641.833,305.5 647.167,305.5 652.5,305.5C 652.5,342.167 652.5,378.833 652.5,415.5C 647.901,415.8 643.401,415.467 639,414.5C 630.529,393.419 621.862,372.419 613,351.5C 612.5,372.831 612.333,394.164 612.5,415.5C 606.833,415.5 601.167,415.5 595.5,415.5C 595.5,378.5 595.5,341.5 595.5,304.5C 600.214,304.173 604.88,304.507 609.5,305.5C 618.128,325.083 626.461,344.75 634.5,364.5 Z"/></g>
<g><path style="opacity:1" fill="#ffd2be" d="M 652.5,305.5 C 647.167,305.5 641.833,305.5 636.5,305.5C 636.667,325.836 636.5,346.169 636,366.5C 635.283,365.956 634.783,365.289 634.5,364.5C 635.497,344.674 635.83,324.674 635.5,304.5C 641.358,304.178 647.025,304.511 652.5,305.5 Z"/></g>
<g><path style="opacity:1" fill="#fffdfc" d="M 708.5,318.5 C 700.167,318.5 691.833,318.5 683.5,318.5C 683.172,329.346 683.506,340.013 684.5,350.5C 690.833,350.5 697.167,350.5 703.5,350.5C 703.5,355.167 703.5,359.833 703.5,364.5C 696.833,364.5 690.167,364.5 683.5,364.5C 683.5,381.167 683.5,397.833 683.5,414.5C 677.021,415.491 670.354,415.824 663.5,415.5C 663.5,378.5 663.5,341.5 663.5,304.5C 678.5,304.5 693.5,304.5 708.5,304.5C 708.5,309.167 708.5,313.833 708.5,318.5 Z"/></g>
<g><path style="opacity:1" fill="#ffd2bd" d="M 746.5,305.5 C 735.833,305.5 725.167,305.5 714.5,305.5C 714.5,341.833 714.5,378.167 714.5,414.5C 714.167,414.5 713.833,414.5 713.5,414.5C 713.5,377.833 713.5,341.167 713.5,304.5C 724.679,304.172 735.679,304.505 746.5,305.5 Z"/></g>
<g><path style="opacity:1" fill="#fffdfc" d="M 746.5,305.5 C 759.709,305.18 768.542,311.18 773,323.5C 773.667,330.833 773.667,338.167 773,345.5C 771.655,352.181 767.989,357.181 762,360.5C 761.833,361.167 761.667,361.833 761.5,362.5C 766.327,379.475 770.993,396.475 775.5,413.5C 769.021,414.491 762.354,414.824 755.5,414.5C 751.631,398.021 747.297,381.688 742.5,365.5C 739.713,364.523 736.713,364.19 733.5,364.5C 733.5,381.167 733.5,397.833 733.5,414.5C 727.167,414.5 720.833,414.5 714.5,414.5C 714.5,378.167 714.5,341.833 714.5,305.5C 725.167,305.5 735.833,305.5 746.5,305.5 Z"/></g>
<g><path style="opacity:1" fill="#fffcfa" d="M 821.5,305.5 C 829.214,342.071 836.548,378.738 843.5,415.5C 837.167,415.5 830.833,415.5 824.5,415.5C 823.074,406.85 821.74,398.184 820.5,389.5C 814.132,389.17 807.798,389.504 801.5,390.5C 799.781,397.76 798.448,405.094 797.5,412.5C 794.431,413.743 791.098,414.409 787.5,414.5C 784.087,414.483 781.087,413.816 778.5,412.5C 785.241,377.13 792.241,341.796 799.5,306.5C 806.746,305.536 814.08,305.203 821.5,305.5 Z"/></g>
<g><path style="opacity:1" fill="#fffefe" d="M 902.5,305.5 C 921.167,305.5 939.833,305.5 958.5,305.5C 958.5,310.167 958.5,314.833 958.5,319.5C 952.642,319.178 946.975,319.511 941.5,320.5C 940.502,351.662 940.168,382.996 940.5,414.5C 934.167,414.5 927.833,414.5 921.5,414.5C 921.832,382.996 921.498,351.662 920.5,320.5C 914.5,320.5 908.5,320.5 902.5,320.5C 902.5,315.5 902.5,310.5 902.5,305.5 Z"/></g>
<g><path style="opacity:1" fill="#feb290" d="M 995.5,305.5 C 984.5,305.5 973.5,305.5 962.5,305.5C 962.5,341.833 962.5,378.167 962.5,414.5C 969.167,414.5 975.833,414.5 982.5,414.5C 975.687,415.491 968.687,415.825 961.5,415.5C 961.5,378.5 961.5,341.5 961.5,304.5C 973.012,304.172 984.346,304.505 995.5,305.5 Z"/></g>
<g><path style="opacity:1" fill="#fffdfc" d="M 995.5,305.5 C 1013.6,306.434 1022.6,315.934 1022.5,334C 1023.24,345.847 1018.91,355.181 1009.5,362C 1014.69,378.723 1019.35,395.556 1023.5,412.5C 1017.25,414.459 1010.58,415.126 1003.5,414.5C 999.81,398.075 995.644,381.742 991,365.5C 988.281,364.556 985.448,364.223 982.5,364.5C 982.5,381.167 982.5,397.833 982.5,414.5C 975.833,414.5 969.167,414.5 962.5,414.5C 962.5,378.167 962.5,341.833 962.5,305.5C 973.5,305.5 984.5,305.5 995.5,305.5 Z"/></g>
<g><path style="opacity:1" fill="#feb28f" d="M 1050.5,305.5 C 1044.17,305.5 1037.83,305.5 1031.5,305.5C 1031.5,332.5 1031.5,359.5 1031.5,386.5C 1030.5,359.338 1030.17,332.005 1030.5,304.5C 1037.35,304.176 1044.02,304.509 1050.5,305.5 Z"/></g>
<g><path style="opacity:1" fill="#fffefd" d="M 1050.5,305.5 C 1050.33,332.502 1050.5,359.502 1051,386.5C 1051.79,400.056 1058.12,403.723 1070,397.5C 1071.74,394.043 1072.74,390.377 1073,386.5C 1073.5,359.502 1073.67,332.502 1073.5,305.5C 1079.83,305.5 1086.17,305.5 1092.5,305.5C 1092.5,332.5 1092.5,359.5 1092.5,386.5C 1090.7,409.934 1078.03,419.767 1054.5,416C 1039.08,412.375 1031.42,402.542 1031.5,386.5C 1031.5,359.5 1031.5,332.5 1031.5,305.5C 1037.83,305.5 1044.17,305.5 1050.5,305.5 Z"/></g>
<g><path style="opacity:1" fill="#feb28f" d="M 1073.5,305.5 C 1079.98,304.509 1086.65,304.176 1093.5,304.5C 1093.83,332.005 1093.5,359.338 1092.5,386.5C 1092.5,359.5 1092.5,332.5 1092.5,305.5C 1086.17,305.5 1079.83,305.5 1073.5,305.5 Z"/></g>
<g><path style="opacity:1" fill="#fffcfa" d="M 1181.5,414.5 C 1181.5,382.833 1181.5,351.167 1181.5,319.5C 1175.17,319.5 1168.83,319.5 1162.5,319.5C 1162.5,314.5 1162.5,309.5 1162.5,304.5C 1181.5,304.5 1200.5,304.5 1219.5,304.5C 1219.5,309.833 1219.5,315.167 1219.5,320.5C 1213.5,320.5 1207.5,320.5 1201.5,320.5C 1201.5,352.167 1201.5,383.833 1201.5,415.5C 1194.65,415.824 1187.98,415.491 1181.5,414.5 Z"/></g>
<g><path style="opacity:1" fill="#fffefd" d="M 1221.5,305.5 C 1227.83,305.5 1234.17,305.5 1240.5,305.5C 1240.17,332.339 1240.5,359.005 1241.5,385.5C 1241.1,396.94 1246.43,401.773 1257.5,400C 1261.71,396.545 1263.71,392.045 1263.5,386.5C 1264.5,359.672 1264.83,332.672 1264.5,305.5C 1270.83,305.5 1277.17,305.5 1283.5,305.5C 1283.95,335.536 1283.45,365.536 1282,395.5C 1277.79,410.616 1267.79,417.616 1252,416.5C 1236.7,417.188 1227.03,410.188 1223,395.5C 1221.55,365.536 1221.05,335.536 1221.5,305.5 Z"/></g>
<g><path style="opacity:1" fill="#ffd3bf" d="M 1221.5,305.5 C 1227.98,304.509 1234.65,304.176 1241.5,304.5C 1241.5,331.5 1241.5,358.5 1241.5,385.5C 1240.5,359.005 1240.17,332.339 1240.5,305.5C 1234.17,305.5 1227.83,305.5 1221.5,305.5 Z"/></g>
<g><path style="opacity:1" fill="#ffd3bf" d="M 1283.5,305.5 C 1277.17,305.5 1270.83,305.5 1264.5,305.5C 1264.83,332.672 1264.5,359.672 1263.5,386.5C 1263.5,359.167 1263.5,331.833 1263.5,304.5C 1270.35,304.176 1277.02,304.509 1283.5,305.5 Z"/></g>
<g><path style="opacity:1" fill="#fffcfb" d="M 1322.5,365.5 C 1319.71,364.523 1316.71,364.19 1313.5,364.5C 1313.5,381.167 1313.5,397.833 1313.5,414.5C 1307.02,415.491 1300.35,415.824 1293.5,415.5C 1293.5,378.5 1293.5,341.5 1293.5,304.5C 1306.55,304.123 1319.55,304.623 1332.5,306C 1343.13,307.961 1349.96,314.127 1353,324.5C 1353.67,331.167 1353.67,337.833 1353,344.5C 1351.85,352.317 1347.68,357.817 1340.5,361C 1345.94,379.052 1350.94,397.219 1355.5,415.5C 1348.83,415.5 1342.17,415.5 1335.5,415.5C 1331.48,398.743 1327.14,382.077 1322.5,365.5 Z"/></g>
<g><path style="opacity:1" fill="#fffcfb" d="M 1403.5,350.5 C 1403.5,355.167 1403.5,359.833 1403.5,364.5C 1396.65,364.176 1389.98,364.509 1383.5,365.5C 1383.5,377.167 1383.5,388.833 1383.5,400.5C 1392.17,400.5 1400.83,400.5 1409.5,400.5C 1409.5,405.5 1409.5,410.5 1409.5,415.5C 1394.17,415.5 1378.83,415.5 1363.5,415.5C 1363.5,378.5 1363.5,341.5 1363.5,304.5C 1378.83,304.5 1394.17,304.5 1409.5,304.5C 1409.5,309.5 1409.5,314.5 1409.5,319.5C 1400.83,319.5 1392.17,319.5 1383.5,319.5C 1383.5,329.833 1383.5,340.167 1383.5,350.5C 1390.17,350.5 1396.83,350.5 1403.5,350.5 Z"/></g>
<g><path style="opacity:1" fill="#fd6925" d="M 486.5,319.5 C 491.248,319.275 495.915,319.775 500.5,321C 502.378,322.543 503.878,324.376 505,326.5C 505.667,348.5 505.667,370.5 505,392.5C 504.117,395.102 502.617,397.269 500.5,399C 495.934,400.309 491.267,400.809 486.5,400.5C 486.5,373.5 486.5,346.5 486.5,319.5 Z"/></g>
<g><path style="opacity:1" fill="#fe9a6c" d="M 708.5,318.5 C 700.684,319.492 692.684,319.826 684.5,319.5C 684.5,329.833 684.5,340.167 684.5,350.5C 683.506,340.013 683.172,329.346 683.5,318.5C 691.833,318.5 700.167,318.5 708.5,318.5 Z"/></g>
<g><path style="opacity:1" fill="#fd6926" d="M 734.5,319.5 C 747.864,316.385 754.531,321.552 754.5,335C 754.484,348.208 747.818,353.708 734.5,351.5C 734.5,340.833 734.5,330.167 734.5,319.5 Z"/></g>
<g><path style="opacity:1" fill="#fd6b28" d="M 982.5,319.5 C 1000.53,317.842 1007.03,325.842 1002,343.5C 1000.83,347.333 998.333,349.833 994.5,351C 990.514,351.499 986.514,351.666 982.5,351.5C 982.5,340.833 982.5,330.167 982.5,319.5 Z"/></g>
<g><path style="opacity:1" fill="#fe9666" d="M 1322.5,319.5 C 1319.83,319.5 1317.17,319.5 1314.5,319.5C 1314.5,330.167 1314.5,340.833 1314.5,351.5C 1313.51,340.679 1313.17,329.679 1313.5,318.5C 1316.71,318.19 1319.71,318.523 1322.5,319.5 Z"/></g>
<g><path style="opacity:1" fill="#fd6a26" d="M 1322.5,319.5 C 1328.16,319.578 1331.99,322.244 1334,327.5C 1338.06,344.467 1331.56,352.467 1314.5,351.5C 1314.5,340.833 1314.5,330.167 1314.5,319.5C 1317.17,319.5 1319.83,319.5 1322.5,319.5 Z"/></g>
<g><path style="opacity:1" fill="#feb391" d="M 920.5,320.5 C 921.498,351.662 921.832,382.996 921.5,414.5C 927.833,414.5 934.167,414.5 940.5,414.5C 940.168,382.996 940.502,351.662 941.5,320.5C 941.5,352.167 941.5,383.833 941.5,415.5C 934.5,415.5 927.5,415.5 920.5,415.5C 920.5,383.833 920.5,352.167 920.5,320.5 Z"/></g>
<g><path style="opacity:1" fill="#fe9463" d="M 1162.5,319.5 C 1168.83,319.5 1175.17,319.5 1181.5,319.5C 1181.5,351.167 1181.5,382.833 1181.5,414.5C 1180.5,383.338 1180.17,352.004 1180.5,320.5C 1174.31,320.823 1168.31,320.49 1162.5,319.5 Z"/></g>
<g><path style="opacity:1" fill="#fd6e2c" d="M 366.5,375.5 C 362.167,375.5 357.833,375.5 353.5,375.5C 353.5,374.167 353.5,372.833 353.5,371.5C 355.018,359.057 357.185,346.724 360,334.5C 362.602,348.109 364.768,361.775 366.5,375.5 Z"/></g>
<g><path style="opacity:1" fill="#fd6e2d" d="M 817.5,375.5 C 813.167,375.5 808.833,375.5 804.5,375.5C 804.5,374.167 804.5,372.833 804.5,371.5C 806.232,358.439 808.399,345.439 811,332.5C 813.385,346.809 815.552,361.143 817.5,375.5 Z"/></g>
<g><path style="opacity:1" fill="#ffbc9e" d="M 1161.5,328.5 C 1162.49,333.975 1162.82,339.642 1162.5,345.5C 1155.65,345.824 1148.98,345.491 1142.5,344.5C 1148.83,344.5 1155.17,344.5 1161.5,344.5C 1161.5,339.167 1161.5,333.833 1161.5,328.5 Z"/></g>
<g><path style="opacity:1" fill="#fe8f5c" d="M 416.5,353.5 C 415.833,373.833 415.167,394.167 414.5,414.5C 414.333,393.497 414.5,372.497 415,351.5C 415.717,352.044 416.217,352.711 416.5,353.5 Z"/></g>
<g><path style="opacity:1" fill="#feb290" d="M 1403.5,350.5 C 1404.49,355.305 1404.82,360.305 1404.5,365.5C 1397.5,365.5 1390.5,365.5 1383.5,365.5C 1389.98,364.509 1396.65,364.176 1403.5,364.5C 1403.5,359.833 1403.5,355.167 1403.5,350.5 Z"/></g>
<g><path style="opacity:1" fill="#fe9768" d="M 703.5,364.5 C 697.355,365.49 691.022,365.823 684.5,365.5C 684.83,382.009 684.496,398.342 683.5,414.5C 683.5,397.833 683.5,381.167 683.5,364.5C 690.167,364.5 696.833,364.5 703.5,364.5 Z"/></g>
<g><path style="opacity:1" fill="#feb08c" d="M 742.5,365.5 C 739.833,365.5 737.167,365.5 734.5,365.5C 734.5,382.167 734.5,398.833 734.5,415.5C 727.313,415.825 720.313,415.491 713.5,414.5C 713.833,414.5 714.167,414.5 714.5,414.5C 720.833,414.5 727.167,414.5 733.5,414.5C 733.5,397.833 733.5,381.167 733.5,364.5C 736.713,364.19 739.713,364.523 742.5,365.5 Z"/></g>
<g><path style="opacity:1" fill="#fe8f5c" d="M 1322.5,365.5 C 1319.83,365.5 1317.17,365.5 1314.5,365.5C 1314.83,382.009 1314.5,398.342 1313.5,414.5C 1313.5,397.833 1313.5,381.167 1313.5,364.5C 1316.71,364.19 1319.71,364.523 1322.5,365.5 Z"/></g>
<g><path style="opacity:1" fill="#fe9464" d="M 353.5,371.5 C 353.5,372.833 353.5,374.167 353.5,375.5C 357.833,375.5 362.167,375.5 366.5,375.5C 362.03,376.486 357.363,376.819 352.5,376.5C 352.216,374.585 352.549,372.919 353.5,371.5 Z"/></g>
<g><path style="opacity:1" fill="#fe9565" d="M 804.5,371.5 C 804.5,372.833 804.5,374.167 804.5,375.5C 808.833,375.5 813.167,375.5 817.5,375.5C 813.03,376.486 808.363,376.819 803.5,376.5C 803.216,374.585 803.549,372.919 804.5,371.5 Z"/></g>
<g><path style="opacity:1" fill="#feb28f" d="M 327.5,412.5 C 330.087,413.816 333.087,414.483 336.5,414.5C 340.098,414.409 343.431,413.743 346.5,412.5C 346.5,413.5 346.5,414.5 346.5,415.5C 339.833,415.5 333.167,415.5 326.5,415.5C 326.263,414.209 326.596,413.209 327.5,412.5 Z"/></g>
<g><path style="opacity:1" fill="#feb08d" d="M 775.5,413.5 C 776.043,413.56 776.376,413.893 776.5,414.5C 769.344,415.819 762.344,415.819 755.5,414.5C 762.354,414.824 769.021,414.491 775.5,413.5 Z"/></g>
<g><path style="opacity:1" fill="#feb390" d="M 778.5,412.5 C 781.087,413.816 784.087,414.483 787.5,414.5C 791.098,414.409 794.431,413.743 797.5,412.5C 797.5,413.5 797.5,414.5 797.5,415.5C 790.833,415.5 784.167,415.5 777.5,415.5C 777.263,414.209 777.596,413.209 778.5,412.5 Z"/></g>
<g><path style="opacity:1" fill="#feb18e" d="M 1023.5,412.5 C 1024.4,413.209 1024.74,414.209 1024.5,415.5C 1017.31,415.825 1010.31,415.491 1003.5,414.5C 1010.58,415.126 1017.25,414.459 1023.5,412.5 Z"/></g>
<g><path style="opacity:1" fill="#fffefd" d="M 753.5,556.5 C 757.273,556.263 760.94,556.763 764.5,558C 827.415,594.374 890.249,630.874 953,667.5C 954.439,669.275 955.439,671.275 956,673.5C 956.333,743.5 956.667,813.5 957,883.5C 1017.08,918.46 1077.25,953.293 1137.5,988C 1139.04,989.579 1140.21,991.413 1141,993.5C 1141.99,1068.89 1141.66,1144.22 1140,1219.5C 1136.78,1222.39 1133.28,1224.89 1129.5,1227C 1071,1260.41 1012.67,1294.08 954.5,1328C 948.006,1333.3 941.339,1333.64 934.5,1329C 875.585,1294.96 816.751,1260.79 758,1226.5C 698.582,1261.13 639.082,1295.63 579.5,1330C 575.625,1331.52 571.625,1331.85 567.5,1331C 504.833,1295 442.167,1259 379.5,1223C 376.894,1221.06 375.061,1218.56 374,1215.5C 373.333,1142.17 373.333,1068.83 374,995.5C 375.01,991.157 377.51,987.99 381.5,986C 440.912,952.212 500.078,918.046 559,883.5C 559.333,813.167 559.667,742.833 560,672.5C 560.667,671.167 561.333,669.833 562,668.5C 566.08,665.543 570.247,662.71 574.5,660C 634.557,625.978 694.223,591.478 753.5,556.5 Z"/></g>
<g><path style="opacity:1" fill="#fd6925" d="M 584.5,697.5 C 633.642,726.241 682.976,754.741 732.5,783C 683.5,811.5 634.5,840 585.5,868.5C 584.5,811.504 584.167,754.504 584.5,697.5 Z"/></g>
<g><path style="opacity:1" fill="#fd6926" d="M 930.5,697.5 C 931.831,754.335 931.831,811.335 930.5,868.5C 881.172,840.505 832.172,812.005 783.5,783C 832.669,754.637 881.669,726.137 930.5,697.5 Z"/></g>
<g><path style="opacity:1" fill="#fd6925" d="M 743.5,805.5 C 744.833,833.492 745.5,861.825 745.5,890.5C 745.167,918.833 744.833,947.167 744.5,975.5C 695.336,947.419 646.336,919.086 597.5,890.5C 646.23,862.14 694.896,833.807 743.5,805.5 Z"/></g>
<g><path style="opacity:1" fill="#ffd9c8" d="M 771.5,805.5 C 770.167,862.167 770.167,918.833 771.5,975.5C 771.44,976.043 771.107,976.376 770.5,976.5C 769.167,919.167 769.167,861.833 770.5,804.5C 771.107,804.624 771.44,804.957 771.5,805.5 Z"/></g>
<g><path style="opacity:1" fill="#fd6925" d="M 771.5,805.5 C 820.149,833.806 868.816,862.139 917.5,890.5C 869.169,919.335 820.502,947.668 771.5,975.5C 770.167,918.833 770.167,862.167 771.5,805.5 Z"/></g>
<g><path style="opacity:1" fill="#fd6925" d="M 941.5,905.5 C 943.655,905.372 945.655,905.872 947.5,907C 999.833,937.333 1052.17,967.667 1104.5,998C 1051.34,1028.41 998.336,1059.08 945.5,1090C 942.983,1090.26 940.65,1089.59 938.5,1088C 886.997,1057.75 835.33,1027.75 783.5,998C 836.336,967.303 889.003,936.47 941.5,905.5 Z"/></g>
<g><path style="opacity:1" fill="#feb492" d="M 1115.5,1020.5 C 1115.56,1019.96 1115.89,1019.62 1116.5,1019.5C 1117.83,1081.67 1117.83,1143.67 1116.5,1205.5C 1116.83,1143.66 1116.5,1082 1115.5,1020.5 Z"/></g>
<g><path style="opacity:1" fill="#fe8f5c" d="M 400.5,1020.5 C 399.501,1082 399.168,1143.66 399.5,1205.5C 398.168,1143.67 398.168,1081.67 399.5,1019.5C 400.107,1019.62 400.44,1019.96 400.5,1020.5 Z"/></g>
<g><path style="opacity:1" fill="#fd6925" d="M 400.5,1020.5 C 453.699,1050.93 506.699,1081.6 559.5,1112.5C 559.832,1174.34 559.499,1236 558.5,1297.5C 505.5,1266.83 452.5,1236.17 399.5,1205.5C 399.168,1143.66 399.501,1082 400.5,1020.5 Z"/></g>
<g><path style="opacity:1" fill="#fd6925" d="M 744.5,1019.5 C 745.665,1076.33 745.832,1133.33 745,1190.5C 695.751,1162.13 646.585,1133.63 597.5,1105C 646.563,1076.47 695.563,1047.97 744.5,1019.5 Z"/></g>
<g><path style="opacity:1" fill="#fd6925" d="M 1115.5,1020.5 C 1116.5,1082 1116.83,1143.66 1116.5,1205.5C 1063.28,1236.03 1010.11,1266.7 957,1297.5C 956.167,1235.5 956.333,1173.5 957.5,1111.5C 1010.19,1081.15 1062.86,1050.82 1115.5,1020.5 Z"/></g>
<g><path style="opacity:1" fill="#ffdac9" d="M 559.5,1112.5 C 560.832,1174.33 560.832,1236.33 559.5,1298.5C 558.893,1298.38 558.56,1298.04 558.5,1297.5C 559.499,1236 559.832,1174.34 559.5,1112.5 Z"/></g>
<g><path style="opacity:1" fill="#fd6925" d="M 584.5,1126.5 C 633.806,1155.15 683.139,1183.82 732.5,1212.5C 683.664,1241.09 634.664,1269.42 585.5,1297.5C 584.5,1240.5 584.167,1183.5 584.5,1126.5 Z"/></g>
</svg>
