<?xml version="1.0" encoding="UTF-8"?>
<!DOCTYPE svg PUBLIC "-//W3C//DTD SVG 1.1//EN" "http://www.w3.org/Graphics/SVG/1.1/DTD/svg11.dtd">
<svg xmlns="http://www.w3.org/2000/svg" version="1.1" width="1500px" height="1500px" style="shape-rendering:geometricPrecision; text-rendering:geometricPrecision; image-rendering:optimizeQuality; fill-rule:evenodd; clip-rule:evenodd" xmlns:xlink="http://www.w3.org/1999/xlink">
<g><path style="opacity:1" fill="#e5243b" d="M -0.5,-0.5 C 499.5,-0.5 999.5,-0.5 1499.5,-0.5C 1499.5,499.5 1499.5,999.5 1499.5,1499.5C 999.5,1499.5 499.5,1499.5 -0.5,1499.5C -0.5,999.5 -0.5,499.5 -0.5,-0.5 Z"/></g>
<g><path style="opacity:1" fill="#fefdfd" d="M 399.5,126.5 C 412.301,124.711 423.134,128.378 432,137.5C 434.455,141.531 436.121,145.864 437,150.5C 437.946,173.209 437.613,195.876 436,218.5C 433.359,229.476 426.526,235.976 415.5,238C 408.5,238.667 401.5,238.667 394.5,238C 382.96,234.452 376.46,226.618 375,214.5C 374.042,191.45 374.375,168.45 376,145.5C 379.942,134.287 387.776,127.954 399.5,126.5 Z"/></g>
<g><path style="opacity:1" fill="#fefefe" d="M 141.5,128.5 C 155.833,128.5 170.167,128.5 184.5,128.5C 184.5,223.833 184.5,319.167 184.5,414.5C 166.5,414.5 148.5,414.5 130.5,414.5C 130.5,338.167 130.5,261.833 130.5,185.5C 116.62,190.356 102.786,195.356 89,200.5C 88.3333,186.833 88.3333,173.167 89,159.5C 108.197,151.827 125.697,141.493 141.5,128.5 Z"/></g>
<g><path style="opacity:1" fill="#f8bcc3" d="M 141.5,128.5 C 155.99,127.504 170.657,127.171 185.5,127.5C 185.5,223.5 185.5,319.5 185.5,415.5C 166.992,415.83 148.659,415.497 130.5,414.5C 148.5,414.5 166.5,414.5 184.5,414.5C 184.5,319.167 184.5,223.833 184.5,128.5C 170.167,128.5 155.833,128.5 141.5,128.5 Z"/></g>
<g><path style="opacity:1" fill="#fefefe" d="M 344.5,187.5 C 344.56,188.043 344.893,188.376 345.5,188.5C 346.5,168.511 346.833,148.511 346.5,128.5C 351.833,128.5 357.167,128.5 362.5,128.5C 362.5,164.833 362.5,201.167 362.5,237.5C 357.833,237.5 353.167,237.5 348.5,237.5C 340.363,216.421 332.029,195.421 323.5,174.5C 323.44,173.957 323.107,173.624 322.5,173.5C 321.5,194.823 321.167,216.156 321.5,237.5C 316.167,237.5 310.833,237.5 305.5,237.5C 305.5,200.833 305.5,164.167 305.5,127.5C 310.214,127.173 314.88,127.507 319.5,128.5C 328.121,148.073 336.455,167.739 344.5,187.5 Z"/></g>
<g><path style="opacity:1" fill="#f8c8ce" d="M 362.5,128.5 C 357.167,128.5 351.833,128.5 346.5,128.5C 346.833,148.511 346.5,168.511 345.5,188.5C 344.893,188.376 344.56,188.043 344.5,187.5C 345.497,167.674 345.83,147.674 345.5,127.5C 351.358,127.178 357.025,127.511 362.5,128.5 Z"/></g>
<g><path style="opacity:1" fill="#e62e40" d="M 401.5,141.5 C 410.706,139.674 415.873,143.34 417,152.5C 417.667,172.5 417.667,192.5 417,212.5C 414.872,223.149 408.705,226.316 398.5,222C 396.932,219.696 395.765,217.196 395,214.5C 394.333,193.5 394.333,172.5 395,151.5C 395.435,146.945 397.602,143.611 401.5,141.5 Z"/></g>
<g><path style="opacity:1" fill="#f9c9cf" d="M 323.5,174.5 C 322.833,195.5 322.167,216.5 321.5,237.5C 321.167,216.156 321.5,194.823 322.5,173.5C 323.107,173.624 323.44,173.957 323.5,174.5 Z"/></g>
<g><path style="opacity:1" fill="#fefcfc" d="M 396.5,305.5 C 405.94,304.56 414.94,306.06 423.5,310C 430.604,315.364 434.771,322.53 436,331.5C 436.906,353.197 436.573,374.863 435,396.5C 431.876,409.325 423.709,416.492 410.5,418C 391.526,421.273 379.36,413.773 374,395.5C 373.333,372.833 373.333,350.167 374,327.5C 376.794,315.205 384.294,307.871 396.5,305.5 Z"/></g>
<g><path style="opacity:1" fill="#f18c97" d="M 462.5,307.5 C 456.402,306.883 450.735,307.55 445.5,309.5C 444.596,308.791 444.263,307.791 444.5,306.5C 450.69,306.177 456.69,306.51 462.5,307.5 Z"/></g>
<g><path style="opacity:1" fill="#f18c97" d="M 490.5,307.5 C 496.645,306.51 502.978,306.177 509.5,306.5C 509.737,307.791 509.404,308.791 508.5,309.5C 502.926,307.547 496.926,306.88 490.5,307.5 Z"/></g>
<g><path style="opacity:1" fill="#f2919c" d="M 745.5,307.5 C 751.678,306.183 758.012,306.183 764.5,307.5C 764.376,308.107 764.043,308.44 763.5,308.5C 757.69,307.51 751.69,307.177 745.5,307.5 Z"/></g>
<g><path style="opacity:1" fill="#ed6675" d="M 340.5,307.5 C 328.833,307.5 317.167,307.5 305.5,307.5C 305.5,343.833 305.5,380.167 305.5,416.5C 304.502,380.004 304.168,343.337 304.5,306.5C 316.678,306.172 328.678,306.505 340.5,307.5 Z"/></g>
<g><path style="opacity:1" fill="#fefcfd" d="M 340.5,307.5 C 353.022,308.014 360.856,314.347 364,326.5C 369.294,357.263 356.461,370.929 325.5,367.5C 325.5,383.833 325.5,400.167 325.5,416.5C 318.833,416.5 312.167,416.5 305.5,416.5C 305.5,380.167 305.5,343.833 305.5,307.5C 317.167,307.5 328.833,307.5 340.5,307.5 Z"/></g>
<g><path style="opacity:1" fill="#fefbfb" d="M 462.5,307.5 C 468.068,331.882 472.901,356.548 477,381.5C 481.455,356.812 485.955,332.146 490.5,307.5C 496.926,306.88 502.926,307.547 508.5,309.5C 501.531,345.362 494.198,381.028 486.5,416.5C 479.745,416.793 473.078,416.46 466.5,415.5C 459.502,380.177 452.502,344.844 445.5,309.5C 450.735,307.55 456.402,306.883 462.5,307.5 Z"/></g>
<g><path style="opacity:1" fill="#fefefe" d="M 519.5,307.5 C 534.833,307.5 550.167,307.5 565.5,307.5C 565.5,312.167 565.5,316.833 565.5,321.5C 556.833,321.5 548.167,321.5 539.5,321.5C 539.5,331.833 539.5,342.167 539.5,352.5C 546.167,352.5 552.833,352.5 559.5,352.5C 559.5,357.167 559.5,361.833 559.5,366.5C 552.833,366.5 546.167,366.5 539.5,366.5C 539.5,378.5 539.5,390.5 539.5,402.5C 548.167,402.5 556.833,402.5 565.5,402.5C 565.5,407.167 565.5,411.833 565.5,416.5C 550.167,416.5 534.833,416.5 519.5,416.5C 519.5,380.167 519.5,343.833 519.5,307.5 Z"/></g>
<g><path style="opacity:1" fill="#fefdfd" d="M 605.5,367.5 C 602.713,366.523 599.713,366.19 596.5,366.5C 596.5,383.167 596.5,399.833 596.5,416.5C 589.833,416.5 583.167,416.5 576.5,416.5C 576.5,380.167 576.5,343.833 576.5,307.5C 589.171,307.333 601.838,307.5 614.5,308C 626.143,309.646 633.31,316.146 636,327.5C 637.507,337.601 636.174,347.268 632,356.5C 629.443,359.192 626.609,361.525 623.5,363.5C 628.973,381.062 633.973,398.729 638.5,416.5C 631.8,416.83 625.134,416.497 618.5,415.5C 614.158,399.489 609.825,383.489 605.5,367.5 Z"/></g>
<g><path style="opacity:1" fill="#fefffe" d="M 699.5,321.5 C 693.5,321.5 687.5,321.5 681.5,321.5C 681.5,353.167 681.5,384.833 681.5,416.5C 674.833,416.5 668.167,416.5 661.5,416.5C 661.5,384.833 661.5,353.167 661.5,321.5C 655.5,321.5 649.5,321.5 643.5,321.5C 643.5,316.833 643.5,312.167 643.5,307.5C 662.167,307.5 680.833,307.5 699.5,307.5C 699.5,312.167 699.5,316.833 699.5,321.5 Z"/></g>
<g><path style="opacity:1" fill="#fefcfc" d="M 745.5,307.5 C 751.69,307.177 757.69,307.51 763.5,308.5C 756.5,330.501 749.5,352.501 742.5,374.5C 741.504,388.323 741.171,402.323 741.5,416.5C 735.167,416.5 728.833,416.5 722.5,416.5C 722.667,401.83 722.5,387.163 722,372.5C 715.134,350.734 707.967,329.067 700.5,307.5C 706.833,306.167 713.167,306.167 719.5,307.5C 724.008,321.545 728.508,335.545 733,349.5C 736.875,335.377 741.042,321.377 745.5,307.5 Z"/></g>
<g><path style="opacity:1" fill="#e5273c" d="M 325.5,321.5 C 330.959,321.103 336.292,321.603 341.5,323C 344.981,326.751 346.314,331.251 345.5,336.5C 346.649,350.962 339.983,356.629 325.5,353.5C 325.5,342.833 325.5,332.167 325.5,321.5 Z"/></g>
<g><path style="opacity:1" fill="#e5263c" d="M 400.5,320.5 C 407.204,319.27 412.038,321.603 415,327.5C 415.667,349.833 415.667,372.167 415,394.5C 411.663,403.249 405.829,405.415 397.5,401C 395.683,399.2 394.516,397.034 394,394.5C 393.333,372.5 393.333,350.5 394,328.5C 395.305,325.039 397.471,322.372 400.5,320.5 Z"/></g>
<g><path style="opacity:1" fill="#ed6674" d="M 605.5,321.5 C 602.833,321.5 600.167,321.5 597.5,321.5C 597.5,332.167 597.5,342.833 597.5,353.5C 596.505,342.679 596.172,331.679 596.5,320.5C 599.713,320.19 602.713,320.523 605.5,321.5 Z"/></g>
<g><path style="opacity:1" fill="#e5263c" d="M 605.5,321.5 C 611.377,321.208 615.21,323.875 617,329.5C 621.066,346.438 614.566,354.438 597.5,353.5C 597.5,342.833 597.5,332.167 597.5,321.5C 600.167,321.5 602.833,321.5 605.5,321.5 Z"/></g>
<g><path style="opacity:1" fill="#ed6372" d="M 699.5,321.5 C 694.025,322.489 688.358,322.822 682.5,322.5C 682.832,354.004 682.498,385.338 681.5,416.5C 681.5,384.833 681.5,353.167 681.5,321.5C 687.5,321.5 693.5,321.5 699.5,321.5 Z"/></g>
<g><path style="opacity:1" fill="#ec5b6c" d="M 605.5,367.5 C 602.833,367.5 600.167,367.5 597.5,367.5C 597.83,384.009 597.496,400.342 596.5,416.5C 596.5,399.833 596.5,383.167 596.5,366.5C 599.713,366.19 602.713,366.523 605.5,367.5 Z"/></g>
<g><path style="opacity:1" fill="#ec5b6b" d="M 466.5,415.5 C 473.078,416.46 479.745,416.793 486.5,416.5C 483.351,417.165 480.018,417.498 476.5,417.5C 472.761,417.486 469.428,416.82 466.5,415.5 Z"/></g>
<g><path style="opacity:1" fill="#ef717e" d="M 742.5,374.5 C 742.5,388.833 742.5,403.167 742.5,417.5C 735.646,417.824 728.979,417.491 722.5,416.5C 728.833,416.5 735.167,416.5 741.5,416.5C 741.171,402.323 741.504,388.323 742.5,374.5 Z"/></g>
<g><path style="opacity:1" fill="#fefefe" d="M 265.5,673.5 C 287.098,670.179 303.265,677.845 314,696.5C 321.779,717.304 317.279,734.804 300.5,749C 284.71,758.58 268.71,758.914 252.5,750C 234.124,734.994 229.624,716.494 239,694.5C 245.362,684.253 254.196,677.253 265.5,673.5 Z"/></g>
<g><path style="opacity:1" fill="#fefdfd" d="M 1189.5,673.5 C 1215.98,670.307 1233.15,681.307 1241,706.5C 1243.24,732.231 1232.08,748.731 1207.5,756C 1189.13,758.77 1174.63,752.603 1164,737.5C 1152.85,715.926 1156.35,697.093 1174.5,681C 1179.32,677.921 1184.32,675.421 1189.5,673.5 Z"/></g>
<g><path style="opacity:1" fill="#fefdfd" d="M 629.5,696.5 C 654.96,697.963 668.96,711.296 671.5,736.5C 669.792,761.707 656.292,775.041 631,776.5C 606.811,774.144 593.978,760.81 592.5,736.5C 594.479,713.523 606.812,700.19 629.5,696.5 Z"/></g>
<g><path style="opacity:1" fill="#fefdfd" d="M 861.5,697.5 C 884.611,695.132 900.111,704.799 908,726.5C 911.886,750.242 902.719,766.409 880.5,775C 854.175,779.669 837.341,769.169 830,743.5C 828.408,719.637 838.908,704.303 861.5,697.5 Z"/></g>
<g><path style="opacity:1" fill="#fefdfd" d="M 721.5,1024.5 C 707.5,1025.17 693.5,1025.83 679.5,1026.5C 679.667,1067.83 679.5,1109.17 679,1150.5C 672.515,1165.99 661.681,1170.16 646.5,1163C 641.471,1159.44 638.638,1154.61 638,1148.5C 637.5,1107.5 637.333,1066.5 637.5,1025.5C 633.833,1025.5 630.167,1025.5 626.5,1025.5C 626.667,1067.17 626.5,1108.83 626,1150.5C 619.515,1165.99 608.681,1170.16 593.5,1163C 589.072,1159.91 586.239,1155.74 585,1150.5C 584.5,1109.17 584.333,1067.83 584.5,1026.5C 570.304,1026.16 556.304,1025.16 542.5,1023.5C 557.383,968.073 572.55,912.74 588,857.5C 588.636,849.102 585.636,847.435 579,852.5C 571.793,877.533 564.46,902.533 557,927.5C 554.458,936.006 551.458,944.34 548,952.5C 539.315,961.608 530.481,961.775 521.5,953C 520.833,952.333 520.167,952.333 519.5,953C 508.475,973.548 497.308,994.048 486,1014.5C 484.464,1020.75 484.13,1027.08 485,1033.5C 490.686,1054.58 496.52,1075.58 502.5,1096.5C 496.537,1097.5 490.537,1097.83 484.5,1097.5C 484.667,1116.84 484.5,1136.17 484,1155.5C 477.717,1166.93 468.884,1169.43 457.5,1163C 454.769,1160.37 452.936,1157.21 452,1153.5C 451.5,1134.84 451.333,1116.17 451.5,1097.5C 448.5,1097.5 445.5,1097.5 442.5,1097.5C 442.667,1116.5 442.5,1135.5 442,1154.5C 436.682,1165.96 428.182,1169.13 416.5,1164C 413.457,1161.41 411.29,1158.24 410,1154.5C 409.5,1135.5 409.333,1116.5 409.5,1097.5C 403.833,1097.5 398.167,1097.5 392.5,1097.5C 397.484,1076.04 402.984,1054.71 409,1033.5C 409.667,1027.83 409.667,1022.17 409,1016.5C 397.333,995.167 385.667,973.833 374,952.5C 366.71,961.176 358.21,962.676 348.5,957C 346.383,955.269 344.883,953.102 344,950.5C 342.685,913.56 342.019,876.56 342,839.5C 339.441,836.651 336.274,835.817 332.5,837C 331.299,837.903 330.465,839.069 330,840.5C 329.667,942.5 329.333,1044.5 329,1146.5C 325.357,1160.74 316.19,1167.24 301.5,1166C 292.236,1163.45 286.069,1157.62 283,1148.5C 282.667,1088.17 282.333,1027.83 282,967.5C 278,963.5 274,963.5 270,967.5C 269.985,1028.54 269.318,1089.54 268,1150.5C 261.768,1163.53 251.601,1168.37 237.5,1165C 229.643,1161.15 224.81,1154.98 223,1146.5C 222.667,1044.5 222.333,942.5 222,840.5C 219.947,836.708 216.781,835.542 212.5,837C 211.667,837.833 210.833,838.667 210,839.5C 209.667,875.167 209.333,910.833 209,946.5C 207.886,951.771 205.052,955.771 200.5,958.5C 187.25,1025.41 174.417,1092.41 162,1159.5C 161.594,1162.49 160.094,1164.66 157.5,1166C 150.071,1168.56 145.737,1166.06 144.5,1158.5C 156.419,1091.31 169.086,1024.31 182.5,957.5C 179.65,955.135 177.816,952.135 177,948.5C 176.333,905.167 176.333,861.833 177,818.5C 182.213,795.621 196.046,780.787 218.5,774C 255.128,772.365 291.794,772.032 328.5,773C 353.576,778.41 369.076,793.577 375,818.5C 375.333,858.833 375.667,899.167 376,939.5C 383.323,933.665 389.99,934.332 396,941.5C 402.082,952 408.416,962.334 415,972.5C 417.383,975.273 420.217,977.439 423.5,979C 439.9,979.955 456.234,979.622 472.5,978C 474.96,976.542 477.127,974.709 479,972.5C 486.376,960.915 493.876,949.415 501.5,938C 507.389,934.366 512.889,934.866 518,939.5C 528.734,901.634 540.067,863.968 552,826.5C 557.626,811.205 568.126,801.039 583.5,796C 615.833,795.333 648.167,795.333 680.5,796C 695.882,801.048 706.382,811.214 712,826.5C 723.017,862.213 734.017,897.88 745,933.5C 748.665,950.811 741.832,959.311 724.5,959C 721.098,957.6 718.264,955.433 716,952.5C 713.545,947.681 711.545,942.681 710,937.5C 702.073,909.053 693.74,880.72 685,852.5C 681.818,848.576 678.818,848.576 676,852.5C 676.008,856.883 676.674,861.216 678,865.5C 692.692,918.469 707.192,971.469 721.5,1024.5 Z"/></g>
<g><path style="opacity:1" fill="#fefefe" d="M 1147.5,772.5 C 1181.5,772.333 1215.5,772.5 1249.5,773C 1267.43,775.038 1281.26,783.538 1291,798.5C 1294.17,803.834 1296.5,809.501 1298,815.5C 1299.63,859.801 1299.97,904.134 1299,948.5C 1295.12,958.364 1287.95,962.197 1277.5,960C 1272.24,957.744 1268.74,953.91 1267,948.5C 1266.67,912.5 1266.33,876.5 1266,840.5C 1263.49,836.788 1259.99,835.622 1255.5,837C 1254.54,838.419 1253.71,839.919 1253,841.5C 1252.67,944.5 1252.33,1047.5 1252,1150.5C 1244.3,1165.18 1232.8,1169.35 1217.5,1163C 1211.93,1159.71 1208.43,1154.88 1207,1148.5C 1206.67,1088.5 1206.33,1028.5 1206,968.5C 1205.53,967.069 1204.7,965.903 1203.5,965C 1200.83,964.333 1198.17,964.333 1195.5,965C 1194.3,965.903 1193.47,967.069 1193,968.5C 1192.67,1028.83 1192.33,1089.17 1192,1149.5C 1186.28,1163.28 1176.11,1168.44 1161.5,1165C 1153.84,1162 1149,1156.5 1147,1148.5C 1146.67,1046.17 1146.33,943.833 1146,841.5C 1144.51,836.784 1141.34,835.284 1136.5,837C 1135,837.833 1133.83,839 1133,840.5C 1132.67,876.833 1132.33,913.167 1132,949.5C 1125.69,960.936 1116.86,963.436 1105.5,957C 1103.88,954.92 1102.38,952.754 1101,950.5C 1100.02,904.454 1100.35,858.454 1102,812.5C 1109.91,790.749 1125.08,777.415 1147.5,772.5 Z"/></g>
<g><path style="opacity:1" fill="#fefefe" d="M 959.5,1025.5 C 945.167,1025.5 930.833,1025.5 916.5,1025.5C 916.5,1065.83 916.5,1106.17 916.5,1146.5C 913.423,1162.72 903.757,1168.88 887.5,1165C 882.667,1162.83 879.167,1159.33 877,1154.5C 875.683,1111.89 875.016,1069.23 875,1026.5C 871.27,1025.54 867.437,1025.21 863.5,1025.5C 863.667,1067.17 863.5,1108.83 863,1150.5C 858.005,1163.91 848.505,1168.75 834.5,1165C 828.508,1162.34 824.675,1157.84 823,1151.5C 822.667,1109.83 822.333,1068.17 822,1026.5C 807.912,1025.51 793.745,1025.18 779.5,1025.5C 794.714,968.683 810.047,911.85 825.5,855C 825.414,850.251 823.08,848.585 818.5,850C 817.299,850.903 816.465,852.069 816,853.5C 806.396,886.309 796.396,918.976 786,951.5C 778.571,960.609 770.071,961.776 760.5,955C 755.769,948.962 754.269,942.129 756,934.5C 767.337,897.822 778.671,861.156 790,824.5C 796.338,810.826 806.505,801.326 820.5,796C 852.5,795.333 884.5,795.333 916.5,796C 932.049,800.545 942.882,810.378 949,825.5C 960.324,862.14 971.657,898.807 983,935.5C 984.825,953.31 976.992,960.81 959.5,958C 955.245,954.734 952.078,950.568 950,945.5C 940.857,913.422 931.024,881.589 920.5,850C 915.671,848.662 913.338,850.496 913.5,855.5C 928.519,912.242 943.852,968.908 959.5,1025.5 Z"/></g>
<g><path style="opacity:1" fill="#fefdfd" d="M 440.5,892.5 C 468.376,892.206 481.21,905.873 479,933.5C 472.807,952.662 459.64,960.829 439.5,958C 419.69,951.232 411.523,937.399 415,916.5C 419.217,903.778 427.717,895.778 440.5,892.5 Z"/></g>
<g><path style="opacity:1" fill="#fefdfd" d="M 1035.5,892.5 C 1063.38,892.206 1076.21,905.873 1074,933.5C 1067.81,952.662 1054.64,960.829 1034.5,958C 1014.68,951.219 1006.52,937.386 1010,916.5C 1014.22,903.778 1022.72,895.778 1035.5,892.5 Z"/></g>
<g><path style="opacity:1" fill="#fefcfc" d="M 1010.5,971.5 C 1031.5,971.333 1052.5,971.5 1073.5,972C 1084.59,973.753 1092.09,979.92 1096,990.5C 1104.08,1012.41 1112.75,1034.07 1122,1055.5C 1122.76,1069.1 1116.76,1074.1 1104,1070.5C 1096.86,1051.4 1089.52,1032.4 1082,1013.5C 1081.67,1059.83 1081.33,1106.17 1081,1152.5C 1076.26,1165.79 1067.43,1169.62 1054.5,1164C 1051.57,1161.74 1049.4,1158.9 1048,1155.5C 1046.7,1134.23 1046.03,1112.9 1046,1091.5C 1043.33,1088.83 1040.67,1088.83 1038,1091.5C 1037.67,1111.5 1037.33,1131.5 1037,1151.5C 1032.81,1165.51 1023.98,1169.68 1010.5,1164C 1007.57,1161.74 1005.4,1158.9 1004,1155.5C 1002.85,1108.22 1002.01,1060.89 1001.5,1013.5C 999.346,1016.43 997.846,1019.77 997,1023.5C 992.287,1039.92 987.287,1056.26 982,1072.5C 976.843,1078.07 971.01,1078.91 964.5,1075C 960.759,1069.01 960.593,1062.84 964,1056.5C 971.138,1038.09 978.471,1019.75 986,1001.5C 989.903,991.287 995.737,982.454 1003.5,975C 1005.93,973.787 1008.26,972.621 1010.5,971.5 Z"/></g>
<g><path style="opacity:1" fill="#f1919c" d="M 542.5,1023.5 C 556.304,1025.16 570.304,1026.16 584.5,1026.5C 570.167,1026.5 555.833,1026.5 541.5,1026.5C 541.263,1025.21 541.596,1024.21 542.5,1023.5 Z"/></g>
<g><path style="opacity:1" fill="#f1919c" d="M 721.5,1024.5 C 722.043,1024.56 722.376,1024.89 722.5,1025.5C 708.182,1026.5 693.849,1026.83 679.5,1026.5C 693.5,1025.83 707.5,1025.17 721.5,1024.5 Z"/></g>
<g><path style="opacity:1" fill="#ed6776" d="M 959.5,1025.5 C 945.677,1026.5 931.677,1026.83 917.5,1026.5C 917.832,1066.67 917.499,1106.67 916.5,1146.5C 916.5,1106.17 916.5,1065.83 916.5,1025.5C 930.833,1025.5 945.167,1025.5 959.5,1025.5 Z"/></g>
</svg>
