<?xml version="1.0" encoding="UTF-8"?>
<!DOCTYPE svg PUBLIC "-//W3C//DTD SVG 1.1//EN" "http://www.w3.org/Graphics/SVG/1.1/DTD/svg11.dtd">
<svg xmlns="http://www.w3.org/2000/svg" version="1.1" width="1500px" height="1500px" style="shape-rendering:geometricPrecision; text-rendering:geometricPrecision; image-rendering:optimizeQuality; fill-rule:evenodd; clip-rule:evenodd" xmlns:xlink="http://www.w3.org/1999/xlink">
<g><path style="opacity:1" fill="#dd1367" d="M -0.5,-0.5 C 499.5,-0.5 999.5,-0.5 1499.5,-0.5C 1499.5,499.5 1499.5,999.5 1499.5,1499.5C 999.5,1499.5 499.5,1499.5 -0.5,1499.5C -0.5,999.5 -0.5,499.5 -0.5,-0.5 Z"/></g>
<g><path style="opacity:1" fill="#fefefe" d="M 272.5,124.5 C 291.485,122.573 309.818,125.073 327.5,132C 348.881,145.099 361.048,164.265 364,189.5C 364.667,243.833 364.667,298.167 364,352.5C 361.036,381.975 346.202,402.808 319.5,415C 302.087,419.762 284.421,420.762 266.5,418C 237.298,410.129 219.798,391.296 214,361.5C 213.042,356.877 212.375,352.21 212,347.5C 211.333,296.5 211.333,245.5 212,194.5C 213.492,174.336 220.992,156.836 234.5,142C 245.612,132.608 258.278,126.775 272.5,124.5 Z"/></g>
<g><path style="opacity:1" fill="#fefcfd" d="M 806.5,151.5 C 806.5,156.833 806.5,162.167 806.5,167.5C 800.167,167.5 793.833,167.5 787.5,167.5C 787.929,160.053 787.429,152.719 786,145.5C 781.8,141.286 776.966,140.452 771.5,143C 769.19,144.637 767.69,146.804 767,149.5C 766.333,171.167 766.333,192.833 767,214.5C 768.9,222.873 774.066,225.706 782.5,223C 784,222.167 785.167,221 786,219.5C 787.432,211.946 787.932,204.279 787.5,196.5C 794.167,196.5 800.833,196.5 807.5,196.5C 809.953,232.557 793.953,245.391 759.5,235C 752.384,229.608 748.217,222.441 747,213.5C 746.333,192.5 746.333,171.5 747,150.5C 751.722,131.535 763.889,123.702 783.5,127C 797.864,128.864 805.531,137.031 806.5,151.5 Z"/></g>
<g><path style="opacity:1" fill="#fefefe" d="M 88.5,199.5 C 87.5044,186.344 87.1711,173.01 87.5,159.5C 106.253,151.628 123.586,141.462 139.5,129C 154.163,128.5 168.83,128.333 183.5,128.5C 183.5,223.833 183.5,319.167 183.5,414.5C 165.167,414.5 146.833,414.5 128.5,414.5C 128.833,338.164 128.5,261.83 127.5,185.5C 114.629,190.568 101.629,195.235 88.5,199.5 Z"/></g>
<g><path style="opacity:1" fill="#ef92b8" d="M 510.5,128.5 C 499.833,128.5 489.167,128.5 478.5,128.5C 478.5,164.833 478.5,201.167 478.5,237.5C 477.502,201.004 477.168,164.337 477.5,127.5C 488.679,127.172 499.679,127.505 510.5,128.5 Z"/></g>
<g><path style="opacity:1" fill="#fefdfd" d="M 510.5,128.5 C 523.796,128.212 532.629,134.212 537,146.5C 537.87,154.897 537.537,163.23 536,171.5C 535.439,173.725 534.439,175.725 533,177.5C 530.298,179.907 527.798,182.407 525.5,185C 530.402,202.443 535.069,219.943 539.5,237.5C 532.833,237.5 526.167,237.5 519.5,237.5C 515.808,221.064 511.641,204.731 507,188.5C 504.281,187.556 501.448,187.223 498.5,187.5C 498.5,204.167 498.5,220.833 498.5,237.5C 491.833,237.5 485.167,237.5 478.5,237.5C 478.5,201.167 478.5,164.833 478.5,128.5C 489.167,128.5 499.833,128.5 510.5,128.5 Z"/></g>
<g><path style="opacity:1" fill="#fefdfd" d="M 590.5,187.5 C 583.5,187.5 576.5,187.5 569.5,187.5C 569.5,199.5 569.5,211.5 569.5,223.5C 577.984,224.493 586.651,224.826 595.5,224.5C 595.5,228.833 595.5,233.167 595.5,237.5C 580.167,237.5 564.833,237.5 549.5,237.5C 549.5,200.833 549.5,164.167 549.5,127.5C 564.833,127.5 580.167,127.5 595.5,127.5C 595.5,132.5 595.5,137.5 595.5,142.5C 586.833,142.5 578.167,142.5 569.5,142.5C 569.5,152.833 569.5,163.167 569.5,173.5C 576.5,173.5 583.5,173.5 590.5,173.5C 590.5,178.167 590.5,182.833 590.5,187.5 Z"/></g>
<g><path style="opacity:1" fill="#f6c3d8" d="M 636.5,128.5 C 625.833,128.5 615.167,128.5 604.5,128.5C 604.5,164.833 604.5,201.167 604.5,237.5C 603.502,201.004 603.168,164.337 603.5,127.5C 614.679,127.172 625.679,127.505 636.5,128.5 Z"/></g>
<g><path style="opacity:1" fill="#fefdfd" d="M 636.5,128.5 C 653.27,129.103 662.437,137.77 664,154.5C 664.927,174.871 664.593,195.204 663,215.5C 660.258,228.242 652.425,235.409 639.5,237C 627.838,237.5 616.171,237.667 604.5,237.5C 604.5,201.167 604.5,164.833 604.5,128.5C 615.167,128.5 625.833,128.5 636.5,128.5 Z"/></g>
<g><path style="opacity:1" fill="#fefefe" d="M 716.5,128.5 C 722.833,128.5 729.167,128.5 735.5,128.5C 735.5,155.167 735.5,181.833 735.5,208.5C 735.555,217.839 732.555,226.005 726.5,233C 723.205,235.434 719.538,237.101 715.5,238C 708.5,238.667 701.5,238.667 694.5,238C 682.008,234.165 675.508,225.665 675,212.5C 674.5,184.169 674.333,155.835 674.5,127.5C 680.833,127.5 687.167,127.5 693.5,127.5C 693.333,155.502 693.5,183.502 694,211.5C 694.96,221.059 700.127,224.893 709.5,223C 713.895,220.527 716.062,216.694 716,211.5C 716.5,183.835 716.667,156.169 716.5,128.5 Z"/></g>
<g><path style="opacity:1" fill="#f6c0d6" d="M 716.5,128.5 C 722.979,127.509 729.646,127.176 736.5,127.5C 736.831,154.672 736.498,181.672 735.5,208.5C 735.5,181.833 735.5,155.167 735.5,128.5C 729.167,128.5 722.833,128.5 716.5,128.5 Z"/></g>
<g><path style="opacity:1" fill="#fefdfd" d="M 817.5,127.5 C 832.833,127.5 848.167,127.5 863.5,127.5C 863.5,132.5 863.5,137.5 863.5,142.5C 854.833,142.5 846.167,142.5 837.5,142.5C 837.5,152.833 837.5,163.167 837.5,173.5C 844.167,173.5 850.833,173.5 857.5,173.5C 857.5,178.167 857.5,182.833 857.5,187.5C 850.833,187.5 844.167,187.5 837.5,187.5C 837.5,199.5 837.5,211.5 837.5,223.5C 846.167,223.5 854.833,223.5 863.5,223.5C 863.5,228.167 863.5,232.833 863.5,237.5C 848.167,237.5 832.833,237.5 817.5,237.5C 817.5,200.833 817.5,164.167 817.5,127.5 Z"/></g>
<g><path style="opacity:1" fill="#fefdfe" d="M 871.5,127.5 C 882.505,127.333 893.505,127.5 904.5,128C 918.9,128.435 927.734,135.602 931,149.5C 931.667,170.833 931.667,192.167 931,213.5C 929.279,226.888 921.779,234.721 908.5,237C 896.171,237.5 883.838,237.667 871.5,237.5C 871.5,200.833 871.5,164.167 871.5,127.5 Z"/></g>
<g><path style="opacity:1" fill="#de1d6a" d="M 498.5,141.5 C 516.409,140.588 522.909,148.921 518,166.5C 516.604,171.228 513.438,173.728 508.5,174C 505.183,174.498 501.85,174.665 498.5,174.5C 498.5,163.5 498.5,152.5 498.5,141.5 Z"/></g>
<g><path style="opacity:1" fill="#de216b" d="M 623.5,142.5 C 627.514,142.334 631.514,142.501 635.5,143C 638.196,143.69 640.363,145.19 642,147.5C 643.146,158.74 643.646,170.074 643.5,181.5C 643.625,193.554 643.125,205.554 642,217.5C 641.167,219.667 639.667,221.167 637.5,222C 632.915,223.225 628.248,223.725 623.5,223.5C 623.5,196.5 623.5,169.5 623.5,142.5 Z"/></g>
<g><path style="opacity:1" fill="#dd1c6a" d="M 891.5,142.5 C 895.846,142.334 900.179,142.501 904.5,143C 906.624,144.122 908.457,145.622 910,147.5C 911.135,159.099 911.635,170.766 911.5,182.5C 911.333,193.167 911.167,203.833 911,214.5C 909.997,217.699 908.163,220.199 905.5,222C 900.934,223.309 896.267,223.809 891.5,223.5C 891.5,196.5 891.5,169.5 891.5,142.5 Z"/></g>
<g><path style="opacity:1" fill="#f6c3d8" d="M 87.5,159.5 C 87.1711,173.01 87.5044,186.344 88.5,199.5C 88.44,200.043 88.1067,200.376 87.5,200.5C 86.1745,186.672 86.1745,173.006 87.5,159.5 Z"/></g>
<g><path style="opacity:1" fill="#f096ba" d="M 806.5,151.5 C 807.489,156.975 807.822,162.642 807.5,168.5C 800.646,168.824 793.979,168.491 787.5,167.5C 793.833,167.5 800.167,167.5 806.5,167.5C 806.5,162.167 806.5,156.833 806.5,151.5 Z"/></g>
<g><path style="opacity:1" fill="#dd1668" d="M 282.5,172.5 C 293.51,170.587 301.344,174.587 306,184.5C 307.637,189.714 308.637,195.047 309,200.5C 309.667,249.167 309.667,297.833 309,346.5C 308.198,352.905 306.198,358.905 303,364.5C 294.29,373.059 284.956,373.725 275,366.5C 270.885,360.489 268.551,353.822 268,346.5C 267.333,295.833 267.333,245.167 268,194.5C 268.645,184.164 273.478,176.831 282.5,172.5 Z"/></g>
<g><path style="opacity:1" fill="#e64e8d" d="M 590.5,187.5 C 584.021,188.491 577.354,188.824 570.5,188.5C 570.5,200.167 570.5,211.833 570.5,223.5C 570.167,223.5 569.833,223.5 569.5,223.5C 569.5,211.5 569.5,199.5 569.5,187.5C 576.5,187.5 583.5,187.5 590.5,187.5 Z"/></g>
<g><path style="opacity:1" fill="#f5b5ce" d="M 569.5,223.5 C 569.833,223.5 570.167,223.5 570.5,223.5C 579.167,223.5 587.833,223.5 596.5,223.5C 596.819,228.363 596.486,233.03 595.5,237.5C 595.5,233.167 595.5,228.833 595.5,224.5C 586.651,224.826 577.984,224.493 569.5,223.5 Z"/></g>
<g><path style="opacity:1" fill="#fefdfd" d="M 657.5,305.5 C 668.304,304.203 678.304,306.369 687.5,312C 692.945,317.725 696.111,324.559 697,332.5C 697.667,352.167 697.667,371.833 697,391.5C 695.807,401.671 690.973,409.504 682.5,415C 685.534,419.029 688.867,422.696 692.5,426C 691.465,430.27 690.132,434.437 688.5,438.5C 680.356,433.523 673.69,427.023 668.5,419C 649.895,419.975 638.729,411.475 635,393.5C 634.042,370.45 634.375,347.45 636,324.5C 639.82,314.346 646.987,308.012 657.5,305.5 Z"/></g>
<g><path style="opacity:1" fill="#fefcfd" d="M 1096.5,305.5 C 1118,303.997 1129,313.997 1129.5,335.5C 1123.9,336.823 1118.23,337.823 1112.5,338.5C 1113.03,333.099 1111.87,328.099 1109,323.5C 1102.21,319.098 1096.87,320.432 1093,327.5C 1092.11,332.072 1092.78,336.405 1095,340.5C 1104,348.833 1113,357.167 1122,365.5C 1132.6,378.414 1134.27,392.414 1127,407.5C 1116.05,419.051 1103.21,421.551 1088.5,415C 1078.33,407.499 1073.33,397.333 1073.5,384.5C 1079.42,383.069 1085.42,382.069 1091.5,381.5C 1091.12,387.974 1092.62,393.974 1096,399.5C 1105.78,405.516 1111.28,402.849 1112.5,391.5C 1111.97,385.779 1109.81,380.779 1106,376.5C 1097.37,369.539 1089.04,362.205 1081,354.5C 1072.36,342.459 1071.36,329.792 1078,316.5C 1083.1,310.873 1089.27,307.206 1096.5,305.5 Z"/></g>
<g><path style="opacity:1" fill="#fefffe" d="M 478.5,307.5 C 485.167,307.5 491.833,307.5 498.5,307.5C 498.5,343.833 498.5,380.167 498.5,416.5C 491.833,416.5 485.167,416.5 478.5,416.5C 478.5,380.167 478.5,343.833 478.5,307.5 Z"/></g>
<g><path style="opacity:1" fill="#fefefe" d="M 530.5,356.5 C 530.539,355.244 530.039,354.244 529,353.5C 528.5,374.497 528.333,395.497 528.5,416.5C 522.833,416.5 517.167,416.5 511.5,416.5C 511.5,380.167 511.5,343.833 511.5,307.5C 516.43,307.197 521.263,307.531 526,308.5C 534.472,328.25 543.139,347.916 552,367.5C 552.5,347.503 552.667,327.503 552.5,307.5C 557.833,307.5 563.167,307.5 568.5,307.5C 568.5,343.833 568.5,380.167 568.5,416.5C 563.901,416.8 559.401,416.467 555,415.5C 546.924,395.764 538.757,376.097 530.5,356.5 Z"/></g>
<g><path style="opacity:1" fill="#fefefe" d="M 622.5,366.5 C 615.5,366.5 608.5,366.5 601.5,366.5C 601.5,378.5 601.5,390.5 601.5,402.5C 609.984,403.493 618.651,403.826 627.5,403.5C 627.5,407.833 627.5,412.167 627.5,416.5C 612.167,416.5 596.833,416.5 581.5,416.5C 581.5,380.167 581.5,343.833 581.5,307.5C 596.833,307.5 612.167,307.5 627.5,307.5C 627.5,312.167 627.5,316.833 627.5,321.5C 618.833,321.5 610.167,321.5 601.5,321.5C 601.5,331.833 601.5,342.167 601.5,352.5C 608.5,352.5 615.5,352.5 622.5,352.5C 622.5,357.167 622.5,361.833 622.5,366.5 Z"/></g>
<g><path style="opacity:1" fill="#fefefe" d="M 749.5,386.5 C 750.498,360.339 750.831,334.005 750.5,307.5C 756.5,307.5 762.5,307.5 768.5,307.5C 768.5,333.833 768.5,360.167 768.5,386.5C 768.242,410.252 756.242,420.752 732.5,418C 716.513,415.34 708.346,405.84 708,389.5C 707.5,362.169 707.333,334.835 707.5,307.5C 713.833,307.5 720.167,307.5 726.5,307.5C 726.068,336.53 726.568,365.53 728,394.5C 730.534,402.074 735.701,404.574 743.5,402C 748.147,397.898 750.147,392.731 749.5,386.5 Z"/></g>
<g><path style="opacity:1" fill="#f6bdd4" d="M 768.5,386.5 C 768.5,360.167 768.5,333.833 768.5,307.5C 762.5,307.5 756.5,307.5 750.5,307.5C 750.831,334.005 750.498,360.339 749.5,386.5C 749.5,359.833 749.5,333.167 749.5,306.5C 756.167,306.5 762.833,306.5 769.5,306.5C 769.831,333.339 769.498,360.005 768.5,386.5 Z"/></g>
<g><path style="opacity:1" fill="#fefcfd" d="M 797.5,307.5 C 804.833,307.5 812.167,307.5 819.5,307.5C 826.116,343.914 833.116,380.248 840.5,416.5C 834.242,416.81 828.076,416.476 822,415.5C 820.656,407.599 819.156,399.766 817.5,392C 811.175,391.5 804.842,391.334 798.5,391.5C 797.424,399.877 796.091,408.211 794.5,416.5C 788.132,416.83 781.798,416.496 775.5,415.5C 783.217,379.58 790.551,343.58 797.5,307.5 Z"/></g>
<g><path style="opacity:1" fill="#fefefe" d="M 848.5,307.5 C 854.833,307.5 861.167,307.5 867.5,307.5C 867.168,339.338 867.502,371.004 868.5,402.5C 877.167,402.5 885.833,402.5 894.5,402.5C 894.5,407.167 894.5,411.833 894.5,416.5C 879.167,416.5 863.833,416.5 848.5,416.5C 848.5,380.167 848.5,343.833 848.5,307.5 Z"/></g>
<g><path style="opacity:1" fill="#f6bcd3" d="M 848.5,307.5 C 854.979,306.509 861.646,306.176 868.5,306.5C 868.5,338.5 868.5,370.5 868.5,402.5C 867.502,371.004 867.168,339.338 867.5,307.5C 861.167,307.5 854.833,307.5 848.5,307.5 Z"/></g>
<g><path style="opacity:1" fill="#f6bcd3" d="M 921.5,307.5 C 915.167,307.5 908.833,307.5 902.5,307.5C 902.5,343.833 902.5,380.167 902.5,416.5C 901.502,380.004 901.168,343.337 901.5,306.5C 908.354,306.176 915.021,306.509 921.5,307.5 Z"/></g>
<g><path style="opacity:1" fill="#fefffe" d="M 921.5,307.5 C 921.5,343.833 921.5,380.167 921.5,416.5C 915.167,416.5 908.833,416.5 902.5,416.5C 902.5,380.167 902.5,343.833 902.5,307.5C 908.833,307.5 915.167,307.5 921.5,307.5 Z"/></g>
<g><path style="opacity:1" fill="#fefffe" d="M 983.5,321.5 C 977.5,321.5 971.5,321.5 965.5,321.5C 965.5,353.167 965.5,384.833 965.5,416.5C 958.833,416.5 952.167,416.5 945.5,416.5C 945.5,384.833 945.5,353.167 945.5,321.5C 939.5,321.5 933.5,321.5 927.5,321.5C 927.5,316.833 927.5,312.167 927.5,307.5C 946.167,307.5 964.833,307.5 983.5,307.5C 983.5,312.167 983.5,316.833 983.5,321.5 Z"/></g>
<g><path style="opacity:1" fill="#fefffe" d="M 989.5,307.5 C 995.833,307.5 1002.17,307.5 1008.5,307.5C 1008.5,343.833 1008.5,380.167 1008.5,416.5C 1002.17,416.5 995.833,416.5 989.5,416.5C 989.5,380.167 989.5,343.833 989.5,307.5 Z"/></g>
<g><path style="opacity:1" fill="#fefefe" d="M 1022.5,307.5 C 1037.5,307.5 1052.5,307.5 1067.5,307.5C 1067.5,311.833 1067.5,316.167 1067.5,320.5C 1058.98,320.174 1050.65,320.507 1042.5,321.5C 1042.5,331.833 1042.5,342.167 1042.5,352.5C 1049.17,352.5 1055.83,352.5 1062.5,352.5C 1062.5,357.167 1062.5,361.833 1062.5,366.5C 1055.83,366.5 1049.17,366.5 1042.5,366.5C 1042.5,378.5 1042.5,390.5 1042.5,402.5C 1051.17,402.5 1059.83,402.5 1068.5,402.5C 1068.5,407.167 1068.5,411.833 1068.5,416.5C 1053.17,416.5 1037.83,416.5 1022.5,416.5C 1022.5,380.167 1022.5,343.833 1022.5,307.5 Z"/></g>
<g><path style="opacity:1" fill="#f4afcb" d="M 1022.5,307.5 C 1037.66,306.504 1052.99,306.17 1068.5,306.5C 1068.5,311.5 1068.5,316.5 1068.5,321.5C 1059.83,321.5 1051.17,321.5 1042.5,321.5C 1050.65,320.507 1058.98,320.174 1067.5,320.5C 1067.5,316.167 1067.5,311.833 1067.5,307.5C 1052.5,307.5 1037.5,307.5 1022.5,307.5 Z"/></g>
<g><path style="opacity:1" fill="#de1f6a" d="M 661.5,320.5 C 670.386,319.176 675.553,322.843 677,331.5C 677.906,353.197 677.573,374.863 676,396.5C 671.672,403.696 665.838,405.196 658.5,401C 656.683,399.2 655.516,397.034 655,394.5C 654.333,372.5 654.333,350.5 655,328.5C 656.277,325.062 658.443,322.395 661.5,320.5 Z"/></g>
<g><path style="opacity:1" fill="#e75792" d="M 983.5,321.5 C 978.025,322.489 972.358,322.822 966.5,322.5C 966.832,354.004 966.498,385.338 965.5,416.5C 965.5,384.833 965.5,353.167 965.5,321.5C 971.5,321.5 977.5,321.5 983.5,321.5 Z"/></g>
<g><path style="opacity:1" fill="#df256d" d="M 807.5,336.5 C 808.6,338.277 809.434,340.277 810,342.5C 811.641,354.537 813.475,366.537 815.5,378.5C 810.833,378.5 806.167,378.5 801.5,378.5C 803.111,364.444 805.111,350.444 807.5,336.5 Z"/></g>
<g><path style="opacity:1" fill="#e64f8d" d="M 530.5,356.5 C 529.833,376.5 529.167,396.5 528.5,416.5C 528.333,395.497 528.5,374.497 529,353.5C 530.039,354.244 530.539,355.244 530.5,356.5 Z"/></g>
<g><path style="opacity:1" fill="#e85f97" d="M 622.5,366.5 C 616.021,367.491 609.354,367.824 602.5,367.5C 602.5,379.167 602.5,390.833 602.5,402.5C 602.167,402.5 601.833,402.5 601.5,402.5C 601.5,390.5 601.5,378.5 601.5,366.5C 608.5,366.5 615.5,366.5 622.5,366.5 Z"/></g>
<g><path style="opacity:1" fill="#f5b5ce" d="M 601.5,402.5 C 601.833,402.5 602.167,402.5 602.5,402.5C 611.167,402.5 619.833,402.5 628.5,402.5C 628.819,407.363 628.486,412.03 627.5,416.5C 627.5,412.167 627.5,407.833 627.5,403.5C 618.651,403.826 609.984,403.493 601.5,402.5 Z"/></g>
<g><path style="opacity:1" fill="#fefefe" d="M 748.5,548.5 C 750.199,548.34 751.866,548.506 753.5,549C 797.333,592.833 841.167,636.667 885,680.5C 885.667,681.833 885.667,683.167 885,684.5C 795.57,685.665 706.07,685.832 616.5,685C 615.483,683.951 615.316,682.784 616,681.5C 660.368,637.299 704.535,592.965 748.5,548.5 Z"/></g>
<g><path style="opacity:1" fill="#fefefe" d="M 491.5,805.5 C 493.124,805.36 494.29,806.027 495,807.5C 495.667,896.5 495.667,985.5 495,1074.5C 494.612,1075.43 493.945,1076.09 493,1076.5C 448.04,1032.54 403.373,988.207 359,943.5C 358.333,941.833 358.333,940.167 359,938.5C 403.368,894.299 447.535,849.965 491.5,805.5 Z"/></g>
<g><path style="opacity:1" fill="#fefefe" d="M 1007.5,805.5 C 1008.92,805.709 1010.26,806.209 1011.5,807C 1056.07,851.07 1100.07,895.57 1143.5,940.5C 1099.22,986.443 1054.22,1031.78 1008.5,1076.5C 1007.91,1076.29 1007.41,1075.96 1007,1075.5C 1006.17,985.43 1006.34,895.43 1007.5,805.5 Z"/></g>
<g><path style="opacity:1" fill="#fefefe" d="M 610.5,807.5 C 704.169,807.167 797.836,807.5 891.5,808.5C 892.658,837.458 892.825,866.458 892,895.5C 891.5,896 891,896.5 890.5,897C 797.167,897.667 703.833,897.667 610.5,897C 609.17,867.167 609.17,837.333 610.5,807.5 Z"/></g>
<g><path style="opacity:1" fill="#fefefe" d="M 610.5,984.5 C 703.834,984.333 797.167,984.5 890.5,985C 891,985.5 891.5,986 892,986.5C 892.667,1015.17 892.667,1043.83 892,1072.5C 891.5,1073 891,1073.5 890.5,1074C 797.167,1074.67 703.833,1074.67 610.5,1074C 609.17,1044.17 609.17,1014.33 610.5,984.5 Z"/></g>
<g><path style="opacity:1" fill="#fefefe" d="M 615.5,1196.5 C 705.5,1196.5 795.5,1196.5 885.5,1196.5C 885.657,1197.87 885.49,1199.21 885,1200.5C 840.596,1245.4 795.763,1289.74 750.5,1333.5C 705.237,1289.74 660.404,1245.4 616,1200.5C 615.51,1199.21 615.343,1197.87 615.5,1196.5 Z"/></g>
</svg>
