<?xml version="1.0" encoding="UTF-8"?>
<!DOCTYPE svg PUBLIC "-//W3C//DTD SVG 1.1//EN" "http://www.w3.org/Graphics/SVG/1.1/DTD/svg11.dtd">
<svg xmlns="http://www.w3.org/2000/svg" version="1.1" width="1500px" height="1500px" style="shape-rendering:geometricPrecision; text-rendering:geometricPrecision; image-rendering:optimizeQuality; fill-rule:evenodd; clip-rule:evenodd" xmlns:xlink="http://www.w3.org/1999/xlink">
<g><path style="opacity:1" fill="#dda83a" d="M -0.5,-0.5 C 499.5,-0.5 999.5,-0.5 1499.5,-0.5C 1499.5,499.5 1499.5,999.5 1499.5,1499.5C 999.5,1499.5 499.5,1499.5 -0.5,1499.5C -0.5,999.5 -0.5,499.5 -0.5,-0.5 Z"/></g>
<g><path style="opacity:1" fill="#fefefe" d="M 180.5,371.5 C 208.328,372.498 236.328,372.831 264.5,372.5C 264.5,386.5 264.5,400.5 264.5,414.5C 215.833,414.5 167.167,414.5 118.5,414.5C 118.333,401.496 118.5,388.496 119,375.5C 148,330.5 177,285.5 206,240.5C 217.181,222.796 220.515,203.796 216,183.5C 208.773,170.094 198.273,166.928 184.5,174C 175.883,182.261 171.716,192.427 172,204.5C 171.5,211.826 171.334,219.159 171.5,226.5C 153.833,226.5 136.167,226.5 118.5,226.5C 116.6,204.361 119.766,183.028 128,162.5C 142.289,135.76 164.789,123.094 195.5,124.5C 246.377,124.378 272.044,149.711 272.5,200.5C 272.341,215.483 269.174,229.816 263,243.5C 259.922,249.991 256.588,256.325 253,262.5C 228.611,298.715 204.445,335.049 180.5,371.5 Z"/></g>
<g><path style="opacity:1" fill="#fefdfb" d="M 603.5,126.5 C 627.582,123.413 640.748,133.746 643,157.5C 643.667,174.167 643.667,190.833 643,207.5C 642.317,228.183 631.65,238.85 611,239.5C 592.588,239.754 582.255,230.754 580,212.5C 579.333,192.5 579.333,172.5 580,152.5C 581.815,138.193 589.649,129.526 603.5,126.5 Z"/></g>
<g><path style="opacity:1" fill="#f5e5c4" d="M 438.5,139.5 C 438.5,135.833 438.5,132.167 438.5,128.5C 422.833,128.5 407.167,128.5 391.5,128.5C 391.5,132.833 391.5,137.167 391.5,141.5C 390.514,137.03 390.181,132.363 390.5,127.5C 406.833,127.5 423.167,127.5 439.5,127.5C 439.817,131.702 439.483,135.702 438.5,139.5 Z"/></g>
<g><path style="opacity:1" fill="#fefefd" d="M 438.5,139.5 C 428.636,167.091 418.969,194.758 409.5,222.5C 408.957,222.56 408.624,222.893 408.5,223.5C 418.812,224.499 429.145,224.832 439.5,224.5C 439.5,228.833 439.5,233.167 439.5,237.5C 422.833,237.5 406.167,237.5 389.5,237.5C 389.334,232.489 389.501,227.489 390,222.5C 399.462,196.581 408.629,170.581 417.5,144.5C 418.404,143.791 418.737,142.791 418.5,141.5C 409.5,141.5 400.5,141.5 391.5,141.5C 391.5,137.167 391.5,132.833 391.5,128.5C 407.167,128.5 422.833,128.5 438.5,128.5C 438.5,132.167 438.5,135.833 438.5,139.5 Z"/></g>
<g><path style="opacity:1" fill="#f6e8cb" d="M 470.5,142.5 C 478.65,141.507 486.983,141.174 495.5,141.5C 495.5,137.167 495.5,132.833 495.5,128.5C 480.5,128.5 465.5,128.5 450.5,128.5C 450.5,164.833 450.5,201.167 450.5,237.5C 449.502,201.004 449.168,164.337 449.5,127.5C 465.167,127.5 480.833,127.5 496.5,127.5C 496.5,132.5 496.5,137.5 496.5,142.5C 487.833,142.5 479.167,142.5 470.5,142.5 Z"/></g>
<g><path style="opacity:1" fill="#fefefc" d="M 470.5,142.5 C 470.5,152.833 470.5,163.167 470.5,173.5C 477.167,173.5 483.833,173.5 490.5,173.5C 490.5,178.167 490.5,182.833 490.5,187.5C 483.833,187.5 477.167,187.5 470.5,187.5C 470.5,199.5 470.5,211.5 470.5,223.5C 478.65,224.493 486.983,224.826 495.5,224.5C 495.5,228.833 495.5,233.167 495.5,237.5C 480.5,237.5 465.5,237.5 450.5,237.5C 450.5,201.167 450.5,164.833 450.5,128.5C 465.5,128.5 480.5,128.5 495.5,128.5C 495.5,132.833 495.5,137.167 495.5,141.5C 486.983,141.174 478.65,141.507 470.5,142.5 Z"/></g>
<g><path style="opacity:1" fill="#efd7a4" d="M 541.5,128.5 C 530.167,128.5 518.833,128.5 507.5,128.5C 507.5,164.833 507.5,201.167 507.5,237.5C 506.502,201.004 506.168,164.337 506.5,127.5C 518.345,127.172 530.012,127.505 541.5,128.5 Z"/></g>
<g><path style="opacity:1" fill="#fefdfc" d="M 541.5,128.5 C 552.423,128.867 560.256,133.867 565,143.5C 566.537,151.77 566.87,160.103 566,168.5C 565.241,171.785 563.908,174.785 562,177.5C 559.434,180.066 556.934,182.566 554.5,185C 559.32,202.136 563.987,219.302 568.5,236.5C 562.021,237.491 555.354,237.824 548.5,237.5C 544.35,221.188 540.183,204.855 536,188.5C 533.281,187.556 530.448,187.223 527.5,187.5C 527.5,204.167 527.5,220.833 527.5,237.5C 520.833,237.5 514.167,237.5 507.5,237.5C 507.5,201.167 507.5,164.833 507.5,128.5C 518.833,128.5 530.167,128.5 541.5,128.5 Z"/></g>
<g><path style="opacity:1" fill="#eed49d" d="M 391.5,141.5 C 400.5,141.5 409.5,141.5 418.5,141.5C 418.737,142.791 418.404,143.791 417.5,144.5C 409.048,142.845 400.381,141.845 391.5,141.5 Z"/></g>
<g><path style="opacity:1" fill="#dda83b" d="M 606.5,141.5 C 614.001,139.833 619.168,142.5 622,149.5C 622.667,170.833 622.667,192.167 622,213.5C 620.349,222.918 614.849,226.085 605.5,223C 602.732,221.238 601.232,218.738 601,215.5C 600.333,193.167 600.333,170.833 601,148.5C 601.967,145.379 603.8,143.046 606.5,141.5 Z"/></g>
<g><path style="opacity:1" fill="#edd196" d="M 537.5,142.5 C 534.167,142.5 530.833,142.5 527.5,142.5C 527.5,153.167 527.5,163.833 527.5,174.5C 526.505,163.679 526.172,152.679 526.5,141.5C 530.371,141.185 534.038,141.518 537.5,142.5 Z"/></g>
<g><path style="opacity:1" fill="#dda83b" d="M 537.5,142.5 C 542.228,142.775 545.394,145.108 547,149.5C 551.867,167.187 545.367,175.521 527.5,174.5C 527.5,163.833 527.5,153.167 527.5,142.5C 530.833,142.5 534.167,142.5 537.5,142.5 Z"/></g>
<g><path style="opacity:1" fill="#f7eace" d="M 409.5,222.5 C 419.5,223.167 429.5,223.833 439.5,224.5C 429.145,224.832 418.812,224.499 408.5,223.5C 408.624,222.893 408.957,222.56 409.5,222.5 Z"/></g>
<g><path style="opacity:1" fill="#f6e9cc" d="M 470.5,223.5 C 479.167,223.5 487.833,223.5 496.5,223.5C 496.819,228.363 496.486,233.03 495.5,237.5C 495.5,233.167 495.5,228.833 495.5,224.5C 486.983,224.826 478.65,224.493 470.5,223.5 Z"/></g>
<g><path style="opacity:1" fill="#e5bd6a" d="M 568.5,236.5 C 569.043,236.56 569.376,236.893 569.5,237.5C 562.344,238.819 555.344,238.819 548.5,237.5C 555.354,237.824 562.021,237.491 568.5,236.5 Z"/></g>
<g><path style="opacity:1" fill="#fefdfb" d="M 661.5,387.5 C 662.486,383.03 662.819,378.363 662.5,373.5C 658.5,373.5 654.5,373.5 650.5,373.5C 650.5,369.167 650.5,364.833 650.5,360.5C 660.5,360.5 670.5,360.5 680.5,360.5C 680.5,379.167 680.5,397.833 680.5,416.5C 676.154,416.666 671.821,416.499 667.5,416C 666.712,412.924 666.212,409.758 666,406.5C 660.169,416.899 651.335,420.732 639.5,418C 629.027,415.527 622.527,409.027 620,398.5C 617.542,378.911 616.876,359.244 618,339.5C 618.765,314.399 631.598,303.233 656.5,306C 666.982,307.31 674.149,312.81 678,322.5C 679.36,329.435 680.194,336.435 680.5,343.5C 673.833,343.5 667.167,343.5 660.5,343.5C 660.666,338.489 660.499,333.489 660,328.5C 657.568,321.698 652.735,319.198 645.5,321C 642.272,322.563 640.105,325.063 639,328.5C 638.333,349.833 638.333,371.167 639,392.5C 640.651,401.918 646.151,405.085 655.5,402C 660.125,398.409 662.125,393.575 661.5,387.5 Z"/></g>
<g><path style="opacity:1" fill="#e7c071" d="M 413.5,307.5 C 406.833,307.5 400.167,307.5 393.5,307.5C 393.5,343.833 393.5,380.167 393.5,416.5C 392.502,380.004 392.168,343.337 392.5,306.5C 399.687,306.175 406.687,306.509 413.5,307.5 Z"/></g>
<g><path style="opacity:1" fill="#fefefe" d="M 413.5,307.5 C 413.5,322.5 413.5,337.5 413.5,352.5C 420.833,352.5 428.167,352.5 435.5,352.5C 435.5,337.5 435.5,322.5 435.5,307.5C 442.167,307.5 448.833,307.5 455.5,307.5C 455.5,343.833 455.5,380.167 455.5,416.5C 448.833,416.5 442.167,416.5 435.5,416.5C 435.5,400.167 435.5,383.833 435.5,367.5C 428.167,367.5 420.833,367.5 413.5,367.5C 413.5,383.833 413.5,400.167 413.5,416.5C 406.833,416.5 400.167,416.5 393.5,416.5C 393.5,380.167 393.5,343.833 393.5,307.5C 400.167,307.5 406.833,307.5 413.5,307.5 Z"/></g>
<g><path style="opacity:1" fill="#e7c071" d="M 435.5,307.5 C 442.313,306.509 449.313,306.175 456.5,306.5C 456.832,343.337 456.498,380.004 455.5,416.5C 455.5,380.167 455.5,343.833 455.5,307.5C 448.833,307.5 442.167,307.5 435.5,307.5 Z"/></g>
<g><path style="opacity:1" fill="#fefdfb" d="M 512.5,386.5 C 513.498,360.339 513.831,334.005 513.5,307.5C 519.5,307.5 525.5,307.5 531.5,307.5C 531.5,335.167 531.5,362.833 531.5,390.5C 530.228,409.104 520.228,418.437 501.5,418.5C 483.34,418.506 473.173,409.506 471,391.5C 470.5,363.169 470.333,334.835 470.5,306.5C 477.09,306.189 483.59,306.522 490,307.5C 490.333,336.167 490.667,364.833 491,393.5C 493.059,401.877 498.226,404.711 506.5,402C 511.147,397.898 513.147,392.731 512.5,386.5 Z"/></g>
<g><path style="opacity:1" fill="#f5e6c6" d="M 531.5,390.5 C 531.5,362.833 531.5,335.167 531.5,307.5C 525.5,307.5 519.5,307.5 513.5,307.5C 513.831,334.005 513.498,360.339 512.5,386.5C 512.5,359.833 512.5,333.167 512.5,306.5C 519.167,306.5 525.833,306.5 532.5,306.5C 532.831,334.672 532.498,362.672 531.5,390.5 Z"/></g>
<g><path style="opacity:1" fill="#fefdfb" d="M 587.5,307.5 C 592.833,307.5 598.167,307.5 603.5,307.5C 603.5,343.833 603.5,380.167 603.5,416.5C 599.116,416.826 594.783,416.492 590.5,415.5C 581.878,395.259 573.544,374.926 565.5,354.5C 565.217,353.711 564.717,353.044 564,352.5C 563.5,373.831 563.333,395.164 563.5,416.5C 557.833,416.5 552.167,416.5 546.5,416.5C 546.333,380.165 546.5,343.832 547,307.5C 551.667,306.167 556.333,306.167 561,307.5C 570.056,327.335 578.722,347.335 587,367.5C 587.5,347.503 587.667,327.503 587.5,307.5 Z"/></g>
<g><path style="opacity:1" fill="#f6e7c7" d="M 587.5,307.5 C 592.975,306.511 598.642,306.178 604.5,306.5C 604.832,343.337 604.498,380.004 603.5,416.5C 603.5,380.167 603.5,343.833 603.5,307.5C 598.167,307.5 592.833,307.5 587.5,307.5 Z"/></g>
<g><path style="opacity:1" fill="#f5e4c2" d="M 740.5,307.5 C 725.5,307.5 710.5,307.5 695.5,307.5C 695.5,343.833 695.5,380.167 695.5,416.5C 695.167,416.5 694.833,416.5 694.5,416.5C 694.5,379.833 694.5,343.167 694.5,306.5C 710.009,306.17 725.342,306.504 740.5,307.5 Z"/></g>
<g><path style="opacity:1" fill="#fefefd" d="M 740.5,307.5 C 740.5,312.167 740.5,316.833 740.5,321.5C 731.833,321.5 723.167,321.5 714.5,321.5C 714.5,331.833 714.5,342.167 714.5,352.5C 721.5,352.5 728.5,352.5 735.5,352.5C 735.5,357.167 735.5,361.833 735.5,366.5C 728.5,366.5 721.5,366.5 714.5,366.5C 714.172,378.678 714.505,390.678 715.5,402.5C 723.833,402.5 732.167,402.5 740.5,402.5C 740.5,407.167 740.5,411.833 740.5,416.5C 725.5,416.5 710.5,416.5 695.5,416.5C 695.5,380.167 695.5,343.833 695.5,307.5C 710.5,307.5 725.5,307.5 740.5,307.5 Z"/></g>
<g><path style="opacity:1" fill="#f5e5c4" d="M 782.5,307.5 C 772.5,307.5 762.5,307.5 752.5,307.5C 752.5,343.833 752.5,380.167 752.5,416.5C 751.502,380.004 751.168,343.337 751.5,306.5C 762.014,306.172 772.347,306.506 782.5,307.5 Z"/></g>
<g><path style="opacity:1" fill="#fefdfb" d="M 782.5,307.5 C 796.51,306.578 806.01,312.578 811,325.5C 811.667,332.833 811.667,340.167 811,347.5C 809.518,354.141 805.852,359.141 800,362.5C 799.833,363.167 799.667,363.833 799.5,364.5C 804.392,381.832 809.059,399.165 813.5,416.5C 806.833,416.5 800.167,416.5 793.5,416.5C 789.167,399.833 784.833,383.167 780.5,366.5C 777.833,366.5 775.167,366.5 772.5,366.5C 772.5,383.167 772.5,399.833 772.5,416.5C 765.833,416.5 759.167,416.5 752.5,416.5C 752.5,380.167 752.5,343.833 752.5,307.5C 762.5,307.5 772.5,307.5 782.5,307.5 Z"/></g>
<g><path style="opacity:1" fill="#dda83b" d="M 772.5,321.5 C 777.599,321.175 782.599,321.675 787.5,323C 791.621,326.525 793.288,331.025 792.5,336.5C 792.796,350.05 786.129,355.717 772.5,353.5C 772.5,342.833 772.5,332.167 772.5,321.5 Z"/></g>
<g><path style="opacity:1" fill="#f6e9cd" d="M 565.5,354.5 C 564.833,375.167 564.167,395.833 563.5,416.5C 563.333,395.164 563.5,373.831 564,352.5C 564.717,353.044 565.217,353.711 565.5,354.5 Z"/></g>
<g><path style="opacity:1" fill="#e8c378" d="M 735.5,366.5 C 729.021,367.491 722.354,367.824 715.5,367.5C 715.5,379.167 715.5,390.833 715.5,402.5C 714.505,390.678 714.172,378.678 714.5,366.5C 721.5,366.5 728.5,366.5 735.5,366.5 Z"/></g>
<g><path style="opacity:1" fill="#f4e2bc" d="M 180.5,371.5 C 208.833,371.5 237.167,371.5 265.5,371.5C 265.5,386.167 265.5,400.833 265.5,415.5C 216.33,415.832 167.33,415.499 118.5,414.5C 167.167,414.5 215.833,414.5 264.5,414.5C 264.5,400.5 264.5,386.5 264.5,372.5C 236.328,372.831 208.328,372.498 180.5,371.5 Z"/></g>
<g><path style="opacity:1" fill="#e9c57c" d="M 650.5,373.5 C 654.5,373.5 658.5,373.5 662.5,373.5C 662.819,378.363 662.486,383.03 661.5,387.5C 661.5,383.167 661.5,378.833 661.5,374.5C 657.629,374.815 653.962,374.482 650.5,373.5 Z"/></g>
<g><path style="opacity:1" fill="#e7c173" d="M 740.5,402.5 C 741.487,407.305 741.821,412.305 741.5,417.5C 725.658,417.83 709.991,417.496 694.5,416.5C 694.833,416.5 695.167,416.5 695.5,416.5C 710.5,416.5 725.5,416.5 740.5,416.5C 740.5,411.833 740.5,407.167 740.5,402.5 Z"/></g>
<g><path style="opacity:1" fill="#fefefd" d="M 627.5,931.5 C 610.134,932.152 593.134,931.486 576.5,929.5C 586.793,900.716 583.293,873.716 566,848.5C 556.713,836.211 547.046,824.211 537,812.5C 511.827,770.795 507.16,726.795 523,680.5C 529.616,660.936 538.616,642.603 550,625.5C 561.055,614.36 573.555,612.527 587.5,620C 596.369,626.203 598.869,634.37 595,644.5C 577.058,671.493 567.225,701.16 565.5,733.5C 564.359,752.911 568.859,770.911 579,787.5C 591.05,802.549 602.717,817.883 614,833.5C 632.778,864.317 637.278,896.983 627.5,931.5 Z"/></g>
<g><path style="opacity:1" fill="#fefefe" d="M 786.5,931.5 C 768.992,931.83 751.659,931.497 734.5,930.5C 744.698,902.766 741.865,876.433 726,851.5C 717.047,839.545 707.713,827.878 698,816.5C 673.682,780.858 666.348,741.858 676,699.5C 682.315,672.878 692.982,648.211 708,625.5C 716.585,615.752 727.085,612.918 739.5,617C 752.758,622.35 757.258,631.85 753,645.5C 729.517,678.946 720.184,715.946 725,756.5C 727.601,767.369 731.601,777.702 737,787.5C 748.048,800.88 758.715,814.547 769,828.5C 790.062,860.198 795.895,894.531 786.5,931.5 Z"/></g>
<g><path style="opacity:1" fill="#fefefd" d="M 944.5,931.5 C 926.992,931.83 909.659,931.497 892.5,930.5C 902.023,904.183 899.856,878.849 886,854.5C 876.762,841.258 866.762,828.592 856,816.5C 830.377,778.008 823.71,736.342 836,691.5C 841.956,670.288 850.623,650.288 862,631.5C 873.636,613.861 888.47,610.695 906.5,622C 912.162,628.098 913.995,635.264 912,643.5C 896.306,666.912 886.306,692.578 882,720.5C 878.418,748.956 885.084,774.622 902,797.5C 918.556,814.399 931.556,833.732 941,855.5C 949.644,880.473 950.81,905.806 944.5,931.5 Z"/></g>
<g><path style="opacity:1" fill="#f7e9cd" d="M 576.5,929.5 C 593.134,931.486 610.134,932.152 627.5,931.5C 610.341,932.497 593.008,932.83 575.5,932.5C 575.263,931.209 575.596,930.209 576.5,929.5 Z"/></g>
<g><path style="opacity:1" fill="#f6e9cd" d="M 734.5,930.5 C 751.659,931.497 768.992,931.83 786.5,931.5C 768.995,932.827 751.329,932.827 733.5,931.5C 733.624,930.893 733.957,930.56 734.5,930.5 Z"/></g>
<g><path style="opacity:1" fill="#f6e9cc" d="M 892.5,930.5 C 909.659,931.497 926.992,931.83 944.5,931.5C 926.995,932.827 909.329,932.827 891.5,931.5C 891.624,930.893 891.957,930.56 892.5,930.5 Z"/></g>
<g><path style="opacity:1" fill="#fefefe" d="M 327.5,964.5 C 594.5,964.333 861.5,964.5 1128.5,965C 1133.06,967.049 1135.39,970.549 1135.5,975.5C 1120.15,1060.71 1080.49,1132.21 1016.5,1190C 973.038,1228.75 923.371,1257.25 867.5,1275.5C 866.668,1284.82 866.168,1294.15 866,1303.5C 864.878,1305.62 863.378,1307.46 861.5,1309C 775.89,1310.66 690.223,1310.99 604.5,1310C 601.063,1308.9 598.563,1306.73 597,1303.5C 596.818,1294.92 596.318,1286.42 595.5,1278C 489.113,1244.27 408.947,1178.77 355,1081.5C 338.086,1047.76 326.586,1012.26 320.5,975C 321.056,970.284 323.389,966.784 327.5,964.5 Z"/></g>
</svg>
