<?xml version="1.0" encoding="UTF-8"?>
<!DOCTYPE svg PUBLIC "-//W3C//DTD SVG 1.1//EN" "http://www.w3.org/Graphics/SVG/1.1/DTD/svg11.dtd">
<svg xmlns="http://www.w3.org/2000/svg" version="1.1" width="1500px" height="1500px" style="shape-rendering:geometricPrecision; text-rendering:geometricPrecision; image-rendering:optimizeQuality; fill-rule:evenodd; clip-rule:evenodd" xmlns:xlink="http://www.w3.org/1999/xlink">
<g><path style="opacity:1" fill="#00689d" d="M -0.5,-0.5 C 499.5,-0.5 999.5,-0.5 1499.5,-0.5C 1499.5,499.5 1499.5,999.5 1499.5,1499.5C 999.5,1499.5 499.5,1499.5 -0.5,1499.5C -0.5,999.5 -0.5,499.5 -0.5,-0.5 Z"/></g>
<g><path style="opacity:1" fill="#fefefe" d="M 360.5,197.5 C 360.5,198.833 360.5,200.167 360.5,201.5C 343.5,201.5 326.5,201.5 309.5,201.5C 309.81,198.287 309.477,195.287 308.5,192.5C 309.314,170.459 299.314,162.626 278.5,169C 271.829,174.947 268.329,182.447 268,191.5C 267.501,195.821 267.334,200.154 267.5,204.5C 266.339,220.328 266.172,236.328 267,252.5C 267.717,251.956 268.217,251.289 268.5,250.5C 278.442,240.457 290.609,235.79 305,236.5C 331.925,236.619 349.925,249.285 359,274.5C 366.986,303.619 367.653,332.952 361,362.5C 357.391,376.049 351.391,388.383 343,399.5C 333.763,408.87 322.596,414.703 309.5,417C 251.795,425.964 219.295,401.464 212,343.5C 211.047,292.813 211.38,242.146 213,191.5C 220.338,141.505 249.172,119.338 299.5,125C 335.561,126.929 355.727,145.762 360,181.5C 360.499,186.823 360.666,192.156 360.5,197.5 Z"/></g>
<g><path style="opacity:1" fill="#fcfdfd" d="M 691.5,126.5 C 702.378,125.131 712.044,127.797 720.5,134.5C 724.006,138.515 726.173,143.181 727,148.5C 727.5,154.825 727.666,161.158 727.5,167.5C 721.167,167.5 714.833,167.5 708.5,167.5C 708.663,160.453 708.163,153.453 707,146.5C 701.941,140.743 696.274,140.076 690,144.5C 688.249,146.49 687.249,148.823 687,151.5C 686.044,173.551 686.377,195.551 688,217.5C 691.18,223.234 696.013,225.067 702.5,223C 704.815,221.891 706.315,220.057 707,217.5C 707.5,210.508 707.666,203.508 707.5,196.5C 714.167,196.5 720.833,196.5 727.5,196.5C 730.277,232.932 714.277,245.765 679.5,235C 671.813,229.129 667.646,221.296 667,211.5C 666.333,191.833 666.333,172.167 667,152.5C 668.936,137.736 677.103,129.069 691.5,126.5 Z"/></g>
<g><path style="opacity:1" fill="#fbfdfd" d="M 982.5,126.5 C 1005.31,123.715 1016.98,133.715 1017.5,156.5C 1011.81,157.372 1006.14,158.372 1000.5,159.5C 1001.03,154.099 999.867,149.099 997,144.5C 990.62,139.976 985.287,140.976 981,147.5C 979.967,152.894 980.967,157.894 984,162.5C 989.551,168.019 995.385,173.186 1001.5,178C 1009.75,184.901 1015.58,193.401 1019,203.5C 1021.31,229.528 1009.47,241.028 983.5,238C 972.307,235.137 965.473,227.97 963,216.5C 961.651,212.634 961.485,208.801 962.5,205C 968.129,203.84 973.796,203.007 979.5,202.5C 978.936,210.65 981.603,217.483 987.5,223C 995.621,224.543 999.954,221.21 1000.5,213C 1000.21,207.579 998.372,202.746 995,198.5C 986.667,191.167 978.333,183.833 970,176.5C 960.473,164.304 959.14,151.304 966,137.5C 970.356,131.92 975.856,128.253 982.5,126.5 Z"/></g>
<g><path style="opacity:1" fill="#fafcfd" d="M 1176.5,167.5 C 1170.17,167.5 1163.83,167.5 1157.5,167.5C 1157.82,160.978 1157.49,154.645 1156.5,148.5C 1155.31,143.301 1151.98,140.968 1146.5,141.5C 1141.5,141.327 1138.34,143.66 1137,148.5C 1136.33,170.833 1136.33,193.167 1137,215.5C 1137.61,218.548 1139.11,221.048 1141.5,223C 1149.95,225.7 1155.11,222.867 1157,214.5C 1157.5,208.509 1157.67,202.509 1157.5,196.5C 1163.83,196.5 1170.17,196.5 1176.5,196.5C 1179.26,234.109 1162.93,246.609 1127.5,234C 1122.35,229.534 1118.85,224.034 1117,217.5C 1115.43,195.863 1115.09,174.197 1116,152.5C 1117.52,138.65 1125.02,130.15 1138.5,127C 1150.25,124.681 1160.75,127.181 1170,134.5C 1171.92,137.339 1173.59,140.339 1175,143.5C 1176.27,151.447 1176.77,159.447 1176.5,167.5 Z"/></g>
<g><path style="opacity:1" fill="#bad6e4" d="M 638.5,128.5 C 631.08,128.203 623.746,128.536 616.5,129.5C 619.768,128.178 623.435,127.511 627.5,127.5C 631.349,127.501 635.016,127.835 638.5,128.5 Z"/></g>
<g><path style="opacity:1" fill="#bfd9e6" d="M 1076.5,142.5 C 1076.5,137.833 1076.5,133.167 1076.5,128.5C 1058.17,128.5 1039.83,128.5 1021.5,128.5C 1021.5,133.167 1021.5,137.833 1021.5,142.5C 1021.17,142.5 1020.83,142.5 1020.5,142.5C 1020.5,137.5 1020.5,132.5 1020.5,127.5C 1039.5,127.5 1058.5,127.5 1077.5,127.5C 1077.82,132.695 1077.49,137.695 1076.5,142.5 Z"/></g>
<g><path style="opacity:1" fill="#fefefe" d="M 137.5,128.5 C 151.833,128.5 166.167,128.5 180.5,128.5C 180.5,223.833 180.5,319.167 180.5,414.5C 162.5,414.5 144.5,414.5 126.5,414.5C 126.5,338.167 126.5,261.833 126.5,185.5C 125.209,185.263 124.209,185.596 123.5,186.5C 111.242,191.031 98.9088,195.364 86.5,199.5C 85.5044,186.344 85.1711,173.01 85.5,159.5C 98.5437,153.811 111.21,147.311 123.5,140C 128.647,136.68 133.314,132.847 137.5,128.5 Z"/></g>
<g><path style="opacity:1" fill="#b1d1e1" d="M 137.5,128.5 C 151.99,127.504 166.657,127.171 181.5,127.5C 181.5,223.5 181.5,319.5 181.5,415.5C 163.167,415.5 144.833,415.5 126.5,415.5C 126.5,415.167 126.5,414.833 126.5,414.5C 144.5,414.5 162.5,414.5 180.5,414.5C 180.5,319.167 180.5,223.833 180.5,128.5C 166.167,128.5 151.833,128.5 137.5,128.5 Z"/></g>
<g><path style="opacity:1" fill="#8cbad2" d="M 512.5,128.5 C 501.167,128.5 489.833,128.5 478.5,128.5C 478.5,164.833 478.5,201.167 478.5,237.5C 477.502,201.004 477.168,164.337 477.5,127.5C 489.345,127.172 501.012,127.505 512.5,128.5 Z"/></g>
<g><path style="opacity:1" fill="#fcfdfe" d="M 512.5,128.5 C 527.14,128.641 535.307,135.974 537,150.5C 540.33,179.336 527.497,192.003 498.5,188.5C 498.5,204.833 498.5,221.167 498.5,237.5C 491.833,237.5 485.167,237.5 478.5,237.5C 478.5,201.167 478.5,164.833 478.5,128.5C 489.833,128.5 501.167,128.5 512.5,128.5 Z"/></g>
<g><path style="opacity:1" fill="#fcfdfe" d="M 586.5,187.5 C 579.5,187.5 572.5,187.5 565.5,187.5C 565.172,199.678 565.505,211.678 566.5,223.5C 574.833,223.5 583.167,223.5 591.5,223.5C 591.5,228.167 591.5,232.833 591.5,237.5C 576.167,237.5 560.833,237.5 545.5,237.5C 545.5,200.833 545.5,164.167 545.5,127.5C 560.833,127.5 576.167,127.5 591.5,127.5C 591.5,132.5 591.5,137.5 591.5,142.5C 582.833,142.5 574.167,142.5 565.5,142.5C 565.5,152.833 565.5,163.167 565.5,173.5C 572.5,173.5 579.5,173.5 586.5,173.5C 586.5,178.167 586.5,182.833 586.5,187.5 Z"/></g>
<g><path style="opacity:1" fill="#fcfdfd" d="M 638.5,128.5 C 645.518,164.757 652.851,200.923 660.5,237C 654.141,237.831 647.807,237.664 641.5,236.5C 639.951,228.539 638.618,220.539 637.5,212.5C 630.91,212.189 624.41,212.522 618,213.5C 616.441,221.618 614.941,229.618 613.5,237.5C 607.5,237.5 601.5,237.5 595.5,237.5C 595.5,236.5 595.5,235.5 595.5,234.5C 602.372,199.474 609.372,164.474 616.5,129.5C 623.746,128.536 631.08,128.203 638.5,128.5 Z"/></g>
<g><path style="opacity:1" fill="#fdfdfe" d="M 778.5,173.5 C 778.5,178.167 778.5,182.833 778.5,187.5C 771.646,187.176 764.979,187.509 758.5,188.5C 758.5,200.167 758.5,211.833 758.5,223.5C 767.167,223.5 775.833,223.5 784.5,223.5C 784.5,228.167 784.5,232.833 784.5,237.5C 769.167,237.5 753.833,237.5 738.5,237.5C 738.5,200.833 738.5,164.167 738.5,127.5C 753.833,127.5 769.167,127.5 784.5,127.5C 784.5,132.5 784.5,137.5 784.5,142.5C 775.833,142.5 767.167,142.5 758.5,142.5C 758.5,152.833 758.5,163.167 758.5,173.5C 765.167,173.5 771.833,173.5 778.5,173.5 Z"/></g>
<g><path style="opacity:1" fill="#fefefe" d="M 876.5,216.5 C 877.693,227.779 873.027,235.279 862.5,239C 855.842,239.5 849.175,239.666 842.5,239.5C 842.5,234.833 842.5,230.167 842.5,225.5C 846.308,225.837 849.974,225.337 853.5,224C 855.451,222.266 856.451,220.099 856.5,217.5C 857.498,188.005 857.831,158.338 857.5,128.5C 863.833,128.5 870.167,128.5 876.5,128.5C 876.5,157.833 876.5,187.167 876.5,216.5 Z"/></g>
<g><path style="opacity:1" fill="#accddf" d="M 876.5,216.5 C 876.5,187.167 876.5,157.833 876.5,128.5C 870.167,128.5 863.833,128.5 857.5,128.5C 857.831,158.338 857.498,188.005 856.5,217.5C 856.5,187.5 856.5,157.5 856.5,127.5C 863.5,127.5 870.5,127.5 877.5,127.5C 877.831,157.338 877.498,187.005 876.5,216.5 Z"/></g>
<g><path style="opacity:1" fill="#fdfefe" d="M 890.5,127.5 C 896.833,127.5 903.167,127.5 909.5,127.5C 909.333,155.835 909.5,184.169 910,212.5C 912.663,223.871 918.997,226.537 929,220.5C 930.737,216.351 931.737,212.017 932,207.5C 932.5,180.835 932.667,154.169 932.5,127.5C 938.833,127.5 945.167,127.5 951.5,127.5C 951.953,157.87 951.453,188.203 950,218.5C 945.986,233.029 936.319,239.696 921,238.5C 906.46,240.075 896.793,234.075 892,220.5C 890.555,189.532 890.055,158.532 890.5,127.5 Z"/></g>
<g><path style="opacity:1" fill="#fefffe" d="M 1076.5,142.5 C 1070.83,142.5 1065.17,142.5 1059.5,142.5C 1059.5,174.167 1059.5,205.833 1059.5,237.5C 1052.83,237.5 1046.17,237.5 1039.5,237.5C 1039.5,205.833 1039.5,174.167 1039.5,142.5C 1033.5,142.5 1027.5,142.5 1021.5,142.5C 1021.5,137.833 1021.5,133.167 1021.5,128.5C 1039.83,128.5 1058.17,128.5 1076.5,128.5C 1076.5,133.167 1076.5,137.833 1076.5,142.5 Z"/></g>
<g><path style="opacity:1" fill="#fefefe" d="M 1083.5,127.5 C 1090.17,127.5 1096.83,127.5 1103.5,127.5C 1103.5,164.167 1103.5,200.833 1103.5,237.5C 1096.83,237.5 1090.17,237.5 1083.5,237.5C 1083.5,200.833 1083.5,164.167 1083.5,127.5 Z"/></g>
<g><path style="opacity:1" fill="#fcfdfe" d="M 1228.5,187.5 C 1221.5,187.5 1214.5,187.5 1207.5,187.5C 1207.17,199.678 1207.5,211.678 1208.5,223.5C 1216.83,223.5 1225.17,223.5 1233.5,223.5C 1233.5,228.167 1233.5,232.833 1233.5,237.5C 1218.17,237.5 1202.83,237.5 1187.5,237.5C 1187.5,200.833 1187.5,164.167 1187.5,127.5C 1202.83,127.5 1218.17,127.5 1233.5,127.5C 1233.5,132.5 1233.5,137.5 1233.5,142.5C 1224.83,142.5 1216.17,142.5 1207.5,142.5C 1207.5,152.833 1207.5,163.167 1207.5,173.5C 1214.5,173.5 1221.5,173.5 1228.5,173.5C 1228.5,178.167 1228.5,182.833 1228.5,187.5 Z"/></g>
<g><path style="opacity:1" fill="#05699d" d="M 498.5,142.5 C 503.93,142.161 509.264,142.661 514.5,144C 516.049,145.214 517.215,146.714 518,148.5C 518.667,154.833 518.667,161.167 518,167.5C 516.332,171.165 513.499,173.332 509.5,174C 505.848,174.499 502.182,174.665 498.5,174.5C 498.5,163.833 498.5,153.167 498.5,142.5 Z"/></g>
<g><path style="opacity:1" fill="#408eb6" d="M 1020.5,142.5 C 1020.83,142.5 1021.17,142.5 1021.5,142.5C 1027.5,142.5 1033.5,142.5 1039.5,142.5C 1039.5,174.167 1039.5,205.833 1039.5,237.5C 1038.5,206.338 1038.17,175.004 1038.5,143.5C 1032.31,143.823 1026.31,143.49 1020.5,142.5 Z"/></g>
<g><path style="opacity:1" fill="#bed9e6" d="M 85.5,159.5 C 85.1711,173.01 85.5044,186.344 86.5,199.5C 86.44,200.043 86.1067,200.376 85.5,200.5C 84.1745,186.672 84.1745,173.006 85.5,159.5 Z"/></g>
<g><path style="opacity:1" fill="#186ea1" d="M 634.5,198.5 C 630.167,198.5 625.833,198.5 621.5,198.5C 621.5,197.5 621.5,196.5 621.5,195.5C 622.544,182.569 624.71,169.903 628,157.5C 630.751,171.086 632.918,184.753 634.5,198.5 Z"/></g>
<g><path style="opacity:1" fill="#71a9c7" d="M 1156.5,148.5 C 1157.49,154.645 1157.82,160.978 1157.5,167.5C 1163.83,167.5 1170.17,167.5 1176.5,167.5C 1170.02,168.491 1163.35,168.824 1156.5,168.5C 1156.5,161.833 1156.5,155.167 1156.5,148.5 Z"/></g>
<g><path style="opacity:1" fill="#408db5" d="M 123.5,186.5 C 124.209,185.596 125.209,185.263 126.5,185.5C 126.5,261.833 126.5,338.167 126.5,414.5C 126.5,414.833 126.5,415.167 126.5,415.5C 126.166,338.995 125.166,262.661 123.5,186.5 Z"/></g>
<g><path style="opacity:1" fill="#5398bc" d="M 778.5,173.5 C 779.487,178.305 779.821,183.305 779.5,188.5C 772.5,188.5 765.5,188.5 758.5,188.5C 764.979,187.509 771.646,187.176 778.5,187.5C 778.5,182.833 778.5,178.167 778.5,173.5 Z"/></g>
<g><path style="opacity:1" fill="#408eb6" d="M 586.5,187.5 C 580.021,188.491 573.354,188.824 566.5,188.5C 566.5,200.167 566.5,211.833 566.5,223.5C 565.505,211.678 565.172,199.678 565.5,187.5C 572.5,187.5 579.5,187.5 586.5,187.5 Z"/></g>
<g><path style="opacity:1" fill="#408eb6" d="M 1228.5,187.5 C 1222.02,188.491 1215.35,188.824 1208.5,188.5C 1208.5,200.167 1208.5,211.833 1208.5,223.5C 1207.5,211.678 1207.17,199.678 1207.5,187.5C 1214.5,187.5 1221.5,187.5 1228.5,187.5 Z"/></g>
<g><path style="opacity:1" fill="#7aafcb" d="M 621.5,195.5 C 621.5,196.5 621.5,197.5 621.5,198.5C 625.833,198.5 630.167,198.5 634.5,198.5C 630.03,199.486 625.363,199.819 620.5,199.5C 620.232,197.901 620.566,196.568 621.5,195.5 Z"/></g>
<g><path style="opacity:1" fill="#b9d6e4" d="M 308.5,192.5 C 309.477,195.287 309.81,198.287 309.5,201.5C 326.5,201.5 343.5,201.5 360.5,201.5C 360.5,200.167 360.5,198.833 360.5,197.5C 361.451,198.919 361.784,200.585 361.5,202.5C 343.833,202.5 326.167,202.5 308.5,202.5C 308.5,199.167 308.5,195.833 308.5,192.5 Z"/></g>
<g><path style="opacity:1" fill="#4a93b9" d="M 267.5,204.5 C 267.17,220.009 267.504,235.342 268.5,250.5C 268.217,251.289 267.717,251.956 267,252.5C 266.172,236.328 266.339,220.328 267.5,204.5 Z"/></g>
<g><path style="opacity:1" fill="#fdfdfe" d="M 790.5,219.5 C 796.5,219.5 802.5,219.5 808.5,219.5C 808.914,228.582 808.414,237.582 807,246.5C 804.146,252.748 799.479,255.415 793,254.5C 792.654,252.782 792.154,251.115 791.5,249.5C 796.84,247.172 799.84,243.172 800.5,237.5C 797.167,237.5 793.833,237.5 790.5,237.5C 790.5,231.5 790.5,225.5 790.5,219.5 Z"/></g>
<g><path style="opacity:1" fill="#4c94ba" d="M 591.5,223.5 C 592.487,228.305 592.821,233.305 592.5,238.5C 576.658,238.83 560.991,238.496 545.5,237.5C 560.833,237.5 576.167,237.5 591.5,237.5C 591.5,232.833 591.5,228.167 591.5,223.5 Z"/></g>
<g><path style="opacity:1" fill="#4690b7" d="M 595.5,234.5 C 595.5,235.5 595.5,236.5 595.5,237.5C 601.5,237.5 607.5,237.5 613.5,237.5C 607.355,238.49 601.022,238.823 594.5,238.5C 594.232,236.901 594.566,235.568 595.5,234.5 Z"/></g>
<g><path style="opacity:1" fill="#4c94ba" d="M 1233.5,223.5 C 1234.49,228.305 1234.82,233.305 1234.5,238.5C 1218.66,238.83 1202.99,238.496 1187.5,237.5C 1202.83,237.5 1218.17,237.5 1233.5,237.5C 1233.5,232.833 1233.5,228.167 1233.5,223.5 Z"/></g>
<g><path style="opacity:1" fill="#07699e" d="M 284.5,278.5 C 296.335,277.329 304.168,282.329 308,293.5C 311.584,316.889 311.251,340.222 307,363.5C 301.753,377.478 292.253,381.311 278.5,375C 272.521,369.877 269.021,363.377 268,355.5C 266.457,334.192 266.124,312.859 267,291.5C 271.392,285.071 277.225,280.738 284.5,278.5 Z"/></g>
<g><path style="opacity:1" fill="#fbfcfd" d="M 737.5,305.5 C 759.672,303.343 771.338,313.343 772.5,335.5C 766.809,336.372 761.142,337.372 755.5,338.5C 755.752,332.083 753.752,326.583 749.5,322C 738.333,319.833 733.833,324.333 736,335.5C 736.444,338.611 737.777,341.277 740,343.5C 749.601,351.098 758.601,359.431 767,368.5C 775.886,381.535 776.553,394.869 769,408.5C 755.726,420.342 741.56,421.509 726.5,412C 719.662,404.148 716.329,394.982 716.5,384.5C 722.082,383.021 727.748,382.021 733.5,381.5C 733.761,387.5 735.261,393.167 738,398.5C 741.854,402.671 746.354,403.504 751.5,401C 753.941,398.347 754.941,395.18 754.5,391.5C 754.841,387.027 753.675,383.027 751,379.5C 741.333,370.5 731.667,361.5 722,352.5C 715.509,341.154 714.842,329.487 720,317.5C 724.429,311.375 730.262,307.375 737.5,305.5 Z"/></g>
<g><path style="opacity:1" fill="#fdfdfe" d="M 931.5,305.5 C 941.766,304.326 951.432,306.159 960.5,311C 967.067,316.635 970.567,323.801 971,332.5C 971.93,353.871 971.597,375.204 970,396.5C 967.127,409.707 958.96,416.874 945.5,418C 925.683,420.862 913.516,412.696 909,393.5C 908.042,370.783 908.376,348.116 910,325.5C 913.551,314.777 920.718,308.11 931.5,305.5 Z"/></g>
<g><path style="opacity:1" fill="#fcfdfe" d="M 1084.5,361.5 C 1094.5,361.5 1104.5,361.5 1114.5,361.5C 1114.5,379.833 1114.5,398.167 1114.5,416.5C 1110.17,416.5 1105.83,416.5 1101.5,416.5C 1101,413.513 1100.5,410.513 1100,407.5C 1092.79,418.388 1082.96,421.554 1070.5,417C 1059.57,411.671 1053.74,402.837 1053,390.5C 1052.1,369.137 1052.43,347.803 1054,326.5C 1058.3,312.178 1067.96,305.178 1083,305.5C 1100.56,304.423 1110.9,312.423 1114,329.5C 1114.5,334.155 1114.67,338.821 1114.5,343.5C 1107.83,343.5 1101.17,343.5 1094.5,343.5C 1094.67,337.824 1094.5,332.157 1094,326.5C 1089.35,320.069 1083.52,318.902 1076.5,323C 1075.79,324.255 1074.96,325.421 1074,326.5C 1072.38,347.782 1072.05,369.116 1073,390.5C 1074.14,401.661 1079.98,405.495 1090.5,402C 1092.62,400.269 1094.12,398.102 1095,395.5C 1096.3,388.229 1096.8,380.896 1096.5,373.5C 1092.5,373.5 1088.5,373.5 1084.5,373.5C 1084.5,369.5 1084.5,365.5 1084.5,361.5 Z"/></g>
<g><path style="opacity:1" fill="#fcfdfe" d="M 494.5,307.5 C 501.948,306.892 509.115,307.559 516,309.5C 523.17,345.189 530.336,380.856 537.5,416.5C 531.167,416.5 524.833,416.5 518.5,416.5C 518.002,408.345 516.669,400.345 514.5,392.5C 508.202,391.504 501.868,391.17 495.5,391.5C 494.168,399.83 492.835,408.163 491.5,416.5C 485.167,416.5 478.833,416.5 472.5,416.5C 479.676,380.129 487.01,343.795 494.5,307.5 Z"/></g>
<g><path style="opacity:1" fill="#b9d5e4" d="M 559.5,307.5 C 555.167,307.5 550.833,307.5 546.5,307.5C 546.5,343.833 546.5,380.167 546.5,416.5C 545.502,380.004 545.168,343.337 545.5,306.5C 550.363,306.181 555.03,306.514 559.5,307.5 Z"/></g>
<g><path style="opacity:1" fill="#fefefe" d="M 559.5,307.5 C 568.072,326.319 576.406,345.319 584.5,364.5C 584.461,365.756 584.961,366.756 586,367.5C 586.5,347.503 586.667,327.503 586.5,307.5C 591.833,307.5 597.167,307.5 602.5,307.5C 602.5,343.833 602.5,380.167 602.5,416.5C 597.901,416.8 593.401,416.467 589,415.5C 581.314,395.602 573.147,375.935 564.5,356.5C 564.291,355.078 563.791,353.745 563,352.5C 562.5,373.831 562.333,395.164 562.5,416.5C 557.167,416.5 551.833,416.5 546.5,416.5C 546.5,380.167 546.5,343.833 546.5,307.5C 550.833,307.5 555.167,307.5 559.5,307.5 Z"/></g>
<g><path style="opacity:1" fill="#4e94ba" d="M 602.5,307.5 C 597.167,307.5 591.833,307.5 586.5,307.5C 586.667,327.503 586.5,347.503 586,367.5C 584.961,366.756 584.461,365.756 584.5,364.5C 585.497,345.341 585.83,326.007 585.5,306.5C 591.358,306.178 597.025,306.511 602.5,307.5 Z"/></g>
<g><path style="opacity:1" fill="#fefefe" d="M 616.5,307.5 C 629.171,307.333 641.838,307.5 654.5,308C 666.583,309.751 673.75,316.584 676,328.5C 676.667,349.833 676.667,371.167 676,392.5C 674.367,405.464 667.201,413.297 654.5,416C 641.838,416.5 629.171,416.667 616.5,416.5C 616.5,380.167 616.5,343.833 616.5,307.5 Z"/></g>
<g><path style="opacity:1" fill="#fcfdfe" d="M 814.5,322.5 C 813.502,353.662 813.168,384.996 813.5,416.5C 806.833,416.5 800.167,416.5 793.5,416.5C 793.5,384.833 793.5,353.167 793.5,321.5C 787.5,321.5 781.5,321.5 775.5,321.5C 775.5,316.833 775.5,312.167 775.5,307.5C 794.167,307.5 812.833,307.5 831.5,307.5C 831.5,312.167 831.5,316.833 831.5,321.5C 825.642,321.178 819.975,321.511 814.5,322.5 Z"/></g>
<g><path style="opacity:1" fill="#fdfefe" d="M 866.5,367.5 C 863.713,366.523 860.713,366.19 857.5,366.5C 857.5,383.167 857.5,399.833 857.5,416.5C 850.833,416.5 844.167,416.5 837.5,416.5C 837.5,380.167 837.5,343.833 837.5,307.5C 850.504,307.333 863.504,307.5 876.5,308C 887.179,310.017 894.012,316.183 897,326.5C 897.667,333.167 897.667,339.833 897,346.5C 895.691,354.304 891.524,359.971 884.5,363.5C 890.109,380.994 895.109,398.661 899.5,416.5C 892.8,416.83 886.134,416.497 879.5,415.5C 875.16,399.471 870.827,383.471 866.5,367.5 Z"/></g>
<g><path style="opacity:1" fill="#4791b8" d="M 997.5,307.5 C 992.833,307.5 988.167,307.5 983.5,307.5C 983.5,343.833 983.5,380.167 983.5,416.5C 982.502,380.004 982.168,343.337 982.5,306.5C 987.695,306.179 992.695,306.513 997.5,307.5 Z"/></g>
<g><path style="opacity:1" fill="#fefefe" d="M 997.5,307.5 C 1005.83,326.833 1014.17,346.167 1022.5,365.5C 1022.99,366.473 1023.49,367.473 1024,368.5C 1024.5,348.169 1024.67,327.836 1024.5,307.5C 1029.83,307.5 1035.17,307.5 1040.5,307.5C 1040.5,343.833 1040.5,380.167 1040.5,416.5C 1035.9,416.8 1031.4,416.467 1027,415.5C 1018.33,394.833 1009.67,374.167 1001,353.5C 1000.5,374.497 1000.33,395.497 1000.5,416.5C 994.833,416.5 989.167,416.5 983.5,416.5C 983.5,380.167 983.5,343.833 983.5,307.5C 988.167,307.5 992.833,307.5 997.5,307.5 Z"/></g>
<g><path style="opacity:1" fill="#80b4ce" d="M 1024.5,307.5 C 1024.67,327.836 1024.5,348.169 1024,368.5C 1023.49,367.473 1022.99,366.473 1022.5,365.5C 1023.17,346.167 1023.83,326.833 1024.5,307.5 Z"/></g>
<g><path style="opacity:1" fill="#4892b8" d="M 1024.5,307.5 C 1029.98,306.511 1035.64,306.178 1041.5,306.5C 1041.83,343.337 1041.5,380.004 1040.5,416.5C 1040.5,380.167 1040.5,343.833 1040.5,307.5C 1035.17,307.5 1029.83,307.5 1024.5,307.5 Z"/></g>
<g><path style="opacity:1" fill="#0a6a9e" d="M 636.5,321.5 C 640.514,321.334 644.514,321.501 648.5,322C 652.333,323.167 654.833,325.667 656,329.5C 656.167,340 656.333,350.5 656.5,361C 656.635,372.568 656.135,384.068 655,395.5C 654.315,398.057 652.815,399.891 650.5,401C 645.934,402.309 641.267,402.809 636.5,402.5C 636.5,375.5 636.5,348.5 636.5,321.5 Z"/></g>
<g><path style="opacity:1" fill="#5297bb" d="M 868.5,321.5 C 865.167,321.5 861.833,321.5 858.5,321.5C 858.5,332.167 858.5,342.833 858.5,353.5C 857.505,342.679 857.172,331.679 857.5,320.5C 861.371,320.185 865.038,320.518 868.5,321.5 Z"/></g>
<g><path style="opacity:1" fill="#03689d" d="M 868.5,321.5 C 873.305,322.132 876.472,324.799 878,329.5C 882.045,346.498 875.545,354.498 858.5,353.5C 858.5,342.833 858.5,332.167 858.5,321.5C 861.833,321.5 865.167,321.5 868.5,321.5 Z"/></g>
<g><path style="opacity:1" fill="#146ca0" d="M 935.5,320.5 C 943.834,319.235 949.001,322.569 951,330.5C 951.667,351.5 951.667,372.5 951,393.5C 947.881,403.306 941.714,405.806 932.5,401C 930.562,398.53 929.396,395.696 929,392.5C 928.333,371.833 928.333,351.167 929,330.5C 929.435,325.945 931.602,322.611 935.5,320.5 Z"/></g>
<g><path style="opacity:1" fill="#156da0" d="M 511.5,375.5 C 507.627,377.43 503.294,378.097 498.5,377.5C 500.266,363.445 502.432,349.445 505,335.5C 507.712,348.743 509.879,362.076 511.5,375.5 Z"/></g>
<g><path style="opacity:1" fill="#428fb6" d="M 564.5,356.5 C 563.833,376.5 563.167,396.5 562.5,416.5C 562.333,395.164 562.5,373.831 563,352.5C 563.791,353.745 564.291,355.078 564.5,356.5 Z"/></g>
<g><path style="opacity:1" fill="#5297bb" d="M 1084.5,361.5 C 1094.65,360.506 1104.99,360.172 1115.5,360.5C 1115.83,379.341 1115.5,398.007 1114.5,416.5C 1114.5,398.167 1114.5,379.833 1114.5,361.5C 1104.5,361.5 1094.5,361.5 1084.5,361.5 Z"/></g>
<g><path style="opacity:1" fill="#408eb6" d="M 866.5,367.5 C 863.833,367.5 861.167,367.5 858.5,367.5C 858.83,384.009 858.496,400.342 857.5,416.5C 857.5,399.833 857.5,383.167 857.5,366.5C 860.713,366.19 863.713,366.523 866.5,367.5 Z"/></g>
<g><path style="opacity:1" fill="#4792b8" d="M 511.5,375.5 C 512.404,376.209 512.737,377.209 512.5,378.5C 507.637,378.819 502.97,378.486 498.5,377.5C 503.294,378.097 507.627,377.43 511.5,375.5 Z"/></g>
<g><path style="opacity:1" fill="#5e9ec0" d="M 814.5,322.5 C 814.5,354.167 814.5,385.833 814.5,417.5C 807.313,417.825 800.313,417.491 793.5,416.5C 800.167,416.5 806.833,416.5 813.5,416.5C 813.168,384.996 813.502,353.662 814.5,322.5 Z"/></g>
<g><path style="opacity:1" fill="#fbfdfd" d="M 598.5,485.5 C 622.767,481.119 635.433,491.119 636.5,515.5C 630.767,515.647 625.1,516.314 619.5,517.5C 619.411,512.554 618.245,507.887 616,503.5C 611.863,500.171 607.363,499.671 602.5,502C 598.256,509.079 598.756,515.912 604,522.5C 613.627,530.126 622.627,538.46 631,547.5C 639.583,559.911 640.583,572.911 634,586.5C 624.543,596.798 613.043,599.965 599.5,596C 590.904,593.071 585.404,587.237 583,578.5C 581.584,573.588 580.751,568.588 580.5,563.5C 586.513,562.493 592.513,561.493 598.5,560.5C 597.96,567.855 599.96,574.355 604.5,580C 616.502,583.587 621.335,579.087 619,566.5C 617.667,563.833 616.333,561.167 615,558.5C 605.667,549.833 596.333,541.167 587,532.5C 579.203,520.548 578.536,508.215 585,495.5C 588.802,491.037 593.302,487.703 598.5,485.5 Z"/></g>
<g><path style="opacity:1" fill="#4c93b9" d="M 639.5,486.5 C 658.326,485.503 677.326,485.17 696.5,485.5C 696.821,491.026 696.488,496.36 695.5,501.5C 695.5,496.5 695.5,491.5 695.5,486.5C 676.833,486.5 658.167,486.5 639.5,486.5 Z"/></g>
<g><path style="opacity:1" fill="#4c93b9" d="M 728.5,486.5 C 747.326,485.503 766.326,485.17 785.5,485.5C 785.821,491.026 785.488,496.36 784.5,501.5C 784.5,496.5 784.5,491.5 784.5,486.5C 765.833,486.5 747.167,486.5 728.5,486.5 Z"/></g>
<g><path style="opacity:1" fill="#4c93b9" d="M 856.5,486.5 C 875.326,485.503 894.326,485.17 913.5,485.5C 913.821,491.026 913.488,496.36 912.5,501.5C 912.5,496.5 912.5,491.5 912.5,486.5C 893.833,486.5 875.167,486.5 856.5,486.5 Z"/></g>
<g><path style="opacity:1" fill="#fbfcfd" d="M 971.5,485.5 C 979.174,485.334 986.841,485.5 994.5,486C 1005.17,489.342 1011.67,496.509 1014,507.5C 1014.67,529.5 1014.67,551.5 1014,573.5C 1011.48,586.689 1003.64,594.522 990.5,597C 971.856,600.935 959.356,594.102 953,576.5C 951.413,554.533 951.08,532.533 952,510.5C 953.261,497.937 959.761,489.604 971.5,485.5 Z"/></g>
<g><path style="opacity:1" fill="#fbfcfd" d="M 1114.5,485.5 C 1133.59,481.608 1145.42,488.941 1150,507.5C 1150.81,509.902 1150.65,512.235 1149.5,514.5C 1144.26,516.014 1138.93,517.014 1133.5,517.5C 1134.04,510.988 1132.04,505.488 1127.5,501C 1116.56,499.615 1112.06,504.448 1114,515.5C 1114.67,516.833 1115.33,518.167 1116,519.5C 1124.48,527.733 1133.14,535.733 1142,543.5C 1151.19,553.425 1154.53,565.091 1152,578.5C 1145.78,593.366 1134.61,599.533 1118.5,597C 1106.17,594.914 1098.67,587.747 1096,575.5C 1095.17,571.534 1094.67,567.534 1094.5,563.5C 1100.46,562.285 1106.46,561.285 1112.5,560.5C 1112.26,567.726 1114.26,574.226 1118.5,580C 1127.76,583.874 1132.76,580.874 1133.5,571C 1133.34,566.864 1132.18,563.031 1130,559.5C 1120.33,550.5 1110.67,541.5 1101,532.5C 1093.2,520.543 1092.53,508.21 1099,495.5C 1103.21,490.492 1108.37,487.159 1114.5,485.5 Z"/></g>
<g><path style="opacity:1" fill="#fefffe" d="M 478.5,486.5 C 485.167,486.5 491.833,486.5 498.5,486.5C 498.5,522.833 498.5,559.167 498.5,595.5C 491.833,595.5 485.167,595.5 478.5,595.5C 478.5,559.167 478.5,522.833 478.5,486.5 Z"/></g>
<g><path style="opacity:1" fill="#fefefe" d="M 551.5,544.5 C 551.987,545.473 552.487,546.473 553,547.5C 553.5,527.169 553.667,506.836 553.5,486.5C 558.833,486.5 564.167,486.5 569.5,486.5C 569.5,522.833 569.5,559.167 569.5,595.5C 564.737,595.774 560.07,595.441 555.5,594.5C 547.299,573.736 538.799,553.07 530,532.5C 529.5,553.497 529.333,574.497 529.5,595.5C 523.833,595.5 518.167,595.5 512.5,595.5C 512.5,559.167 512.5,522.833 512.5,486.5C 517.43,486.197 522.263,486.531 527,487.5C 535.182,506.526 543.348,525.526 551.5,544.5 Z"/></g>
<g><path style="opacity:1" fill="#80b3ce" d="M 553.5,486.5 C 553.667,506.836 553.5,527.169 553,547.5C 552.487,546.473 551.987,545.473 551.5,544.5C 552.167,525.167 552.833,505.833 553.5,486.5 Z"/></g>
<g><path style="opacity:1" fill="#4791b8" d="M 569.5,486.5 C 570.498,522.996 570.832,559.663 570.5,596.5C 565.056,597.108 560.056,596.442 555.5,594.5C 560.07,595.441 564.737,595.774 569.5,595.5C 569.5,559.167 569.5,522.833 569.5,486.5 Z"/></g>
<g><path style="opacity:1" fill="#fcfdfd" d="M 639.5,486.5 C 658.167,486.5 676.833,486.5 695.5,486.5C 695.5,491.5 695.5,496.5 695.5,501.5C 689.833,501.5 684.167,501.5 678.5,501.5C 678.5,532.833 678.5,564.167 678.5,595.5C 671.833,595.5 665.167,595.5 658.5,595.5C 658.5,564.167 658.5,532.833 658.5,501.5C 652.167,501.5 645.833,501.5 639.5,501.5C 639.5,496.5 639.5,491.5 639.5,486.5 Z"/></g>
<g><path style="opacity:1" fill="#fcfdfd" d="M 702.5,486.5 C 709.167,486.5 715.833,486.5 722.5,486.5C 722.5,522.833 722.5,559.167 722.5,595.5C 715.833,595.5 709.167,595.5 702.5,595.5C 702.5,559.167 702.5,522.833 702.5,486.5 Z"/></g>
<g><path style="opacity:1" fill="#fcfdfd" d="M 728.5,486.5 C 747.167,486.5 765.833,486.5 784.5,486.5C 784.5,491.5 784.5,496.5 784.5,501.5C 778.833,501.5 773.167,501.5 767.5,501.5C 767.5,532.833 767.5,564.167 767.5,595.5C 760.833,595.5 754.167,595.5 747.5,595.5C 747.5,564.167 747.5,532.833 747.5,501.5C 741.167,501.5 734.833,501.5 728.5,501.5C 728.5,496.5 728.5,491.5 728.5,486.5 Z"/></g>
<g><path style="opacity:1" fill="#fcfdfe" d="M 789.5,486.5 C 796.167,486.5 802.833,486.5 809.5,486.5C 809.333,514.169 809.5,541.835 810,569.5C 811.903,582.287 818.236,585.287 829,578.5C 830.846,575.431 831.846,572.098 832,568.5C 832.5,541.169 832.667,513.835 832.5,486.5C 838.833,486.5 845.167,486.5 851.5,486.5C 851.944,516.866 851.444,547.199 850,577.5C 845.598,591.54 835.931,598.207 821,597.5C 801.25,597.419 790.917,587.419 790,567.5C 789.5,540.502 789.333,513.502 789.5,486.5 Z"/></g>
<g><path style="opacity:1" fill="#fcfdfd" d="M 856.5,486.5 C 875.167,486.5 893.833,486.5 912.5,486.5C 912.5,491.5 912.5,496.5 912.5,501.5C 906.833,501.5 901.167,501.5 895.5,501.5C 895.5,532.833 895.5,564.167 895.5,595.5C 888.833,595.5 882.167,595.5 875.5,595.5C 875.5,564.167 875.5,532.833 875.5,501.5C 869.167,501.5 862.833,501.5 856.5,501.5C 856.5,496.5 856.5,491.5 856.5,486.5 Z"/></g>
<g><path style="opacity:1" fill="#fcfdfd" d="M 919.5,486.5 C 926.167,486.5 932.833,486.5 939.5,486.5C 939.5,522.833 939.5,559.167 939.5,595.5C 932.833,595.5 926.167,595.5 919.5,595.5C 919.5,559.167 919.5,522.833 919.5,486.5 Z"/></g>
<g><path style="opacity:1" fill="#fefefe" d="M 1065.5,544.5 C 1065.99,545.473 1066.49,546.473 1067,547.5C 1067.5,527.169 1067.67,506.836 1067.5,486.5C 1072.83,486.5 1078.17,486.5 1083.5,486.5C 1083.5,522.833 1083.5,559.167 1083.5,595.5C 1078.9,595.8 1074.4,595.467 1070,594.5C 1061.82,574.808 1053.65,555.141 1045.5,535.5C 1045.01,534.527 1044.51,533.527 1044,532.5C 1043.5,553.497 1043.33,574.497 1043.5,595.5C 1037.83,595.5 1032.17,595.5 1026.5,595.5C 1026.5,559.167 1026.5,522.833 1026.5,486.5C 1031.43,486.197 1036.26,486.531 1041,487.5C 1049.46,506.401 1057.63,525.401 1065.5,544.5 Z"/></g>
<g><path style="opacity:1" fill="#438fb6" d="M 1067.5,486.5 C 1067.67,506.836 1067.5,527.169 1067,547.5C 1066.49,546.473 1065.99,545.473 1065.5,544.5C 1066.17,525.167 1066.83,505.833 1067.5,486.5 Z"/></g>
<g><path style="opacity:1" fill="#096a9e" d="M 977.5,500.5 C 981.182,500.335 984.848,500.501 988.5,501C 991.663,502.48 993.496,504.98 994,508.5C 994.667,530.167 994.667,551.833 994,573.5C 990.51,582.811 984.343,584.977 975.5,580C 974.283,578.352 973.45,576.519 973,574.5C 972.333,551.833 972.333,529.167 973,506.5C 973.804,503.854 975.304,501.854 977.5,500.5 Z"/></g>
<g><path style="opacity:1" fill="#4c94ba" d="M 1045.5,535.5 C 1044.5,555.66 1044.17,575.993 1044.5,596.5C 1038.31,596.823 1032.31,596.49 1026.5,595.5C 1032.17,595.5 1037.83,595.5 1043.5,595.5C 1043.33,574.497 1043.5,553.497 1044,532.5C 1044.51,533.527 1045.01,534.527 1045.5,535.5 Z"/></g>
<g><path style="opacity:1" fill="#63a1c2" d="M 702.5,486.5 C 702.5,522.833 702.5,559.167 702.5,595.5C 709.167,595.5 715.833,595.5 722.5,595.5C 715.687,596.491 708.687,596.825 701.5,596.5C 701.168,559.663 701.502,522.996 702.5,486.5 Z"/></g>
<g><path style="opacity:1" fill="#63a1c2" d="M 919.5,486.5 C 919.5,522.833 919.5,559.167 919.5,595.5C 926.167,595.5 932.833,595.5 939.5,595.5C 932.687,596.491 925.687,596.825 918.5,596.5C 918.168,559.663 918.502,522.996 919.5,486.5 Z"/></g>
<g><path style="opacity:1" fill="#fcfdfe" d="M 1082.5,659.5 C 1087.83,659.5 1093.17,659.5 1098.5,659.5C 1099.58,674.315 1095.75,687.648 1087,699.5C 1075.15,708.676 1061.65,713.009 1046.5,712.5C 1044.37,693.369 1050.7,677.869 1065.5,666C 1071.06,663.207 1076.72,661.041 1082.5,659.5 Z"/></g>
<g><path style="opacity:1" fill="#fbfdfd" d="M 996.5,664.5 C 1026.6,681.561 1031.93,704.561 1012.5,733.5C 983.385,716.038 978.051,693.038 996.5,664.5 Z"/></g>
<g><path style="opacity:1" fill="#fcfdfd" d="M 956.5,707.5 C 984.617,721.353 991.45,742.353 977,770.5C 975.898,772.381 974.565,774.048 973,775.5C 944.026,758.713 938.526,736.046 956.5,707.5 Z"/></g>
<g><path style="opacity:1" fill="#fefefe" d="M 425.5,1240.5 C 425.5,1224.83 425.5,1209.17 425.5,1193.5C 430.833,1193.5 436.167,1193.5 441.5,1193.5C 509.501,1194.78 577.501,1196.11 645.5,1197.5C 645.5,1174.83 645.5,1152.17 645.5,1129.5C 611.08,1127.65 578.413,1119.15 547.5,1104C 525.903,1091.4 504.57,1078.4 483.5,1065C 475.595,1060.88 467.595,1057.05 459.5,1053.5C 459.5,1053.17 459.5,1052.83 459.5,1052.5C 486.594,1057.8 513.261,1056.3 539.5,1048C 545.779,1045.53 551.779,1042.53 557.5,1039C 575.869,1024.98 595.535,1012.98 616.5,1003C 622.865,1001.44 629.198,999.773 635.5,998C 592.763,993.226 560.597,972.393 539,935.5C 530.724,920.616 524.391,904.949 520,888.5C 514.438,864.784 508.771,841.117 503,817.5C 497.924,797.913 489.59,779.913 478,763.5C 471.225,755.727 463.059,749.893 453.5,746C 516.162,738.338 572.162,754.005 621.5,793C 639.101,807.931 656.101,823.597 672.5,840C 690.614,855.392 711.281,866.059 734.5,872C 768.757,876.913 799.091,868.246 825.5,846C 845.147,826.007 866.813,808.674 890.5,794C 904.262,785.992 918.596,784.659 933.5,790C 944.551,799.044 955.051,808.877 965,819.5C 968.653,804.518 974.986,790.851 984,778.5C 996.071,763.739 1009.07,749.739 1023,736.5C 1028.03,730.309 1032.86,723.976 1037.5,717.5C 1039.83,719 1042.17,720.5 1044.5,722C 1040.67,727.167 1036.83,732.333 1033,737.5C 1018.97,751.866 1005.3,766.532 992,781.5C 981.507,794.81 975.174,809.81 973,826.5C 980.557,832.389 988.39,837.889 996.5,843C 988.147,843.334 979.814,843.834 971.5,844.5C 971.548,863.577 974.882,882.077 981.5,900C 981.095,900.945 980.428,901.612 979.5,902C 977.527,902.495 975.527,902.662 973.5,902.5C 968.009,883.897 964.343,864.897 962.5,845.5C 918.903,852.263 895.07,877.596 891,921.5C 890.667,939.5 890.333,957.5 890,975.5C 884.76,1034.38 855.594,1076.54 802.5,1102C 773.132,1115.4 742.465,1124.23 710.5,1128.5C 710.5,1152.17 710.5,1175.83 710.5,1199.5C 751.494,1200.66 792.494,1201.16 833.5,1201C 857.5,1198.41 881.5,1195.91 905.5,1193.5C 905.333,1179.83 905.5,1166.16 906,1152.5C 907.5,1149.67 909.667,1147.5 912.5,1146C 955.167,1145.33 997.833,1145.33 1040.5,1146C 1043.91,1147.08 1046.41,1149.24 1048,1152.5C 1048.67,1195.17 1048.67,1237.83 1048,1280.5C 1047.26,1283.57 1045.43,1285.74 1042.5,1287C 998.833,1287.67 955.167,1287.67 911.5,1287C 908.619,1285.75 906.786,1283.58 906,1280.5C 905.5,1267.17 905.333,1253.84 905.5,1240.5C 877.329,1237.46 849.162,1234.46 821,1231.5C 689.178,1235.04 557.345,1238.04 425.5,1240.5 Z"/></g>
<g><path style="opacity:1" fill="#fbfdfd" d="M 1058.5,735.5 C 1073.7,734.233 1086.7,738.899 1097.5,749.5C 1078.01,773.984 1056.68,775.817 1033.5,755C 1040.28,746.378 1048.61,739.878 1058.5,735.5 Z"/></g>
<g><path style="opacity:1" fill="#fbfdfd" d="M 1021.5,779.5 C 1038.74,778.547 1052.07,785.381 1061.5,800C 1037.41,820.137 1016.08,817.637 997.5,792.5C 1004.63,786.333 1012.63,782 1021.5,779.5 Z"/></g>
<g><path style="opacity:1" fill="#66a4c4" d="M 451.5,1050.5 C 448.247,1050.44 445.247,1049.6 442.5,1048C 445.737,1048.06 448.737,1048.89 451.5,1050.5 Z"/></g>
<g><path style="opacity:1" fill="#98c0d6" d="M 451.5,1050.5 C 454.495,1050.29 457.162,1050.96 459.5,1052.5C 459.5,1052.83 459.5,1053.17 459.5,1053.5C 456.603,1052.87 453.936,1051.87 451.5,1050.5 Z"/></g>
<g><path style="opacity:1" fill="#fefefe" d="M 906.5,1095.5 C 953.168,1095.33 999.835,1095.5 1046.5,1096C 1058.25,1099.44 1063.08,1107.27 1061,1119.5C 1058.81,1125.69 1054.64,1129.86 1048.5,1132C 1000.5,1132.67 952.5,1132.67 904.5,1132C 892.794,1125.1 889.961,1115.6 896,1103.5C 898.94,1099.96 902.44,1097.3 906.5,1095.5 Z"/></g>
<g><path style="opacity:1" fill="#00689d" d="M 682.5,1130.5 C 685.167,1130.5 687.833,1130.5 690.5,1130.5C 690.5,1153.17 690.5,1175.83 690.5,1198.5C 682.167,1198.5 673.833,1198.5 665.5,1198.5C 665.5,1176.17 665.5,1153.83 665.5,1131.5C 671.358,1131.82 677.025,1131.49 682.5,1130.5 Z"/></g>
<g><path style="opacity:1" fill="#84b6cf" d="M 682.5,1130.5 C 677.025,1131.49 671.358,1131.82 665.5,1131.5C 665.5,1153.83 665.5,1176.17 665.5,1198.5C 664.503,1176.01 664.169,1153.34 664.5,1130.5C 670.5,1130.5 676.5,1130.5 682.5,1130.5 Z"/></g>
<g><path style="opacity:1" fill="#fcfdfe" d="M 385.5,1181.5 C 391.909,1181.18 398.243,1181.68 404.5,1183C 408.388,1185.22 411.221,1188.39 413,1192.5C 414.599,1207.11 414.932,1221.78 414,1236.5C 412.759,1242.84 409.259,1247.34 403.5,1250C 396.833,1250.67 390.167,1250.67 383.5,1250C 378.449,1247.28 375.282,1243.11 374,1237.5C 373.333,1223.17 373.333,1208.83 374,1194.5C 376.002,1188.46 379.835,1184.13 385.5,1181.5 Z"/></g>
<g><path style="opacity:1" fill="#428fb6" d="M 441.5,1193.5 C 436.167,1193.5 430.833,1193.5 425.5,1193.5C 425.5,1209.17 425.5,1224.83 425.5,1240.5C 424.504,1224.68 424.17,1208.68 424.5,1192.5C 430.358,1192.18 436.025,1192.51 441.5,1193.5 Z"/></g>
<g><path style="opacity:1" fill="#fefefe" d="M 906.5,1300.5 C 953.501,1300.33 1000.5,1300.5 1047.5,1301C 1061.56,1306.97 1065.06,1316.81 1058,1330.5C 1055.41,1333.54 1052.24,1335.71 1048.5,1337C 1000.83,1337.67 953.167,1337.67 905.5,1337C 897.511,1333.71 893.178,1327.71 892.5,1319C 893.586,1310.09 898.252,1303.92 906.5,1300.5 Z"/></g>
</svg>
