<?xml version="1.0" encoding="UTF-8"?>
<!DOCTYPE svg PUBLIC "-//W3C//DTD SVG 1.1//EN" "http://www.w3.org/Graphics/SVG/1.1/DTD/svg11.dtd">
<svg xmlns="http://www.w3.org/2000/svg" version="1.1" width="1500px" height="1500px" style="shape-rendering:geometricPrecision; text-rendering:geometricPrecision; image-rendering:optimizeQuality; fill-rule:evenodd; clip-rule:evenodd" xmlns:xlink="http://www.w3.org/1999/xlink">
<g><path style="opacity:1" fill="#fcc30b" d="M -0.5,-0.5 C 499.5,-0.5 999.5,-0.5 1499.5,-0.5C 1499.5,499.5 1499.5,999.5 1499.5,1499.5C 999.5,1499.5 499.5,1499.5 -0.5,1499.5C -0.5,999.5 -0.5,499.5 -0.5,-0.5 Z"/></g>
<g><path style="opacity:1" fill="#fffdfb" d="M 569.5,126.5 C 580.264,125.419 590.264,127.585 599.5,133C 605.174,139.011 608.341,146.178 609,154.5C 609.928,175.204 609.595,195.871 608,216.5C 605.464,228.369 598.297,235.536 586.5,238C 562.655,242.849 549.155,233.349 546,209.5C 545.073,189.129 545.407,168.796 547,148.5C 549.794,136.205 557.294,128.871 569.5,126.5 Z"/></g>
<g><path style="opacity:1" fill="#feeebd" d="M 390.5,128.5 C 393.984,127.835 397.651,127.501 401.5,127.5C 405.565,127.511 409.232,128.178 412.5,129.5C 405.254,128.536 397.92,128.203 390.5,128.5 Z"/></g>
<g><path style="opacity:1" fill="#fee9a9" d="M 462.5,173.5 C 461.506,163.013 461.172,152.346 461.5,141.5C 469.833,141.5 478.167,141.5 486.5,141.5C 486.5,137.167 486.5,132.833 486.5,128.5C 471.833,128.5 457.167,128.5 442.5,128.5C 442.5,164.833 442.5,201.167 442.5,237.5C 441.502,201.004 441.168,164.337 441.5,127.5C 456.833,127.5 472.167,127.5 487.5,127.5C 487.5,132.5 487.5,137.5 487.5,142.5C 479.167,142.5 470.833,142.5 462.5,142.5C 462.5,152.833 462.5,163.167 462.5,173.5 Z"/></g>
<g><path style="opacity:1" fill="#fffefe" d="M 120.5,128.5 C 164.167,128.5 207.833,128.5 251.5,128.5C 251.5,140.5 251.5,152.5 251.5,164.5C 231.987,247.219 212.154,329.886 192,412.5C 174.404,414.478 156.57,415.145 138.5,414.5C 158.17,333.822 177.836,253.155 197.5,172.5C 198.404,171.791 198.737,170.791 198.5,169.5C 172.5,169.5 146.5,169.5 120.5,169.5C 120.5,155.833 120.5,142.167 120.5,128.5 Z"/></g>
<g><path style="opacity:1" fill="#fee9a7" d="M 120.5,128.5 C 164.33,127.501 208.33,127.168 252.5,127.5C 252.829,140.011 252.495,152.345 251.5,164.5C 251.5,152.5 251.5,140.5 251.5,128.5C 207.833,128.5 164.167,128.5 120.5,128.5 Z"/></g>
<g><path style="opacity:1" fill="#fffefc" d="M 390.5,128.5 C 397.92,128.203 405.254,128.536 412.5,129.5C 419.502,165.51 426.502,201.51 433.5,237.5C 427.5,237.5 421.5,237.5 415.5,237.5C 413.981,229.199 412.647,220.865 411.5,212.5C 404.833,212.5 398.167,212.5 391.5,212.5C 390.599,220.574 389.265,228.574 387.5,236.5C 381.202,237.496 374.868,237.83 368.5,237.5C 375.94,201.191 383.274,164.858 390.5,128.5 Z"/></g>
<g><path style="opacity:1" fill="#fffefd" d="M 462.5,173.5 C 469.167,173.5 475.833,173.5 482.5,173.5C 482.5,178.167 482.5,182.833 482.5,187.5C 475.833,187.5 469.167,187.5 462.5,187.5C 462.5,204.167 462.5,220.833 462.5,237.5C 455.833,237.5 449.167,237.5 442.5,237.5C 442.5,201.167 442.5,164.833 442.5,128.5C 457.167,128.5 471.833,128.5 486.5,128.5C 486.5,132.833 486.5,137.167 486.5,141.5C 478.167,141.5 469.833,141.5 461.5,141.5C 461.172,152.346 461.506,163.013 462.5,173.5 Z"/></g>
<g><path style="opacity:1" fill="#feefbf" d="M 539.5,141.5 C 539.5,137.167 539.5,132.833 539.5,128.5C 524.833,128.5 510.167,128.5 495.5,128.5C 495.5,164.833 495.5,201.167 495.5,237.5C 494.502,201.004 494.168,164.337 494.5,127.5C 509.833,127.5 525.167,127.5 540.5,127.5C 540.819,132.363 540.486,137.03 539.5,141.5 Z"/></g>
<g><path style="opacity:1" fill="#fffefe" d="M 539.5,141.5 C 531.248,141.184 523.081,141.518 515,142.5C 514.5,152.828 514.334,163.161 514.5,173.5C 521.167,173.5 527.833,173.5 534.5,173.5C 534.5,178.167 534.5,182.833 534.5,187.5C 527.833,187.5 521.167,187.5 514.5,187.5C 514.5,204.167 514.5,220.833 514.5,237.5C 508.167,237.5 501.833,237.5 495.5,237.5C 495.5,201.167 495.5,164.833 495.5,128.5C 510.167,128.5 524.833,128.5 539.5,128.5C 539.5,132.833 539.5,137.167 539.5,141.5 Z"/></g>
<g><path style="opacity:1" fill="#fee38f" d="M 653.5,128.5 C 642.833,128.5 632.167,128.5 621.5,128.5C 621.5,164.833 621.5,201.167 621.5,237.5C 620.502,201.004 620.168,164.337 620.5,127.5C 631.679,127.172 642.679,127.505 653.5,128.5 Z"/></g>
<g><path style="opacity:1" fill="#fffefc" d="M 653.5,128.5 C 672.298,128.965 681.631,138.632 681.5,157.5C 681.217,164.638 679.383,171.305 676,177.5C 673.298,179.907 670.798,182.407 668.5,185C 673.27,202.476 677.937,219.976 682.5,237.5C 675.833,237.5 669.167,237.5 662.5,237.5C 658.501,220.838 654.501,204.172 650.5,187.5C 647.5,187.5 644.5,187.5 641.5,187.5C 641.5,204.167 641.5,220.833 641.5,237.5C 634.833,237.5 628.167,237.5 621.5,237.5C 621.5,201.167 621.5,164.833 621.5,128.5C 632.167,128.5 642.833,128.5 653.5,128.5 Z"/></g>
<g><path style="opacity:1" fill="#fffefd" d="M 693.5,127.5 C 704.505,127.333 715.505,127.5 726.5,128C 741.986,128.493 750.82,136.326 753,151.5C 753.667,171.833 753.667,192.167 753,212.5C 751.491,227.343 743.324,235.509 728.5,237C 716.838,237.5 705.171,237.667 693.5,237.5C 693.5,200.833 693.5,164.167 693.5,127.5 Z"/></g>
<g><path style="opacity:1" fill="#fffefc" d="M 780.5,127.5 C 787.5,127.5 794.5,127.5 801.5,127.5C 808.962,164.141 816.295,200.808 823.5,237.5C 817.167,237.5 810.833,237.5 804.5,237.5C 803.477,229.51 802.311,221.51 801,213.5C 794.59,212.522 788.09,212.189 781.5,212.5C 780.274,220.853 778.941,229.187 777.5,237.5C 771.167,237.5 764.833,237.5 758.5,237.5C 765.705,200.809 773.038,164.142 780.5,127.5 Z"/></g>
<g><path style="opacity:1" fill="#feefc1" d="M 865.5,128.5 C 854.5,128.5 843.5,128.5 832.5,128.5C 832.5,164.833 832.5,201.167 832.5,237.5C 831.502,201.004 831.168,164.337 831.5,127.5C 843.012,127.172 854.346,127.505 865.5,128.5 Z"/></g>
<g><path style="opacity:1" fill="#fffefd" d="M 865.5,128.5 C 877.42,128.868 885.587,134.535 890,145.5C 890.848,152.899 890.515,160.233 889,167.5C 886.432,173.543 881.932,177.376 875.5,179C 886.08,181.248 892.247,187.748 894,198.5C 895.524,208.404 893.857,217.737 889,226.5C 884.633,232.434 878.8,235.934 871.5,237C 858.504,237.5 845.504,237.667 832.5,237.5C 832.5,201.167 832.5,164.833 832.5,128.5C 843.5,128.5 854.5,128.5 865.5,128.5 Z"/></g>
<g><path style="opacity:1" fill="#fffefd" d="M 904.5,127.5 C 911.167,127.5 917.833,127.5 924.5,127.5C 924.5,159.5 924.5,191.5 924.5,223.5C 933.167,223.5 941.833,223.5 950.5,223.5C 950.5,228.167 950.5,232.833 950.5,237.5C 935.167,237.5 919.833,237.5 904.5,237.5C 904.5,200.833 904.5,164.167 904.5,127.5 Z"/></g>
<g><path style="opacity:1" fill="#fffefd" d="M 958.5,127.5 C 973.833,127.5 989.167,127.5 1004.5,127.5C 1004.5,132.5 1004.5,137.5 1004.5,142.5C 995.833,142.5 987.167,142.5 978.5,142.5C 978.5,152.833 978.5,163.167 978.5,173.5C 985.167,173.5 991.833,173.5 998.5,173.5C 998.5,178.167 998.5,182.833 998.5,187.5C 991.833,187.5 985.167,187.5 978.5,187.5C 978.5,199.5 978.5,211.5 978.5,223.5C 987.167,223.5 995.833,223.5 1004.5,223.5C 1004.5,228.167 1004.5,232.833 1004.5,237.5C 989.167,237.5 973.833,237.5 958.5,237.5C 958.5,200.833 958.5,164.167 958.5,127.5 Z"/></g>
<g><path style="opacity:1" fill="#fffefc" d="M 1060.5,127.5 C 1067.5,127.5 1074.5,127.5 1081.5,127.5C 1088.32,163.941 1095.65,200.274 1103.5,236.5C 1097.2,237.496 1090.87,237.83 1084.5,237.5C 1083.17,229.18 1081.83,220.846 1080.5,212.5C 1073.91,212.189 1067.41,212.522 1061,213.5C 1059.51,221.465 1058.34,229.465 1057.5,237.5C 1051.17,237.5 1044.83,237.5 1038.5,237.5C 1045.22,200.677 1052.56,164.01 1060.5,127.5 Z"/></g>
<g><path style="opacity:1" fill="#fffefd" d="M 1150.5,186.5 C 1150.78,187.289 1151.28,187.956 1152,188.5C 1152.5,168.169 1152.67,147.836 1152.5,127.5C 1157.83,127.5 1163.17,127.5 1168.5,127.5C 1168.5,164.167 1168.5,200.833 1168.5,237.5C 1163.9,237.8 1159.4,237.467 1155,236.5C 1146.53,215.419 1137.86,194.419 1129,173.5C 1128.5,194.831 1128.33,216.164 1128.5,237.5C 1122.83,237.5 1117.17,237.5 1111.5,237.5C 1111.5,200.833 1111.5,164.167 1111.5,127.5C 1116.21,127.173 1120.88,127.507 1125.5,128.5C 1133.85,147.855 1142.18,167.188 1150.5,186.5 Z"/></g>
<g><path style="opacity:1" fill="#fde084" d="M 1152.5,127.5 C 1152.67,147.836 1152.5,168.169 1152,188.5C 1151.28,187.956 1150.78,187.289 1150.5,186.5C 1151.17,166.833 1151.83,147.167 1152.5,127.5 Z"/></g>
<g><path style="opacity:1" fill="#fffefd" d="M 1182.5,127.5 C 1193.51,127.333 1204.51,127.5 1215.5,128C 1230.13,128.873 1238.97,136.373 1242,150.5C 1242.67,170.833 1242.67,191.167 1242,211.5C 1240.92,226.838 1232.75,235.338 1217.5,237C 1205.84,237.5 1194.17,237.667 1182.5,237.5C 1182.5,200.833 1182.5,164.167 1182.5,127.5 Z"/></g>
<g><path style="opacity:1" fill="#fcc30f" d="M 572.5,141.5 C 576.273,141.263 579.94,141.763 583.5,143C 585.815,144.109 587.315,145.943 588,148.5C 588.667,171.167 588.667,193.833 588,216.5C 584.019,224.16 578.185,225.994 570.5,222C 568.396,219.958 567.229,217.458 567,214.5C 566.333,192.833 566.333,171.167 567,149.5C 567.625,145.891 569.458,143.224 572.5,141.5 Z"/></g>
<g><path style="opacity:1" fill="#fcc418" d="M 641.5,141.5 C 659.417,140.61 665.917,148.944 661,166.5C 659.604,171.228 656.438,173.728 651.5,174C 648.183,174.498 644.85,174.665 641.5,174.5C 641.5,163.5 641.5,152.5 641.5,141.5 Z"/></g>
<g><path style="opacity:1" fill="#fcc312" d="M 713.5,142.5 C 717.846,142.334 722.179,142.501 726.5,143C 730.521,144.868 732.687,148.035 733,152.5C 733.167,162.5 733.333,172.5 733.5,182.5C 733.622,193.888 733.122,205.221 732,216.5C 731.315,219.057 729.815,220.891 727.5,222C 722.915,223.225 718.248,223.725 713.5,223.5C 713.5,196.5 713.5,169.5 713.5,142.5 Z"/></g>
<g><path style="opacity:1" fill="#fcc51d" d="M 851.5,142.5 C 870.225,139.721 877.059,147.387 872,165.5C 870.437,168.728 867.937,170.895 864.5,172C 860.179,172.499 855.846,172.666 851.5,172.5C 851.5,162.5 851.5,152.5 851.5,142.5 Z"/></g>
<g><path style="opacity:1" fill="#fcc312" d="M 1202.5,142.5 C 1207.58,142.25 1212.58,142.75 1217.5,144C 1220.47,146.448 1221.97,149.614 1222,153.5C 1222.93,174.537 1222.6,195.537 1221,216.5C 1219.88,218.624 1218.38,220.457 1216.5,222C 1211.91,223.225 1207.25,223.725 1202.5,223.5C 1202.5,196.5 1202.5,169.5 1202.5,142.5 Z"/></g>
<g><path style="opacity:1" fill="#fcc51c" d="M 1077.5,196.5 C 1075.78,197.8 1073.61,198.467 1071,198.5C 1068.39,198.467 1066.22,197.8 1064.5,196.5C 1066.22,183.069 1068.39,169.736 1071,156.5C 1073.49,169.791 1075.66,183.124 1077.5,196.5 Z"/></g>
<g><path style="opacity:1" fill="#fcc625" d="M 790.5,155.5 C 793.775,169.892 796.442,184.558 798.5,199.5C 793.833,199.5 789.167,199.5 784.5,199.5C 786.501,184.829 788.501,170.163 790.5,155.5 Z"/></g>
<g><path style="opacity:1" fill="#fcc626" d="M 400.5,156.5 C 401.117,156.611 401.617,156.944 402,157.5C 404.06,171.525 406.226,185.525 408.5,199.5C 403.833,199.5 399.167,199.5 394.5,199.5C 396.608,185.184 398.608,170.851 400.5,156.5 Z"/></g>
<g><path style="opacity:1" fill="#fee084" d="M 120.5,169.5 C 146.5,169.5 172.5,169.5 198.5,169.5C 198.737,170.791 198.404,171.791 197.5,172.5C 172.016,170.836 146.35,169.836 120.5,169.5 Z"/></g>
<g><path style="opacity:1" fill="#fcc51e" d="M 851.5,186.5 C 871.481,185.379 878.981,194.712 874,214.5C 872.402,219.099 869.235,221.932 864.5,223C 860.179,223.499 855.846,223.666 851.5,223.5C 851.5,211.167 851.5,198.833 851.5,186.5 Z"/></g>
<g><path style="opacity:1" fill="#fee28a" d="M 1064.5,196.5 C 1066.22,197.8 1068.39,198.467 1071,198.5C 1073.61,198.467 1075.78,197.8 1077.5,196.5C 1078.4,197.209 1078.74,198.209 1078.5,199.5C 1073.5,199.5 1068.5,199.5 1063.5,199.5C 1063.26,198.209 1063.6,197.209 1064.5,196.5 Z"/></g>
<g><path style="opacity:1" fill="#fffefd" d="M 397.5,305.5 C 406.267,304.648 414.601,306.148 422.5,310C 428.204,314.908 431.704,321.075 433,328.5C 433.499,334.491 433.666,340.491 433.5,346.5C 427.167,346.5 420.833,346.5 414.5,346.5C 414.73,339.445 414.23,332.445 413,325.5C 406.148,318.505 399.815,318.839 394,326.5C 392.403,347.796 392.07,369.129 393,390.5C 393.641,401.399 399.141,405.232 409.5,402C 411.894,400.048 413.394,397.548 414,394.5C 414.5,388.175 414.666,381.842 414.5,375.5C 420.833,375.5 427.167,375.5 433.5,375.5C 434.431,386.214 432.931,396.547 429,406.5C 424.318,413.263 417.818,417.097 409.5,418C 388.361,420.532 376.195,411.365 373,390.5C 372.333,370.833 372.333,351.167 373,331.5C 374.93,316.741 383.097,308.075 397.5,305.5 Z"/></g>
<g><path style="opacity:1" fill="#fffefc" d="M 1006.5,361.5 C 1016.17,361.5 1025.83,361.5 1035.5,361.5C 1035.5,379.833 1035.5,398.167 1035.5,416.5C 1031.17,416.5 1026.83,416.5 1022.5,416.5C 1022.82,413.428 1022.48,410.428 1021.5,407.5C 1014.46,418.125 1004.79,421.291 992.5,417C 987.087,415.387 982.92,412.22 980,407.5C 976.79,401.202 974.79,394.535 974,387.5C 973.079,368.462 973.413,349.462 975,330.5C 976.432,316.104 984.265,307.937 998.5,306C 1025.72,303.722 1038.06,316.222 1035.5,343.5C 1029.17,343.5 1022.83,343.5 1016.5,343.5C 1016.67,338.489 1016.5,333.489 1016,328.5C 1015.5,324 1013,321.5 1008.5,321C 1001.77,319.451 997.266,321.951 995,328.5C 994.042,351.217 994.376,373.884 996,396.5C 997.687,401.023 1001.02,403.356 1006,403.5C 1010.94,403.369 1014.28,401.036 1016,396.5C 1018.27,389.32 1018.94,381.987 1018,374.5C 1014.27,373.54 1010.44,373.207 1006.5,373.5C 1006.5,369.5 1006.5,365.5 1006.5,361.5 Z"/></g>
<g><path style="opacity:1" fill="#fde083" d="M 1059.5,307.5 C 1053.31,307.177 1047.31,307.51 1041.5,308.5C 1040.96,308.44 1040.62,308.107 1040.5,307.5C 1046.99,306.183 1053.32,306.183 1059.5,307.5 Z"/></g>
<g><path style="opacity:1" fill="#fffefe" d="M 444.5,307.5 C 451.167,307.5 457.833,307.5 464.5,307.5C 464.5,339.167 464.5,370.833 464.5,402.5C 473.167,402.5 481.833,402.5 490.5,402.5C 490.5,407.167 490.5,411.833 490.5,416.5C 475.167,416.5 459.833,416.5 444.5,416.5C 444.5,380.167 444.5,343.833 444.5,307.5 Z"/></g>
<g><path style="opacity:1" fill="#fffefe" d="M 518.5,402.5 C 526.984,403.493 535.651,403.826 544.5,403.5C 544.5,407.833 544.5,412.167 544.5,416.5C 529.167,416.5 513.833,416.5 498.5,416.5C 498.5,380.167 498.5,343.833 498.5,307.5C 513.833,307.5 529.167,307.5 544.5,307.5C 544.5,312.167 544.5,316.833 544.5,321.5C 535.833,321.5 527.167,321.5 518.5,321.5C 518.5,331.833 518.5,342.167 518.5,352.5C 525.5,352.5 532.5,352.5 539.5,352.5C 539.5,357.167 539.5,361.833 539.5,366.5C 532.5,366.5 525.5,366.5 518.5,366.5C 518.5,378.5 518.5,390.5 518.5,402.5 Z"/></g>
<g><path style="opacity:1" fill="#fffefd" d="M 569.5,307.5 C 576.833,307.5 584.167,307.5 591.5,307.5C 598.194,343.638 605.528,379.638 613.5,415.5C 607.167,416.833 600.833,416.833 594.5,415.5C 592.951,407.539 591.618,399.539 590.5,391.5C 584.132,391.17 577.798,391.504 571.5,392.5C 569.787,400.111 568.287,407.778 567,415.5C 560.924,416.476 554.758,416.81 548.5,416.5C 555.629,380.188 562.629,343.855 569.5,307.5 Z"/></g>
<g><path style="opacity:1" fill="#fffefe" d="M 660.5,366.5 C 660.56,367.043 660.893,367.376 661.5,367.5C 662.5,347.511 662.833,327.511 662.5,307.5C 667.833,307.5 673.167,307.5 678.5,307.5C 678.5,343.833 678.5,380.167 678.5,416.5C 673.833,416.5 669.167,416.5 664.5,416.5C 656.572,395.305 648.072,374.305 639,353.5C 638.5,374.497 638.333,395.497 638.5,416.5C 632.833,416.5 627.167,416.5 621.5,416.5C 621.5,380.167 621.5,343.833 621.5,307.5C 626.43,307.197 631.263,307.531 636,308.5C 644.455,327.739 652.622,347.073 660.5,366.5 Z"/></g>
<g><path style="opacity:1" fill="#feedb7" d="M 678.5,307.5 C 673.167,307.5 667.833,307.5 662.5,307.5C 662.833,327.511 662.5,347.511 661.5,367.5C 660.893,367.376 660.56,367.043 660.5,366.5C 661.497,346.674 661.83,326.674 661.5,306.5C 667.358,306.178 673.025,306.511 678.5,307.5 Z"/></g>
<g><path style="opacity:1" fill="#fffefe" d="M 722.5,307.5 C 737.833,307.5 753.167,307.5 768.5,307.5C 768.5,312.167 768.5,316.833 768.5,321.5C 759.833,321.5 751.167,321.5 742.5,321.5C 742.5,331.833 742.5,342.167 742.5,352.5C 749.167,352.5 755.833,352.5 762.5,352.5C 762.5,357.167 762.5,361.833 762.5,366.5C 755.833,366.5 749.167,366.5 742.5,366.5C 742.5,378.5 742.5,390.5 742.5,402.5C 751.167,402.5 759.833,402.5 768.5,402.5C 768.5,407.167 768.5,411.833 768.5,416.5C 753.167,416.5 737.833,416.5 722.5,416.5C 722.5,380.167 722.5,343.833 722.5,307.5 Z"/></g>
<g><path style="opacity:1" fill="#fffefe" d="M 816.5,365.5 C 816.783,366.289 817.283,366.956 818,367.5C 818.5,347.503 818.667,327.503 818.5,307.5C 823.833,307.5 829.167,307.5 834.5,307.5C 834.5,343.833 834.5,380.167 834.5,416.5C 829.901,416.8 825.401,416.467 821,415.5C 812.333,394.833 803.667,374.167 795,353.5C 794.5,374.497 794.333,395.497 794.5,416.5C 788.833,416.5 783.167,416.5 777.5,416.5C 777.5,380.167 777.5,343.833 777.5,307.5C 782.43,307.197 787.263,307.531 792,308.5C 800.179,327.521 808.346,346.521 816.5,365.5 Z"/></g>
<g><path style="opacity:1" fill="#fde084" d="M 818.5,307.5 C 818.667,327.503 818.5,347.503 818,367.5C 817.283,366.956 816.783,366.289 816.5,365.5C 817.167,346.167 817.833,326.833 818.5,307.5 Z"/></g>
<g><path style="opacity:1" fill="#fffefe" d="M 848.5,307.5 C 863.5,307.5 878.5,307.5 893.5,307.5C 893.5,311.833 893.5,316.167 893.5,320.5C 884.983,320.174 876.65,320.507 868.5,321.5C 868.5,331.833 868.5,342.167 868.5,352.5C 875.167,352.5 881.833,352.5 888.5,352.5C 888.5,357.167 888.5,361.833 888.5,366.5C 881.833,366.5 875.167,366.5 868.5,366.5C 868.5,378.5 868.5,390.5 868.5,402.5C 877.167,402.5 885.833,402.5 894.5,402.5C 894.5,407.167 894.5,411.833 894.5,416.5C 879.167,416.5 863.833,416.5 848.5,416.5C 848.5,380.167 848.5,343.833 848.5,307.5 Z"/></g>
<g><path style="opacity:1" fill="#fffefd" d="M 903.5,307.5 C 915.838,307.333 928.171,307.5 940.5,308C 953.126,309.295 960.626,316.129 963,328.5C 964.756,338.785 963.089,348.452 958,357.5C 955.142,359.365 952.642,361.532 950.5,364C 955.662,381.322 960.662,398.655 965.5,416C 958.586,416.811 951.752,416.645 945,415.5C 940.673,399.19 936.506,382.857 932.5,366.5C 929.5,366.5 926.5,366.5 923.5,366.5C 923.5,383.167 923.5,399.833 923.5,416.5C 916.833,416.5 910.167,416.5 903.5,416.5C 903.5,380.167 903.5,343.833 903.5,307.5 Z"/></g>
<g><path style="opacity:1" fill="#fffefd" d="M 1059.5,307.5 C 1064.09,321.447 1068.59,335.447 1073,349.5C 1077.27,335.522 1081.44,321.522 1085.5,307.5C 1091.84,307.334 1098.18,307.5 1104.5,308C 1096.94,329.347 1089.77,350.847 1083,372.5C 1082.5,387.163 1082.33,401.83 1082.5,416.5C 1076.17,416.5 1069.83,416.5 1063.5,416.5C 1063.67,402.496 1063.5,388.496 1063,374.5C 1055.93,352.462 1048.77,330.462 1041.5,308.5C 1047.31,307.51 1053.31,307.177 1059.5,307.5 Z"/></g>
<g><path style="opacity:1" fill="#feeaac" d="M 848.5,307.5 C 863.658,306.504 878.991,306.17 894.5,306.5C 894.5,311.5 894.5,316.5 894.5,321.5C 885.833,321.5 877.167,321.5 868.5,321.5C 876.65,320.507 884.983,320.174 893.5,320.5C 893.5,316.167 893.5,311.833 893.5,307.5C 878.5,307.5 863.5,307.5 848.5,307.5 Z"/></g>
<g><path style="opacity:1" fill="#fcc416" d="M 923.5,320.5 C 942.259,319.63 948.759,328.297 943,346.5C 941.332,350.165 938.499,352.332 934.5,353C 930.848,353.499 927.182,353.665 923.5,353.5C 923.5,342.5 923.5,331.5 923.5,320.5 Z"/></g>
<g><path style="opacity:1" fill="#fcc622" d="M 580.5,334.5 C 583.462,348.943 585.795,363.61 587.5,378.5C 582.833,378.5 578.167,378.5 573.5,378.5C 575.837,363.819 578.17,349.152 580.5,334.5 Z"/></g>
<g><path style="opacity:1" fill="#feebb2" d="M 1006.5,361.5 C 1016.32,360.506 1026.32,360.173 1036.5,360.5C 1036.83,379.341 1036.5,398.007 1035.5,416.5C 1035.5,398.167 1035.5,379.833 1035.5,361.5C 1025.83,361.5 1016.17,361.5 1006.5,361.5 Z"/></g>
<g><path style="opacity:1" fill="#feecb3" d="M 518.5,402.5 C 527.5,402.5 536.5,402.5 545.5,402.5C 545.819,407.363 545.486,412.03 544.5,416.5C 544.5,412.167 544.5,407.833 544.5,403.5C 535.651,403.826 526.984,403.493 518.5,402.5 Z"/></g>
<g><path style="opacity:1" fill="#fffefd" d="M 744.5,564.5 C 755.681,563.003 763.515,567.337 768,577.5C 768.667,612.167 768.667,646.833 768,681.5C 762.756,694.475 753.589,698.308 740.5,693C 736.065,689.902 733.232,685.736 732,680.5C 731.333,646.833 731.333,613.167 732,579.5C 733.482,572.191 737.649,567.191 744.5,564.5 Z"/></g>
<g><path style="opacity:1" fill="#fffefd" d="M 561.5,613.5 C 569.575,612.358 576.408,614.691 582,620.5C 598.081,648.997 614.414,677.33 631,705.5C 634.443,723.722 626.943,732.222 608.5,731C 605.241,729.789 602.408,727.956 600,725.5C 582.747,695.996 565.747,666.33 549,636.5C 547.468,625.576 551.635,617.909 561.5,613.5 Z"/></g>
<g><path style="opacity:1" fill="#fffefd" d="M 929.5,612.5 C 946.746,613.643 953.246,622.643 949,639.5C 933,667.5 917,695.5 901,723.5C 894.628,730.957 886.795,733.124 877.5,730C 868.898,724.875 865.731,717.375 868,707.5C 884.667,678.167 901.333,648.833 918,619.5C 921.257,616.048 925.09,613.715 929.5,612.5 Z"/></g>
<g><path style="opacity:1" fill="#fffefe" d="M 728.5,730.5 C 821.431,725.877 892.598,762.544 942,840.5C 980.655,913.12 981.322,986.12 944,1059.5C 905.931,1124.32 849.431,1161.82 774.5,1172C 697.079,1178.52 632.579,1153.02 581,1095.5C 531.622,1033.28 517.288,963.615 538,886.5C 570.301,796.282 633.801,744.282 728.5,730.5 Z"/></g>
<g><path style="opacity:1" fill="#fffefd" d="M 1064.5,748.5 C 1080.19,748.349 1087.35,756.016 1086,771.5C 1085.06,775.207 1083.23,778.374 1080.5,781C 1050.83,798 1021.17,815 991.5,832C 974.791,832.958 967.291,825.124 969,808.5C 969.964,804.532 972.131,801.365 975.5,799C 1005.12,781.827 1034.79,764.993 1064.5,748.5 Z"/></g>
<g><path style="opacity:1" fill="#fffefd" d="M 425.5,749.5 C 431.929,748.698 437.929,749.864 443.5,753C 471.003,769.253 498.67,785.253 526.5,801C 532.131,808.268 532.964,816.101 529,824.5C 523.477,831.564 516.31,834.064 507.5,832C 477.67,815.253 448.004,798.253 418.5,781C 409.934,767.859 412.267,757.359 425.5,749.5 Z"/></g>
<g><path style="opacity:1" fill="#fcc311" d="M 745.5,802.5 C 755.045,801.229 761.878,804.895 766,813.5C 766.667,841.167 766.667,868.833 766,896.5C 760.721,908.563 752.221,911.73 740.5,906C 737.131,903.635 734.964,900.468 734,896.5C 733.333,869.167 733.333,841.833 734,814.5C 735.08,812.004 736.414,809.67 738,807.5C 740.479,805.686 742.979,804.019 745.5,802.5 Z"/></g>
<g><path style="opacity:1" fill="#fcc310" d="M 712.5,840.5 C 713.5,840.5 714.5,840.5 715.5,840.5C 715.833,854.849 715.499,869.182 714.5,883.5C 680.824,904.203 668.657,933.869 678,972.5C 692.161,1009.31 718.994,1026.81 758.5,1025C 795.593,1018.87 817.76,997.373 825,960.5C 827.824,926.525 814.657,900.858 785.5,883.5C 784.167,869.167 784.167,854.833 785.5,840.5C 828.653,856.155 854.82,886.488 864,931.5C 869.457,988.766 846.624,1030.27 795.5,1056C 743.998,1074.83 699.498,1064.33 662,1024.5C 635.464,990.922 628.464,953.589 641,912.5C 654.352,877.982 678.185,853.982 712.5,840.5 Z"/></g>
<g><path style="opacity:1" fill="#fffefd" d="M 377.5,931.5 C 412.502,931.333 447.502,931.5 482.5,932C 492.675,936.172 496.842,943.672 495,954.5C 493.062,962.105 488.228,966.605 480.5,968C 446.5,968.667 412.5,968.667 378.5,968C 364.189,961.229 361.023,951.062 369,937.5C 371.736,935.248 374.569,933.248 377.5,931.5 Z"/></g>
<g><path style="opacity:1" fill="#fffefd" d="M 1017.5,931.5 C 1052.5,931.333 1087.5,931.5 1122.5,932C 1136.57,939.18 1139.23,949.347 1130.5,962.5C 1128.13,965.35 1125.13,967.184 1121.5,968C 1087.17,968.667 1052.83,968.667 1018.5,968C 1007.49,964.014 1002.99,956.18 1005,944.5C 1007.35,938.315 1011.52,933.982 1017.5,931.5 Z"/></g>
<g><path style="opacity:1" fill="#fffefd" d="M 508.5,1067.5 C 525.527,1066.69 533.027,1074.69 531,1091.5C 529.802,1094.73 527.969,1097.56 525.5,1100C 496.663,1116.92 467.663,1133.59 438.5,1150C 428.254,1152.79 420.42,1149.63 415,1140.5C 411.941,1132.32 413.441,1125.16 419.5,1119C 449.23,1101.81 478.896,1084.64 508.5,1067.5 Z"/></g>
<g><path style="opacity:1" fill="#fffefd" d="M 980.5,1067.5 C 984.846,1067.33 989.179,1067.5 993.5,1068C 1022.17,1084.33 1050.83,1100.67 1079.5,1117C 1087.02,1124.34 1088.52,1132.84 1084,1142.5C 1078.79,1149.19 1071.96,1151.69 1063.5,1150C 1032.43,1133.05 1001.93,1115.22 972,1096.5C 965.114,1083.78 967.947,1074.11 980.5,1067.5 Z"/></g>
<g><path style="opacity:1" fill="#fffefd" d="M 608.5,1168.5 C 626.339,1166.84 634.172,1174.84 632,1192.5C 615.333,1221.83 598.667,1251.17 582,1280.5C 574.601,1286.93 566.434,1288.1 557.5,1284C 550.043,1277.63 547.876,1269.79 551,1260.5C 567,1232.5 583,1204.5 599,1176.5C 601.772,1173.22 604.939,1170.55 608.5,1168.5 Z"/></g>
<g><path style="opacity:1" fill="#fffefd" d="M 879.5,1168.5 C 888.083,1166.79 895.25,1169.13 901,1175.5C 917.081,1204 933.414,1232.33 950,1260.5C 953.102,1269.2 951.269,1276.7 944.5,1283C 935.359,1288.24 926.859,1287.41 919,1280.5C 901.567,1250.74 884.567,1220.74 868,1190.5C 866.831,1180.5 870.664,1173.17 879.5,1168.5 Z"/></g>
<g><path style="opacity:1" fill="#fffefd" d="M 744.5,1204.5 C 755.818,1202.67 763.652,1207 768,1217.5C 768.667,1252.17 768.667,1286.83 768,1321.5C 762.28,1335.07 752.78,1338.57 739.5,1332C 735.619,1329.07 733.119,1325.24 732,1320.5C 731.333,1286.83 731.333,1253.17 732,1219.5C 733.482,1212.19 737.649,1207.19 744.5,1204.5 Z"/></g>
</svg>
