<?xml version="1.0" encoding="UTF-8"?>
<!DOCTYPE svg PUBLIC "-//W3C//DTD SVG 1.1//EN" "http://www.w3.org/Graphics/SVG/1.1/DTD/svg11.dtd">
<svg xmlns="http://www.w3.org/2000/svg" version="1.1" width="1500px" height="1500px" style="shape-rendering:geometricPrecision; text-rendering:geometricPrecision; image-rendering:optimizeQuality; fill-rule:evenodd; clip-rule:evenodd" xmlns:xlink="http://www.w3.org/1999/xlink">
<g><path style="opacity:1" fill="#fd9d24" d="M -0.5,-0.5 C 499.5,-0.5 999.5,-0.5 1499.5,-0.5C 1499.5,499.5 1499.5,999.5 1499.5,1499.5C 999.5,1499.5 499.5,1499.5 -0.5,1499.5C -0.5,999.5 -0.5,499.5 -0.5,-0.5 Z"/></g>
<g><path style="opacity:1" fill="#fffdfb" d="M 420.5,126.5 C 443.153,123.825 455.153,133.825 456.5,156.5C 450.545,157.758 444.545,158.758 438.5,159.5C 439.524,153.117 437.857,147.617 433.5,143C 428.676,140.554 424.509,141.387 421,145.5C 418.39,152.404 419.39,158.737 424,164.5C 433.627,172.126 442.627,180.46 451,189.5C 460.531,202.983 460.864,216.649 452,230.5C 440.22,240.493 427.387,241.993 413.5,235C 403.871,227.227 399.537,217.06 400.5,204.5C 406.126,204.05 411.626,203.05 417,201.5C 418,206.167 419,210.833 420,215.5C 422.266,222.049 426.766,224.549 433.5,223C 435.667,222.167 437.167,220.667 438,218.5C 439.301,212.078 438.301,206.078 435,200.5C 425.333,191.5 415.667,182.5 406,173.5C 399.137,161.354 398.804,149.021 405,136.5C 409.308,131.665 414.475,128.331 420.5,126.5 Z"/></g>
<g><path style="opacity:1" fill="#fffdfb" d="M 552.5,126.5 C 575.153,123.825 587.153,133.825 588.5,156.5C 582.545,157.758 576.545,158.758 570.5,159.5C 571.524,153.117 569.857,147.617 565.5,143C 560.054,140.382 555.554,141.549 552,146.5C 550.48,153.221 551.813,159.221 556,164.5C 565.601,172.098 574.601,180.431 583,189.5C 592.531,202.983 592.864,216.649 584,230.5C 572.22,240.493 559.387,241.993 545.5,235C 537.998,229.88 533.831,222.713 533,213.5C 532.502,210.518 532.335,207.518 532.5,204.5C 538.126,204.05 543.626,203.05 549,201.5C 550.092,206.14 551.092,210.807 552,215.5C 554.266,222.049 558.766,224.549 565.5,223C 567.667,222.167 569.167,220.667 570,218.5C 571.091,212.903 570.424,207.57 568,202.5C 558.357,192.525 548.357,182.858 538,173.5C 531.056,161.384 530.723,149.051 537,136.5C 541.308,131.665 546.475,128.331 552.5,126.5 Z"/></g>
<g><path style="opacity:1" fill="#fffefc" d="M 1135.5,150.5 C 1135.5,156.167 1135.5,161.833 1135.5,167.5C 1129.17,167.5 1122.83,167.5 1116.5,167.5C 1116.93,160.053 1116.43,152.719 1115,145.5C 1110.8,141.286 1105.97,140.452 1100.5,143C 1098.11,144.952 1096.61,147.452 1096,150.5C 1095.33,170.5 1095.33,190.5 1096,210.5C 1096.7,222.874 1102.7,226.541 1114,221.5C 1114.67,220.167 1115.33,218.833 1116,217.5C 1116.5,210.508 1116.67,203.508 1116.5,196.5C 1123.17,196.5 1129.83,196.5 1136.5,196.5C 1139.3,232.924 1123.3,245.757 1088.5,235C 1081.11,229.392 1076.94,221.892 1076,212.5C 1075.33,192.167 1075.33,171.833 1076,151.5C 1080.17,131.809 1092.34,123.642 1112.5,127C 1126.44,128.773 1134.11,136.607 1135.5,150.5 Z"/></g>
<g><path style="opacity:1" fill="#fffdfb" d="M 1329.5,126.5 C 1352.32,123.717 1363.98,133.717 1364.5,156.5C 1358.91,157.884 1353.24,158.884 1347.5,159.5C 1348.37,152.257 1346.04,146.424 1340.5,142C 1330.53,141.107 1326.36,145.607 1328,155.5C 1328.72,157.949 1329.72,160.283 1331,162.5C 1336.55,168.019 1342.38,173.186 1348.5,178C 1356.75,184.901 1362.58,193.401 1366,203.5C 1368.31,229.528 1356.47,241.028 1330.5,238C 1319.31,235.137 1312.47,227.97 1310,216.5C 1308.65,212.634 1308.48,208.801 1309.5,205C 1315.15,203.726 1320.82,202.559 1326.5,201.5C 1325.76,209.448 1328.09,216.282 1333.5,222C 1342.03,225.067 1346.7,222.067 1347.5,213C 1347.21,207.579 1345.37,202.746 1342,198.5C 1333.15,191.068 1324.48,183.402 1316,175.5C 1307.4,163.379 1306.4,150.713 1313,137.5C 1317.36,131.92 1322.86,128.253 1329.5,126.5 Z"/></g>
<g><path style="opacity:1" fill="#ffe4c2" d="M 663.5,128.5 C 666.984,127.835 670.651,127.501 674.5,127.5C 678.565,127.511 682.232,128.178 685.5,129.5C 678.254,128.536 670.92,128.203 663.5,128.5 Z"/></g>
<g><path style="opacity:1" fill="#fffefe" d="M 140.5,128.5 C 154.5,128.5 168.5,128.5 182.5,128.5C 182.5,223.833 182.5,319.167 182.5,414.5C 164.5,414.5 146.5,414.5 128.5,414.5C 128.833,338.164 128.5,261.83 127.5,185.5C 114.629,190.568 101.629,195.235 88.5,199.5C 87.5044,186.344 87.1711,173.01 87.5,159.5C 106.613,151.451 124.279,141.117 140.5,128.5 Z"/></g>
<g><path style="opacity:1" fill="#ffe1bc" d="M 140.5,128.5 C 154.657,127.504 168.99,127.171 183.5,127.5C 183.5,223.5 183.5,319.5 183.5,415.5C 164.992,415.83 146.659,415.497 128.5,414.5C 146.5,414.5 164.5,414.5 182.5,414.5C 182.5,319.167 182.5,223.833 182.5,128.5C 168.5,128.5 154.5,128.5 140.5,128.5 Z"/></g>
<g><path style="opacity:1" fill="#fffefe" d="M 208.5,199.5 C 207.504,186.344 207.171,173.01 207.5,159.5C 226.759,151.543 244.425,141.043 260.5,128C 274.829,127.5 289.163,127.333 303.5,127.5C 303.5,223.5 303.5,319.5 303.5,415.5C 285.167,415.5 266.833,415.5 248.5,415.5C 248.833,338.83 248.5,262.164 247.5,185.5C 234.629,190.568 221.629,195.235 208.5,199.5 Z"/></g>
<g><path style="opacity:1" fill="#fffdfb" d="M 463.5,127.5 C 469.833,127.5 476.167,127.5 482.5,127.5C 482.333,155.502 482.5,183.502 483,211.5C 485.12,223.645 491.453,226.645 502,220.5C 503.75,217.754 504.75,214.754 505,211.5C 505.5,183.502 505.667,155.502 505.5,127.5C 512.167,127.5 518.833,127.5 525.5,127.5C 525.667,154.502 525.5,181.502 525,208.5C 524.726,229.11 514.393,239.11 494,238.5C 479.011,240.162 469.344,233.829 465,219.5C 463.539,188.875 463.039,158.208 463.5,127.5 Z"/></g>
<g><path style="opacity:1" fill="#fffcf8" d="M 588.5,127.5 C 607.167,127.5 625.833,127.5 644.5,127.5C 644.5,132.5 644.5,137.5 644.5,142.5C 638.833,142.5 633.167,142.5 627.5,142.5C 627.5,174.167 627.5,205.833 627.5,237.5C 620.5,237.5 613.5,237.5 606.5,237.5C 606.5,205.833 606.5,174.167 606.5,142.5C 600.5,142.5 594.5,142.5 588.5,142.5C 588.5,137.5 588.5,132.5 588.5,127.5 Z"/></g>
<g><path style="opacity:1" fill="#fffdfc" d="M 663.5,128.5 C 670.92,128.203 678.254,128.536 685.5,129.5C 692.374,165.202 699.374,200.869 706.5,236.5C 700.69,237.49 694.69,237.823 688.5,237.5C 686.76,229.248 685.426,220.915 684.5,212.5C 677.833,212.5 671.167,212.5 664.5,212.5C 663.493,220.555 662.16,228.555 660.5,236.5C 654.167,237.833 647.833,237.833 641.5,236.5C 649.217,200.579 656.551,164.579 663.5,128.5 Z"/></g>
<g><path style="opacity:1" fill="#ffe6c8" d="M 732.5,128.5 C 726.167,128.5 719.833,128.5 713.5,128.5C 713.5,164.833 713.5,201.167 713.5,237.5C 712.502,201.004 712.168,164.337 712.5,127.5C 719.354,127.176 726.021,127.509 732.5,128.5 Z"/></g>
<g><path style="opacity:1" fill="#fefffe" d="M 732.5,128.5 C 732.5,164.833 732.5,201.167 732.5,237.5C 726.167,237.5 719.833,237.5 713.5,237.5C 713.5,201.167 713.5,164.833 713.5,128.5C 719.833,128.5 726.167,128.5 732.5,128.5 Z"/></g>
<g><path style="opacity:1" fill="#ffe6c8" d="M 757.5,128.5 C 753.167,128.5 748.833,128.5 744.5,128.5C 744.5,164.833 744.5,201.167 744.5,237.5C 743.502,201.004 743.168,164.337 743.5,127.5C 748.363,127.181 753.03,127.514 757.5,128.5 Z"/></g>
<g><path style="opacity:1" fill="#fffdfb" d="M 784.5,127.5 C 790.167,127.5 795.833,127.5 801.5,127.5C 801.5,164.167 801.5,200.833 801.5,237.5C 796.786,237.827 792.12,237.493 787.5,236.5C 778.77,216.638 770.437,196.638 762.5,176.5C 762.013,175.527 761.513,174.527 761,173.5C 760.5,194.831 760.333,216.164 760.5,237.5C 755.167,237.5 749.833,237.5 744.5,237.5C 744.5,201.167 744.5,164.833 744.5,128.5C 748.833,128.5 753.167,128.5 757.5,128.5C 766.072,147.319 774.406,166.319 782.5,185.5C 782.987,186.473 783.487,187.473 784,188.5C 784.5,168.169 784.667,147.836 784.5,127.5 Z"/></g>
<g><path style="opacity:1" fill="#fdb65b" d="M 784.5,127.5 C 784.667,147.836 784.5,168.169 784,188.5C 783.487,187.473 782.987,186.473 782.5,185.5C 783.167,166.167 783.833,146.833 784.5,127.5 Z"/></g>
<g><path style="opacity:1" fill="#fffdfb" d="M 824.5,237.5 C 818.31,237.823 812.31,237.49 806.5,236.5C 813.344,200.448 820.51,164.448 828,128.5C 835.079,127.52 842.245,127.187 849.5,127.5C 856.832,163.827 864.165,200.161 871.5,236.5C 865.202,237.496 858.868,237.83 852.5,237.5C 851.274,229.147 849.941,220.813 848.5,212.5C 842.132,212.17 835.798,212.504 829.5,213.5C 828.033,221.663 826.367,229.663 824.5,237.5 Z"/></g>
<g><path style="opacity:1" fill="#fffefd" d="M 876.5,127.5 C 887.838,127.333 899.172,127.5 910.5,128C 922.878,128.755 931.044,134.922 935,146.5C 935.667,152.5 935.667,158.5 935,164.5C 932.901,171.598 928.401,176.432 921.5,179C 930.307,181.14 935.807,186.64 938,195.5C 940.071,204.679 939.405,213.679 936,222.5C 932.181,230.318 926.014,235.152 917.5,237C 903.837,237.5 890.171,237.667 876.5,237.5C 876.5,200.833 876.5,164.167 876.5,127.5 Z"/></g>
<g><path style="opacity:1" fill="#fffefe" d="M 946.5,128.5 C 952.833,128.5 959.167,128.5 965.5,128.5C 965.168,160.338 965.502,192.004 966.5,223.5C 975.167,223.5 983.833,223.5 992.5,223.5C 992.5,228.167 992.5,232.833 992.5,237.5C 977.167,237.5 961.833,237.5 946.5,237.5C 946.5,201.167 946.5,164.833 946.5,128.5 Z"/></g>
<g><path style="opacity:1" fill="#ffe6c8" d="M 946.5,128.5 C 952.979,127.509 959.646,127.176 966.5,127.5C 966.5,159.5 966.5,191.5 966.5,223.5C 965.502,192.004 965.168,160.338 965.5,128.5C 959.167,128.5 952.833,128.5 946.5,128.5 Z"/></g>
<g><path style="opacity:1" fill="#fffefc" d="M 997.5,127.5 C 1012.83,127.5 1028.17,127.5 1043.5,127.5C 1043.5,132.5 1043.5,137.5 1043.5,142.5C 1034.83,142.5 1026.17,142.5 1017.5,142.5C 1017.5,152.833 1017.5,163.167 1017.5,173.5C 1024.5,173.5 1031.5,173.5 1038.5,173.5C 1038.5,178.167 1038.5,182.833 1038.5,187.5C 1031.5,187.5 1024.5,187.5 1017.5,187.5C 1017.5,199.5 1017.5,211.5 1017.5,223.5C 1026.17,223.5 1034.83,223.5 1043.5,223.5C 1043.5,228.167 1043.5,232.833 1043.5,237.5C 1028.17,237.5 1012.83,237.5 997.5,237.5C 997.5,200.833 997.5,164.167 997.5,127.5 Z"/></g>
<g><path style="opacity:1" fill="#fffaf4" d="M 1144.5,127.5 C 1151.5,127.5 1158.5,127.5 1165.5,127.5C 1165.5,164.167 1165.5,200.833 1165.5,237.5C 1158.5,237.5 1151.5,237.5 1144.5,237.5C 1144.5,200.833 1144.5,164.167 1144.5,127.5 Z"/></g>
<g><path style="opacity:1" fill="#fffcf8" d="M 1168.5,127.5 C 1187.17,127.5 1205.83,127.5 1224.5,127.5C 1224.5,132.5 1224.5,137.5 1224.5,142.5C 1218.83,142.5 1213.17,142.5 1207.5,142.5C 1207.5,174.167 1207.5,205.833 1207.5,237.5C 1200.5,237.5 1193.5,237.5 1186.5,237.5C 1186.5,205.833 1186.5,174.167 1186.5,142.5C 1180.5,142.5 1174.5,142.5 1168.5,142.5C 1168.5,137.5 1168.5,132.5 1168.5,127.5 Z"/></g>
<g><path style="opacity:1" fill="#fefffe" d="M 1228.5,128.5 C 1234.83,128.5 1241.17,128.5 1247.5,128.5C 1247.5,164.833 1247.5,201.167 1247.5,237.5C 1241.17,237.5 1234.83,237.5 1228.5,237.5C 1228.5,201.167 1228.5,164.833 1228.5,128.5 Z"/></g>
<g><path style="opacity:1" fill="#ffe6c8" d="M 1228.5,128.5 C 1234.98,127.509 1241.65,127.176 1248.5,127.5C 1248.83,164.337 1248.5,201.004 1247.5,237.5C 1247.5,201.167 1247.5,164.833 1247.5,128.5C 1241.17,128.5 1234.83,128.5 1228.5,128.5 Z"/></g>
<g><path style="opacity:1" fill="#fffefe" d="M 1259.5,128.5 C 1274.5,128.5 1289.5,128.5 1304.5,128.5C 1304.5,132.833 1304.5,137.167 1304.5,141.5C 1295.98,141.174 1287.65,141.507 1279.5,142.5C 1279.5,152.833 1279.5,163.167 1279.5,173.5C 1286.5,173.5 1293.5,173.5 1300.5,173.5C 1300.5,178.167 1300.5,182.833 1300.5,187.5C 1293.5,187.5 1286.5,187.5 1279.5,187.5C 1279.5,199.5 1279.5,211.5 1279.5,223.5C 1288.17,223.5 1296.83,223.5 1305.5,223.5C 1305.5,228.167 1305.5,232.833 1305.5,237.5C 1290.17,237.5 1274.83,237.5 1259.5,237.5C 1259.5,201.167 1259.5,164.833 1259.5,128.5 Z"/></g>
<g><path style="opacity:1" fill="#ffe6c8" d="M 1259.5,128.5 C 1274.66,127.504 1289.99,127.17 1305.5,127.5C 1305.5,132.5 1305.5,137.5 1305.5,142.5C 1296.83,142.5 1288.17,142.5 1279.5,142.5C 1287.65,141.507 1295.98,141.174 1304.5,141.5C 1304.5,137.167 1304.5,132.833 1304.5,128.5C 1289.5,128.5 1274.5,128.5 1259.5,128.5 Z"/></g>
<g><path style="opacity:1" fill="#fd9f29" d="M 896.5,142.5 C 914.558,139.391 921.391,146.724 917,164.5C 915.73,168.77 912.896,171.27 908.5,172C 904.514,172.499 900.514,172.666 896.5,172.5C 896.5,162.5 896.5,152.5 896.5,142.5 Z"/></g>
<g><path style="opacity:1" fill="#fd9f2b" d="M 845.5,196.5 C 843.777,197.8 841.61,198.467 839,198.5C 836.39,198.467 834.223,197.8 832.5,196.5C 834.342,183.113 836.509,169.779 839,156.5C 841.494,169.794 843.66,183.128 845.5,196.5 Z"/></g>
<g><path style="opacity:1" fill="#fee6c7" d="M 87.5,159.5 C 87.1711,173.01 87.5044,186.344 88.5,199.5C 88.44,200.043 88.1067,200.376 87.5,200.5C 86.1745,186.672 86.1745,173.006 87.5,159.5 Z"/></g>
<g><path style="opacity:1" fill="#fee6c8" d="M 207.5,159.5 C 207.171,173.01 207.504,186.344 208.5,199.5C 208.44,200.043 208.107,200.376 207.5,200.5C 206.174,186.672 206.174,173.006 207.5,159.5 Z"/></g>
<g><path style="opacity:1" fill="#fda233" d="M 673.5,156.5 C 677.106,170.446 679.773,184.779 681.5,199.5C 676.833,199.5 672.167,199.5 667.5,199.5C 669.61,185.177 671.61,170.843 673.5,156.5 Z"/></g>
<g><path style="opacity:1" fill="#fed49f" d="M 1135.5,150.5 C 1136.49,156.31 1136.82,162.31 1136.5,168.5C 1129.65,168.824 1122.98,168.491 1116.5,167.5C 1122.83,167.5 1129.17,167.5 1135.5,167.5C 1135.5,161.833 1135.5,156.167 1135.5,150.5 Z"/></g>
<g><path style="opacity:1" fill="#feb65c" d="M 762.5,176.5 C 761.833,196.833 761.167,217.167 760.5,237.5C 760.333,216.164 760.5,194.831 761,173.5C 761.513,174.527 762.013,175.527 762.5,176.5 Z"/></g>
<g><path style="opacity:1" fill="#feb861" d="M 907.5,187.5 C 904.167,187.5 900.833,187.5 897.5,187.5C 897.5,199.167 897.5,210.833 897.5,222.5C 901.833,222.5 906.167,222.5 910.5,222.5C 906.03,223.486 901.363,223.819 896.5,223.5C 896.5,211.167 896.5,198.833 896.5,186.5C 900.371,186.185 904.038,186.518 907.5,187.5 Z"/></g>
<g><path style="opacity:1" fill="#fd9d26" d="M 907.5,187.5 C 913.655,188.154 917.488,191.487 919,197.5C 920.397,205.231 919.397,212.564 916,219.5C 914.512,221.16 912.679,222.16 910.5,222.5C 906.167,222.5 901.833,222.5 897.5,222.5C 897.5,210.833 897.5,199.167 897.5,187.5C 900.833,187.5 904.167,187.5 907.5,187.5 Z"/></g>
<g><path style="opacity:1" fill="#fecf96" d="M 832.5,196.5 C 834.223,197.8 836.39,198.467 839,198.5C 841.61,198.467 843.777,197.8 845.5,196.5C 846.404,197.209 846.737,198.209 846.5,199.5C 841.5,199.5 836.5,199.5 831.5,199.5C 831.263,198.209 831.596,197.209 832.5,196.5 Z"/></g>
<g><path style="opacity:1" fill="#feb55b" d="M 706.5,236.5 C 707.043,236.56 707.376,236.893 707.5,237.5C 701.012,238.817 694.678,238.817 688.5,237.5C 694.69,237.823 700.69,237.49 706.5,236.5 Z"/></g>
<g><path style="opacity:1" fill="#feb55b" d="M 806.5,236.5 C 812.31,237.49 818.31,237.823 824.5,237.5C 818.322,238.817 811.988,238.817 805.5,237.5C 805.624,236.893 805.957,236.56 806.5,236.5 Z"/></g>
<g><path style="opacity:1" fill="#fffdfa" d="M 655.5,305.5 C 662.655,305.089 669.655,305.922 676.5,308C 684.304,311.745 689.137,317.912 691,326.5C 691.5,333.492 691.666,340.492 691.5,347.5C 685.167,347.5 678.833,347.5 672.5,347.5C 672.666,340.825 672.5,334.158 672,327.5C 668.787,320.518 663.62,318.685 656.5,322C 654.622,323.543 653.122,325.376 652,327.5C 651.333,349.5 651.333,371.5 652,393.5C 653.719,402.138 658.886,404.971 667.5,402C 669.617,400.269 671.117,398.102 672,395.5C 672.5,388.842 672.666,382.175 672.5,375.5C 678.833,375.5 685.167,375.5 691.5,375.5C 694.501,412.347 678.501,425.181 643.5,414C 636.031,407.563 631.865,399.397 631,389.5C 630.085,368.8 630.419,348.133 632,327.5C 634.906,314.757 642.739,307.423 655.5,305.5 Z"/></g>
<g><path style="opacity:1" fill="#fffdfa" d="M 721.5,305.5 C 731.771,304.325 741.438,306.159 750.5,311C 756.458,316.516 759.958,323.349 761,331.5C 761.92,353.533 761.587,375.533 760,397.5C 756.649,410.092 748.482,416.925 735.5,418C 716.203,421.009 704.036,413.176 699,394.5C 696.742,371.109 697.076,347.776 700,324.5C 703.863,314.334 711.029,308.001 721.5,305.5 Z"/></g>
<g><path style="opacity:1" fill="#fffdfb" d="M 1262.5,381.5 C 1264.06,383.156 1265.06,385.156 1265.5,387.5C 1265.72,392.776 1267.72,397.276 1271.5,401C 1276.04,403.303 1280.21,402.803 1284,399.5C 1286.59,391.982 1285.59,384.982 1281,378.5C 1270.87,369.946 1261.2,360.946 1252,351.5C 1247.23,341.58 1246.23,331.246 1249,320.5C 1254.76,310.614 1263.43,305.614 1275,305.5C 1295.05,306.521 1303.55,316.688 1300.5,336C 1295.54,337.158 1290.54,337.992 1285.5,338.5C 1285.94,333.588 1285.1,328.922 1283,324.5C 1277.32,320.207 1271.98,320.541 1267,325.5C 1265.73,331.631 1266.73,337.298 1270,342.5C 1279,350.833 1288,359.167 1297,367.5C 1306.31,379.718 1307.64,392.718 1301,406.5C 1293.31,416.581 1283.15,420.415 1270.5,418C 1253.77,413.088 1246.44,401.922 1248.5,384.5C 1253.08,383.071 1257.74,382.071 1262.5,381.5 Z"/></g>
<g><path style="opacity:1" fill="#fffdfb" d="M 419.5,306.5 C 426.5,306.5 433.5,306.5 440.5,306.5C 448.217,343.083 455.55,379.749 462.5,416.5C 456.167,416.5 449.833,416.5 443.5,416.5C 442.353,408.135 441.019,399.801 439.5,391.5C 433.167,391.5 426.833,391.5 420.5,391.5C 419.006,399.809 417.673,408.142 416.5,416.5C 410.167,416.5 403.833,416.5 397.5,416.5C 404.706,379.805 412.039,343.138 419.5,306.5 Z"/></g>
<g><path style="opacity:1" fill="#ffe4c3" d="M 481.5,307.5 C 477.167,307.5 472.833,307.5 468.5,307.5C 468.5,343.833 468.5,380.167 468.5,416.5C 467.502,380.004 467.168,343.337 467.5,306.5C 472.363,306.181 477.03,306.514 481.5,307.5 Z"/></g>
<g><path style="opacity:1" fill="#fffdfb" d="M 486.5,355.5 C 486.217,354.711 485.717,354.044 485,353.5C 484.5,374.497 484.333,395.497 484.5,416.5C 479.167,416.5 473.833,416.5 468.5,416.5C 468.5,380.167 468.5,343.833 468.5,307.5C 472.833,307.5 477.167,307.5 481.5,307.5C 490.072,326.319 498.406,345.319 506.5,364.5C 506.987,365.473 507.487,366.473 508,367.5C 508.5,347.503 508.667,327.503 508.5,307.5C 513.901,306.175 519.401,306.175 525,307.5C 525.5,343.832 525.667,380.165 525.5,416.5C 520.786,416.827 516.12,416.493 511.5,415.5C 502.77,395.638 494.437,375.638 486.5,355.5 Z"/></g>
<g><path style="opacity:1" fill="#feb65b" d="M 508.5,307.5 C 508.667,327.503 508.5,347.503 508,367.5C 507.487,366.473 506.987,365.473 506.5,364.5C 507.167,345.5 507.833,326.5 508.5,307.5 Z"/></g>
<g><path style="opacity:1" fill="#ffe2be" d="M 566.5,307.5 C 556.5,307.5 546.5,307.5 536.5,307.5C 536.5,343.833 536.5,380.167 536.5,416.5C 535.502,380.004 535.168,343.337 535.5,306.5C 546.014,306.172 556.347,306.506 566.5,307.5 Z"/></g>
<g><path style="opacity:1" fill="#fffdfb" d="M 566.5,307.5 C 580.704,307.005 590.204,313.338 595,326.5C 597,349.5 597,372.5 595,395.5C 591.947,407.22 584.447,414.054 572.5,416C 560.505,416.5 548.505,416.667 536.5,416.5C 536.5,380.167 536.5,343.833 536.5,307.5C 546.5,307.5 556.5,307.5 566.5,307.5 Z"/></g>
<g><path style="opacity:1" fill="#fffdfa" d="M 788.5,349.5 C 788.313,347.436 787.813,345.436 787,343.5C 786.501,348.155 786.334,352.821 786.5,357.5C 786.68,377.18 786.347,396.846 785.5,416.5C 780.5,416.5 775.5,416.5 770.5,416.5C 770.586,380.162 771.086,343.828 772,307.5C 779,306.167 786,306.167 793,307.5C 797.721,332.272 802.888,356.939 808.5,381.5C 814.156,356.558 819.49,331.558 824.5,306.5C 831.422,306.188 838.256,306.521 845,307.5C 845.821,343.83 846.321,380.163 846.5,416.5C 841.5,416.5 836.5,416.5 831.5,416.5C 831.217,392.164 830.717,367.83 830,343.5C 824.818,367.701 819.651,391.867 814.5,416C 812.5,416.167 810.5,416.333 808.5,416.5C 806.036,416.41 803.87,415.743 802,414.5C 797.388,392.838 792.888,371.172 788.5,349.5 Z"/></g>
<g><path style="opacity:1" fill="#fffdfa" d="M 917.5,364.5 C 917.666,357.492 917.5,350.492 917,343.5C 916.209,344.745 915.709,346.078 915.5,347.5C 911.309,370.596 906.643,393.596 901.5,416.5C 897.233,416.797 893.066,416.464 889,415.5C 884.125,392.125 879.125,368.792 874,345.5C 873.514,369.169 873.014,392.835 872.5,416.5C 867.167,416.5 861.833,416.5 856.5,416.5C 857.527,379.846 858.194,343.18 858.5,306.5C 865.5,306.5 872.5,306.5 879.5,306.5C 884.504,331.52 889.671,356.52 895,381.5C 900.974,356.605 906.474,331.605 911.5,306.5C 918.167,306.5 924.833,306.5 931.5,306.5C 932.566,343.151 933.233,379.818 933.5,416.5C 928.5,416.5 923.5,416.5 918.5,416.5C 918.029,399.17 917.696,381.837 917.5,364.5 Z"/></g>
<g><path style="opacity:1" fill="#fffdfa" d="M 943.5,306.5 C 949.833,306.5 956.167,306.5 962.5,306.5C 962.075,336.194 962.575,365.86 964,395.5C 965.434,400.55 968.767,402.883 974,402.5C 980.911,402.256 984.577,398.59 985,391.5C 985.5,363.169 985.667,334.835 985.5,306.5C 992.09,306.189 998.59,306.522 1005,307.5C 1005.67,334.833 1005.67,362.167 1005,389.5C 1003.59,409.076 993.091,418.743 973.5,418.5C 958.4,418.879 948.9,411.879 945,397.5C 943.539,367.208 943.039,336.875 943.5,306.5 Z"/></g>
<g><path style="opacity:1" fill="#ffe4c3" d="M 1028.5,307.5 C 1024.17,307.5 1019.83,307.5 1015.5,307.5C 1015.5,343.833 1015.5,380.167 1015.5,416.5C 1014.5,380.004 1014.17,343.337 1014.5,306.5C 1019.36,306.181 1024.03,306.514 1028.5,307.5 Z"/></g>
<g><path style="opacity:1" fill="#fffefe" d="M 1028.5,307.5 C 1037.07,326.314 1045.4,345.314 1053.5,364.5C 1053.99,365.473 1054.49,366.473 1055,367.5C 1055.5,347.503 1055.67,327.503 1055.5,307.5C 1060.83,307.5 1066.17,307.5 1071.5,307.5C 1071.5,343.833 1071.5,380.167 1071.5,416.5C 1067.12,416.826 1062.78,416.492 1058.5,415.5C 1050.15,395.479 1041.82,375.479 1033.5,355.5C 1033.22,354.711 1032.72,354.044 1032,353.5C 1031.5,374.497 1031.33,395.497 1031.5,416.5C 1026.17,416.5 1020.83,416.5 1015.5,416.5C 1015.5,380.167 1015.5,343.833 1015.5,307.5C 1019.83,307.5 1024.17,307.5 1028.5,307.5 Z"/></g>
<g><path style="opacity:1" fill="#feb65c" d="M 1055.5,307.5 C 1055.67,327.503 1055.5,347.503 1055,367.5C 1054.49,366.473 1053.99,365.473 1053.5,364.5C 1054.17,345.5 1054.83,326.5 1055.5,307.5 Z"/></g>
<g><path style="opacity:1" fill="#ffe3c2" d="M 1055.5,307.5 C 1060.98,306.511 1066.64,306.178 1072.5,306.5C 1072.83,343.337 1072.5,380.004 1071.5,416.5C 1071.5,380.167 1071.5,343.833 1071.5,307.5C 1066.17,307.5 1060.83,307.5 1055.5,307.5 Z"/></g>
<g><path style="opacity:1" fill="#fefffe" d="M 1083.5,307.5 C 1089.83,307.5 1096.17,307.5 1102.5,307.5C 1102.5,343.833 1102.5,380.167 1102.5,416.5C 1096.17,416.5 1089.83,416.5 1083.5,416.5C 1083.5,380.167 1083.5,343.833 1083.5,307.5 Z"/></g>
<g><path style="opacity:1" fill="#ffe3c1" d="M 1083.5,307.5 C 1089.98,306.509 1096.65,306.176 1103.5,306.5C 1103.83,343.337 1103.5,380.004 1102.5,416.5C 1102.5,380.167 1102.5,343.833 1102.5,307.5C 1096.17,307.5 1089.83,307.5 1083.5,307.5 Z"/></g>
<g><path style="opacity:1" fill="#fffaf5" d="M 1106.5,306.5 C 1125.17,306.333 1143.84,306.5 1162.5,307C 1163.83,312 1163.83,317 1162.5,322C 1156.84,322.499 1151.18,322.666 1145.5,322.5C 1145.5,353.833 1145.5,385.167 1145.5,416.5C 1138.5,416.5 1131.5,416.5 1124.5,416.5C 1124.5,385.167 1124.5,353.833 1124.5,322.5C 1118.5,322.5 1112.5,322.5 1106.5,322.5C 1106.5,317.167 1106.5,311.833 1106.5,306.5 Z"/></g>
<g><path style="opacity:1" fill="#fffefd" d="M 1166.5,306.5 C 1173.17,306.5 1179.83,306.5 1186.5,306.5C 1186.5,343.167 1186.5,379.833 1186.5,416.5C 1179.83,416.5 1173.17,416.5 1166.5,416.5C 1166.5,379.833 1166.5,343.167 1166.5,306.5 Z"/></g>
<g><path style="opacity:1" fill="#fffdfc" d="M 1238.5,366.5 C 1231.5,366.5 1224.5,366.5 1217.5,366.5C 1217.5,378.5 1217.5,390.5 1217.5,402.5C 1225.98,403.493 1234.65,403.826 1243.5,403.5C 1243.5,407.833 1243.5,412.167 1243.5,416.5C 1228.17,416.5 1212.83,416.5 1197.5,416.5C 1197.5,379.833 1197.5,343.167 1197.5,306.5C 1212.83,306.5 1228.17,306.5 1243.5,306.5C 1243.5,311.5 1243.5,316.5 1243.5,321.5C 1234.83,321.5 1226.17,321.5 1217.5,321.5C 1217.5,331.833 1217.5,342.167 1217.5,352.5C 1224.5,352.5 1231.5,352.5 1238.5,352.5C 1238.5,357.167 1238.5,361.833 1238.5,366.5 Z"/></g>
<g><path style="opacity:1" fill="#fd9d25" d="M 556.5,321.5 C 560.936,321.21 565.27,321.71 569.5,323C 572,324.167 573.833,326 575,328.5C 575.167,339.167 575.333,349.833 575.5,360.5C 575.625,372.554 575.125,384.554 574,396.5C 572.749,399.381 570.583,401.214 567.5,402C 563.848,402.499 560.182,402.665 556.5,402.5C 556.5,375.5 556.5,348.5 556.5,321.5 Z"/></g>
<g><path style="opacity:1" fill="#fd9e28" d="M 725.5,320.5 C 732.204,319.27 737.038,321.603 740,327.5C 740.667,350.167 740.667,372.833 740,395.5C 738.571,400.601 735.237,402.934 730,402.5C 723.822,403.247 720.155,400.581 719,394.5C 718.333,372.833 718.333,351.167 719,329.5C 719.873,325.475 722.039,322.475 725.5,320.5 Z"/></g>
<g><path style="opacity:1" fill="#fda02d" d="M 436.5,374.5 C 436.5,375.5 436.5,376.5 436.5,377.5C 432.167,377.5 427.833,377.5 423.5,377.5C 425.123,363.426 427.29,349.426 430,335.5C 432.601,348.438 434.767,361.438 436.5,374.5 Z"/></g>
<g><path style="opacity:1" fill="#feb963" d="M 788.5,349.5 C 787.833,352.167 787.167,354.833 786.5,357.5C 786.334,352.821 786.501,348.155 787,343.5C 787.813,345.436 788.313,347.436 788.5,349.5 Z"/></g>
<g><path style="opacity:1" fill="#febd6d" d="M 917.5,364.5 C 916.833,358.833 916.167,353.167 915.5,347.5C 915.709,346.078 916.209,344.745 917,343.5C 917.5,350.492 917.666,357.492 917.5,364.5 Z"/></g>
<g><path style="opacity:1" fill="#fecd91" d="M 486.5,355.5 C 485.833,375.833 485.167,396.167 484.5,416.5C 484.333,395.497 484.5,374.497 485,353.5C 485.717,354.044 486.217,354.711 486.5,355.5 Z"/></g>
<g><path style="opacity:1" fill="#fecd91" d="M 1033.5,355.5 C 1032.83,375.833 1032.17,396.167 1031.5,416.5C 1031.33,395.497 1031.5,374.497 1032,353.5C 1032.72,354.044 1033.22,354.711 1033.5,355.5 Z"/></g>
<g><path style="opacity:1" fill="#febc6a" d="M 1238.5,366.5 C 1232.02,367.491 1225.35,367.824 1218.5,367.5C 1218.5,379.167 1218.5,390.833 1218.5,402.5C 1218.17,402.5 1217.83,402.5 1217.5,402.5C 1217.5,390.5 1217.5,378.5 1217.5,366.5C 1224.5,366.5 1231.5,366.5 1238.5,366.5 Z"/></g>
<g><path style="opacity:1" fill="#feba65" d="M 436.5,374.5 C 437.434,375.568 437.768,376.901 437.5,378.5C 432.637,378.819 427.97,378.486 423.5,377.5C 427.833,377.5 432.167,377.5 436.5,377.5C 436.5,376.5 436.5,375.5 436.5,374.5 Z"/></g>
<g><path style="opacity:1" fill="#febf71" d="M 1262.5,381.5 C 1263.21,380.596 1264.21,380.263 1265.5,380.5C 1265.5,382.833 1265.5,385.167 1265.5,387.5C 1265.06,385.156 1264.06,383.156 1262.5,381.5 Z"/></g>
<g><path style="opacity:1" fill="#ffe0ba" d="M 1217.5,402.5 C 1217.83,402.5 1218.17,402.5 1218.5,402.5C 1227.17,402.5 1235.83,402.5 1244.5,402.5C 1244.82,407.363 1244.49,412.03 1243.5,416.5C 1243.5,412.167 1243.5,407.833 1243.5,403.5C 1234.65,403.826 1225.98,403.493 1217.5,402.5 Z"/></g>
<g><path style="opacity:1" fill="#fffefd" d="M 520.5,589.5 C 595.501,589.333 670.501,589.5 745.5,590C 747.333,590.5 748.5,591.667 749,593.5C 749.667,846.167 749.667,1098.83 749,1351.5C 747.833,1352.67 746.667,1353.83 745.5,1355C 670.833,1355.67 596.167,1355.67 521.5,1355C 519.667,1354.5 518.5,1353.33 518,1351.5C 517.333,1098.5 517.333,845.5 518,592.5C 519.045,591.627 519.878,590.627 520.5,589.5 Z"/></g>
<g><path style="opacity:1" fill="#fd9d26" d="M 557.5,692.5 C 575.17,692.333 592.836,692.5 610.5,693C 611,693.5 611.5,694 612,694.5C 612.667,713.833 612.667,733.167 612,752.5C 611.5,753 611,753.5 610.5,754C 592.593,754.825 574.76,754.658 557,753.5C 556.18,733.094 556.346,712.76 557.5,692.5 Z"/></g>
<g><path style="opacity:1" fill="#fd9d26" d="M 656.5,692.5 C 674.17,692.333 691.836,692.5 709.5,693C 710,693.5 710.5,694 711,694.5C 711.826,714.407 711.659,734.24 710.5,754C 692.26,754.825 674.093,754.659 656,753.5C 655.18,733.094 655.346,712.76 656.5,692.5 Z"/></g>
<g><path style="opacity:1" fill="#fffefd" d="M 1001.5,728.5 C 1003.86,728.337 1006.19,728.503 1008.5,729C 1009.13,729.75 1009.63,730.584 1010,731.5C 1010.67,938.833 1010.67,1146.17 1010,1353.5C 1009.17,1354.33 1008.33,1355.17 1007.5,1356C 932.5,1356.67 857.5,1356.67 782.5,1356C 781.667,1355.17 780.833,1354.33 780,1353.5C 779.333,1238.83 779.333,1124.17 780,1009.5C 853.842,915.803 927.675,822.136 1001.5,728.5 Z"/></g>
<g><path style="opacity:1" fill="#fd9d25" d="M 975.5,811.5 C 978.685,811.02 981.519,811.686 984,813.5C 984.667,838.5 984.667,863.5 984,888.5C 983.167,889.333 982.333,890.167 981.5,891C 961.123,891.821 940.79,891.655 920.5,890.5C 917.278,887.945 916.778,884.945 919,881.5C 937.667,858.003 956.5,834.67 975.5,811.5 Z"/></g>
<g><path style="opacity:1" fill="#fd9d25" d="M 556.5,822.5 C 575.076,822.174 593.576,822.507 612,823.5C 612.826,843.407 612.659,863.24 611.5,883C 593.26,883.825 575.093,883.659 557,882.5C 556.5,862.503 556.333,842.503 556.5,822.5 Z"/></g>
<g><path style="opacity:1" fill="#fd9d25" d="M 655.5,822.5 C 674.076,822.174 692.576,822.507 711,823.5C 711.826,843.407 711.659,863.24 710.5,883C 692.26,883.825 674.093,883.659 656,882.5C 655.5,862.503 655.333,842.503 655.5,822.5 Z"/></g>
<g><path style="opacity:1" fill="#fd9d25" d="M 911.5,916.5 C 935.169,916.333 958.836,916.5 982.5,917C 983,917.5 983.5,918 984,918.5C 984.667,934.167 984.667,949.833 984,965.5C 983.5,966 983,966.5 982.5,967C 958.5,967.667 934.5,967.667 910.5,967C 909.874,966.25 909.374,965.416 909,964.5C 908.333,949.5 908.333,934.5 909,919.5C 910.045,918.627 910.878,917.627 911.5,916.5 Z"/></g>
<g><path style="opacity:1" fill="#fd9d25" d="M 876.5,940.5 C 879.961,940.146 882.461,941.479 884,944.5C 884.667,976.833 884.667,1009.17 884,1041.5C 883.097,1042.7 881.931,1043.53 880.5,1044C 857.5,1044.67 834.5,1044.67 811.5,1044C 810.667,1043.17 809.833,1042.33 809,1041.5C 808.333,1035.83 808.333,1030.17 809,1024.5C 830.954,996.048 853.454,968.048 876.5,940.5 Z"/></g>
<g><path style="opacity:1" fill="#fd9d25" d="M 557.5,951.5 C 575.503,951.333 593.503,951.5 611.5,952C 612.161,961.925 612.494,971.925 612.5,982C 612.494,992.075 612.161,1002.07 611.5,1012C 593.17,1012.5 574.836,1012.67 556.5,1012.5C 556.179,992.091 556.512,971.758 557.5,951.5 Z"/></g>
<g><path style="opacity:1" fill="#fd9d25" d="M 656.5,951.5 C 674.503,951.333 692.503,951.5 710.5,952C 711.161,961.925 711.494,971.925 711.5,982C 711.494,992.075 711.161,1002.07 710.5,1012C 692.17,1012.5 673.836,1012.67 655.5,1012.5C 655.179,992.091 655.512,971.758 656.5,951.5 Z"/></g>
<g><path style="opacity:1" fill="#fffefe" d="M 363.5,985.5 C 365.527,985.338 367.527,985.505 369.5,986C 408.696,1035.56 447.529,1085.4 486,1135.5C 486.769,1138.1 486.602,1140.6 485.5,1143C 446.25,1144.16 406.916,1144.66 367.5,1144.5C 328.833,1144.33 290.167,1144.17 251.5,1144C 250.584,1143.63 249.75,1143.13 249,1142.5C 248.333,1140.17 248.333,1137.83 249,1135.5C 287.418,1085.65 325.585,1035.65 363.5,985.5 Z"/></g>
<g><path style="opacity:1" fill="#fd9d24" d="M 911.5,992.5 C 935.59,992.02 959.59,992.52 983.5,994C 984.657,1009.76 984.824,1025.59 984,1041.5C 983.5,1042 983,1042.5 982.5,1043C 958.5,1043.67 934.5,1043.67 910.5,1043C 909.874,1042.25 909.374,1041.42 909,1040.5C 908.333,1025.5 908.333,1010.5 909,995.5C 910.045,994.627 910.878,993.627 911.5,992.5 Z"/></g>
<g><path style="opacity:1" fill="#fffefd" d="M 1039.5,1045.5 C 1116.5,1045.33 1193.5,1045.5 1270.5,1046C 1271.67,1046.5 1272.5,1047.33 1273,1048.5C 1273.67,1064.83 1273.67,1081.17 1273,1097.5C 1272.17,1098.33 1271.33,1099.17 1270.5,1100C 1193.5,1100.67 1116.5,1100.67 1039.5,1100C 1038.67,1099.17 1037.83,1098.33 1037,1097.5C 1036.33,1081.17 1036.33,1064.83 1037,1048.5C 1038.04,1047.63 1038.88,1046.63 1039.5,1045.5 Z"/></g>
<g><path style="opacity:1" fill="#fd9d25" d="M 811.5,1068.5 C 834.836,1068.33 858.169,1068.5 881.5,1069C 882.333,1069.83 883.167,1070.67 884,1071.5C 884.968,1087.26 884.635,1102.93 883,1118.5C 881.933,1119.19 880.766,1119.69 879.5,1120C 856.833,1120.67 834.167,1120.67 811.5,1120C 810.667,1119.17 809.833,1118.33 809,1117.5C 808.333,1101.83 808.333,1086.17 809,1070.5C 809.995,1069.93 810.828,1069.27 811.5,1068.5 Z"/></g>
<g><path style="opacity:1" fill="#fd9d26" d="M 911.5,1068.5 C 935.59,1068.02 959.59,1068.52 983.5,1070C 984.657,1085.76 984.824,1101.59 984,1117.5C 983.167,1118.33 982.333,1119.17 981.5,1120C 957.745,1120.98 934.079,1120.65 910.5,1119C 909.874,1118.25 909.374,1117.42 909,1116.5C 908.333,1101.5 908.333,1086.5 909,1071.5C 910.045,1070.63 910.878,1069.63 911.5,1068.5 Z"/></g>
<g><path style="opacity:1" fill="#fd9d25" d="M 557.5,1080.5 C 575.17,1080.33 592.836,1080.5 610.5,1081C 611,1081.5 611.5,1082 612,1082.5C 612.667,1101.83 612.667,1121.17 612,1140.5C 611.5,1141 611,1141.5 610.5,1142C 592.593,1142.83 574.76,1142.66 557,1141.5C 556.18,1121.09 556.346,1100.76 557.5,1080.5 Z"/></g>
<g><path style="opacity:1" fill="#fd9d25" d="M 656.5,1080.5 C 674.547,1080.18 692.547,1080.51 710.5,1081.5C 711.833,1101.5 711.833,1121.5 710.5,1141.5C 692.304,1142.83 674.137,1142.83 656,1141.5C 655.18,1121.09 655.346,1100.76 656.5,1080.5 Z"/></g>
<g><path style="opacity:1" fill="#fffefd" d="M 1039.5,1118.5 C 1116.5,1118.33 1193.5,1118.5 1270.5,1119C 1271.33,1119.83 1272.17,1120.67 1273,1121.5C 1273.67,1198.83 1273.67,1276.17 1273,1353.5C 1272.63,1354.42 1272.13,1355.25 1271.5,1356C 1194.91,1357.66 1118.25,1357.99 1041.5,1357C 1040,1356.42 1038.67,1355.58 1037.5,1354.5C 1036.34,1276.87 1036.17,1199.21 1037,1121.5C 1038.04,1120.63 1038.88,1119.63 1039.5,1118.5 Z"/></g>
<g><path style="opacity:1" fill="#fd9d25" d="M 811.5,1144.5 C 834.836,1144.33 858.169,1144.5 881.5,1145C 882.333,1145.83 883.167,1146.67 884,1147.5C 884.968,1163.26 884.635,1178.93 883,1194.5C 882.25,1195.13 881.416,1195.63 880.5,1196C 857.5,1196.67 834.5,1196.67 811.5,1196C 810.667,1195.17 809.833,1194.33 809,1193.5C 808.333,1177.83 808.333,1162.17 809,1146.5C 809.995,1145.93 810.828,1145.27 811.5,1144.5 Z"/></g>
<g><path style="opacity:1" fill="#fd9d26" d="M 911.5,1144.5 C 935.59,1144.02 959.59,1144.52 983.5,1146C 984.657,1161.76 984.824,1177.59 984,1193.5C 983.167,1194.33 982.333,1195.17 981.5,1196C 957.745,1196.98 934.079,1196.65 910.5,1195C 909.874,1194.25 909.374,1193.42 909,1192.5C 908.333,1177.5 908.333,1162.5 909,1147.5C 910.045,1146.63 910.878,1145.63 911.5,1144.5 Z"/></g>
<g><path style="opacity:1" fill="#fd9d25" d="M 1068.5,1145.5 C 1092.84,1145.33 1117.17,1145.5 1141.5,1146C 1142.33,1146.83 1143.17,1147.67 1144,1148.5C 1144.67,1163.5 1144.67,1178.5 1144,1193.5C 1143.17,1194.33 1142.33,1195.17 1141.5,1196C 1117.17,1196.67 1092.83,1196.67 1068.5,1196C 1068,1195.5 1067.5,1195 1067,1194.5C 1066.33,1178.83 1066.33,1163.17 1067,1147.5C 1067.72,1146.96 1068.22,1146.29 1068.5,1145.5 Z"/></g>
<g><path style="opacity:1" fill="#fd9d25" d="M 1171.5,1145.5 C 1195.84,1145.33 1220.17,1145.5 1244.5,1146C 1245.33,1146.83 1246.17,1147.67 1247,1148.5C 1247.67,1163.5 1247.67,1178.5 1247,1193.5C 1246.17,1194.33 1245.33,1195.17 1244.5,1196C 1220.17,1196.67 1195.83,1196.67 1171.5,1196C 1171,1195.5 1170.5,1195 1170,1194.5C 1169.33,1178.83 1169.33,1163.17 1170,1147.5C 1170.72,1146.96 1171.22,1146.29 1171.5,1145.5 Z"/></g>
<g><path style="opacity:1" fill="#fffdfc" d="M 250.5,1164.5 C 327.834,1164.33 405.167,1164.5 482.5,1165C 483.667,1166.17 484.833,1167.33 486,1168.5C 486.667,1229.17 486.667,1289.83 486,1350.5C 485.535,1351.93 484.701,1353.1 483.5,1354C 457.169,1354.5 430.835,1354.67 404.5,1354.5C 404.667,1316.17 404.5,1277.83 404,1239.5C 403.5,1239 403,1238.5 402.5,1238C 377.833,1237.33 353.167,1237.33 328.5,1238C 328,1238.5 327.5,1239 327,1239.5C 326.5,1277.83 326.333,1316.17 326.5,1354.5C 300.831,1354.67 275.165,1354.5 249.5,1354C 248.299,1353.1 247.465,1351.93 247,1350.5C 246.333,1289.83 246.333,1229.17 247,1168.5C 248.376,1167.29 249.542,1165.96 250.5,1164.5 Z"/></g>
<g><path style="opacity:1" fill="#fd9d26" d="M 557.5,1209.5 C 575.17,1209.33 592.836,1209.5 610.5,1210C 611,1210.5 611.5,1211 612,1211.5C 612.826,1231.41 612.659,1251.24 611.5,1271C 593.26,1271.83 575.093,1271.66 557,1270.5C 556.18,1250.09 556.346,1229.76 557.5,1209.5 Z"/></g>
<g><path style="opacity:1" fill="#fd9d26" d="M 656.5,1209.5 C 674.17,1209.33 691.836,1209.5 709.5,1210C 710,1210.5 710.5,1211 711,1211.5C 711.826,1231.41 711.659,1251.24 710.5,1271C 692.26,1271.83 674.093,1271.66 656,1270.5C 655.18,1250.09 655.346,1229.76 656.5,1209.5 Z"/></g>
<g><path style="opacity:1" fill="#fd9d25" d="M 811.5,1220.5 C 834.836,1220.33 858.169,1220.5 881.5,1221C 882.333,1221.83 883.167,1222.67 884,1223.5C 884.968,1239.26 884.635,1254.93 883,1270.5C 882.25,1271.13 881.416,1271.63 880.5,1272C 857.5,1272.67 834.5,1272.67 811.5,1272C 810.667,1271.17 809.833,1270.33 809,1269.5C 808.333,1253.83 808.333,1238.17 809,1222.5C 809.995,1221.93 810.828,1221.27 811.5,1220.5 Z"/></g>
<g><path style="opacity:1" fill="#fd9d26" d="M 911.5,1220.5 C 935.59,1220.02 959.59,1220.52 983.5,1222C 984.828,1238.14 984.828,1254.3 983.5,1270.5C 982.975,1271.19 982.308,1271.69 981.5,1272C 958.167,1272.67 934.833,1272.67 911.5,1272C 910.299,1271.1 909.465,1269.93 909,1268.5C 908.333,1253.5 908.333,1238.5 909,1223.5C 910.045,1222.63 910.878,1221.63 911.5,1220.5 Z"/></g>
<g><path style="opacity:1" fill="#fd9e27" d="M 1069.5,1220.5 C 1093.92,1220.02 1118.26,1220.52 1142.5,1222C 1143.13,1222.75 1143.63,1223.58 1144,1224.5C 1144.17,1231.83 1144.33,1239.17 1144.5,1246.5C 1144.64,1254.6 1144.14,1262.6 1143,1270.5C 1142.25,1271.13 1141.42,1271.63 1140.5,1272C 1116.83,1272.67 1093.17,1272.67 1069.5,1272C 1068.67,1271.17 1067.83,1270.33 1067,1269.5C 1066.33,1254.17 1066.33,1238.83 1067,1223.5C 1068.04,1222.63 1068.88,1221.63 1069.5,1220.5 Z"/></g>
<g><path style="opacity:1" fill="#fd9e27" d="M 1172.5,1220.5 C 1196.92,1220.02 1221.26,1220.52 1245.5,1222C 1246.13,1222.75 1246.63,1223.58 1247,1224.5C 1247.17,1231.83 1247.33,1239.17 1247.5,1246.5C 1247.64,1254.6 1247.14,1262.6 1246,1270.5C 1245.25,1271.13 1244.42,1271.63 1243.5,1272C 1219.83,1272.67 1196.17,1272.67 1172.5,1272C 1171.67,1271.17 1170.83,1270.33 1170,1269.5C 1169.33,1254.17 1169.33,1238.83 1170,1223.5C 1171.04,1222.63 1171.88,1221.63 1172.5,1220.5 Z"/></g>
</svg>
