<?xml version="1.0" encoding="UTF-8"?>
<!DOCTYPE svg PUBLIC "-//W3C//DTD SVG 1.1//EN" "http://www.w3.org/Graphics/SVG/1.1/DTD/svg11.dtd">
<svg xmlns="http://www.w3.org/2000/svg" version="1.1" width="1500px" height="1500px" style="shape-rendering:geometricPrecision; text-rendering:geometricPrecision; image-rendering:optimizeQuality; fill-rule:evenodd; clip-rule:evenodd" xmlns:xlink="http://www.w3.org/1999/xlink">
<g><path style="opacity:1" fill="#3f7e44" d="M -0.5,-0.5 C 499.5,-0.5 999.5,-0.5 1499.5,-0.5C 1499.5,499.5 1499.5,999.5 1499.5,1499.5C 999.5,1499.5 499.5,1499.5 -0.5,1499.5C -0.5,999.5 -0.5,499.5 -0.5,-0.5 Z"/></g>
<g><path style="opacity:1" fill="#fdfefe" d="M 274.5,124.5 C 292.991,122.88 310.991,125.047 328.5,131C 351.287,142.055 364.12,160.221 367,185.5C 370.707,208.283 366.374,229.283 354,248.5C 348.123,255.516 340.957,260.682 332.5,264C 353.516,274.161 365.016,290.994 367,314.5C 369.728,337.223 367.062,359.223 359,380.5C 348.872,403.284 331.372,416.117 306.5,419C 250.784,426.92 219.951,403.086 214,347.5C 213.5,339.507 213.334,331.507 213.5,323.5C 231.833,323.5 250.167,323.5 268.5,323.5C 266.933,338.469 269.1,352.803 275,366.5C 281.456,373.139 289.29,375.306 298.5,373C 305.508,370.656 309.674,365.823 311,358.5C 313.895,343.228 314.228,327.895 312,312.5C 310.136,299.984 303.302,291.817 291.5,288C 284.888,286.79 278.222,286.29 271.5,286.5C 271.5,273.167 271.5,259.833 271.5,246.5C 280.728,247.032 289.728,245.865 298.5,243C 306.086,238.36 310.586,231.527 312,222.5C 313.348,212.196 313.681,201.863 313,191.5C 309.929,170.709 298.429,163.876 278.5,171C 273.793,175.106 270.959,180.273 270,186.5C 268.688,197.122 268.188,207.789 268.5,218.5C 250.167,218.5 231.833,218.5 213.5,218.5C 212.143,201.119 213.977,184.119 219,167.5C 229.687,142.925 248.187,128.591 274.5,124.5 Z"/></g>
<g><path style="opacity:1" fill="#fcfdfc" d="M 541.5,167.5 C 535.167,167.5 528.833,167.5 522.5,167.5C 522.815,163.629 522.482,159.962 521.5,156.5C 523.062,145.563 518.395,140.73 507.5,142C 504.255,143.981 502.089,146.814 501,150.5C 500.333,171.167 500.333,191.833 501,212.5C 502.851,223.571 508.851,226.571 519,221.5C 519.862,219.913 520.529,218.246 521,216.5C 521.5,209.842 521.666,203.175 521.5,196.5C 528.167,196.5 534.833,196.5 541.5,196.5C 543.039,208.606 540.872,219.939 535,230.5C 531.083,234.709 526.25,237.209 520.5,238C 498.358,242.869 485.191,234.369 481,212.5C 480.333,191.833 480.333,171.167 481,150.5C 485.82,131.496 497.986,123.662 517.5,127C 530.425,128.591 538.258,135.758 541,148.5C 541.5,154.825 541.666,161.158 541.5,167.5 Z"/></g>
<g><path style="opacity:1" fill="#cbdccc" d="M 711.5,132.5 C 710.566,131.432 710.232,130.099 710.5,128.5C 703.745,128.207 697.078,128.54 690.5,129.5C 697.087,127.539 704.087,126.872 711.5,127.5C 711.5,129.167 711.5,130.833 711.5,132.5 Z"/></g>
<g><path style="opacity:1" fill="#c8d9c9" d="M 835.5,142.5 C 835.5,137.833 835.5,133.167 835.5,128.5C 817.167,128.5 798.833,128.5 780.5,128.5C 780.5,133.167 780.5,137.833 780.5,142.5C 779.513,137.695 779.179,132.695 779.5,127.5C 798.5,127.5 817.5,127.5 836.5,127.5C 836.821,132.695 836.487,137.695 835.5,142.5 Z"/></g>
<g><path style="opacity:1" fill="#fefefe" d="M 90.5,199.5 C 89.5044,186.344 89.1711,173.01 89.5,159.5C 100.656,154.589 111.656,149.089 122.5,143C 129.882,138.973 136.549,133.973 142.5,128C 156.829,127.5 171.163,127.333 185.5,127.5C 185.5,223.5 185.5,319.5 185.5,415.5C 167.167,415.5 148.833,415.5 130.5,415.5C 130.833,338.83 130.5,262.164 129.5,185.5C 116.618,190.571 103.618,195.238 90.5,199.5 Z"/></g>
<g><path style="opacity:1" fill="#f7f9f7" d="M 571.5,223.5 C 579.65,224.493 587.983,224.826 596.5,224.5C 596.5,228.833 596.5,233.167 596.5,237.5C 581.167,237.5 565.833,237.5 550.5,237.5C 550.5,200.833 550.5,164.167 550.5,127.5C 557.5,127.5 564.5,127.5 571.5,127.5C 571.5,159.5 571.5,191.5 571.5,223.5 Z"/></g>
<g><path style="opacity:1" fill="#fefffe" d="M 604.5,128.5 C 610.833,128.5 617.167,128.5 623.5,128.5C 623.5,164.833 623.5,201.167 623.5,237.5C 617.167,237.5 610.833,237.5 604.5,237.5C 604.5,201.167 604.5,164.833 604.5,128.5 Z"/></g>
<g><path style="opacity:1" fill="#cfded0" d="M 604.5,128.5 C 610.979,127.509 617.646,127.176 624.5,127.5C 624.832,164.337 624.498,201.004 623.5,237.5C 623.5,201.167 623.5,164.833 623.5,128.5C 617.167,128.5 610.833,128.5 604.5,128.5 Z"/></g>
<g><path style="opacity:1" fill="#fcfdfc" d="M 690.5,129.5 C 697.078,128.54 703.745,128.207 710.5,128.5C 710.232,130.099 710.566,131.432 711.5,132.5C 711.728,167.51 712.394,202.51 713.5,237.5C 708.167,237.5 702.833,237.5 697.5,237.5C 697.79,213.815 697.29,190.148 696,166.5C 690.586,190.071 685.753,213.737 681.5,237.5C 677.167,237.5 672.833,237.5 668.5,237.5C 663.987,213.787 659.153,190.12 654,166.5C 652.53,190.101 652.03,213.768 652.5,237.5C 647.167,237.5 641.833,237.5 636.5,237.5C 637.231,200.835 637.898,164.168 638.5,127.5C 645.5,127.5 652.5,127.5 659.5,127.5C 664.344,152.219 669.511,176.886 675,201.5C 680.488,177.561 685.654,153.561 690.5,129.5 Z"/></g>
<g><path style="opacity:1" fill="#fbfcfb" d="M 784.5,236.5 C 778.266,237.807 771.932,237.807 765.5,236.5C 764.384,228.854 763.217,221.188 762,213.5C 755.59,212.522 749.09,212.189 742.5,212.5C 741.351,220.875 740.018,229.208 738.5,237.5C 732.167,237.5 725.833,237.5 719.5,237.5C 726.345,201.443 733.511,165.443 741,129.5C 744.402,128.211 748.069,127.544 752,127.5C 755.75,127.517 759.417,127.851 763,128.5C 770.233,164.5 777.4,200.5 784.5,236.5 Z"/></g>
<g><path style="opacity:1" fill="#fefffe" d="M 835.5,142.5 C 829.833,142.5 824.167,142.5 818.5,142.5C 818.5,174.167 818.5,205.833 818.5,237.5C 811.833,237.5 805.167,237.5 798.5,237.5C 798.5,205.833 798.5,174.167 798.5,142.5C 792.5,142.5 786.5,142.5 780.5,142.5C 780.5,137.833 780.5,133.167 780.5,128.5C 798.833,128.5 817.167,128.5 835.5,128.5C 835.5,133.167 835.5,137.833 835.5,142.5 Z"/></g>
<g><path style="opacity:1" fill="#cfded0" d="M 886.5,128.5 C 871.5,128.5 856.5,128.5 841.5,128.5C 841.5,164.833 841.5,201.167 841.5,237.5C 840.502,201.004 840.168,164.337 840.5,127.5C 856.009,127.17 871.342,127.504 886.5,128.5 Z"/></g>
<g><path style="opacity:1" fill="#fdfefd" d="M 886.5,128.5 C 886.5,133.167 886.5,137.833 886.5,142.5C 878.167,142.5 869.833,142.5 861.5,142.5C 861.5,152.833 861.5,163.167 861.5,173.5C 868.167,173.5 874.833,173.5 881.5,173.5C 881.5,178.167 881.5,182.833 881.5,187.5C 874.5,187.5 867.5,187.5 860.5,187.5C 860.172,199.678 860.505,211.678 861.5,223.5C 869.65,224.493 877.983,224.826 886.5,224.5C 886.5,228.833 886.5,233.167 886.5,237.5C 871.5,237.5 856.5,237.5 841.5,237.5C 841.5,201.167 841.5,164.833 841.5,128.5C 856.5,128.5 871.5,128.5 886.5,128.5 Z"/></g>
<g><path style="opacity:1" fill="#6f9e73" d="M 780.5,142.5 C 786.5,142.5 792.5,142.5 798.5,142.5C 798.5,174.167 798.5,205.833 798.5,237.5C 797.502,206.338 797.168,175.004 797.5,143.5C 791.642,143.822 785.975,143.489 780.5,142.5 Z"/></g>
<g><path style="opacity:1" fill="#cfded0" d="M 89.5,159.5 C 89.1711,173.01 89.5044,186.344 90.5,199.5C 90.44,200.043 90.1067,200.376 89.5,200.5C 88.1745,186.672 88.1745,173.006 89.5,159.5 Z"/></g>
<g><path style="opacity:1" fill="#45824a" d="M 751.5,159.5 C 752.167,160.167 752.833,160.833 753.5,161.5C 755.165,172.823 756.831,184.156 758.5,195.5C 758.5,196.5 758.5,197.5 758.5,198.5C 754.167,198.5 749.833,198.5 745.5,198.5C 747.174,185.453 749.174,172.453 751.5,159.5 Z"/></g>
<g><path style="opacity:1" fill="#85ad88" d="M 753.5,161.5 C 752.833,160.833 752.167,160.167 751.5,159.5C 751.343,158.127 751.51,156.793 752,155.5C 753.128,157.345 753.628,159.345 753.5,161.5 Z"/></g>
<g><path style="opacity:1" fill="#9dbea0" d="M 521.5,156.5 C 522.482,159.962 522.815,163.629 522.5,167.5C 528.833,167.5 535.167,167.5 541.5,167.5C 535.021,168.491 528.354,168.824 521.5,168.5C 521.5,164.5 521.5,160.5 521.5,156.5 Z"/></g>
<g><path style="opacity:1" fill="#92b695" d="M 881.5,187.5 C 875.021,188.491 868.354,188.824 861.5,188.5C 861.5,200.167 861.5,211.833 861.5,223.5C 860.505,211.678 860.172,199.678 860.5,187.5C 867.5,187.5 874.5,187.5 881.5,187.5 Z"/></g>
<g><path style="opacity:1" fill="#9bbc9e" d="M 758.5,195.5 C 759.434,196.568 759.768,197.901 759.5,199.5C 754.637,199.819 749.97,199.486 745.5,198.5C 749.833,198.5 754.167,198.5 758.5,198.5C 758.5,197.5 758.5,196.5 758.5,195.5 Z"/></g>
<g><path style="opacity:1" fill="#cfded0" d="M 571.5,223.5 C 580.167,223.5 588.833,223.5 597.5,223.5C 597.819,228.363 597.486,233.03 596.5,237.5C 596.5,233.167 596.5,228.833 596.5,224.5C 587.983,224.826 579.65,224.493 571.5,223.5 Z"/></g>
<g><path style="opacity:1" fill="#cfded0" d="M 861.5,223.5 C 870.167,223.5 878.833,223.5 887.5,223.5C 887.819,228.363 887.486,233.03 886.5,237.5C 886.5,233.167 886.5,228.833 886.5,224.5C 877.983,224.826 869.65,224.493 861.5,223.5 Z"/></g>
<g><path style="opacity:1" fill="#6e9d71" d="M 765.5,236.5 C 771.932,237.807 778.266,237.807 784.5,236.5C 785.043,236.56 785.376,236.893 785.5,237.5C 782.167,237.833 778.833,238.167 775.5,238.5C 771.761,238.486 768.428,237.82 765.5,236.5 Z"/></g>
<g><path style="opacity:1" fill="#fbfcfb" d="M 571.5,305.5 C 582.551,304.082 592.384,306.749 601,313.5C 603.81,317.453 605.81,321.787 607,326.5C 607.5,333.492 607.666,340.492 607.5,347.5C 601.167,347.5 594.833,347.5 588.5,347.5C 588.666,340.825 588.5,334.158 588,327.5C 584.255,320.406 578.755,318.74 571.5,322.5C 570.139,324.028 568.972,325.695 568,327.5C 567.333,349.833 567.333,372.167 568,394.5C 570.379,402.198 575.546,404.698 583.5,402C 585.894,400.048 587.394,397.548 588,394.5C 588.5,388.175 588.666,381.842 588.5,375.5C 594.833,375.5 601.167,375.5 607.5,375.5C 610.483,412.367 594.483,425.2 559.5,414C 551.817,408.138 547.65,400.305 547,390.5C 546.082,369.134 546.416,347.8 548,326.5C 551.345,314.315 559.178,307.315 571.5,305.5 Z"/></g>
<g><path style="opacity:1" fill="#fbfcfb" d="M 725.5,305.5 C 736.33,304.165 746.33,306.332 755.5,312C 760.947,317.73 764.114,324.563 765,332.5C 765.942,353.543 765.608,374.543 764,395.5C 760.933,408.567 752.767,416.067 739.5,418C 717.876,421.021 705.376,411.855 702,390.5C 701.333,370.833 701.333,351.167 702,331.5C 703.783,317.223 711.616,308.556 725.5,305.5 Z"/></g>
<g><path style="opacity:1" fill="#fbfcfb" d="M 541.5,415.5 C 535.69,416.49 529.69,416.823 523.5,416.5C 521.81,408.352 520.477,400.019 519.5,391.5C 512.833,391.5 506.167,391.5 499.5,391.5C 498.585,399.908 497.252,408.241 495.5,416.5C 489.167,416.5 482.833,416.5 476.5,416.5C 483.665,380.507 490.831,344.507 498,308.5C 501.402,307.211 505.069,306.544 509,306.5C 512.75,306.517 516.417,306.851 520,307.5C 527.747,343.402 534.914,379.402 541.5,415.5 Z"/></g>
<g><path style="opacity:1" fill="#f9fbf9" d="M 609.5,307.5 C 628.167,307.5 646.833,307.5 665.5,307.5C 665.5,312.167 665.5,316.833 665.5,321.5C 659.642,321.178 653.975,321.511 648.5,322.5C 648.5,353.833 648.5,385.167 648.5,416.5C 641.5,416.5 634.5,416.5 627.5,416.5C 627.5,385.167 627.5,353.833 627.5,322.5C 621.5,322.5 615.5,322.5 609.5,322.5C 609.5,317.5 609.5,312.5 609.5,307.5 Z"/></g>
<g><path style="opacity:1" fill="#9ebea1" d="M 690.5,416.5 C 690.5,380.167 690.5,343.833 690.5,307.5C 684.167,307.5 677.833,307.5 671.5,307.5C 671.5,343.833 671.5,380.167 671.5,416.5C 670.502,380.004 670.168,343.337 670.5,306.5C 677.5,306.5 684.5,306.5 691.5,306.5C 691.832,343.337 691.498,380.004 690.5,416.5 Z"/></g>
<g><path style="opacity:1" fill="#fefffe" d="M 690.5,416.5 C 684.167,416.5 677.833,416.5 671.5,416.5C 671.5,380.167 671.5,343.833 671.5,307.5C 677.833,307.5 684.167,307.5 690.5,307.5C 690.5,343.833 690.5,380.167 690.5,416.5 Z"/></g>
<g><path style="opacity:1" fill="#fefefe" d="M 814.5,365.5 C 814.783,366.289 815.283,366.956 816,367.5C 816.5,347.503 816.667,327.503 816.5,307.5C 821.833,307.5 827.167,307.5 832.5,307.5C 832.5,343.833 832.5,380.167 832.5,416.5C 827.901,416.8 823.401,416.467 819,415.5C 810.818,395.808 802.651,376.141 794.5,356.5C 794.013,355.527 793.513,354.527 793,353.5C 792.5,374.497 792.333,395.497 792.5,416.5C 786.833,416.5 781.167,416.5 775.5,416.5C 775.5,379.833 775.5,343.167 775.5,306.5C 780.214,306.173 784.88,306.507 789.5,307.5C 798.229,326.693 806.562,346.026 814.5,365.5 Z"/></g>
<g><path style="opacity:1" fill="#9ebea1" d="M 832.5,307.5 C 827.167,307.5 821.833,307.5 816.5,307.5C 816.667,327.503 816.5,347.503 816,367.5C 815.283,366.956 814.783,366.289 814.5,365.5C 815.497,346.007 815.83,326.34 815.5,306.5C 821.358,306.178 827.025,306.511 832.5,307.5 Z"/></g>
<g><path style="opacity:1" fill="#9dbea0" d="M 609.5,307.5 C 628.326,306.503 647.326,306.17 666.5,306.5C 666.5,311.833 666.5,317.167 666.5,322.5C 660.5,322.5 654.5,322.5 648.5,322.5C 653.975,321.511 659.642,321.178 665.5,321.5C 665.5,316.833 665.5,312.167 665.5,307.5C 646.833,307.5 628.167,307.5 609.5,307.5 Z"/></g>
<g><path style="opacity:1" fill="#407e45" d="M 729.5,320.5 C 736.617,319.14 741.451,321.807 744,328.5C 744.667,350.5 744.667,372.5 744,394.5C 741.095,402.534 735.595,405.034 727.5,402C 725.383,400.269 723.883,398.102 723,395.5C 722.333,372.833 722.333,350.167 723,327.5C 724.356,324.314 726.522,321.981 729.5,320.5 Z"/></g>
<g><path style="opacity:1" fill="#49844d" d="M 508.5,334.5 C 509.887,336.877 510.721,339.543 511,342.5C 512.51,354.559 514.343,366.559 516.5,378.5C 511.833,378.5 507.167,378.5 502.5,378.5C 504.573,363.842 506.573,349.176 508.5,334.5 Z"/></g>
<g><path style="opacity:1" fill="#6f9e73" d="M 794.5,356.5 C 793.833,376.5 793.167,396.5 792.5,416.5C 792.333,395.497 792.5,374.497 793,353.5C 793.513,354.527 794.013,355.527 794.5,356.5 Z"/></g>
<g><path style="opacity:1" fill="#6e9d72" d="M 541.5,415.5 C 542.043,415.56 542.376,415.893 542.5,416.5C 536.012,417.817 529.678,417.817 523.5,416.5C 529.69,416.823 535.69,416.49 541.5,415.5 Z"/></g>
<g><path style="opacity:1" fill="#fefefe" d="M 724.5,661.5 C 960.77,654.747 1153.6,742.08 1303,923.5C 1308.33,930.833 1313.67,938.167 1319,945.5C 1319.67,946.5 1319.67,947.5 1319,948.5C 1218.03,1084.69 1084.86,1173.19 919.5,1214C 783.346,1244.13 649.68,1235.8 518.5,1189C 391.267,1139.66 286.767,1060.49 205,951.5C 203.634,949.63 202.467,947.63 201.5,945.5C 279.736,838.105 380.403,759.272 503.5,709C 574.726,681.136 648.392,665.302 724.5,661.5 Z"/></g>
<g><path style="opacity:1" fill="#3f7e44" d="M 739.5,714.5 C 836.079,710.403 910.246,748.737 962,829.5C 972.47,847.443 980.47,866.443 986,886.5C 987.359,891.775 987.692,897.109 987,902.5C 984.578,909.556 979.578,913.222 972,913.5C 969.7,913.506 967.534,913.006 965.5,912C 961.956,908.946 958.623,905.613 955.5,902C 953.231,900.442 950.898,900.276 948.5,901.5C 946.075,910.799 947.909,919.132 954,926.5C 954.667,928.167 954.667,929.833 954,931.5C 949.108,936.7 943.275,940.534 936.5,943C 930.962,944.051 925.628,945.717 920.5,948C 913.095,956.118 910.261,965.618 912,976.5C 916.325,984.982 920.492,993.482 924.5,1002C 924.262,1005.07 922.596,1006.57 919.5,1006.5C 907.069,1000.85 896.236,992.847 887,982.5C 880.19,968.542 874.19,954.208 869,939.5C 862.169,929.186 853.835,927.853 844,935.5C 843.688,939.665 843.855,943.832 844.5,948C 843.155,956.531 839.988,964.364 835,971.5C 832.757,973.282 830.257,973.782 827.5,973C 822.759,967.588 817.426,962.921 811.5,959C 799.256,954.14 786.922,949.473 774.5,945C 772.241,943.285 770.074,941.452 768,939.5C 764.725,933.506 762.391,927.172 761,920.5C 759.167,918.667 757.333,916.833 755.5,915C 749.469,911.984 743.469,908.984 737.5,906C 732.678,902.089 727.678,898.422 722.5,895C 720.421,894.192 718.421,894.359 716.5,895.5C 715.572,896.768 715.405,898.101 716,899.5C 718.667,902.833 721.333,906.167 724,909.5C 734.667,918.833 744.667,928.833 754,939.5C 755.233,946.873 752.733,952.706 746.5,957C 739.829,961.558 732.496,963.891 724.5,964C 721.228,962.392 718.228,960.392 715.5,958C 707.833,949.667 700.167,941.333 692.5,933C 691.207,932.51 689.873,932.343 688.5,932.5C 689.706,955.885 701.039,972.385 722.5,982C 725.414,983.909 727.081,986.575 727.5,990C 726.338,993.487 725.171,996.987 724,1000.5C 716.959,1005.87 710.959,1012.21 706,1019.5C 704.752,1028.43 704.085,1037.43 704,1046.5C 701.496,1053.02 699.496,1059.69 698,1066.5C 695.613,1069.38 692.946,1072.04 690,1074.5C 687.459,1082.19 684.793,1089.86 682,1097.5C 673.73,1116.39 659.23,1125.22 638.5,1124C 637,1123.17 635.833,1122 635,1120.5C 630.176,1107.63 628.01,1094.3 628.5,1080.5C 625.453,1081.14 623.287,1080.14 622,1077.5C 620,1069.5 618,1061.5 616,1053.5C 611.711,1052.63 607.544,1052.63 603.5,1053.5C 602.806,1049.81 601.972,1046.14 601,1042.5C 595.923,1038.36 591.089,1033.86 586.5,1029C 583.5,1028.33 580.5,1028.33 577.5,1029C 570.833,1032.67 564.167,1036.33 557.5,1040C 553.385,1040.51 549.551,1039.68 546,1037.5C 531.103,1000.89 525.436,962.887 529,923.5C 534.414,917.253 539.247,910.586 543.5,903.5C 548.888,900.754 554.555,899.587 560.5,900C 566.812,901.441 573.145,902.774 579.5,904C 595.059,909.945 610.725,915.612 626.5,921C 638.717,923.137 648.551,919.303 656,909.5C 656.837,905.705 656.504,902.039 655,898.5C 653.014,896.258 650.514,895.258 647.5,895.5C 643.724,896.421 640.058,897.255 636.5,898C 633.5,894.333 630.5,890.667 627.5,887C 625.975,885.991 624.308,885.491 622.5,885.5C 623.216,892.308 624.549,898.975 626.5,905.5C 624.097,905.607 622.264,904.607 621,902.5C 616.826,896.154 613.159,889.488 610,882.5C 603.328,873.412 596.495,873.245 589.5,882C 580.353,886.703 570.687,889.703 560.5,891C 555.719,893.389 550.719,895.222 545.5,896.5C 542.185,897.016 540.018,895.683 539,892.5C 537.125,887.125 537.125,881.791 539,876.5C 545.077,871.861 551.91,870.361 559.5,872C 573.975,877.514 580.142,872.681 578,857.5C 586.382,853.058 594.548,848.225 602.5,843C 610.701,840.717 619.034,840.05 627.5,841C 633.329,842.674 639.162,844.174 645,845.5C 650.049,845.595 654.549,844.095 658.5,841C 663.549,834.229 669.716,828.729 677,824.5C 677.667,823.5 677.667,822.5 677,821.5C 673.239,818.757 669.072,817.924 664.5,819C 659.623,823.387 654.956,828.054 650.5,833C 647.317,835.178 643.817,836.344 640,836.5C 627.955,835.308 616.955,831.308 607,824.5C 604.184,821.42 603.851,818.087 606,814.5C 613.933,805.783 623.766,800.616 635.5,799C 646.151,797.847 656.818,796.847 667.5,796C 675.705,793.532 684.038,791.532 692.5,790C 698.064,788.99 703.398,789.657 708.5,792C 709.517,793.049 709.684,794.216 709,795.5C 700.335,799.997 692.002,804.997 684,810.5C 682.584,814.508 683.918,816.841 688,817.5C 703.481,811.927 717.815,804.26 731,794.5C 731.667,793.167 731.667,791.833 731,790.5C 725.042,786.211 719.376,781.544 714,776.5C 710.365,770.245 709.365,763.579 711,756.5C 710.215,754.714 709.049,753.214 707.5,752C 698.24,748.153 688.573,746.653 678.5,747.5C 664.782,748.006 651.115,748.839 637.5,750C 668.814,730.285 702.814,718.452 739.5,714.5 Z"/></g>
<g><path style="opacity:1" fill="#448148" d="M 596.5,778.5 C 600.839,777.846 604.673,778.846 608,781.5C 609.611,790.264 606.778,797.097 599.5,802C 595.286,804.274 590.953,806.274 586.5,808C 581.563,809.369 577.396,808.203 574,804.5C 573.333,803.5 573.333,802.5 574,801.5C 578.667,795.5 583.333,789.5 588,783.5C 590.682,781.415 593.516,779.748 596.5,778.5 Z"/></g>
<g><path style="opacity:1" fill="#438048" d="M 580.5,817.5 C 585.618,816.889 590.285,818.056 594.5,821C 595.554,822.388 595.72,823.888 595,825.5C 590.594,829.288 585.761,832.455 580.5,835C 571.681,845.161 561.681,853.827 550.5,861C 548.272,861.82 546.272,861.487 544.5,860C 549.489,847.521 555.656,835.688 563,824.5C 568.239,820.48 574.072,818.147 580.5,817.5 Z"/></g>
<g><path style="opacity:1" fill="#417f46" d="M 973.5,918.5 C 983.317,917.812 989.817,922.145 993,931.5C 993.667,943.833 993.667,956.167 993,968.5C 992.585,977.402 991.085,986.068 988.5,994.5C 979.626,986.766 973.793,977.099 971,965.5C 968.56,956.901 969.227,948.568 973,940.5C 975.491,937.681 977.324,934.514 978.5,931C 976.966,926.768 975.3,922.601 973.5,918.5 Z"/></g>
<g><path style="opacity:1" fill="#458149" d="M 923.5,966.5 C 927.438,966.635 930.772,968.135 933.5,971C 942.609,982.191 939.943,985.857 925.5,982C 922.9,978.966 921.233,975.466 920.5,971.5C 920.757,969.308 921.757,967.641 923.5,966.5 Z"/></g>
<g><path style="opacity:1" fill="#428047" d="M 807.5,968.5 C 814.401,968.224 819.901,970.891 824,976.5C 826.508,980.629 825.342,983.129 820.5,984C 814.936,985.01 809.602,984.343 804.5,982C 802.197,980.865 800.864,979.032 800.5,976.5C 802.138,973.197 804.471,970.531 807.5,968.5 Z"/></g>
<g><path style="opacity:1" fill="#438048" d="M 935.5,990.5 C 942.234,990.617 947.734,993.283 952,998.5C 954.379,1002.03 953.546,1004.53 949.5,1006C 941.871,1007.73 935.038,1006.23 929,1001.5C 928.333,999.833 928.333,998.167 929,996.5C 931.063,994.266 933.229,992.266 935.5,990.5 Z"/></g>
<g><path style="opacity:1" fill="#407e45" d="M 966.5,1007.5 C 968.722,1007.18 970.556,1007.84 972,1009.5C 976.363,1016.62 978.363,1024.29 978,1032.5C 966.213,1062.6 949.047,1089.1 926.5,1112C 924.833,1112.67 923.167,1112.67 921.5,1112C 918.448,1109.97 915.114,1108.8 911.5,1108.5C 907.498,1109.2 903.832,1110.36 900.5,1112C 899.106,1111.04 898.439,1109.71 898.5,1108C 898.943,1106.18 899.277,1104.34 899.5,1102.5C 898.127,1102.34 896.793,1102.51 895.5,1103C 890.833,1105.67 886.167,1108.33 881.5,1111C 878.166,1112.21 875.666,1111.38 874,1108.5C 871.585,1099.09 868.918,1089.75 866,1080.5C 864.608,1054.2 876.774,1037.7 902.5,1031C 917.026,1028.08 931.359,1024.41 945.5,1020C 952.932,1016.37 959.932,1012.2 966.5,1007.5 Z"/></g>
<g><path style="opacity:1" fill="#428047" d="M 726.5,1008.5 C 733.162,1008 735.662,1011 734,1017.5C 727.269,1032.08 721.602,1047.08 717,1062.5C 716.21,1066.13 714.043,1068.13 710.5,1068.5C 708.7,1052.22 710.2,1036.22 715,1020.5C 716.667,1018.17 718.333,1015.83 720,1013.5C 722.352,1011.97 724.519,1010.3 726.5,1008.5 Z"/></g>
<g><path style="opacity:1" fill="#407e45" d="M 869.5,1128.5 C 878.994,1127.9 888.328,1128.73 897.5,1131C 898.5,1131.83 899.5,1132.67 900.5,1133.5C 863.915,1161.09 822.581,1176.59 776.5,1180C 748.607,1181.78 721.273,1178.78 694.5,1171C 690.558,1165.51 690.724,1160.01 695,1154.5C 703.766,1142.43 715.599,1135.26 730.5,1133C 742.202,1132.2 753.868,1132.53 765.5,1134C 784.06,1138.85 802.394,1144.52 820.5,1151C 825.11,1152.29 829.777,1152.62 834.5,1152C 844.75,1141.89 856.417,1134.06 869.5,1128.5 Z"/></g>
</svg>
