<?xml version="1.0" encoding="UTF-8"?>
<svg xmlns="http://www.w3.org/2000/svg" xmlns:xlink="http://www.w3.org/1999/xlink" width="150px" height="150px" viewBox="0 0 150 150" version="1.1">
<g id="surface1">
<path style=" stroke:none;fill-rule:evenodd;fill:rgb(89.803922%,14.117647%,23.137255%);fill-opacity:1;" d="M -0.0507812 -0.0507812 C 49.949219 -0.0507812 99.949219 -0.0507812 149.949219 -0.0507812 C 149.949219 49.949219 149.949219 99.949219 149.949219 149.949219 C 99.949219 149.949219 49.949219 149.949219 -0.0507812 149.949219 C -0.0507812 99.949219 -0.0507812 49.949219 -0.0507812 -0.0507812 Z M -0.0507812 -0.0507812 "/>
<path style=" stroke:none;fill-rule:evenodd;fill:rgb(99.607843%,99.215686%,99.215686%);fill-opacity:1;" d="M 39.949219 12.648438 C 41.230469 12.472656 42.3125 12.835938 43.199219 13.75 C 43.445312 14.152344 43.613281 14.585938 43.699219 15.050781 C 43.792969 17.320312 43.761719 19.585938 43.601562 21.851562 C 43.335938 22.949219 42.652344 23.597656 41.550781 23.800781 C 40.851562 23.867188 40.148438 23.867188 39.449219 23.800781 C 38.296875 23.445312 37.644531 22.660156 37.5 21.449219 C 37.402344 19.144531 37.4375 16.84375 37.601562 14.550781 C 37.996094 13.429688 38.777344 12.796875 39.949219 12.648438 Z M 39.949219 12.648438 "/>
<path style=" stroke:none;fill-rule:evenodd;fill:rgb(99.607843%,99.607843%,99.607843%);fill-opacity:1;" d="M 14.148438 12.851562 C 15.582031 12.851562 17.015625 12.851562 18.449219 12.851562 C 18.449219 22.382812 18.449219 31.917969 18.449219 41.449219 C 16.648438 41.449219 14.851562 41.449219 13.050781 41.449219 C 13.050781 33.816406 13.050781 26.183594 13.050781 18.550781 C 11.660156 19.035156 10.277344 19.535156 8.898438 20.050781 C 8.832031 18.683594 8.832031 17.316406 8.898438 15.949219 C 10.820312 15.183594 12.570312 14.148438 14.148438 12.851562 Z M 14.148438 12.851562 "/>
<path style=" stroke:none;fill-rule:evenodd;fill:rgb(97.254902%,73.72549%,76.470588%);fill-opacity:1;" d="M 14.148438 12.851562 C 15.597656 12.75 17.066406 12.71875 18.550781 12.75 C 18.550781 22.351562 18.550781 31.949219 18.550781 41.550781 C 16.699219 41.582031 14.867188 41.550781 13.050781 41.449219 C 14.851562 41.449219 16.648438 41.449219 18.449219 41.449219 C 18.449219 31.917969 18.449219 22.382812 18.449219 12.851562 C 17.015625 12.851562 15.582031 12.851562 14.148438 12.851562 Z M 14.148438 12.851562 "/>
<path style=" stroke:none;fill-rule:evenodd;fill:rgb(99.607843%,99.607843%,99.607843%);fill-opacity:1;" d="M 34.449219 18.75 C 34.457031 18.804688 34.488281 18.835938 34.550781 18.851562 C 34.648438 16.851562 34.683594 14.851562 34.648438 12.851562 C 35.183594 12.851562 35.714844 12.851562 36.25 12.851562 C 36.25 16.484375 36.25 20.117188 36.25 23.75 C 35.785156 23.75 35.316406 23.75 34.851562 23.75 C 34.035156 21.640625 33.203125 19.542969 32.351562 17.449219 C 32.34375 17.394531 32.3125 17.363281 32.25 17.351562 C 32.148438 19.480469 32.117188 21.617188 32.148438 23.75 C 31.617188 23.75 31.082031 23.75 30.550781 23.75 C 30.550781 20.082031 30.550781 16.417969 30.550781 12.75 C 31.019531 12.71875 31.488281 12.75 31.949219 12.851562 C 32.8125 14.808594 33.644531 16.773438 34.449219 18.75 Z M 34.449219 18.75 "/>
<path style=" stroke:none;fill-rule:evenodd;fill:rgb(97.254902%,78.431373%,80.784314%);fill-opacity:1;" d="M 36.25 12.851562 C 35.714844 12.851562 35.183594 12.851562 34.648438 12.851562 C 34.683594 14.851562 34.648438 16.851562 34.550781 18.851562 C 34.488281 18.835938 34.457031 18.804688 34.449219 18.75 C 34.550781 16.765625 34.582031 14.765625 34.550781 12.75 C 35.136719 12.71875 35.703125 12.75 36.25 12.851562 Z M 36.25 12.851562 "/>
<path style=" stroke:none;fill-rule:evenodd;fill:rgb(90.196078%,18.039216%,25.098039%);fill-opacity:1;" d="M 40.148438 14.148438 C 41.070312 13.96875 41.585938 14.335938 41.699219 15.25 C 41.765625 17.25 41.765625 19.25 41.699219 21.25 C 41.488281 22.316406 40.871094 22.632812 39.851562 22.199219 C 39.691406 21.96875 39.578125 21.71875 39.5 21.449219 C 39.433594 19.351562 39.433594 17.25 39.5 15.148438 C 39.542969 14.695312 39.761719 14.359375 40.148438 14.148438 Z M 40.148438 14.148438 "/>
<path style=" stroke:none;fill-rule:evenodd;fill:rgb(97.647059%,78.823529%,81.176471%);fill-opacity:1;" d="M 32.351562 17.449219 C 32.285156 19.550781 32.214844 21.648438 32.148438 23.75 C 32.117188 21.617188 32.148438 19.480469 32.25 17.351562 C 32.3125 17.363281 32.34375 17.394531 32.351562 17.449219 Z M 32.351562 17.449219 "/>
<path style=" stroke:none;fill-rule:evenodd;fill:rgb(99.607843%,98.823529%,98.823529%);fill-opacity:1;" d="M 39.648438 30.550781 C 40.59375 30.457031 41.492188 30.605469 42.351562 31 C 43.058594 31.535156 43.476562 32.253906 43.601562 33.148438 C 43.691406 35.320312 43.65625 37.484375 43.5 39.648438 C 43.1875 40.933594 42.371094 41.648438 41.050781 41.800781 C 39.152344 42.128906 37.9375 41.378906 37.398438 39.550781 C 37.332031 37.285156 37.332031 35.015625 37.398438 32.75 C 37.679688 31.519531 38.429688 30.785156 39.648438 30.550781 Z M 39.648438 30.550781 "/>
<path style=" stroke:none;fill-rule:evenodd;fill:rgb(94.509804%,54.901961%,59.215686%);fill-opacity:1;" d="M 46.25 30.75 C 45.640625 30.6875 45.074219 30.753906 44.550781 30.949219 C 44.460938 30.878906 44.425781 30.777344 44.449219 30.648438 C 45.070312 30.617188 45.667969 30.652344 46.25 30.75 Z M 46.25 30.75 "/>
<path style=" stroke:none;fill-rule:evenodd;fill:rgb(94.509804%,54.901961%,59.215686%);fill-opacity:1;" d="M 49.050781 30.75 C 49.664062 30.652344 50.296875 30.617188 50.949219 30.648438 C 50.972656 30.777344 50.941406 30.878906 50.851562 30.949219 C 50.292969 30.753906 49.691406 30.6875 49.050781 30.75 Z M 49.050781 30.75 "/>
<path style=" stroke:none;fill-rule:evenodd;fill:rgb(94.901961%,56.862745%,61.176471%);fill-opacity:1;" d="M 74.550781 30.75 C 75.167969 30.617188 75.800781 30.617188 76.449219 30.75 C 76.4375 30.8125 76.40625 30.84375 76.351562 30.851562 C 75.769531 30.75 75.167969 30.71875 74.550781 30.75 Z M 74.550781 30.75 "/>
<path style=" stroke:none;fill-rule:evenodd;fill:rgb(92.941176%,40%,45.882353%);fill-opacity:1;" d="M 34.050781 30.75 C 32.882812 30.75 31.714844 30.75 30.550781 30.75 C 30.550781 34.382812 30.550781 38.015625 30.550781 41.648438 C 30.449219 38 30.417969 34.332031 30.449219 30.648438 C 31.667969 30.617188 32.867188 30.652344 34.050781 30.75 Z M 34.050781 30.75 "/>
<path style=" stroke:none;fill-rule:evenodd;fill:rgb(99.607843%,98.823529%,99.215686%);fill-opacity:1;" d="M 34.050781 30.75 C 35.300781 30.800781 36.085938 31.433594 36.398438 32.648438 C 36.929688 35.726562 35.644531 37.09375 32.550781 36.75 C 32.550781 38.382812 32.550781 40.015625 32.550781 41.648438 C 31.882812 41.648438 31.214844 41.648438 30.550781 41.648438 C 30.550781 38.015625 30.550781 34.382812 30.550781 30.75 C 31.714844 30.75 32.882812 30.75 34.050781 30.75 Z M 34.050781 30.75 "/>
<path style=" stroke:none;fill-rule:evenodd;fill:rgb(99.607843%,98.431373%,98.431373%);fill-opacity:1;" d="M 46.25 30.75 C 46.808594 33.1875 47.289062 35.65625 47.699219 38.148438 C 48.144531 35.679688 48.59375 33.214844 49.050781 30.75 C 49.691406 30.6875 50.292969 30.753906 50.851562 30.949219 C 50.152344 34.535156 49.417969 38.101562 48.648438 41.648438 C 47.972656 41.679688 47.308594 41.644531 46.648438 41.550781 C 45.949219 38.019531 45.25 34.484375 44.550781 30.949219 C 45.074219 30.753906 45.640625 30.6875 46.25 30.75 Z M 46.25 30.75 "/>
<path style=" stroke:none;fill-rule:evenodd;fill:rgb(99.607843%,99.607843%,99.607843%);fill-opacity:1;" d="M 51.949219 30.75 C 53.484375 30.75 55.015625 30.75 56.550781 30.75 C 56.550781 31.214844 56.550781 31.683594 56.550781 32.148438 C 55.683594 32.148438 54.816406 32.148438 53.949219 32.148438 C 53.949219 33.183594 53.949219 34.214844 53.949219 35.25 C 54.617188 35.25 55.285156 35.25 55.949219 35.25 C 55.949219 35.714844 55.949219 36.183594 55.949219 36.648438 C 55.285156 36.648438 54.617188 36.648438 53.949219 36.648438 C 53.949219 37.851562 53.949219 39.050781 53.949219 40.25 C 54.816406 40.25 55.683594 40.25 56.550781 40.25 C 56.550781 40.714844 56.550781 41.183594 56.550781 41.648438 C 55.015625 41.648438 53.484375 41.648438 51.949219 41.648438 C 51.949219 38.015625 51.949219 34.382812 51.949219 30.75 Z M 51.949219 30.75 "/>
<path style=" stroke:none;fill-rule:evenodd;fill:rgb(99.607843%,99.215686%,99.215686%);fill-opacity:1;" d="M 60.550781 36.75 C 60.269531 36.652344 59.972656 36.617188 59.648438 36.648438 C 59.648438 38.316406 59.648438 39.984375 59.648438 41.648438 C 58.984375 41.648438 58.316406 41.648438 57.648438 41.648438 C 57.648438 38.015625 57.648438 34.382812 57.648438 30.75 C 58.917969 30.734375 60.183594 30.75 61.449219 30.800781 C 62.613281 30.964844 63.332031 31.613281 63.601562 32.75 C 63.75 33.761719 63.617188 34.726562 63.199219 35.648438 C 62.945312 35.917969 62.660156 36.152344 62.351562 36.351562 C 62.898438 38.105469 63.398438 39.871094 63.851562 41.648438 C 63.179688 41.683594 62.511719 41.648438 61.851562 41.550781 C 61.414062 39.949219 60.984375 38.347656 60.550781 36.75 Z M 60.550781 36.75 "/>
<path style=" stroke:none;fill-rule:evenodd;fill:rgb(99.607843%,100%,99.607843%);fill-opacity:1;" d="M 69.949219 32.148438 C 69.351562 32.148438 68.75 32.148438 68.148438 32.148438 C 68.148438 35.316406 68.148438 38.484375 68.148438 41.648438 C 67.484375 41.648438 66.816406 41.648438 66.148438 41.648438 C 66.148438 38.484375 66.148438 35.316406 66.148438 32.148438 C 65.550781 32.148438 64.949219 32.148438 64.351562 32.148438 C 64.351562 31.683594 64.351562 31.214844 64.351562 30.75 C 66.214844 30.75 68.082031 30.75 69.949219 30.75 C 69.949219 31.214844 69.949219 31.683594 69.949219 32.148438 Z M 69.949219 32.148438 "/>
<path style=" stroke:none;fill-rule:evenodd;fill:rgb(99.607843%,98.823529%,98.823529%);fill-opacity:1;" d="M 74.550781 30.75 C 75.167969 30.71875 75.769531 30.75 76.351562 30.851562 C 75.648438 33.050781 74.949219 35.25 74.25 37.449219 C 74.152344 38.832031 74.117188 40.230469 74.148438 41.648438 C 73.515625 41.648438 72.882812 41.648438 72.25 41.648438 C 72.265625 40.183594 72.25 38.714844 72.199219 37.25 C 71.511719 35.074219 70.796875 32.90625 70.050781 30.75 C 70.683594 30.617188 71.316406 30.617188 71.949219 30.75 C 72.402344 32.15625 72.851562 33.554688 73.300781 34.949219 C 73.6875 33.539062 74.105469 32.136719 74.550781 30.75 Z M 74.550781 30.75 "/>
<path style=" stroke:none;fill-rule:evenodd;fill:rgb(89.803922%,15.294118%,23.529412%);fill-opacity:1;" d="M 32.550781 32.148438 C 33.097656 32.109375 33.628906 32.160156 34.148438 32.300781 C 34.5 32.675781 34.632812 33.125 34.550781 33.648438 C 34.664062 35.097656 34 35.664062 32.550781 35.351562 C 32.550781 34.285156 32.550781 33.214844 32.550781 32.148438 Z M 32.550781 32.148438 "/>
<path style=" stroke:none;fill-rule:evenodd;fill:rgb(89.803922%,14.901961%,23.529412%);fill-opacity:1;" d="M 40.050781 32.050781 C 40.71875 31.925781 41.203125 32.160156 41.5 32.75 C 41.566406 34.984375 41.566406 37.214844 41.5 39.449219 C 41.167969 40.324219 40.582031 40.542969 39.75 40.101562 C 39.566406 39.921875 39.453125 39.703125 39.398438 39.449219 C 39.332031 37.25 39.332031 35.050781 39.398438 32.851562 C 39.53125 32.503906 39.746094 32.238281 40.050781 32.050781 Z M 40.050781 32.050781 "/>
<path style=" stroke:none;fill-rule:evenodd;fill:rgb(92.941176%,40%,45.490196%);fill-opacity:1;" d="M 60.550781 32.148438 C 60.285156 32.148438 60.015625 32.148438 59.75 32.148438 C 59.75 33.214844 59.75 34.285156 59.75 35.351562 C 59.652344 34.269531 59.617188 33.167969 59.648438 32.050781 C 59.972656 32.019531 60.269531 32.050781 60.550781 32.148438 Z M 60.550781 32.148438 "/>
<path style=" stroke:none;fill-rule:evenodd;fill:rgb(89.803922%,14.901961%,23.529412%);fill-opacity:1;" d="M 60.550781 32.148438 C 61.136719 32.121094 61.519531 32.386719 61.699219 32.949219 C 62.105469 34.644531 61.457031 35.445312 59.75 35.351562 C 59.75 34.285156 59.75 33.214844 59.75 32.148438 C 60.015625 32.148438 60.285156 32.148438 60.550781 32.148438 Z M 60.550781 32.148438 "/>
<path style=" stroke:none;fill-rule:evenodd;fill:rgb(92.941176%,38.823529%,44.705882%);fill-opacity:1;" d="M 69.949219 32.148438 C 69.402344 32.25 68.835938 32.28125 68.25 32.25 C 68.28125 35.402344 68.25 38.535156 68.148438 41.648438 C 68.148438 38.484375 68.148438 35.316406 68.148438 32.148438 C 68.75 32.148438 69.351562 32.148438 69.949219 32.148438 Z M 69.949219 32.148438 "/>
<path style=" stroke:none;fill-rule:evenodd;fill:rgb(92.54902%,35.686275%,42.352941%);fill-opacity:1;" d="M 60.550781 36.75 C 60.285156 36.75 60.015625 36.75 59.75 36.75 C 59.78125 38.402344 59.75 40.035156 59.648438 41.648438 C 59.648438 39.984375 59.648438 38.316406 59.648438 36.648438 C 59.972656 36.617188 60.269531 36.652344 60.550781 36.75 Z M 60.550781 36.75 "/>
<path style=" stroke:none;fill-rule:evenodd;fill:rgb(92.54902%,35.686275%,41.960784%);fill-opacity:1;" d="M 46.648438 41.550781 C 47.308594 41.644531 47.972656 41.679688 48.648438 41.648438 C 48.335938 41.714844 48 41.75 47.648438 41.75 C 47.277344 41.75 46.941406 41.683594 46.648438 41.550781 Z M 46.648438 41.550781 "/>
<path style=" stroke:none;fill-rule:evenodd;fill:rgb(93.72549%,44.313725%,49.411765%);fill-opacity:1;" d="M 74.25 37.449219 C 74.25 38.882812 74.25 40.316406 74.25 41.75 C 73.566406 41.78125 72.898438 41.75 72.25 41.648438 C 72.882812 41.648438 73.515625 41.648438 74.148438 41.648438 C 74.117188 40.230469 74.152344 38.832031 74.25 37.449219 Z M 74.25 37.449219 "/>
<path style=" stroke:none;fill-rule:evenodd;fill:rgb(99.607843%,99.607843%,99.607843%);fill-opacity:1;" d="M 26.550781 67.351562 C 28.710938 67.019531 30.328125 67.785156 31.398438 69.648438 C 32.179688 71.730469 31.726562 73.480469 30.050781 74.898438 C 28.472656 75.859375 26.871094 75.890625 25.25 75 C 23.414062 73.5 22.960938 71.648438 23.898438 69.449219 C 24.535156 68.425781 25.417969 67.726562 26.550781 67.351562 Z M 26.550781 67.351562 "/>
<path style=" stroke:none;fill-rule:evenodd;fill:rgb(99.607843%,99.215686%,99.215686%);fill-opacity:1;" d="M 118.949219 67.351562 C 121.597656 67.03125 123.316406 68.128906 124.101562 70.648438 C 124.324219 73.222656 123.207031 74.875 120.75 75.601562 C 118.914062 75.878906 117.464844 75.261719 116.398438 73.75 C 115.285156 71.59375 115.636719 69.710938 117.449219 68.101562 C 117.933594 67.792969 118.433594 67.542969 118.949219 67.351562 Z M 118.949219 67.351562 "/>
<path style=" stroke:none;fill-rule:evenodd;fill:rgb(99.607843%,99.215686%,99.215686%);fill-opacity:1;" d="M 62.949219 69.648438 C 65.496094 69.796875 66.894531 71.128906 67.148438 73.648438 C 66.980469 76.171875 65.628906 77.503906 63.101562 77.648438 C 60.679688 77.414062 59.398438 76.082031 59.25 73.648438 C 59.449219 71.351562 60.679688 70.019531 62.949219 69.648438 Z M 62.949219 69.648438 "/>
<path style=" stroke:none;fill-rule:evenodd;fill:rgb(99.607843%,99.215686%,99.215686%);fill-opacity:1;" d="M 86.148438 69.75 C 88.460938 69.511719 90.011719 70.480469 90.800781 72.648438 C 91.1875 75.023438 90.273438 76.640625 88.050781 77.5 C 85.417969 77.96875 83.734375 76.917969 83 74.351562 C 82.839844 71.964844 83.890625 70.429688 86.148438 69.75 Z M 86.148438 69.75 "/>
<path style=" stroke:none;fill-rule:evenodd;fill:rgb(99.607843%,99.215686%,99.215686%);fill-opacity:1;" d="M 72.148438 102.449219 C 70.75 102.515625 69.351562 102.582031 67.949219 102.648438 C 67.964844 106.78125 67.949219 110.917969 67.898438 115.050781 C 67.25 116.597656 66.167969 117.015625 64.648438 116.300781 C 64.148438 115.945312 63.863281 115.460938 63.800781 114.851562 C 63.75 110.75 63.734375 106.648438 63.75 102.550781 C 63.382812 102.550781 63.015625 102.550781 62.648438 102.550781 C 62.667969 106.71875 62.648438 110.882812 62.601562 115.050781 C 61.953125 116.597656 60.867188 117.015625 59.351562 116.300781 C 58.90625 115.992188 58.625 115.574219 58.5 115.050781 C 58.449219 110.917969 58.433594 106.78125 58.449219 102.648438 C 57.03125 102.617188 55.628906 102.515625 54.25 102.351562 C 55.738281 96.808594 57.253906 91.273438 58.800781 85.75 C 58.863281 84.910156 58.5625 84.742188 57.898438 85.25 C 57.179688 87.753906 56.445312 90.253906 55.699219 92.75 C 55.445312 93.601562 55.144531 94.433594 54.800781 95.25 C 53.929688 96.160156 53.046875 96.175781 52.148438 95.300781 C 52.082031 95.234375 52.015625 95.234375 51.949219 95.300781 C 50.847656 97.355469 49.730469 99.40625 48.601562 101.449219 C 48.445312 102.074219 48.414062 102.707031 48.5 103.351562 C 49.070312 105.457031 49.652344 107.558594 50.25 109.648438 C 49.652344 109.75 49.054688 109.78125 48.449219 109.75 C 48.464844 111.683594 48.449219 113.617188 48.398438 115.550781 C 47.773438 116.691406 46.886719 116.941406 45.75 116.300781 C 45.476562 116.035156 45.292969 115.722656 45.199219 115.351562 C 45.148438 113.484375 45.132812 111.617188 45.148438 109.75 C 44.851562 109.75 44.550781 109.75 44.25 109.75 C 44.265625 111.648438 44.25 113.550781 44.199219 115.449219 C 43.667969 116.597656 42.816406 116.914062 41.648438 116.398438 C 41.34375 116.140625 41.128906 115.824219 41 115.449219 C 40.949219 113.550781 40.933594 111.648438 40.949219 109.75 C 40.382812 109.75 39.816406 109.75 39.25 109.75 C 39.75 107.605469 40.296875 105.472656 40.898438 103.351562 C 40.964844 102.78125 40.964844 102.21875 40.898438 101.648438 C 39.734375 99.515625 38.566406 97.382812 37.398438 95.25 C 36.671875 96.117188 35.820312 96.269531 34.851562 95.699219 C 34.636719 95.527344 34.488281 95.308594 34.398438 95.050781 C 34.269531 91.355469 34.203125 87.65625 34.199219 83.949219 C 33.945312 83.664062 33.628906 83.582031 33.25 83.699219 C 33.128906 83.789062 33.046875 83.90625 33 84.050781 C 32.964844 94.25 32.933594 104.449219 32.898438 114.648438 C 32.535156 116.074219 31.617188 116.722656 30.148438 116.601562 C 29.222656 116.34375 28.605469 115.761719 28.300781 114.851562 C 28.265625 108.816406 28.234375 102.78125 28.199219 96.75 C 27.800781 96.351562 27.398438 96.351562 27 96.75 C 27 102.855469 26.933594 108.953125 26.800781 115.050781 C 26.175781 116.351562 25.160156 116.835938 23.75 116.5 C 22.964844 116.113281 22.480469 115.496094 22.300781 114.648438 C 22.265625 104.449219 22.234375 94.25 22.199219 84.050781 C 21.996094 83.671875 21.679688 83.554688 21.25 83.699219 C 21.167969 83.785156 21.082031 83.867188 21 83.949219 C 20.964844 87.515625 20.933594 91.082031 20.898438 94.648438 C 20.789062 95.175781 20.503906 95.578125 20.050781 95.851562 C 18.726562 102.539062 17.441406 109.242188 16.199219 115.949219 C 16.160156 116.25 16.007812 116.464844 15.75 116.601562 C 15.007812 116.855469 14.574219 116.605469 14.449219 115.851562 C 15.640625 109.132812 16.910156 102.429688 18.25 95.75 C 17.964844 95.511719 17.78125 95.214844 17.699219 94.851562 C 17.632812 90.515625 17.632812 86.183594 17.699219 81.851562 C 18.222656 79.5625 19.605469 78.078125 21.851562 77.398438 C 25.511719 77.238281 29.179688 77.203125 32.851562 77.300781 C 35.359375 77.839844 36.90625 79.359375 37.5 81.851562 C 37.535156 85.882812 37.566406 89.917969 37.601562 93.949219 C 38.332031 93.367188 39 93.433594 39.601562 94.148438 C 40.207031 95.199219 40.839844 96.234375 41.5 97.25 C 41.738281 97.527344 42.023438 97.742188 42.351562 97.898438 C 43.988281 97.996094 45.625 97.960938 47.25 97.800781 C 47.496094 97.652344 47.710938 97.472656 47.898438 97.25 C 48.636719 96.089844 49.386719 94.941406 50.148438 93.800781 C 50.738281 93.4375 51.289062 93.488281 51.800781 93.949219 C 52.875 90.164062 54.007812 86.398438 55.199219 82.648438 C 55.761719 81.121094 56.8125 80.105469 58.351562 79.601562 C 61.582031 79.535156 64.816406 79.535156 68.050781 79.601562 C 69.589844 80.105469 70.636719 81.121094 71.199219 82.648438 C 72.300781 86.222656 73.402344 89.789062 74.5 93.351562 C 74.867188 95.082031 74.183594 95.929688 72.449219 95.898438 C 72.109375 95.761719 71.828125 95.542969 71.601562 95.25 C 71.355469 94.769531 71.15625 94.269531 71 93.75 C 70.207031 90.90625 69.375 88.070312 68.5 85.25 C 68.183594 84.859375 67.882812 84.859375 67.601562 85.25 C 67.601562 85.6875 67.667969 86.121094 67.800781 86.550781 C 69.269531 91.847656 70.71875 97.148438 72.148438 102.449219 Z M 72.148438 102.449219 "/>
<path style=" stroke:none;fill-rule:evenodd;fill:rgb(99.607843%,99.607843%,99.607843%);fill-opacity:1;" d="M 114.75 77.25 C 118.148438 77.234375 121.550781 77.25 124.949219 77.300781 C 126.742188 77.503906 128.125 78.355469 129.101562 79.851562 C 129.417969 80.382812 129.648438 80.949219 129.800781 81.550781 C 129.964844 85.980469 129.996094 90.414062 129.898438 94.851562 C 129.511719 95.835938 128.796875 96.21875 127.75 96 C 127.222656 95.773438 126.875 95.390625 126.699219 94.851562 C 126.667969 91.25 126.632812 87.648438 126.601562 84.050781 C 126.347656 83.679688 126 83.5625 125.550781 83.699219 C 125.453125 83.84375 125.371094 83.992188 125.300781 84.148438 C 125.265625 94.449219 125.234375 104.75 125.199219 115.050781 C 124.429688 116.519531 123.28125 116.933594 121.75 116.300781 C 121.191406 115.972656 120.84375 115.488281 120.699219 114.851562 C 120.667969 108.851562 120.632812 102.851562 120.601562 96.851562 C 120.554688 96.707031 120.46875 96.589844 120.351562 96.5 C 120.082031 96.433594 119.816406 96.433594 119.550781 96.5 C 119.429688 96.589844 119.347656 96.707031 119.300781 96.851562 C 119.265625 102.882812 119.234375 108.917969 119.199219 114.949219 C 118.628906 116.328125 117.609375 116.84375 116.148438 116.5 C 115.382812 116.199219 114.898438 115.648438 114.699219 114.851562 C 114.667969 104.617188 114.632812 94.382812 114.601562 84.148438 C 114.449219 83.679688 114.132812 83.527344 113.648438 83.699219 C 113.5 83.785156 113.382812 83.898438 113.300781 84.050781 C 113.265625 87.683594 113.234375 91.316406 113.199219 94.949219 C 112.570312 96.09375 111.6875 96.34375 110.550781 95.699219 C 110.386719 95.492188 110.238281 95.277344 110.101562 95.050781 C 110.003906 90.445312 110.035156 85.84375 110.199219 81.25 C 110.992188 79.074219 112.507812 77.742188 114.75 77.25 Z M 114.75 77.25 "/>
<path style=" stroke:none;fill-rule:evenodd;fill:rgb(99.607843%,99.607843%,99.607843%);fill-opacity:1;" d="M 95.949219 102.550781 C 94.515625 102.550781 93.082031 102.550781 91.648438 102.550781 C 91.648438 106.582031 91.648438 110.617188 91.648438 114.648438 C 91.34375 116.273438 90.375 116.886719 88.75 116.5 C 88.265625 116.28125 87.917969 115.933594 87.699219 115.449219 C 87.566406 111.1875 87.5 106.921875 87.5 102.648438 C 87.128906 102.554688 86.742188 102.519531 86.351562 102.550781 C 86.367188 106.71875 86.351562 110.882812 86.300781 115.050781 C 85.800781 116.390625 84.851562 116.875 83.449219 116.5 C 82.851562 116.234375 82.46875 115.785156 82.300781 115.148438 C 82.265625 110.984375 82.234375 106.816406 82.199219 102.648438 C 80.792969 102.550781 79.375 102.519531 77.949219 102.550781 C 79.472656 96.867188 81.003906 91.183594 82.550781 85.5 C 82.542969 85.023438 82.308594 84.859375 81.851562 85 C 81.730469 85.089844 81.648438 85.207031 81.601562 85.351562 C 80.640625 88.632812 79.640625 91.898438 78.601562 95.148438 C 77.855469 96.0625 77.007812 96.175781 76.050781 95.5 C 75.578125 94.894531 75.425781 94.214844 75.601562 93.449219 C 76.734375 89.78125 77.867188 86.117188 79 82.449219 C 79.632812 81.082031 80.652344 80.132812 82.050781 79.601562 C 85.25 79.535156 88.449219 79.535156 91.648438 79.601562 C 93.203125 80.054688 94.289062 81.039062 94.898438 82.550781 C 96.03125 86.214844 97.164062 89.878906 98.300781 93.550781 C 98.484375 95.332031 97.699219 96.082031 95.949219 95.800781 C 95.523438 95.472656 95.207031 95.058594 95 94.550781 C 94.085938 91.34375 93.101562 88.160156 92.050781 85 C 91.566406 84.867188 91.332031 85.050781 91.351562 85.550781 C 92.851562 91.222656 94.386719 96.890625 95.949219 102.550781 Z M 95.949219 102.550781 "/>
<path style=" stroke:none;fill-rule:evenodd;fill:rgb(99.607843%,99.215686%,99.215686%);fill-opacity:1;" d="M 44.050781 89.25 C 46.835938 89.21875 48.121094 90.585938 47.898438 93.351562 C 47.28125 95.265625 45.964844 96.082031 43.949219 95.800781 C 41.96875 95.125 41.152344 93.738281 41.5 91.648438 C 41.921875 90.378906 42.773438 89.578125 44.050781 89.25 Z M 44.050781 89.25 "/>
<path style=" stroke:none;fill-rule:evenodd;fill:rgb(99.607843%,99.215686%,99.215686%);fill-opacity:1;" d="M 103.550781 89.25 C 106.339844 89.21875 107.621094 90.585938 107.398438 93.351562 C 106.78125 95.265625 105.464844 96.082031 103.449219 95.800781 C 101.46875 95.121094 100.652344 93.738281 101 91.648438 C 101.421875 90.378906 102.273438 89.578125 103.550781 89.25 Z M 103.550781 89.25 "/>
<path style=" stroke:none;fill-rule:evenodd;fill:rgb(99.607843%,98.823529%,98.823529%);fill-opacity:1;" d="M 101.050781 97.148438 C 103.148438 97.132812 105.25 97.148438 107.351562 97.199219 C 108.460938 97.375 109.210938 97.992188 109.601562 99.050781 C 110.40625 101.242188 111.273438 103.40625 112.199219 105.550781 C 112.277344 106.910156 111.675781 107.410156 110.398438 107.050781 C 109.6875 105.140625 108.953125 103.238281 108.199219 101.351562 C 108.167969 105.984375 108.132812 110.617188 108.101562 115.25 C 107.625 116.578125 106.742188 116.960938 105.449219 116.398438 C 105.15625 116.175781 104.941406 115.890625 104.800781 115.550781 C 104.671875 113.421875 104.601562 111.289062 104.601562 109.148438 C 104.332031 108.882812 104.066406 108.882812 103.800781 109.148438 C 103.765625 111.148438 103.734375 113.148438 103.699219 115.148438 C 103.28125 116.550781 102.398438 116.96875 101.050781 116.398438 C 100.757812 116.175781 100.539062 115.890625 100.398438 115.550781 C 100.285156 110.820312 100.199219 106.089844 100.148438 101.351562 C 99.933594 101.644531 99.785156 101.976562 99.699219 102.351562 C 99.230469 103.992188 98.730469 105.625 98.199219 107.25 C 97.683594 107.808594 97.101562 107.890625 96.449219 107.5 C 96.074219 106.902344 96.058594 106.285156 96.398438 105.648438 C 97.113281 103.808594 97.847656 101.976562 98.601562 100.148438 C 98.992188 99.128906 99.574219 98.246094 100.351562 97.5 C 100.59375 97.378906 100.824219 97.261719 101.050781 97.148438 Z M 101.050781 97.148438 "/>
<path style=" stroke:none;fill-rule:evenodd;fill:rgb(94.509804%,56.862745%,61.176471%);fill-opacity:1;" d="M 54.25 102.351562 C 55.628906 102.515625 57.03125 102.617188 58.449219 102.648438 C 57.015625 102.648438 55.582031 102.648438 54.148438 102.648438 C 54.125 102.519531 54.160156 102.421875 54.25 102.351562 Z M 54.25 102.351562 "/>
<path style=" stroke:none;fill-rule:evenodd;fill:rgb(94.509804%,56.862745%,61.176471%);fill-opacity:1;" d="M 72.148438 102.449219 C 72.203125 102.457031 72.238281 102.488281 72.25 102.550781 C 70.816406 102.648438 69.386719 102.683594 67.949219 102.648438 C 69.351562 102.582031 70.75 102.515625 72.148438 102.449219 Z M 72.148438 102.449219 "/>
<path style=" stroke:none;fill-rule:evenodd;fill:rgb(92.941176%,40.392157%,46.27451%);fill-opacity:1;" d="M 95.949219 102.550781 C 94.566406 102.648438 93.167969 102.683594 91.75 102.648438 C 91.78125 106.667969 91.75 110.667969 91.648438 114.648438 C 91.648438 110.617188 91.648438 106.582031 91.648438 102.550781 C 93.082031 102.550781 94.515625 102.550781 95.949219 102.550781 Z M 95.949219 102.550781 "/>
</g>
</svg>
