<?xml version="1.0" encoding="UTF-8"?>
<svg xmlns="http://www.w3.org/2000/svg" xmlns:xlink="http://www.w3.org/1999/xlink" width="150px" height="150px" viewBox="0 0 150 150" version="1.1">
<g id="surface1">
<path style=" stroke:none;fill-rule:evenodd;fill:rgb(86.666667%,7.45098%,40.392157%);fill-opacity:1;" d="M -0.0507812 -0.0507812 C 49.949219 -0.0507812 99.949219 -0.0507812 149.949219 -0.0507812 C 149.949219 49.949219 149.949219 99.949219 149.949219 149.949219 C 99.949219 149.949219 49.949219 149.949219 -0.0507812 149.949219 C -0.0507812 99.949219 -0.0507812 49.949219 -0.0507812 -0.0507812 Z M -0.0507812 -0.0507812 "/>
<path style=" stroke:none;fill-rule:evenodd;fill:rgb(99.607843%,99.607843%,99.607843%);fill-opacity:1;" d="M 27.25 12.449219 C 29.148438 12.257812 30.980469 12.507812 32.75 13.199219 C 34.886719 14.511719 36.105469 16.425781 36.398438 18.949219 C 36.464844 24.382812 36.464844 29.816406 36.398438 35.25 C 36.105469 38.199219 34.621094 40.28125 31.949219 41.5 C 30.207031 41.976562 28.441406 42.078125 26.648438 41.800781 C 23.730469 41.011719 21.980469 39.128906 21.398438 36.148438 C 21.304688 35.6875 21.238281 35.222656 21.199219 34.75 C 21.132812 29.648438 21.132812 24.550781 21.199219 19.449219 C 21.347656 17.433594 22.097656 15.683594 23.449219 14.199219 C 24.5625 13.261719 25.828125 12.675781 27.25 12.449219 Z M 27.25 12.449219 "/>
<path style=" stroke:none;fill-rule:evenodd;fill:rgb(99.607843%,98.823529%,99.215686%);fill-opacity:1;" d="M 80.648438 15.148438 C 80.648438 15.683594 80.648438 16.214844 80.648438 16.75 C 80.015625 16.75 79.382812 16.75 78.75 16.75 C 78.792969 16.003906 78.742188 15.273438 78.601562 14.550781 C 78.179688 14.128906 77.695312 14.046875 77.148438 14.300781 C 76.917969 14.464844 76.769531 14.679688 76.699219 14.949219 C 76.632812 17.117188 76.632812 19.285156 76.699219 21.449219 C 76.890625 22.289062 77.40625 22.570312 78.25 22.300781 C 78.398438 22.214844 78.515625 22.101562 78.601562 21.949219 C 78.742188 21.195312 78.792969 20.429688 78.75 19.648438 C 79.417969 19.648438 80.082031 19.648438 80.75 19.648438 C 80.996094 23.253906 79.394531 24.539062 75.949219 23.5 C 75.238281 22.960938 74.820312 22.242188 74.699219 21.351562 C 74.632812 19.25 74.632812 17.148438 74.699219 15.050781 C 75.171875 13.152344 76.390625 12.371094 78.351562 12.699219 C 79.785156 12.886719 80.554688 13.703125 80.648438 15.148438 Z M 80.648438 15.148438 "/>
<path style=" stroke:none;fill-rule:evenodd;fill:rgb(99.607843%,99.607843%,99.607843%);fill-opacity:1;" d="M 8.851562 19.949219 C 8.75 18.632812 8.71875 17.300781 8.75 15.949219 C 10.625 15.164062 12.359375 14.144531 13.949219 12.898438 C 15.417969 12.851562 16.882812 12.832031 18.351562 12.851562 C 18.351562 22.382812 18.351562 31.917969 18.351562 41.449219 C 16.515625 41.449219 14.683594 41.449219 12.851562 41.449219 C 12.882812 33.816406 12.851562 26.183594 12.75 18.550781 C 11.464844 19.058594 10.164062 19.523438 8.851562 19.949219 Z M 8.851562 19.949219 "/>
<path style=" stroke:none;fill-rule:evenodd;fill:rgb(93.72549%,57.254902%,72.156863%);fill-opacity:1;" d="M 51.050781 12.851562 C 49.984375 12.851562 48.917969 12.851562 47.851562 12.851562 C 47.851562 16.484375 47.851562 20.117188 47.851562 23.75 C 47.75 20.101562 47.71875 16.433594 47.75 12.75 C 48.867188 12.71875 49.96875 12.75 51.050781 12.851562 Z M 51.050781 12.851562 "/>
<path style=" stroke:none;fill-rule:evenodd;fill:rgb(99.607843%,99.215686%,99.215686%);fill-opacity:1;" d="M 51.050781 12.851562 C 52.378906 12.820312 53.261719 13.421875 53.699219 14.648438 C 53.785156 15.488281 53.753906 16.324219 53.601562 17.148438 C 53.542969 17.371094 53.445312 17.574219 53.300781 17.75 C 53.03125 17.992188 52.78125 18.242188 52.550781 18.5 C 53.039062 20.246094 53.507812 21.996094 53.949219 23.75 C 53.285156 23.75 52.617188 23.75 51.949219 23.75 C 51.582031 22.105469 51.164062 20.472656 50.699219 18.851562 C 50.429688 18.753906 50.144531 18.722656 49.851562 18.75 C 49.851562 20.417969 49.851562 22.082031 49.851562 23.75 C 49.183594 23.75 48.515625 23.75 47.851562 23.75 C 47.851562 20.117188 47.851562 16.484375 47.851562 12.851562 C 48.917969 12.851562 49.984375 12.851562 51.050781 12.851562 Z M 51.050781 12.851562 "/>
<path style=" stroke:none;fill-rule:evenodd;fill:rgb(99.607843%,99.215686%,99.215686%);fill-opacity:1;" d="M 59.050781 18.75 C 58.351562 18.75 57.648438 18.75 56.949219 18.75 C 56.949219 19.949219 56.949219 21.148438 56.949219 22.351562 C 57.796875 22.449219 58.664062 22.484375 59.550781 22.449219 C 59.550781 22.882812 59.550781 23.316406 59.550781 23.75 C 58.015625 23.75 56.484375 23.75 54.949219 23.75 C 54.949219 20.082031 54.949219 16.417969 54.949219 12.75 C 56.484375 12.75 58.015625 12.75 59.550781 12.75 C 59.550781 13.25 59.550781 13.75 59.550781 14.25 C 58.683594 14.25 57.816406 14.25 56.949219 14.25 C 56.949219 15.285156 56.949219 16.316406 56.949219 17.351562 C 57.648438 17.351562 58.351562 17.351562 59.050781 17.351562 C 59.050781 17.816406 59.050781 18.285156 59.050781 18.75 Z M 59.050781 18.75 "/>
<path style=" stroke:none;fill-rule:evenodd;fill:rgb(96.470588%,76.470588%,84.705882%);fill-opacity:1;" d="M 63.648438 12.851562 C 62.582031 12.851562 61.515625 12.851562 60.449219 12.851562 C 60.449219 16.484375 60.449219 20.117188 60.449219 23.75 C 60.351562 20.101562 60.316406 16.433594 60.351562 12.75 C 61.46875 12.71875 62.566406 12.75 63.648438 12.851562 Z M 63.648438 12.851562 "/>
<path style=" stroke:none;fill-rule:evenodd;fill:rgb(99.607843%,99.215686%,99.215686%);fill-opacity:1;" d="M 63.648438 12.851562 C 65.328125 12.910156 66.242188 13.777344 66.398438 15.449219 C 66.492188 17.488281 66.460938 19.519531 66.300781 21.550781 C 66.027344 22.824219 65.242188 23.539062 63.949219 23.699219 C 62.785156 23.75 61.617188 23.765625 60.449219 23.75 C 60.449219 20.117188 60.449219 16.484375 60.449219 12.851562 C 61.515625 12.851562 62.582031 12.851562 63.648438 12.851562 Z M 63.648438 12.851562 "/>
<path style=" stroke:none;fill-rule:evenodd;fill:rgb(99.607843%,99.607843%,99.607843%);fill-opacity:1;" d="M 71.648438 12.851562 C 72.285156 12.851562 72.917969 12.851562 73.550781 12.851562 C 73.550781 15.515625 73.550781 18.183594 73.550781 20.851562 C 73.554688 21.785156 73.253906 22.601562 72.648438 23.300781 C 72.320312 23.542969 71.953125 23.710938 71.550781 23.800781 C 70.851562 23.867188 70.148438 23.867188 69.449219 23.800781 C 68.199219 23.417969 67.550781 22.566406 67.5 21.25 C 67.449219 18.417969 67.433594 15.582031 67.449219 12.75 C 68.082031 12.75 68.714844 12.75 69.351562 12.75 C 69.332031 15.550781 69.351562 18.351562 69.398438 21.148438 C 69.496094 22.105469 70.011719 22.488281 70.949219 22.300781 C 71.390625 22.050781 71.605469 21.667969 71.601562 21.148438 C 71.648438 18.382812 71.667969 15.617188 71.648438 12.851562 Z M 71.648438 12.851562 "/>
<path style=" stroke:none;fill-rule:evenodd;fill:rgb(96.470588%,75.294118%,83.921569%);fill-opacity:1;" d="M 71.648438 12.851562 C 72.296875 12.75 72.964844 12.71875 73.648438 12.75 C 73.683594 15.46875 73.648438 18.167969 73.550781 20.851562 C 73.550781 18.183594 73.550781 15.515625 73.550781 12.851562 C 72.917969 12.851562 72.285156 12.851562 71.648438 12.851562 Z M 71.648438 12.851562 "/>
<path style=" stroke:none;fill-rule:evenodd;fill:rgb(99.607843%,99.215686%,99.215686%);fill-opacity:1;" d="M 81.75 12.75 C 83.285156 12.75 84.816406 12.75 86.351562 12.75 C 86.351562 13.25 86.351562 13.75 86.351562 14.25 C 85.484375 14.25 84.617188 14.25 83.75 14.25 C 83.75 15.285156 83.75 16.316406 83.75 17.351562 C 84.417969 17.351562 85.082031 17.351562 85.75 17.351562 C 85.75 17.816406 85.75 18.285156 85.75 18.75 C 85.082031 18.75 84.417969 18.75 83.75 18.75 C 83.75 19.949219 83.75 21.148438 83.75 22.351562 C 84.617188 22.351562 85.484375 22.351562 86.351562 22.351562 C 86.351562 22.816406 86.351562 23.285156 86.351562 23.75 C 84.816406 23.75 83.285156 23.75 81.75 23.75 C 81.75 20.082031 81.75 16.417969 81.75 12.75 Z M 81.75 12.75 "/>
<path style=" stroke:none;fill-rule:evenodd;fill:rgb(99.607843%,99.215686%,99.607843%);fill-opacity:1;" d="M 87.148438 12.75 C 88.25 12.734375 89.351562 12.75 90.449219 12.800781 C 91.890625 12.84375 92.773438 13.558594 93.101562 14.949219 C 93.167969 17.082031 93.167969 19.214844 93.101562 21.351562 C 92.929688 22.6875 92.179688 23.472656 90.851562 23.699219 C 89.617188 23.75 88.382812 23.765625 87.148438 23.75 C 87.148438 20.082031 87.148438 16.417969 87.148438 12.75 Z M 87.148438 12.75 "/>
<path style=" stroke:none;fill-rule:evenodd;fill:rgb(87.058824%,11.372549%,41.568627%);fill-opacity:1;" d="M 49.851562 14.148438 C 51.640625 14.058594 52.289062 14.890625 51.800781 16.648438 C 51.660156 17.121094 51.34375 17.371094 50.851562 17.398438 C 50.519531 17.449219 50.183594 17.464844 49.851562 17.449219 C 49.851562 16.351562 49.851562 15.25 49.851562 14.148438 Z M 49.851562 14.148438 "/>
<path style=" stroke:none;fill-rule:evenodd;fill:rgb(87.058824%,12.941176%,41.960784%);fill-opacity:1;" d="M 62.351562 14.25 C 62.75 14.234375 63.152344 14.25 63.550781 14.300781 C 63.820312 14.367188 64.035156 14.519531 64.199219 14.75 C 64.316406 15.875 64.363281 17.007812 64.351562 18.148438 C 64.363281 19.355469 64.3125 20.554688 64.199219 21.75 C 64.117188 21.964844 63.964844 22.117188 63.75 22.199219 C 63.292969 22.324219 62.824219 22.371094 62.351562 22.351562 C 62.351562 19.648438 62.351562 16.949219 62.351562 14.25 Z M 62.351562 14.25 "/>
<path style=" stroke:none;fill-rule:evenodd;fill:rgb(86.666667%,10.980392%,41.568627%);fill-opacity:1;" d="M 89.148438 14.25 C 89.585938 14.234375 90.019531 14.25 90.449219 14.300781 C 90.664062 14.414062 90.84375 14.5625 91 14.75 C 91.113281 15.910156 91.164062 17.078125 91.148438 18.25 C 91.132812 19.316406 91.117188 20.382812 91.101562 21.449219 C 91 21.769531 90.816406 22.019531 90.550781 22.199219 C 90.09375 22.332031 89.625 22.382812 89.148438 22.351562 C 89.148438 19.648438 89.148438 16.949219 89.148438 14.25 Z M 89.148438 14.25 "/>
<path style=" stroke:none;fill-rule:evenodd;fill:rgb(96.470588%,76.470588%,84.705882%);fill-opacity:1;" d="M 8.75 15.949219 C 8.71875 17.300781 8.75 18.632812 8.851562 19.949219 C 8.84375 20.003906 8.8125 20.039062 8.75 20.050781 C 8.617188 18.667969 8.617188 17.300781 8.75 15.949219 Z M 8.75 15.949219 "/>
<path style=" stroke:none;fill-rule:evenodd;fill:rgb(94.117647%,58.823529%,72.941176%);fill-opacity:1;" d="M 80.648438 15.148438 C 80.75 15.699219 80.78125 16.265625 80.75 16.851562 C 80.066406 16.882812 79.398438 16.847656 78.75 16.75 C 79.382812 16.75 80.015625 16.75 80.648438 16.75 C 80.648438 16.214844 80.648438 15.683594 80.648438 15.148438 Z M 80.648438 15.148438 "/>
<path style=" stroke:none;fill-rule:evenodd;fill:rgb(86.666667%,8.627451%,40.784314%);fill-opacity:1;" d="M 28.25 17.25 C 29.351562 17.058594 30.132812 17.457031 30.601562 18.449219 C 30.765625 18.972656 30.863281 19.503906 30.898438 20.050781 C 30.964844 24.917969 30.964844 29.785156 30.898438 34.648438 C 30.820312 35.289062 30.621094 35.890625 30.300781 36.449219 C 29.429688 37.304688 28.496094 37.371094 27.5 36.648438 C 27.089844 36.050781 26.855469 35.382812 26.800781 34.648438 C 26.734375 29.582031 26.734375 24.515625 26.800781 19.449219 C 26.863281 18.417969 27.347656 17.683594 28.25 17.25 Z M 28.25 17.25 "/>
<path style=" stroke:none;fill-rule:evenodd;fill:rgb(90.196078%,30.588235%,55.294118%);fill-opacity:1;" d="M 59.050781 18.75 C 58.402344 18.847656 57.734375 18.882812 57.050781 18.851562 C 57.050781 20.015625 57.050781 21.183594 57.050781 22.351562 C 57.015625 22.351562 56.984375 22.351562 56.949219 22.351562 C 56.949219 21.148438 56.949219 19.949219 56.949219 18.75 C 57.648438 18.75 58.351562 18.75 59.050781 18.75 Z M 59.050781 18.75 "/>
<path style=" stroke:none;fill-rule:evenodd;fill:rgb(96.078431%,70.980392%,80.784314%);fill-opacity:1;" d="M 56.949219 22.351562 C 56.984375 22.351562 57.015625 22.351562 57.050781 22.351562 C 57.917969 22.351562 58.785156 22.351562 59.648438 22.351562 C 59.683594 22.835938 59.648438 23.304688 59.550781 23.75 C 59.550781 23.316406 59.550781 22.882812 59.550781 22.449219 C 58.664062 22.484375 57.796875 22.449219 56.949219 22.351562 Z M 56.949219 22.351562 "/>
<path style=" stroke:none;fill-rule:evenodd;fill:rgb(99.607843%,99.215686%,99.215686%);fill-opacity:1;" d="M 65.75 30.550781 C 66.832031 30.421875 67.832031 30.636719 68.75 31.199219 C 69.292969 31.773438 69.609375 32.457031 69.699219 33.25 C 69.765625 35.214844 69.765625 37.183594 69.699219 39.148438 C 69.582031 40.167969 69.097656 40.949219 68.25 41.5 C 68.554688 41.902344 68.886719 42.269531 69.25 42.601562 C 69.148438 43.027344 69.011719 43.445312 68.851562 43.851562 C 68.035156 43.351562 67.367188 42.703125 66.851562 41.898438 C 64.988281 41.996094 63.871094 41.148438 63.5 39.351562 C 63.402344 37.046875 63.4375 34.746094 63.601562 32.449219 C 63.980469 31.433594 64.699219 30.800781 65.75 30.550781 Z M 65.75 30.550781 "/>
<path style=" stroke:none;fill-rule:evenodd;fill:rgb(99.607843%,98.823529%,99.215686%);fill-opacity:1;" d="M 109.648438 30.550781 C 111.800781 30.398438 112.898438 31.398438 112.949219 33.550781 C 112.390625 33.683594 111.824219 33.78125 111.25 33.851562 C 111.304688 33.308594 111.1875 32.808594 110.898438 32.351562 C 110.222656 31.910156 109.6875 32.042969 109.300781 32.75 C 109.210938 33.207031 109.277344 33.640625 109.5 34.050781 C 110.398438 34.882812 111.300781 35.714844 112.199219 36.550781 C 113.261719 37.839844 113.425781 39.242188 112.699219 40.75 C 111.605469 41.90625 110.320312 42.15625 108.851562 41.5 C 107.832031 40.75 107.332031 39.734375 107.351562 38.449219 C 107.941406 38.308594 108.542969 38.207031 109.148438 38.148438 C 109.113281 38.796875 109.261719 39.398438 109.601562 39.949219 C 110.578125 40.550781 111.128906 40.285156 111.25 39.148438 C 111.195312 38.578125 110.980469 38.078125 110.601562 37.648438 C 109.738281 36.953125 108.902344 36.21875 108.101562 35.449219 C 107.234375 34.246094 107.136719 32.980469 107.800781 31.648438 C 108.308594 31.085938 108.925781 30.71875 109.648438 30.550781 Z M 109.648438 30.550781 "/>
<path style=" stroke:none;fill-rule:evenodd;fill:rgb(99.607843%,100%,99.607843%);fill-opacity:1;" d="M 47.851562 30.75 C 48.515625 30.75 49.183594 30.75 49.851562 30.75 C 49.851562 34.382812 49.851562 38.015625 49.851562 41.648438 C 49.183594 41.648438 48.515625 41.648438 47.851562 41.648438 C 47.851562 38.015625 47.851562 34.382812 47.851562 30.75 Z M 47.851562 30.75 "/>
<path style=" stroke:none;fill-rule:evenodd;fill:rgb(99.607843%,99.607843%,99.607843%);fill-opacity:1;" d="M 53.050781 35.648438 C 53.054688 35.523438 53.003906 35.425781 52.898438 35.351562 C 52.851562 37.449219 52.832031 39.550781 52.851562 41.648438 C 52.285156 41.648438 51.714844 41.648438 51.148438 41.648438 C 51.148438 38.015625 51.148438 34.382812 51.148438 30.75 C 51.644531 30.71875 52.125 30.753906 52.601562 30.851562 C 53.445312 32.824219 54.3125 34.792969 55.199219 36.75 C 55.25 34.75 55.265625 32.75 55.25 30.75 C 55.785156 30.75 56.316406 30.75 56.851562 30.75 C 56.851562 34.382812 56.851562 38.015625 56.851562 41.648438 C 56.390625 41.679688 55.941406 41.648438 55.5 41.550781 C 54.691406 39.578125 53.875 37.609375 53.050781 35.648438 Z M 53.050781 35.648438 "/>
<path style=" stroke:none;fill-rule:evenodd;fill:rgb(99.607843%,99.607843%,99.607843%);fill-opacity:1;" d="M 62.25 36.648438 C 61.550781 36.648438 60.851562 36.648438 60.148438 36.648438 C 60.148438 37.851562 60.148438 39.050781 60.148438 40.25 C 61 40.347656 61.863281 40.382812 62.75 40.351562 C 62.75 40.785156 62.75 41.214844 62.75 41.648438 C 61.214844 41.648438 59.683594 41.648438 58.148438 41.648438 C 58.148438 38.015625 58.148438 34.382812 58.148438 30.75 C 59.683594 30.75 61.214844 30.75 62.75 30.75 C 62.75 31.214844 62.75 31.683594 62.75 32.148438 C 61.882812 32.148438 61.015625 32.148438 60.148438 32.148438 C 60.148438 33.183594 60.148438 34.214844 60.148438 35.25 C 60.851562 35.25 61.550781 35.25 62.25 35.25 C 62.25 35.714844 62.25 36.183594 62.25 36.648438 Z M 62.25 36.648438 "/>
<path style=" stroke:none;fill-rule:evenodd;fill:rgb(99.607843%,99.607843%,99.607843%);fill-opacity:1;" d="M 74.949219 38.648438 C 75.050781 36.035156 75.082031 33.402344 75.050781 30.75 C 75.648438 30.75 76.25 30.75 76.851562 30.75 C 76.851562 33.382812 76.851562 36.015625 76.851562 38.648438 C 76.824219 41.023438 75.625 42.074219 73.25 41.800781 C 71.652344 41.535156 70.835938 40.585938 70.800781 38.949219 C 70.75 36.21875 70.734375 33.484375 70.75 30.75 C 71.382812 30.75 72.015625 30.75 72.648438 30.75 C 72.605469 33.652344 72.65625 36.554688 72.800781 39.449219 C 73.054688 40.207031 73.570312 40.457031 74.351562 40.199219 C 74.816406 39.789062 75.015625 39.273438 74.949219 38.648438 Z M 74.949219 38.648438 "/>
<path style=" stroke:none;fill-rule:evenodd;fill:rgb(96.470588%,74.117647%,83.137255%);fill-opacity:1;" d="M 76.851562 38.648438 C 76.851562 36.015625 76.851562 33.382812 76.851562 30.75 C 76.25 30.75 75.648438 30.75 75.050781 30.75 C 75.082031 33.402344 75.050781 36.035156 74.949219 38.648438 C 74.949219 35.984375 74.949219 33.316406 74.949219 30.648438 C 75.617188 30.648438 76.285156 30.648438 76.949219 30.648438 C 76.984375 33.332031 76.949219 36 76.851562 38.648438 Z M 76.851562 38.648438 "/>
<path style=" stroke:none;fill-rule:evenodd;fill:rgb(99.607843%,98.823529%,99.215686%);fill-opacity:1;" d="M 79.75 30.75 C 80.484375 30.75 81.214844 30.75 81.949219 30.75 C 82.613281 34.390625 83.3125 38.023438 84.050781 41.648438 C 83.425781 41.679688 82.808594 41.648438 82.199219 41.550781 C 82.066406 40.761719 81.914062 39.976562 81.75 39.199219 C 81.117188 39.148438 80.484375 39.132812 79.851562 39.148438 C 79.742188 39.988281 79.609375 40.820312 79.449219 41.648438 C 78.8125 41.683594 78.179688 41.648438 77.550781 41.550781 C 78.320312 37.957031 79.054688 34.359375 79.75 30.75 Z M 79.75 30.75 "/>
<path style=" stroke:none;fill-rule:evenodd;fill:rgb(99.607843%,99.607843%,99.607843%);fill-opacity:1;" d="M 84.851562 30.75 C 85.484375 30.75 86.117188 30.75 86.75 30.75 C 86.71875 33.933594 86.75 37.101562 86.851562 40.25 C 87.714844 40.25 88.582031 40.25 89.449219 40.25 C 89.449219 40.714844 89.449219 41.183594 89.449219 41.648438 C 87.917969 41.648438 86.382812 41.648438 84.851562 41.648438 C 84.851562 38.015625 84.851562 34.382812 84.851562 30.75 Z M 84.851562 30.75 "/>
<path style=" stroke:none;fill-rule:evenodd;fill:rgb(96.470588%,73.72549%,82.745098%);fill-opacity:1;" d="M 84.851562 30.75 C 85.496094 30.652344 86.164062 30.617188 86.851562 30.648438 C 86.851562 33.851562 86.851562 37.050781 86.851562 40.25 C 86.75 37.101562 86.71875 33.933594 86.75 30.75 C 86.117188 30.75 85.484375 30.75 84.851562 30.75 Z M 84.851562 30.75 "/>
<path style=" stroke:none;fill-rule:evenodd;fill:rgb(96.470588%,73.72549%,82.745098%);fill-opacity:1;" d="M 92.148438 30.75 C 91.515625 30.75 90.882812 30.75 90.25 30.75 C 90.25 34.382812 90.25 38.015625 90.25 41.648438 C 90.148438 38 90.117188 34.332031 90.148438 30.648438 C 90.835938 30.617188 91.503906 30.652344 92.148438 30.75 Z M 92.148438 30.75 "/>
<path style=" stroke:none;fill-rule:evenodd;fill:rgb(99.607843%,100%,99.607843%);fill-opacity:1;" d="M 92.148438 30.75 C 92.148438 34.382812 92.148438 38.015625 92.148438 41.648438 C 91.515625 41.648438 90.882812 41.648438 90.25 41.648438 C 90.25 38.015625 90.25 34.382812 90.25 30.75 C 90.882812 30.75 91.515625 30.75 92.148438 30.75 Z M 92.148438 30.75 "/>
<path style=" stroke:none;fill-rule:evenodd;fill:rgb(99.607843%,100%,99.607843%);fill-opacity:1;" d="M 98.351562 32.148438 C 97.75 32.148438 97.148438 32.148438 96.550781 32.148438 C 96.550781 35.316406 96.550781 38.484375 96.550781 41.648438 C 95.882812 41.648438 95.214844 41.648438 94.550781 41.648438 C 94.550781 38.484375 94.550781 35.316406 94.550781 32.148438 C 93.949219 32.148438 93.351562 32.148438 92.75 32.148438 C 92.75 31.683594 92.75 31.214844 92.75 30.75 C 94.617188 30.75 96.484375 30.75 98.351562 30.75 C 98.351562 31.214844 98.351562 31.683594 98.351562 32.148438 Z M 98.351562 32.148438 "/>
<path style=" stroke:none;fill-rule:evenodd;fill:rgb(99.607843%,100%,99.607843%);fill-opacity:1;" d="M 98.949219 30.75 C 99.582031 30.75 100.21875 30.75 100.851562 30.75 C 100.851562 34.382812 100.851562 38.015625 100.851562 41.648438 C 100.21875 41.648438 99.582031 41.648438 98.949219 41.648438 C 98.949219 38.015625 98.949219 34.382812 98.949219 30.75 Z M 98.949219 30.75 "/>
<path style=" stroke:none;fill-rule:evenodd;fill:rgb(99.607843%,99.607843%,99.607843%);fill-opacity:1;" d="M 102.25 30.75 C 103.75 30.75 105.25 30.75 106.75 30.75 C 106.75 31.183594 106.75 31.617188 106.75 32.050781 C 105.898438 32.015625 105.066406 32.050781 104.25 32.148438 C 104.25 33.183594 104.25 34.214844 104.25 35.25 C 104.917969 35.25 105.582031 35.25 106.25 35.25 C 106.25 35.714844 106.25 36.183594 106.25 36.648438 C 105.582031 36.648438 104.917969 36.648438 104.25 36.648438 C 104.25 37.851562 104.25 39.050781 104.25 40.25 C 105.117188 40.25 105.984375 40.25 106.851562 40.25 C 106.851562 40.714844 106.851562 41.183594 106.851562 41.648438 C 105.316406 41.648438 103.78125 41.648438 102.25 41.648438 C 102.25 38.015625 102.25 34.382812 102.25 30.75 Z M 102.25 30.75 "/>
<path style=" stroke:none;fill-rule:evenodd;fill:rgb(95.686275%,68.627451%,79.607843%);fill-opacity:1;" d="M 102.25 30.75 C 103.765625 30.652344 105.300781 30.617188 106.851562 30.648438 C 106.851562 31.148438 106.851562 31.648438 106.851562 32.148438 C 105.984375 32.148438 105.117188 32.148438 104.25 32.148438 C 105.066406 32.050781 105.898438 32.015625 106.75 32.050781 C 106.75 31.617188 106.75 31.183594 106.75 30.75 C 105.25 30.75 103.75 30.75 102.25 30.75 Z M 102.25 30.75 "/>
<path style=" stroke:none;fill-rule:evenodd;fill:rgb(87.058824%,12.156863%,41.568627%);fill-opacity:1;" d="M 66.148438 32.050781 C 67.039062 31.917969 67.554688 32.285156 67.699219 33.148438 C 67.789062 35.320312 67.757812 37.484375 67.601562 39.648438 C 67.167969 40.371094 66.582031 40.519531 65.851562 40.101562 C 65.667969 39.921875 65.550781 39.703125 65.5 39.449219 C 65.433594 37.25 65.433594 35.050781 65.5 32.851562 C 65.628906 32.507812 65.84375 32.238281 66.148438 32.050781 Z M 66.148438 32.050781 "/>
<path style=" stroke:none;fill-rule:evenodd;fill:rgb(90.588235%,34.117647%,57.254902%);fill-opacity:1;" d="M 98.351562 32.148438 C 97.800781 32.25 97.234375 32.28125 96.648438 32.25 C 96.683594 35.402344 96.648438 38.535156 96.550781 41.648438 C 96.550781 38.484375 96.550781 35.316406 96.550781 32.148438 C 97.148438 32.148438 97.75 32.148438 98.351562 32.148438 Z M 98.351562 32.148438 "/>
<path style=" stroke:none;fill-rule:evenodd;fill:rgb(87.45098%,14.509804%,42.745098%);fill-opacity:1;" d="M 80.75 33.648438 C 80.859375 33.828125 80.945312 34.027344 81 34.25 C 81.164062 35.453125 81.347656 36.652344 81.550781 37.851562 C 81.082031 37.851562 80.617188 37.851562 80.148438 37.851562 C 80.3125 36.445312 80.511719 35.042969 80.75 33.648438 Z M 80.75 33.648438 "/>
<path style=" stroke:none;fill-rule:evenodd;fill:rgb(90.196078%,30.980392%,55.294118%);fill-opacity:1;" d="M 53.050781 35.648438 C 52.984375 37.648438 52.917969 39.648438 52.851562 41.648438 C 52.832031 39.550781 52.851562 37.449219 52.898438 35.351562 C 53.003906 35.425781 53.054688 35.523438 53.050781 35.648438 Z M 53.050781 35.648438 "/>
<path style=" stroke:none;fill-rule:evenodd;fill:rgb(90.980392%,37.254902%,59.215686%);fill-opacity:1;" d="M 62.25 36.648438 C 61.601562 36.75 60.933594 36.78125 60.25 36.75 C 60.25 37.917969 60.25 39.082031 60.25 40.25 C 60.214844 40.25 60.183594 40.25 60.148438 40.25 C 60.148438 39.050781 60.148438 37.851562 60.148438 36.648438 C 60.851562 36.648438 61.550781 36.648438 62.25 36.648438 Z M 62.25 36.648438 "/>
<path style=" stroke:none;fill-rule:evenodd;fill:rgb(96.078431%,70.980392%,80.784314%);fill-opacity:1;" d="M 60.148438 40.25 C 60.183594 40.25 60.214844 40.25 60.25 40.25 C 61.117188 40.25 61.984375 40.25 62.851562 40.25 C 62.882812 40.734375 62.847656 41.203125 62.75 41.648438 C 62.75 41.214844 62.75 40.785156 62.75 40.351562 C 61.863281 40.382812 61 40.347656 60.148438 40.25 Z M 60.148438 40.25 "/>
<path style=" stroke:none;fill-rule:evenodd;fill:rgb(99.607843%,99.607843%,99.607843%);fill-opacity:1;" d="M 74.851562 54.851562 C 75.019531 54.835938 75.1875 54.851562 75.351562 54.898438 C 79.734375 59.285156 84.117188 63.667969 88.5 68.050781 C 88.566406 68.183594 88.566406 68.316406 88.5 68.449219 C 79.558594 68.566406 70.605469 68.582031 61.648438 68.5 C 61.546875 68.394531 61.53125 68.277344 61.601562 68.148438 C 66.035156 63.730469 70.453125 59.296875 74.851562 54.851562 Z M 74.851562 54.851562 "/>
<path style=" stroke:none;fill-rule:evenodd;fill:rgb(99.607843%,99.607843%,99.607843%);fill-opacity:1;" d="M 49.148438 80.550781 C 49.3125 80.535156 49.429688 80.601562 49.5 80.75 C 49.566406 89.648438 49.566406 98.550781 49.5 107.449219 C 49.460938 107.542969 49.394531 107.609375 49.300781 107.648438 C 44.804688 103.253906 40.335938 98.820312 35.898438 94.351562 C 35.832031 94.183594 35.832031 94.015625 35.898438 93.851562 C 40.335938 89.429688 44.753906 84.996094 49.148438 80.550781 Z M 49.148438 80.550781 "/>
<path style=" stroke:none;fill-rule:evenodd;fill:rgb(99.607843%,99.607843%,99.607843%);fill-opacity:1;" d="M 100.75 80.550781 C 100.890625 80.570312 101.027344 80.621094 101.148438 80.699219 C 105.605469 85.105469 110.007812 89.558594 114.351562 94.050781 C 109.921875 98.644531 105.421875 103.179688 100.851562 107.648438 C 100.789062 107.628906 100.742188 107.597656 100.699219 107.550781 C 100.617188 98.542969 100.632812 89.542969 100.75 80.550781 Z M 100.75 80.550781 "/>
<path style=" stroke:none;fill-rule:evenodd;fill:rgb(99.607843%,99.607843%,99.607843%);fill-opacity:1;" d="M 61.050781 80.75 C 70.417969 80.714844 79.785156 80.75 89.148438 80.851562 C 89.265625 83.746094 89.28125 86.644531 89.199219 89.550781 C 89.148438 89.601562 89.101562 89.648438 89.050781 89.699219 C 79.714844 89.765625 70.382812 89.765625 61.050781 89.699219 C 60.917969 86.714844 60.917969 83.734375 61.050781 80.75 Z M 61.050781 80.75 "/>
<path style=" stroke:none;fill-rule:evenodd;fill:rgb(99.607843%,99.607843%,99.607843%);fill-opacity:1;" d="M 61.050781 98.449219 C 70.382812 98.433594 79.714844 98.449219 89.050781 98.5 C 89.101562 98.550781 89.148438 98.601562 89.199219 98.648438 C 89.265625 101.515625 89.265625 104.382812 89.199219 107.25 C 89.148438 107.300781 89.101562 107.351562 89.050781 107.398438 C 79.714844 107.46875 70.382812 107.46875 61.050781 107.398438 C 60.917969 104.417969 60.917969 101.433594 61.050781 98.449219 Z M 61.050781 98.449219 "/>
<path style=" stroke:none;fill-rule:evenodd;fill:rgb(99.607843%,99.607843%,99.607843%);fill-opacity:1;" d="M 61.550781 119.648438 C 70.550781 119.648438 79.550781 119.648438 88.550781 119.648438 C 88.566406 119.785156 88.550781 119.921875 88.5 120.050781 C 84.058594 124.539062 79.578125 128.972656 75.050781 133.351562 C 70.523438 128.972656 66.039062 124.539062 61.601562 120.050781 C 61.550781 119.921875 61.535156 119.785156 61.550781 119.648438 Z M 61.550781 119.648438 "/>
</g>
</svg>
