<?xml version="1.0" encoding="UTF-8"?>
<svg xmlns="http://www.w3.org/2000/svg" xmlns:xlink="http://www.w3.org/1999/xlink" width="150px" height="150px" viewBox="0 0 150 150" version="1.1">
<g id="surface1">
<path style=" stroke:none;fill-rule:evenodd;fill:rgb(99.215686%,61.568627%,14.117647%);fill-opacity:1;" d="M -0.0507812 -0.0507812 C 49.949219 -0.0507812 99.949219 -0.0507812 149.949219 -0.0507812 C 149.949219 49.949219 149.949219 99.949219 149.949219 149.949219 C 99.949219 149.949219 49.949219 149.949219 -0.0507812 149.949219 C -0.0507812 99.949219 -0.0507812 49.949219 -0.0507812 -0.0507812 Z M -0.0507812 -0.0507812 "/>
<path style=" stroke:none;fill-rule:evenodd;fill:rgb(100%,99.215686%,98.431373%);fill-opacity:1;" d="M 42.050781 12.648438 C 44.316406 12.382812 45.515625 13.382812 45.648438 15.648438 C 45.054688 15.777344 44.453125 15.875 43.851562 15.949219 C 43.953125 15.3125 43.785156 14.761719 43.351562 14.300781 C 42.867188 14.054688 42.449219 14.140625 42.101562 14.550781 C 41.839844 15.242188 41.9375 15.875 42.398438 16.449219 C 43.363281 17.210938 44.261719 18.046875 45.101562 18.949219 C 46.054688 20.296875 46.085938 21.664062 45.199219 23.050781 C 44.023438 24.050781 42.738281 24.199219 41.351562 23.5 C 40.386719 22.722656 39.953125 21.707031 40.050781 20.449219 C 40.613281 20.40625 41.164062 20.304688 41.699219 20.148438 C 41.800781 20.617188 41.898438 21.082031 42 21.550781 C 42.226562 22.203125 42.675781 22.453125 43.351562 22.300781 C 43.566406 22.214844 43.714844 22.066406 43.800781 21.851562 C 43.929688 21.207031 43.832031 20.609375 43.5 20.050781 C 42.535156 19.148438 41.566406 18.25 40.601562 17.351562 C 39.914062 16.136719 39.878906 14.902344 40.5 13.648438 C 40.929688 13.167969 41.449219 12.832031 42.050781 12.648438 Z M 42.050781 12.648438 "/>
<path style=" stroke:none;fill-rule:evenodd;fill:rgb(100%,99.215686%,98.431373%);fill-opacity:1;" d="M 55.25 12.648438 C 57.515625 12.382812 58.714844 13.382812 58.851562 15.648438 C 58.253906 15.777344 57.65625 15.875 57.050781 15.949219 C 57.152344 15.3125 56.984375 14.761719 56.550781 14.300781 C 56.003906 14.039062 55.554688 14.15625 55.199219 14.648438 C 55.046875 15.320312 55.179688 15.921875 55.601562 16.449219 C 56.558594 17.210938 57.460938 18.042969 58.300781 18.949219 C 59.253906 20.296875 59.285156 21.664062 58.398438 23.050781 C 57.222656 24.050781 55.9375 24.199219 54.550781 23.5 C 53.800781 22.988281 53.382812 22.269531 53.300781 21.351562 C 53.25 21.050781 53.234375 20.75 53.25 20.449219 C 53.8125 20.40625 54.363281 20.304688 54.898438 20.148438 C 55.007812 20.613281 55.109375 21.082031 55.199219 21.550781 C 55.425781 22.203125 55.875 22.453125 56.550781 22.300781 C 56.765625 22.214844 56.917969 22.066406 57 21.851562 C 57.109375 21.289062 57.042969 20.757812 56.800781 20.25 C 55.835938 19.253906 54.835938 18.285156 53.800781 17.351562 C 53.105469 16.136719 53.074219 14.90625 53.699219 13.648438 C 54.128906 13.167969 54.648438 12.832031 55.25 12.648438 Z M 55.25 12.648438 "/>
<path style=" stroke:none;fill-rule:evenodd;fill:rgb(100%,99.607843%,98.823529%);fill-opacity:1;" d="M 113.550781 15.050781 C 113.550781 15.617188 113.550781 16.183594 113.550781 16.75 C 112.917969 16.75 112.28125 16.75 111.648438 16.75 C 111.691406 16.003906 111.644531 15.273438 111.5 14.550781 C 111.078125 14.128906 110.597656 14.046875 110.050781 14.300781 C 109.8125 14.496094 109.660156 14.746094 109.601562 15.050781 C 109.53125 17.050781 109.53125 19.050781 109.601562 21.050781 C 109.671875 22.289062 110.269531 22.652344 111.398438 22.148438 C 111.46875 22.015625 111.53125 21.882812 111.601562 21.75 C 111.648438 21.050781 111.667969 20.351562 111.648438 19.648438 C 112.316406 19.648438 112.984375 19.648438 113.648438 19.648438 C 113.929688 23.292969 112.328125 24.574219 108.851562 23.5 C 108.109375 22.9375 107.695312 22.1875 107.601562 21.25 C 107.53125 19.214844 107.53125 17.183594 107.601562 15.148438 C 108.015625 13.179688 109.234375 12.363281 111.25 12.699219 C 112.644531 12.878906 113.410156 13.660156 113.550781 15.050781 Z M 113.550781 15.050781 "/>
<path style=" stroke:none;fill-rule:evenodd;fill:rgb(100%,99.215686%,98.431373%);fill-opacity:1;" d="M 132.949219 12.648438 C 135.230469 12.371094 136.398438 13.371094 136.449219 15.648438 C 135.890625 15.789062 135.324219 15.886719 134.75 15.949219 C 134.835938 15.226562 134.605469 14.640625 134.050781 14.199219 C 133.054688 14.109375 132.636719 14.5625 132.800781 15.550781 C 132.871094 15.792969 132.972656 16.027344 133.101562 16.25 C 133.65625 16.800781 134.238281 17.320312 134.851562 17.800781 C 135.675781 18.488281 136.257812 19.339844 136.601562 20.351562 C 136.832031 22.953125 135.648438 24.101562 133.050781 23.800781 C 131.929688 23.515625 131.246094 22.796875 131 21.648438 C 130.863281 21.261719 130.847656 20.878906 130.949219 20.5 C 131.515625 20.371094 132.082031 20.257812 132.648438 20.148438 C 132.574219 20.945312 132.808594 21.628906 133.351562 22.199219 C 134.203125 22.507812 134.671875 22.207031 134.75 21.300781 C 134.722656 20.757812 134.535156 20.273438 134.199219 19.851562 C 133.316406 19.105469 132.449219 18.339844 131.601562 17.550781 C 130.738281 16.339844 130.640625 15.070312 131.300781 13.75 C 131.734375 13.191406 132.285156 12.824219 132.949219 12.648438 Z M 132.949219 12.648438 "/>
<path style=" stroke:none;fill-rule:evenodd;fill:rgb(100%,89.411765%,76.078431%);fill-opacity:1;" d="M 66.351562 12.851562 C 66.699219 12.785156 67.066406 12.75 67.449219 12.75 C 67.855469 12.75 68.222656 12.816406 68.550781 12.949219 C 67.824219 12.855469 67.09375 12.820312 66.351562 12.851562 Z M 66.351562 12.851562 "/>
<path style=" stroke:none;fill-rule:evenodd;fill:rgb(100%,99.607843%,99.607843%);fill-opacity:1;" d="M 14.050781 12.851562 C 15.449219 12.851562 16.851562 12.851562 18.25 12.851562 C 18.25 22.382812 18.25 31.917969 18.25 41.449219 C 16.449219 41.449219 14.648438 41.449219 12.851562 41.449219 C 12.882812 33.816406 12.851562 26.183594 12.75 18.550781 C 11.464844 19.058594 10.164062 19.523438 8.851562 19.949219 C 8.75 18.632812 8.71875 17.300781 8.75 15.949219 C 10.660156 15.144531 12.429688 14.113281 14.050781 12.851562 Z M 14.050781 12.851562 "/>
<path style=" stroke:none;fill-rule:evenodd;fill:rgb(100%,88.235294%,73.72549%);fill-opacity:1;" d="M 14.050781 12.851562 C 15.464844 12.75 16.898438 12.71875 18.351562 12.75 C 18.351562 22.351562 18.351562 31.949219 18.351562 41.550781 C 16.5 41.582031 14.664062 41.550781 12.851562 41.449219 C 14.648438 41.449219 16.449219 41.449219 18.25 41.449219 C 18.25 31.917969 18.25 22.382812 18.25 12.851562 C 16.851562 12.851562 15.449219 12.851562 14.050781 12.851562 Z M 14.050781 12.851562 "/>
<path style=" stroke:none;fill-rule:evenodd;fill:rgb(100%,99.607843%,99.607843%);fill-opacity:1;" d="M 20.851562 19.949219 C 20.75 18.632812 20.71875 17.300781 20.75 15.949219 C 22.675781 15.15625 24.441406 14.105469 26.050781 12.800781 C 27.484375 12.75 28.917969 12.734375 30.351562 12.75 C 30.351562 22.351562 30.351562 31.949219 30.351562 41.550781 C 28.515625 41.550781 26.683594 41.550781 24.851562 41.550781 C 24.882812 33.882812 24.851562 26.214844 24.75 18.550781 C 23.464844 19.058594 22.164062 19.523438 20.851562 19.949219 Z M 20.851562 19.949219 "/>
<path style=" stroke:none;fill-rule:evenodd;fill:rgb(100%,99.215686%,98.431373%);fill-opacity:1;" d="M 46.351562 12.75 C 46.984375 12.75 47.617188 12.75 48.25 12.75 C 48.234375 15.550781 48.25 18.351562 48.300781 21.148438 C 48.511719 22.363281 49.144531 22.664062 50.199219 22.050781 C 50.375 21.777344 50.476562 21.476562 50.5 21.148438 C 50.550781 18.351562 50.566406 15.550781 50.550781 12.75 C 51.214844 12.75 51.882812 12.75 52.550781 12.75 C 52.566406 15.449219 52.550781 18.148438 52.5 20.851562 C 52.472656 22.910156 51.4375 23.910156 49.398438 23.851562 C 47.902344 24.015625 46.933594 23.382812 46.5 21.949219 C 46.355469 18.886719 46.304688 15.820312 46.351562 12.75 Z M 46.351562 12.75 "/>
<path style=" stroke:none;fill-rule:evenodd;fill:rgb(100%,98.823529%,97.254902%);fill-opacity:1;" d="M 58.851562 12.75 C 60.714844 12.75 62.582031 12.75 64.449219 12.75 C 64.449219 13.25 64.449219 13.75 64.449219 14.25 C 63.882812 14.25 63.316406 14.25 62.75 14.25 C 62.75 17.417969 62.75 20.582031 62.75 23.75 C 62.050781 23.75 61.351562 23.75 60.648438 23.75 C 60.648438 20.582031 60.648438 17.417969 60.648438 14.25 C 60.050781 14.25 59.449219 14.25 58.851562 14.25 C 58.851562 13.75 58.851562 13.25 58.851562 12.75 Z M 58.851562 12.75 "/>
<path style=" stroke:none;fill-rule:evenodd;fill:rgb(100%,99.215686%,98.823529%);fill-opacity:1;" d="M 66.351562 12.851562 C 67.09375 12.820312 67.824219 12.855469 68.550781 12.949219 C 69.238281 16.519531 69.9375 20.085938 70.648438 23.648438 C 70.070312 23.75 69.46875 23.78125 68.851562 23.75 C 68.675781 22.925781 68.542969 22.089844 68.449219 21.25 C 67.785156 21.25 67.117188 21.25 66.449219 21.25 C 66.347656 22.054688 66.214844 22.855469 66.050781 23.648438 C 65.417969 23.785156 64.785156 23.785156 64.148438 23.648438 C 64.921875 20.058594 65.65625 16.457031 66.351562 12.851562 Z M 66.351562 12.851562 "/>
<path style=" stroke:none;fill-rule:evenodd;fill:rgb(100%,90.196078%,78.431373%);fill-opacity:1;" d="M 73.25 12.851562 C 72.617188 12.851562 71.984375 12.851562 71.351562 12.851562 C 71.351562 16.484375 71.351562 20.117188 71.351562 23.75 C 71.25 20.101562 71.21875 16.433594 71.25 12.75 C 71.933594 12.71875 72.601562 12.75 73.25 12.851562 Z M 73.25 12.851562 "/>
<path style=" stroke:none;fill-rule:evenodd;fill:rgb(99.607843%,100%,99.607843%);fill-opacity:1;" d="M 73.25 12.851562 C 73.25 16.484375 73.25 20.117188 73.25 23.75 C 72.617188 23.75 71.984375 23.75 71.351562 23.75 C 71.351562 20.117188 71.351562 16.484375 71.351562 12.851562 C 71.984375 12.851562 72.617188 12.851562 73.25 12.851562 Z M 73.25 12.851562 "/>
<path style=" stroke:none;fill-rule:evenodd;fill:rgb(100%,90.196078%,78.431373%);fill-opacity:1;" d="M 75.75 12.851562 C 75.316406 12.851562 74.882812 12.851562 74.449219 12.851562 C 74.449219 16.484375 74.449219 20.117188 74.449219 23.75 C 74.351562 20.101562 74.316406 16.433594 74.351562 12.75 C 74.835938 12.71875 75.304688 12.75 75.75 12.851562 Z M 75.75 12.851562 "/>
<path style=" stroke:none;fill-rule:evenodd;fill:rgb(100%,99.215686%,98.431373%);fill-opacity:1;" d="M 78.449219 12.75 C 79.015625 12.75 79.582031 12.75 80.148438 12.75 C 80.148438 16.417969 80.148438 20.082031 80.148438 23.75 C 79.679688 23.78125 79.210938 23.75 78.75 23.648438 C 77.878906 21.664062 77.042969 19.664062 76.25 17.648438 C 76.203125 17.550781 76.152344 17.453125 76.101562 17.351562 C 76.050781 19.484375 76.035156 21.617188 76.050781 23.75 C 75.515625 23.75 74.984375 23.75 74.449219 23.75 C 74.449219 20.117188 74.449219 16.484375 74.449219 12.851562 C 74.882812 12.851562 75.316406 12.851562 75.75 12.851562 C 76.605469 14.730469 77.441406 16.632812 78.25 18.550781 C 78.296875 18.648438 78.347656 18.746094 78.398438 18.851562 C 78.449219 16.816406 78.464844 14.785156 78.449219 12.75 Z M 78.449219 12.75 "/>
<path style=" stroke:none;fill-rule:evenodd;fill:rgb(99.215686%,71.372549%,35.686275%);fill-opacity:1;" d="M 78.449219 12.75 C 78.464844 14.785156 78.449219 16.816406 78.398438 18.851562 C 78.347656 18.746094 78.296875 18.648438 78.25 18.550781 C 78.316406 16.617188 78.382812 14.683594 78.449219 12.75 Z M 78.449219 12.75 "/>
<path style=" stroke:none;fill-rule:evenodd;fill:rgb(100%,99.215686%,98.431373%);fill-opacity:1;" d="M 82.449219 23.75 C 81.832031 23.78125 81.230469 23.75 80.648438 23.648438 C 81.335938 20.042969 82.050781 16.445312 82.800781 12.851562 C 83.507812 12.753906 84.222656 12.71875 84.949219 12.75 C 85.683594 16.382812 86.417969 20.015625 87.148438 23.648438 C 86.519531 23.75 85.886719 23.78125 85.25 23.75 C 85.128906 22.914062 84.992188 22.082031 84.851562 21.25 C 84.214844 21.21875 83.578125 21.25 82.949219 21.351562 C 82.804688 22.167969 82.636719 22.964844 82.449219 23.75 Z M 82.449219 23.75 "/>
<path style=" stroke:none;fill-rule:evenodd;fill:rgb(100%,99.607843%,99.215686%);fill-opacity:1;" d="M 87.648438 12.75 C 88.785156 12.734375 89.917969 12.75 91.050781 12.800781 C 92.289062 12.875 93.105469 13.492188 93.5 14.648438 C 93.566406 15.25 93.566406 15.851562 93.5 16.449219 C 93.289062 17.160156 92.839844 17.644531 92.148438 17.898438 C 93.03125 18.113281 93.582031 18.664062 93.800781 19.550781 C 94.007812 20.46875 93.941406 21.367188 93.601562 22.25 C 93.21875 23.03125 92.601562 23.515625 91.75 23.699219 C 90.382812 23.75 89.015625 23.765625 87.648438 23.75 C 87.648438 20.082031 87.648438 16.417969 87.648438 12.75 Z M 87.648438 12.75 "/>
<path style=" stroke:none;fill-rule:evenodd;fill:rgb(100%,99.607843%,99.607843%);fill-opacity:1;" d="M 94.648438 12.851562 C 95.285156 12.851562 95.917969 12.851562 96.550781 12.851562 C 96.515625 16.035156 96.550781 19.199219 96.648438 22.351562 C 97.515625 22.351562 98.382812 22.351562 99.25 22.351562 C 99.25 22.816406 99.25 23.285156 99.25 23.75 C 97.714844 23.75 96.183594 23.75 94.648438 23.75 C 94.648438 20.117188 94.648438 16.484375 94.648438 12.851562 Z M 94.648438 12.851562 "/>
<path style=" stroke:none;fill-rule:evenodd;fill:rgb(100%,90.196078%,78.431373%);fill-opacity:1;" d="M 94.648438 12.851562 C 95.296875 12.75 95.964844 12.71875 96.648438 12.75 C 96.648438 15.949219 96.648438 19.148438 96.648438 22.351562 C 96.550781 19.199219 96.515625 16.035156 96.550781 12.851562 C 95.917969 12.851562 95.285156 12.851562 94.648438 12.851562 Z M 94.648438 12.851562 "/>
<path style=" stroke:none;fill-rule:evenodd;fill:rgb(100%,99.607843%,98.823529%);fill-opacity:1;" d="M 99.75 12.75 C 101.28125 12.75 102.816406 12.75 104.351562 12.75 C 104.351562 13.25 104.351562 13.75 104.351562 14.25 C 103.484375 14.25 102.617188 14.25 101.75 14.25 C 101.75 15.285156 101.75 16.316406 101.75 17.351562 C 102.449219 17.351562 103.148438 17.351562 103.851562 17.351562 C 103.851562 17.816406 103.851562 18.285156 103.851562 18.75 C 103.148438 18.75 102.449219 18.75 101.75 18.75 C 101.75 19.949219 101.75 21.148438 101.75 22.351562 C 102.617188 22.351562 103.484375 22.351562 104.351562 22.351562 C 104.351562 22.816406 104.351562 23.285156 104.351562 23.75 C 102.816406 23.75 101.28125 23.75 99.75 23.75 C 99.75 20.082031 99.75 16.417969 99.75 12.75 Z M 99.75 12.75 "/>
<path style=" stroke:none;fill-rule:evenodd;fill:rgb(100%,98.039216%,95.686275%);fill-opacity:1;" d="M 114.449219 12.75 C 115.148438 12.75 115.851562 12.75 116.550781 12.75 C 116.550781 16.417969 116.550781 20.082031 116.550781 23.75 C 115.851562 23.75 115.148438 23.75 114.449219 23.75 C 114.449219 20.082031 114.449219 16.417969 114.449219 12.75 Z M 114.449219 12.75 "/>
<path style=" stroke:none;fill-rule:evenodd;fill:rgb(100%,98.823529%,97.254902%);fill-opacity:1;" d="M 116.851562 12.75 C 118.71875 12.75 120.582031 12.75 122.449219 12.75 C 122.449219 13.25 122.449219 13.75 122.449219 14.25 C 121.882812 14.25 121.316406 14.25 120.75 14.25 C 120.75 17.417969 120.75 20.582031 120.75 23.75 C 120.050781 23.75 119.351562 23.75 118.648438 23.75 C 118.648438 20.582031 118.648438 17.417969 118.648438 14.25 C 118.050781 14.25 117.449219 14.25 116.851562 14.25 C 116.851562 13.75 116.851562 13.25 116.851562 12.75 Z M 116.851562 12.75 "/>
<path style=" stroke:none;fill-rule:evenodd;fill:rgb(99.607843%,100%,99.607843%);fill-opacity:1;" d="M 122.851562 12.851562 C 123.484375 12.851562 124.117188 12.851562 124.75 12.851562 C 124.75 16.484375 124.75 20.117188 124.75 23.75 C 124.117188 23.75 123.484375 23.75 122.851562 23.75 C 122.851562 20.117188 122.851562 16.484375 122.851562 12.851562 Z M 122.851562 12.851562 "/>
<path style=" stroke:none;fill-rule:evenodd;fill:rgb(100%,90.196078%,78.431373%);fill-opacity:1;" d="M 122.851562 12.851562 C 123.496094 12.75 124.164062 12.71875 124.851562 12.75 C 124.882812 16.433594 124.851562 20.101562 124.75 23.75 C 124.75 20.117188 124.75 16.484375 124.75 12.851562 C 124.117188 12.851562 123.484375 12.851562 122.851562 12.851562 Z M 122.851562 12.851562 "/>
<path style=" stroke:none;fill-rule:evenodd;fill:rgb(100%,99.607843%,99.607843%);fill-opacity:1;" d="M 125.949219 12.851562 C 127.449219 12.851562 128.949219 12.851562 130.449219 12.851562 C 130.449219 13.285156 130.449219 13.714844 130.449219 14.148438 C 129.597656 14.117188 128.765625 14.152344 127.949219 14.25 C 127.949219 15.285156 127.949219 16.316406 127.949219 17.351562 C 128.648438 17.351562 129.351562 17.351562 130.050781 17.351562 C 130.050781 17.816406 130.050781 18.285156 130.050781 18.75 C 129.351562 18.75 128.648438 18.75 127.949219 18.75 C 127.949219 19.949219 127.949219 21.148438 127.949219 22.351562 C 128.816406 22.351562 129.683594 22.351562 130.550781 22.351562 C 130.550781 22.816406 130.550781 23.285156 130.550781 23.75 C 129.015625 23.75 127.484375 23.75 125.949219 23.75 C 125.949219 20.117188 125.949219 16.484375 125.949219 12.851562 Z M 125.949219 12.851562 "/>
<path style=" stroke:none;fill-rule:evenodd;fill:rgb(100%,90.196078%,78.431373%);fill-opacity:1;" d="M 125.949219 12.851562 C 127.464844 12.75 129 12.71875 130.550781 12.75 C 130.550781 13.25 130.550781 13.75 130.550781 14.25 C 129.683594 14.25 128.816406 14.25 127.949219 14.25 C 128.765625 14.152344 129.597656 14.117188 130.449219 14.148438 C 130.449219 13.714844 130.449219 13.285156 130.449219 12.851562 C 128.949219 12.851562 127.449219 12.851562 125.949219 12.851562 Z M 125.949219 12.851562 "/>
<path style=" stroke:none;fill-rule:evenodd;fill:rgb(99.215686%,62.352941%,16.078431%);fill-opacity:1;" d="M 89.648438 14.25 C 91.457031 13.9375 92.140625 14.671875 91.699219 16.449219 C 91.574219 16.878906 91.289062 17.128906 90.851562 17.199219 C 90.453125 17.25 90.050781 17.265625 89.648438 17.25 C 89.648438 16.25 89.648438 15.25 89.648438 14.25 Z M 89.648438 14.25 "/>
<path style=" stroke:none;fill-rule:evenodd;fill:rgb(99.215686%,62.352941%,16.862745%);fill-opacity:1;" d="M 84.550781 19.648438 C 84.378906 19.78125 84.160156 19.847656 83.898438 19.851562 C 83.640625 19.847656 83.421875 19.78125 83.25 19.648438 C 83.433594 18.3125 83.652344 16.976562 83.898438 15.648438 C 84.148438 16.980469 84.367188 18.3125 84.550781 19.648438 Z M 84.550781 19.648438 "/>
<path style=" stroke:none;fill-rule:evenodd;fill:rgb(99.607843%,90.196078%,78.039216%);fill-opacity:1;" d="M 8.75 15.949219 C 8.71875 17.300781 8.75 18.632812 8.851562 19.949219 C 8.84375 20.003906 8.8125 20.039062 8.75 20.050781 C 8.617188 18.667969 8.617188 17.300781 8.75 15.949219 Z M 8.75 15.949219 "/>
<path style=" stroke:none;fill-rule:evenodd;fill:rgb(99.607843%,90.196078%,78.431373%);fill-opacity:1;" d="M 20.75 15.949219 C 20.71875 17.300781 20.75 18.632812 20.851562 19.949219 C 20.84375 20.003906 20.8125 20.039062 20.75 20.050781 C 20.617188 18.667969 20.617188 17.300781 20.75 15.949219 Z M 20.75 15.949219 "/>
<path style=" stroke:none;fill-rule:evenodd;fill:rgb(99.215686%,63.529412%,20%);fill-opacity:1;" d="M 67.351562 15.648438 C 67.710938 17.042969 67.976562 18.476562 68.148438 19.949219 C 67.683594 19.949219 67.214844 19.949219 66.75 19.949219 C 66.960938 18.519531 67.160156 17.085938 67.351562 15.648438 Z M 67.351562 15.648438 "/>
<path style=" stroke:none;fill-rule:evenodd;fill:rgb(99.607843%,83.137255%,62.352941%);fill-opacity:1;" d="M 113.550781 15.050781 C 113.648438 15.632812 113.683594 16.230469 113.648438 16.851562 C 112.964844 16.882812 112.296875 16.847656 111.648438 16.75 C 112.28125 16.75 112.917969 16.75 113.550781 16.75 C 113.550781 16.183594 113.550781 15.617188 113.550781 15.050781 Z M 113.550781 15.050781 "/>
<path style=" stroke:none;fill-rule:evenodd;fill:rgb(99.607843%,71.372549%,36.078431%);fill-opacity:1;" d="M 76.25 17.648438 C 76.183594 19.683594 76.117188 21.714844 76.050781 23.75 C 76.035156 21.617188 76.050781 19.484375 76.101562 17.351562 C 76.152344 17.453125 76.203125 17.550781 76.25 17.648438 Z M 76.25 17.648438 "/>
<path style=" stroke:none;fill-rule:evenodd;fill:rgb(99.607843%,72.156863%,38.039216%);fill-opacity:1;" d="M 90.75 18.75 C 90.417969 18.75 90.082031 18.75 89.75 18.75 C 89.75 19.917969 89.75 21.082031 89.75 22.25 C 90.183594 22.25 90.617188 22.25 91.050781 22.25 C 90.601562 22.347656 90.136719 22.382812 89.648438 22.351562 C 89.648438 21.117188 89.648438 19.882812 89.648438 18.648438 C 90.035156 18.617188 90.402344 18.652344 90.75 18.75 Z M 90.75 18.75 "/>
<path style=" stroke:none;fill-rule:evenodd;fill:rgb(99.215686%,61.568627%,14.901961%);fill-opacity:1;" d="M 90.75 18.75 C 91.367188 18.816406 91.75 19.148438 91.898438 19.75 C 92.039062 20.523438 91.941406 21.257812 91.601562 21.949219 C 91.453125 22.117188 91.269531 22.214844 91.050781 22.25 C 90.617188 22.25 90.183594 22.25 89.75 22.25 C 89.75 21.082031 89.75 19.917969 89.75 18.75 C 90.082031 18.75 90.417969 18.75 90.75 18.75 Z M 90.75 18.75 "/>
<path style=" stroke:none;fill-rule:evenodd;fill:rgb(99.607843%,81.176471%,58.823529%);fill-opacity:1;" d="M 83.25 19.648438 C 83.421875 19.78125 83.640625 19.847656 83.898438 19.851562 C 84.160156 19.847656 84.378906 19.78125 84.550781 19.648438 C 84.640625 19.722656 84.671875 19.820312 84.648438 19.949219 C 84.148438 19.949219 83.648438 19.949219 83.148438 19.949219 C 83.125 19.820312 83.160156 19.722656 83.25 19.648438 Z M 83.25 19.648438 "/>
<path style=" stroke:none;fill-rule:evenodd;fill:rgb(99.607843%,70.980392%,35.686275%);fill-opacity:1;" d="M 70.648438 23.648438 C 70.703125 23.65625 70.738281 23.6875 70.75 23.75 C 70.101562 23.882812 69.46875 23.882812 68.851562 23.75 C 69.46875 23.78125 70.070312 23.75 70.648438 23.648438 Z M 70.648438 23.648438 "/>
<path style=" stroke:none;fill-rule:evenodd;fill:rgb(99.607843%,70.980392%,35.686275%);fill-opacity:1;" d="M 80.648438 23.648438 C 81.230469 23.75 81.832031 23.78125 82.449219 23.75 C 81.832031 23.882812 81.199219 23.882812 80.550781 23.75 C 80.5625 23.6875 80.59375 23.65625 80.648438 23.648438 Z M 80.648438 23.648438 "/>
<path style=" stroke:none;fill-rule:evenodd;fill:rgb(100%,99.215686%,98.039216%);fill-opacity:1;" d="M 65.550781 30.550781 C 66.265625 30.507812 66.964844 30.59375 67.648438 30.800781 C 68.429688 31.175781 68.914062 31.792969 69.101562 32.648438 C 69.148438 33.347656 69.167969 34.050781 69.148438 34.75 C 68.515625 34.75 67.882812 34.75 67.25 34.75 C 67.265625 34.082031 67.25 33.414062 67.199219 32.75 C 66.878906 32.050781 66.363281 31.867188 65.648438 32.199219 C 65.460938 32.355469 65.3125 32.539062 65.199219 32.75 C 65.132812 34.949219 65.132812 37.148438 65.199219 39.351562 C 65.371094 40.214844 65.886719 40.496094 66.75 40.199219 C 66.960938 40.027344 67.113281 39.808594 67.199219 39.550781 C 67.25 38.882812 67.265625 38.21875 67.25 37.550781 C 67.882812 37.550781 68.515625 37.550781 69.148438 37.550781 C 69.449219 41.234375 67.851562 42.519531 64.351562 41.398438 C 63.601562 40.757812 63.1875 39.941406 63.101562 38.949219 C 63.007812 36.878906 63.042969 34.8125 63.199219 32.75 C 63.492188 31.476562 64.273438 30.742188 65.550781 30.550781 Z M 65.550781 30.550781 "/>
<path style=" stroke:none;fill-rule:evenodd;fill:rgb(100%,99.215686%,98.039216%);fill-opacity:1;" d="M 72.148438 30.550781 C 73.175781 30.433594 74.144531 30.617188 75.050781 31.101562 C 75.644531 31.652344 75.996094 32.335938 76.101562 33.148438 C 76.191406 35.351562 76.160156 37.554688 76 39.75 C 75.664062 41.007812 74.847656 41.691406 73.550781 41.800781 C 71.621094 42.101562 70.402344 41.316406 69.898438 39.449219 C 69.675781 37.109375 69.707031 34.777344 70 32.449219 C 70.386719 31.433594 71.101562 30.800781 72.148438 30.550781 Z M 72.148438 30.550781 "/>
<path style=" stroke:none;fill-rule:evenodd;fill:rgb(100%,99.215686%,98.431373%);fill-opacity:1;" d="M 126.25 38.148438 C 126.40625 38.316406 126.507812 38.515625 126.550781 38.75 C 126.570312 39.277344 126.773438 39.726562 127.148438 40.101562 C 127.605469 40.332031 128.019531 40.28125 128.398438 39.949219 C 128.660156 39.199219 128.558594 38.5 128.101562 37.851562 C 127.085938 36.996094 126.121094 36.09375 125.199219 35.148438 C 124.722656 34.15625 124.621094 33.125 124.898438 32.050781 C 125.476562 31.0625 126.34375 30.5625 127.5 30.550781 C 129.503906 30.652344 130.355469 31.667969 130.050781 33.601562 C 129.554688 33.714844 129.054688 33.800781 128.550781 33.851562 C 128.59375 33.359375 128.511719 32.890625 128.300781 32.449219 C 127.730469 32.019531 127.199219 32.054688 126.699219 32.550781 C 126.574219 33.164062 126.671875 33.730469 127 34.25 C 127.898438 35.082031 128.800781 35.917969 129.699219 36.75 C 130.632812 37.972656 130.765625 39.273438 130.101562 40.648438 C 129.332031 41.65625 128.316406 42.042969 127.050781 41.800781 C 125.378906 41.308594 124.644531 40.191406 124.851562 38.449219 C 125.308594 38.308594 125.773438 38.207031 126.25 38.148438 Z M 126.25 38.148438 "/>
<path style=" stroke:none;fill-rule:evenodd;fill:rgb(100%,99.215686%,98.431373%);fill-opacity:1;" d="M 41.949219 30.648438 C 42.648438 30.648438 43.351562 30.648438 44.050781 30.648438 C 44.820312 34.308594 45.554688 37.976562 46.25 41.648438 C 45.617188 41.648438 44.984375 41.648438 44.351562 41.648438 C 44.234375 40.8125 44.101562 39.980469 43.949219 39.148438 C 43.316406 39.148438 42.683594 39.148438 42.050781 39.148438 C 41.902344 39.980469 41.765625 40.8125 41.648438 41.648438 C 41.015625 41.648438 40.382812 41.648438 39.75 41.648438 C 40.46875 37.980469 41.203125 34.3125 41.949219 30.648438 Z M 41.949219 30.648438 "/>
<path style=" stroke:none;fill-rule:evenodd;fill:rgb(100%,89.411765%,76.470588%);fill-opacity:1;" d="M 48.148438 30.75 C 47.714844 30.75 47.285156 30.75 46.851562 30.75 C 46.851562 34.382812 46.851562 38.015625 46.851562 41.648438 C 46.75 38 46.71875 34.332031 46.75 30.648438 C 47.234375 30.617188 47.703125 30.652344 48.148438 30.75 Z M 48.148438 30.75 "/>
<path style=" stroke:none;fill-rule:evenodd;fill:rgb(100%,99.215686%,98.431373%);fill-opacity:1;" d="M 48.648438 35.550781 C 48.621094 35.472656 48.570312 35.40625 48.5 35.351562 C 48.449219 37.449219 48.433594 39.550781 48.449219 41.648438 C 47.917969 41.648438 47.382812 41.648438 46.851562 41.648438 C 46.851562 38.015625 46.851562 34.382812 46.851562 30.75 C 47.285156 30.75 47.714844 30.75 48.148438 30.75 C 49.007812 32.632812 49.839844 34.53125 50.648438 36.449219 C 50.699219 36.546875 50.75 36.648438 50.800781 36.75 C 50.851562 34.75 50.867188 32.75 50.851562 30.75 C 51.390625 30.617188 51.941406 30.617188 52.5 30.75 C 52.550781 34.382812 52.566406 38.015625 52.550781 41.648438 C 52.078125 41.683594 51.613281 41.648438 51.148438 41.550781 C 50.277344 39.5625 49.445312 37.5625 48.648438 35.550781 Z M 48.648438 35.550781 "/>
<path style=" stroke:none;fill-rule:evenodd;fill:rgb(99.607843%,71.372549%,35.686275%);fill-opacity:1;" d="M 50.851562 30.75 C 50.867188 32.75 50.851562 34.75 50.800781 36.75 C 50.75 36.648438 50.699219 36.546875 50.648438 36.449219 C 50.714844 34.550781 50.785156 32.648438 50.851562 30.75 Z M 50.851562 30.75 "/>
<path style=" stroke:none;fill-rule:evenodd;fill:rgb(100%,88.627451%,74.509804%);fill-opacity:1;" d="M 56.648438 30.75 C 55.648438 30.75 54.648438 30.75 53.648438 30.75 C 53.648438 34.382812 53.648438 38.015625 53.648438 41.648438 C 53.550781 38 53.515625 34.332031 53.550781 30.648438 C 54.601562 30.617188 55.632812 30.652344 56.648438 30.75 Z M 56.648438 30.75 "/>
<path style=" stroke:none;fill-rule:evenodd;fill:rgb(100%,99.215686%,98.431373%);fill-opacity:1;" d="M 56.648438 30.75 C 58.070312 30.699219 59.019531 31.332031 59.5 32.648438 C 59.699219 34.949219 59.699219 37.25 59.5 39.550781 C 59.195312 40.722656 58.445312 41.40625 57.25 41.601562 C 56.050781 41.648438 54.851562 41.667969 53.648438 41.648438 C 53.648438 38.015625 53.648438 34.382812 53.648438 30.75 C 54.648438 30.75 55.648438 30.75 56.648438 30.75 Z M 56.648438 30.75 "/>
<path style=" stroke:none;fill-rule:evenodd;fill:rgb(100%,99.215686%,98.039216%);fill-opacity:1;" d="M 78.851562 34.949219 C 78.832031 34.742188 78.78125 34.542969 78.699219 34.351562 C 78.648438 34.816406 78.632812 35.28125 78.648438 35.75 C 78.667969 37.71875 78.632812 39.683594 78.550781 41.648438 C 78.050781 41.648438 77.550781 41.648438 77.050781 41.648438 C 77.058594 38.015625 77.109375 34.382812 77.199219 30.75 C 77.898438 30.617188 78.601562 30.617188 79.300781 30.75 C 79.773438 33.226562 80.289062 35.695312 80.851562 38.148438 C 81.414062 35.65625 81.949219 33.15625 82.449219 30.648438 C 83.140625 30.617188 83.824219 30.652344 84.5 30.75 C 84.582031 34.382812 84.632812 38.015625 84.648438 41.648438 C 84.148438 41.648438 83.648438 41.648438 83.148438 41.648438 C 83.121094 39.214844 83.070312 36.78125 83 34.351562 C 82.480469 36.769531 81.964844 39.1875 81.449219 41.601562 C 81.25 41.617188 81.050781 41.632812 80.851562 41.648438 C 80.605469 41.640625 80.386719 41.574219 80.199219 41.449219 C 79.738281 39.285156 79.289062 37.117188 78.851562 34.949219 Z M 78.851562 34.949219 "/>
<path style=" stroke:none;fill-rule:evenodd;fill:rgb(100%,99.215686%,98.039216%);fill-opacity:1;" d="M 91.75 36.449219 C 91.765625 35.75 91.75 35.050781 91.699219 34.351562 C 91.621094 34.472656 91.570312 34.609375 91.550781 34.75 C 91.132812 37.058594 90.664062 39.359375 90.148438 41.648438 C 89.722656 41.679688 89.304688 41.644531 88.898438 41.550781 C 88.414062 39.210938 87.914062 36.878906 87.398438 34.550781 C 87.351562 36.917969 87.300781 39.285156 87.25 41.648438 C 86.714844 41.648438 86.183594 41.648438 85.648438 41.648438 C 85.753906 37.984375 85.820312 34.316406 85.851562 30.648438 C 86.550781 30.648438 87.25 30.648438 87.949219 30.648438 C 88.449219 33.152344 88.96875 35.652344 89.5 38.148438 C 90.097656 35.660156 90.648438 33.160156 91.148438 30.648438 C 91.816406 30.648438 92.484375 30.648438 93.148438 30.648438 C 93.257812 34.316406 93.324219 37.980469 93.351562 41.648438 C 92.851562 41.648438 92.351562 41.648438 91.851562 41.648438 C 91.804688 39.917969 91.769531 38.183594 91.75 36.449219 Z M 91.75 36.449219 "/>
<path style=" stroke:none;fill-rule:evenodd;fill:rgb(100%,99.215686%,98.039216%);fill-opacity:1;" d="M 94.351562 30.648438 C 94.984375 30.648438 95.617188 30.648438 96.25 30.648438 C 96.207031 33.621094 96.257812 36.585938 96.398438 39.550781 C 96.542969 40.054688 96.875 40.289062 97.398438 40.25 C 98.089844 40.226562 98.457031 39.859375 98.5 39.148438 C 98.550781 36.316406 98.566406 33.484375 98.550781 30.648438 C 99.210938 30.617188 99.859375 30.652344 100.5 30.75 C 100.566406 33.484375 100.566406 36.214844 100.5 38.949219 C 100.359375 40.90625 99.308594 41.875 97.351562 41.851562 C 95.839844 41.886719 94.890625 41.1875 94.5 39.75 C 94.355469 36.722656 94.304688 33.6875 94.351562 30.648438 Z M 94.351562 30.648438 "/>
<path style=" stroke:none;fill-rule:evenodd;fill:rgb(100%,89.411765%,76.470588%);fill-opacity:1;" d="M 102.851562 30.75 C 102.417969 30.75 101.984375 30.75 101.550781 30.75 C 101.550781 34.382812 101.550781 38.015625 101.550781 41.648438 C 101.449219 38 101.417969 34.332031 101.449219 30.648438 C 101.9375 30.617188 102.402344 30.652344 102.851562 30.75 Z M 102.851562 30.75 "/>
<path style=" stroke:none;fill-rule:evenodd;fill:rgb(100%,99.607843%,99.607843%);fill-opacity:1;" d="M 102.851562 30.75 C 103.707031 32.632812 104.539062 34.53125 105.351562 36.449219 C 105.398438 36.546875 105.449219 36.648438 105.5 36.75 C 105.550781 34.75 105.566406 32.75 105.550781 30.75 C 106.082031 30.75 106.617188 30.75 107.148438 30.75 C 107.148438 34.382812 107.148438 38.015625 107.148438 41.648438 C 106.710938 41.683594 106.277344 41.648438 105.851562 41.550781 C 105.015625 39.546875 104.183594 37.546875 103.351562 35.550781 C 103.320312 35.472656 103.273438 35.40625 103.199219 35.351562 C 103.148438 37.449219 103.132812 39.550781 103.148438 41.648438 C 102.617188 41.648438 102.082031 41.648438 101.550781 41.648438 C 101.550781 38.015625 101.550781 34.382812 101.550781 30.75 C 101.984375 30.75 102.417969 30.75 102.851562 30.75 Z M 102.851562 30.75 "/>
<path style=" stroke:none;fill-rule:evenodd;fill:rgb(99.607843%,71.372549%,36.078431%);fill-opacity:1;" d="M 105.550781 30.75 C 105.566406 32.75 105.550781 34.75 105.5 36.75 C 105.449219 36.648438 105.398438 36.546875 105.351562 36.449219 C 105.417969 34.550781 105.484375 32.648438 105.550781 30.75 Z M 105.550781 30.75 "/>
<path style=" stroke:none;fill-rule:evenodd;fill:rgb(100%,89.019608%,76.078431%);fill-opacity:1;" d="M 105.550781 30.75 C 106.097656 30.652344 106.664062 30.617188 107.25 30.648438 C 107.28125 34.332031 107.25 38 107.148438 41.648438 C 107.148438 38.015625 107.148438 34.382812 107.148438 30.75 C 106.617188 30.75 106.082031 30.75 105.550781 30.75 Z M 105.550781 30.75 "/>
<path style=" stroke:none;fill-rule:evenodd;fill:rgb(99.607843%,100%,99.607843%);fill-opacity:1;" d="M 108.351562 30.75 C 108.984375 30.75 109.617188 30.75 110.25 30.75 C 110.25 34.382812 110.25 38.015625 110.25 41.648438 C 109.617188 41.648438 108.984375 41.648438 108.351562 41.648438 C 108.351562 38.015625 108.351562 34.382812 108.351562 30.75 Z M 108.351562 30.75 "/>
<path style=" stroke:none;fill-rule:evenodd;fill:rgb(100%,89.019608%,75.686275%);fill-opacity:1;" d="M 108.351562 30.75 C 108.996094 30.652344 109.664062 30.617188 110.351562 30.648438 C 110.382812 34.332031 110.351562 38 110.25 41.648438 C 110.25 38.015625 110.25 34.382812 110.25 30.75 C 109.617188 30.75 108.984375 30.75 108.351562 30.75 Z M 108.351562 30.75 "/>
<path style=" stroke:none;fill-rule:evenodd;fill:rgb(100%,98.039216%,96.078431%);fill-opacity:1;" d="M 110.648438 30.648438 C 112.515625 30.632812 114.382812 30.648438 116.25 30.699219 C 116.382812 31.199219 116.382812 31.699219 116.25 32.199219 C 115.683594 32.25 115.117188 32.265625 114.550781 32.25 C 114.550781 35.382812 114.550781 38.515625 114.550781 41.648438 C 113.851562 41.648438 113.148438 41.648438 112.449219 41.648438 C 112.449219 38.515625 112.449219 35.382812 112.449219 32.25 C 111.851562 32.25 111.25 32.25 110.648438 32.25 C 110.648438 31.714844 110.648438 31.183594 110.648438 30.648438 Z M 110.648438 30.648438 "/>
<path style=" stroke:none;fill-rule:evenodd;fill:rgb(100%,99.607843%,99.215686%);fill-opacity:1;" d="M 116.648438 30.648438 C 117.316406 30.648438 117.984375 30.648438 118.648438 30.648438 C 118.648438 34.316406 118.648438 37.984375 118.648438 41.648438 C 117.984375 41.648438 117.316406 41.648438 116.648438 41.648438 C 116.648438 37.984375 116.648438 34.316406 116.648438 30.648438 Z M 116.648438 30.648438 "/>
<path style=" stroke:none;fill-rule:evenodd;fill:rgb(100%,99.215686%,98.823529%);fill-opacity:1;" d="M 123.851562 36.648438 C 123.148438 36.648438 122.449219 36.648438 121.75 36.648438 C 121.75 37.851562 121.75 39.050781 121.75 40.25 C 122.597656 40.347656 123.464844 40.382812 124.351562 40.351562 C 124.351562 40.785156 124.351562 41.214844 124.351562 41.648438 C 122.816406 41.648438 121.28125 41.648438 119.75 41.648438 C 119.75 37.984375 119.75 34.316406 119.75 30.648438 C 121.28125 30.648438 122.816406 30.648438 124.351562 30.648438 C 124.351562 31.148438 124.351562 31.648438 124.351562 32.148438 C 123.484375 32.148438 122.617188 32.148438 121.75 32.148438 C 121.75 33.183594 121.75 34.214844 121.75 35.25 C 122.449219 35.25 123.148438 35.25 123.851562 35.25 C 123.851562 35.714844 123.851562 36.183594 123.851562 36.648438 Z M 123.851562 36.648438 "/>
<path style=" stroke:none;fill-rule:evenodd;fill:rgb(99.215686%,61.568627%,14.509804%);fill-opacity:1;" d="M 55.648438 32.148438 C 56.09375 32.121094 56.527344 32.171875 56.949219 32.300781 C 57.199219 32.417969 57.382812 32.601562 57.5 32.851562 C 57.515625 33.917969 57.535156 34.984375 57.550781 36.050781 C 57.5625 37.253906 57.511719 38.457031 57.398438 39.648438 C 57.273438 39.9375 57.058594 40.121094 56.75 40.199219 C 56.386719 40.25 56.019531 40.265625 55.648438 40.25 C 55.648438 37.550781 55.648438 34.851562 55.648438 32.148438 Z M 55.648438 32.148438 "/>
<path style=" stroke:none;fill-rule:evenodd;fill:rgb(99.215686%,61.960784%,15.686275%);fill-opacity:1;" d="M 72.550781 32.050781 C 73.21875 31.925781 73.703125 32.160156 74 32.75 C 74.066406 35.015625 74.066406 37.285156 74 39.550781 C 73.855469 40.058594 73.523438 40.292969 73 40.25 C 72.382812 40.324219 72.015625 40.058594 71.898438 39.449219 C 71.832031 37.285156 71.832031 35.117188 71.898438 32.949219 C 71.988281 32.546875 72.203125 32.246094 72.550781 32.050781 Z M 72.550781 32.050781 "/>
<path style=" stroke:none;fill-rule:evenodd;fill:rgb(99.215686%,62.745098%,17.647059%);fill-opacity:1;" d="M 43.648438 37.449219 C 43.648438 37.550781 43.648438 37.648438 43.648438 37.75 C 43.214844 37.75 42.785156 37.75 42.351562 37.75 C 42.511719 36.34375 42.730469 34.941406 43 33.550781 C 43.261719 34.84375 43.476562 36.144531 43.648438 37.449219 Z M 43.648438 37.449219 "/>
<path style=" stroke:none;fill-rule:evenodd;fill:rgb(99.607843%,72.54902%,38.823529%);fill-opacity:1;" d="M 78.851562 34.949219 C 78.785156 35.214844 78.714844 35.484375 78.648438 35.75 C 78.632812 35.28125 78.648438 34.816406 78.699219 34.351562 C 78.78125 34.542969 78.832031 34.742188 78.851562 34.949219 Z M 78.851562 34.949219 "/>
<path style=" stroke:none;fill-rule:evenodd;fill:rgb(99.607843%,74.117647%,42.745098%);fill-opacity:1;" d="M 91.75 36.449219 C 91.683594 35.882812 91.617188 35.316406 91.550781 34.75 C 91.570312 34.609375 91.621094 34.472656 91.699219 34.351562 C 91.75 35.050781 91.765625 35.75 91.75 36.449219 Z M 91.75 36.449219 "/>
<path style=" stroke:none;fill-rule:evenodd;fill:rgb(99.607843%,80.392157%,56.862745%);fill-opacity:1;" d="M 48.648438 35.550781 C 48.582031 37.582031 48.515625 39.617188 48.449219 41.648438 C 48.433594 39.550781 48.449219 37.449219 48.5 35.351562 C 48.570312 35.40625 48.621094 35.472656 48.648438 35.550781 Z M 48.648438 35.550781 "/>
<path style=" stroke:none;fill-rule:evenodd;fill:rgb(99.607843%,80.392157%,56.862745%);fill-opacity:1;" d="M 103.351562 35.550781 C 103.28125 37.582031 103.21875 39.617188 103.148438 41.648438 C 103.132812 39.550781 103.148438 37.449219 103.199219 35.351562 C 103.273438 35.40625 103.320312 35.472656 103.351562 35.550781 Z M 103.351562 35.550781 "/>
<path style=" stroke:none;fill-rule:evenodd;fill:rgb(99.607843%,73.72549%,41.568627%);fill-opacity:1;" d="M 123.851562 36.648438 C 123.203125 36.75 122.535156 36.78125 121.851562 36.75 C 121.851562 37.917969 121.851562 39.082031 121.851562 40.25 C 121.816406 40.25 121.78125 40.25 121.75 40.25 C 121.75 39.050781 121.75 37.851562 121.75 36.648438 C 122.449219 36.648438 123.148438 36.648438 123.851562 36.648438 Z M 123.851562 36.648438 "/>
<path style=" stroke:none;fill-rule:evenodd;fill:rgb(99.607843%,72.941176%,39.607843%);fill-opacity:1;" d="M 43.648438 37.449219 C 43.742188 37.558594 43.777344 37.691406 43.75 37.851562 C 43.265625 37.882812 42.796875 37.847656 42.351562 37.75 C 42.785156 37.75 43.214844 37.75 43.648438 37.75 C 43.648438 37.648438 43.648438 37.550781 43.648438 37.449219 Z M 43.648438 37.449219 "/>
<path style=" stroke:none;fill-rule:evenodd;fill:rgb(99.607843%,74.901961%,44.313725%);fill-opacity:1;" d="M 126.25 38.148438 C 126.320312 38.058594 126.421875 38.027344 126.550781 38.050781 C 126.550781 38.285156 126.550781 38.515625 126.550781 38.75 C 126.507812 38.515625 126.40625 38.316406 126.25 38.148438 Z M 126.25 38.148438 "/>
<path style=" stroke:none;fill-rule:evenodd;fill:rgb(100%,87.843137%,72.941176%);fill-opacity:1;" d="M 121.75 40.25 C 121.78125 40.25 121.816406 40.25 121.851562 40.25 C 122.71875 40.25 123.582031 40.25 124.449219 40.25 C 124.480469 40.734375 124.449219 41.203125 124.351562 41.648438 C 124.351562 41.214844 124.351562 40.785156 124.351562 40.351562 C 123.464844 40.382812 122.597656 40.347656 121.75 40.25 Z M 121.75 40.25 "/>
<path style=" stroke:none;fill-rule:evenodd;fill:rgb(100%,99.607843%,99.215686%);fill-opacity:1;" d="M 52.050781 58.949219 C 59.550781 58.933594 67.050781 58.949219 74.550781 59 C 74.734375 59.050781 74.851562 59.167969 74.898438 59.351562 C 74.964844 84.617188 74.964844 109.882812 74.898438 135.148438 C 74.785156 135.265625 74.667969 135.382812 74.550781 135.5 C 67.082031 135.566406 59.617188 135.566406 52.148438 135.5 C 51.964844 135.449219 51.851562 135.332031 51.800781 135.148438 C 51.734375 109.851562 51.734375 84.550781 51.800781 59.25 C 51.90625 59.164062 51.988281 59.0625 52.050781 58.949219 Z M 52.050781 58.949219 "/>
<path style=" stroke:none;fill-rule:evenodd;fill:rgb(99.215686%,61.568627%,14.901961%);fill-opacity:1;" d="M 55.75 69.25 C 57.515625 69.234375 59.285156 69.25 61.050781 69.300781 C 61.101562 69.351562 61.148438 69.398438 61.199219 69.449219 C 61.265625 71.382812 61.265625 73.316406 61.199219 75.25 C 61.148438 75.300781 61.101562 75.351562 61.050781 75.398438 C 59.257812 75.484375 57.476562 75.464844 55.699219 75.351562 C 55.617188 73.308594 55.632812 71.277344 55.75 69.25 Z M 55.75 69.25 "/>
<path style=" stroke:none;fill-rule:evenodd;fill:rgb(99.215686%,61.568627%,14.901961%);fill-opacity:1;" d="M 65.648438 69.25 C 67.417969 69.234375 69.183594 69.25 70.949219 69.300781 C 71 69.351562 71.050781 69.398438 71.101562 69.449219 C 71.183594 71.441406 71.164062 73.425781 71.050781 75.398438 C 69.226562 75.484375 67.410156 75.464844 65.601562 75.351562 C 65.519531 73.308594 65.535156 71.277344 65.648438 69.25 Z M 65.648438 69.25 "/>
<path style=" stroke:none;fill-rule:evenodd;fill:rgb(100%,99.607843%,99.215686%);fill-opacity:1;" d="M 100.148438 72.851562 C 100.386719 72.832031 100.617188 72.851562 100.851562 72.898438 C 100.914062 72.976562 100.964844 73.058594 101 73.148438 C 101.066406 93.882812 101.066406 114.617188 101 135.351562 C 100.917969 135.433594 100.832031 135.515625 100.75 135.601562 C 93.25 135.667969 85.75 135.667969 78.25 135.601562 C 78.167969 135.515625 78.082031 135.433594 78 135.351562 C 77.933594 123.882812 77.933594 112.417969 78 100.949219 C 85.382812 91.582031 92.765625 82.214844 100.148438 72.851562 Z M 100.148438 72.851562 "/>
<path style=" stroke:none;fill-rule:evenodd;fill:rgb(99.215686%,61.568627%,14.509804%);fill-opacity:1;" d="M 97.550781 81.148438 C 97.867188 81.101562 98.152344 81.167969 98.398438 81.351562 C 98.464844 83.851562 98.464844 86.351562 98.398438 88.851562 C 98.316406 88.933594 98.234375 89.015625 98.148438 89.101562 C 96.113281 89.183594 94.078125 89.164062 92.050781 89.050781 C 91.726562 88.792969 91.679688 88.496094 91.898438 88.148438 C 93.765625 85.800781 95.648438 83.46875 97.550781 81.148438 Z M 97.550781 81.148438 "/>
<path style=" stroke:none;fill-rule:evenodd;fill:rgb(99.215686%,61.568627%,14.509804%);fill-opacity:1;" d="M 55.648438 82.25 C 57.507812 82.21875 59.359375 82.25 61.199219 82.351562 C 61.28125 84.339844 61.265625 86.324219 61.148438 88.300781 C 59.324219 88.382812 57.507812 88.367188 55.699219 88.25 C 55.648438 86.25 55.632812 84.25 55.648438 82.25 Z M 55.648438 82.25 "/>
<path style=" stroke:none;fill-rule:evenodd;fill:rgb(99.215686%,61.568627%,14.509804%);fill-opacity:1;" d="M 65.550781 82.25 C 67.40625 82.21875 69.257812 82.25 71.101562 82.351562 C 71.183594 84.339844 71.164062 86.324219 71.050781 88.300781 C 69.226562 88.382812 67.410156 88.367188 65.601562 88.25 C 65.550781 86.25 65.535156 84.25 65.550781 82.25 Z M 65.550781 82.25 "/>
<path style=" stroke:none;fill-rule:evenodd;fill:rgb(99.215686%,61.568627%,14.509804%);fill-opacity:1;" d="M 91.148438 91.648438 C 93.515625 91.632812 95.882812 91.648438 98.25 91.699219 C 98.300781 91.75 98.351562 91.800781 98.398438 91.851562 C 98.464844 93.417969 98.464844 94.984375 98.398438 96.550781 C 98.351562 96.601562 98.300781 96.648438 98.25 96.699219 C 95.851562 96.765625 93.449219 96.765625 91.050781 96.699219 C 90.988281 96.625 90.9375 96.542969 90.898438 96.449219 C 90.832031 94.949219 90.832031 93.449219 90.898438 91.949219 C 91.003906 91.863281 91.085938 91.761719 91.148438 91.648438 Z M 91.148438 91.648438 "/>
<path style=" stroke:none;fill-rule:evenodd;fill:rgb(99.215686%,61.568627%,14.509804%);fill-opacity:1;" d="M 87.648438 94.050781 C 87.996094 94.015625 88.246094 94.148438 88.398438 94.449219 C 88.464844 97.683594 88.464844 100.917969 88.398438 104.148438 C 88.308594 104.269531 88.191406 104.351562 88.050781 104.398438 C 85.75 104.46875 83.449219 104.46875 81.148438 104.398438 C 81.066406 104.316406 80.984375 104.234375 80.898438 104.148438 C 80.832031 103.582031 80.832031 103.015625 80.898438 102.449219 C 83.09375 99.605469 85.34375 96.804688 87.648438 94.050781 Z M 87.648438 94.050781 "/>
<path style=" stroke:none;fill-rule:evenodd;fill:rgb(99.215686%,61.568627%,14.509804%);fill-opacity:1;" d="M 55.75 95.148438 C 57.550781 95.132812 59.351562 95.148438 61.148438 95.199219 C 61.214844 96.191406 61.25 97.191406 61.25 98.199219 C 61.25 99.207031 61.214844 100.207031 61.148438 101.199219 C 59.316406 101.25 57.484375 101.265625 55.648438 101.25 C 55.617188 99.210938 55.652344 97.175781 55.75 95.148438 Z M 55.75 95.148438 "/>
<path style=" stroke:none;fill-rule:evenodd;fill:rgb(99.215686%,61.568627%,14.509804%);fill-opacity:1;" d="M 65.648438 95.148438 C 67.449219 95.132812 69.25 95.148438 71.050781 95.199219 C 71.117188 96.191406 71.148438 97.191406 71.148438 98.199219 C 71.148438 99.207031 71.117188 100.207031 71.050781 101.199219 C 69.21875 101.25 67.382812 101.265625 65.550781 101.25 C 65.519531 99.210938 65.550781 97.175781 65.648438 95.148438 Z M 65.648438 95.148438 "/>
<path style=" stroke:none;fill-rule:evenodd;fill:rgb(100%,99.607843%,99.607843%);fill-opacity:1;" d="M 36.351562 98.550781 C 36.550781 98.535156 36.753906 98.550781 36.949219 98.601562 C 40.871094 103.554688 44.753906 108.539062 48.601562 113.550781 C 48.675781 113.808594 48.660156 114.058594 48.550781 114.300781 C 44.625 114.414062 40.691406 114.464844 36.75 114.449219 C 32.882812 114.433594 29.015625 114.417969 25.148438 114.398438 C 25.058594 114.363281 24.976562 114.3125 24.898438 114.25 C 24.832031 114.015625 24.832031 113.78125 24.898438 113.550781 C 28.742188 108.566406 32.558594 103.566406 36.351562 98.550781 Z M 36.351562 98.550781 "/>
<path style=" stroke:none;fill-rule:evenodd;fill:rgb(99.215686%,61.568627%,14.117647%);fill-opacity:1;" d="M 91.148438 99.25 C 93.558594 99.203125 95.960938 99.253906 98.351562 99.398438 C 98.464844 100.976562 98.480469 102.558594 98.398438 104.148438 C 98.351562 104.199219 98.300781 104.25 98.25 104.300781 C 95.851562 104.367188 93.449219 104.367188 91.050781 104.300781 C 90.988281 104.226562 90.9375 104.140625 90.898438 104.050781 C 90.832031 102.550781 90.832031 101.050781 90.898438 99.550781 C 91.003906 99.460938 91.085938 99.363281 91.148438 99.25 Z M 91.148438 99.25 "/>
<path style=" stroke:none;fill-rule:evenodd;fill:rgb(100%,99.607843%,99.215686%);fill-opacity:1;" d="M 103.949219 104.550781 C 111.648438 104.53125 119.351562 104.550781 127.050781 104.601562 C 127.167969 104.648438 127.25 104.734375 127.300781 104.851562 C 127.367188 106.484375 127.367188 108.117188 127.300781 109.75 C 127.21875 109.832031 127.132812 109.917969 127.050781 110 C 119.351562 110.066406 111.648438 110.066406 103.949219 110 C 103.867188 109.917969 103.78125 109.832031 103.699219 109.75 C 103.632812 108.117188 103.632812 106.484375 103.699219 104.851562 C 103.804688 104.761719 103.886719 104.664062 103.949219 104.550781 Z M 103.949219 104.550781 "/>
<path style=" stroke:none;fill-rule:evenodd;fill:rgb(99.215686%,61.568627%,14.509804%);fill-opacity:1;" d="M 81.148438 106.851562 C 83.484375 106.832031 85.816406 106.851562 88.148438 106.898438 C 88.234375 106.984375 88.316406 107.066406 88.398438 107.148438 C 88.496094 108.726562 88.464844 110.292969 88.300781 111.851562 C 88.191406 111.917969 88.078125 111.96875 87.949219 112 C 85.683594 112.066406 83.417969 112.066406 81.148438 112 C 81.066406 111.917969 80.984375 111.832031 80.898438 111.75 C 80.832031 110.183594 80.832031 108.617188 80.898438 107.050781 C 81 106.992188 81.082031 106.925781 81.148438 106.851562 Z M 81.148438 106.851562 "/>
<path style=" stroke:none;fill-rule:evenodd;fill:rgb(99.215686%,61.568627%,14.901961%);fill-opacity:1;" d="M 91.148438 106.851562 C 93.558594 106.800781 95.960938 106.851562 98.351562 107 C 98.464844 108.574219 98.480469 110.160156 98.398438 111.75 C 98.316406 111.832031 98.234375 111.917969 98.148438 112 C 95.773438 112.097656 93.40625 112.066406 91.050781 111.898438 C 90.988281 111.824219 90.9375 111.742188 90.898438 111.648438 C 90.832031 110.148438 90.832031 108.648438 90.898438 107.148438 C 91.003906 107.0625 91.085938 106.964844 91.148438 106.851562 Z M 91.148438 106.851562 "/>
<path style=" stroke:none;fill-rule:evenodd;fill:rgb(99.215686%,61.568627%,14.509804%);fill-opacity:1;" d="M 55.75 108.050781 C 57.515625 108.03125 59.285156 108.050781 61.050781 108.101562 C 61.101562 108.148438 61.148438 108.199219 61.199219 108.25 C 61.265625 110.183594 61.265625 112.117188 61.199219 114.050781 C 61.148438 114.101562 61.101562 114.148438 61.050781 114.199219 C 59.257812 114.28125 57.476562 114.265625 55.699219 114.148438 C 55.617188 112.109375 55.632812 110.074219 55.75 108.050781 Z M 55.75 108.050781 "/>
<path style=" stroke:none;fill-rule:evenodd;fill:rgb(99.215686%,61.568627%,14.509804%);fill-opacity:1;" d="M 65.648438 108.050781 C 67.453125 108.019531 69.253906 108.050781 71.050781 108.148438 C 71.183594 110.148438 71.183594 112.148438 71.050781 114.148438 C 69.230469 114.28125 67.414062 114.28125 65.601562 114.148438 C 65.519531 112.109375 65.535156 110.074219 65.648438 108.050781 Z M 65.648438 108.050781 "/>
<path style=" stroke:none;fill-rule:evenodd;fill:rgb(100%,99.607843%,99.215686%);fill-opacity:1;" d="M 103.949219 111.851562 C 111.648438 111.832031 119.351562 111.851562 127.050781 111.898438 C 127.132812 111.984375 127.21875 112.066406 127.300781 112.148438 C 127.367188 119.882812 127.367188 127.617188 127.300781 135.351562 C 127.261719 135.441406 127.214844 135.523438 127.148438 135.601562 C 119.492188 135.765625 111.824219 135.800781 104.148438 135.699219 C 104 135.640625 103.867188 135.558594 103.75 135.449219 C 103.632812 127.6875 103.617188 119.921875 103.699219 112.148438 C 103.804688 112.0625 103.886719 111.964844 103.949219 111.851562 Z M 103.949219 111.851562 "/>
<path style=" stroke:none;fill-rule:evenodd;fill:rgb(99.215686%,61.568627%,14.509804%);fill-opacity:1;" d="M 81.148438 114.449219 C 83.484375 114.433594 85.816406 114.449219 88.148438 114.5 C 88.234375 114.582031 88.316406 114.667969 88.398438 114.75 C 88.496094 116.324219 88.464844 117.894531 88.300781 119.449219 C 88.226562 119.511719 88.140625 119.5625 88.050781 119.601562 C 85.75 119.667969 83.449219 119.667969 81.148438 119.601562 C 81.066406 119.515625 80.984375 119.433594 80.898438 119.351562 C 80.832031 117.78125 80.832031 116.21875 80.898438 114.648438 C 81 114.59375 81.082031 114.527344 81.148438 114.449219 Z M 81.148438 114.449219 "/>
<path style=" stroke:none;fill-rule:evenodd;fill:rgb(99.215686%,61.568627%,14.901961%);fill-opacity:1;" d="M 91.148438 114.449219 C 93.558594 114.402344 95.960938 114.453125 98.351562 114.601562 C 98.464844 116.175781 98.480469 117.757812 98.398438 119.351562 C 98.316406 119.433594 98.234375 119.515625 98.148438 119.601562 C 95.773438 119.699219 93.40625 119.664062 91.050781 119.5 C 90.988281 119.425781 90.9375 119.34375 90.898438 119.25 C 90.832031 117.75 90.832031 116.25 90.898438 114.75 C 91.003906 114.664062 91.085938 114.5625 91.148438 114.449219 Z M 91.148438 114.449219 "/>
<path style=" stroke:none;fill-rule:evenodd;fill:rgb(99.215686%,61.568627%,14.509804%);fill-opacity:1;" d="M 106.851562 114.550781 C 109.285156 114.53125 111.71875 114.550781 114.148438 114.601562 C 114.234375 114.683594 114.316406 114.765625 114.398438 114.851562 C 114.46875 116.351562 114.46875 117.851562 114.398438 119.351562 C 114.316406 119.433594 114.234375 119.515625 114.148438 119.601562 C 111.71875 119.667969 109.28125 119.667969 106.851562 119.601562 C 106.800781 119.550781 106.75 119.5 106.699219 119.449219 C 106.632812 117.882812 106.632812 116.316406 106.699219 114.75 C 106.773438 114.695312 106.820312 114.628906 106.851562 114.550781 Z M 106.851562 114.550781 "/>
<path style=" stroke:none;fill-rule:evenodd;fill:rgb(99.215686%,61.568627%,14.509804%);fill-opacity:1;" d="M 117.148438 114.550781 C 119.585938 114.53125 122.015625 114.550781 124.449219 114.601562 C 124.53125 114.683594 124.617188 114.765625 124.699219 114.851562 C 124.765625 116.351562 124.765625 117.851562 124.699219 119.351562 C 124.617188 119.433594 124.53125 119.515625 124.449219 119.601562 C 122.015625 119.667969 119.582031 119.667969 117.148438 119.601562 C 117.101562 119.550781 117.050781 119.5 117 119.449219 C 116.933594 117.882812 116.933594 116.316406 117 114.75 C 117.070312 114.695312 117.121094 114.628906 117.148438 114.550781 Z M 117.148438 114.550781 "/>
<path style=" stroke:none;fill-rule:evenodd;fill:rgb(100%,99.215686%,98.823529%);fill-opacity:1;" d="M 25.050781 116.449219 C 32.785156 116.433594 40.515625 116.449219 48.25 116.5 C 48.367188 116.617188 48.484375 116.734375 48.601562 116.851562 C 48.667969 122.917969 48.667969 128.984375 48.601562 135.050781 C 48.554688 135.191406 48.46875 135.308594 48.351562 135.398438 C 45.71875 135.449219 43.082031 135.46875 40.449219 135.449219 C 40.464844 131.617188 40.449219 127.78125 40.398438 123.949219 C 40.351562 123.898438 40.300781 123.851562 40.25 123.800781 C 37.785156 123.734375 35.316406 123.734375 32.851562 123.800781 C 32.800781 123.851562 32.75 123.898438 32.699219 123.949219 C 32.648438 127.78125 32.632812 131.617188 32.648438 135.449219 C 30.082031 135.46875 27.515625 135.449219 24.949219 135.398438 C 24.828125 135.308594 24.746094 135.191406 24.699219 135.050781 C 24.632812 128.984375 24.632812 122.917969 24.699219 116.851562 C 24.835938 116.730469 24.953125 116.597656 25.050781 116.449219 Z M 25.050781 116.449219 "/>
<path style=" stroke:none;fill-rule:evenodd;fill:rgb(99.215686%,61.568627%,14.901961%);fill-opacity:1;" d="M 55.75 120.949219 C 57.515625 120.933594 59.285156 120.949219 61.050781 121 C 61.101562 121.050781 61.148438 121.101562 61.199219 121.148438 C 61.28125 123.140625 61.265625 125.125 61.148438 127.101562 C 59.324219 127.183594 57.507812 127.164062 55.699219 127.050781 C 55.617188 125.007812 55.632812 122.976562 55.75 120.949219 Z M 55.75 120.949219 "/>
<path style=" stroke:none;fill-rule:evenodd;fill:rgb(99.215686%,61.568627%,14.901961%);fill-opacity:1;" d="M 65.648438 120.949219 C 67.417969 120.933594 69.183594 120.949219 70.949219 121 C 71 121.050781 71.050781 121.101562 71.101562 121.148438 C 71.183594 123.140625 71.164062 125.125 71.050781 127.101562 C 69.226562 127.183594 67.410156 127.164062 65.601562 127.050781 C 65.519531 125.007812 65.535156 122.976562 65.648438 120.949219 Z M 65.648438 120.949219 "/>
<path style=" stroke:none;fill-rule:evenodd;fill:rgb(99.215686%,61.568627%,14.509804%);fill-opacity:1;" d="M 81.148438 122.050781 C 83.484375 122.03125 85.816406 122.050781 88.148438 122.101562 C 88.234375 122.183594 88.316406 122.265625 88.398438 122.351562 C 88.496094 123.925781 88.464844 125.492188 88.300781 127.050781 C 88.226562 127.113281 88.140625 127.164062 88.050781 127.199219 C 85.75 127.265625 83.449219 127.265625 81.148438 127.199219 C 81.066406 127.117188 80.984375 127.03125 80.898438 126.949219 C 80.832031 125.382812 80.832031 123.816406 80.898438 122.25 C 81 122.191406 81.082031 122.128906 81.148438 122.050781 Z M 81.148438 122.050781 "/>
<path style=" stroke:none;fill-rule:evenodd;fill:rgb(99.215686%,61.568627%,14.901961%);fill-opacity:1;" d="M 91.148438 122.050781 C 93.558594 122.003906 95.960938 122.050781 98.351562 122.199219 C 98.484375 123.8125 98.484375 125.429688 98.351562 127.050781 C 98.296875 127.117188 98.230469 127.167969 98.148438 127.199219 C 95.816406 127.265625 93.484375 127.265625 91.148438 127.199219 C 91.03125 127.109375 90.945312 126.992188 90.898438 126.851562 C 90.832031 125.351562 90.832031 123.851562 90.898438 122.351562 C 91.003906 122.261719 91.085938 122.164062 91.148438 122.050781 Z M 91.148438 122.050781 "/>
<path style=" stroke:none;fill-rule:evenodd;fill:rgb(99.215686%,61.960784%,15.294118%);fill-opacity:1;" d="M 106.949219 122.050781 C 109.390625 122.003906 111.824219 122.050781 114.25 122.199219 C 114.3125 122.273438 114.363281 122.359375 114.398438 122.449219 C 114.417969 123.183594 114.433594 123.917969 114.449219 124.648438 C 114.464844 125.460938 114.414062 126.261719 114.300781 127.050781 C 114.226562 127.113281 114.140625 127.164062 114.050781 127.199219 C 111.683594 127.265625 109.316406 127.265625 106.949219 127.199219 C 106.867188 127.117188 106.78125 127.03125 106.699219 126.949219 C 106.632812 125.417969 106.632812 123.882812 106.699219 122.351562 C 106.804688 122.261719 106.886719 122.164062 106.949219 122.050781 Z M 106.949219 122.050781 "/>
<path style=" stroke:none;fill-rule:evenodd;fill:rgb(99.215686%,61.960784%,15.294118%);fill-opacity:1;" d="M 117.25 122.050781 C 119.691406 122.003906 122.125 122.050781 124.550781 122.199219 C 124.613281 122.273438 124.664062 122.359375 124.699219 122.449219 C 124.71875 123.183594 124.734375 123.917969 124.75 124.648438 C 124.765625 125.460938 124.714844 126.261719 124.601562 127.050781 C 124.523438 127.113281 124.441406 127.164062 124.351562 127.199219 C 121.984375 127.265625 119.617188 127.265625 117.25 127.199219 C 117.167969 127.117188 117.082031 127.03125 117 126.949219 C 116.933594 125.417969 116.933594 123.882812 117 122.351562 C 117.105469 122.261719 117.1875 122.164062 117.25 122.050781 Z M 117.25 122.050781 "/>
</g>
</svg>
