<?xml version="1.0" encoding="UTF-8"?>
<svg xmlns="http://www.w3.org/2000/svg" xmlns:xlink="http://www.w3.org/1999/xlink" width="150px" height="150px" viewBox="0 0 150 150" version="1.1">
<g id="surface1">
<path style=" stroke:none;fill-rule:evenodd;fill:rgb(33.72549%,75.294118%,16.862745%);fill-opacity:1;" d="M -0.0507812 -0.0507812 C 49.949219 -0.0507812 99.949219 -0.0507812 149.949219 -0.0507812 C 149.949219 49.949219 149.949219 99.949219 149.949219 149.949219 C 99.949219 149.949219 49.949219 149.949219 -0.0507812 149.949219 C -0.0507812 99.949219 -0.0507812 49.949219 -0.0507812 -0.0507812 Z M -0.0507812 -0.0507812 "/>
<path style=" stroke:none;fill-rule:evenodd;fill:rgb(75.686275%,90.588235%,69.411765%);fill-opacity:1;" d="M 58.351562 14.25 C 59.132812 14.152344 59.929688 14.117188 60.75 14.148438 C 60.75 13.714844 60.75 13.285156 60.75 12.851562 C 59.285156 12.851562 57.816406 12.851562 56.351562 12.851562 C 56.351562 16.484375 56.351562 20.117188 56.351562 23.75 C 56.25 20.101562 56.21875 16.433594 56.25 12.75 C 57.785156 12.75 59.316406 12.75 60.851562 12.75 C 60.851562 13.25 60.851562 13.75 60.851562 14.25 C 60.015625 14.25 59.183594 14.25 58.351562 14.25 Z M 58.351562 14.25 "/>
<path style=" stroke:none;fill-rule:evenodd;fill:rgb(99.607843%,99.607843%,99.607843%);fill-opacity:1;" d="M 8.550781 19.949219 C 8.449219 18.632812 8.417969 17.300781 8.449219 15.949219 C 10.359375 15.214844 12.089844 14.195312 13.648438 12.898438 C 15.117188 12.851562 16.582031 12.832031 18.050781 12.851562 C 18.050781 22.382812 18.050781 31.917969 18.050781 41.449219 C 16.214844 41.449219 14.382812 41.449219 12.550781 41.449219 C 12.550781 33.816406 12.550781 26.183594 12.550781 18.550781 C 11.226562 19.035156 9.890625 19.503906 8.550781 19.949219 Z M 8.550781 19.949219 "/>
<path style=" stroke:none;fill-rule:evenodd;fill:rgb(99.607843%,99.607843%,99.607843%);fill-opacity:1;" d="M 35.050781 12.851562 C 35.050781 14.382812 35.050781 15.917969 35.050781 17.449219 C 32.132812 17.417969 29.234375 17.449219 26.351562 17.550781 C 26.25 19.617188 26.167969 21.683594 26.101562 23.75 C 27.804688 22.546875 29.6875 22.164062 31.75 22.601562 C 33.433594 23.082031 34.613281 24.132812 35.300781 25.75 C 36.015625 27.597656 36.332031 29.515625 36.25 31.5 C 36.292969 33.585938 36.042969 35.636719 35.5 37.648438 C 34.539062 40.277344 32.65625 41.695312 29.851562 41.898438 C 24.183594 42.546875 21.316406 40.03125 21.25 34.351562 C 21.25 33.984375 21.25 33.617188 21.25 33.25 C 22.984375 33.25 24.714844 33.25 26.449219 33.25 C 26.417969 33.539062 26.453125 33.804688 26.550781 34.050781 C 26.570312 35.003906 26.71875 35.9375 27 36.851562 C 27.535156 37.757812 28.320312 38.074219 29.351562 37.800781 C 30.0625 37.621094 30.515625 37.167969 30.699219 36.449219 C 30.804688 36.125 30.871094 35.792969 30.898438 35.449219 C 31.128906 33.113281 31.097656 30.777344 30.800781 28.449219 C 30.457031 26.917969 29.507812 26.304688 27.949219 26.601562 C 26.933594 27.097656 26.367188 27.914062 26.25 29.050781 C 24.683594 29.050781 23.117188 29.050781 21.550781 29.050781 C 21.550781 28.449219 21.550781 27.851562 21.550781 27.25 C 21.613281 22.449219 21.710938 17.648438 21.851562 12.851562 C 26.25 12.851562 30.648438 12.851562 35.050781 12.851562 Z M 35.050781 12.851562 "/>
<path style=" stroke:none;fill-rule:evenodd;fill:rgb(99.607843%,99.607843%,99.607843%);fill-opacity:1;" d="M 47.75 12.75 C 48.417969 12.75 49.082031 12.75 49.75 12.75 C 49.75 15.949219 49.75 19.148438 49.75 22.351562 C 50.617188 22.351562 51.484375 22.351562 52.351562 22.351562 C 52.351562 22.816406 52.351562 23.285156 52.351562 23.75 C 50.816406 23.75 49.285156 23.75 47.75 23.75 C 47.75 20.082031 47.75 16.417969 47.75 12.75 Z M 47.75 12.75 "/>
<path style=" stroke:none;fill-rule:evenodd;fill:rgb(99.607843%,99.607843%,99.607843%);fill-opacity:1;" d="M 53.050781 12.75 C 53.714844 12.75 54.382812 12.75 55.050781 12.75 C 55.050781 16.417969 55.050781 20.082031 55.050781 23.75 C 54.382812 23.75 53.714844 23.75 53.050781 23.75 C 53.050781 20.082031 53.050781 16.417969 53.050781 12.75 Z M 53.050781 12.75 "/>
<path style=" stroke:none;fill-rule:evenodd;fill:rgb(99.215686%,99.607843%,99.215686%);fill-opacity:1;" d="M 58.351562 14.25 C 58.351562 15.285156 58.351562 16.316406 58.351562 17.351562 C 59.015625 17.351562 59.683594 17.351562 60.351562 17.351562 C 60.351562 17.816406 60.351562 18.285156 60.351562 18.75 C 59.683594 18.75 59.015625 18.75 58.351562 18.75 C 58.351562 20.417969 58.351562 22.082031 58.351562 23.75 C 57.683594 23.75 57.015625 23.75 56.351562 23.75 C 56.351562 20.117188 56.351562 16.484375 56.351562 12.851562 C 57.816406 12.851562 59.285156 12.851562 60.75 12.851562 C 60.75 13.285156 60.75 13.714844 60.75 14.148438 C 59.929688 14.117188 59.132812 14.152344 58.351562 14.25 Z M 58.351562 14.25 "/>
<path style=" stroke:none;fill-rule:evenodd;fill:rgb(99.215686%,99.607843%,99.215686%);fill-opacity:1;" d="M 65.550781 18.75 C 64.851562 18.75 64.148438 18.75 63.449219 18.75 C 63.449219 19.949219 63.449219 21.148438 63.449219 22.351562 C 64.296875 22.449219 65.164062 22.484375 66.050781 22.449219 C 66.050781 22.882812 66.050781 23.316406 66.050781 23.75 C 64.515625 23.75 62.984375 23.75 61.449219 23.75 C 61.449219 20.082031 61.449219 16.417969 61.449219 12.75 C 62.984375 12.75 64.515625 12.75 66.050781 12.75 C 66.050781 13.25 66.050781 13.75 66.050781 14.25 C 65.183594 14.25 64.316406 14.25 63.449219 14.25 C 63.449219 15.285156 63.449219 16.316406 63.449219 17.351562 C 64.148438 17.351562 64.851562 17.351562 65.550781 17.351562 C 65.550781 17.816406 65.550781 18.285156 65.550781 18.75 Z M 65.550781 18.75 "/>
<path style=" stroke:none;fill-rule:evenodd;fill:rgb(67.058824%,87.843137%,58.431373%);fill-opacity:1;" d="M 8.449219 15.949219 C 8.417969 17.300781 8.449219 18.632812 8.550781 19.949219 C 8.542969 20.003906 8.511719 20.039062 8.449219 20.050781 C 8.316406 18.667969 8.316406 17.300781 8.449219 15.949219 Z M 8.449219 15.949219 "/>
<path style=" stroke:none;fill-rule:evenodd;fill:rgb(79.215686%,92.156863%,73.72549%);fill-opacity:1;" d="M 35.050781 12.851562 C 35.148438 14.398438 35.183594 15.964844 35.148438 17.550781 C 32.214844 17.550781 29.285156 17.550781 26.351562 17.550781 C 29.234375 17.449219 32.132812 17.417969 35.050781 17.449219 C 35.050781 15.917969 35.050781 14.382812 35.050781 12.851562 Z M 35.050781 12.851562 "/>
<path style=" stroke:none;fill-rule:evenodd;fill:rgb(50.196078%,81.568627%,37.647059%);fill-opacity:1;" d="M 65.550781 18.75 C 64.902344 18.847656 64.234375 18.882812 63.550781 18.851562 C 63.550781 20.015625 63.550781 21.183594 63.550781 22.351562 C 63.515625 22.351562 63.484375 22.351562 63.449219 22.351562 C 63.449219 21.148438 63.449219 19.949219 63.449219 18.75 C 64.148438 18.75 64.851562 18.75 65.550781 18.75 Z M 65.550781 18.75 "/>
<path style=" stroke:none;fill-rule:evenodd;fill:rgb(79.215686%,92.156863%,73.72549%);fill-opacity:1;" d="M 63.449219 22.351562 C 63.484375 22.351562 63.515625 22.351562 63.550781 22.351562 C 64.417969 22.351562 65.285156 22.351562 66.148438 22.351562 C 66.183594 22.835938 66.148438 23.304688 66.050781 23.75 C 66.050781 23.316406 66.050781 22.882812 66.050781 22.449219 C 65.164062 22.484375 64.296875 22.449219 63.449219 22.351562 Z M 63.449219 22.351562 "/>
<path style=" stroke:none;fill-rule:evenodd;fill:rgb(81.568627%,92.941176%,77.254902%);fill-opacity:1;" d="M 21.550781 27.25 C 21.550781 27.851562 21.550781 28.449219 21.550781 29.050781 C 23.117188 29.050781 24.683594 29.050781 26.25 29.050781 C 24.667969 29.148438 23.066406 29.183594 21.449219 29.148438 C 21.417969 28.496094 21.449219 27.863281 21.550781 27.25 Z M 21.550781 27.25 "/>
<path style=" stroke:none;fill-rule:evenodd;fill:rgb(99.215686%,99.607843%,99.215686%);fill-opacity:1;" d="M 50.050781 30.550781 C 51.007812 30.464844 51.90625 30.648438 52.75 31.101562 C 53.320312 31.589844 53.667969 32.207031 53.800781 32.949219 C 53.894531 35.21875 53.859375 37.488281 53.699219 39.75 C 53.386719 40.964844 52.601562 41.648438 51.351562 41.800781 C 49.1875 42.101562 47.9375 41.183594 47.601562 39.050781 C 47.507812 36.878906 47.542969 34.714844 47.699219 32.550781 C 48.078125 31.386719 48.863281 30.71875 50.050781 30.550781 Z M 50.050781 30.550781 "/>
<path style=" stroke:none;fill-rule:evenodd;fill:rgb(99.607843%,99.607843%,99.607843%);fill-opacity:1;" d="M 58.851562 36.648438 C 58.878906 36.730469 58.929688 36.796875 59 36.851562 C 59.050781 34.816406 59.066406 32.785156 59.050781 30.75 C 59.582031 30.75 60.117188 30.75 60.648438 30.75 C 60.648438 34.382812 60.648438 38.015625 60.648438 41.648438 C 60.183594 41.648438 59.714844 41.648438 59.25 41.648438 C 58.4375 39.542969 57.601562 37.441406 56.75 35.351562 C 56.742188 35.296875 56.710938 35.261719 56.648438 35.25 C 56.550781 37.382812 56.515625 39.515625 56.550781 41.648438 C 56.015625 41.648438 55.484375 41.648438 54.949219 41.648438 C 54.949219 38.015625 54.949219 34.382812 54.949219 30.75 C 55.441406 30.71875 55.925781 30.753906 56.398438 30.851562 C 57.226562 32.78125 58.042969 34.714844 58.851562 36.648438 Z M 58.851562 36.648438 "/>
<path style=" stroke:none;fill-rule:evenodd;fill:rgb(80.392157%,92.54902%,75.294118%);fill-opacity:1;" d="M 60.648438 30.75 C 60.117188 30.75 59.582031 30.75 59.050781 30.75 C 59.066406 32.785156 59.050781 34.816406 59 36.851562 C 58.929688 36.796875 58.878906 36.730469 58.851562 36.648438 C 58.949219 34.667969 58.984375 32.667969 58.949219 30.648438 C 59.535156 30.617188 60.101562 30.652344 60.648438 30.75 Z M 60.648438 30.75 "/>
<path style=" stroke:none;fill-rule:evenodd;fill:rgb(81.176471%,92.54902%,76.470588%);fill-opacity:1;" d="M 66.75 30.75 C 66.117188 30.75 65.484375 30.75 64.851562 30.75 C 64.851562 34.382812 64.851562 38.015625 64.851562 41.648438 C 64.75 38 64.71875 34.332031 64.75 30.648438 C 65.433594 30.617188 66.101562 30.652344 66.75 30.75 Z M 66.75 30.75 "/>
<path style=" stroke:none;fill-rule:evenodd;fill:rgb(99.607843%,99.607843%,99.607843%);fill-opacity:1;" d="M 66.75 30.75 C 66.75 33.917969 66.75 37.082031 66.75 40.25 C 67.617188 40.25 68.484375 40.25 69.351562 40.25 C 69.351562 40.714844 69.351562 41.183594 69.351562 41.648438 C 67.851562 41.648438 66.351562 41.648438 64.851562 41.648438 C 64.851562 38.015625 64.851562 34.382812 64.851562 30.75 C 65.484375 30.75 66.117188 30.75 66.75 30.75 Z M 66.75 30.75 "/>
<path style=" stroke:none;fill-rule:evenodd;fill:rgb(99.215686%,99.607843%,99.215686%);fill-opacity:1;" d="M 69.550781 41.648438 C 69.550781 41.582031 69.550781 41.515625 69.550781 41.449219 C 70.238281 37.878906 70.9375 34.3125 71.648438 30.75 C 72.382812 30.75 73.117188 30.75 73.851562 30.75 C 74.527344 34.378906 75.257812 37.996094 76.050781 41.601562 C 75.417969 41.648438 74.785156 41.667969 74.148438 41.648438 C 74.015625 40.816406 73.882812 39.984375 73.75 39.148438 C 73.082031 39.148438 72.417969 39.148438 71.75 39.148438 C 71.617188 39.976562 71.519531 40.8125 71.449219 41.648438 C 70.816406 41.648438 70.183594 41.648438 69.550781 41.648438 Z M 69.550781 41.648438 "/>
<path style=" stroke:none;fill-rule:evenodd;fill:rgb(81.568627%,92.941176%,77.254902%);fill-opacity:1;" d="M 78.050781 30.75 C 77.617188 30.75 77.183594 30.75 76.75 30.75 C 76.75 34.382812 76.75 38.015625 76.75 41.648438 C 76.648438 38 76.617188 34.332031 76.648438 30.648438 C 77.136719 30.617188 77.601562 30.652344 78.050781 30.75 Z M 78.050781 30.75 "/>
<path style=" stroke:none;fill-rule:evenodd;fill:rgb(99.607843%,99.607843%,99.607843%);fill-opacity:1;" d="M 78.050781 30.75 C 78.90625 32.632812 79.742188 34.53125 80.550781 36.449219 C 80.597656 36.546875 80.648438 36.648438 80.699219 36.75 C 80.75 34.75 80.765625 32.75 80.75 30.75 C 81.285156 30.75 81.816406 30.75 82.351562 30.75 C 82.351562 34.382812 82.351562 38.015625 82.351562 41.648438 C 81.910156 41.683594 81.476562 41.648438 81.050781 41.550781 C 80.214844 39.546875 79.382812 37.546875 78.550781 35.550781 C 78.523438 35.472656 78.472656 35.40625 78.398438 35.351562 C 78.351562 37.449219 78.332031 39.550781 78.351562 41.648438 C 77.816406 41.648438 77.285156 41.648438 76.75 41.648438 C 76.75 38.015625 76.75 34.382812 76.75 30.75 C 77.183594 30.75 77.617188 30.75 78.050781 30.75 Z M 78.050781 30.75 "/>
<path style=" stroke:none;fill-rule:evenodd;fill:rgb(50.196078%,81.568627%,38.039216%);fill-opacity:1;" d="M 80.75 30.75 C 80.765625 32.75 80.75 34.75 80.699219 36.75 C 80.648438 36.648438 80.597656 36.546875 80.550781 36.449219 C 80.617188 34.550781 80.683594 32.648438 80.75 30.75 Z M 80.75 30.75 "/>
<path style=" stroke:none;fill-rule:evenodd;fill:rgb(99.607843%,99.607843%,99.607843%);fill-opacity:1;" d="M 83.648438 30.75 C 84.917969 30.734375 86.183594 30.75 87.449219 30.800781 C 88.621094 31.007812 89.339844 31.6875 89.601562 32.851562 C 89.667969 34.984375 89.667969 37.117188 89.601562 39.25 C 89.429688 40.589844 88.679688 41.371094 87.351562 41.601562 C 86.117188 41.648438 84.882812 41.667969 83.648438 41.648438 C 83.648438 38.015625 83.648438 34.382812 83.648438 30.75 Z M 83.648438 30.75 "/>
<path style=" stroke:none;fill-rule:evenodd;fill:rgb(36.078431%,76.078431%,20%);fill-opacity:1;" d="M 50.351562 32.050781 C 51.117188 31.90625 51.597656 32.207031 51.800781 32.949219 C 51.867188 35.082031 51.867188 37.214844 51.800781 39.351562 C 51.628906 40.128906 51.144531 40.445312 50.351562 40.300781 C 49.863281 40.078125 49.613281 39.695312 49.601562 39.148438 C 49.535156 37.183594 49.535156 35.214844 49.601562 33.25 C 49.628906 32.691406 49.878906 32.292969 50.351562 32.050781 Z M 50.351562 32.050781 "/>
<path style=" stroke:none;fill-rule:evenodd;fill:rgb(34.901961%,75.294118%,18.431373%);fill-opacity:1;" d="M 85.648438 32.148438 C 86.050781 32.132812 86.453125 32.148438 86.851562 32.199219 C 87.324219 32.339844 87.574219 32.65625 87.601562 33.148438 C 87.691406 35.285156 87.660156 37.421875 87.5 39.550781 C 87.417969 39.898438 87.199219 40.117188 86.851562 40.199219 C 86.453125 40.25 86.050781 40.265625 85.648438 40.25 C 85.648438 37.550781 85.648438 34.851562 85.648438 32.148438 Z M 85.648438 32.148438 "/>
<path style=" stroke:none;fill-rule:evenodd;fill:rgb(81.568627%,92.941176%,76.862745%);fill-opacity:1;" d="M 26.550781 34.050781 C 26.453125 33.804688 26.417969 33.539062 26.449219 33.25 C 24.714844 33.25 22.984375 33.25 21.25 33.25 C 21.25 33.617188 21.25 33.984375 21.25 34.351562 C 21.152344 33.96875 21.117188 33.570312 21.148438 33.148438 C 22.949219 33.148438 24.75 33.148438 26.550781 33.148438 C 26.550781 33.449219 26.550781 33.75 26.550781 34.050781 Z M 26.550781 34.050781 "/>
<path style=" stroke:none;fill-rule:evenodd;fill:rgb(37.254902%,76.470588%,21.568627%);fill-opacity:1;" d="M 72.75 33.648438 C 73.03125 35.027344 73.265625 36.429688 73.449219 37.851562 C 72.984375 37.851562 72.515625 37.851562 72.050781 37.851562 C 72.230469 36.4375 72.464844 35.039062 72.75 33.648438 Z M 72.75 33.648438 "/>
<path style=" stroke:none;fill-rule:evenodd;fill:rgb(83.529412%,93.72549%,79.607843%);fill-opacity:1;" d="M 56.75 35.351562 C 56.683594 37.449219 56.617188 39.550781 56.550781 41.648438 C 56.515625 39.515625 56.550781 37.382812 56.648438 35.25 C 56.710938 35.261719 56.742188 35.296875 56.75 35.351562 Z M 56.75 35.351562 "/>
<path style=" stroke:none;fill-rule:evenodd;fill:rgb(66.666667%,87.45098%,58.039216%);fill-opacity:1;" d="M 78.550781 35.550781 C 78.484375 37.582031 78.417969 39.617188 78.351562 41.648438 C 78.332031 39.550781 78.351562 37.449219 78.398438 35.351562 C 78.472656 35.40625 78.523438 35.472656 78.550781 35.550781 Z M 78.550781 35.550781 "/>
<path style=" stroke:none;fill-rule:evenodd;fill:rgb(67.058824%,87.843137%,58.431373%);fill-opacity:1;" d="M 69.351562 40.25 C 69.417969 40.648438 69.484375 41.050781 69.550781 41.449219 C 69.550781 41.515625 69.550781 41.582031 69.550781 41.648438 C 69.484375 41.648438 69.417969 41.648438 69.351562 41.648438 C 69.351562 41.183594 69.351562 40.714844 69.351562 40.25 Z M 69.351562 40.25 "/>
<path style=" stroke:none;fill-rule:evenodd;fill:rgb(99.607843%,99.607843%,99.607843%);fill-opacity:1;" d="M 57.550781 59.449219 C 62.855469 59.160156 66.636719 61.390625 68.898438 66.148438 C 69.96875 69.117188 69.886719 72.050781 68.648438 74.949219 C 73.042969 76.0625 75.996094 78.761719 77.5 83.050781 C 78.734375 87.960938 77.550781 92.179688 73.949219 95.699219 C 72.070312 97.285156 69.902344 98.25 67.449219 98.601562 C 61.851562 98.667969 56.25 98.667969 50.648438 98.601562 C 47.421875 98.710938 44.839844 97.496094 42.898438 94.949219 C 40.632812 91.203125 40.882812 87.636719 43.648438 84.25 C 40.648438 82.261719 39.363281 79.460938 39.800781 75.851562 C 40.96875 71.605469 43.753906 69.441406 48.148438 69.351562 C 48.96875 63.832031 52.101562 60.535156 57.550781 59.449219 Z M 57.550781 59.449219 "/>
<path style=" stroke:none;fill-rule:evenodd;fill:rgb(99.215686%,99.607843%,99.215686%);fill-opacity:1;" d="M 94.050781 59.449219 C 95.753906 59.277344 97.285156 59.691406 98.648438 60.699219 C 99.136719 61.183594 99.617188 61.667969 100.101562 62.148438 C 101.761719 61.609375 103.410156 61.625 105.050781 62.199219 C 106.226562 62.746094 107.109375 63.59375 107.699219 64.75 C 107.894531 65.582031 107.574219 65.929688 106.75 65.800781 C 106.429688 65.40625 106.027344 65.105469 105.550781 64.898438 C 103.523438 64.113281 101.554688 64.246094 99.648438 65.300781 C 99.449219 65.367188 99.25 65.367188 99.050781 65.300781 C 98.621094 64.757812 98.203125 64.210938 97.800781 63.648438 C 96.3125 62 94.464844 61.28125 92.25 61.5 C 91.859375 61.074219 91.859375 60.640625 92.25 60.199219 C 92.835938 59.886719 93.4375 59.636719 94.050781 59.449219 Z M 94.050781 59.449219 "/>
<path style=" stroke:none;fill-rule:evenodd;fill:rgb(99.215686%,99.607843%,99.215686%);fill-opacity:1;" d="M 91.351562 67.949219 C 93.71875 67.667969 95.769531 68.335938 97.5 69.949219 C 97.582031 70.296875 97.546875 70.628906 97.398438 70.949219 C 97.242188 71.085938 97.058594 71.152344 96.851562 71.148438 C 95.324219 70.449219 93.757812 70.367188 92.148438 70.898438 C 91.277344 71.21875 90.445312 71.621094 89.648438 72.101562 C 88.953125 72.628906 88.289062 73.195312 87.648438 73.800781 C 87.417969 73.867188 87.183594 73.867188 86.949219 73.800781 C 84.492188 71.707031 81.691406 71.042969 78.550781 71.800781 C 78.222656 72.03125 77.871094 72.214844 77.5 72.351562 C 77.210938 72.339844 77.011719 72.207031 76.898438 71.949219 C 76.832031 71.648438 76.832031 71.351562 76.898438 71.050781 C 79.28125 68.507812 82.097656 67.890625 85.351562 69.199219 C 85.957031 69.476562 86.539062 69.796875 87.101562 70.148438 C 88.363281 69.109375 89.78125 68.375 91.351562 67.949219 Z M 91.351562 67.949219 "/>
<path style=" stroke:none;fill-rule:evenodd;fill:rgb(99.215686%,99.607843%,99.215686%);fill-opacity:1;" d="M 89.851562 86.949219 C 92.484375 86.945312 94.832031 87.746094 96.898438 89.351562 C 98.765625 87.890625 100.882812 87.089844 103.25 86.949219 C 105.683594 87.058594 107.734375 87.992188 109.398438 89.75 C 109.515625 90.183594 109.433594 90.566406 109.148438 90.898438 C 109.015625 90.917969 108.882812 90.933594 108.75 90.949219 C 108.027344 90.59375 107.261719 90.34375 106.449219 90.199219 C 102.90625 89.914062 99.875 91.015625 97.351562 93.5 C 97.050781 93.566406 96.75 93.566406 96.449219 93.5 C 93.550781 90.65625 90.117188 89.65625 86.148438 90.5 C 85.902344 90.609375 85.667969 90.742188 85.449219 90.898438 C 84.542969 91.039062 84.226562 90.65625 84.5 89.75 C 85.949219 88.167969 87.730469 87.234375 89.851562 86.949219 Z M 89.851562 86.949219 "/>
<path style=" stroke:none;fill-rule:evenodd;fill:rgb(99.215686%,99.607843%,99.215686%);fill-opacity:1;" d="M 57.351562 101.550781 C 58.949219 101.53125 60.550781 101.550781 62.148438 101.601562 C 62.199219 101.648438 62.25 101.699219 62.300781 101.75 C 62.367188 105.515625 62.367188 109.28125 62.300781 113.050781 C 62.25 113.101562 62.199219 113.148438 62.148438 113.199219 C 60.550781 113.265625 58.949219 113.265625 57.351562 113.199219 C 57.300781 113.148438 57.25 113.101562 57.199219 113.050781 C 57.132812 109.28125 57.132812 105.515625 57.199219 101.75 C 57.273438 101.695312 57.320312 101.628906 57.351562 101.550781 Z M 57.351562 101.550781 "/>
<path style=" stroke:none;fill-rule:evenodd;fill:rgb(99.607843%,99.607843%,99.607843%);fill-opacity:1;" d="M 37.351562 117.949219 C 61.917969 117.933594 86.484375 117.949219 111.050781 118 C 111.101562 118.050781 111.148438 118.101562 111.199219 118.148438 C 111.265625 119.75 111.265625 121.351562 111.199219 122.949219 C 111.148438 123 111.101562 123.050781 111.050781 123.101562 C 86.449219 123.167969 61.851562 123.167969 37.25 123.101562 C 37.132812 121.457031 37.117188 119.808594 37.199219 118.148438 C 37.273438 118.097656 37.320312 118.027344 37.351562 117.949219 Z M 37.351562 117.949219 "/>
<path style=" stroke:none;fill-rule:evenodd;fill:rgb(99.607843%,99.607843%,99.215686%);fill-opacity:1;" d="M 37.351562 126.851562 C 61.917969 126.832031 86.484375 126.851562 111.050781 126.898438 C 111.101562 126.949219 111.148438 127 111.199219 127.050781 C 111.265625 128.648438 111.265625 130.25 111.199219 131.851562 C 111.148438 131.898438 111.101562 131.949219 111.050781 132 C 86.449219 132.066406 61.851562 132.066406 37.25 132 C 37.132812 130.355469 37.117188 128.707031 37.199219 127.050781 C 37.273438 126.996094 37.320312 126.929688 37.351562 126.851562 Z M 37.351562 126.851562 "/>
</g>
</svg>
