<?xml version="1.0" encoding="UTF-8"?>
<svg xmlns="http://www.w3.org/2000/svg" xmlns:xlink="http://www.w3.org/1999/xlink" width="150px" height="150px" viewBox="0 0 150 150" version="1.1">
<g id="surface1">
<path style=" stroke:none;fill-rule:evenodd;fill:rgb(0%,40.784314%,61.568627%);fill-opacity:1;" d="M -0.0507812 -0.0507812 C 49.949219 -0.0507812 99.949219 -0.0507812 149.949219 -0.0507812 C 149.949219 49.949219 149.949219 99.949219 149.949219 149.949219 C 99.949219 149.949219 49.949219 149.949219 -0.0507812 149.949219 C -0.0507812 99.949219 -0.0507812 49.949219 -0.0507812 -0.0507812 Z M -0.0507812 -0.0507812 "/>
<path style=" stroke:none;fill-rule:evenodd;fill:rgb(99.607843%,99.607843%,99.607843%);fill-opacity:1;" d="M 36.050781 19.75 C 36.050781 19.882812 36.050781 20.015625 36.050781 20.148438 C 34.351562 20.148438 32.648438 20.148438 30.949219 20.148438 C 30.980469 19.828125 30.949219 19.527344 30.851562 19.25 C 30.929688 17.046875 29.929688 16.261719 27.851562 16.898438 C 27.183594 17.496094 26.832031 18.246094 26.800781 19.148438 C 26.75 19.582031 26.734375 20.015625 26.75 20.449219 C 26.632812 22.03125 26.617188 23.632812 26.699219 25.25 C 26.773438 25.195312 26.820312 25.128906 26.851562 25.050781 C 27.84375 24.046875 29.0625 23.578125 30.5 23.648438 C 33.191406 23.660156 34.992188 24.929688 35.898438 27.449219 C 36.699219 30.363281 36.765625 33.296875 36.101562 36.25 C 35.738281 37.605469 35.140625 38.839844 34.300781 39.949219 C 33.375 40.886719 32.257812 41.46875 30.949219 41.699219 C 25.179688 42.597656 21.929688 40.144531 21.199219 34.351562 C 21.105469 29.28125 21.136719 24.214844 21.300781 19.148438 C 22.035156 14.152344 24.917969 11.933594 29.949219 12.5 C 33.554688 12.691406 35.574219 14.578125 36 18.148438 C 36.050781 18.683594 36.066406 19.214844 36.050781 19.75 Z M 36.050781 19.75 "/>
<path style=" stroke:none;fill-rule:evenodd;fill:rgb(98.823529%,99.215686%,99.215686%);fill-opacity:1;" d="M 69.148438 12.648438 C 70.238281 12.511719 71.203125 12.78125 72.050781 13.449219 C 72.402344 13.851562 72.617188 14.316406 72.699219 14.851562 C 72.75 15.484375 72.765625 16.117188 72.75 16.75 C 72.117188 16.75 71.484375 16.75 70.851562 16.75 C 70.867188 16.046875 70.816406 15.34375 70.699219 14.648438 C 70.195312 14.074219 69.628906 14.007812 69 14.449219 C 68.824219 14.648438 68.726562 14.882812 68.699219 15.148438 C 68.605469 17.355469 68.636719 19.554688 68.800781 21.75 C 69.117188 22.324219 69.601562 22.507812 70.25 22.300781 C 70.480469 22.1875 70.632812 22.003906 70.699219 21.75 C 70.75 21.050781 70.765625 20.351562 70.75 19.648438 C 71.417969 19.648438 72.082031 19.648438 72.75 19.648438 C 73.027344 23.292969 71.425781 24.578125 67.949219 23.5 C 67.179688 22.914062 66.765625 22.128906 66.699219 21.148438 C 66.632812 19.183594 66.632812 17.214844 66.699219 15.25 C 66.894531 13.773438 67.710938 12.90625 69.148438 12.648438 Z M 69.148438 12.648438 "/>
<path style=" stroke:none;fill-rule:evenodd;fill:rgb(98.431373%,99.215686%,99.215686%);fill-opacity:1;" d="M 98.25 12.648438 C 100.53125 12.371094 101.699219 13.371094 101.75 15.648438 C 101.179688 15.738281 100.613281 15.835938 100.050781 15.949219 C 100.101562 15.410156 99.988281 14.910156 99.699219 14.449219 C 99.0625 13.996094 98.527344 14.097656 98.101562 14.75 C 97.996094 15.289062 98.097656 15.789062 98.398438 16.25 C 98.957031 16.800781 99.539062 17.320312 100.148438 17.800781 C 100.976562 18.488281 101.558594 19.339844 101.898438 20.351562 C 102.132812 22.953125 100.945312 24.101562 98.351562 23.800781 C 97.230469 23.515625 96.546875 22.796875 96.300781 21.648438 C 96.164062 21.261719 96.148438 20.878906 96.25 20.5 C 96.8125 20.382812 97.378906 20.300781 97.949219 20.25 C 97.894531 21.066406 98.160156 21.75 98.75 22.300781 C 99.5625 22.453125 99.996094 22.121094 100.050781 21.300781 C 100.019531 20.757812 99.835938 20.273438 99.5 19.851562 C 98.667969 19.117188 97.832031 18.382812 97 17.648438 C 96.046875 16.429688 95.914062 15.128906 96.601562 13.75 C 97.035156 13.191406 97.585938 12.824219 98.25 12.648438 Z M 98.25 12.648438 "/>
<path style=" stroke:none;fill-rule:evenodd;fill:rgb(98.039216%,98.823529%,99.215686%);fill-opacity:1;" d="M 117.648438 16.75 C 117.015625 16.75 116.382812 16.75 115.75 16.75 C 115.78125 16.097656 115.75 15.464844 115.648438 14.851562 C 115.53125 14.332031 115.199219 14.097656 114.648438 14.148438 C 114.148438 14.132812 113.835938 14.367188 113.699219 14.851562 C 113.632812 17.082031 113.632812 19.316406 113.699219 21.550781 C 113.761719 21.855469 113.910156 22.105469 114.148438 22.300781 C 114.996094 22.570312 115.511719 22.285156 115.699219 21.449219 C 115.75 20.851562 115.765625 20.25 115.75 19.648438 C 116.382812 19.648438 117.015625 19.648438 117.648438 19.648438 C 117.925781 23.410156 116.292969 24.660156 112.75 23.398438 C 112.234375 22.953125 111.886719 22.402344 111.699219 21.75 C 111.542969 19.585938 111.507812 17.417969 111.601562 15.25 C 111.753906 13.863281 112.503906 13.015625 113.851562 12.699219 C 115.023438 12.46875 116.074219 12.71875 117 13.449219 C 117.191406 13.734375 117.359375 14.035156 117.5 14.351562 C 117.628906 15.144531 117.675781 15.945312 117.648438 16.75 Z M 117.648438 16.75 "/>
<path style=" stroke:none;fill-rule:evenodd;fill:rgb(72.941176%,83.921569%,89.411765%);fill-opacity:1;" d="M 63.851562 12.851562 C 63.109375 12.820312 62.375 12.855469 61.648438 12.949219 C 61.976562 12.816406 62.34375 12.75 62.75 12.75 C 63.136719 12.75 63.5 12.785156 63.851562 12.851562 Z M 63.851562 12.851562 "/>
<path style=" stroke:none;fill-rule:evenodd;fill:rgb(74.901961%,85.098039%,90.196078%);fill-opacity:1;" d="M 107.648438 14.25 C 107.648438 13.785156 107.648438 13.316406 107.648438 12.851562 C 105.816406 12.851562 103.984375 12.851562 102.148438 12.851562 C 102.148438 13.316406 102.148438 13.785156 102.148438 14.25 C 102.117188 14.25 102.082031 14.25 102.050781 14.25 C 102.050781 13.75 102.050781 13.25 102.050781 12.75 C 103.949219 12.75 105.851562 12.75 107.75 12.75 C 107.78125 13.269531 107.75 13.769531 107.648438 14.25 Z M 107.648438 14.25 "/>
<path style=" stroke:none;fill-rule:evenodd;fill:rgb(99.607843%,99.607843%,99.607843%);fill-opacity:1;" d="M 13.75 12.851562 C 15.183594 12.851562 16.617188 12.851562 18.050781 12.851562 C 18.050781 22.382812 18.050781 31.917969 18.050781 41.449219 C 16.25 41.449219 14.449219 41.449219 12.648438 41.449219 C 12.648438 33.816406 12.648438 26.183594 12.648438 18.550781 C 12.519531 18.527344 12.421875 18.558594 12.351562 18.648438 C 11.125 19.101562 9.890625 19.535156 8.648438 19.949219 C 8.550781 18.632812 8.515625 17.300781 8.550781 15.949219 C 9.855469 15.382812 11.121094 14.730469 12.351562 14 C 12.863281 13.667969 13.332031 13.285156 13.75 12.851562 Z M 13.75 12.851562 "/>
<path style=" stroke:none;fill-rule:evenodd;fill:rgb(69.411765%,81.960784%,88.235294%);fill-opacity:1;" d="M 13.75 12.851562 C 15.199219 12.75 16.664062 12.71875 18.148438 12.75 C 18.148438 22.351562 18.148438 31.949219 18.148438 41.550781 C 16.316406 41.550781 14.484375 41.550781 12.648438 41.550781 C 12.648438 41.515625 12.648438 41.484375 12.648438 41.449219 C 14.449219 41.449219 16.25 41.449219 18.050781 41.449219 C 18.050781 31.917969 18.050781 22.382812 18.050781 12.851562 C 16.617188 12.851562 15.183594 12.851562 13.75 12.851562 Z M 13.75 12.851562 "/>
<path style=" stroke:none;fill-rule:evenodd;fill:rgb(54.901961%,72.941176%,82.352941%);fill-opacity:1;" d="M 51.25 12.851562 C 50.117188 12.851562 48.984375 12.851562 47.851562 12.851562 C 47.851562 16.484375 47.851562 20.117188 47.851562 23.75 C 47.75 20.101562 47.71875 16.433594 47.75 12.75 C 48.933594 12.71875 50.101562 12.75 51.25 12.851562 Z M 51.25 12.851562 "/>
<path style=" stroke:none;fill-rule:evenodd;fill:rgb(98.823529%,99.215686%,99.607843%);fill-opacity:1;" d="M 51.25 12.851562 C 52.714844 12.863281 53.53125 13.597656 53.699219 15.050781 C 54.03125 17.933594 52.75 19.199219 49.851562 18.851562 C 49.851562 20.484375 49.851562 22.117188 49.851562 23.75 C 49.183594 23.75 48.515625 23.75 47.851562 23.75 C 47.851562 20.117188 47.851562 16.484375 47.851562 12.851562 C 48.984375 12.851562 50.117188 12.851562 51.25 12.851562 Z M 51.25 12.851562 "/>
<path style=" stroke:none;fill-rule:evenodd;fill:rgb(98.823529%,99.215686%,99.607843%);fill-opacity:1;" d="M 58.648438 18.75 C 57.949219 18.75 57.25 18.75 56.550781 18.75 C 56.515625 19.96875 56.550781 21.167969 56.648438 22.351562 C 57.484375 22.351562 58.316406 22.351562 59.148438 22.351562 C 59.148438 22.816406 59.148438 23.285156 59.148438 23.75 C 57.617188 23.75 56.082031 23.75 54.550781 23.75 C 54.550781 20.082031 54.550781 16.417969 54.550781 12.75 C 56.082031 12.75 57.617188 12.75 59.148438 12.75 C 59.148438 13.25 59.148438 13.75 59.148438 14.25 C 58.285156 14.25 57.417969 14.25 56.550781 14.25 C 56.550781 15.285156 56.550781 16.316406 56.550781 17.351562 C 57.25 17.351562 57.949219 17.351562 58.648438 17.351562 C 58.648438 17.816406 58.648438 18.285156 58.648438 18.75 Z M 58.648438 18.75 "/>
<path style=" stroke:none;fill-rule:evenodd;fill:rgb(98.823529%,99.215686%,99.215686%);fill-opacity:1;" d="M 63.851562 12.851562 C 64.550781 16.476562 65.285156 20.09375 66.050781 23.699219 C 65.414062 23.78125 64.78125 23.765625 64.148438 23.648438 C 63.996094 22.855469 63.863281 22.054688 63.75 21.25 C 63.089844 21.21875 62.441406 21.253906 61.800781 21.351562 C 61.644531 22.160156 61.492188 22.960938 61.351562 23.75 C 60.75 23.75 60.148438 23.75 59.550781 23.75 C 59.550781 23.648438 59.550781 23.550781 59.550781 23.449219 C 60.238281 19.949219 60.9375 16.449219 61.648438 12.949219 C 62.375 12.855469 63.109375 12.820312 63.851562 12.851562 Z M 63.851562 12.851562 "/>
<path style=" stroke:none;fill-rule:evenodd;fill:rgb(99.215686%,99.215686%,99.607843%);fill-opacity:1;" d="M 77.851562 17.351562 C 77.851562 17.816406 77.851562 18.285156 77.851562 18.75 C 77.164062 18.71875 76.496094 18.75 75.851562 18.851562 C 75.851562 20.015625 75.851562 21.183594 75.851562 22.351562 C 76.714844 22.351562 77.582031 22.351562 78.449219 22.351562 C 78.449219 22.816406 78.449219 23.285156 78.449219 23.75 C 76.917969 23.75 75.382812 23.75 73.851562 23.75 C 73.851562 20.082031 73.851562 16.417969 73.851562 12.75 C 75.382812 12.75 76.917969 12.75 78.449219 12.75 C 78.449219 13.25 78.449219 13.75 78.449219 14.25 C 77.582031 14.25 76.714844 14.25 75.851562 14.25 C 75.851562 15.285156 75.851562 16.316406 75.851562 17.351562 C 76.515625 17.351562 77.183594 17.351562 77.851562 17.351562 Z M 77.851562 17.351562 "/>
<path style=" stroke:none;fill-rule:evenodd;fill:rgb(99.607843%,99.607843%,99.607843%);fill-opacity:1;" d="M 87.648438 21.648438 C 87.769531 22.777344 87.300781 23.527344 86.25 23.898438 C 85.585938 23.949219 84.917969 23.964844 84.25 23.949219 C 84.25 23.484375 84.25 23.015625 84.25 22.550781 C 84.628906 22.582031 84.996094 22.535156 85.351562 22.398438 C 85.546875 22.226562 85.644531 22.011719 85.648438 21.75 C 85.75 18.800781 85.78125 15.832031 85.75 12.851562 C 86.382812 12.851562 87.015625 12.851562 87.648438 12.851562 C 87.648438 15.785156 87.648438 18.714844 87.648438 21.648438 Z M 87.648438 21.648438 "/>
<path style=" stroke:none;fill-rule:evenodd;fill:rgb(67.45098%,80.392157%,87.45098%);fill-opacity:1;" d="M 87.648438 21.648438 C 87.648438 18.714844 87.648438 15.785156 87.648438 12.851562 C 87.015625 12.851562 86.382812 12.851562 85.75 12.851562 C 85.78125 15.832031 85.75 18.800781 85.648438 21.75 C 85.648438 18.75 85.648438 15.75 85.648438 12.75 C 86.351562 12.75 87.050781 12.75 87.75 12.75 C 87.78125 15.734375 87.75 18.699219 87.648438 21.648438 Z M 87.648438 21.648438 "/>
<path style=" stroke:none;fill-rule:evenodd;fill:rgb(99.215686%,99.607843%,99.607843%);fill-opacity:1;" d="M 89.050781 12.75 C 89.683594 12.75 90.316406 12.75 90.949219 12.75 C 90.933594 15.582031 90.949219 18.417969 91 21.25 C 91.265625 22.386719 91.898438 22.652344 92.898438 22.050781 C 93.074219 21.636719 93.171875 21.203125 93.199219 20.75 C 93.25 18.082031 93.265625 15.417969 93.25 12.75 C 93.882812 12.75 94.515625 12.75 95.148438 12.75 C 95.195312 15.785156 95.144531 18.820312 95 21.851562 C 94.597656 23.304688 93.632812 23.96875 92.101562 23.851562 C 90.644531 24.007812 89.679688 23.40625 89.199219 22.050781 C 89.054688 18.953125 89.003906 15.851562 89.050781 12.75 Z M 89.050781 12.75 "/>
<path style=" stroke:none;fill-rule:evenodd;fill:rgb(99.607843%,100%,99.607843%);fill-opacity:1;" d="M 107.648438 14.25 C 107.082031 14.25 106.515625 14.25 105.949219 14.25 C 105.949219 17.417969 105.949219 20.582031 105.949219 23.75 C 105.28125 23.75 104.617188 23.75 103.949219 23.75 C 103.949219 20.582031 103.949219 17.417969 103.949219 14.25 C 103.351562 14.25 102.75 14.25 102.148438 14.25 C 102.148438 13.785156 102.148438 13.316406 102.148438 12.851562 C 103.984375 12.851562 105.816406 12.851562 107.648438 12.851562 C 107.648438 13.316406 107.648438 13.785156 107.648438 14.25 Z M 107.648438 14.25 "/>
<path style=" stroke:none;fill-rule:evenodd;fill:rgb(99.607843%,99.607843%,99.607843%);fill-opacity:1;" d="M 108.351562 12.75 C 109.015625 12.75 109.683594 12.75 110.351562 12.75 C 110.351562 16.417969 110.351562 20.082031 110.351562 23.75 C 109.683594 23.75 109.015625 23.75 108.351562 23.75 C 108.351562 20.082031 108.351562 16.417969 108.351562 12.75 Z M 108.351562 12.75 "/>
<path style=" stroke:none;fill-rule:evenodd;fill:rgb(98.823529%,99.215686%,99.607843%);fill-opacity:1;" d="M 122.851562 18.75 C 122.148438 18.75 121.449219 18.75 120.75 18.75 C 120.71875 19.96875 120.75 21.167969 120.851562 22.351562 C 121.683594 22.351562 122.515625 22.351562 123.351562 22.351562 C 123.351562 22.816406 123.351562 23.285156 123.351562 23.75 C 121.816406 23.75 120.28125 23.75 118.75 23.75 C 118.75 20.082031 118.75 16.417969 118.75 12.75 C 120.28125 12.75 121.816406 12.75 123.351562 12.75 C 123.351562 13.25 123.351562 13.75 123.351562 14.25 C 122.484375 14.25 121.617188 14.25 120.75 14.25 C 120.75 15.285156 120.75 16.316406 120.75 17.351562 C 121.449219 17.351562 122.148438 17.351562 122.851562 17.351562 C 122.851562 17.816406 122.851562 18.285156 122.851562 18.75 Z M 122.851562 18.75 "/>
<path style=" stroke:none;fill-rule:evenodd;fill:rgb(1.960784%,41.176471%,61.568627%);fill-opacity:1;" d="M 49.851562 14.25 C 50.394531 14.214844 50.925781 14.265625 51.449219 14.398438 C 51.605469 14.519531 51.722656 14.671875 51.800781 14.851562 C 51.867188 15.484375 51.867188 16.117188 51.800781 16.75 C 51.632812 17.117188 51.351562 17.332031 50.949219 17.398438 C 50.585938 17.449219 50.21875 17.464844 49.851562 17.449219 C 49.851562 16.382812 49.851562 15.316406 49.851562 14.25 Z M 49.851562 14.25 "/>
<path style=" stroke:none;fill-rule:evenodd;fill:rgb(25.098039%,55.686275%,71.372549%);fill-opacity:1;" d="M 102.050781 14.25 C 102.082031 14.25 102.117188 14.25 102.148438 14.25 C 102.75 14.25 103.351562 14.25 103.949219 14.25 C 103.949219 17.417969 103.949219 20.582031 103.949219 23.75 C 103.851562 20.632812 103.816406 17.5 103.851562 14.351562 C 103.230469 14.382812 102.632812 14.347656 102.050781 14.25 Z M 102.050781 14.25 "/>
<path style=" stroke:none;fill-rule:evenodd;fill:rgb(74.509804%,85.098039%,90.196078%);fill-opacity:1;" d="M 8.550781 15.949219 C 8.515625 17.300781 8.550781 18.632812 8.648438 19.949219 C 8.644531 20.003906 8.609375 20.039062 8.550781 20.050781 C 8.417969 18.667969 8.417969 17.300781 8.550781 15.949219 Z M 8.550781 15.949219 "/>
<path style=" stroke:none;fill-rule:evenodd;fill:rgb(9.411765%,43.137255%,63.137255%);fill-opacity:1;" d="M 63.449219 19.851562 C 63.015625 19.851562 62.582031 19.851562 62.148438 19.851562 C 62.148438 19.75 62.148438 19.648438 62.148438 19.550781 C 62.253906 18.257812 62.472656 16.992188 62.800781 15.75 C 63.074219 17.109375 63.292969 18.476562 63.449219 19.851562 Z M 63.449219 19.851562 "/>
<path style=" stroke:none;fill-rule:evenodd;fill:rgb(44.313725%,66.27451%,78.039216%);fill-opacity:1;" d="M 115.648438 14.851562 C 115.75 15.464844 115.78125 16.097656 115.75 16.75 C 116.382812 16.75 117.015625 16.75 117.648438 16.75 C 117.003906 16.847656 116.335938 16.882812 115.648438 16.851562 C 115.648438 16.183594 115.648438 15.515625 115.648438 14.851562 Z M 115.648438 14.851562 "/>
<path style=" stroke:none;fill-rule:evenodd;fill:rgb(25.098039%,55.294118%,70.980392%);fill-opacity:1;" d="M 12.351562 18.648438 C 12.421875 18.558594 12.519531 18.527344 12.648438 18.550781 C 12.648438 26.183594 12.648438 33.816406 12.648438 41.449219 C 12.648438 41.484375 12.648438 41.515625 12.648438 41.550781 C 12.617188 33.898438 12.515625 26.265625 12.351562 18.648438 Z M 12.351562 18.648438 "/>
<path style=" stroke:none;fill-rule:evenodd;fill:rgb(32.54902%,59.607843%,73.72549%);fill-opacity:1;" d="M 77.851562 17.351562 C 77.949219 17.832031 77.980469 18.332031 77.949219 18.851562 C 77.25 18.851562 76.550781 18.851562 75.851562 18.851562 C 76.496094 18.75 77.164062 18.71875 77.851562 18.75 C 77.851562 18.285156 77.851562 17.816406 77.851562 17.351562 Z M 77.851562 17.351562 "/>
<path style=" stroke:none;fill-rule:evenodd;fill:rgb(25.098039%,55.686275%,71.372549%);fill-opacity:1;" d="M 58.648438 18.75 C 58.003906 18.847656 57.335938 18.882812 56.648438 18.851562 C 56.648438 20.015625 56.648438 21.183594 56.648438 22.351562 C 56.550781 21.167969 56.515625 19.96875 56.550781 18.75 C 57.25 18.75 57.949219 18.75 58.648438 18.75 Z M 58.648438 18.75 "/>
<path style=" stroke:none;fill-rule:evenodd;fill:rgb(25.098039%,55.686275%,71.372549%);fill-opacity:1;" d="M 122.851562 18.75 C 122.203125 18.847656 121.535156 18.882812 120.851562 18.851562 C 120.851562 20.015625 120.851562 21.183594 120.851562 22.351562 C 120.75 21.167969 120.71875 19.96875 120.75 18.75 C 121.449219 18.75 122.148438 18.75 122.851562 18.75 Z M 122.851562 18.75 "/>
<path style=" stroke:none;fill-rule:evenodd;fill:rgb(47.843137%,68.627451%,79.607843%);fill-opacity:1;" d="M 62.148438 19.550781 C 62.148438 19.648438 62.148438 19.75 62.148438 19.851562 C 62.582031 19.851562 63.015625 19.851562 63.449219 19.851562 C 63.003906 19.949219 62.535156 19.980469 62.050781 19.949219 C 62.023438 19.789062 62.054688 19.65625 62.148438 19.550781 Z M 62.148438 19.550781 "/>
<path style=" stroke:none;fill-rule:evenodd;fill:rgb(72.54902%,83.921569%,89.411765%);fill-opacity:1;" d="M 30.851562 19.25 C 30.949219 19.527344 30.980469 19.828125 30.949219 20.148438 C 32.648438 20.148438 34.351562 20.148438 36.050781 20.148438 C 36.050781 20.015625 36.050781 19.882812 36.050781 19.75 C 36.144531 19.890625 36.179688 20.058594 36.148438 20.25 C 34.382812 20.25 32.617188 20.25 30.851562 20.25 C 30.851562 19.917969 30.851562 19.582031 30.851562 19.25 Z M 30.851562 19.25 "/>
<path style=" stroke:none;fill-rule:evenodd;fill:rgb(29.019608%,57.647059%,72.54902%);fill-opacity:1;" d="M 26.75 20.449219 C 26.71875 22 26.75 23.535156 26.851562 25.050781 C 26.820312 25.128906 26.773438 25.195312 26.699219 25.25 C 26.617188 23.632812 26.632812 22.03125 26.75 20.449219 Z M 26.75 20.449219 "/>
<path style=" stroke:none;fill-rule:evenodd;fill:rgb(99.215686%,99.215686%,99.607843%);fill-opacity:1;" d="M 79.050781 21.949219 C 79.648438 21.949219 80.25 21.949219 80.851562 21.949219 C 80.890625 22.859375 80.839844 23.757812 80.699219 24.648438 C 80.414062 25.273438 79.949219 25.542969 79.300781 25.449219 C 79.265625 25.277344 79.214844 25.113281 79.148438 24.949219 C 79.683594 24.71875 79.984375 24.316406 80.050781 23.75 C 79.714844 23.75 79.382812 23.75 79.050781 23.75 C 79.050781 23.148438 79.050781 22.550781 79.050781 21.949219 Z M 79.050781 21.949219 "/>
<path style=" stroke:none;fill-rule:evenodd;fill:rgb(29.803922%,58.039216%,72.941176%);fill-opacity:1;" d="M 59.148438 22.351562 C 59.25 22.832031 59.28125 23.332031 59.25 23.851562 C 57.664062 23.882812 56.097656 23.847656 54.550781 23.75 C 56.082031 23.75 57.617188 23.75 59.148438 23.75 C 59.148438 23.285156 59.148438 22.816406 59.148438 22.351562 Z M 59.148438 22.351562 "/>
<path style=" stroke:none;fill-rule:evenodd;fill:rgb(27.45098%,56.470588%,71.764706%);fill-opacity:1;" d="M 59.550781 23.449219 C 59.550781 23.550781 59.550781 23.648438 59.550781 23.75 C 60.148438 23.75 60.75 23.75 61.351562 23.75 C 60.734375 23.847656 60.101562 23.882812 59.449219 23.851562 C 59.421875 23.691406 59.457031 23.558594 59.550781 23.449219 Z M 59.550781 23.449219 "/>
<path style=" stroke:none;fill-rule:evenodd;fill:rgb(29.803922%,58.039216%,72.941176%);fill-opacity:1;" d="M 123.351562 22.351562 C 123.449219 22.832031 123.480469 23.332031 123.449219 23.851562 C 121.867188 23.882812 120.300781 23.847656 118.75 23.75 C 120.28125 23.75 121.816406 23.75 123.351562 23.75 C 123.351562 23.285156 123.351562 22.816406 123.351562 22.351562 Z M 123.351562 22.351562 "/>
<path style=" stroke:none;fill-rule:evenodd;fill:rgb(2.745098%,41.176471%,61.960784%);fill-opacity:1;" d="M 28.449219 27.851562 C 29.632812 27.734375 30.417969 28.234375 30.800781 29.351562 C 31.160156 31.6875 31.125 34.023438 30.699219 36.351562 C 30.175781 37.746094 29.226562 38.132812 27.851562 37.5 C 27.253906 36.988281 26.902344 36.335938 26.800781 35.550781 C 26.644531 33.417969 26.613281 31.285156 26.699219 29.148438 C 27.140625 28.507812 27.722656 28.074219 28.449219 27.851562 Z M 28.449219 27.851562 "/>
<path style=" stroke:none;fill-rule:evenodd;fill:rgb(98.431373%,98.823529%,99.215686%);fill-opacity:1;" d="M 73.75 30.550781 C 75.96875 30.335938 77.132812 31.335938 77.25 33.550781 C 76.679688 33.636719 76.113281 33.738281 75.550781 33.851562 C 75.574219 33.207031 75.375 32.660156 74.949219 32.199219 C 73.832031 31.984375 73.382812 32.433594 73.601562 33.550781 C 73.644531 33.859375 73.777344 34.128906 74 34.351562 C 74.960938 35.109375 75.859375 35.941406 76.699219 36.851562 C 77.589844 38.152344 77.65625 39.488281 76.898438 40.851562 C 75.574219 42.035156 74.15625 42.152344 72.648438 41.199219 C 71.964844 40.414062 71.632812 39.5 71.648438 38.449219 C 72.207031 38.300781 72.773438 38.203125 73.351562 38.148438 C 73.375 38.75 73.527344 39.316406 73.800781 39.851562 C 74.183594 40.265625 74.636719 40.351562 75.148438 40.101562 C 75.394531 39.835938 75.492188 39.519531 75.449219 39.148438 C 75.484375 38.703125 75.367188 38.300781 75.101562 37.949219 C 74.132812 37.050781 73.167969 36.148438 72.199219 35.25 C 71.550781 34.117188 71.484375 32.949219 72 31.75 C 72.441406 31.136719 73.027344 30.738281 73.75 30.550781 Z M 73.75 30.550781 "/>
<path style=" stroke:none;fill-rule:evenodd;fill:rgb(99.215686%,99.215686%,99.607843%);fill-opacity:1;" d="M 93.148438 30.550781 C 94.175781 30.433594 95.144531 30.617188 96.050781 31.101562 C 96.707031 31.664062 97.058594 32.378906 97.101562 33.25 C 97.191406 35.386719 97.160156 37.519531 97 39.648438 C 96.710938 40.96875 95.894531 41.6875 94.550781 41.800781 C 92.566406 42.085938 91.351562 41.269531 90.898438 39.351562 C 90.804688 37.078125 90.835938 34.8125 91 32.550781 C 91.355469 31.476562 92.070312 30.8125 93.148438 30.550781 Z M 93.148438 30.550781 "/>
<path style=" stroke:none;fill-rule:evenodd;fill:rgb(98.823529%,99.215686%,99.607843%);fill-opacity:1;" d="M 108.449219 36.148438 C 109.449219 36.148438 110.449219 36.148438 111.449219 36.148438 C 111.449219 37.984375 111.449219 39.816406 111.449219 41.648438 C 111.015625 41.648438 110.582031 41.648438 110.148438 41.648438 C 110.101562 41.351562 110.050781 41.050781 110 40.75 C 109.277344 41.839844 108.296875 42.15625 107.050781 41.699219 C 105.957031 41.167969 105.375 40.285156 105.300781 39.050781 C 105.210938 36.914062 105.242188 34.78125 105.398438 32.648438 C 105.828125 31.21875 106.796875 30.519531 108.300781 30.550781 C 110.054688 30.441406 111.089844 31.242188 111.398438 32.949219 C 111.449219 33.414062 111.46875 33.882812 111.449219 34.351562 C 110.78125 34.351562 110.117188 34.351562 109.449219 34.351562 C 109.46875 33.78125 109.449219 33.214844 109.398438 32.648438 C 108.933594 32.007812 108.351562 31.890625 107.648438 32.300781 C 107.578125 32.425781 107.496094 32.542969 107.398438 32.648438 C 107.238281 34.777344 107.203125 36.910156 107.300781 39.050781 C 107.414062 40.167969 107.996094 40.550781 109.050781 40.199219 C 109.261719 40.027344 109.410156 39.808594 109.5 39.550781 C 109.628906 38.824219 109.679688 38.089844 109.648438 37.351562 C 109.25 37.351562 108.851562 37.351562 108.449219 37.351562 C 108.449219 36.949219 108.449219 36.550781 108.449219 36.148438 Z M 108.449219 36.148438 "/>
<path style=" stroke:none;fill-rule:evenodd;fill:rgb(98.823529%,99.215686%,99.607843%);fill-opacity:1;" d="M 49.449219 30.75 C 50.195312 30.6875 50.910156 30.757812 51.601562 30.949219 C 52.316406 34.519531 53.035156 38.085938 53.75 41.648438 C 53.117188 41.648438 52.484375 41.648438 51.851562 41.648438 C 51.800781 40.835938 51.667969 40.035156 51.449219 39.25 C 50.820312 39.152344 50.1875 39.117188 49.550781 39.148438 C 49.417969 39.984375 49.285156 40.816406 49.148438 41.648438 C 48.515625 41.648438 47.882812 41.648438 47.25 41.648438 C 47.96875 38.011719 48.699219 34.378906 49.449219 30.75 Z M 49.449219 30.75 "/>
<path style=" stroke:none;fill-rule:evenodd;fill:rgb(72.54902%,83.529412%,89.411765%);fill-opacity:1;" d="M 55.949219 30.75 C 55.515625 30.75 55.082031 30.75 54.648438 30.75 C 54.648438 34.382812 54.648438 38.015625 54.648438 41.648438 C 54.550781 38 54.515625 34.332031 54.550781 30.648438 C 55.035156 30.617188 55.503906 30.652344 55.949219 30.75 Z M 55.949219 30.75 "/>
<path style=" stroke:none;fill-rule:evenodd;fill:rgb(99.607843%,99.607843%,99.607843%);fill-opacity:1;" d="M 55.949219 30.75 C 56.808594 32.632812 57.640625 34.53125 58.449219 36.449219 C 58.445312 36.574219 58.496094 36.675781 58.601562 36.75 C 58.648438 34.75 58.667969 32.75 58.648438 30.75 C 59.183594 30.75 59.714844 30.75 60.25 30.75 C 60.25 34.382812 60.25 38.015625 60.25 41.648438 C 59.789062 41.679688 59.339844 41.648438 58.898438 41.550781 C 58.132812 39.558594 57.316406 37.59375 56.449219 35.648438 C 56.429688 35.507812 56.378906 35.375 56.300781 35.25 C 56.25 37.382812 56.234375 39.515625 56.25 41.648438 C 55.714844 41.648438 55.183594 41.648438 54.648438 41.648438 C 54.648438 38.015625 54.648438 34.382812 54.648438 30.75 C 55.082031 30.75 55.515625 30.75 55.949219 30.75 Z M 55.949219 30.75 "/>
<path style=" stroke:none;fill-rule:evenodd;fill:rgb(30.588235%,58.039216%,72.941176%);fill-opacity:1;" d="M 60.25 30.75 C 59.714844 30.75 59.183594 30.75 58.648438 30.75 C 58.667969 32.75 58.648438 34.75 58.601562 36.75 C 58.496094 36.675781 58.445312 36.574219 58.449219 36.449219 C 58.550781 34.535156 58.582031 32.601562 58.550781 30.648438 C 59.136719 30.617188 59.703125 30.652344 60.25 30.75 Z M 60.25 30.75 "/>
<path style=" stroke:none;fill-rule:evenodd;fill:rgb(99.607843%,99.607843%,99.607843%);fill-opacity:1;" d="M 61.648438 30.75 C 62.917969 30.734375 64.183594 30.75 65.449219 30.800781 C 66.660156 30.976562 67.375 31.660156 67.601562 32.851562 C 67.667969 34.984375 67.667969 37.117188 67.601562 39.25 C 67.4375 40.546875 66.71875 41.328125 65.449219 41.601562 C 64.183594 41.648438 62.917969 41.667969 61.648438 41.648438 C 61.648438 38.015625 61.648438 34.382812 61.648438 30.75 Z M 61.648438 30.75 "/>
<path style=" stroke:none;fill-rule:evenodd;fill:rgb(98.823529%,99.215686%,99.607843%);fill-opacity:1;" d="M 81.449219 32.25 C 81.351562 35.367188 81.316406 38.5 81.351562 41.648438 C 80.683594 41.648438 80.015625 41.648438 79.351562 41.648438 C 79.351562 38.484375 79.351562 35.316406 79.351562 32.148438 C 78.75 32.148438 78.148438 32.148438 77.550781 32.148438 C 77.550781 31.683594 77.550781 31.214844 77.550781 30.75 C 79.417969 30.75 81.285156 30.75 83.148438 30.75 C 83.148438 31.214844 83.148438 31.683594 83.148438 32.148438 C 82.5625 32.117188 81.996094 32.152344 81.449219 32.25 Z M 81.449219 32.25 "/>
<path style=" stroke:none;fill-rule:evenodd;fill:rgb(99.215686%,99.607843%,99.607843%);fill-opacity:1;" d="M 86.648438 36.75 C 86.371094 36.652344 86.070312 36.617188 85.75 36.648438 C 85.75 38.316406 85.75 39.984375 85.75 41.648438 C 85.082031 41.648438 84.417969 41.648438 83.75 41.648438 C 83.75 38.015625 83.75 34.382812 83.75 30.75 C 85.050781 30.734375 86.351562 30.75 87.648438 30.800781 C 88.71875 31 89.402344 31.617188 89.699219 32.648438 C 89.765625 33.316406 89.765625 33.984375 89.699219 34.648438 C 89.570312 35.429688 89.152344 35.996094 88.449219 36.351562 C 89.011719 38.097656 89.511719 39.867188 89.949219 41.648438 C 89.28125 41.683594 88.613281 41.648438 87.949219 41.550781 C 87.515625 39.945312 87.082031 38.347656 86.648438 36.75 Z M 86.648438 36.75 "/>
<path style=" stroke:none;fill-rule:evenodd;fill:rgb(27.843137%,56.862745%,72.156863%);fill-opacity:1;" d="M 99.75 30.75 C 99.285156 30.75 98.816406 30.75 98.351562 30.75 C 98.351562 34.382812 98.351562 38.015625 98.351562 41.648438 C 98.25 38 98.21875 34.332031 98.25 30.648438 C 98.769531 30.617188 99.269531 30.652344 99.75 30.75 Z M 99.75 30.75 "/>
<path style=" stroke:none;fill-rule:evenodd;fill:rgb(99.607843%,99.607843%,99.607843%);fill-opacity:1;" d="M 99.75 30.75 C 100.582031 32.683594 101.417969 34.617188 102.25 36.550781 C 102.300781 36.648438 102.347656 36.746094 102.398438 36.851562 C 102.449219 34.816406 102.46875 32.785156 102.449219 30.75 C 102.984375 30.75 103.515625 30.75 104.050781 30.75 C 104.050781 34.382812 104.050781 38.015625 104.050781 41.648438 C 103.589844 41.679688 103.140625 41.648438 102.699219 41.550781 C 101.832031 39.484375 100.96875 37.417969 100.101562 35.351562 C 100.050781 37.449219 100.03125 39.550781 100.050781 41.648438 C 99.484375 41.648438 98.917969 41.648438 98.351562 41.648438 C 98.351562 38.015625 98.351562 34.382812 98.351562 30.75 C 98.816406 30.75 99.285156 30.75 99.75 30.75 Z M 99.75 30.75 "/>
<path style=" stroke:none;fill-rule:evenodd;fill:rgb(50.196078%,70.588235%,80.784314%);fill-opacity:1;" d="M 102.449219 30.75 C 102.46875 32.785156 102.449219 34.816406 102.398438 36.851562 C 102.347656 36.746094 102.300781 36.648438 102.25 36.550781 C 102.316406 34.617188 102.382812 32.683594 102.449219 30.75 Z M 102.449219 30.75 "/>
<path style=" stroke:none;fill-rule:evenodd;fill:rgb(28.235294%,57.254902%,72.156863%);fill-opacity:1;" d="M 102.449219 30.75 C 102.996094 30.652344 103.5625 30.617188 104.148438 30.648438 C 104.183594 34.332031 104.148438 38 104.050781 41.648438 C 104.050781 38.015625 104.050781 34.382812 104.050781 30.75 C 103.515625 30.75 102.984375 30.75 102.449219 30.75 Z M 102.449219 30.75 "/>
<path style=" stroke:none;fill-rule:evenodd;fill:rgb(3.921569%,41.568627%,61.960784%);fill-opacity:1;" d="M 63.648438 32.148438 C 64.050781 32.132812 64.453125 32.148438 64.851562 32.199219 C 65.234375 32.316406 65.484375 32.566406 65.601562 32.949219 C 65.617188 34 65.632812 35.050781 65.648438 36.101562 C 65.664062 37.257812 65.613281 38.40625 65.5 39.550781 C 65.429688 39.804688 65.28125 39.988281 65.050781 40.101562 C 64.59375 40.230469 64.125 40.28125 63.648438 40.25 C 63.648438 37.550781 63.648438 34.851562 63.648438 32.148438 Z M 63.648438 32.148438 "/>
<path style=" stroke:none;fill-rule:evenodd;fill:rgb(32.156863%,59.215686%,73.333333%);fill-opacity:1;" d="M 86.851562 32.148438 C 86.515625 32.148438 86.183594 32.148438 85.851562 32.148438 C 85.851562 33.214844 85.851562 34.285156 85.851562 35.351562 C 85.75 34.269531 85.71875 33.167969 85.75 32.050781 C 86.136719 32.019531 86.503906 32.050781 86.851562 32.148438 Z M 86.851562 32.148438 "/>
<path style=" stroke:none;fill-rule:evenodd;fill:rgb(1.176471%,40.784314%,61.568627%);fill-opacity:1;" d="M 86.851562 32.148438 C 87.332031 32.214844 87.648438 32.480469 87.800781 32.949219 C 88.203125 34.648438 87.554688 35.449219 85.851562 35.351562 C 85.851562 34.285156 85.851562 33.214844 85.851562 32.148438 C 86.183594 32.148438 86.515625 32.148438 86.851562 32.148438 Z M 86.851562 32.148438 "/>
<path style=" stroke:none;fill-rule:evenodd;fill:rgb(7.843137%,42.352941%,62.745098%);fill-opacity:1;" d="M 93.550781 32.050781 C 94.382812 31.921875 94.898438 32.257812 95.101562 33.050781 C 95.167969 35.148438 95.167969 37.25 95.101562 39.351562 C 94.789062 40.332031 94.171875 40.582031 93.25 40.101562 C 93.054688 39.851562 92.941406 39.570312 92.898438 39.25 C 92.832031 37.183594 92.832031 35.117188 92.898438 33.050781 C 92.945312 32.59375 93.160156 32.261719 93.550781 32.050781 Z M 93.550781 32.050781 "/>
<path style=" stroke:none;fill-rule:evenodd;fill:rgb(8.235294%,42.745098%,62.745098%);fill-opacity:1;" d="M 51.148438 37.550781 C 50.761719 37.742188 50.328125 37.808594 49.851562 37.75 C 50.027344 36.34375 50.242188 34.945312 50.5 33.550781 C 50.769531 34.875 50.988281 36.207031 51.148438 37.550781 Z M 51.148438 37.550781 "/>
<path style=" stroke:none;fill-rule:evenodd;fill:rgb(25.882353%,56.078431%,71.372549%);fill-opacity:1;" d="M 56.449219 35.648438 C 56.382812 37.648438 56.316406 39.648438 56.25 41.648438 C 56.234375 39.515625 56.25 37.382812 56.300781 35.25 C 56.378906 35.375 56.429688 35.507812 56.449219 35.648438 Z M 56.449219 35.648438 "/>
<path style=" stroke:none;fill-rule:evenodd;fill:rgb(32.156863%,59.215686%,73.333333%);fill-opacity:1;" d="M 108.449219 36.148438 C 109.464844 36.050781 110.5 36.015625 111.550781 36.050781 C 111.582031 37.933594 111.550781 39.800781 111.449219 41.648438 C 111.449219 39.816406 111.449219 37.984375 111.449219 36.148438 C 110.449219 36.148438 109.449219 36.148438 108.449219 36.148438 Z M 108.449219 36.148438 "/>
<path style=" stroke:none;fill-rule:evenodd;fill:rgb(25.098039%,55.686275%,71.372549%);fill-opacity:1;" d="M 86.648438 36.75 C 86.382812 36.75 86.117188 36.75 85.851562 36.75 C 85.882812 38.402344 85.847656 40.035156 85.75 41.648438 C 85.75 39.984375 85.75 38.316406 85.75 36.648438 C 86.070312 36.617188 86.371094 36.652344 86.648438 36.75 Z M 86.648438 36.75 "/>
<path style=" stroke:none;fill-rule:evenodd;fill:rgb(27.843137%,57.254902%,72.156863%);fill-opacity:1;" d="M 51.148438 37.550781 C 51.242188 37.621094 51.273438 37.722656 51.25 37.851562 C 50.765625 37.882812 50.296875 37.847656 49.851562 37.75 C 50.328125 37.808594 50.761719 37.742188 51.148438 37.550781 Z M 51.148438 37.550781 "/>
<path style=" stroke:none;fill-rule:evenodd;fill:rgb(36.862745%,61.960784%,75.294118%);fill-opacity:1;" d="M 81.449219 32.25 C 81.449219 35.417969 81.449219 38.582031 81.449219 41.75 C 80.730469 41.78125 80.03125 41.75 79.351562 41.648438 C 80.015625 41.648438 80.683594 41.648438 81.351562 41.648438 C 81.316406 38.5 81.351562 35.367188 81.449219 32.25 Z M 81.449219 32.25 "/>
<path style=" stroke:none;fill-rule:evenodd;fill:rgb(98.431373%,99.215686%,99.215686%);fill-opacity:1;" d="M 59.851562 48.550781 C 62.277344 48.113281 63.542969 49.113281 63.648438 51.550781 C 63.078125 51.566406 62.511719 51.632812 61.949219 51.75 C 61.941406 51.253906 61.824219 50.789062 61.601562 50.351562 C 61.1875 50.015625 60.734375 49.96875 60.25 50.199219 C 59.824219 50.90625 59.875 51.589844 60.398438 52.25 C 61.363281 53.011719 62.261719 53.847656 63.101562 54.75 C 63.957031 55.992188 64.058594 57.292969 63.398438 58.648438 C 62.453125 59.679688 61.304688 59.996094 59.949219 59.601562 C 59.089844 59.308594 58.539062 58.722656 58.300781 57.851562 C 58.160156 57.359375 58.074219 56.859375 58.050781 56.351562 C 58.652344 56.25 59.25 56.148438 59.851562 56.050781 C 59.796875 56.785156 59.996094 57.433594 60.449219 58 C 61.648438 58.359375 62.132812 57.910156 61.898438 56.648438 C 61.765625 56.382812 61.632812 56.117188 61.5 55.851562 C 60.566406 54.984375 59.632812 54.117188 58.699219 53.25 C 57.921875 52.054688 57.855469 50.820312 58.5 49.550781 C 58.878906 49.105469 59.332031 48.769531 59.851562 48.550781 Z M 59.851562 48.550781 "/>
<path style=" stroke:none;fill-rule:evenodd;fill:rgb(29.803922%,57.647059%,72.54902%);fill-opacity:1;" d="M 63.949219 48.648438 C 65.832031 48.550781 67.734375 48.515625 69.648438 48.550781 C 69.683594 49.101562 69.648438 49.636719 69.550781 50.148438 C 69.550781 49.648438 69.550781 49.148438 69.550781 48.648438 C 67.683594 48.648438 65.816406 48.648438 63.949219 48.648438 Z M 63.949219 48.648438 "/>
<path style=" stroke:none;fill-rule:evenodd;fill:rgb(29.803922%,57.647059%,72.54902%);fill-opacity:1;" d="M 72.851562 48.648438 C 74.734375 48.550781 76.632812 48.515625 78.550781 48.550781 C 78.582031 49.101562 78.546875 49.636719 78.449219 50.148438 C 78.449219 49.648438 78.449219 49.148438 78.449219 48.648438 C 76.582031 48.648438 74.714844 48.648438 72.851562 48.648438 Z M 72.851562 48.648438 "/>
<path style=" stroke:none;fill-rule:evenodd;fill:rgb(29.803922%,57.647059%,72.54902%);fill-opacity:1;" d="M 85.648438 48.648438 C 87.53125 48.550781 89.433594 48.515625 91.351562 48.550781 C 91.382812 49.101562 91.347656 49.636719 91.25 50.148438 C 91.25 49.648438 91.25 49.148438 91.25 48.648438 C 89.382812 48.648438 87.515625 48.648438 85.648438 48.648438 Z M 85.648438 48.648438 "/>
<path style=" stroke:none;fill-rule:evenodd;fill:rgb(98.431373%,98.823529%,99.215686%);fill-opacity:1;" d="M 97.148438 48.550781 C 97.917969 48.535156 98.683594 48.550781 99.449219 48.601562 C 100.515625 48.933594 101.167969 49.652344 101.398438 50.75 C 101.46875 52.949219 101.46875 55.148438 101.398438 57.351562 C 101.148438 58.667969 100.363281 59.453125 99.050781 59.699219 C 97.1875 60.09375 95.9375 59.410156 95.300781 57.648438 C 95.140625 55.453125 95.109375 53.253906 95.199219 51.050781 C 95.324219 49.792969 95.976562 48.960938 97.148438 48.550781 Z M 97.148438 48.550781 "/>
<path style=" stroke:none;fill-rule:evenodd;fill:rgb(98.431373%,98.823529%,99.215686%);fill-opacity:1;" d="M 111.449219 48.550781 C 113.359375 48.160156 114.542969 48.894531 115 50.75 C 115.082031 50.988281 115.066406 51.222656 114.949219 51.449219 C 114.425781 51.601562 113.894531 51.703125 113.351562 51.75 C 113.402344 51.097656 113.203125 50.546875 112.75 50.101562 C 111.65625 49.960938 111.207031 50.445312 111.398438 51.550781 C 111.46875 51.683594 111.53125 51.816406 111.601562 51.949219 C 112.449219 52.773438 113.3125 53.574219 114.199219 54.351562 C 115.117188 55.34375 115.453125 56.507812 115.199219 57.851562 C 114.578125 59.335938 113.460938 59.953125 111.851562 59.699219 C 110.617188 59.492188 109.867188 58.773438 109.601562 57.550781 C 109.515625 57.152344 109.46875 56.753906 109.449219 56.351562 C 110.046875 56.226562 110.644531 56.128906 111.25 56.050781 C 111.226562 56.773438 111.425781 57.421875 111.851562 58 C 112.777344 58.386719 113.277344 58.085938 113.351562 57.101562 C 113.335938 56.6875 113.21875 56.304688 113 55.949219 C 112.03125 55.050781 111.066406 54.148438 110.101562 53.25 C 109.320312 52.054688 109.253906 50.820312 109.898438 49.550781 C 110.320312 49.050781 110.835938 48.714844 111.449219 48.550781 Z M 111.449219 48.550781 "/>
<path style=" stroke:none;fill-rule:evenodd;fill:rgb(99.607843%,100%,99.607843%);fill-opacity:1;" d="M 47.851562 48.648438 C 48.515625 48.648438 49.183594 48.648438 49.851562 48.648438 C 49.851562 52.285156 49.851562 55.917969 49.851562 59.550781 C 49.183594 59.550781 48.515625 59.550781 47.851562 59.550781 C 47.851562 55.917969 47.851562 52.285156 47.851562 48.648438 Z M 47.851562 48.648438 "/>
<path style=" stroke:none;fill-rule:evenodd;fill:rgb(99.607843%,99.607843%,99.607843%);fill-opacity:1;" d="M 55.148438 54.449219 C 55.199219 54.546875 55.25 54.648438 55.300781 54.75 C 55.351562 52.71875 55.367188 50.683594 55.351562 48.648438 C 55.882812 48.648438 56.417969 48.648438 56.949219 48.648438 C 56.949219 52.285156 56.949219 55.917969 56.949219 59.550781 C 56.472656 59.578125 56.007812 59.542969 55.550781 59.449219 C 54.730469 57.375 53.878906 55.308594 53 53.25 C 52.949219 55.351562 52.933594 57.449219 52.949219 59.550781 C 52.382812 59.550781 51.816406 59.550781 51.25 59.550781 C 51.25 55.917969 51.25 52.285156 51.25 48.648438 C 51.742188 48.621094 52.226562 48.652344 52.699219 48.75 C 53.519531 50.652344 54.335938 52.550781 55.148438 54.449219 Z M 55.148438 54.449219 "/>
<path style=" stroke:none;fill-rule:evenodd;fill:rgb(50.196078%,70.196078%,80.784314%);fill-opacity:1;" d="M 55.351562 48.648438 C 55.367188 50.683594 55.351562 52.71875 55.300781 54.75 C 55.25 54.648438 55.199219 54.546875 55.148438 54.449219 C 55.214844 52.515625 55.285156 50.582031 55.351562 48.648438 Z M 55.351562 48.648438 "/>
<path style=" stroke:none;fill-rule:evenodd;fill:rgb(27.843137%,56.862745%,72.156863%);fill-opacity:1;" d="M 56.949219 48.648438 C 57.050781 52.300781 57.082031 55.964844 57.050781 59.648438 C 56.503906 59.710938 56.003906 59.644531 55.550781 59.449219 C 56.007812 59.542969 56.472656 59.578125 56.949219 59.550781 C 56.949219 55.917969 56.949219 52.285156 56.949219 48.648438 Z M 56.949219 48.648438 "/>
<path style=" stroke:none;fill-rule:evenodd;fill:rgb(98.823529%,99.215686%,99.215686%);fill-opacity:1;" d="M 63.949219 48.648438 C 65.816406 48.648438 67.683594 48.648438 69.550781 48.648438 C 69.550781 49.148438 69.550781 49.648438 69.550781 50.148438 C 68.984375 50.148438 68.417969 50.148438 67.851562 50.148438 C 67.851562 53.285156 67.851562 56.417969 67.851562 59.550781 C 67.183594 59.550781 66.515625 59.550781 65.851562 59.550781 C 65.851562 56.417969 65.851562 53.285156 65.851562 50.148438 C 65.214844 50.148438 64.582031 50.148438 63.949219 50.148438 C 63.949219 49.648438 63.949219 49.148438 63.949219 48.648438 Z M 63.949219 48.648438 "/>
<path style=" stroke:none;fill-rule:evenodd;fill:rgb(98.823529%,99.215686%,99.215686%);fill-opacity:1;" d="M 70.25 48.648438 C 70.917969 48.648438 71.582031 48.648438 72.25 48.648438 C 72.25 52.285156 72.25 55.917969 72.25 59.550781 C 71.582031 59.550781 70.917969 59.550781 70.25 59.550781 C 70.25 55.917969 70.25 52.285156 70.25 48.648438 Z M 70.25 48.648438 "/>
<path style=" stroke:none;fill-rule:evenodd;fill:rgb(98.823529%,99.215686%,99.215686%);fill-opacity:1;" d="M 72.851562 48.648438 C 74.714844 48.648438 76.582031 48.648438 78.449219 48.648438 C 78.449219 49.148438 78.449219 49.648438 78.449219 50.148438 C 77.882812 50.148438 77.316406 50.148438 76.75 50.148438 C 76.75 53.285156 76.75 56.417969 76.75 59.550781 C 76.082031 59.550781 75.417969 59.550781 74.75 59.550781 C 74.75 56.417969 74.75 53.285156 74.75 50.148438 C 74.117188 50.148438 73.484375 50.148438 72.851562 50.148438 C 72.851562 49.648438 72.851562 49.148438 72.851562 48.648438 Z M 72.851562 48.648438 "/>
<path style=" stroke:none;fill-rule:evenodd;fill:rgb(98.823529%,99.215686%,99.607843%);fill-opacity:1;" d="M 78.949219 48.648438 C 79.617188 48.648438 80.285156 48.648438 80.949219 48.648438 C 80.933594 51.417969 80.949219 54.183594 81 56.949219 C 81.191406 58.230469 81.824219 58.527344 82.898438 57.851562 C 83.085938 57.542969 83.183594 57.210938 83.199219 56.851562 C 83.25 54.117188 83.265625 51.382812 83.25 48.648438 C 83.882812 48.648438 84.515625 48.648438 85.148438 48.648438 C 85.195312 51.6875 85.144531 54.71875 85 57.75 C 84.558594 59.152344 83.59375 59.820312 82.101562 59.75 C 80.125 59.742188 79.089844 58.742188 79 56.75 C 78.949219 54.050781 78.933594 51.351562 78.949219 48.648438 Z M 78.949219 48.648438 "/>
<path style=" stroke:none;fill-rule:evenodd;fill:rgb(98.823529%,99.215686%,99.215686%);fill-opacity:1;" d="M 85.648438 48.648438 C 87.515625 48.648438 89.382812 48.648438 91.25 48.648438 C 91.25 49.148438 91.25 49.648438 91.25 50.148438 C 90.683594 50.148438 90.117188 50.148438 89.550781 50.148438 C 89.550781 53.285156 89.550781 56.417969 89.550781 59.550781 C 88.882812 59.550781 88.214844 59.550781 87.550781 59.550781 C 87.550781 56.417969 87.550781 53.285156 87.550781 50.148438 C 86.917969 50.148438 86.285156 50.148438 85.648438 50.148438 C 85.648438 49.648438 85.648438 49.148438 85.648438 48.648438 Z M 85.648438 48.648438 "/>
<path style=" stroke:none;fill-rule:evenodd;fill:rgb(98.823529%,99.215686%,99.215686%);fill-opacity:1;" d="M 91.949219 48.648438 C 92.617188 48.648438 93.285156 48.648438 93.949219 48.648438 C 93.949219 52.285156 93.949219 55.917969 93.949219 59.550781 C 93.285156 59.550781 92.617188 59.550781 91.949219 59.550781 C 91.949219 55.917969 91.949219 52.285156 91.949219 48.648438 Z M 91.949219 48.648438 "/>
<path style=" stroke:none;fill-rule:evenodd;fill:rgb(99.607843%,99.607843%,99.607843%);fill-opacity:1;" d="M 106.550781 54.449219 C 106.597656 54.546875 106.648438 54.648438 106.699219 54.75 C 106.75 52.71875 106.765625 50.683594 106.75 48.648438 C 107.28125 48.648438 107.816406 48.648438 108.351562 48.648438 C 108.351562 52.285156 108.351562 55.917969 108.351562 59.550781 C 107.890625 59.578125 107.441406 59.546875 107 59.449219 C 106.183594 57.480469 105.363281 55.515625 104.550781 53.550781 C 104.5 53.453125 104.449219 53.351562 104.398438 53.25 C 104.351562 55.351562 104.332031 57.449219 104.351562 59.550781 C 103.78125 59.550781 103.21875 59.550781 102.648438 59.550781 C 102.648438 55.917969 102.648438 52.285156 102.648438 48.648438 C 103.144531 48.621094 103.625 48.652344 104.101562 48.75 C 104.945312 50.640625 105.761719 52.539062 106.550781 54.449219 Z M 106.550781 54.449219 "/>
<path style=" stroke:none;fill-rule:evenodd;fill:rgb(26.27451%,56.078431%,71.372549%);fill-opacity:1;" d="M 106.75 48.648438 C 106.765625 50.683594 106.75 52.71875 106.699219 54.75 C 106.648438 54.648438 106.597656 54.546875 106.550781 54.449219 C 106.617188 52.515625 106.683594 50.582031 106.75 48.648438 Z M 106.75 48.648438 "/>
<path style=" stroke:none;fill-rule:evenodd;fill:rgb(3.529412%,41.568627%,61.960784%);fill-opacity:1;" d="M 97.75 50.050781 C 98.117188 50.035156 98.484375 50.050781 98.851562 50.101562 C 99.167969 50.246094 99.347656 50.496094 99.398438 50.851562 C 99.464844 53.015625 99.464844 55.183594 99.398438 57.351562 C 99.050781 58.28125 98.433594 58.496094 97.550781 58 C 97.429688 57.835938 97.34375 57.652344 97.300781 57.449219 C 97.234375 55.183594 97.234375 52.917969 97.300781 50.648438 C 97.378906 50.386719 97.53125 50.183594 97.75 50.050781 Z M 97.75 50.050781 "/>
<path style=" stroke:none;fill-rule:evenodd;fill:rgb(29.803922%,58.039216%,72.941176%);fill-opacity:1;" d="M 104.550781 53.550781 C 104.449219 55.566406 104.417969 57.597656 104.449219 59.648438 C 103.832031 59.683594 103.230469 59.648438 102.648438 59.550781 C 103.21875 59.550781 103.78125 59.550781 104.351562 59.550781 C 104.332031 57.449219 104.351562 55.351562 104.398438 53.25 C 104.449219 53.351562 104.5 53.453125 104.550781 53.550781 Z M 104.550781 53.550781 "/>
<path style=" stroke:none;fill-rule:evenodd;fill:rgb(38.823529%,63.137255%,76.078431%);fill-opacity:1;" d="M 70.25 48.648438 C 70.25 52.285156 70.25 55.917969 70.25 59.550781 C 70.917969 59.550781 71.582031 59.550781 72.25 59.550781 C 71.570312 59.648438 70.867188 59.683594 70.148438 59.648438 C 70.117188 55.964844 70.148438 52.300781 70.25 48.648438 Z M 70.25 48.648438 "/>
<path style=" stroke:none;fill-rule:evenodd;fill:rgb(38.823529%,63.137255%,76.078431%);fill-opacity:1;" d="M 91.949219 48.648438 C 91.949219 52.285156 91.949219 55.917969 91.949219 59.550781 C 92.617188 59.550781 93.285156 59.550781 93.949219 59.550781 C 93.269531 59.648438 92.570312 59.683594 91.851562 59.648438 C 91.816406 55.964844 91.851562 52.300781 91.949219 48.648438 Z M 91.949219 48.648438 "/>
<path style=" stroke:none;fill-rule:evenodd;fill:rgb(98.823529%,99.215686%,99.607843%);fill-opacity:1;" d="M 108.25 65.949219 C 108.78125 65.949219 109.316406 65.949219 109.851562 65.949219 C 109.957031 67.429688 109.574219 68.765625 108.699219 69.949219 C 107.515625 70.867188 106.164062 71.300781 104.648438 71.25 C 104.4375 69.335938 105.070312 67.785156 106.550781 66.601562 C 107.105469 66.320312 107.671875 66.105469 108.25 65.949219 Z M 108.25 65.949219 "/>
<path style=" stroke:none;fill-rule:evenodd;fill:rgb(98.431373%,99.215686%,99.215686%);fill-opacity:1;" d="M 99.648438 66.449219 C 102.660156 68.15625 103.191406 70.457031 101.25 73.351562 C 98.339844 71.605469 97.804688 69.304688 99.648438 66.449219 Z M 99.648438 66.449219 "/>
<path style=" stroke:none;fill-rule:evenodd;fill:rgb(98.823529%,99.215686%,99.215686%);fill-opacity:1;" d="M 95.648438 70.75 C 98.460938 72.136719 99.144531 74.234375 97.699219 77.050781 C 97.589844 77.238281 97.457031 77.40625 97.300781 77.550781 C 94.402344 75.871094 93.851562 73.605469 95.648438 70.75 Z M 95.648438 70.75 "/>
<path style=" stroke:none;fill-rule:evenodd;fill:rgb(99.607843%,99.607843%,99.607843%);fill-opacity:1;" d="M 42.550781 124.050781 C 42.550781 122.484375 42.550781 120.917969 42.550781 119.351562 C 43.082031 119.351562 43.617188 119.351562 44.148438 119.351562 C 50.949219 119.476562 57.75 119.609375 64.550781 119.75 C 64.550781 117.484375 64.550781 115.21875 64.550781 112.949219 C 61.109375 112.765625 57.839844 111.914062 54.75 110.398438 C 52.589844 109.140625 50.457031 107.839844 48.351562 106.5 C 47.558594 106.089844 46.757812 105.703125 45.949219 105.351562 C 45.949219 105.316406 45.949219 105.28125 45.949219 105.25 C 48.660156 105.78125 51.324219 105.628906 53.949219 104.800781 C 54.578125 104.554688 55.179688 104.253906 55.75 103.898438 C 57.585938 102.496094 59.554688 101.296875 61.648438 100.300781 C 62.285156 100.144531 62.917969 99.976562 63.550781 99.800781 C 59.277344 99.324219 56.058594 97.238281 53.898438 93.550781 C 53.074219 92.0625 52.4375 90.496094 52 88.851562 C 51.445312 86.476562 50.878906 84.113281 50.300781 81.75 C 49.792969 79.792969 48.960938 77.992188 47.800781 76.351562 C 47.121094 75.574219 46.304688 74.988281 45.351562 74.601562 C 51.617188 73.832031 57.214844 75.402344 62.148438 79.300781 C 63.910156 80.792969 65.609375 82.359375 67.25 84 C 69.0625 85.539062 71.128906 86.605469 73.449219 87.199219 C 76.875 87.691406 79.910156 86.824219 82.550781 84.601562 C 84.515625 82.601562 86.679688 80.867188 89.050781 79.398438 C 90.425781 78.597656 91.859375 78.464844 93.351562 79 C 94.457031 79.90625 95.503906 80.886719 96.5 81.949219 C 96.867188 80.453125 97.5 79.085938 98.398438 77.851562 C 99.605469 76.375 100.90625 74.972656 102.300781 73.648438 C 102.804688 73.03125 103.285156 72.398438 103.75 71.75 C 103.984375 71.898438 104.21875 72.050781 104.449219 72.199219 C 104.066406 72.714844 103.683594 73.234375 103.300781 73.75 C 101.898438 75.1875 100.53125 76.652344 99.199219 78.148438 C 98.152344 79.480469 97.515625 80.980469 97.300781 82.648438 C 98.054688 83.238281 98.839844 83.789062 99.648438 84.300781 C 98.816406 84.332031 97.980469 84.382812 97.148438 84.449219 C 97.15625 86.359375 97.488281 88.207031 98.148438 90 C 98.109375 90.09375 98.042969 90.160156 97.949219 90.199219 C 97.753906 90.25 97.550781 90.265625 97.351562 90.25 C 96.800781 88.390625 96.433594 86.488281 96.25 84.550781 C 91.890625 85.226562 89.507812 87.757812 89.101562 92.148438 C 89.066406 93.949219 89.035156 95.75 89 97.550781 C 88.476562 103.4375 85.558594 107.652344 80.25 110.199219 C 77.3125 111.539062 74.246094 112.421875 71.050781 112.851562 C 71.050781 115.21875 71.050781 117.582031 71.050781 119.949219 C 75.148438 120.066406 79.25 120.117188 83.351562 120.101562 C 85.75 119.839844 88.148438 119.589844 90.550781 119.351562 C 90.535156 117.984375 90.550781 116.617188 90.601562 115.25 C 90.75 114.96875 90.964844 114.75 91.25 114.601562 C 95.515625 114.53125 99.785156 114.53125 104.050781 114.601562 C 104.390625 114.707031 104.640625 114.925781 104.800781 115.25 C 104.867188 119.515625 104.867188 123.78125 104.800781 128.050781 C 104.726562 128.355469 104.542969 128.574219 104.25 128.699219 C 99.882812 128.765625 95.515625 128.765625 91.148438 128.699219 C 90.863281 128.574219 90.679688 128.359375 90.601562 128.050781 C 90.550781 126.71875 90.535156 125.382812 90.550781 124.050781 C 87.734375 123.746094 84.917969 123.445312 82.101562 123.148438 C 68.917969 123.503906 55.734375 123.804688 42.550781 124.050781 Z M 42.550781 124.050781 "/>
<path style=" stroke:none;fill-rule:evenodd;fill:rgb(98.431373%,99.215686%,99.215686%);fill-opacity:1;" d="M 105.851562 73.550781 C 107.371094 73.421875 108.671875 73.890625 109.75 74.949219 C 107.800781 77.398438 105.667969 77.582031 103.351562 75.5 C 104.027344 74.636719 104.859375 73.988281 105.851562 73.550781 Z M 105.851562 73.550781 "/>
<path style=" stroke:none;fill-rule:evenodd;fill:rgb(98.431373%,99.215686%,99.215686%);fill-opacity:1;" d="M 102.148438 77.949219 C 103.875 77.855469 105.207031 78.539062 106.148438 80 C 103.742188 82.015625 101.609375 81.765625 99.75 79.25 C 100.464844 78.632812 101.261719 78.199219 102.148438 77.949219 Z M 102.148438 77.949219 "/>
<path style=" stroke:none;fill-rule:evenodd;fill:rgb(40%,64.313725%,76.862745%);fill-opacity:1;" d="M 45.148438 105.050781 C 44.824219 105.042969 44.523438 104.960938 44.25 104.800781 C 44.574219 104.804688 44.875 104.890625 45.148438 105.050781 Z M 45.148438 105.050781 "/>
<path style=" stroke:none;fill-rule:evenodd;fill:rgb(59.607843%,75.294118%,83.921569%);fill-opacity:1;" d="M 45.148438 105.050781 C 45.449219 105.027344 45.714844 105.097656 45.949219 105.25 C 45.949219 105.28125 45.949219 105.316406 45.949219 105.351562 C 45.660156 105.285156 45.394531 105.1875 45.148438 105.050781 Z M 45.148438 105.050781 "/>
<path style=" stroke:none;fill-rule:evenodd;fill:rgb(99.607843%,99.607843%,99.607843%);fill-opacity:1;" d="M 90.648438 109.550781 C 95.316406 109.53125 99.984375 109.550781 104.648438 109.601562 C 105.824219 109.945312 106.308594 110.726562 106.101562 111.949219 C 105.882812 112.570312 105.464844 112.984375 104.851562 113.199219 C 100.050781 113.265625 95.25 113.265625 90.449219 113.199219 C 89.28125 112.511719 88.996094 111.558594 89.601562 110.351562 C 89.894531 109.996094 90.242188 109.730469 90.648438 109.550781 Z M 90.648438 109.550781 "/>
<path style=" stroke:none;fill-rule:evenodd;fill:rgb(0%,40.784314%,61.568627%);fill-opacity:1;" d="M 68.25 113.050781 C 68.515625 113.050781 68.785156 113.050781 69.050781 113.050781 C 69.050781 115.316406 69.050781 117.582031 69.050781 119.851562 C 68.214844 119.851562 67.382812 119.851562 66.550781 119.851562 C 66.550781 117.617188 66.550781 115.382812 66.550781 113.148438 C 67.136719 113.183594 67.703125 113.148438 68.25 113.050781 Z M 68.25 113.050781 "/>
<path style=" stroke:none;fill-rule:evenodd;fill:rgb(51.764706%,71.372549%,81.176471%);fill-opacity:1;" d="M 68.25 113.050781 C 67.703125 113.148438 67.136719 113.183594 66.550781 113.148438 C 66.550781 115.382812 66.550781 117.617188 66.550781 119.851562 C 66.449219 117.601562 66.417969 115.335938 66.449219 113.050781 C 67.050781 113.050781 67.648438 113.050781 68.25 113.050781 Z M 68.25 113.050781 "/>
<path style=" stroke:none;fill-rule:evenodd;fill:rgb(98.823529%,99.215686%,99.607843%);fill-opacity:1;" d="M 38.550781 118.148438 C 39.191406 118.117188 39.824219 118.167969 40.449219 118.300781 C 40.839844 118.523438 41.121094 118.839844 41.300781 119.25 C 41.460938 120.710938 41.492188 122.179688 41.398438 123.648438 C 41.277344 124.285156 40.925781 124.734375 40.351562 125 C 39.683594 125.066406 39.015625 125.066406 38.351562 125 C 37.84375 124.726562 37.527344 124.3125 37.398438 123.75 C 37.332031 122.316406 37.332031 120.882812 37.398438 119.449219 C 37.601562 118.847656 37.984375 118.414062 38.550781 118.148438 Z M 38.550781 118.148438 "/>
<path style=" stroke:none;fill-rule:evenodd;fill:rgb(25.882353%,56.078431%,71.372549%);fill-opacity:1;" d="M 44.148438 119.351562 C 43.617188 119.351562 43.082031 119.351562 42.550781 119.351562 C 42.550781 120.917969 42.550781 122.484375 42.550781 124.050781 C 42.449219 122.46875 42.417969 120.867188 42.449219 119.25 C 43.035156 119.21875 43.601562 119.25 44.148438 119.351562 Z M 44.148438 119.351562 "/>
<path style=" stroke:none;fill-rule:evenodd;fill:rgb(99.607843%,99.607843%,99.607843%);fill-opacity:1;" d="M 90.648438 130.050781 C 95.351562 130.03125 100.050781 130.050781 104.75 130.101562 C 106.15625 130.695312 106.507812 131.679688 105.800781 133.050781 C 105.539062 133.355469 105.222656 133.570312 104.851562 133.699219 C 100.082031 133.765625 95.316406 133.765625 90.550781 133.699219 C 89.75 133.371094 89.316406 132.769531 89.25 131.898438 C 89.359375 131.007812 89.824219 130.390625 90.648438 130.050781 Z M 90.648438 130.050781 "/>
</g>
</svg>
