<?xml version="1.0" encoding="UTF-8"?>
<svg xmlns="http://www.w3.org/2000/svg" xmlns:xlink="http://www.w3.org/1999/xlink" width="150px" height="150px" viewBox="0 0 150 150" version="1.1">
<g id="surface1">
<path style=" stroke:none;fill-rule:evenodd;fill:rgb(9.803922%,28.235294%,41.568627%);fill-opacity:1;" d="M -0.0507812 -0.0507812 C 49.949219 -0.0507812 99.949219 -0.0507812 149.949219 -0.0507812 C 149.949219 49.949219 149.949219 99.949219 149.949219 149.949219 C 99.949219 149.949219 49.949219 149.949219 -0.0507812 149.949219 C -0.0507812 99.949219 -0.0507812 49.949219 -0.0507812 -0.0507812 Z M -0.0507812 -0.0507812 "/>
<path style=" stroke:none;fill-rule:evenodd;fill:rgb(98.039216%,98.431373%,98.823529%);fill-opacity:1;" d="M 94.25 20.25 C 94.351562 20.25 94.449219 20.25 94.550781 20.25 C 94.527344 20.378906 94.558594 20.480469 94.648438 20.550781 C 94.644531 21.179688 94.84375 21.730469 95.25 22.199219 C 95.8125 22.476562 96.261719 22.359375 96.601562 21.851562 C 96.730469 21.207031 96.628906 20.609375 96.300781 20.050781 C 95.367188 19.183594 94.433594 18.316406 93.5 17.449219 C 92.90625 16.570312 92.703125 15.605469 92.898438 14.550781 C 93.191406 13.558594 93.839844 12.941406 94.851562 12.699219 C 97.121094 12.386719 98.320312 13.371094 98.449219 15.648438 C 97.851562 15.75 97.25 15.851562 96.648438 15.949219 C 96.765625 15.308594 96.597656 14.757812 96.148438 14.300781 C 95.054688 14.0625 94.605469 14.511719 94.800781 15.648438 C 94.847656 15.824219 94.914062 15.992188 95 16.148438 C 95.847656 16.972656 96.714844 17.773438 97.601562 18.550781 C 98.785156 19.902344 98.953125 21.371094 98.101562 22.949219 C 96.71875 24.179688 95.265625 24.261719 93.75 23.199219 C 93.105469 22.402344 92.804688 21.484375 92.851562 20.449219 C 93.316406 20.382812 93.785156 20.316406 94.25 20.25 Z M 94.25 20.25 "/>
<path style=" stroke:none;fill-rule:evenodd;fill:rgb(98.431373%,98.823529%,98.823529%);fill-opacity:1;" d="M 119.050781 12.648438 C 121.09375 12.382812 122.261719 13.25 122.550781 15.25 C 122.515625 15.382812 122.484375 15.515625 122.449219 15.648438 C 121.925781 15.800781 121.394531 15.902344 120.851562 15.949219 C 120.917969 15.234375 120.683594 14.652344 120.148438 14.199219 C 119.097656 14.121094 118.679688 14.605469 118.898438 15.648438 C 118.957031 15.871094 119.054688 16.074219 119.199219 16.25 C 120.066406 17.050781 120.933594 17.851562 121.800781 18.648438 C 122.859375 19.941406 123.027344 21.339844 122.300781 22.851562 C 121.921875 23.332031 121.4375 23.648438 120.851562 23.800781 C 118.3125 24.144531 117.011719 23.027344 116.949219 20.449219 C 117.558594 20.390625 118.15625 20.292969 118.75 20.148438 C 118.726562 20.824219 118.878906 21.457031 119.199219 22.050781 C 120.136719 22.640625 120.683594 22.390625 120.851562 21.300781 C 120.835938 20.886719 120.71875 20.503906 120.5 20.148438 C 119.59375 19.261719 118.660156 18.394531 117.699219 17.550781 C 116.871094 16.394531 116.738281 15.164062 117.300781 13.851562 C 117.742188 13.238281 118.324219 12.835938 119.050781 12.648438 Z M 119.050781 12.648438 "/>
<path style=" stroke:none;fill-rule:evenodd;fill:rgb(73.72549%,79.215686%,82.745098%);fill-opacity:1;" d="M 72.75 14.25 C 72.75 13.785156 72.75 13.316406 72.75 12.851562 C 70.917969 12.851562 69.082031 12.851562 67.25 12.851562 C 67.25 13.316406 67.25 13.785156 67.25 14.25 C 67.214844 14.25 67.183594 14.25 67.148438 14.25 C 67.148438 13.75 67.148438 13.25 67.148438 12.75 C 69.050781 12.75 70.949219 12.75 72.851562 12.75 C 72.882812 13.269531 72.847656 13.769531 72.75 14.25 Z M 72.75 14.25 "/>
<path style=" stroke:none;fill-rule:evenodd;fill:rgb(77.254902%,81.960784%,85.098039%);fill-opacity:1;" d="M 80.449219 12.851562 C 81.964844 12.75 83.5 12.71875 85.050781 12.75 C 85.050781 13.25 85.050781 13.75 85.050781 14.25 C 84.183594 14.25 83.316406 14.25 82.449219 14.25 C 83.265625 14.152344 84.097656 14.117188 84.949219 14.148438 C 84.949219 13.714844 84.949219 13.285156 84.949219 12.851562 C 83.449219 12.851562 81.949219 12.851562 80.449219 12.851562 Z M 80.449219 12.851562 "/>
<path style=" stroke:none;fill-rule:evenodd;fill:rgb(99.607843%,99.607843%,99.607843%);fill-opacity:1;" d="M 18.351562 41.449219 C 16.515625 41.449219 14.683594 41.449219 12.851562 41.449219 C 12.882812 33.816406 12.851562 26.183594 12.75 18.550781 C 12.6875 18.5625 12.65625 18.59375 12.648438 18.648438 C 11.382812 19.082031 10.117188 19.515625 8.851562 19.949219 C 8.75 18.632812 8.71875 17.300781 8.75 15.949219 C 10.667969 15.15625 12.4375 14.105469 14.050781 12.800781 C 15.484375 12.75 16.917969 12.734375 18.351562 12.75 C 18.351562 22.316406 18.351562 31.882812 18.351562 41.449219 Z M 18.351562 41.449219 "/>
<path style=" stroke:none;fill-rule:evenodd;fill:rgb(99.607843%,99.607843%,99.607843%);fill-opacity:1;" d="M 34.648438 16.550781 C 32.714844 24.824219 30.746094 33.089844 28.75 41.351562 C 26.957031 41.449219 25.15625 41.480469 23.351562 41.449219 C 25.320312 33.308594 27.320312 25.175781 29.351562 17.050781 C 26.800781 16.949219 24.234375 16.917969 21.648438 16.949219 C 21.648438 15.582031 21.648438 14.214844 21.648438 12.851562 C 25.984375 12.851562 30.316406 12.851562 34.648438 12.851562 C 34.648438 14.082031 34.648438 15.316406 34.648438 16.550781 Z M 34.648438 16.550781 "/>
<path style=" stroke:none;fill-rule:evenodd;fill:rgb(65.882353%,72.941176%,77.647059%);fill-opacity:1;" d="M 34.648438 16.550781 C 34.648438 15.316406 34.648438 14.082031 34.648438 12.851562 C 30.316406 12.851562 25.984375 12.851562 21.648438 12.851562 C 21.648438 14.214844 21.648438 15.582031 21.648438 16.949219 C 24.234375 16.917969 26.800781 16.949219 29.351562 17.050781 C 26.75 17.050781 24.148438 17.050781 21.550781 17.050781 C 21.550781 15.617188 21.550781 14.183594 21.550781 12.75 C 25.949219 12.75 30.351562 12.75 34.75 12.75 C 34.78125 14.035156 34.75 15.300781 34.648438 16.550781 Z M 34.648438 16.550781 "/>
<path style=" stroke:none;fill-rule:evenodd;fill:rgb(58.823529%,67.45098%,73.333333%);fill-opacity:1;" d="M 51.550781 12.851562 C 50.316406 12.851562 49.082031 12.851562 47.851562 12.851562 C 47.851562 16.484375 47.851562 20.117188 47.851562 23.75 C 47.75 20.101562 47.71875 16.433594 47.75 12.75 C 49.035156 12.71875 50.300781 12.75 51.550781 12.851562 Z M 51.550781 12.851562 "/>
<path style=" stroke:none;fill-rule:evenodd;fill:rgb(98.823529%,99.215686%,99.215686%);fill-opacity:1;" d="M 51.550781 12.851562 C 52.761719 12.980469 53.480469 13.644531 53.699219 14.851562 C 54.132812 17.835938 52.847656 19.167969 49.851562 18.851562 C 49.851562 20.484375 49.851562 22.117188 49.851562 23.75 C 49.183594 23.75 48.515625 23.75 47.851562 23.75 C 47.851562 20.117188 47.851562 16.484375 47.851562 12.851562 C 49.082031 12.851562 50.316406 12.851562 51.550781 12.851562 Z M 51.550781 12.851562 "/>
<path style=" stroke:none;fill-rule:evenodd;fill:rgb(98.039216%,98.431373%,98.431373%);fill-opacity:1;" d="M 55.351562 23.75 C 54.699219 23.78125 54.066406 23.75 53.449219 23.648438 C 54.132812 20.046875 54.851562 16.445312 55.601562 12.851562 C 56.332031 12.714844 57.066406 12.714844 57.800781 12.851562 C 58.535156 16.480469 59.253906 20.113281 59.949219 23.75 C 59.316406 23.75 58.683594 23.75 58.050781 23.75 C 57.949219 22.910156 57.816406 22.078125 57.648438 21.25 C 57.015625 21.25 56.382812 21.25 55.75 21.25 C 55.617188 22.082031 55.484375 22.917969 55.351562 23.75 Z M 55.351562 23.75 "/>
<path style=" stroke:none;fill-rule:evenodd;fill:rgb(99.215686%,99.215686%,99.215686%);fill-opacity:1;" d="M 66.949219 23.75 C 66.242188 23.78125 65.542969 23.746094 64.851562 23.648438 C 64.464844 22.011719 64.066406 20.378906 63.648438 18.75 C 63.351562 18.75 63.050781 18.75 62.75 18.75 C 62.75 20.417969 62.75 22.082031 62.75 23.75 C 62.082031 23.75 61.417969 23.75 60.75 23.75 C 60.75 20.082031 60.75 16.417969 60.75 12.75 C 61.917969 12.734375 63.082031 12.75 64.25 12.800781 C 65.558594 12.910156 66.375 13.59375 66.699219 14.851562 C 66.859375 15.910156 66.691406 16.910156 66.199219 17.851562 C 65.933594 18.035156 65.683594 18.234375 65.449219 18.449219 C 65.96875 20.210938 66.46875 21.980469 66.949219 23.75 Z M 66.949219 23.75 "/>
<path style=" stroke:none;fill-rule:evenodd;fill:rgb(99.215686%,99.215686%,99.215686%);fill-opacity:1;" d="M 72.75 14.25 C 72.183594 14.25 71.617188 14.25 71.050781 14.25 C 71.050781 17.417969 71.050781 20.582031 71.050781 23.75 C 70.382812 23.75 69.714844 23.75 69.050781 23.75 C 69.050781 20.582031 69.050781 17.417969 69.050781 14.25 C 68.449219 14.25 67.851562 14.25 67.25 14.25 C 67.25 13.785156 67.25 13.316406 67.25 12.851562 C 69.082031 12.851562 70.917969 12.851562 72.75 12.851562 C 72.75 13.316406 72.75 13.785156 72.75 14.25 Z M 72.75 14.25 "/>
<path style=" stroke:none;fill-rule:evenodd;fill:rgb(98.431373%,98.431373%,98.823529%);fill-opacity:1;" d="M 77.25 18.550781 C 77.296875 18.648438 77.347656 18.746094 77.398438 18.851562 C 77.449219 16.816406 77.464844 14.785156 77.449219 12.75 C 78.015625 12.75 78.582031 12.75 79.148438 12.75 C 79.148438 16.417969 79.148438 20.082031 79.148438 23.75 C 78.65625 23.78125 78.171875 23.746094 77.699219 23.648438 C 76.871094 21.652344 76.054688 19.652344 75.25 17.648438 C 75.222656 17.570312 75.171875 17.503906 75.101562 17.449219 C 75.050781 19.550781 75.035156 21.648438 75.050781 23.75 C 74.484375 23.75 73.917969 23.75 73.351562 23.75 C 73.351562 20.082031 73.351562 16.417969 73.351562 12.75 C 73.84375 12.71875 74.328125 12.753906 74.800781 12.851562 C 75.617188 14.753906 76.433594 16.652344 77.25 18.550781 Z M 77.25 18.550781 "/>
<path style=" stroke:none;fill-rule:evenodd;fill:rgb(32.54902%,46.27451%,56.078431%);fill-opacity:1;" d="M 77.449219 12.75 C 77.464844 14.785156 77.449219 16.816406 77.398438 18.851562 C 77.347656 18.746094 77.296875 18.648438 77.25 18.550781 C 77.316406 16.617188 77.382812 14.683594 77.449219 12.75 Z M 77.449219 12.75 "/>
<path style=" stroke:none;fill-rule:evenodd;fill:rgb(99.215686%,99.215686%,99.215686%);fill-opacity:1;" d="M 80.449219 12.851562 C 81.949219 12.851562 83.449219 12.851562 84.949219 12.851562 C 84.949219 13.285156 84.949219 13.714844 84.949219 14.148438 C 84.097656 14.117188 83.265625 14.152344 82.449219 14.25 C 82.449219 15.285156 82.449219 16.316406 82.449219 17.351562 C 83.117188 17.351562 83.785156 17.351562 84.449219 17.351562 C 84.449219 17.816406 84.449219 18.285156 84.449219 18.75 C 83.785156 18.75 83.117188 18.75 82.449219 18.75 C 82.449219 19.949219 82.449219 21.148438 82.449219 22.351562 C 83.316406 22.351562 84.183594 22.351562 85.050781 22.351562 C 85.050781 22.816406 85.050781 23.285156 85.050781 23.75 C 83.515625 23.75 81.984375 23.75 80.449219 23.75 C 80.449219 20.117188 80.449219 16.484375 80.449219 12.851562 Z M 80.449219 12.851562 "/>
<path style=" stroke:none;fill-rule:evenodd;fill:rgb(99.215686%,99.215686%,99.215686%);fill-opacity:1;" d="M 89.351562 12.851562 C 90.441406 12.886719 91.226562 13.386719 91.699219 14.351562 C 91.855469 15.175781 91.886719 16.011719 91.800781 16.851562 C 91.71875 17.125 91.621094 17.390625 91.5 17.648438 C 91.210938 17.941406 90.925781 18.222656 90.648438 18.5 C 91.132812 20.214844 91.597656 21.929688 92.050781 23.648438 C 91.402344 23.75 90.734375 23.78125 90.050781 23.75 C 89.640625 22.101562 89.207031 20.46875 88.75 18.851562 C 88.472656 18.753906 88.171875 18.71875 87.851562 18.75 C 87.851562 20.417969 87.851562 22.082031 87.851562 23.75 C 87.214844 23.75 86.582031 23.75 85.949219 23.75 C 85.949219 20.117188 85.949219 16.484375 85.949219 12.851562 C 87.082031 12.851562 88.214844 12.851562 89.351562 12.851562 Z M 89.351562 12.851562 "/>
<path style=" stroke:none;fill-rule:evenodd;fill:rgb(99.215686%,99.607843%,99.607843%);fill-opacity:1;" d="M 103.75 23.75 C 103.75 22.082031 103.75 20.417969 103.75 18.75 C 102.996094 18.71875 102.265625 18.75 101.550781 18.851562 C 101.550781 20.484375 101.550781 22.117188 101.550781 23.75 C 100.882812 23.75 100.21875 23.75 99.550781 23.75 C 99.550781 20.117188 99.550781 16.484375 99.550781 12.851562 C 100.183594 12.851562 100.816406 12.851562 101.449219 12.851562 C 101.417969 14.367188 101.449219 15.867188 101.550781 17.351562 C 102.28125 17.351562 103.015625 17.351562 103.75 17.351562 C 103.75 15.816406 103.75 14.285156 103.75 12.75 C 104.417969 12.75 105.082031 12.75 105.75 12.75 C 105.75 16.417969 105.75 20.082031 105.75 23.75 C 105.082031 23.75 104.417969 23.75 103.75 23.75 Z M 103.75 23.75 "/>
<path style=" stroke:none;fill-rule:evenodd;fill:rgb(68.235294%,74.901961%,79.607843%);fill-opacity:1;" d="M 101.550781 17.351562 C 101.449219 15.867188 101.417969 14.367188 101.449219 12.851562 C 100.816406 12.851562 100.183594 12.851562 99.550781 12.851562 C 99.550781 16.484375 99.550781 20.117188 99.550781 23.75 C 99.449219 20.101562 99.417969 16.433594 99.449219 12.75 C 100.148438 12.75 100.851562 12.75 101.550781 12.75 C 101.550781 14.285156 101.550781 15.816406 101.550781 17.351562 Z M 101.550781 17.351562 "/>
<path style=" stroke:none;fill-rule:evenodd;fill:rgb(99.607843%,99.607843%,99.607843%);fill-opacity:1;" d="M 107.148438 12.75 C 107.816406 12.75 108.484375 12.75 109.148438 12.75 C 109.148438 16.417969 109.148438 20.082031 109.148438 23.75 C 108.484375 23.75 107.816406 23.75 107.148438 23.75 C 107.148438 20.082031 107.148438 16.417969 107.148438 12.75 Z M 107.148438 12.75 "/>
<path style=" stroke:none;fill-rule:evenodd;fill:rgb(58.823529%,67.45098%,73.333333%);fill-opacity:1;" d="M 114.25 12.851562 C 113.015625 12.851562 111.78125 12.851562 110.550781 12.851562 C 110.550781 16.484375 110.550781 20.117188 110.550781 23.75 C 110.449219 20.101562 110.417969 16.433594 110.449219 12.75 C 111.734375 12.71875 113 12.75 114.25 12.851562 Z M 114.25 12.851562 "/>
<path style=" stroke:none;fill-rule:evenodd;fill:rgb(98.823529%,99.215686%,99.215686%);fill-opacity:1;" d="M 114.25 12.851562 C 115.417969 12.964844 116.132812 13.601562 116.398438 14.75 C 116.882812 17.785156 115.597656 19.152344 112.550781 18.851562 C 112.550781 20.484375 112.550781 22.117188 112.550781 23.75 C 111.882812 23.75 111.21875 23.75 110.550781 23.75 C 110.550781 20.117188 110.550781 16.484375 110.550781 12.851562 C 111.78125 12.851562 113.015625 12.851562 114.25 12.851562 Z M 114.25 12.851562 "/>
<path style=" stroke:none;fill-rule:evenodd;fill:rgb(10.588235%,28.627451%,41.960784%);fill-opacity:1;" d="M 49.851562 14.25 C 50.394531 14.210938 50.929688 14.261719 51.449219 14.398438 C 51.796875 14.773438 51.929688 15.226562 51.851562 15.75 C 52.027344 16.582031 51.726562 17.132812 50.949219 17.398438 C 50.585938 17.449219 50.21875 17.464844 49.851562 17.449219 C 49.851562 16.382812 49.851562 15.316406 49.851562 14.25 Z M 49.851562 14.25 "/>
<path style=" stroke:none;fill-rule:evenodd;fill:rgb(11.764706%,29.411765%,42.352941%);fill-opacity:1;" d="M 62.75 14.148438 C 64.46875 13.984375 65.152344 14.75 64.800781 16.449219 C 64.691406 16.921875 64.410156 17.238281 63.949219 17.398438 C 63.550781 17.449219 63.152344 17.464844 62.75 17.449219 C 62.75 16.351562 62.75 15.25 62.75 14.148438 Z M 62.75 14.148438 "/>
<path style=" stroke:none;fill-rule:evenodd;fill:rgb(51.764706%,61.568627%,68.627451%);fill-opacity:1;" d="M 88.949219 14.25 C 88.617188 14.25 88.285156 14.25 87.949219 14.25 C 87.949219 15.316406 87.949219 16.382812 87.949219 17.449219 C 87.851562 16.367188 87.816406 15.269531 87.851562 14.148438 C 88.238281 14.117188 88.605469 14.152344 88.949219 14.25 Z M 88.949219 14.25 "/>
<path style=" stroke:none;fill-rule:evenodd;fill:rgb(10.588235%,28.627451%,41.960784%);fill-opacity:1;" d="M 88.949219 14.25 C 89.421875 14.277344 89.738281 14.511719 89.898438 14.949219 C 90.386719 16.71875 89.738281 17.550781 87.949219 17.449219 C 87.949219 16.382812 87.949219 15.316406 87.949219 14.25 C 88.285156 14.25 88.617188 14.25 88.949219 14.25 Z M 88.949219 14.25 "/>
<path style=" stroke:none;fill-rule:evenodd;fill:rgb(10.588235%,28.627451%,41.960784%);fill-opacity:1;" d="M 112.550781 14.25 C 113.097656 14.210938 113.628906 14.261719 114.148438 14.398438 C 114.304688 14.519531 114.421875 14.671875 114.5 14.851562 C 114.566406 15.484375 114.566406 16.117188 114.5 16.75 C 114.386719 16.960938 114.238281 17.144531 114.050781 17.300781 C 113.558594 17.433594 113.058594 17.484375 112.550781 17.449219 C 112.550781 16.382812 112.550781 15.316406 112.550781 14.25 Z M 112.550781 14.25 "/>
<path style=" stroke:none;fill-rule:evenodd;fill:rgb(49.019608%,59.215686%,67.058824%);fill-opacity:1;" d="M 67.148438 14.25 C 67.183594 14.25 67.214844 14.25 67.25 14.25 C 67.851562 14.25 68.449219 14.25 69.050781 14.25 C 69.050781 17.417969 69.050781 20.582031 69.050781 23.75 C 69.714844 23.75 70.382812 23.75 71.050781 23.75 C 70.367188 23.847656 69.667969 23.882812 68.949219 23.851562 C 68.949219 20.683594 68.949219 17.515625 68.949219 14.351562 C 68.332031 14.382812 67.730469 14.347656 67.148438 14.25 Z M 67.148438 14.25 "/>
<path style=" stroke:none;fill-rule:evenodd;fill:rgb(12.941176%,29.803922%,43.137255%);fill-opacity:1;" d="M 57.351562 19.550781 C 57.351562 19.648438 57.351562 19.75 57.351562 19.851562 C 56.917969 19.851562 56.484375 19.851562 56.050781 19.851562 C 56.050781 19.75 56.050781 19.648438 56.050781 19.550781 C 56.277344 18.21875 56.492188 16.886719 56.699219 15.550781 C 56.949219 16.878906 57.164062 18.210938 57.351562 19.550781 Z M 57.351562 19.550781 "/>
<path style=" stroke:none;fill-rule:evenodd;fill:rgb(76.862745%,81.568627%,85.098039%);fill-opacity:1;" d="M 8.75 15.949219 C 8.71875 17.300781 8.75 18.632812 8.851562 19.949219 C 8.84375 20.003906 8.8125 20.039062 8.75 20.050781 C 8.617188 18.667969 8.617188 17.300781 8.75 15.949219 Z M 8.75 15.949219 "/>
<path style=" stroke:none;fill-rule:evenodd;fill:rgb(32.54902%,46.27451%,56.078431%);fill-opacity:1;" d="M 75.25 17.648438 C 75.183594 19.683594 75.117188 21.714844 75.050781 23.75 C 75.035156 21.648438 75.050781 19.550781 75.101562 17.449219 C 75.171875 17.503906 75.222656 17.570312 75.25 17.648438 Z M 75.25 17.648438 "/>
<path style=" stroke:none;fill-rule:evenodd;fill:rgb(36.078431%,49.019608%,58.039216%);fill-opacity:1;" d="M 12.648438 18.648438 C 12.65625 18.59375 12.6875 18.5625 12.75 18.550781 C 12.851562 26.183594 12.882812 33.816406 12.851562 41.449219 C 14.683594 41.449219 16.515625 41.449219 18.351562 41.449219 C 16.5 41.550781 14.632812 41.582031 12.75 41.550781 C 12.785156 33.898438 12.75 26.265625 12.648438 18.648438 Z M 12.648438 18.648438 "/>
<path style=" stroke:none;fill-rule:evenodd;fill:rgb(53.333333%,62.745098%,69.803922%);fill-opacity:1;" d="M 89.351562 12.851562 C 88.214844 12.851562 87.082031 12.851562 85.949219 12.851562 C 85.949219 16.484375 85.949219 20.117188 85.949219 23.75 C 86.582031 23.75 87.214844 23.75 87.851562 23.75 C 87.851562 22.082031 87.851562 20.417969 87.851562 18.75 C 88.171875 18.71875 88.472656 18.753906 88.75 18.851562 C 88.484375 18.851562 88.214844 18.851562 87.949219 18.851562 C 87.949219 20.515625 87.949219 22.183594 87.949219 23.851562 C 87.25 23.851562 86.550781 23.851562 85.851562 23.851562 C 85.851562 20.148438 85.851562 16.449219 85.851562 12.75 C 87.035156 12.71875 88.203125 12.75 89.351562 12.851562 Z M 89.351562 12.851562 "/>
<path style=" stroke:none;fill-rule:evenodd;fill:rgb(37.647059%,50.196078%,59.607843%);fill-opacity:1;" d="M 101.550781 18.851562 C 102.265625 18.75 102.996094 18.71875 103.75 18.75 C 103.75 20.417969 103.75 22.082031 103.75 23.75 C 103.648438 22.132812 103.617188 20.5 103.648438 18.851562 C 102.949219 18.851562 102.25 18.851562 101.550781 18.851562 Z M 101.550781 18.851562 "/>
<path style=" stroke:none;fill-rule:evenodd;fill:rgb(59.215686%,67.843137%,73.72549%);fill-opacity:1;" d="M 56.050781 19.550781 C 56.050781 19.648438 56.050781 19.75 56.050781 19.851562 C 56.484375 19.851562 56.917969 19.851562 57.351562 19.851562 C 57.351562 19.75 57.351562 19.648438 57.351562 19.550781 C 57.445312 19.65625 57.476562 19.789062 57.449219 19.949219 C 56.949219 19.949219 56.449219 19.949219 55.949219 19.949219 C 55.921875 19.789062 55.957031 19.65625 56.050781 19.550781 Z M 56.050781 19.550781 "/>
<path style=" stroke:none;fill-rule:evenodd;fill:rgb(52.54902%,61.960784%,69.019608%);fill-opacity:1;" d="M 94.25 20.25 C 94.355469 20.15625 94.488281 20.125 94.648438 20.148438 C 94.648438 20.285156 94.648438 20.417969 94.648438 20.550781 C 94.558594 20.480469 94.527344 20.378906 94.550781 20.25 C 94.449219 20.25 94.351562 20.25 94.25 20.25 Z M 94.25 20.25 "/>
<path style=" stroke:none;fill-rule:evenodd;fill:rgb(31.372549%,45.490196%,55.294118%);fill-opacity:1;" d="M 53.449219 23.648438 C 54.066406 23.75 54.699219 23.78125 55.351562 23.75 C 54.699219 23.882812 54.03125 23.882812 53.351562 23.75 C 53.363281 23.6875 53.394531 23.65625 53.449219 23.648438 Z M 53.449219 23.648438 "/>
<path style=" stroke:none;fill-rule:evenodd;fill:rgb(32.156863%,45.882353%,55.686275%);fill-opacity:1;" d="M 64.851562 23.648438 C 65.542969 23.746094 66.242188 23.78125 66.949219 23.75 C 66.617188 23.816406 66.269531 23.851562 65.898438 23.851562 C 65.511719 23.847656 65.160156 23.78125 64.851562 23.648438 Z M 64.851562 23.648438 "/>
<path style=" stroke:none;fill-rule:evenodd;fill:rgb(32.156863%,45.882353%,55.686275%);fill-opacity:1;" d="M 92.050781 23.648438 C 92.105469 23.65625 92.136719 23.6875 92.148438 23.75 C 91.433594 23.882812 90.734375 23.882812 90.050781 23.75 C 90.734375 23.78125 91.402344 23.75 92.050781 23.648438 Z M 92.050781 23.648438 "/>
<path style=" stroke:none;fill-rule:evenodd;fill:rgb(98.039216%,98.431373%,98.823529%);fill-opacity:1;" d="M 55.25 30.550781 C 57.464844 30.25 58.746094 31.183594 59.101562 33.351562 C 59.167969 35.25 59.167969 37.148438 59.101562 39.050781 C 58.6875 41.234375 57.371094 42.148438 55.148438 41.800781 C 53.621094 41.429688 52.835938 40.445312 52.800781 38.851562 C 52.703125 36.777344 52.738281 34.710938 52.898438 32.648438 C 53.234375 31.429688 54.019531 30.730469 55.25 30.550781 Z M 55.25 30.550781 "/>
<path style=" stroke:none;fill-rule:evenodd;fill:rgb(98.823529%,98.823529%,99.215686%);fill-opacity:1;" d="M 94.25 36.148438 C 95.25 36.148438 96.25 36.148438 97.25 36.148438 C 97.25 37.984375 97.25 39.816406 97.25 41.648438 C 96.816406 41.648438 96.382812 41.648438 95.949219 41.648438 C 95.980469 41.335938 95.929688 41.035156 95.800781 40.75 C 95.078125 41.839844 94.09375 42.15625 92.851562 41.699219 C 91.726562 41.140625 91.144531 40.222656 91.101562 38.949219 C 91.011719 36.847656 91.042969 34.746094 91.199219 32.648438 C 91.632812 31.214844 92.601562 30.515625 94.101562 30.550781 C 95.121094 30.503906 95.988281 30.835938 96.699219 31.550781 C 97.136719 32.429688 97.320312 33.363281 97.25 34.351562 C 96.582031 34.351562 95.917969 34.351562 95.25 34.351562 C 95.265625 33.78125 95.25 33.214844 95.199219 32.648438 C 94.730469 32.007812 94.148438 31.890625 93.449219 32.300781 C 93.355469 32.441406 93.269531 32.59375 93.199219 32.75 C 93.039062 34.878906 93.003906 37.011719 93.101562 39.148438 C 93.300781 40.242188 93.917969 40.5625 94.949219 40.101562 C 95.15625 39.847656 95.304688 39.566406 95.398438 39.25 C 95.449219 38.652344 95.464844 38.050781 95.449219 37.449219 C 95.050781 37.449219 94.648438 37.449219 94.25 37.449219 C 94.25 37.015625 94.25 36.582031 94.25 36.148438 Z M 94.25 36.148438 "/>
<path style=" stroke:none;fill-rule:evenodd;fill:rgb(98.039216%,98.431373%,98.823529%);fill-opacity:1;" d="M 100.648438 30.550781 C 101.695312 30.4375 102.660156 30.652344 103.550781 31.199219 C 104.125 31.800781 104.441406 32.515625 104.5 33.351562 C 104.566406 35.25 104.566406 37.148438 104.5 39.050781 C 104.363281 40.644531 103.511719 41.5625 101.949219 41.800781 C 99.792969 42.109375 98.542969 41.191406 98.199219 39.050781 C 98.132812 37.117188 98.132812 35.183594 98.199219 33.25 C 98.347656 31.71875 99.164062 30.820312 100.648438 30.550781 Z M 100.648438 30.550781 "/>
<path style=" stroke:none;fill-rule:evenodd;fill:rgb(98.431373%,98.823529%,98.823529%);fill-opacity:1;" d="M 119.351562 30.550781 C 121.101562 30.28125 122.21875 30.980469 122.699219 32.648438 C 122.78125 32.957031 122.765625 33.253906 122.648438 33.550781 C 122.125 33.691406 121.59375 33.792969 121.050781 33.851562 C 121.082031 33.363281 120.996094 32.894531 120.800781 32.449219 C 120.230469 32.019531 119.699219 32.054688 119.199219 32.550781 C 119.074219 33.164062 119.171875 33.730469 119.5 34.25 C 120.398438 35.082031 121.300781 35.917969 122.199219 36.75 C 122.890625 37.671875 123.121094 38.707031 122.898438 39.851562 C 122.632812 40.984375 121.914062 41.636719 120.75 41.800781 C 118.425781 41.925781 117.222656 40.808594 117.148438 38.449219 C 117.730469 38.367188 118.296875 38.234375 118.851562 38.050781 C 118.871094 38.890625 119.171875 39.609375 119.75 40.199219 C 120.09375 40.269531 120.425781 40.238281 120.75 40.101562 C 121.175781 39.328125 121.125 38.578125 120.601562 37.851562 C 119.585938 36.996094 118.621094 36.09375 117.699219 35.148438 C 117.1875 34.078125 117.121094 32.976562 117.5 31.851562 C 117.960938 31.179688 118.578125 30.746094 119.351562 30.550781 Z M 119.351562 30.550781 "/>
<path style=" stroke:none;fill-rule:evenodd;fill:rgb(54.509804%,63.921569%,70.588235%);fill-opacity:1;" d="M 52.351562 30.75 C 50.851562 30.75 49.351562 30.75 47.851562 30.75 C 47.851562 34.382812 47.851562 38.015625 47.851562 41.648438 C 47.75 38 47.71875 34.332031 47.75 30.648438 C 49.300781 30.617188 50.835938 30.652344 52.351562 30.75 Z M 52.351562 30.75 "/>
<path style=" stroke:none;fill-rule:evenodd;fill:rgb(98.823529%,98.823529%,99.215686%);fill-opacity:1;" d="M 52.351562 30.75 C 52.351562 31.214844 52.351562 31.683594 52.351562 32.148438 C 51.515625 32.148438 50.683594 32.148438 49.851562 32.148438 C 49.851562 33.183594 49.851562 34.214844 49.851562 35.25 C 50.464844 35.347656 51.097656 35.382812 51.75 35.351562 C 51.75 35.785156 51.75 36.214844 51.75 36.648438 C 51.097656 36.617188 50.464844 36.652344 49.851562 36.75 C 49.851562 38.382812 49.851562 40.015625 49.851562 41.648438 C 49.183594 41.648438 48.515625 41.648438 47.851562 41.648438 C 47.851562 38.015625 47.851562 34.382812 47.851562 30.75 C 49.351562 30.75 50.851562 30.75 52.351562 30.75 Z M 52.351562 30.75 "/>
<path style=" stroke:none;fill-rule:evenodd;fill:rgb(98.823529%,98.823529%,99.215686%);fill-opacity:1;" d="M 60.148438 30.648438 C 61.25 30.632812 62.351562 30.648438 63.449219 30.699219 C 65.613281 30.96875 66.496094 32.1875 66.101562 34.351562 C 66.0625 35.261719 65.644531 35.925781 64.851562 36.351562 C 65.335938 38.125 65.835938 39.890625 66.351562 41.648438 C 65.648438 41.648438 64.949219 41.648438 64.25 41.648438 C 63.863281 39.980469 63.460938 38.3125 63.050781 36.648438 C 62.75 36.648438 62.449219 36.648438 62.148438 36.648438 C 62.148438 38.316406 62.148438 39.984375 62.148438 41.648438 C 61.484375 41.648438 60.816406 41.648438 60.148438 41.648438 C 60.148438 37.984375 60.148438 34.316406 60.148438 30.648438 Z M 60.148438 30.648438 "/>
<path style=" stroke:none;fill-rule:evenodd;fill:rgb(97.647059%,98.039216%,98.431373%);fill-opacity:1;" d="M 71.25 41.648438 C 71.25 38.484375 71.25 35.316406 71.25 32.148438 C 70.617188 32.148438 69.984375 32.148438 69.351562 32.148438 C 69.351562 31.648438 69.351562 31.148438 69.351562 30.648438 C 71.25 30.648438 73.148438 30.648438 75.050781 30.648438 C 75.050781 31.183594 75.050781 31.714844 75.050781 32.25 C 74.449219 32.25 73.851562 32.25 73.25 32.25 C 73.25 35.382812 73.25 38.515625 73.25 41.648438 C 72.582031 41.648438 71.917969 41.648438 71.25 41.648438 Z M 71.25 41.648438 "/>
<path style=" stroke:none;fill-rule:evenodd;fill:rgb(98.431373%,98.823529%,98.823529%);fill-opacity:1;" d="M 75.449219 30.75 C 76.117188 30.75 76.785156 30.75 77.449219 30.75 C 77.417969 32.269531 77.449219 33.769531 77.550781 35.25 C 78.25 35.25 78.949219 35.25 79.648438 35.25 C 79.75 33.769531 79.78125 32.269531 79.75 30.75 C 80.417969 30.75 81.082031 30.75 81.75 30.75 C 81.75 34.382812 81.75 38.015625 81.75 41.648438 C 81.082031 41.648438 80.417969 41.648438 79.75 41.648438 C 79.78125 40 79.75 38.367188 79.648438 36.75 C 78.949219 36.75 78.25 36.75 77.550781 36.75 C 77.449219 38.367188 77.417969 40 77.449219 41.648438 C 76.785156 41.648438 76.117188 41.648438 75.449219 41.648438 C 75.449219 38.015625 75.449219 34.382812 75.449219 30.75 Z M 75.449219 30.75 "/>
<path style=" stroke:none;fill-rule:evenodd;fill:rgb(54.509804%,63.921569%,70.588235%);fill-opacity:1;" d="M 75.449219 30.75 C 76.132812 30.652344 76.832031 30.617188 77.550781 30.648438 C 77.550781 32.183594 77.550781 33.714844 77.550781 35.25 C 77.449219 33.769531 77.417969 32.269531 77.449219 30.75 C 76.785156 30.75 76.117188 30.75 75.449219 30.75 Z M 75.449219 30.75 "/>
<path style=" stroke:none;fill-rule:evenodd;fill:rgb(54.509804%,63.921569%,70.588235%);fill-opacity:1;" d="M 81.75 30.75 C 81.082031 30.75 80.417969 30.75 79.75 30.75 C 79.78125 32.269531 79.75 33.769531 79.648438 35.25 C 79.648438 33.714844 79.648438 32.183594 79.648438 30.648438 C 80.367188 30.617188 81.070312 30.652344 81.75 30.75 Z M 81.75 30.75 "/>
<path style=" stroke:none;fill-rule:evenodd;fill:rgb(98.823529%,98.823529%,99.215686%);fill-opacity:1;" d="M 87.050781 36.648438 C 86.351562 36.648438 85.648438 36.648438 84.949219 36.648438 C 84.917969 37.867188 84.949219 39.066406 85.050781 40.25 C 85.882812 40.25 86.714844 40.25 87.550781 40.25 C 87.550781 40.714844 87.550781 41.183594 87.550781 41.648438 C 86.015625 41.648438 84.484375 41.648438 82.949219 41.648438 C 82.949219 37.984375 82.949219 34.316406 82.949219 30.648438 C 84.484375 30.648438 86.015625 30.648438 87.550781 30.648438 C 87.550781 31.148438 87.550781 31.648438 87.550781 32.148438 C 86.683594 32.148438 85.816406 32.148438 84.949219 32.148438 C 84.949219 33.183594 84.949219 34.214844 84.949219 35.25 C 85.648438 35.25 86.351562 35.25 87.050781 35.25 C 87.050781 35.714844 87.050781 36.183594 87.050781 36.648438 Z M 87.050781 36.648438 "/>
<path style=" stroke:none;fill-rule:evenodd;fill:rgb(98.039216%,98.431373%,98.431373%);fill-opacity:1;" d="M 106.949219 41.648438 C 106.273438 41.710938 105.640625 41.644531 105.050781 41.449219 C 105.722656 37.875 106.4375 34.308594 107.199219 30.75 C 107.90625 30.652344 108.625 30.617188 109.351562 30.648438 C 110.097656 34.3125 110.828125 37.980469 111.550781 41.648438 C 110.917969 41.648438 110.28125 41.648438 109.648438 41.648438 C 109.53125 40.8125 109.398438 39.980469 109.25 39.148438 C 108.613281 39.117188 107.980469 39.152344 107.351562 39.25 C 107.195312 40.046875 107.0625 40.847656 106.949219 41.648438 Z M 106.949219 41.648438 "/>
<path style=" stroke:none;fill-rule:evenodd;fill:rgb(49.803922%,60%,67.45098%);fill-opacity:1;" d="M 114.25 30.75 C 113.582031 30.75 112.917969 30.75 112.25 30.75 C 112.25 34.382812 112.25 38.015625 112.25 41.648438 C 113.78125 41.648438 115.316406 41.648438 116.851562 41.648438 C 115.300781 41.75 113.734375 41.78125 112.148438 41.75 C 112.148438 38.050781 112.148438 34.351562 112.148438 30.648438 C 112.867188 30.617188 113.570312 30.652344 114.25 30.75 Z M 114.25 30.75 "/>
<path style=" stroke:none;fill-rule:evenodd;fill:rgb(98.823529%,98.823529%,99.215686%);fill-opacity:1;" d="M 114.25 30.75 C 114.25 33.917969 114.25 37.082031 114.25 40.25 C 115.117188 40.25 115.984375 40.25 116.851562 40.25 C 116.851562 40.714844 116.851562 41.183594 116.851562 41.648438 C 115.316406 41.648438 113.78125 41.648438 112.25 41.648438 C 112.25 38.015625 112.25 34.382812 112.25 30.75 C 112.917969 30.75 113.582031 30.75 114.25 30.75 Z M 114.25 30.75 "/>
<path style=" stroke:none;fill-rule:evenodd;fill:rgb(10.588235%,28.627451%,41.960784%);fill-opacity:1;" d="M 55.550781 32.050781 C 56.261719 31.914062 56.746094 32.179688 57 32.851562 C 57.066406 35.015625 57.066406 37.183594 57 39.351562 C 56.765625 40.226562 56.214844 40.507812 55.351562 40.199219 C 55.117188 40.035156 54.96875 39.820312 54.898438 39.550781 C 54.832031 37.285156 54.832031 35.015625 54.898438 32.75 C 55 32.398438 55.21875 32.164062 55.550781 32.050781 Z M 55.550781 32.050781 "/>
<path style=" stroke:none;fill-rule:evenodd;fill:rgb(10.588235%,28.627451%,41.960784%);fill-opacity:1;" d="M 62.148438 32.148438 C 64.035156 31.976562 64.683594 32.8125 64.101562 34.648438 C 63.945312 34.972656 63.695312 35.191406 63.351562 35.300781 C 62.953125 35.351562 62.550781 35.367188 62.148438 35.351562 C 62.148438 34.285156 62.148438 33.214844 62.148438 32.148438 Z M 62.148438 32.148438 "/>
<path style=" stroke:none;fill-rule:evenodd;fill:rgb(10.588235%,28.627451%,41.960784%);fill-opacity:1;" d="M 100.949219 32.050781 C 101.722656 31.910156 102.203125 32.210938 102.398438 32.949219 C 102.46875 35.148438 102.46875 37.351562 102.398438 39.550781 C 101.933594 40.449219 101.300781 40.582031 100.5 39.949219 C 100.402344 39.761719 100.335938 39.5625 100.300781 39.351562 C 100.234375 37.183594 100.234375 35.015625 100.300781 32.851562 C 100.429688 32.507812 100.644531 32.238281 100.949219 32.050781 Z M 100.949219 32.050781 "/>
<path style=" stroke:none;fill-rule:evenodd;fill:rgb(35.686275%,48.627451%,58.039216%);fill-opacity:1;" d="M 69.351562 32.148438 C 69.984375 32.148438 70.617188 32.148438 71.25 32.148438 C 71.25 35.316406 71.25 38.484375 71.25 41.648438 C 71.148438 38.535156 71.117188 35.402344 71.148438 32.25 C 70.53125 32.28125 69.929688 32.25 69.351562 32.148438 Z M 69.351562 32.148438 "/>
<path style=" stroke:none;fill-rule:evenodd;fill:rgb(12.54902%,29.803922%,42.745098%);fill-opacity:1;" d="M 108.949219 37.75 C 108.472656 37.808594 108.035156 37.742188 107.648438 37.550781 C 107.835938 36.210938 108.050781 34.878906 108.300781 33.550781 C 108.527344 34.949219 108.742188 36.347656 108.949219 37.75 Z M 108.949219 37.75 "/>
<path style=" stroke:none;fill-rule:evenodd;fill:rgb(70.588235%,76.862745%,80.784314%);fill-opacity:1;" d="M 49.851562 35.25 C 50.515625 35.25 51.183594 35.25 51.851562 35.25 C 51.851562 35.75 51.851562 36.25 51.851562 36.75 C 51.183594 36.75 50.515625 36.75 49.851562 36.75 C 50.464844 36.652344 51.097656 36.617188 51.75 36.648438 C 51.75 36.214844 51.75 35.785156 51.75 35.351562 C 51.097656 35.382812 50.464844 35.347656 49.851562 35.25 Z M 49.851562 35.25 "/>
<path style=" stroke:none;fill-rule:evenodd;fill:rgb(38.039216%,50.588235%,59.607843%);fill-opacity:1;" d="M 94.25 36.148438 C 95.265625 36.050781 96.296875 36.015625 97.351562 36.050781 C 97.382812 37.933594 97.351562 39.800781 97.25 41.648438 C 97.25 39.816406 97.25 37.984375 97.25 36.148438 C 96.25 36.148438 95.25 36.148438 94.25 36.148438 Z M 94.25 36.148438 "/>
<path style=" stroke:none;fill-rule:evenodd;fill:rgb(38.431373%,50.980392%,60%);fill-opacity:1;" d="M 87.050781 36.648438 C 86.402344 36.75 85.734375 36.78125 85.050781 36.75 C 85.050781 37.917969 85.050781 39.082031 85.050781 40.25 C 84.949219 39.066406 84.917969 37.867188 84.949219 36.648438 C 85.648438 36.648438 86.351562 36.648438 87.050781 36.648438 Z M 87.050781 36.648438 "/>
<path style=" stroke:none;fill-rule:evenodd;fill:rgb(34.509804%,47.45098%,57.254902%);fill-opacity:1;" d="M 107.648438 37.550781 C 108.035156 37.742188 108.472656 37.808594 108.949219 37.75 C 108.503906 37.847656 108.035156 37.882812 107.550781 37.851562 C 107.527344 37.722656 107.558594 37.621094 107.648438 37.550781 Z M 107.648438 37.550781 "/>
<path style=" stroke:none;fill-rule:evenodd;fill:rgb(54.117647%,63.529412%,70.196078%);fill-opacity:1;" d="M 28.75 41.351562 C 27.886719 41.484375 26.984375 41.550781 26.050781 41.550781 C 25.132812 41.550781 24.234375 41.515625 23.351562 41.449219 C 25.15625 41.480469 26.957031 41.449219 28.75 41.351562 Z M 28.75 41.351562 "/>
<path style=" stroke:none;fill-rule:evenodd;fill:rgb(41.176471%,52.941176%,61.568627%);fill-opacity:1;" d="M 77.550781 36.75 C 77.550781 38.417969 77.550781 40.082031 77.550781 41.75 C 76.832031 41.78125 76.132812 41.75 75.449219 41.648438 C 76.117188 41.648438 76.785156 41.648438 77.449219 41.648438 C 77.417969 40 77.449219 38.367188 77.550781 36.75 Z M 77.550781 36.75 "/>
<path style=" stroke:none;fill-rule:evenodd;fill:rgb(41.176471%,52.941176%,61.568627%);fill-opacity:1;" d="M 79.648438 36.75 C 79.75 38.367188 79.78125 40 79.75 41.648438 C 80.417969 41.648438 81.082031 41.648438 81.75 41.648438 C 81.070312 41.75 80.367188 41.78125 79.648438 41.75 C 79.648438 40.082031 79.648438 38.417969 79.648438 36.75 Z M 79.648438 36.75 "/>
<path style=" stroke:none;fill-rule:evenodd;fill:rgb(36.078431%,49.019608%,58.431373%);fill-opacity:1;" d="M 87.550781 40.25 C 87.648438 40.730469 87.683594 41.230469 87.648438 41.75 C 86.066406 41.78125 84.5 41.75 82.949219 41.648438 C 84.484375 41.648438 86.015625 41.648438 87.550781 41.648438 C 87.550781 41.183594 87.550781 40.714844 87.550781 40.25 Z M 87.550781 40.25 "/>
<path style=" stroke:none;fill-rule:evenodd;fill:rgb(32.54902%,46.27451%,56.078431%);fill-opacity:1;" d="M 105.050781 41.449219 C 105.640625 41.644531 106.273438 41.710938 106.949219 41.648438 C 106.300781 41.75 105.636719 41.78125 104.949219 41.75 C 104.925781 41.621094 104.960938 41.519531 105.050781 41.449219 Z M 105.050781 41.449219 "/>
<path style=" stroke:none;fill-rule:evenodd;fill:rgb(99.215686%,99.215686%,99.607843%);fill-opacity:1;" d="M 74.050781 58.25 C 82.589844 57.929688 89.007812 61.429688 93.300781 68.75 C 93.738281 69.582031 94.089844 70.449219 94.351562 71.351562 C 102.800781 72 108.71875 76.199219 112.101562 83.949219 C 114.617188 91.335938 113.414062 98.035156 108.5 104.050781 C 107.644531 104.9375 106.761719 105.789062 105.851562 106.601562 C 107.742188 114.921875 105.476562 121.855469 99.050781 127.398438 C 92.941406 131.839844 86.339844 132.738281 79.25 130.101562 C 78.113281 129.566406 77.015625 128.984375 75.949219 128.351562 C 68.871094 132.707031 61.703125 132.855469 54.449219 128.800781 C 47.785156 124.316406 44.699219 118.03125 45.199219 109.949219 C 45.34375 108.835938 45.558594 107.734375 45.851562 106.648438 C 39.4375 101.0625 37.152344 94.09375 39 85.75 C 41.003906 79.414062 45.085938 74.996094 51.25 72.5 C 53.203125 71.859375 55.203125 71.460938 57.25 71.300781 C 59.917969 64.535156 64.78125 60.300781 71.851562 58.601562 C 72.601562 58.5 73.332031 58.382812 74.050781 58.25 Z M 74.050781 58.25 "/>
<path style=" stroke:none;fill-rule:evenodd;fill:rgb(9.803922%,28.235294%,41.568627%);fill-opacity:1;" d="M 74.351562 62.25 C 80.253906 61.945312 85.003906 64.113281 88.601562 68.75 C 89.1875 69.675781 89.738281 70.625 90.25 71.601562 C 83.726562 73.007812 78.925781 76.660156 75.851562 82.550781 C 72.773438 76.660156 67.972656 73.007812 61.449219 71.601562 C 64.082031 66.183594 68.382812 63.066406 74.351562 62.25 Z M 74.351562 62.25 "/>
<path style=" stroke:none;fill-rule:evenodd;fill:rgb(9.803922%,28.235294%,41.568627%);fill-opacity:1;" d="M 55.648438 75.449219 C 55.851562 75.449219 56.050781 75.449219 56.25 75.449219 C 55.636719 82.101562 57.707031 87.75 62.449219 92.398438 C 55.832031 93.449219 50.847656 96.867188 47.5 102.648438 C 44.097656 99.511719 42.382812 95.613281 42.351562 90.949219 C 42.613281 84.476562 45.613281 79.757812 51.351562 76.800781 C 52.742188 76.175781 54.175781 75.726562 55.648438 75.449219 Z M 55.648438 75.449219 "/>
<path style=" stroke:none;fill-rule:evenodd;fill:rgb(9.803922%,28.235294%,41.568627%);fill-opacity:1;" d="M 95.449219 75.449219 C 102.019531 76.472656 106.4375 80.105469 108.699219 86.351562 C 110.179688 91.800781 109.179688 96.734375 105.699219 101.148438 C 105.230469 101.636719 104.75 102.101562 104.25 102.550781 C 100.914062 96.804688 95.949219 93.386719 89.351562 92.300781 C 93.984375 87.648438 96.019531 82.03125 95.449219 75.449219 Z M 95.449219 75.449219 "/>
<path style=" stroke:none;fill-rule:evenodd;fill:rgb(10.196078%,28.235294%,41.568627%);fill-opacity:1;" d="M 60.351562 75.550781 C 66.902344 76.785156 71.1875 80.585938 73.199219 86.949219 C 73.777344 89.09375 73.894531 91.257812 73.550781 93.449219 C 67.996094 92.445312 63.980469 89.414062 61.5 84.351562 C 60.265625 81.527344 59.882812 78.59375 60.351562 75.550781 Z M 60.351562 75.550781 "/>
<path style=" stroke:none;fill-rule:evenodd;fill:rgb(10.196078%,28.235294%,41.568627%);fill-opacity:1;" d="M 90.851562 75.550781 C 91.046875 75.527344 91.230469 75.558594 91.398438 75.648438 C 92.035156 82.097656 89.75 87.214844 84.550781 91 C 82.617188 92.238281 80.515625 93.054688 78.25 93.449219 C 77.40625 86.796875 79.738281 81.582031 85.25 77.800781 C 86.992188 76.726562 88.859375 75.976562 90.851562 75.550781 Z M 90.851562 75.550781 "/>
<path style=" stroke:none;fill-rule:evenodd;fill:rgb(10.196078%,28.235294%,41.568627%);fill-opacity:1;" d="M 85.949219 96.148438 C 92.554688 96.148438 97.503906 98.980469 100.800781 104.648438 C 100.878906 104.792969 100.859375 104.929688 100.75 105.050781 C 94.757812 107.796875 89.125 107.214844 83.851562 103.300781 C 82.078125 101.839844 80.679688 100.089844 79.648438 98.050781 C 80.515625 97.5 81.449219 97.085938 82.449219 96.800781 C 83.613281 96.476562 84.777344 96.257812 85.949219 96.148438 Z M 85.949219 96.148438 "/>
<path style=" stroke:none;fill-rule:evenodd;fill:rgb(10.196078%,28.235294%,41.568627%);fill-opacity:1;" d="M 63.050781 96.351562 C 66.171875 96.070312 69.121094 96.636719 71.898438 98.050781 C 71.953125 98.230469 71.917969 98.394531 71.800781 98.550781 C 68.300781 104.324219 63.152344 107.042969 56.351562 106.699219 C 54.453125 106.460938 52.652344 105.910156 50.949219 105.050781 C 50.839844 104.964844 50.824219 104.863281 50.898438 104.75 C 53.601562 100 57.652344 97.199219 63.050781 96.351562 Z M 63.050781 96.351562 "/>
<path style=" stroke:none;fill-rule:evenodd;fill:rgb(10.196078%,28.235294%,41.568627%);fill-opacity:1;" d="M 75.648438 100.851562 C 76.382812 101.363281 76.996094 101.996094 77.5 102.75 C 80.84375 107.554688 81.441406 112.6875 79.300781 118.148438 C 78.507812 120.035156 77.375 121.671875 75.898438 123.050781 C 72.773438 119.996094 71.191406 116.261719 71.148438 111.851562 C 71.21875 107.582031 72.71875 103.914062 75.648438 100.851562 Z M 75.648438 100.851562 "/>
<path style=" stroke:none;fill-rule:evenodd;fill:rgb(9.803922%,28.235294%,41.568627%);fill-opacity:1;" d="M 67.351562 108.351562 C 66.457031 114.90625 68.222656 120.640625 72.648438 125.550781 C 68.0625 128.164062 63.328125 128.445312 58.449219 126.398438 C 53.140625 123.824219 50.058594 119.605469 49.199219 113.75 C 49.082031 112.152344 49.164062 110.570312 49.449219 109 C 49.484375 108.949219 49.515625 108.898438 49.550781 108.851562 C 54.863281 111.261719 60.230469 111.378906 65.648438 109.199219 C 66.25 108.964844 66.816406 108.683594 67.351562 108.351562 Z M 67.351562 108.351562 "/>
<path style=" stroke:none;fill-rule:evenodd;fill:rgb(9.803922%,28.235294%,41.568627%);fill-opacity:1;" d="M 84.25 108.351562 C 90.113281 111.363281 96.066406 111.527344 102.101562 108.851562 C 103.199219 114.648438 101.582031 119.601562 97.25 123.699219 C 92.5625 127.488281 87.332031 128.488281 81.550781 126.699219 C 80.785156 126.367188 80.035156 126.019531 79.300781 125.648438 C 79.234375 125.550781 79.234375 125.449219 79.300781 125.351562 C 83.597656 120.480469 85.25 114.8125 84.25 108.351562 Z M 84.25 108.351562 "/>
</g>
</svg>
