<?xml version="1.0" encoding="UTF-8"?>
<svg xmlns="http://www.w3.org/2000/svg" xmlns:xlink="http://www.w3.org/1999/xlink" width="150px" height="150px" viewBox="0 0 150 150" version="1.1">
<g id="surface1">
<path style=" stroke:none;fill-rule:evenodd;fill:rgb(29.803922%,62.352941%,21.960784%);fill-opacity:1;" d="M -0.0507812 -0.0507812 C 49.949219 -0.0507812 99.949219 -0.0507812 149.949219 -0.0507812 C 149.949219 49.949219 149.949219 99.949219 149.949219 149.949219 C 99.949219 149.949219 49.949219 149.949219 -0.0507812 149.949219 C -0.0507812 99.949219 -0.0507812 49.949219 -0.0507812 -0.0507812 Z M -0.0507812 -0.0507812 "/>
<path style=" stroke:none;fill-rule:evenodd;fill:rgb(99.607843%,99.607843%,99.215686%);fill-opacity:1;" d="M 17.949219 12.449219 C 24.707031 12.125 27.691406 15.324219 26.898438 22.050781 C 26.589844 23.484375 25.90625 24.699219 24.851562 25.699219 C 24.433594 25.957031 24 26.191406 23.550781 26.398438 C 25.207031 27.089844 26.253906 28.304688 26.699219 30.050781 C 27.324219 32.847656 27.125 35.582031 26.101562 38.25 C 25.09375 40.386719 23.410156 41.605469 21.050781 41.898438 C 19.539062 42.015625 18.039062 41.949219 16.550781 41.699219 C 14.066406 40.949219 12.546875 39.296875 12 36.75 C 11.695312 35.300781 11.582031 33.832031 11.648438 32.351562 C 13.484375 32.351562 15.316406 32.351562 17.148438 32.351562 C 17.09375 33.527344 17.175781 34.695312 17.398438 35.851562 C 17.835938 37.125 18.71875 37.609375 20.050781 37.300781 C 20.851562 37.097656 21.300781 36.582031 21.398438 35.75 C 21.761719 34.007812 21.730469 32.273438 21.300781 30.550781 C 21.023438 29.773438 20.507812 29.222656 19.75 28.898438 C 18.992188 28.738281 18.226562 28.65625 17.449219 28.648438 C 17.449219 27.316406 17.449219 25.984375 17.449219 24.648438 C 18.507812 24.773438 19.507812 24.589844 20.449219 24.101562 C 21.160156 23.40625 21.542969 22.558594 21.601562 21.550781 C 21.667969 20.582031 21.636719 19.613281 21.5 18.648438 C 21.109375 17.109375 20.125 16.527344 18.550781 16.898438 C 17.949219 17.164062 17.566406 17.617188 17.398438 18.25 C 17.183594 19.441406 17.101562 20.640625 17.148438 21.851562 C 15.316406 21.851562 13.484375 21.851562 11.648438 21.851562 C 11.488281 19.996094 11.703125 18.195312 12.300781 16.449219 C 13.453125 14.082031 15.335938 12.746094 17.949219 12.449219 Z M 17.949219 12.449219 "/>
<path style=" stroke:none;fill-rule:evenodd;fill:rgb(99.215686%,99.215686%,98.823529%);fill-opacity:1;" d="M 45.25 15.351562 C 45.25 15.683594 45.25 16.015625 45.25 16.351562 C 44.648438 16.351562 44.050781 16.351562 43.449219 16.351562 C 43.480469 16.027344 43.449219 15.730469 43.351562 15.449219 C 43.367188 14.421875 42.867188 14.007812 41.851562 14.199219 C 41.601562 14.316406 41.417969 14.5 41.300781 14.75 C 41.136719 16.84375 41.101562 18.945312 41.199219 21.050781 C 41.296875 22.257812 41.914062 22.640625 43.050781 22.199219 C 43.257812 21.949219 43.40625 21.664062 43.5 21.351562 C 43.550781 20.75 43.566406 20.152344 43.550781 19.550781 C 43.148438 19.550781 42.75 19.550781 42.351562 19.550781 C 42.351562 19.082031 42.351562 18.617188 42.351562 18.148438 C 43.351562 18.148438 44.351562 18.148438 45.351562 18.148438 C 45.351562 20.015625 45.351562 21.882812 45.351562 23.75 C 44.917969 23.75 44.484375 23.75 44.050781 23.75 C 44.011719 23.417969 43.960938 23.082031 43.898438 22.75 C 43.503906 23.582031 42.839844 23.980469 41.898438 23.949219 C 40.226562 23.777344 39.328125 22.84375 39.199219 21.148438 C 39.132812 19.117188 39.132812 17.082031 39.199219 15.050781 C 39.550781 13.433594 40.550781 12.632812 42.199219 12.648438 C 44.121094 12.554688 45.136719 13.453125 45.25 15.351562 Z M 45.25 15.351562 "/>
<path style=" stroke:none;fill-rule:evenodd;fill:rgb(98.431373%,99.215686%,98.431373%);fill-opacity:1;" d="M 48.851562 12.648438 C 49.914062 12.519531 50.914062 12.703125 51.851562 13.199219 C 52.425781 13.722656 52.773438 14.371094 52.898438 15.148438 C 52.992188 17.351562 52.957031 19.554688 52.800781 21.75 C 52.570312 22.894531 51.886719 23.578125 50.75 23.800781 C 50.050781 23.867188 49.351562 23.867188 48.648438 23.800781 C 47.492188 23.441406 46.84375 22.660156 46.699219 21.449219 C 46.5 19.285156 46.5 17.117188 46.699219 14.949219 C 46.921875 13.710938 47.640625 12.945312 48.851562 12.648438 Z M 48.851562 12.648438 "/>
<path style=" stroke:none;fill-rule:evenodd;fill:rgb(98.823529%,99.215686%,98.823529%);fill-opacity:1;" d="M 56.550781 12.648438 C 57.492188 12.566406 58.390625 12.714844 59.25 13.101562 C 59.875 13.601562 60.257812 14.25 60.398438 15.050781 C 60.464844 17.148438 60.464844 19.25 60.398438 21.351562 C 60.121094 23.105469 59.085938 23.972656 57.300781 23.949219 C 55.414062 23.960938 54.378906 23.027344 54.199219 21.148438 C 54.105469 18.976562 54.136719 16.8125 54.300781 14.648438 C 54.667969 13.53125 55.417969 12.867188 56.550781 12.648438 Z M 56.550781 12.648438 "/>
<path style=" stroke:none;fill-rule:evenodd;fill:rgb(80.392157%,89.411765%,78.039216%);fill-opacity:1;" d="M 89.851562 12.851562 C 89.109375 12.820312 88.375 12.855469 87.648438 12.949219 C 87.976562 12.816406 88.34375 12.75 88.75 12.75 C 89.136719 12.75 89.5 12.785156 89.851562 12.851562 Z M 89.851562 12.851562 "/>
<path style=" stroke:none;fill-rule:evenodd;fill:rgb(79.607843%,89.019608%,77.254902%);fill-opacity:1;" d="M 103.148438 14.25 C 103.148438 13.785156 103.148438 13.316406 103.148438 12.851562 C 101.316406 12.851562 99.484375 12.851562 97.648438 12.851562 C 97.648438 13.316406 97.648438 13.785156 97.648438 14.25 C 97.550781 13.769531 97.519531 13.269531 97.550781 12.75 C 99.449219 12.75 101.351562 12.75 103.25 12.75 C 103.28125 13.269531 103.25 13.769531 103.148438 14.25 Z M 103.148438 14.25 "/>
<path style=" stroke:none;fill-rule:evenodd;fill:rgb(99.215686%,99.215686%,98.823529%);fill-opacity:1;" d="M 61.851562 12.75 C 63.1875 12.714844 64.519531 12.765625 65.851562 12.898438 C 66.902344 13.152344 67.550781 13.800781 67.800781 14.851562 C 68 17.050781 68 19.25 67.800781 21.449219 C 67.570312 22.78125 66.785156 23.53125 65.449219 23.699219 C 64.25 23.75 63.050781 23.765625 61.851562 23.75 C 61.851562 20.082031 61.851562 16.417969 61.851562 12.75 Z M 61.851562 12.75 "/>
<path style=" stroke:none;fill-rule:evenodd;fill:rgb(99.607843%,99.607843%,99.215686%);fill-opacity:1;" d="M 72.550781 12.75 C 73.214844 12.75 73.882812 12.75 74.550781 12.75 C 74.550781 14.285156 74.550781 15.816406 74.550781 17.351562 C 75.285156 17.351562 76.015625 17.351562 76.75 17.351562 C 76.75 15.816406 76.75 14.285156 76.75 12.75 C 77.417969 12.75 78.082031 12.75 78.75 12.75 C 78.75 16.417969 78.75 20.082031 78.75 23.75 C 78.082031 23.75 77.417969 23.75 76.75 23.75 C 76.75 22.117188 76.75 20.484375 76.75 18.851562 C 76.015625 18.851562 75.285156 18.851562 74.550781 18.851562 C 74.550781 20.484375 74.550781 22.117188 74.550781 23.75 C 73.882812 23.75 73.214844 23.75 72.550781 23.75 C 72.550781 20.082031 72.550781 16.417969 72.550781 12.75 Z M 72.550781 12.75 "/>
<path style=" stroke:none;fill-rule:evenodd;fill:rgb(99.215686%,99.607843%,99.215686%);fill-opacity:1;" d="M 84.449219 18.75 C 83.75 18.75 83.050781 18.75 82.351562 18.75 C 82.351562 19.949219 82.351562 21.148438 82.351562 22.351562 C 83.199219 22.449219 84.066406 22.484375 84.949219 22.449219 C 84.949219 22.882812 84.949219 23.316406 84.949219 23.75 C 83.417969 23.75 81.882812 23.75 80.351562 23.75 C 80.351562 20.082031 80.351562 16.417969 80.351562 12.75 C 81.882812 12.75 83.417969 12.75 84.949219 12.75 C 84.949219 13.25 84.949219 13.75 84.949219 14.25 C 84.082031 14.25 83.214844 14.25 82.351562 14.25 C 82.351562 15.285156 82.351562 16.316406 82.351562 17.351562 C 83.050781 17.351562 83.75 17.351562 84.449219 17.351562 C 84.449219 17.816406 84.449219 18.285156 84.449219 18.75 Z M 84.449219 18.75 "/>
<path style=" stroke:none;fill-rule:evenodd;fill:rgb(98.823529%,99.215686%,98.823529%);fill-opacity:1;" d="M 89.851562 12.851562 C 90.542969 16.457031 91.277344 20.058594 92.050781 23.648438 C 91.421875 23.75 90.785156 23.78125 90.148438 23.75 C 90.015625 22.917969 89.882812 22.082031 89.75 21.25 C 89.117188 21.25 88.484375 21.25 87.851562 21.25 C 87.691406 22.097656 87.523438 22.929688 87.351562 23.75 C 86.707031 23.8125 86.105469 23.746094 85.550781 23.550781 C 86.222656 20.011719 86.925781 16.476562 87.648438 12.949219 C 88.375 12.855469 89.109375 12.820312 89.851562 12.851562 Z M 89.851562 12.851562 "/>
<path style=" stroke:none;fill-rule:evenodd;fill:rgb(99.607843%,99.607843%,99.607843%);fill-opacity:1;" d="M 93.050781 12.75 C 93.714844 12.75 94.382812 12.75 95.050781 12.75 C 95.050781 15.949219 95.050781 19.148438 95.050781 22.351562 C 95.917969 22.351562 96.785156 22.351562 97.648438 22.351562 C 97.648438 22.816406 97.648438 23.285156 97.648438 23.75 C 96.117188 23.75 94.582031 23.75 93.050781 23.75 C 93.050781 20.082031 93.050781 16.417969 93.050781 12.75 Z M 93.050781 12.75 "/>
<path style=" stroke:none;fill-rule:evenodd;fill:rgb(99.607843%,100%,99.607843%);fill-opacity:1;" d="M 103.148438 14.25 C 102.582031 14.25 102.015625 14.25 101.449219 14.25 C 101.449219 17.417969 101.449219 20.582031 101.449219 23.75 C 100.78125 23.75 100.117188 23.75 99.449219 23.75 C 99.449219 20.582031 99.449219 17.417969 99.449219 14.25 C 98.851562 14.25 98.25 14.25 97.648438 14.25 C 97.648438 13.785156 97.648438 13.316406 97.648438 12.851562 C 99.484375 12.851562 101.316406 12.851562 103.148438 12.851562 C 103.148438 13.316406 103.148438 13.785156 103.148438 14.25 Z M 103.148438 14.25 "/>
<path style=" stroke:none;fill-rule:evenodd;fill:rgb(99.607843%,99.607843%,99.215686%);fill-opacity:1;" d="M 104.050781 12.75 C 104.71875 12.75 105.382812 12.75 106.050781 12.75 C 106.050781 14.285156 106.050781 15.816406 106.050781 17.351562 C 106.78125 17.351562 107.515625 17.351562 108.25 17.351562 C 108.25 15.816406 108.25 14.285156 108.25 12.75 C 108.917969 12.75 109.582031 12.75 110.25 12.75 C 110.25 16.417969 110.25 20.082031 110.25 23.75 C 109.582031 23.75 108.917969 23.75 108.25 23.75 C 108.25 22.117188 108.25 20.484375 108.25 18.851562 C 107.515625 18.851562 106.78125 18.851562 106.050781 18.851562 C 106.050781 20.484375 106.050781 22.117188 106.050781 23.75 C 105.382812 23.75 104.71875 23.75 104.050781 23.75 C 104.050781 20.082031 104.050781 16.417969 104.050781 12.75 Z M 104.050781 12.75 "/>
<path style=" stroke:none;fill-rule:evenodd;fill:rgb(30.196078%,62.352941%,22.352941%);fill-opacity:1;" d="M 49.351562 14.148438 C 50.042969 13.976562 50.527344 14.210938 50.800781 14.851562 C 50.867188 17.082031 50.867188 19.316406 50.800781 21.550781 C 50.699219 22.132812 50.347656 22.402344 49.75 22.351562 C 49.074219 22.375 48.726562 22.039062 48.699219 21.351562 C 48.632812 19.25 48.632812 17.148438 48.699219 15.050781 C 48.785156 14.652344 49 14.351562 49.351562 14.148438 Z M 49.351562 14.148438 "/>
<path style=" stroke:none;fill-rule:evenodd;fill:rgb(30.588235%,62.745098%,23.137255%);fill-opacity:1;" d="M 56.851562 14.148438 C 57.65625 13.976562 58.171875 14.277344 58.398438 15.050781 C 58.464844 17.214844 58.464844 19.382812 58.398438 21.550781 C 58.105469 22.316406 57.554688 22.566406 56.75 22.300781 C 56.519531 22.136719 56.367188 21.917969 56.300781 21.648438 C 56.234375 19.351562 56.234375 17.050781 56.300781 14.75 C 56.4375 14.496094 56.621094 14.296875 56.851562 14.148438 Z M 56.851562 14.148438 "/>
<path style=" stroke:none;fill-rule:evenodd;fill:rgb(30.980392%,62.745098%,23.137255%);fill-opacity:1;" d="M 63.851562 14.25 C 64.285156 14.234375 64.71875 14.25 65.148438 14.300781 C 65.363281 14.414062 65.546875 14.5625 65.699219 14.75 C 65.8125 15.859375 65.863281 16.976562 65.851562 18.101562 C 65.859375 19.289062 65.8125 20.472656 65.699219 21.648438 C 65.632812 21.90625 65.480469 22.089844 65.25 22.199219 C 64.792969 22.332031 64.328125 22.382812 63.851562 22.351562 C 63.851562 19.648438 63.851562 16.949219 63.851562 14.25 Z M 63.851562 14.25 "/>
<path style=" stroke:none;fill-rule:evenodd;fill:rgb(47.45098%,71.764706%,41.568627%);fill-opacity:1;" d="M 97.648438 14.25 C 98.25 14.25 98.851562 14.25 99.449219 14.25 C 99.449219 17.417969 99.449219 20.582031 99.449219 23.75 C 99.351562 20.632812 99.316406 17.5 99.351562 14.351562 C 98.765625 14.382812 98.199219 14.347656 97.648438 14.25 Z M 97.648438 14.25 "/>
<path style=" stroke:none;fill-rule:evenodd;fill:rgb(34.117647%,64.313725%,26.666667%);fill-opacity:1;" d="M 88.75 15.851562 C 88.820312 15.890625 88.871094 15.957031 88.898438 16.050781 C 89.082031 17.351562 89.265625 18.652344 89.449219 19.949219 C 88.980469 19.984375 88.511719 19.949219 88.050781 19.851562 C 88.261719 18.511719 88.496094 17.179688 88.75 15.851562 Z M 88.75 15.851562 "/>
<path style=" stroke:none;fill-rule:evenodd;fill:rgb(78.039216%,88.235294%,75.686275%);fill-opacity:1;" d="M 45.25 15.351562 C 45.347656 15.695312 45.382812 16.0625 45.351562 16.449219 C 44.683594 16.449219 44.015625 16.449219 43.351562 16.449219 C 43.351562 16.117188 43.351562 15.785156 43.351562 15.449219 C 43.449219 15.730469 43.480469 16.027344 43.449219 16.351562 C 44.050781 16.351562 44.648438 16.351562 45.25 16.351562 C 45.25 16.015625 45.25 15.683594 45.25 15.351562 Z M 45.25 15.351562 "/>
<path style=" stroke:none;fill-rule:evenodd;fill:rgb(47.45098%,71.764706%,41.568627%);fill-opacity:1;" d="M 84.449219 18.75 C 83.800781 18.847656 83.136719 18.882812 82.449219 18.851562 C 82.449219 20.015625 82.449219 21.183594 82.449219 22.351562 C 82.417969 22.351562 82.382812 22.351562 82.351562 22.351562 C 82.351562 21.148438 82.351562 19.949219 82.351562 18.75 C 83.050781 18.75 83.75 18.75 84.449219 18.75 Z M 84.449219 18.75 "/>
<path style=" stroke:none;fill-rule:evenodd;fill:rgb(78.039216%,87.843137%,75.294118%);fill-opacity:1;" d="M 82.351562 22.351562 C 82.382812 22.351562 82.417969 22.351562 82.449219 22.351562 C 83.316406 22.351562 84.183594 22.351562 85.050781 22.351562 C 85.082031 22.835938 85.046875 23.304688 84.949219 23.75 C 84.949219 23.316406 84.949219 22.882812 84.949219 22.449219 C 84.066406 22.484375 83.199219 22.449219 82.351562 22.351562 Z M 82.351562 22.351562 "/>
<path style=" stroke:none;fill-rule:evenodd;fill:rgb(48.235294%,72.156863%,42.352941%);fill-opacity:1;" d="M 85.550781 23.550781 C 86.105469 23.746094 86.707031 23.8125 87.351562 23.75 C 86.734375 23.847656 86.101562 23.882812 85.449219 23.851562 C 85.425781 23.722656 85.460938 23.621094 85.550781 23.550781 Z M 85.550781 23.550781 "/>
<path style=" stroke:none;fill-rule:evenodd;fill:rgb(63.921569%,80.392157%,60%);fill-opacity:1;" d="M 71.050781 30.75 C 71.601562 30.617188 72.167969 30.617188 72.75 30.75 C 72.738281 30.8125 72.703125 30.84375 72.648438 30.851562 C 72.136719 30.75 71.601562 30.71875 71.050781 30.75 Z M 71.050781 30.75 "/>
<path style=" stroke:none;fill-rule:evenodd;fill:rgb(98.823529%,99.215686%,98.823529%);fill-opacity:1;" d="M 121.75 30.550781 C 124.589844 30.257812 125.855469 31.523438 125.550781 34.351562 C 124.917969 34.351562 124.28125 34.351562 123.648438 34.351562 C 123.667969 33.816406 123.648438 33.28125 123.601562 32.75 C 123.429688 32.296875 123.097656 32.0625 122.601562 32.050781 C 121.996094 32.066406 121.632812 32.367188 121.5 32.949219 C 121.433594 35.015625 121.433594 37.082031 121.5 39.148438 C 121.710938 40.265625 122.324219 40.582031 123.351562 40.101562 C 123.617188 39.765625 123.765625 39.382812 123.800781 38.949219 C 123.851562 38.449219 123.867188 37.949219 123.851562 37.449219 C 123.449219 37.449219 123.050781 37.449219 122.648438 37.449219 C 122.648438 36.984375 122.648438 36.515625 122.648438 36.050781 C 123.648438 36.050781 124.648438 36.050781 125.648438 36.050781 C 125.648438 37.917969 125.648438 39.785156 125.648438 41.648438 C 125.210938 41.683594 124.777344 41.648438 124.351562 41.550781 C 124.277344 41.253906 124.226562 40.957031 124.199219 40.648438 C 123.824219 41.453125 123.191406 41.855469 122.300781 41.851562 C 120.875 41.824219 119.976562 41.125 119.601562 39.75 C 119.492188 38.535156 119.441406 37.320312 119.449219 36.101562 C 119.4375 34.945312 119.488281 33.796875 119.601562 32.648438 C 119.910156 31.519531 120.628906 30.820312 121.75 30.550781 Z M 121.75 30.550781 "/>
<path style=" stroke:none;fill-rule:evenodd;fill:rgb(98.823529%,99.215686%,98.823529%);fill-opacity:1;" d="M 40.949219 30.648438 C 41.675781 30.617188 42.390625 30.652344 43.101562 30.75 C 43.816406 34.386719 44.535156 38.019531 45.25 41.648438 C 44.617188 41.648438 43.984375 41.648438 43.351562 41.648438 C 43.28125 40.839844 43.148438 40.039062 42.949219 39.25 C 42.320312 39.152344 41.6875 39.117188 41.050781 39.148438 C 40.917969 39.984375 40.785156 40.816406 40.648438 41.648438 C 40.015625 41.648438 39.382812 41.648438 38.75 41.648438 C 39.484375 37.984375 40.214844 34.316406 40.949219 30.648438 Z M 40.949219 30.648438 "/>
<path style=" stroke:none;fill-rule:evenodd;fill:rgb(80.784314%,89.411765%,78.431373%);fill-opacity:1;" d="M 47.648438 30.75 C 47.214844 30.75 46.785156 30.75 46.351562 30.75 C 46.351562 34.382812 46.351562 38.015625 46.351562 41.648438 C 46.25 38 46.21875 34.332031 46.25 30.648438 C 46.734375 30.617188 47.203125 30.652344 47.648438 30.75 Z M 47.648438 30.75 "/>
<path style=" stroke:none;fill-rule:evenodd;fill:rgb(98.823529%,99.215686%,98.431373%);fill-opacity:1;" d="M 48.148438 35.550781 C 48.121094 35.472656 48.070312 35.40625 48 35.351562 C 47.949219 37.449219 47.933594 39.550781 47.949219 41.648438 C 47.417969 41.648438 46.882812 41.648438 46.351562 41.648438 C 46.351562 38.015625 46.351562 34.382812 46.351562 30.75 C 46.785156 30.75 47.214844 30.75 47.648438 30.75 C 48.507812 32.632812 49.339844 34.53125 50.148438 36.449219 C 50.199219 36.546875 50.25 36.648438 50.300781 36.75 C 50.351562 34.75 50.367188 32.75 50.351562 30.75 C 50.890625 30.617188 51.441406 30.617188 52 30.75 C 52.050781 34.382812 52.066406 38.015625 52.050781 41.648438 C 51.578125 41.683594 51.113281 41.648438 50.648438 41.550781 C 49.777344 39.5625 48.945312 37.5625 48.148438 35.550781 Z M 48.148438 35.550781 "/>
<path style=" stroke:none;fill-rule:evenodd;fill:rgb(47.45098%,71.764706%,41.568627%);fill-opacity:1;" d="M 50.351562 30.75 C 50.367188 32.75 50.351562 34.75 50.300781 36.75 C 50.25 36.648438 50.199219 36.546875 50.148438 36.449219 C 50.214844 34.550781 50.285156 32.648438 50.351562 30.75 Z M 50.351562 30.75 "/>
<path style=" stroke:none;fill-rule:evenodd;fill:rgb(99.215686%,99.607843%,99.215686%);fill-opacity:1;" d="M 53.550781 30.648438 C 54.855469 30.617188 56.152344 30.667969 57.449219 30.800781 C 58.558594 31.007812 59.242188 31.660156 59.5 32.75 C 59.566406 34.949219 59.566406 37.148438 59.5 39.351562 C 59.28125 40.636719 58.53125 41.386719 57.25 41.601562 C 56.015625 41.648438 54.785156 41.667969 53.550781 41.648438 C 53.550781 37.984375 53.550781 34.316406 53.550781 30.648438 Z M 53.550781 30.648438 "/>
<path style=" stroke:none;fill-rule:evenodd;fill:rgb(98.823529%,99.215686%,98.823529%);fill-opacity:1;" d="M 71.050781 30.75 C 71.601562 30.71875 72.136719 30.75 72.648438 30.851562 C 72.148438 34.449219 71.648438 38.050781 71.148438 41.648438 C 70.582031 41.648438 70.015625 41.648438 69.449219 41.648438 C 69.144531 39.269531 68.761719 36.902344 68.300781 34.550781 C 67.871094 36.914062 67.488281 39.277344 67.148438 41.648438 C 66.550781 41.648438 65.949219 41.648438 65.351562 41.648438 C 64.886719 37.976562 64.386719 34.3125 63.851562 30.648438 C 64.464844 30.589844 65.046875 30.65625 65.601562 30.851562 C 65.859375 33.019531 66.125 35.183594 66.398438 37.351562 C 66.878906 35.171875 67.261719 32.972656 67.550781 30.75 C 68.050781 30.75 68.550781 30.75 69.050781 30.75 C 69.378906 33.019531 69.730469 35.285156 70.101562 37.550781 C 70.40625 35.28125 70.722656 33.011719 71.050781 30.75 Z M 71.050781 30.75 "/>
<path style=" stroke:none;fill-rule:evenodd;fill:rgb(78.431373%,88.235294%,76.078431%);fill-opacity:1;" d="M 78.449219 30.75 C 76.949219 30.75 75.449219 30.75 73.949219 30.75 C 73.949219 34.382812 73.949219 38.015625 73.949219 41.648438 C 73.851562 38 73.816406 34.332031 73.851562 30.648438 C 75.402344 30.617188 76.933594 30.652344 78.449219 30.75 Z M 78.449219 30.75 "/>
<path style=" stroke:none;fill-rule:evenodd;fill:rgb(98.823529%,99.215686%,98.431373%);fill-opacity:1;" d="M 78.449219 30.75 C 78.449219 31.214844 78.449219 31.683594 78.449219 32.148438 C 77.617188 32.148438 76.785156 32.148438 75.949219 32.148438 C 75.949219 33.183594 75.949219 34.214844 75.949219 35.25 C 76.617188 35.25 77.285156 35.25 77.949219 35.25 C 77.949219 35.75 77.949219 36.25 77.949219 36.75 C 77.285156 36.75 76.617188 36.75 75.949219 36.75 C 75.949219 37.917969 75.949219 39.082031 75.949219 40.25 C 76.765625 40.347656 77.597656 40.382812 78.449219 40.351562 C 78.449219 40.785156 78.449219 41.214844 78.449219 41.648438 C 76.949219 41.648438 75.449219 41.648438 73.949219 41.648438 C 73.949219 38.015625 73.949219 34.382812 73.949219 30.75 C 75.449219 30.75 76.949219 30.75 78.449219 30.75 Z M 78.449219 30.75 "/>
<path style=" stroke:none;fill-rule:evenodd;fill:rgb(80%,89.019608%,78.039216%);fill-opacity:1;" d="M 81.550781 30.75 C 80.917969 30.75 80.285156 30.75 79.648438 30.75 C 79.648438 34.382812 79.648438 38.015625 79.648438 41.648438 C 79.550781 38 79.515625 34.332031 79.550781 30.648438 C 80.234375 30.617188 80.902344 30.652344 81.550781 30.75 Z M 81.550781 30.75 "/>
<path style=" stroke:none;fill-rule:evenodd;fill:rgb(98.431373%,99.215686%,98.431373%);fill-opacity:1;" d="M 81.550781 30.75 C 81.648438 33.898438 81.683594 37.066406 81.648438 40.25 C 82.464844 40.347656 83.296875 40.382812 84.148438 40.351562 C 84.148438 40.785156 84.148438 41.214844 84.148438 41.648438 C 82.648438 41.648438 81.148438 41.648438 79.648438 41.648438 C 79.648438 38.015625 79.648438 34.382812 79.648438 30.75 C 80.285156 30.75 80.917969 30.75 81.550781 30.75 Z M 81.550781 30.75 "/>
<path style=" stroke:none;fill-rule:evenodd;fill:rgb(96.862745%,98.431373%,96.470588%);fill-opacity:1;" d="M 87.25 40.25 C 88.066406 40.347656 88.898438 40.382812 89.75 40.351562 C 89.75 40.785156 89.75 41.214844 89.75 41.648438 C 88.214844 41.648438 86.683594 41.648438 85.148438 41.648438 C 85.117188 37.992188 85.152344 34.34375 85.25 30.699219 C 85.90625 30.617188 86.558594 30.636719 87.199219 30.75 C 87.25 33.917969 87.265625 37.082031 87.25 40.25 Z M 87.25 40.25 "/>
<path style=" stroke:none;fill-rule:evenodd;fill:rgb(99.215686%,99.215686%,98.823529%);fill-opacity:1;" d="M 95.550781 30.75 C 96.851562 30.734375 98.152344 30.75 99.449219 30.800781 C 99.949219 30.921875 100.398438 31.140625 100.800781 31.449219 C 101.550781 32.585938 101.648438 33.785156 101.101562 35.050781 C 100.808594 35.4375 100.425781 35.6875 99.949219 35.800781 C 101.230469 36.207031 101.828125 37.089844 101.75 38.449219 C 101.859375 40.054688 101.15625 41.105469 99.648438 41.601562 C 98.285156 41.648438 96.917969 41.667969 95.550781 41.648438 C 95.550781 38.015625 95.550781 34.382812 95.550781 30.75 Z M 95.550781 30.75 "/>
<path style=" stroke:none;fill-rule:evenodd;fill:rgb(78.431373%,88.235294%,76.078431%);fill-opacity:1;" d="M 107.550781 30.75 C 106.050781 30.75 104.550781 30.75 103.050781 30.75 C 103.050781 34.382812 103.050781 38.015625 103.050781 41.648438 C 102.949219 38 102.917969 34.332031 102.949219 30.648438 C 104.5 30.617188 106.035156 30.652344 107.550781 30.75 Z M 107.550781 30.75 "/>
<path style=" stroke:none;fill-rule:evenodd;fill:rgb(99.607843%,99.607843%,99.607843%);fill-opacity:1;" d="M 107.550781 30.75 C 107.550781 31.214844 107.550781 31.683594 107.550781 32.148438 C 106.683594 32.148438 105.816406 32.148438 104.949219 32.148438 C 104.949219 33.183594 104.949219 34.214844 104.949219 35.25 C 105.648438 35.25 106.351562 35.25 107.050781 35.25 C 107.050781 35.714844 107.050781 36.183594 107.050781 36.648438 C 106.351562 36.648438 105.648438 36.648438 104.949219 36.648438 C 104.949219 37.851562 104.949219 39.050781 104.949219 40.25 C 105.796875 40.347656 106.664062 40.382812 107.550781 40.351562 C 107.550781 40.785156 107.550781 41.214844 107.550781 41.648438 C 106.050781 41.648438 104.550781 41.648438 103.050781 41.648438 C 103.050781 38.015625 103.050781 34.382812 103.050781 30.75 C 104.550781 30.75 106.050781 30.75 107.550781 30.75 Z M 107.550781 30.75 "/>
<path style=" stroke:none;fill-rule:evenodd;fill:rgb(99.607843%,100%,99.607843%);fill-opacity:1;" d="M 108.75 30.75 C 109.382812 30.75 110.015625 30.75 110.648438 30.75 C 110.648438 34.382812 110.648438 38.015625 110.648438 41.648438 C 110.015625 41.648438 109.382812 41.648438 108.75 41.648438 C 108.75 38.015625 108.75 34.382812 108.75 30.75 Z M 108.75 30.75 "/>
<path style=" stroke:none;fill-rule:evenodd;fill:rgb(80%,89.019608%,78.039216%);fill-opacity:1;" d="M 108.75 30.75 C 109.398438 30.652344 110.066406 30.617188 110.75 30.648438 C 110.78125 34.332031 110.75 38 110.648438 41.648438 C 110.648438 38.015625 110.648438 34.382812 110.648438 30.75 C 110.015625 30.75 109.382812 30.75 108.75 30.75 Z M 108.75 30.75 "/>
<path style=" stroke:none;fill-rule:evenodd;fill:rgb(99.607843%,99.607843%,99.607843%);fill-opacity:1;" d="M 116.25 36.648438 C 116.277344 36.730469 116.328125 36.796875 116.398438 36.851562 C 116.449219 34.816406 116.46875 32.785156 116.449219 30.75 C 116.984375 30.75 117.515625 30.75 118.050781 30.75 C 118.050781 34.382812 118.050781 38.015625 118.050781 41.648438 C 117.582031 41.648438 117.117188 41.648438 116.648438 41.648438 C 115.835938 39.542969 115.003906 37.441406 114.148438 35.351562 C 114.144531 35.296875 114.109375 35.261719 114.050781 35.25 C 113.949219 37.382812 113.917969 39.515625 113.949219 41.648438 C 113.417969 41.648438 112.882812 41.648438 112.351562 41.648438 C 112.351562 38.015625 112.351562 34.382812 112.351562 30.75 C 112.84375 30.71875 113.324219 30.753906 113.800781 30.851562 C 114.644531 32.773438 115.460938 34.707031 116.25 36.648438 Z M 116.25 36.648438 "/>
<path style=" stroke:none;fill-rule:evenodd;fill:rgb(79.215686%,88.627451%,76.862745%);fill-opacity:1;" d="M 118.050781 30.75 C 117.515625 30.75 116.984375 30.75 116.449219 30.75 C 116.46875 32.785156 116.449219 34.816406 116.398438 36.851562 C 116.328125 36.796875 116.277344 36.730469 116.25 36.648438 C 116.351562 34.667969 116.382812 32.667969 116.351562 30.648438 C 116.9375 30.617188 117.503906 30.652344 118.050781 30.75 Z M 118.050781 30.75 "/>
<path style=" stroke:none;fill-rule:evenodd;fill:rgb(30.980392%,62.745098%,23.137255%);fill-opacity:1;" d="M 55.550781 32.148438 C 55.953125 32.132812 56.351562 32.148438 56.75 32.199219 C 57.011719 32.289062 57.226562 32.4375 57.398438 32.648438 C 57.511719 33.777344 57.5625 34.910156 57.550781 36.050781 C 57.5625 37.253906 57.511719 38.453125 57.398438 39.648438 C 57.273438 39.9375 57.058594 40.121094 56.75 40.199219 C 56.351562 40.25 55.953125 40.265625 55.550781 40.25 C 55.550781 37.550781 55.550781 34.851562 55.550781 32.148438 Z M 55.550781 32.148438 "/>
<path style=" stroke:none;fill-rule:evenodd;fill:rgb(30.588235%,62.745098%,22.745098%);fill-opacity:1;" d="M 97.550781 32.148438 C 99.289062 31.90625 99.972656 32.636719 99.601562 34.351562 C 99.484375 34.734375 99.234375 34.984375 98.851562 35.101562 C 98.417969 35.148438 97.984375 35.167969 97.550781 35.148438 C 97.550781 34.148438 97.550781 33.148438 97.550781 32.148438 Z M 97.550781 32.148438 "/>
<path style=" stroke:none;fill-rule:evenodd;fill:rgb(32.941176%,63.921569%,25.098039%);fill-opacity:1;" d="M 42.648438 37.351562 C 42.648438 37.484375 42.648438 37.617188 42.648438 37.75 C 42.214844 37.75 41.785156 37.75 41.351562 37.75 C 41.542969 36.3125 41.761719 34.882812 42 33.449219 C 42.261719 34.742188 42.476562 36.042969 42.648438 37.351562 Z M 42.648438 37.351562 "/>
<path style=" stroke:none;fill-rule:evenodd;fill:rgb(82.745098%,90.588235%,80.784314%);fill-opacity:1;" d="M 114.148438 35.351562 C 114.082031 37.449219 114.015625 39.550781 113.949219 41.648438 C 113.917969 39.515625 113.949219 37.382812 114.050781 35.25 C 114.109375 35.261719 114.144531 35.296875 114.148438 35.351562 Z M 114.148438 35.351562 "/>
<path style=" stroke:none;fill-rule:evenodd;fill:rgb(64.705882%,80.784314%,60.784314%);fill-opacity:1;" d="M 48.148438 35.550781 C 48.082031 37.582031 48.015625 39.617188 47.949219 41.648438 C 47.933594 39.550781 47.949219 37.449219 48 35.351562 C 48.070312 35.40625 48.121094 35.472656 48.148438 35.550781 Z M 48.148438 35.550781 "/>
<path style=" stroke:none;fill-rule:evenodd;fill:rgb(30.588235%,62.745098%,22.745098%);fill-opacity:1;" d="M 97.550781 36.648438 C 99.339844 36.457031 100.089844 37.257812 99.800781 39.050781 C 99.757812 39.722656 99.40625 40.105469 98.75 40.199219 C 98.351562 40.25 97.953125 40.265625 97.550781 40.25 C 97.550781 39.050781 97.550781 37.851562 97.550781 36.648438 Z M 97.550781 36.648438 "/>
<path style=" stroke:none;fill-rule:evenodd;fill:rgb(94.509804%,96.862745%,94.117647%);fill-opacity:1;" d="M 90.75 36.648438 C 91.851562 36.648438 92.949219 36.648438 94.050781 36.648438 C 94.050781 37.117188 94.050781 37.582031 94.050781 38.050781 C 92.949219 38.050781 91.851562 38.050781 90.75 38.050781 C 90.75 37.582031 90.75 37.117188 90.75 36.648438 Z M 90.75 36.648438 "/>
<path style=" stroke:none;fill-rule:evenodd;fill:rgb(52.156863%,74.117647%,46.666667%);fill-opacity:1;" d="M 107.050781 36.648438 C 106.402344 36.75 105.734375 36.78125 105.050781 36.75 C 105.050781 37.917969 105.050781 39.082031 105.050781 40.25 C 105.015625 40.25 104.984375 40.25 104.949219 40.25 C 104.949219 39.050781 104.949219 37.851562 104.949219 36.648438 C 105.648438 36.648438 106.351562 36.648438 107.050781 36.648438 Z M 107.050781 36.648438 "/>
<path style=" stroke:none;fill-rule:evenodd;fill:rgb(50.196078%,73.333333%,44.705882%);fill-opacity:1;" d="M 42.648438 37.351562 C 42.746094 37.492188 42.777344 37.660156 42.75 37.851562 C 42.265625 37.882812 41.796875 37.847656 41.351562 37.75 C 41.785156 37.75 42.214844 37.75 42.648438 37.75 C 42.648438 37.617188 42.648438 37.484375 42.648438 37.351562 Z M 42.648438 37.351562 "/>
<path style=" stroke:none;fill-rule:evenodd;fill:rgb(82.352941%,90.196078%,80%);fill-opacity:1;" d="M 75.949219 40.25 C 76.816406 40.25 77.683594 40.25 78.550781 40.25 C 78.582031 40.734375 78.546875 41.203125 78.449219 41.648438 C 78.449219 41.214844 78.449219 40.785156 78.449219 40.351562 C 77.597656 40.382812 76.765625 40.347656 75.949219 40.25 Z M 75.949219 40.25 "/>
<path style=" stroke:none;fill-rule:evenodd;fill:rgb(82.352941%,90.196078%,80%);fill-opacity:1;" d="M 81.648438 40.25 C 82.515625 40.25 83.382812 40.25 84.25 40.25 C 84.28125 40.734375 84.25 41.203125 84.148438 41.648438 C 84.148438 41.214844 84.148438 40.785156 84.148438 40.351562 C 83.296875 40.382812 82.464844 40.347656 81.648438 40.25 Z M 81.648438 40.25 "/>
<path style=" stroke:none;fill-rule:evenodd;fill:rgb(82.352941%,90.196078%,80%);fill-opacity:1;" d="M 87.25 40.25 C 88.117188 40.25 88.984375 40.25 89.851562 40.25 C 89.882812 40.734375 89.847656 41.203125 89.75 41.648438 C 89.75 41.214844 89.75 40.785156 89.75 40.351562 C 88.898438 40.382812 88.066406 40.347656 87.25 40.25 Z M 87.25 40.25 "/>
<path style=" stroke:none;fill-rule:evenodd;fill:rgb(78.039216%,87.843137%,75.294118%);fill-opacity:1;" d="M 104.949219 40.25 C 104.984375 40.25 105.015625 40.25 105.050781 40.25 C 105.917969 40.25 106.78125 40.25 107.648438 40.25 C 107.683594 40.734375 107.648438 41.203125 107.550781 41.648438 C 107.550781 41.214844 107.550781 40.785156 107.550781 40.351562 C 106.664062 40.382812 105.796875 40.347656 104.949219 40.25 Z M 104.949219 40.25 "/>
<path style=" stroke:none;fill-rule:evenodd;fill:rgb(99.215686%,99.607843%,99.215686%);fill-opacity:1;" d="M 100.351562 56.351562 C 101.203125 56.21875 101.886719 56.484375 102.398438 57.148438 C 105.660156 63.835938 108.894531 70.539062 112.101562 77.25 C 112.355469 78.925781 111.640625 79.710938 109.949219 79.601562 C 109.640625 79.457031 109.355469 79.273438 109.101562 79.050781 C 106.472656 73.695312 103.871094 68.328125 101.300781 62.949219 C 94.894531 84.035156 88.527344 105.132812 82.199219 126.25 C 81.515625 127.265625 80.632812 127.484375 79.550781 126.898438 C 79.246094 126.644531 79.03125 126.328125 78.898438 125.949219 C 77.132812 115.476562 75.332031 105.011719 73.5 94.550781 C 70.734375 99.648438 67.964844 104.75 65.199219 109.851562 C 64.164062 110.710938 63.199219 110.644531 62.300781 109.648438 C 61.015625 101.425781 59.78125 93.191406 58.601562 84.949219 C 56.453125 89.84375 54.253906 94.710938 52 99.550781 C 51.773438 99.738281 51.523438 99.886719 51.25 100 C 42.714844 100.066406 34.183594 100.066406 25.648438 100 C 24.554688 99.523438 24.171875 98.707031 24.5 97.550781 C 24.773438 97.039062 25.191406 96.722656 25.75 96.601562 C 33.683594 96.566406 41.617188 96.535156 49.550781 96.5 C 52.378906 90.222656 55.195312 83.941406 58 77.648438 C 58.484375 76.894531 59.167969 76.644531 60.050781 76.898438 C 60.785156 77.152344 61.203125 77.671875 61.300781 78.449219 C 62.484375 86.679688 63.652344 94.914062 64.800781 103.148438 C 67.558594 98.132812 70.292969 93.097656 73 88.050781 C 73.691406 87.390625 74.476562 87.273438 75.351562 87.699219 C 75.71875 87.96875 75.96875 88.320312 76.101562 88.75 C 77.734375 98.421875 79.402344 108.089844 81.101562 117.75 C 87.132812 97.683594 93.167969 77.613281 99.199219 57.550781 C 99.308594 57.300781 99.441406 57.066406 99.601562 56.851562 C 99.847656 56.667969 100.097656 56.5 100.351562 56.351562 Z M 100.351562 56.351562 "/>
<path style=" stroke:none;fill-rule:evenodd;fill:rgb(99.607843%,99.607843%,99.607843%);fill-opacity:1;" d="M 105.949219 86.148438 C 107.324219 85.960938 108.589844 86.242188 109.75 87 C 110.921875 87.785156 111.984375 88.703125 112.949219 89.75 C 114.085938 88.5625 115.351562 87.546875 116.75 86.699219 C 120.238281 85.5625 122.921875 86.578125 124.800781 89.75 C 126.304688 93.054688 125.96875 96.15625 123.800781 99.050781 C 120.199219 102.667969 116.582031 106.269531 112.949219 109.851562 C 109.25 106.199219 105.566406 102.535156 101.898438 98.851562 C 99.800781 95.847656 99.601562 92.710938 101.300781 89.449219 C 102.410156 87.722656 103.960938 86.621094 105.949219 86.148438 Z M 105.949219 86.148438 "/>
</g>
</svg>
