<?xml version="1.0" encoding="UTF-8"?>
<svg xmlns="http://www.w3.org/2000/svg" xmlns:xlink="http://www.w3.org/1999/xlink" width="150px" height="150px" viewBox="0 0 150 150" version="1.1">
<g id="surface1">
<path style=" stroke:none;fill-rule:evenodd;fill:rgb(77.254902%,9.803922%,17.647059%);fill-opacity:1;" d="M -0.0507812 -0.0507812 C 49.949219 -0.0507812 99.949219 -0.0507812 149.949219 -0.0507812 C 149.949219 49.949219 149.949219 99.949219 149.949219 149.949219 C 99.949219 149.949219 49.949219 149.949219 -0.0507812 149.949219 C -0.0507812 99.949219 -0.0507812 49.949219 -0.0507812 -0.0507812 Z M -0.0507812 -0.0507812 "/>
<path style=" stroke:none;fill-rule:evenodd;fill:rgb(99.607843%,98.431373%,98.431373%);fill-opacity:1;" d="M 41.351562 12.648438 C 42.273438 12.589844 43.175781 12.703125 44.050781 13 C 44.777344 13.496094 45.226562 14.179688 45.398438 15.050781 C 45.464844 17.148438 45.464844 19.25 45.398438 21.351562 C 45.277344 22.34375 44.796875 23.09375 43.949219 23.601562 C 44.265625 23.917969 44.582031 24.234375 44.898438 24.550781 C 44.929688 25.050781 44.8125 25.515625 44.550781 25.949219 C 43.734375 25.453125 43.070312 24.800781 42.550781 24 C 40.730469 24.050781 39.613281 23.199219 39.199219 21.449219 C 39.105469 19.144531 39.136719 16.847656 39.300781 14.550781 C 39.660156 13.5625 40.34375 12.929688 41.351562 12.648438 Z M 41.351562 12.648438 "/>
<path style=" stroke:none;fill-rule:evenodd;fill:rgb(94.117647%,77.254902%,79.215686%);fill-opacity:1;" d="M 75.449219 12.75 C 75.449219 12.785156 75.449219 12.816406 75.449219 12.851562 C 73.617188 12.851562 71.785156 12.851562 69.949219 12.851562 C 69.949219 13.316406 69.949219 13.785156 69.949219 14.25 C 69.851562 13.769531 69.816406 13.269531 69.851562 12.75 C 71.714844 12.75 73.582031 12.75 75.449219 12.75 Z M 75.449219 12.75 "/>
<path style=" stroke:none;fill-rule:evenodd;fill:rgb(99.607843%,99.607843%,99.607843%);fill-opacity:1;" d="M 18.648438 12.851562 C 20.683594 12.851562 22.714844 12.851562 24.75 12.851562 C 24.71875 18.765625 24.75 24.667969 24.851562 30.550781 C 25.785156 30.550781 26.714844 30.550781 27.648438 30.550781 C 27.648438 31.917969 27.648438 33.285156 27.648438 34.648438 C 26.714844 34.648438 25.785156 34.648438 24.851562 34.648438 C 24.851562 36.917969 24.851562 39.183594 24.851562 41.449219 C 23.183594 41.449219 21.515625 41.449219 19.851562 41.449219 C 19.851562 39.183594 19.851562 36.917969 19.851562 34.648438 C 16.984375 34.648438 14.117188 34.648438 11.25 34.648438 C 11.234375 33.148438 11.25 31.648438 11.300781 30.148438 C 13.75 24.378906 16.203125 18.613281 18.648438 12.851562 Z M 18.648438 12.851562 "/>
<path style=" stroke:none;fill-rule:evenodd;fill:rgb(93.333333%,72.54902%,74.901961%);fill-opacity:1;" d="M 18.648438 12.851562 C 20.699219 12.75 22.765625 12.71875 24.851562 12.75 C 24.851562 18.683594 24.851562 24.617188 24.851562 30.550781 C 24.75 24.667969 24.71875 18.765625 24.75 12.851562 C 22.714844 12.851562 20.683594 12.851562 18.648438 12.851562 Z M 18.648438 12.851562 "/>
<path style=" stroke:none;fill-rule:evenodd;fill:rgb(99.607843%,99.215686%,99.215686%);fill-opacity:1;" d="M 50.949219 20.851562 C 51.050781 18.199219 51.082031 15.535156 51.050781 12.851562 C 51.648438 12.851562 52.25 12.851562 52.851562 12.851562 C 52.851562 15.515625 52.851562 18.183594 52.851562 20.851562 C 52.867188 22.867188 51.867188 23.898438 49.851562 23.949219 C 48.03125 23.945312 47.011719 23.046875 46.800781 21.25 C 46.75 18.417969 46.734375 15.582031 46.75 12.75 C 47.382812 12.75 48.015625 12.75 48.648438 12.75 C 48.632812 15.316406 48.648438 17.882812 48.699219 20.449219 C 48.730469 20.890625 48.796875 21.324219 48.898438 21.75 C 49.191406 22.300781 49.640625 22.484375 50.25 22.300781 C 50.777344 21.96875 51.011719 21.484375 50.949219 20.851562 Z M 50.949219 20.851562 "/>
<path style=" stroke:none;fill-rule:evenodd;fill:rgb(94.117647%,77.254902%,79.215686%);fill-opacity:1;" d="M 52.851562 20.851562 C 52.851562 18.183594 52.851562 15.515625 52.851562 12.851562 C 52.25 12.851562 51.648438 12.851562 51.050781 12.851562 C 51.082031 15.535156 51.050781 18.199219 50.949219 20.851562 C 50.949219 18.148438 50.949219 15.449219 50.949219 12.75 C 51.617188 12.75 52.285156 12.75 52.949219 12.75 C 52.984375 15.46875 52.949219 18.167969 52.851562 20.851562 Z M 52.851562 20.851562 "/>
<path style=" stroke:none;fill-rule:evenodd;fill:rgb(99.607843%,98.039216%,98.431373%);fill-opacity:1;" d="M 56.050781 12.75 C 56.777344 12.71875 57.492188 12.753906 58.199219 12.851562 C 58.910156 16.488281 59.628906 20.121094 60.351562 23.75 C 59.714844 23.75 59.082031 23.75 58.449219 23.75 C 58.371094 22.90625 58.238281 22.074219 58.050781 21.25 C 57.417969 21.25 56.785156 21.25 56.148438 21.25 C 56.050781 22.089844 55.914062 22.921875 55.75 23.75 C 55.117188 23.75 54.484375 23.75 53.851562 23.75 C 54.597656 20.085938 55.328125 16.417969 56.050781 12.75 Z M 56.050781 12.75 "/>
<path style=" stroke:none;fill-rule:evenodd;fill:rgb(92.941176%,70.588235%,72.941176%);fill-opacity:1;" d="M 63.449219 22.351562 C 63.351562 19.199219 63.316406 16.035156 63.351562 12.851562 C 62.714844 12.851562 62.082031 12.851562 61.449219 12.851562 C 61.449219 16.484375 61.449219 20.117188 61.449219 23.75 C 61.351562 20.101562 61.316406 16.433594 61.351562 12.75 C 62.050781 12.75 62.75 12.75 63.449219 12.75 C 63.449219 15.949219 63.449219 19.148438 63.449219 22.351562 Z M 63.449219 22.351562 "/>
<path style=" stroke:none;fill-rule:evenodd;fill:rgb(99.607843%,99.607843%,99.607843%);fill-opacity:1;" d="M 63.449219 22.351562 C 64.265625 22.449219 65.097656 22.484375 65.949219 22.449219 C 65.949219 22.882812 65.949219 23.316406 65.949219 23.75 C 64.449219 23.75 62.949219 23.75 61.449219 23.75 C 61.449219 20.117188 61.449219 16.484375 61.449219 12.851562 C 62.082031 12.851562 62.714844 12.851562 63.351562 12.851562 C 63.316406 16.035156 63.351562 19.199219 63.449219 22.351562 Z M 63.449219 22.351562 "/>
<path style=" stroke:none;fill-rule:evenodd;fill:rgb(99.607843%,99.607843%,99.607843%);fill-opacity:1;" d="M 67.050781 12.75 C 67.714844 12.75 68.382812 12.75 69.050781 12.75 C 69.050781 16.417969 69.050781 20.082031 69.050781 23.75 C 68.382812 23.75 67.714844 23.75 67.050781 23.75 C 67.050781 20.082031 67.050781 16.417969 67.050781 12.75 Z M 67.050781 12.75 "/>
<path style=" stroke:none;fill-rule:evenodd;fill:rgb(99.607843%,99.215686%,99.215686%);fill-opacity:1;" d="M 75.449219 12.851562 C 75.449219 13.316406 75.449219 13.785156 75.449219 14.25 C 74.882812 14.25 74.316406 14.25 73.75 14.25 C 73.75 17.417969 73.75 20.582031 73.75 23.75 C 73.082031 23.75 72.417969 23.75 71.75 23.75 C 71.75 20.582031 71.75 17.417969 71.75 14.25 C 71.148438 14.25 70.550781 14.25 69.949219 14.25 C 69.949219 13.785156 69.949219 13.316406 69.949219 12.851562 C 71.785156 12.851562 73.617188 12.851562 75.449219 12.851562 Z M 75.449219 12.851562 "/>
<path style=" stroke:none;fill-rule:evenodd;fill:rgb(87.843137%,52.941176%,56.862745%);fill-opacity:1;" d="M 75.449219 12.75 C 75.515625 12.75 75.582031 12.75 75.648438 12.75 C 75.648438 12.816406 75.648438 12.882812 75.648438 12.949219 C 75.582031 13.382812 75.515625 13.816406 75.449219 14.25 C 75.449219 13.785156 75.449219 13.316406 75.449219 12.851562 C 75.449219 12.816406 75.449219 12.785156 75.449219 12.75 Z M 75.449219 12.75 "/>
<path style=" stroke:none;fill-rule:evenodd;fill:rgb(99.607843%,98.823529%,98.823529%);fill-opacity:1;" d="M 75.648438 12.75 C 76.277344 12.71875 76.890625 12.753906 77.5 12.851562 C 77.953125 14.242188 78.386719 15.644531 78.800781 17.050781 C 79.234375 15.648438 79.667969 14.246094 80.101562 12.851562 C 80.710938 12.71875 81.328125 12.71875 81.949219 12.851562 C 81.222656 15.046875 80.507812 17.246094 79.800781 19.449219 C 79.75 20.882812 79.734375 22.316406 79.75 23.75 C 79.117188 23.75 78.484375 23.75 77.851562 23.75 C 77.867188 22.316406 77.851562 20.882812 77.800781 19.449219 C 77.070312 17.28125 76.355469 15.117188 75.648438 12.949219 C 75.648438 12.882812 75.648438 12.816406 75.648438 12.75 Z M 75.648438 12.75 "/>
<path style=" stroke:none;fill-rule:evenodd;fill:rgb(77.254902%,11.372549%,18.431373%);fill-opacity:1;" d="M 41.851562 14.148438 C 42.488281 14.003906 42.972656 14.207031 43.300781 14.75 C 43.367188 17.050781 43.367188 19.351562 43.300781 21.648438 C 43.148438 22.167969 42.796875 22.402344 42.25 22.351562 C 41.597656 22.351562 41.25 22.015625 41.199219 21.351562 C 41.132812 19.285156 41.132812 17.214844 41.199219 15.148438 C 41.242188 14.695312 41.460938 14.359375 41.851562 14.148438 Z M 41.851562 14.148438 "/>
<path style=" stroke:none;fill-rule:evenodd;fill:rgb(77.647059%,13.333333%,19.607843%);fill-opacity:1;" d="M 57.050781 15.851562 C 57.121094 15.890625 57.171875 15.957031 57.199219 16.050781 C 57.421875 17.304688 57.640625 18.554688 57.851562 19.800781 C 57.382812 19.851562 56.917969 19.867188 56.449219 19.851562 C 56.648438 18.515625 56.851562 17.183594 57.050781 15.851562 Z M 57.050781 15.851562 "/>
<path style=" stroke:none;fill-rule:evenodd;fill:rgb(77.254902%,10.588235%,18.039216%);fill-opacity:1;" d="M 19.75 18.550781 C 19.851562 22.53125 19.882812 26.53125 19.851562 30.550781 C 18.417969 30.550781 16.984375 30.550781 15.550781 30.550781 C 16.949219 26.554688 18.347656 22.554688 19.75 18.550781 Z M 19.75 18.550781 "/>
<path style=" stroke:none;fill-rule:evenodd;fill:rgb(94.117647%,77.254902%,79.215686%);fill-opacity:1;" d="M 63.449219 22.351562 C 64.316406 22.351562 65.183594 22.351562 66.050781 22.351562 C 66.082031 22.835938 66.046875 23.304688 65.949219 23.75 C 65.949219 23.316406 65.949219 22.882812 65.949219 22.449219 C 65.097656 22.484375 64.265625 22.449219 63.449219 22.351562 Z M 63.449219 22.351562 "/>
<path style=" stroke:none;fill-rule:evenodd;fill:rgb(99.607843%,98.431373%,98.431373%);fill-opacity:1;" d="M 65.851562 32.949219 C 65.851562 33.515625 65.851562 34.082031 65.851562 34.648438 C 65.214844 34.648438 64.582031 34.648438 63.949219 34.648438 C 63.992188 33.90625 63.941406 33.171875 63.800781 32.449219 C 63.378906 32.027344 62.898438 31.945312 62.351562 32.199219 C 62.136719 32.375 61.988281 32.589844 61.898438 32.851562 C 61.832031 34.949219 61.832031 37.050781 61.898438 39.148438 C 61.878906 39.878906 62.230469 40.28125 62.949219 40.351562 C 63.425781 40.320312 63.742188 40.089844 63.898438 39.648438 C 63.949219 38.949219 63.964844 38.25 63.949219 37.550781 C 64.617188 37.550781 65.285156 37.550781 65.949219 37.550781 C 65.953125 38.285156 65.902344 39.019531 65.800781 39.75 C 65.5625 40.988281 64.8125 41.671875 63.550781 41.800781 C 61.511719 42.089844 60.292969 41.242188 59.898438 39.25 C 59.703125 37.117188 59.703125 34.984375 59.898438 32.851562 C 60.1875 31.628906 60.9375 30.878906 62.148438 30.601562 C 63.351562 30.367188 64.398438 30.648438 65.300781 31.449219 C 65.652344 31.886719 65.835938 32.386719 65.851562 32.949219 Z M 65.851562 32.949219 "/>
<path style=" stroke:none;fill-rule:evenodd;fill:rgb(99.607843%,98.431373%,98.431373%);fill-opacity:1;" d="M 85.25 30.550781 C 86.277344 30.433594 87.242188 30.617188 88.148438 31.101562 C 88.71875 31.589844 89.070312 32.207031 89.199219 32.949219 C 89.292969 35.21875 89.261719 37.488281 89.101562 39.75 C 88.765625 41.007812 87.949219 41.691406 86.648438 41.800781 C 84.667969 42.085938 83.453125 41.269531 83 39.351562 C 82.933594 37.183594 82.933594 35.015625 83 32.851562 C 83.304688 31.628906 84.054688 30.863281 85.25 30.550781 Z M 85.25 30.550781 "/>
<path style=" stroke:none;fill-rule:evenodd;fill:rgb(99.607843%,99.215686%,99.215686%);fill-opacity:1;" d="M 39.351562 30.75 C 40.851562 30.75 42.351562 30.75 43.851562 30.75 C 43.851562 31.183594 43.851562 31.617188 43.851562 32.050781 C 43 32.015625 42.164062 32.050781 41.351562 32.148438 C 41.351562 33.183594 41.351562 34.214844 41.351562 35.25 C 42.015625 35.25 42.683594 35.25 43.351562 35.25 C 43.351562 35.714844 43.351562 36.183594 43.351562 36.648438 C 42.683594 36.648438 42.015625 36.648438 41.351562 36.648438 C 41.351562 37.851562 41.351562 39.050781 41.351562 40.25 C 42.214844 40.25 43.082031 40.25 43.949219 40.25 C 43.949219 40.714844 43.949219 41.183594 43.949219 41.648438 C 42.417969 41.648438 40.882812 41.648438 39.351562 41.648438 C 39.351562 38.015625 39.351562 34.382812 39.351562 30.75 Z M 39.351562 30.75 "/>
<path style=" stroke:none;fill-rule:evenodd;fill:rgb(99.607843%,98.431373%,98.823529%);fill-opacity:1;" d="M 45.050781 30.75 C 46.285156 30.734375 47.515625 30.75 48.75 30.800781 C 49.988281 31.003906 50.738281 31.722656 51 32.949219 C 51.066406 35.015625 51.066406 37.082031 51 39.148438 C 50.847656 40.476562 50.132812 41.292969 48.851562 41.601562 C 47.582031 41.648438 46.316406 41.667969 45.050781 41.648438 C 45.050781 38.015625 45.050781 34.382812 45.050781 30.75 Z M 45.050781 30.75 "/>
<path style=" stroke:none;fill-rule:evenodd;fill:rgb(99.607843%,99.215686%,99.215686%);fill-opacity:1;" d="M 56.550781 38.550781 C 56.648438 35.96875 56.683594 33.367188 56.648438 30.75 C 57.25 30.75 57.851562 30.75 58.449219 30.75 C 58.449219 33.382812 58.449219 36.015625 58.449219 38.648438 C 58.394531 41.121094 57.125 42.171875 54.648438 41.800781 C 53.210938 41.457031 52.460938 40.542969 52.398438 39.050781 C 52.351562 36.285156 52.332031 33.515625 52.351562 30.75 C 52.984375 30.75 53.617188 30.75 54.25 30.75 C 54.234375 33.382812 54.25 36.015625 54.300781 38.648438 C 54.300781 39.269531 54.515625 39.785156 54.949219 40.199219 C 56.160156 40.339844 56.691406 39.792969 56.550781 38.550781 Z M 56.550781 38.550781 "/>
<path style=" stroke:none;fill-rule:evenodd;fill:rgb(93.72549%,74.509804%,76.862745%);fill-opacity:1;" d="M 58.449219 38.648438 C 58.449219 36.015625 58.449219 33.382812 58.449219 30.75 C 57.851562 30.75 57.25 30.75 56.648438 30.75 C 56.683594 33.367188 56.648438 35.96875 56.550781 38.550781 C 56.550781 35.917969 56.550781 33.285156 56.550781 30.648438 C 57.214844 30.648438 57.882812 30.648438 58.550781 30.648438 C 58.582031 33.332031 58.550781 36 58.449219 38.648438 Z M 58.449219 38.648438 "/>
<path style=" stroke:none;fill-rule:evenodd;fill:rgb(99.607843%,98.431373%,98.431373%);fill-opacity:1;" d="M 73.148438 41.550781 C 72.570312 41.648438 71.96875 41.683594 71.351562 41.648438 C 71.121094 40.84375 70.988281 40.011719 70.949219 39.148438 C 70.285156 39.148438 69.617188 39.148438 68.949219 39.148438 C 68.859375 39.992188 68.726562 40.824219 68.550781 41.648438 C 67.917969 41.648438 67.285156 41.648438 66.648438 41.648438 C 67.371094 37.980469 68.105469 34.3125 68.851562 30.648438 C 69.574219 30.617188 70.292969 30.652344 71 30.75 C 71.726562 34.347656 72.445312 37.949219 73.148438 41.550781 Z M 73.148438 41.550781 "/>
<path style=" stroke:none;fill-rule:evenodd;fill:rgb(99.607843%,97.647059%,97.647059%);fill-opacity:1;" d="M 73.050781 30.75 C 74.917969 30.75 76.785156 30.75 78.648438 30.75 C 78.648438 31.214844 78.648438 31.683594 78.648438 32.148438 C 78.082031 32.148438 77.515625 32.148438 76.949219 32.148438 C 76.949219 35.316406 76.949219 38.484375 76.949219 41.648438 C 76.25 41.648438 75.550781 41.648438 74.851562 41.648438 C 74.851562 38.484375 74.851562 35.316406 74.851562 32.148438 C 74.25 32.148438 73.648438 32.148438 73.050781 32.148438 C 73.050781 31.683594 73.050781 31.214844 73.050781 30.75 Z M 73.050781 30.75 "/>
<path style=" stroke:none;fill-rule:evenodd;fill:rgb(99.607843%,100%,99.607843%);fill-opacity:1;" d="M 79.550781 30.75 C 80.183594 30.75 80.816406 30.75 81.449219 30.75 C 81.449219 34.382812 81.449219 38.015625 81.449219 41.648438 C 80.816406 41.648438 80.183594 41.648438 79.550781 41.648438 C 79.550781 38.015625 79.550781 34.382812 79.550781 30.75 Z M 79.550781 30.75 "/>
<path style=" stroke:none;fill-rule:evenodd;fill:rgb(99.607843%,99.607843%,99.607843%);fill-opacity:1;" d="M 94.550781 36.550781 C 94.578125 36.628906 94.628906 36.695312 94.699219 36.75 C 94.75 34.75 94.765625 32.75 94.75 30.75 C 95.285156 30.75 95.816406 30.75 96.351562 30.75 C 96.351562 34.382812 96.351562 38.015625 96.351562 41.648438 C 95.890625 41.679688 95.441406 41.648438 95 41.550781 C 94.132812 39.484375 93.265625 37.417969 92.398438 35.351562 C 92.351562 37.449219 92.332031 39.550781 92.351562 41.648438 C 91.785156 41.648438 91.214844 41.648438 90.648438 41.648438 C 90.648438 38.015625 90.648438 34.382812 90.648438 30.75 C 91.144531 30.71875 91.625 30.753906 92.101562 30.851562 C 92.917969 32.753906 93.734375 34.652344 94.550781 36.550781 Z M 94.550781 36.550781 "/>
<path style=" stroke:none;fill-rule:evenodd;fill:rgb(88.235294%,54.509804%,58.431373%);fill-opacity:1;" d="M 94.75 30.75 C 94.765625 32.75 94.75 34.75 94.699219 36.75 C 94.628906 36.695312 94.578125 36.628906 94.550781 36.550781 C 94.617188 34.617188 94.683594 32.683594 94.75 30.75 Z M 94.75 30.75 "/>
<path style=" stroke:none;fill-rule:evenodd;fill:rgb(92.54902%,69.411765%,71.764706%);fill-opacity:1;" d="M 39.351562 30.75 C 40.867188 30.652344 42.398438 30.617188 43.949219 30.648438 C 43.949219 31.148438 43.949219 31.648438 43.949219 32.148438 C 43.082031 32.148438 42.214844 32.148438 41.351562 32.148438 C 42.164062 32.050781 43 32.015625 43.851562 32.050781 C 43.851562 31.617188 43.851562 31.183594 43.851562 30.75 C 42.351562 30.75 40.851562 30.75 39.351562 30.75 Z M 39.351562 30.75 "/>
<path style=" stroke:none;fill-rule:evenodd;fill:rgb(77.254902%,10.196078%,17.647059%);fill-opacity:1;" d="M 47.050781 32.148438 C 47.523438 32.128906 47.992188 32.175781 48.449219 32.300781 C 48.601562 32.382812 48.714844 32.5 48.800781 32.648438 C 48.914062 33.84375 48.964844 35.042969 48.949219 36.25 C 48.933594 37.351562 48.917969 38.449219 48.898438 39.550781 C 48.785156 39.761719 48.636719 39.945312 48.449219 40.101562 C 47.992188 40.230469 47.527344 40.28125 47.050781 40.25 C 47.050781 37.550781 47.050781 34.851562 47.050781 32.148438 Z M 47.050781 32.148438 "/>
<path style=" stroke:none;fill-rule:evenodd;fill:rgb(77.647059%,12.156863%,18.823529%);fill-opacity:1;" d="M 85.648438 32.050781 C 86.28125 31.929688 86.761719 32.132812 87.101562 32.648438 C 87.167969 34.949219 87.167969 37.25 87.101562 39.550781 C 86.972656 40.089844 86.621094 40.359375 86.050781 40.351562 C 85.425781 40.308594 85.074219 39.976562 85 39.351562 C 84.933594 37.25 84.933594 35.148438 85 33.050781 C 85.042969 32.59375 85.261719 32.261719 85.648438 32.050781 Z M 85.648438 32.050781 "/>
<path style=" stroke:none;fill-rule:evenodd;fill:rgb(78.039216%,14.901961%,20.784314%);fill-opacity:1;" d="M 69.851562 33.449219 C 70.15625 34.894531 70.425781 36.363281 70.648438 37.851562 C 70.183594 37.851562 69.714844 37.851562 69.25 37.851562 C 69.492188 36.390625 69.695312 34.921875 69.851562 33.449219 Z M 69.851562 33.449219 "/>
<path style=" stroke:none;fill-rule:evenodd;fill:rgb(89.803922%,59.215686%,62.745098%);fill-opacity:1;" d="M 65.851562 32.949219 C 65.949219 33.53125 65.980469 34.132812 65.949219 34.75 C 65.265625 34.78125 64.597656 34.75 63.949219 34.648438 C 64.582031 34.648438 65.214844 34.648438 65.851562 34.648438 C 65.851562 34.082031 65.851562 33.515625 65.851562 32.949219 Z M 65.851562 32.949219 "/>
<path style=" stroke:none;fill-rule:evenodd;fill:rgb(82.745098%,32.156863%,38.039216%);fill-opacity:1;" d="M 73.148438 41.550781 C 73.203125 41.554688 73.238281 41.589844 73.25 41.648438 C 72.601562 41.78125 71.96875 41.78125 71.351562 41.648438 C 71.96875 41.683594 72.570312 41.648438 73.148438 41.550781 Z M 73.148438 41.550781 "/>
<path style=" stroke:none;fill-rule:evenodd;fill:rgb(99.607843%,99.607843%,99.607843%);fill-opacity:1;" d="M 114.050781 60.25 C 115.992188 60.09375 117.277344 60.929688 117.898438 62.75 C 117.949219 64.148438 117.96875 65.550781 117.949219 66.949219 C 115.816406 66.949219 113.683594 66.949219 111.550781 66.949219 C 111.503906 65.410156 111.554688 63.875 111.699219 62.351562 C 112.160156 61.273438 112.941406 60.574219 114.050781 60.25 Z M 114.050781 60.25 "/>
<path style=" stroke:none;fill-rule:evenodd;fill:rgb(99.607843%,98.431373%,98.431373%);fill-opacity:1;" d="M 36.25 64.75 C 36.316406 82.550781 36.382812 100.351562 36.449219 118.148438 C 46.179688 120.867188 55.910156 123.582031 65.648438 126.300781 C 66.980469 126.457031 68.3125 126.488281 69.648438 126.398438 C 79.59375 123.214844 89.527344 119.996094 99.449219 116.75 C 99.535156 99.382812 99.582031 82.015625 99.601562 64.648438 C 100.566406 65.417969 101.53125 66.183594 102.5 66.949219 C 102.582031 84.25 102.566406 101.550781 102.449219 118.851562 C 91.535156 122.253906 80.636719 125.703125 69.75 129.199219 C 68.550781 129.265625 67.351562 129.265625 66.148438 129.199219 C 55.25 126.234375 44.367188 123.21875 33.5 120.148438 C 33.433594 102.417969 33.433594 84.683594 33.5 66.949219 C 34.433594 66.234375 35.351562 65.5 36.25 64.75 Z M 36.25 64.75 "/>
<path style=" stroke:none;fill-rule:evenodd;fill:rgb(94.117647%,77.254902%,79.215686%);fill-opacity:1;" d="M 36.25 64.75 C 36.257812 64.695312 36.289062 64.664062 36.351562 64.648438 C 36.449219 82.484375 36.484375 100.316406 36.449219 118.148438 C 36.382812 100.351562 36.316406 82.550781 36.25 64.75 Z M 36.25 64.75 "/>
<path style=" stroke:none;fill-rule:evenodd;fill:rgb(99.607843%,99.607843%,99.607843%);fill-opacity:1;" d="M 39.25 64.75 C 48.277344 69.925781 57.292969 75.128906 66.300781 80.351562 C 66.351562 94.75 66.367188 109.148438 66.351562 123.550781 C 57.3125 120.867188 48.277344 118.164062 39.25 115.449219 C 39.25 98.550781 39.25 81.648438 39.25 64.75 Z M 39.25 64.75 "/>
<path style=" stroke:none;fill-rule:evenodd;fill:rgb(99.607843%,99.607843%,99.607843%);fill-opacity:1;" d="M 96.550781 64.75 C 96.648438 81.632812 96.683594 98.535156 96.648438 115.449219 C 87.554688 118.164062 78.457031 120.863281 69.351562 123.550781 C 69.316406 109.183594 69.351562 94.816406 69.449219 80.449219 C 78.511719 75.25 87.546875 70.015625 96.550781 64.75 Z M 96.550781 64.75 "/>
<path style=" stroke:none;fill-rule:evenodd;fill:rgb(99.607843%,99.607843%,99.607843%);fill-opacity:1;" d="M 111.550781 69.449219 C 113.683594 69.449219 115.816406 69.449219 117.949219 69.449219 C 117.96875 84.515625 117.949219 99.582031 117.898438 114.648438 C 116.878906 118.304688 115.8125 121.9375 114.699219 125.550781 C 113.667969 121.949219 112.632812 118.351562 111.601562 114.75 C 111.550781 99.648438 111.53125 84.550781 111.550781 69.449219 Z M 111.550781 69.449219 "/>
</g>
</svg>
