<?xml version="1.0" encoding="UTF-8"?>
<svg xmlns="http://www.w3.org/2000/svg" xmlns:xlink="http://www.w3.org/1999/xlink" width="150px" height="150px" viewBox="0 0 150 150" version="1.1">
<g id="surface1">
<path style=" stroke:none;fill-rule:evenodd;fill:rgb(14.901961%,74.117647%,88.627451%);fill-opacity:1;" d="M -0.0507812 -0.0507812 C 49.949219 -0.0507812 99.949219 -0.0507812 149.949219 -0.0507812 C 149.949219 49.949219 149.949219 99.949219 149.949219 149.949219 C 99.949219 149.949219 49.949219 149.949219 -0.0507812 149.949219 C -0.0507812 99.949219 -0.0507812 49.949219 -0.0507812 -0.0507812 Z M -0.0507812 -0.0507812 "/>
<path style=" stroke:none;fill-rule:evenodd;fill:rgb(99.607843%,99.607843%,99.607843%);fill-opacity:1;" d="M 26.75 20.148438 C 25.050781 20.148438 23.351562 20.148438 21.648438 20.148438 C 21.679688 19.863281 21.648438 19.59375 21.550781 19.351562 C 21.644531 18.40625 21.378906 17.589844 20.75 16.898438 C 19.066406 16.25 18.015625 16.800781 17.601562 18.550781 C 17.351562 20.777344 17.285156 23.007812 17.398438 25.25 C 18.132812 24.359375 19.082031 23.839844 20.25 23.699219 C 24.148438 23.394531 26.398438 25.179688 27 29.050781 C 27.53125 32.089844 27.265625 35.058594 26.199219 37.949219 C 25.328125 40.085938 23.746094 41.335938 21.449219 41.699219 C 15.679688 42.472656 12.496094 39.953125 11.898438 34.148438 C 11.832031 29.550781 11.832031 24.949219 11.898438 20.351562 C 11.984375 18.125 12.6875 16.125 14 14.351562 C 15.53125 12.984375 17.332031 12.351562 19.398438 12.449219 C 24.554688 12.421875 27.003906 14.988281 26.75 20.148438 Z M 26.75 20.148438 "/>
<path style=" stroke:none;fill-rule:evenodd;fill:rgb(99.215686%,99.607843%,99.607843%);fill-opacity:1;" d="M 45.148438 14.949219 C 45.148438 15.550781 45.148438 16.148438 45.148438 16.75 C 44.550781 16.75 43.949219 16.75 43.351562 16.75 C 43.382812 16.230469 43.347656 15.730469 43.25 15.25 C 43.203125 14.355469 42.738281 14.003906 41.851562 14.199219 C 41.449219 14.386719 41.230469 14.703125 41.199219 15.148438 C 41.132812 17.25 41.132812 19.351562 41.199219 21.449219 C 41.503906 22.4375 42.105469 22.667969 43 22.148438 C 43.066406 22.015625 43.132812 21.882812 43.199219 21.75 C 43.25 21.050781 43.265625 20.351562 43.25 19.648438 C 43.917969 19.648438 44.582031 19.648438 45.25 19.648438 C 45.496094 23.253906 43.898438 24.535156 40.449219 23.5 C 39.769531 22.988281 39.351562 22.304688 39.199219 21.449219 C 39.132812 19.316406 39.132812 17.183594 39.199219 15.050781 C 39.550781 13.414062 40.570312 12.613281 42.25 12.648438 C 43.90625 12.574219 44.871094 13.339844 45.148438 14.949219 Z M 45.148438 14.949219 "/>
<path style=" stroke:none;fill-rule:evenodd;fill:rgb(78.431373%,93.333333%,96.862745%);fill-opacity:1;" d="M 76.648438 12.851562 C 76.074219 12.789062 75.539062 12.855469 75.050781 13.050781 C 74.960938 12.980469 74.925781 12.878906 74.949219 12.75 C 75.535156 12.71875 76.101562 12.75 76.648438 12.851562 Z M 76.648438 12.851562 "/>
<path style=" stroke:none;fill-rule:evenodd;fill:rgb(78.039216%,93.333333%,96.862745%);fill-opacity:1;" d="M 86.351562 12.851562 C 86.683594 12.785156 87.03125 12.75 87.398438 12.75 C 87.789062 12.75 88.140625 12.816406 88.449219 12.949219 C 87.757812 12.855469 87.058594 12.820312 86.351562 12.851562 Z M 86.351562 12.851562 "/>
<path style=" stroke:none;fill-rule:evenodd;fill:rgb(75.294118%,92.54902%,96.470588%);fill-opacity:1;" d="M 96.050781 14.25 C 96.050781 13.785156 96.050781 13.316406 96.050781 12.851562 C 94.214844 12.851562 92.382812 12.851562 90.550781 12.851562 C 90.550781 13.316406 90.550781 13.785156 90.550781 14.25 C 90.453125 13.769531 90.417969 13.269531 90.449219 12.75 C 92.351562 12.75 94.25 12.75 96.148438 12.75 C 96.183594 13.269531 96.148438 13.769531 96.050781 14.25 Z M 96.050781 14.25 "/>
<path style=" stroke:none;fill-rule:evenodd;fill:rgb(99.607843%,99.607843%,99.607843%);fill-opacity:1;" d="M 46.550781 12.75 C 47.214844 12.75 47.882812 12.75 48.550781 12.75 C 48.550781 15.949219 48.550781 19.148438 48.550781 22.351562 C 49.417969 22.351562 50.285156 22.351562 51.148438 22.351562 C 51.148438 22.816406 51.148438 23.285156 51.148438 23.75 C 49.617188 23.75 48.082031 23.75 46.550781 23.75 C 46.550781 20.082031 46.550781 16.417969 46.550781 12.75 Z M 46.550781 12.75 "/>
<path style=" stroke:none;fill-rule:evenodd;fill:rgb(99.215686%,99.607843%,99.607843%);fill-opacity:1;" d="M 52.148438 12.75 C 53.683594 12.75 55.214844 12.75 56.75 12.75 C 56.75 13.25 56.75 13.75 56.75 14.25 C 55.882812 14.25 55.015625 14.25 54.148438 14.25 C 54.148438 15.285156 54.148438 16.316406 54.148438 17.351562 C 54.816406 17.351562 55.484375 17.351562 56.148438 17.351562 C 56.148438 17.816406 56.148438 18.285156 56.148438 18.75 C 55.484375 18.75 54.816406 18.75 54.148438 18.75 C 54.148438 19.949219 54.148438 21.148438 54.148438 22.351562 C 55.015625 22.351562 55.882812 22.351562 56.75 22.351562 C 56.75 22.816406 56.75 23.285156 56.75 23.75 C 55.214844 23.75 53.683594 23.75 52.148438 23.75 C 52.148438 20.082031 52.148438 16.417969 52.148438 12.75 Z M 52.148438 12.75 "/>
<path style=" stroke:none;fill-rule:evenodd;fill:rgb(99.215686%,99.607843%,99.607843%);fill-opacity:1;" d="M 59.550781 12.75 C 60.242188 12.71875 60.925781 12.753906 61.601562 12.851562 C 62.382812 16.472656 63.097656 20.105469 63.75 23.75 C 63.148438 23.75 62.550781 23.75 61.949219 23.75 C 61.800781 22.917969 61.667969 22.085938 61.550781 21.25 C 60.882812 21.25 60.214844 21.25 59.550781 21.25 C 59.464844 22.089844 59.332031 22.925781 59.148438 23.75 C 58.515625 23.765625 57.882812 23.75 57.25 23.699219 C 58.046875 20.054688 58.816406 16.40625 59.550781 12.75 Z M 59.550781 12.75 "/>
<path style=" stroke:none;fill-rule:evenodd;fill:rgb(59.607843%,87.45098%,94.509804%);fill-opacity:1;" d="M 66.25 12.851562 C 65.785156 12.851562 65.316406 12.851562 64.851562 12.851562 C 64.851562 16.484375 64.851562 20.117188 64.851562 23.75 C 64.75 20.101562 64.71875 16.433594 64.75 12.75 C 65.269531 12.71875 65.769531 12.75 66.25 12.851562 Z M 66.25 12.851562 "/>
<path style=" stroke:none;fill-rule:evenodd;fill:rgb(99.215686%,99.607843%,99.607843%);fill-opacity:1;" d="M 66.25 12.851562 C 67.101562 14.808594 67.9375 16.773438 68.75 18.75 C 68.777344 18.828125 68.828125 18.894531 68.898438 18.949219 C 68.949219 16.917969 68.964844 14.882812 68.949219 12.851562 C 69.484375 12.851562 70.015625 12.851562 70.550781 12.851562 C 70.550781 16.484375 70.550781 20.117188 70.550781 23.75 C 70.089844 23.78125 69.640625 23.746094 69.199219 23.648438 C 68.332031 21.582031 67.464844 19.515625 66.601562 17.449219 C 66.550781 19.550781 66.535156 21.648438 66.550781 23.75 C 65.984375 23.75 65.417969 23.75 64.851562 23.75 C 64.851562 20.117188 64.851562 16.484375 64.851562 12.851562 C 65.316406 12.851562 65.785156 12.851562 66.25 12.851562 Z M 66.25 12.851562 "/>
<path style=" stroke:none;fill-rule:evenodd;fill:rgb(78.431373%,93.333333%,96.862745%);fill-opacity:1;" d="M 70.550781 12.851562 C 70.015625 12.851562 69.484375 12.851562 68.949219 12.851562 C 68.964844 14.882812 68.949219 16.917969 68.898438 18.949219 C 68.828125 18.894531 68.777344 18.828125 68.75 18.75 C 68.851562 16.765625 68.882812 14.765625 68.851562 12.75 C 69.4375 12.71875 70.003906 12.75 70.550781 12.851562 Z M 70.550781 12.851562 "/>
<path style=" stroke:none;fill-rule:evenodd;fill:rgb(99.215686%,99.607843%,99.607843%);fill-opacity:1;" d="M 75.050781 13.050781 C 75.539062 12.855469 76.074219 12.789062 76.648438 12.851562 C 76.941406 15.09375 77.257812 17.328125 77.601562 19.550781 C 77.933594 17.3125 78.300781 15.078125 78.699219 12.851562 C 79.167969 12.714844 79.632812 12.714844 80.101562 12.851562 C 80.429688 15.058594 80.8125 17.257812 81.25 19.449219 C 81.558594 17.21875 81.859375 14.984375 82.148438 12.75 C 82.683594 12.75 83.214844 12.75 83.75 12.75 C 83.25 16.417969 82.75 20.082031 82.25 23.75 C 81.667969 23.808594 81.121094 23.742188 80.601562 23.550781 C 80.253906 21.238281 79.855469 18.941406 79.398438 16.648438 C 78.929688 19.003906 78.546875 21.371094 78.25 23.75 C 77.683594 23.75 77.117188 23.75 76.550781 23.75 C 76.039062 20.183594 75.539062 16.617188 75.050781 13.050781 Z M 75.050781 13.050781 "/>
<path style=" stroke:none;fill-rule:evenodd;fill:rgb(99.215686%,99.607843%,99.607843%);fill-opacity:1;" d="M 86.351562 12.851562 C 87.058594 12.820312 87.757812 12.855469 88.449219 12.949219 C 89.109375 16.53125 89.839844 20.097656 90.648438 23.648438 C 90.019531 23.75 89.386719 23.78125 88.75 23.75 C 88.628906 22.914062 88.492188 22.082031 88.351562 21.25 C 87.683594 21.25 87.015625 21.25 86.351562 21.25 C 86.222656 22.078125 86.121094 22.914062 86.050781 23.75 C 85.417969 23.75 84.785156 23.75 84.148438 23.75 C 84.808594 20.089844 85.542969 16.457031 86.351562 12.851562 Z M 86.351562 12.851562 "/>
<path style=" stroke:none;fill-rule:evenodd;fill:rgb(99.215686%,99.607843%,99.607843%);fill-opacity:1;" d="M 96.050781 14.25 C 95.484375 14.25 94.917969 14.25 94.351562 14.25 C 94.351562 17.417969 94.351562 20.582031 94.351562 23.75 C 93.683594 23.75 93.015625 23.75 92.351562 23.75 C 92.351562 20.582031 92.351562 17.417969 92.351562 14.25 C 91.75 14.25 91.148438 14.25 90.550781 14.25 C 90.550781 13.785156 90.550781 13.316406 90.550781 12.851562 C 92.382812 12.851562 94.214844 12.851562 96.050781 12.851562 C 96.050781 13.316406 96.050781 13.785156 96.050781 14.25 Z M 96.050781 14.25 "/>
<path style=" stroke:none;fill-rule:evenodd;fill:rgb(77.647059%,93.333333%,96.862745%);fill-opacity:1;" d="M 98.949219 14.25 C 99.765625 14.152344 100.597656 14.117188 101.449219 14.148438 C 101.449219 13.714844 101.449219 13.285156 101.449219 12.851562 C 99.949219 12.851562 98.449219 12.851562 96.949219 12.851562 C 96.949219 16.484375 96.949219 20.117188 96.949219 23.75 C 96.851562 20.101562 96.816406 16.433594 96.851562 12.75 C 98.417969 12.75 99.984375 12.75 101.550781 12.75 C 101.550781 13.25 101.550781 13.75 101.550781 14.25 C 100.683594 14.25 99.816406 14.25 98.949219 14.25 Z M 98.949219 14.25 "/>
<path style=" stroke:none;fill-rule:evenodd;fill:rgb(99.607843%,99.607843%,99.607843%);fill-opacity:1;" d="M 98.949219 14.25 C 98.851562 15.265625 98.816406 16.296875 98.851562 17.351562 C 99.550781 17.351562 100.25 17.351562 100.949219 17.351562 C 100.949219 17.816406 100.949219 18.285156 100.949219 18.75 C 100.25 18.75 99.550781 18.75 98.851562 18.75 C 98.816406 19.96875 98.851562 21.167969 98.949219 22.351562 C 99.765625 22.449219 100.597656 22.484375 101.449219 22.449219 C 101.449219 22.882812 101.449219 23.316406 101.449219 23.75 C 99.949219 23.75 98.449219 23.75 96.949219 23.75 C 96.949219 20.117188 96.949219 16.484375 96.949219 12.851562 C 98.449219 12.851562 99.949219 12.851562 101.449219 12.851562 C 101.449219 13.285156 101.449219 13.714844 101.449219 14.148438 C 100.597656 14.117188 99.765625 14.152344 98.949219 14.25 Z M 98.949219 14.25 "/>
<path style=" stroke:none;fill-rule:evenodd;fill:rgb(61.176471%,87.843137%,94.901961%);fill-opacity:1;" d="M 105.851562 12.851562 C 104.78125 12.851562 103.71875 12.851562 102.648438 12.851562 C 102.648438 16.484375 102.648438 20.117188 102.648438 23.75 C 102.550781 20.101562 102.515625 16.433594 102.550781 12.75 C 103.667969 12.71875 104.769531 12.75 105.851562 12.851562 Z M 105.851562 12.851562 "/>
<path style=" stroke:none;fill-rule:evenodd;fill:rgb(99.607843%,99.607843%,99.607843%);fill-opacity:1;" d="M 105.851562 12.851562 C 107.179688 12.820312 108.0625 13.421875 108.5 14.648438 C 108.582031 15.488281 108.550781 16.320312 108.398438 17.148438 C 108.242188 17.65625 107.925781 18.023438 107.449219 18.25 C 107.417969 18.351562 107.382812 18.449219 107.351562 18.550781 C 107.878906 20.269531 108.34375 22 108.75 23.75 C 108.082031 23.75 107.417969 23.75 106.75 23.75 C 106.382812 22.105469 105.964844 20.472656 105.5 18.851562 C 105.195312 18.753906 104.878906 18.722656 104.550781 18.75 C 104.550781 20.417969 104.550781 22.082031 104.550781 23.75 C 103.917969 23.75 103.28125 23.75 102.648438 23.75 C 102.648438 20.117188 102.648438 16.484375 102.648438 12.851562 C 103.71875 12.851562 104.78125 12.851562 105.851562 12.851562 Z M 105.851562 12.851562 "/>
<path style=" stroke:none;fill-rule:evenodd;fill:rgb(54.901961%,85.882353%,93.72549%);fill-opacity:1;" d="M 105.648438 14.25 C 105.316406 14.25 104.984375 14.25 104.648438 14.25 C 104.648438 15.316406 104.648438 16.382812 104.648438 17.449219 C 104.550781 16.367188 104.515625 15.269531 104.550781 14.148438 C 104.9375 14.117188 105.304688 14.152344 105.648438 14.25 Z M 105.648438 14.25 "/>
<path style=" stroke:none;fill-rule:evenodd;fill:rgb(16.470588%,74.117647%,88.627451%);fill-opacity:1;" d="M 105.648438 14.25 C 106.148438 14.234375 106.46875 14.464844 106.601562 14.949219 C 106.667969 15.515625 106.667969 16.082031 106.601562 16.648438 C 106.519531 16.957031 106.339844 17.175781 106.050781 17.300781 C 105.589844 17.421875 105.125 17.472656 104.648438 17.449219 C 104.648438 16.382812 104.648438 15.316406 104.648438 14.25 C 104.984375 14.25 105.316406 14.25 105.648438 14.25 Z M 105.648438 14.25 "/>
<path style=" stroke:none;fill-rule:evenodd;fill:rgb(23.137255%,75.686275%,89.019608%);fill-opacity:1;" d="M 88.050781 19.851562 C 87.617188 19.851562 87.183594 19.851562 86.75 19.851562 C 86.75 19.683594 86.75 19.515625 86.75 19.351562 C 86.898438 18.0625 87.113281 16.796875 87.398438 15.550781 C 87.660156 16.976562 87.875 18.410156 88.050781 19.851562 Z M 88.050781 19.851562 "/>
<path style=" stroke:none;fill-rule:evenodd;fill:rgb(25.490196%,76.078431%,89.411765%);fill-opacity:1;" d="M 60.550781 15.550781 C 60.824219 16.996094 61.058594 18.464844 61.25 19.949219 C 60.785156 19.949219 60.316406 19.949219 59.851562 19.949219 C 60.035156 18.472656 60.269531 17.003906 60.550781 15.550781 Z M 60.550781 15.550781 "/>
<path style=" stroke:none;fill-rule:evenodd;fill:rgb(66.27451%,89.411765%,95.294118%);fill-opacity:1;" d="M 45.148438 14.949219 C 45.25 15.566406 45.28125 16.199219 45.25 16.851562 C 44.582031 16.851562 43.917969 16.851562 43.25 16.851562 C 43.25 16.316406 43.25 15.785156 43.25 15.25 C 43.347656 15.730469 43.382812 16.230469 43.351562 16.75 C 43.949219 16.75 44.550781 16.75 45.148438 16.75 C 45.148438 16.148438 45.148438 15.550781 45.148438 14.949219 Z M 45.148438 14.949219 "/>
<path style=" stroke:none;fill-rule:evenodd;fill:rgb(55.294118%,85.882353%,93.72549%);fill-opacity:1;" d="M 86.75 19.351562 C 86.75 19.515625 86.75 19.683594 86.75 19.851562 C 87.183594 19.851562 87.617188 19.851562 88.050781 19.851562 C 87.601562 19.949219 87.136719 19.980469 86.648438 19.949219 C 86.621094 19.726562 86.652344 19.527344 86.75 19.351562 Z M 86.75 19.351562 "/>
<path style=" stroke:none;fill-rule:evenodd;fill:rgb(78.431373%,93.333333%,96.862745%);fill-opacity:1;" d="M 21.550781 19.351562 C 21.648438 19.59375 21.679688 19.863281 21.648438 20.148438 C 23.351562 20.148438 25.050781 20.148438 26.75 20.148438 C 25.035156 20.25 23.300781 20.28125 21.550781 20.25 C 21.550781 19.949219 21.550781 19.648438 21.550781 19.351562 Z M 21.550781 19.351562 "/>
<path style=" stroke:none;fill-rule:evenodd;fill:rgb(78.039216%,93.333333%,96.862745%);fill-opacity:1;" d="M 98.949219 22.351562 C 99.816406 22.351562 100.683594 22.351562 101.550781 22.351562 C 101.582031 22.835938 101.550781 23.304688 101.449219 23.75 C 101.449219 23.316406 101.449219 22.882812 101.449219 22.449219 C 100.597656 22.484375 99.765625 22.449219 98.949219 22.351562 Z M 98.949219 22.351562 "/>
<path style=" stroke:none;fill-rule:evenodd;fill:rgb(16.470588%,74.117647%,88.627451%);fill-opacity:1;" d="M 19.050781 27.851562 C 20.273438 27.703125 21.089844 28.203125 21.5 29.351562 C 21.851562 31.6875 21.816406 34.023438 21.398438 36.351562 C 20.90625 37.691406 19.988281 38.109375 18.648438 37.601562 C 17.847656 36.863281 17.433594 35.949219 17.398438 34.851562 C 17.332031 32.949219 17.332031 31.050781 17.398438 29.148438 C 17.792969 28.503906 18.34375 28.070312 19.050781 27.851562 Z M 19.050781 27.851562 "/>
<path style=" stroke:none;fill-rule:evenodd;fill:rgb(98.823529%,99.607843%,99.607843%);fill-opacity:1;" d="M 66.25 30.550781 C 68.394531 30.429688 69.460938 31.429688 69.449219 33.550781 C 68.921875 33.6875 68.390625 33.785156 67.851562 33.851562 C 67.917969 33.195312 67.714844 32.644531 67.25 32.199219 C 66.097656 31.984375 65.648438 32.46875 65.898438 33.648438 C 66.550781 34.566406 67.332031 35.351562 68.25 36 C 69.675781 37.257812 70.058594 38.777344 69.398438 40.550781 C 68.800781 41.445312 67.949219 41.878906 66.851562 41.851562 C 65.003906 41.664062 64.035156 40.628906 63.949219 38.75 C 63.972656 38.601562 64.039062 38.484375 64.148438 38.398438 C 64.648438 38.292969 65.148438 38.226562 65.648438 38.199219 C 65.714844 38.691406 65.832031 39.175781 66 39.648438 C 66.292969 40.203125 66.742188 40.386719 67.351562 40.199219 C 67.964844 39.539062 68.015625 38.824219 67.5 38.050781 C 66.535156 37.148438 65.566406 36.25 64.601562 35.351562 C 63.832031 34.152344 63.765625 32.917969 64.398438 31.648438 C 64.886719 31.042969 65.503906 30.675781 66.25 30.550781 Z M 66.25 30.550781 "/>
<path style=" stroke:none;fill-rule:evenodd;fill:rgb(99.215686%,99.607843%,99.607843%);fill-opacity:1;" d="M 112.550781 30.550781 C 113.5 30.496094 114.402344 30.679688 115.25 31.101562 C 115.847656 31.613281 116.199219 32.265625 116.300781 33.050781 C 116.367188 35.148438 116.367188 37.25 116.300781 39.351562 C 115.945312 41.144531 114.847656 41.980469 113 41.851562 C 111.265625 41.78125 110.296875 40.882812 110.101562 39.148438 C 110.007812 36.980469 110.039062 34.8125 110.199219 32.648438 C 110.535156 31.429688 111.316406 30.730469 112.550781 30.550781 Z M 112.550781 30.550781 "/>
<path style=" stroke:none;fill-rule:evenodd;fill:rgb(99.215686%,99.607843%,99.607843%);fill-opacity:1;" d="M 40.949219 30.75 C 41.648438 30.75 42.351562 30.75 43.050781 30.75 C 43.816406 34.378906 44.550781 38.011719 45.25 41.648438 C 44.617188 41.648438 43.984375 41.648438 43.351562 41.648438 C 43.257812 40.816406 43.15625 39.980469 43.050781 39.148438 C 42.382812 39.148438 41.714844 39.148438 41.050781 39.148438 C 40.925781 39.984375 40.792969 40.820312 40.648438 41.648438 C 40.015625 41.648438 39.382812 41.648438 38.75 41.648438 C 39.457031 38.011719 40.191406 34.378906 40.949219 30.75 Z M 40.949219 30.75 "/>
<path style=" stroke:none;fill-rule:evenodd;fill:rgb(76.470588%,92.941176%,96.862745%);fill-opacity:1;" d="M 47.648438 30.75 C 47.214844 30.75 46.785156 30.75 46.351562 30.75 C 46.351562 34.382812 46.351562 38.015625 46.351562 41.648438 C 46.25 38 46.21875 34.332031 46.25 30.648438 C 46.734375 30.617188 47.203125 30.652344 47.648438 30.75 Z M 47.648438 30.75 "/>
<path style=" stroke:none;fill-rule:evenodd;fill:rgb(99.607843%,99.607843%,99.607843%);fill-opacity:1;" d="M 47.648438 30.75 C 48.507812 32.632812 49.339844 34.53125 50.148438 36.449219 C 50.199219 36.546875 50.25 36.648438 50.300781 36.75 C 50.351562 34.75 50.367188 32.75 50.351562 30.75 C 50.882812 30.75 51.417969 30.75 51.949219 30.75 C 51.949219 34.382812 51.949219 38.015625 51.949219 41.648438 C 51.511719 41.683594 51.078125 41.648438 50.648438 41.550781 C 49.816406 39.546875 48.980469 37.546875 48.148438 35.550781 C 48.101562 35.453125 48.050781 35.351562 48 35.25 C 47.949219 37.382812 47.933594 39.515625 47.949219 41.648438 C 47.417969 41.648438 46.882812 41.648438 46.351562 41.648438 C 46.351562 38.015625 46.351562 34.382812 46.351562 30.75 C 46.785156 30.75 47.214844 30.75 47.648438 30.75 Z M 47.648438 30.75 "/>
<path style=" stroke:none;fill-rule:evenodd;fill:rgb(36.470588%,80.784314%,91.372549%);fill-opacity:1;" d="M 50.351562 30.75 C 50.367188 32.75 50.351562 34.75 50.300781 36.75 C 50.25 36.648438 50.199219 36.546875 50.148438 36.449219 C 50.214844 34.550781 50.285156 32.648438 50.351562 30.75 Z M 50.351562 30.75 "/>
<path style=" stroke:none;fill-rule:evenodd;fill:rgb(99.607843%,99.607843%,99.607843%);fill-opacity:1;" d="M 53.550781 30.75 C 54.816406 30.734375 56.082031 30.75 57.351562 30.800781 C 58.511719 30.964844 59.230469 31.613281 59.5 32.75 C 59.566406 34.949219 59.566406 37.148438 59.5 39.351562 C 59.257812 40.726562 58.441406 41.476562 57.050781 41.601562 C 55.882812 41.648438 54.71875 41.667969 53.550781 41.648438 C 53.550781 38.015625 53.550781 34.382812 53.550781 30.75 Z M 53.550781 30.75 "/>
<path style=" stroke:none;fill-rule:evenodd;fill:rgb(99.215686%,99.607843%,99.607843%);fill-opacity:1;" d="M 72.449219 30.75 C 73.183594 30.75 73.917969 30.75 74.648438 30.75 C 75.363281 34.378906 76.0625 38.011719 76.75 41.648438 C 76.148438 41.648438 75.550781 41.648438 74.949219 41.648438 C 74.796875 40.820312 74.664062 39.988281 74.550781 39.148438 C 73.882812 39.148438 73.214844 39.148438 72.550781 39.148438 C 72.464844 39.992188 72.332031 40.824219 72.148438 41.648438 C 71.515625 41.667969 70.882812 41.648438 70.25 41.601562 C 71.066406 38.003906 71.800781 34.386719 72.449219 30.75 Z M 72.449219 30.75 "/>
<path style=" stroke:none;fill-rule:evenodd;fill:rgb(99.607843%,99.607843%,99.607843%);fill-opacity:1;" d="M 81.75 36.648438 C 81.777344 36.730469 81.828125 36.796875 81.898438 36.851562 C 81.949219 34.816406 81.964844 32.785156 81.949219 30.75 C 82.484375 30.75 83.015625 30.75 83.550781 30.75 C 83.550781 34.382812 83.550781 38.015625 83.550781 41.648438 C 83.082031 41.648438 82.617188 41.648438 82.148438 41.648438 C 81.355469 39.570312 80.523438 37.5 79.648438 35.449219 C 79.621094 35.371094 79.570312 35.304688 79.5 35.25 C 79.449219 37.382812 79.433594 39.515625 79.449219 41.648438 C 78.917969 41.648438 78.382812 41.648438 77.851562 41.648438 C 77.851562 38.015625 77.851562 34.382812 77.851562 30.75 C 78.320312 30.71875 78.789062 30.75 79.25 30.851562 C 80.085938 32.785156 80.917969 34.71875 81.75 36.648438 Z M 81.75 36.648438 "/>
<path style=" stroke:none;fill-rule:evenodd;fill:rgb(74.901961%,92.156863%,96.470588%);fill-opacity:1;" d="M 83.550781 30.75 C 83.015625 30.75 82.484375 30.75 81.949219 30.75 C 81.964844 32.785156 81.949219 34.816406 81.898438 36.851562 C 81.828125 36.796875 81.777344 36.730469 81.75 36.648438 C 81.851562 34.667969 81.882812 32.667969 81.851562 30.648438 C 82.4375 30.617188 83.003906 30.652344 83.550781 30.75 Z M 83.550781 30.75 "/>
<path style=" stroke:none;fill-rule:evenodd;fill:rgb(99.607843%,100%,99.607843%);fill-opacity:1;" d="M 85.148438 30.75 C 85.816406 30.75 86.484375 30.75 87.148438 30.75 C 87.148438 34.382812 87.148438 38.015625 87.148438 41.648438 C 86.484375 41.648438 85.816406 41.648438 85.148438 41.648438 C 85.148438 38.015625 85.148438 34.382812 85.148438 30.75 Z M 85.148438 30.75 "/>
<path style=" stroke:none;fill-rule:evenodd;fill:rgb(99.215686%,99.607843%,99.607843%);fill-opacity:1;" d="M 93.550781 30.75 C 93.550781 31.214844 93.550781 31.683594 93.550781 32.148438 C 92.984375 32.148438 92.417969 32.148438 91.851562 32.148438 C 91.851562 35.316406 91.851562 38.484375 91.851562 41.648438 C 91.183594 41.648438 90.515625 41.648438 89.851562 41.648438 C 89.851562 38.484375 89.851562 35.316406 89.851562 32.148438 C 89.25 32.148438 88.648438 32.148438 88.050781 32.148438 C 88.050781 31.683594 88.050781 31.214844 88.050781 30.75 C 89.882812 30.75 91.714844 30.75 93.550781 30.75 Z M 93.550781 30.75 "/>
<path style=" stroke:none;fill-rule:evenodd;fill:rgb(99.215686%,99.607843%,99.607843%);fill-opacity:1;" d="M 95.949219 30.75 C 96.683594 30.75 97.417969 30.75 98.148438 30.75 C 98.882812 34.378906 99.582031 38.011719 100.25 41.648438 C 99.648438 41.648438 99.050781 41.648438 98.449219 41.648438 C 98.300781 40.820312 98.167969 39.984375 98.050781 39.148438 C 97.382812 39.148438 96.714844 39.148438 96.050781 39.148438 C 95.921875 39.980469 95.820312 40.8125 95.75 41.648438 C 95.117188 41.648438 94.484375 41.648438 93.851562 41.648438 C 94.535156 38.015625 95.238281 34.382812 95.949219 30.75 Z M 95.949219 30.75 "/>
<path style=" stroke:none;fill-rule:evenodd;fill:rgb(99.215686%,99.607843%,99.607843%);fill-opacity:1;" d="M 102.050781 41.648438 C 102.050781 38.484375 102.050781 35.316406 102.050781 32.148438 C 101.417969 32.148438 100.78125 32.148438 100.148438 32.148438 C 100.148438 31.683594 100.148438 31.214844 100.148438 30.75 C 102.015625 30.75 103.882812 30.75 105.75 30.75 C 105.75 31.214844 105.75 31.683594 105.75 32.148438 C 105.183594 32.148438 104.617188 32.148438 104.050781 32.148438 C 104.050781 35.316406 104.050781 38.484375 104.050781 41.648438 C 103.382812 41.648438 102.71875 41.648438 102.050781 41.648438 Z M 102.050781 41.648438 "/>
<path style=" stroke:none;fill-rule:evenodd;fill:rgb(99.607843%,100%,99.607843%);fill-opacity:1;" d="M 106.648438 30.75 C 107.28125 30.75 107.917969 30.75 108.550781 30.75 C 108.550781 34.382812 108.550781 38.015625 108.550781 41.648438 C 107.917969 41.648438 107.28125 41.648438 106.648438 41.648438 C 106.648438 38.015625 106.648438 34.382812 106.648438 30.75 Z M 106.648438 30.75 "/>
<path style=" stroke:none;fill-rule:evenodd;fill:rgb(76.078431%,92.54902%,96.862745%);fill-opacity:1;" d="M 106.648438 30.75 C 107.296875 30.652344 107.964844 30.617188 108.648438 30.648438 C 108.683594 34.332031 108.648438 38 108.550781 41.648438 C 108.550781 38.015625 108.550781 34.382812 108.550781 30.75 C 107.917969 30.75 107.28125 30.75 106.648438 30.75 Z M 106.648438 30.75 "/>
<path style=" stroke:none;fill-rule:evenodd;fill:rgb(76.470588%,92.941176%,96.862745%);fill-opacity:1;" d="M 119.148438 30.75 C 118.71875 30.75 118.28125 30.75 117.851562 30.75 C 117.851562 34.382812 117.851562 38.015625 117.851562 41.648438 C 117.75 38 117.71875 34.332031 117.75 30.648438 C 118.234375 30.617188 118.703125 30.652344 119.148438 30.75 Z M 119.148438 30.75 "/>
<path style=" stroke:none;fill-rule:evenodd;fill:rgb(99.607843%,99.607843%,99.607843%);fill-opacity:1;" d="M 119.148438 30.75 C 120.007812 32.632812 120.839844 34.53125 121.648438 36.449219 C 121.644531 36.574219 121.695312 36.675781 121.800781 36.75 C 121.851562 34.75 121.867188 32.75 121.851562 30.75 C 122.382812 30.75 122.917969 30.75 123.449219 30.75 C 123.449219 34.382812 123.449219 38.015625 123.449219 41.648438 C 123.011719 41.683594 122.578125 41.648438 122.148438 41.550781 C 121.316406 39.546875 120.480469 37.546875 119.648438 35.550781 C 119.601562 35.453125 119.550781 35.351562 119.5 35.25 C 119.449219 37.382812 119.433594 39.515625 119.449219 41.648438 C 118.917969 41.648438 118.382812 41.648438 117.851562 41.648438 C 117.851562 38.015625 117.851562 34.382812 117.851562 30.75 C 118.28125 30.75 118.71875 30.75 119.148438 30.75 Z M 119.148438 30.75 "/>
<path style=" stroke:none;fill-rule:evenodd;fill:rgb(36.862745%,80.784314%,91.372549%);fill-opacity:1;" d="M 121.851562 30.75 C 121.867188 32.75 121.851562 34.75 121.800781 36.75 C 121.695312 36.675781 121.644531 36.574219 121.648438 36.449219 C 121.71875 34.550781 121.78125 32.648438 121.851562 30.75 Z M 121.851562 30.75 "/>
<path style=" stroke:none;fill-rule:evenodd;fill:rgb(16.862745%,74.509804%,88.627451%);fill-opacity:1;" d="M 55.550781 32.148438 C 55.953125 32.132812 56.351562 32.148438 56.75 32.199219 C 57.019531 32.269531 57.234375 32.417969 57.398438 32.648438 C 57.511719 33.777344 57.5625 34.910156 57.550781 36.050781 C 57.5625 37.253906 57.511719 38.453125 57.398438 39.648438 C 57.273438 39.9375 57.058594 40.121094 56.75 40.199219 C 56.351562 40.25 55.953125 40.265625 55.550781 40.25 C 55.550781 37.550781 55.550781 34.851562 55.550781 32.148438 Z M 55.550781 32.148438 "/>
<path style=" stroke:none;fill-rule:evenodd;fill:rgb(18.823529%,74.509804%,88.627451%);fill-opacity:1;" d="M 112.851562 32.050781 C 113.5625 31.914062 114.046875 32.179688 114.300781 32.851562 C 114.367188 35.050781 114.367188 37.25 114.300781 39.449219 C 114.007812 40.253906 113.457031 40.503906 112.648438 40.199219 C 112.335938 39.960938 112.152344 39.644531 112.101562 39.25 C 112.03125 37.285156 112.03125 35.316406 112.101562 33.351562 C 112.097656 32.75 112.347656 32.316406 112.851562 32.050781 Z M 112.851562 32.050781 "/>
<path style=" stroke:none;fill-rule:evenodd;fill:rgb(58.431373%,87.058824%,94.509804%);fill-opacity:1;" d="M 93.550781 30.75 C 91.714844 30.75 89.882812 30.75 88.050781 30.75 C 88.050781 31.214844 88.050781 31.683594 88.050781 32.148438 C 88.648438 32.148438 89.25 32.148438 89.851562 32.148438 C 89.851562 35.316406 89.851562 38.484375 89.851562 41.648438 C 89.75 38.535156 89.71875 35.402344 89.75 32.25 C 89.148438 32.25 88.550781 32.25 87.949219 32.25 C 87.949219 31.714844 87.949219 31.183594 87.949219 30.648438 C 89.835938 30.617188 91.699219 30.648438 93.550781 30.75 Z M 93.550781 30.75 "/>
<path style=" stroke:none;fill-rule:evenodd;fill:rgb(57.647059%,87.058824%,94.509804%);fill-opacity:1;" d="M 100.148438 32.148438 C 100.78125 32.148438 101.417969 32.148438 102.050781 32.148438 C 102.050781 35.316406 102.050781 38.484375 102.050781 41.648438 C 101.949219 38.535156 101.917969 35.402344 101.949219 32.25 C 101.332031 32.28125 100.730469 32.25 100.148438 32.148438 Z M 100.148438 32.148438 "/>
<path style=" stroke:none;fill-rule:evenodd;fill:rgb(24.313725%,75.686275%,89.411765%);fill-opacity:1;" d="M 41.949219 33.449219 C 42.300781 34.886719 42.566406 36.351562 42.75 37.851562 C 42.285156 37.851562 41.816406 37.851562 41.351562 37.851562 C 41.535156 36.382812 41.734375 34.914062 41.949219 33.449219 Z M 41.949219 33.449219 "/>
<path style=" stroke:none;fill-rule:evenodd;fill:rgb(24.705882%,75.686275%,89.411765%);fill-opacity:1;" d="M 73.550781 33.449219 C 73.847656 34.894531 74.078125 36.359375 74.25 37.851562 C 73.785156 37.851562 73.316406 37.851562 72.851562 37.851562 C 73.035156 36.371094 73.269531 34.90625 73.550781 33.449219 Z M 73.550781 33.449219 "/>
<path style=" stroke:none;fill-rule:evenodd;fill:rgb(23.137255%,75.686275%,89.019608%);fill-opacity:1;" d="M 97.050781 33.648438 C 97.347656 35.027344 97.578125 36.425781 97.75 37.851562 C 97.285156 37.851562 96.816406 37.851562 96.351562 37.851562 C 96.519531 36.4375 96.753906 35.039062 97.050781 33.648438 Z M 97.050781 33.648438 "/>
<path style=" stroke:none;fill-rule:evenodd;fill:rgb(78.431373%,93.333333%,96.862745%);fill-opacity:1;" d="M 79.648438 35.449219 C 79.582031 37.515625 79.515625 39.582031 79.449219 41.648438 C 79.433594 39.515625 79.449219 37.382812 79.5 35.25 C 79.570312 35.304688 79.621094 35.371094 79.648438 35.449219 Z M 79.648438 35.449219 "/>
<path style=" stroke:none;fill-rule:evenodd;fill:rgb(57.647059%,87.058824%,94.509804%);fill-opacity:1;" d="M 48.148438 35.550781 C 48.082031 37.582031 48.015625 39.617188 47.949219 41.648438 C 47.933594 39.515625 47.949219 37.382812 48 35.25 C 48.050781 35.351562 48.101562 35.453125 48.148438 35.550781 Z M 48.148438 35.550781 "/>
<path style=" stroke:none;fill-rule:evenodd;fill:rgb(36.862745%,80.784314%,91.372549%);fill-opacity:1;" d="M 119.648438 35.550781 C 119.582031 37.582031 119.515625 39.617188 119.449219 41.648438 C 119.433594 39.515625 119.449219 37.382812 119.5 35.25 C 119.550781 35.351562 119.601562 35.453125 119.648438 35.550781 Z M 119.648438 35.550781 "/>
<path style=" stroke:none;fill-rule:evenodd;fill:rgb(99.607843%,99.607843%,99.607843%);fill-opacity:1;" d="M 93.851562 117.25 C 89.949219 117.25 86.050781 117.25 82.148438 117.25 C 82.148438 117.351562 82.148438 117.449219 82.148438 117.550781 C 81.917969 120.484375 81.683594 123.417969 81.449219 126.351562 C 82.015625 126.351562 82.582031 126.351562 83.148438 126.351562 C 84.136719 126.316406 85.101562 126.351562 86.050781 126.449219 C 82.449219 130.132812 78.800781 133.765625 75.101562 137.351562 C 71.402344 133.734375 67.71875 130.101562 64.050781 126.449219 C 65.597656 126.351562 67.164062 126.316406 68.75 126.351562 C 68.78125 126.027344 68.746094 125.730469 68.648438 125.449219 C 68.484375 122.914062 68.28125 120.378906 68.050781 117.851562 C 68.050781 117.648438 68.050781 117.449219 68.050781 117.25 C 64.214844 117.25 60.382812 117.25 56.550781 117.25 C 56.363281 117.214844 56.214844 117.113281 56.101562 116.949219 C 53.035156 98.417969 49.964844 79.882812 46.898438 61.351562 C 46.832031 61.082031 46.832031 60.816406 46.898438 60.550781 C 46.992188 60.429688 47.105469 60.347656 47.25 60.300781 C 65.683594 60.234375 84.117188 60.234375 102.550781 60.300781 C 102.699219 60.382812 102.816406 60.5 102.898438 60.648438 C 100.082031 79.386719 97.214844 98.121094 94.300781 116.851562 C 94.222656 117.0625 94.070312 117.199219 93.851562 117.25 Z M 93.851562 117.25 "/>
<path style=" stroke:none;fill-rule:evenodd;fill:rgb(57.647059%,87.058824%,94.509804%);fill-opacity:1;" d="M 49.25 62.75 C 66.332031 62.648438 83.433594 62.617188 100.550781 62.648438 C 100.574219 62.777344 100.539062 62.878906 100.449219 62.949219 C 83.417969 62.75 66.351562 62.683594 49.25 62.75 Z M 49.25 62.75 "/>
<path style=" stroke:none;fill-rule:evenodd;fill:rgb(15.294118%,74.117647%,88.627451%);fill-opacity:1;" d="M 49.25 62.75 C 66.351562 62.683594 83.417969 62.75 100.449219 62.949219 C 99.984375 66.015625 99.515625 69.082031 99.050781 72.148438 C 97.46875 71.707031 95.902344 71.757812 94.351562 72.300781 C 91.121094 73.753906 87.753906 74.722656 84.25 75.199219 C 80.773438 75.445312 77.40625 74.945312 74.148438 73.699219 C 72.246094 72.886719 70.316406 72.15625 68.351562 71.5 C 66.683594 70.992188 64.984375 70.828125 63.25 71 C 60.890625 71.753906 58.527344 72.484375 56.148438 73.199219 C 54.570312 73.566406 52.96875 73.75 51.351562 73.75 C 50.675781 70.078125 49.976562 66.410156 49.25 62.75 Z M 49.25 62.75 "/>
<path style=" stroke:none;fill-rule:evenodd;fill:rgb(15.294118%,74.117647%,88.627451%);fill-opacity:1;" d="M 74.949219 81.351562 C 75.105469 81.394531 75.222656 81.492188 75.300781 81.648438 C 77.816406 85.414062 80.28125 89.214844 82.699219 93.050781 C 84.285156 95.765625 84.652344 98.632812 83.800781 101.648438 C 82.6875 104.597656 80.605469 106.445312 77.550781 107.199219 C 76.019531 107.355469 74.488281 107.386719 72.949219 107.300781 C 68.957031 106.371094 66.605469 103.890625 65.898438 99.851562 C 65.695312 97.347656 66.226562 95.015625 67.5 92.851562 C 69.984375 89.011719 72.46875 85.175781 74.949219 81.351562 Z M 74.949219 81.351562 "/>
<path style=" stroke:none;fill-rule:evenodd;fill:rgb(37.647059%,81.176471%,91.372549%);fill-opacity:1;" d="M 56.550781 117.25 C 60.382812 117.25 64.214844 117.25 68.050781 117.25 C 68.050781 117.449219 68.050781 117.648438 68.050781 117.851562 C 67.953125 117.707031 67.921875 117.539062 67.949219 117.351562 C 64.132812 117.382812 60.332031 117.351562 56.550781 117.25 Z M 56.550781 117.25 "/>
<path style=" stroke:none;fill-rule:evenodd;fill:rgb(36.078431%,80.784314%,91.372549%);fill-opacity:1;" d="M 93.851562 117.25 C 89.945312 117.285156 86.046875 117.386719 82.148438 117.550781 C 82.148438 117.449219 82.148438 117.351562 82.148438 117.25 C 86.050781 117.25 89.949219 117.25 93.851562 117.25 Z M 93.851562 117.25 "/>
<path style=" stroke:none;fill-rule:evenodd;fill:rgb(39.607843%,81.568627%,91.764706%);fill-opacity:1;" d="M 68.648438 125.449219 C 68.746094 125.730469 68.78125 126.027344 68.75 126.351562 C 67.164062 126.316406 65.597656 126.351562 64.050781 126.449219 C 63.996094 126.445312 63.960938 126.410156 63.949219 126.351562 C 65.515625 126.25 67.082031 126.21875 68.648438 126.25 C 68.648438 125.984375 68.648438 125.71875 68.648438 125.449219 Z M 68.648438 125.449219 "/>
<path style=" stroke:none;fill-rule:evenodd;fill:rgb(57.647059%,87.058824%,94.509804%);fill-opacity:1;" d="M 83.148438 126.351562 C 84.132812 126.21875 85.132812 126.21875 86.148438 126.351562 C 86.136719 126.410156 86.105469 126.445312 86.050781 126.449219 C 85.101562 126.351562 84.136719 126.316406 83.148438 126.351562 Z M 83.148438 126.351562 "/>
</g>
</svg>
