<?xml version="1.0" encoding="UTF-8"?>
<svg xmlns="http://www.w3.org/2000/svg" xmlns:xlink="http://www.w3.org/1999/xlink" width="150px" height="150px" viewBox="0 0 150 150" version="1.1">
<g id="surface1">
<path style=" stroke:none;fill-rule:evenodd;fill:rgb(98.823529%,76.470588%,4.313725%);fill-opacity:1;" d="M -0.0507812 -0.0507812 C 49.949219 -0.0507812 99.949219 -0.0507812 149.949219 -0.0507812 C 149.949219 49.949219 149.949219 99.949219 149.949219 149.949219 C 99.949219 149.949219 49.949219 149.949219 -0.0507812 149.949219 C -0.0507812 99.949219 -0.0507812 49.949219 -0.0507812 -0.0507812 Z M -0.0507812 -0.0507812 "/>
<path style=" stroke:none;fill-rule:evenodd;fill:rgb(100%,99.215686%,98.431373%);fill-opacity:1;" d="M 56.949219 12.648438 C 58.027344 12.542969 59.027344 12.757812 59.949219 13.300781 C 60.515625 13.902344 60.835938 14.617188 60.898438 15.449219 C 60.992188 17.519531 60.960938 19.585938 60.800781 21.648438 C 60.546875 22.835938 59.828125 23.554688 58.648438 23.800781 C 56.265625 24.285156 54.914062 23.335938 54.601562 20.949219 C 54.507812 18.914062 54.539062 16.878906 54.699219 14.851562 C 54.980469 13.621094 55.730469 12.886719 56.949219 12.648438 Z M 56.949219 12.648438 "/>
<path style=" stroke:none;fill-rule:evenodd;fill:rgb(99.607843%,93.333333%,74.117647%);fill-opacity:1;" d="M 39.050781 12.851562 C 39.398438 12.785156 39.765625 12.75 40.148438 12.75 C 40.554688 12.75 40.921875 12.816406 41.25 12.949219 C 40.527344 12.855469 39.792969 12.820312 39.050781 12.851562 Z M 39.050781 12.851562 "/>
<path style=" stroke:none;fill-rule:evenodd;fill:rgb(99.607843%,91.372549%,66.27451%);fill-opacity:1;" d="M 46.25 17.351562 C 46.152344 16.300781 46.117188 15.234375 46.148438 14.148438 C 46.984375 14.148438 47.816406 14.148438 48.648438 14.148438 C 48.648438 13.714844 48.648438 13.285156 48.648438 12.851562 C 47.183594 12.851562 45.714844 12.851562 44.25 12.851562 C 44.25 16.484375 44.25 20.117188 44.25 23.75 C 44.148438 20.101562 44.117188 16.433594 44.148438 12.75 C 45.683594 12.75 47.214844 12.75 48.75 12.75 C 48.75 13.25 48.75 13.75 48.75 14.25 C 47.917969 14.25 47.082031 14.25 46.25 14.25 C 46.25 15.285156 46.25 16.316406 46.25 17.351562 Z M 46.25 17.351562 "/>
<path style=" stroke:none;fill-rule:evenodd;fill:rgb(100%,99.607843%,99.607843%);fill-opacity:1;" d="M 12.050781 12.851562 C 16.417969 12.851562 20.785156 12.851562 25.148438 12.851562 C 25.148438 14.050781 25.148438 15.25 25.148438 16.449219 C 23.199219 24.722656 21.214844 32.988281 19.199219 41.25 C 17.441406 41.449219 15.65625 41.515625 13.851562 41.449219 C 15.816406 33.382812 17.785156 25.316406 19.75 17.25 C 19.839844 17.179688 19.875 17.078125 19.851562 16.949219 C 17.25 16.949219 14.648438 16.949219 12.050781 16.949219 C 12.050781 15.582031 12.050781 14.214844 12.050781 12.851562 Z M 12.050781 12.851562 "/>
<path style=" stroke:none;fill-rule:evenodd;fill:rgb(99.607843%,91.372549%,65.490196%);fill-opacity:1;" d="M 12.050781 12.851562 C 16.433594 12.75 20.832031 12.71875 25.25 12.75 C 25.28125 14 25.25 15.234375 25.148438 16.449219 C 25.148438 15.25 25.148438 14.050781 25.148438 12.851562 C 20.785156 12.851562 16.417969 12.851562 12.050781 12.851562 Z M 12.050781 12.851562 "/>
<path style=" stroke:none;fill-rule:evenodd;fill:rgb(100%,99.607843%,98.823529%);fill-opacity:1;" d="M 39.050781 12.851562 C 39.792969 12.820312 40.527344 12.855469 41.25 12.949219 C 41.949219 16.550781 42.648438 20.152344 43.351562 23.75 C 42.75 23.75 42.148438 23.75 41.550781 23.75 C 41.398438 22.917969 41.265625 22.085938 41.148438 21.25 C 40.484375 21.25 39.816406 21.25 39.148438 21.25 C 39.058594 22.058594 38.925781 22.855469 38.75 23.648438 C 38.121094 23.75 37.488281 23.78125 36.851562 23.75 C 37.59375 20.117188 38.328125 16.484375 39.050781 12.851562 Z M 39.050781 12.851562 "/>
<path style=" stroke:none;fill-rule:evenodd;fill:rgb(100%,99.607843%,99.215686%);fill-opacity:1;" d="M 46.25 17.351562 C 46.917969 17.351562 47.582031 17.351562 48.25 17.351562 C 48.25 17.816406 48.25 18.285156 48.25 18.75 C 47.582031 18.75 46.917969 18.75 46.25 18.75 C 46.25 20.417969 46.25 22.082031 46.25 23.75 C 45.582031 23.75 44.917969 23.75 44.25 23.75 C 44.25 20.117188 44.25 16.484375 44.25 12.851562 C 45.714844 12.851562 47.183594 12.851562 48.648438 12.851562 C 48.648438 13.285156 48.648438 13.714844 48.648438 14.148438 C 47.816406 14.148438 46.984375 14.148438 46.148438 14.148438 C 46.117188 15.234375 46.152344 16.300781 46.25 17.351562 Z M 46.25 17.351562 "/>
<path style=" stroke:none;fill-rule:evenodd;fill:rgb(99.607843%,93.72549%,74.901961%);fill-opacity:1;" d="M 53.949219 14.148438 C 53.949219 13.714844 53.949219 13.285156 53.949219 12.851562 C 52.484375 12.851562 51.015625 12.851562 49.550781 12.851562 C 49.550781 16.484375 49.550781 20.117188 49.550781 23.75 C 49.449219 20.101562 49.417969 16.433594 49.449219 12.75 C 50.984375 12.75 52.515625 12.75 54.050781 12.75 C 54.082031 13.234375 54.046875 13.703125 53.949219 14.148438 Z M 53.949219 14.148438 "/>
<path style=" stroke:none;fill-rule:evenodd;fill:rgb(100%,99.607843%,99.607843%);fill-opacity:1;" d="M 53.949219 14.148438 C 53.125 14.117188 52.308594 14.152344 51.5 14.25 C 51.449219 15.28125 51.433594 16.316406 51.449219 17.351562 C 52.117188 17.351562 52.785156 17.351562 53.449219 17.351562 C 53.449219 17.816406 53.449219 18.285156 53.449219 18.75 C 52.785156 18.75 52.117188 18.75 51.449219 18.75 C 51.449219 20.417969 51.449219 22.082031 51.449219 23.75 C 50.816406 23.75 50.183594 23.75 49.550781 23.75 C 49.550781 20.117188 49.550781 16.484375 49.550781 12.851562 C 51.015625 12.851562 52.484375 12.851562 53.949219 12.851562 C 53.949219 13.285156 53.949219 13.714844 53.949219 14.148438 Z M 53.949219 14.148438 "/>
<path style=" stroke:none;fill-rule:evenodd;fill:rgb(99.607843%,89.019608%,56.078431%);fill-opacity:1;" d="M 65.351562 12.851562 C 64.285156 12.851562 63.214844 12.851562 62.148438 12.851562 C 62.148438 16.484375 62.148438 20.117188 62.148438 23.75 C 62.050781 20.101562 62.015625 16.433594 62.050781 12.75 C 63.167969 12.71875 64.269531 12.75 65.351562 12.851562 Z M 65.351562 12.851562 "/>
<path style=" stroke:none;fill-rule:evenodd;fill:rgb(100%,99.607843%,98.823529%);fill-opacity:1;" d="M 65.351562 12.851562 C 67.230469 12.898438 68.164062 13.863281 68.148438 15.75 C 68.121094 16.464844 67.9375 17.128906 67.601562 17.75 C 67.328125 17.992188 67.078125 18.242188 66.851562 18.5 C 67.328125 20.246094 67.792969 21.996094 68.25 23.75 C 67.582031 23.75 66.917969 23.75 66.25 23.75 C 65.851562 22.082031 65.449219 20.417969 65.050781 18.75 C 64.75 18.75 64.449219 18.75 64.148438 18.75 C 64.148438 20.417969 64.148438 22.082031 64.148438 23.75 C 63.484375 23.75 62.816406 23.75 62.148438 23.75 C 62.148438 20.117188 62.148438 16.484375 62.148438 12.851562 C 63.214844 12.851562 64.285156 12.851562 65.351562 12.851562 Z M 65.351562 12.851562 "/>
<path style=" stroke:none;fill-rule:evenodd;fill:rgb(100%,99.607843%,99.215686%);fill-opacity:1;" d="M 69.351562 12.75 C 70.449219 12.734375 71.550781 12.75 72.648438 12.800781 C 74.199219 12.847656 75.082031 13.632812 75.300781 15.148438 C 75.367188 17.183594 75.367188 19.214844 75.300781 21.25 C 75.148438 22.734375 74.332031 23.550781 72.851562 23.699219 C 71.683594 23.75 70.515625 23.765625 69.351562 23.75 C 69.351562 20.082031 69.351562 16.417969 69.351562 12.75 Z M 69.351562 12.75 "/>
<path style=" stroke:none;fill-rule:evenodd;fill:rgb(100%,99.607843%,98.823529%);fill-opacity:1;" d="M 78.050781 12.75 C 78.75 12.75 79.449219 12.75 80.148438 12.75 C 80.894531 16.414062 81.628906 20.082031 82.351562 23.75 C 81.714844 23.75 81.082031 23.75 80.449219 23.75 C 80.347656 22.949219 80.230469 22.152344 80.101562 21.351562 C 79.460938 21.253906 78.808594 21.21875 78.148438 21.25 C 78.027344 22.085938 77.894531 22.917969 77.75 23.75 C 77.117188 23.75 76.484375 23.75 75.851562 23.75 C 76.570312 20.082031 77.304688 16.414062 78.050781 12.75 Z M 78.050781 12.75 "/>
<path style=" stroke:none;fill-rule:evenodd;fill:rgb(99.607843%,93.72549%,75.686275%);fill-opacity:1;" d="M 86.550781 12.851562 C 85.449219 12.851562 84.351562 12.851562 83.25 12.851562 C 83.25 16.484375 83.25 20.117188 83.25 23.75 C 83.148438 20.101562 83.117188 16.433594 83.148438 12.75 C 84.300781 12.71875 85.433594 12.75 86.550781 12.851562 Z M 86.550781 12.851562 "/>
<path style=" stroke:none;fill-rule:evenodd;fill:rgb(100%,99.607843%,99.215686%);fill-opacity:1;" d="M 86.550781 12.851562 C 87.742188 12.886719 88.558594 13.453125 89 14.550781 C 89.085938 15.289062 89.050781 16.023438 88.898438 16.75 C 88.644531 17.355469 88.191406 17.738281 87.550781 17.898438 C 88.609375 18.125 89.226562 18.773438 89.398438 19.851562 C 89.550781 20.839844 89.386719 21.773438 88.898438 22.648438 C 88.464844 23.242188 87.878906 23.59375 87.148438 23.699219 C 85.851562 23.75 84.550781 23.765625 83.25 23.75 C 83.25 20.117188 83.25 16.484375 83.25 12.851562 C 84.351562 12.851562 85.449219 12.851562 86.550781 12.851562 Z M 86.550781 12.851562 "/>
<path style=" stroke:none;fill-rule:evenodd;fill:rgb(100%,99.607843%,99.215686%);fill-opacity:1;" d="M 90.449219 12.75 C 91.117188 12.75 91.785156 12.75 92.449219 12.75 C 92.449219 15.949219 92.449219 19.148438 92.449219 22.351562 C 93.316406 22.351562 94.183594 22.351562 95.050781 22.351562 C 95.050781 22.816406 95.050781 23.285156 95.050781 23.75 C 93.515625 23.75 91.984375 23.75 90.449219 23.75 C 90.449219 20.082031 90.449219 16.417969 90.449219 12.75 Z M 90.449219 12.75 "/>
<path style=" stroke:none;fill-rule:evenodd;fill:rgb(100%,99.607843%,99.215686%);fill-opacity:1;" d="M 95.851562 12.75 C 97.382812 12.75 98.917969 12.75 100.449219 12.75 C 100.449219 13.25 100.449219 13.75 100.449219 14.25 C 99.582031 14.25 98.714844 14.25 97.851562 14.25 C 97.851562 15.285156 97.851562 16.316406 97.851562 17.351562 C 98.515625 17.351562 99.183594 17.351562 99.851562 17.351562 C 99.851562 17.816406 99.851562 18.285156 99.851562 18.75 C 99.183594 18.75 98.515625 18.75 97.851562 18.75 C 97.851562 19.949219 97.851562 21.148438 97.851562 22.351562 C 98.714844 22.351562 99.582031 22.351562 100.449219 22.351562 C 100.449219 22.816406 100.449219 23.285156 100.449219 23.75 C 98.917969 23.75 97.382812 23.75 95.851562 23.75 C 95.851562 20.082031 95.851562 16.417969 95.851562 12.75 Z M 95.851562 12.75 "/>
<path style=" stroke:none;fill-rule:evenodd;fill:rgb(100%,99.607843%,98.823529%);fill-opacity:1;" d="M 106.050781 12.75 C 106.75 12.75 107.449219 12.75 108.148438 12.75 C 108.832031 16.394531 109.566406 20.027344 110.351562 23.648438 C 109.71875 23.75 109.085938 23.78125 108.449219 23.75 C 108.316406 22.917969 108.183594 22.085938 108.050781 21.25 C 107.390625 21.21875 106.742188 21.253906 106.101562 21.351562 C 105.949219 22.148438 105.835938 22.945312 105.75 23.75 C 105.117188 23.75 104.484375 23.75 103.851562 23.75 C 104.523438 20.066406 105.257812 16.402344 106.050781 12.75 Z M 106.050781 12.75 "/>
<path style=" stroke:none;fill-rule:evenodd;fill:rgb(100%,99.607843%,99.215686%);fill-opacity:1;" d="M 115.050781 18.648438 C 115.078125 18.730469 115.128906 18.796875 115.199219 18.851562 C 115.25 16.816406 115.265625 14.785156 115.25 12.75 C 115.78125 12.75 116.316406 12.75 116.851562 12.75 C 116.851562 16.417969 116.851562 20.082031 116.851562 23.75 C 116.390625 23.78125 115.941406 23.746094 115.5 23.648438 C 114.652344 21.542969 113.785156 19.441406 112.898438 17.351562 C 112.851562 19.484375 112.832031 21.617188 112.851562 23.75 C 112.28125 23.75 111.71875 23.75 111.148438 23.75 C 111.148438 20.082031 111.148438 16.417969 111.148438 12.75 C 111.621094 12.71875 112.089844 12.75 112.550781 12.851562 C 113.386719 14.785156 114.21875 16.71875 115.050781 18.648438 Z M 115.050781 18.648438 "/>
<path style=" stroke:none;fill-rule:evenodd;fill:rgb(99.215686%,87.843137%,51.764706%);fill-opacity:1;" d="M 115.25 12.75 C 115.265625 14.785156 115.25 16.816406 115.199219 18.851562 C 115.128906 18.796875 115.078125 18.730469 115.050781 18.648438 C 115.117188 16.683594 115.183594 14.714844 115.25 12.75 Z M 115.25 12.75 "/>
<path style=" stroke:none;fill-rule:evenodd;fill:rgb(100%,99.607843%,99.215686%);fill-opacity:1;" d="M 118.25 12.75 C 119.351562 12.734375 120.449219 12.75 121.550781 12.800781 C 123.011719 12.886719 123.898438 13.636719 124.199219 15.050781 C 124.265625 17.082031 124.265625 19.117188 124.199219 21.148438 C 124.09375 22.683594 123.273438 23.535156 121.75 23.699219 C 120.585938 23.75 119.417969 23.765625 118.25 23.75 C 118.25 20.082031 118.25 16.417969 118.25 12.75 Z M 118.25 12.75 "/>
<path style=" stroke:none;fill-rule:evenodd;fill:rgb(98.823529%,76.470588%,5.882353%);fill-opacity:1;" d="M 57.25 14.148438 C 57.628906 14.125 57.992188 14.175781 58.351562 14.300781 C 58.582031 14.410156 58.730469 14.59375 58.800781 14.851562 C 58.867188 17.117188 58.867188 19.382812 58.800781 21.648438 C 58.402344 22.414062 57.820312 22.597656 57.050781 22.199219 C 56.839844 21.996094 56.722656 21.746094 56.699219 21.449219 C 56.632812 19.285156 56.632812 17.117188 56.699219 14.949219 C 56.761719 14.589844 56.945312 14.324219 57.25 14.148438 Z M 57.25 14.148438 "/>
<path style=" stroke:none;fill-rule:evenodd;fill:rgb(98.823529%,76.862745%,9.411765%);fill-opacity:1;" d="M 64.148438 14.148438 C 65.941406 14.0625 66.589844 14.894531 66.101562 16.648438 C 65.960938 17.121094 65.644531 17.371094 65.148438 17.398438 C 64.816406 17.449219 64.484375 17.464844 64.148438 17.449219 C 64.148438 16.351562 64.148438 15.25 64.148438 14.148438 Z M 64.148438 14.148438 "/>
<path style=" stroke:none;fill-rule:evenodd;fill:rgb(98.823529%,76.470588%,7.058824%);fill-opacity:1;" d="M 71.351562 14.25 C 71.785156 14.234375 72.21875 14.25 72.648438 14.300781 C 73.050781 14.488281 73.269531 14.804688 73.300781 15.25 C 73.316406 16.25 73.332031 17.25 73.351562 18.25 C 73.363281 19.390625 73.3125 20.523438 73.199219 21.648438 C 73.132812 21.90625 72.980469 22.089844 72.75 22.199219 C 72.292969 22.324219 71.824219 22.371094 71.351562 22.351562 C 71.351562 19.648438 71.351562 16.949219 71.351562 14.25 Z M 71.351562 14.25 "/>
<path style=" stroke:none;fill-rule:evenodd;fill:rgb(98.823529%,77.254902%,11.372549%);fill-opacity:1;" d="M 85.148438 14.25 C 87.023438 13.972656 87.707031 14.738281 87.199219 16.550781 C 87.042969 16.871094 86.792969 17.089844 86.449219 17.199219 C 86.019531 17.25 85.585938 17.265625 85.148438 17.25 C 85.148438 16.25 85.148438 15.25 85.148438 14.25 Z M 85.148438 14.25 "/>
<path style=" stroke:none;fill-rule:evenodd;fill:rgb(98.823529%,76.470588%,7.058824%);fill-opacity:1;" d="M 120.25 14.25 C 120.757812 14.226562 121.257812 14.273438 121.75 14.398438 C 122.046875 14.644531 122.195312 14.960938 122.199219 15.351562 C 122.292969 17.453125 122.261719 19.554688 122.101562 21.648438 C 121.988281 21.863281 121.839844 22.046875 121.648438 22.199219 C 121.191406 22.324219 120.726562 22.371094 120.25 22.351562 C 120.25 19.648438 120.25 16.949219 120.25 14.25 Z M 120.25 14.25 "/>
<path style=" stroke:none;fill-rule:evenodd;fill:rgb(98.823529%,77.254902%,10.980392%);fill-opacity:1;" d="M 107.75 19.648438 C 107.578125 19.78125 107.359375 19.847656 107.101562 19.851562 C 106.839844 19.847656 106.621094 19.78125 106.449219 19.648438 C 106.621094 18.308594 106.839844 16.972656 107.101562 15.648438 C 107.347656 16.980469 107.566406 18.3125 107.75 19.648438 Z M 107.75 19.648438 "/>
<path style=" stroke:none;fill-rule:evenodd;fill:rgb(98.823529%,77.647059%,14.509804%);fill-opacity:1;" d="M 79.050781 15.550781 C 79.378906 16.988281 79.644531 18.457031 79.851562 19.949219 C 79.382812 19.949219 78.917969 19.949219 78.449219 19.949219 C 78.648438 18.484375 78.851562 17.015625 79.050781 15.550781 Z M 79.050781 15.550781 "/>
<path style=" stroke:none;fill-rule:evenodd;fill:rgb(98.823529%,77.647059%,14.901961%);fill-opacity:1;" d="M 40.050781 15.648438 C 40.113281 15.660156 40.160156 15.695312 40.199219 15.75 C 40.40625 17.152344 40.621094 18.550781 40.851562 19.949219 C 40.382812 19.949219 39.917969 19.949219 39.449219 19.949219 C 39.660156 18.519531 39.859375 17.085938 40.050781 15.648438 Z M 40.050781 15.648438 "/>
<path style=" stroke:none;fill-rule:evenodd;fill:rgb(99.607843%,87.843137%,51.764706%);fill-opacity:1;" d="M 12.050781 16.949219 C 14.648438 16.949219 17.25 16.949219 19.851562 16.949219 C 19.875 17.078125 19.839844 17.179688 19.75 17.25 C 17.203125 17.082031 14.636719 16.984375 12.050781 16.949219 Z M 12.050781 16.949219 "/>
<path style=" stroke:none;fill-rule:evenodd;fill:rgb(98.823529%,77.254902%,11.764706%);fill-opacity:1;" d="M 85.148438 18.648438 C 87.148438 18.539062 87.898438 19.472656 87.398438 21.449219 C 87.238281 21.910156 86.921875 22.191406 86.449219 22.300781 C 86.019531 22.351562 85.585938 22.367188 85.148438 22.351562 C 85.148438 21.117188 85.148438 19.882812 85.148438 18.648438 Z M 85.148438 18.648438 "/>
<path style=" stroke:none;fill-rule:evenodd;fill:rgb(99.607843%,88.627451%,54.117647%);fill-opacity:1;" d="M 106.449219 19.648438 C 106.621094 19.78125 106.839844 19.847656 107.101562 19.851562 C 107.359375 19.847656 107.578125 19.78125 107.75 19.648438 C 107.839844 19.722656 107.875 19.820312 107.851562 19.949219 C 107.351562 19.949219 106.851562 19.949219 106.351562 19.949219 C 106.324219 19.820312 106.359375 19.722656 106.449219 19.648438 Z M 106.449219 19.648438 "/>
<path style=" stroke:none;fill-rule:evenodd;fill:rgb(100%,99.607843%,99.215686%);fill-opacity:1;" d="M 39.75 30.550781 C 40.625 30.464844 41.460938 30.613281 42.25 31 C 42.820312 31.492188 43.171875 32.109375 43.300781 32.851562 C 43.351562 33.449219 43.367188 34.050781 43.351562 34.648438 C 42.714844 34.648438 42.082031 34.648438 41.449219 34.648438 C 41.472656 33.945312 41.421875 33.246094 41.300781 32.550781 C 40.613281 31.851562 39.980469 31.882812 39.398438 32.648438 C 39.242188 34.78125 39.207031 36.914062 39.300781 39.050781 C 39.363281 40.140625 39.914062 40.523438 40.949219 40.199219 C 41.1875 40.003906 41.339844 39.753906 41.398438 39.449219 C 41.449219 38.816406 41.464844 38.183594 41.449219 37.550781 C 42.082031 37.550781 42.714844 37.550781 43.351562 37.550781 C 43.441406 38.621094 43.292969 39.65625 42.898438 40.648438 C 42.433594 41.328125 41.78125 41.710938 40.949219 41.800781 C 38.835938 42.054688 37.621094 41.136719 37.300781 39.050781 C 37.234375 37.082031 37.234375 35.117188 37.300781 33.148438 C 37.492188 31.675781 38.308594 30.808594 39.75 30.550781 Z M 39.75 30.550781 "/>
<path style=" stroke:none;fill-rule:evenodd;fill:rgb(100%,99.607843%,98.823529%);fill-opacity:1;" d="M 100.648438 36.148438 C 101.617188 36.148438 102.582031 36.148438 103.550781 36.148438 C 103.550781 37.984375 103.550781 39.816406 103.550781 41.648438 C 103.117188 41.648438 102.683594 41.648438 102.25 41.648438 C 102.28125 41.34375 102.246094 41.042969 102.148438 40.75 C 101.445312 41.8125 100.480469 42.128906 99.25 41.699219 C 98.707031 41.539062 98.292969 41.222656 98 40.75 C 97.679688 40.121094 97.480469 39.453125 97.398438 38.75 C 97.308594 36.847656 97.339844 34.945312 97.5 33.050781 C 97.644531 31.609375 98.425781 30.792969 99.851562 30.601562 C 102.570312 30.371094 103.804688 31.621094 103.550781 34.351562 C 102.917969 34.351562 102.28125 34.351562 101.648438 34.351562 C 101.667969 33.847656 101.648438 33.347656 101.601562 32.851562 C 101.550781 32.398438 101.300781 32.148438 100.851562 32.101562 C 100.175781 31.945312 99.726562 32.195312 99.5 32.851562 C 99.402344 35.121094 99.4375 37.386719 99.601562 39.648438 C 99.769531 40.101562 100.101562 40.335938 100.601562 40.351562 C 101.09375 40.335938 101.429688 40.105469 101.601562 39.648438 C 101.828125 38.933594 101.894531 38.199219 101.800781 37.449219 C 101.425781 37.355469 101.042969 37.320312 100.648438 37.351562 C 100.648438 36.949219 100.648438 36.550781 100.648438 36.148438 Z M 100.648438 36.148438 "/>
<path style=" stroke:none;fill-rule:evenodd;fill:rgb(99.215686%,87.843137%,51.372549%);fill-opacity:1;" d="M 105.949219 30.75 C 105.332031 30.71875 104.730469 30.75 104.148438 30.851562 C 104.097656 30.84375 104.0625 30.8125 104.050781 30.75 C 104.699219 30.617188 105.332031 30.617188 105.949219 30.75 Z M 105.949219 30.75 "/>
<path style=" stroke:none;fill-rule:evenodd;fill:rgb(100%,99.607843%,99.607843%);fill-opacity:1;" d="M 44.449219 30.75 C 45.117188 30.75 45.785156 30.75 46.449219 30.75 C 46.449219 33.917969 46.449219 37.082031 46.449219 40.25 C 47.316406 40.25 48.183594 40.25 49.050781 40.25 C 49.050781 40.714844 49.050781 41.183594 49.050781 41.648438 C 47.515625 41.648438 45.984375 41.648438 44.449219 41.648438 C 44.449219 38.015625 44.449219 34.382812 44.449219 30.75 Z M 44.449219 30.75 "/>
<path style=" stroke:none;fill-rule:evenodd;fill:rgb(100%,99.607843%,99.607843%);fill-opacity:1;" d="M 51.851562 40.25 C 52.699219 40.347656 53.566406 40.382812 54.449219 40.351562 C 54.449219 40.785156 54.449219 41.214844 54.449219 41.648438 C 52.917969 41.648438 51.382812 41.648438 49.851562 41.648438 C 49.851562 38.015625 49.851562 34.382812 49.851562 30.75 C 51.382812 30.75 52.917969 30.75 54.449219 30.75 C 54.449219 31.214844 54.449219 31.683594 54.449219 32.148438 C 53.582031 32.148438 52.714844 32.148438 51.851562 32.148438 C 51.851562 33.183594 51.851562 34.214844 51.851562 35.25 C 52.550781 35.25 53.25 35.25 53.949219 35.25 C 53.949219 35.714844 53.949219 36.183594 53.949219 36.648438 C 53.25 36.648438 52.550781 36.648438 51.851562 36.648438 C 51.851562 37.851562 51.851562 39.050781 51.851562 40.25 Z M 51.851562 40.25 "/>
<path style=" stroke:none;fill-rule:evenodd;fill:rgb(100%,99.607843%,99.215686%);fill-opacity:1;" d="M 56.949219 30.75 C 57.683594 30.75 58.417969 30.75 59.148438 30.75 C 59.820312 34.363281 60.554688 37.964844 61.351562 41.550781 C 60.714844 41.683594 60.082031 41.683594 59.449219 41.550781 C 59.296875 40.753906 59.160156 39.953125 59.050781 39.148438 C 58.414062 39.117188 57.78125 39.152344 57.148438 39.25 C 56.980469 40.011719 56.828125 40.777344 56.699219 41.550781 C 56.09375 41.648438 55.476562 41.679688 54.851562 41.648438 C 55.5625 38.019531 56.261719 34.386719 56.949219 30.75 Z M 56.949219 30.75 "/>
<path style=" stroke:none;fill-rule:evenodd;fill:rgb(100%,99.607843%,99.607843%);fill-opacity:1;" d="M 66.050781 36.648438 C 66.054688 36.703125 66.089844 36.738281 66.148438 36.75 C 66.25 34.75 66.285156 32.75 66.25 30.75 C 66.785156 30.75 67.316406 30.75 67.851562 30.75 C 67.851562 34.382812 67.851562 38.015625 67.851562 41.648438 C 67.382812 41.648438 66.917969 41.648438 66.449219 41.648438 C 65.65625 39.53125 64.808594 37.429688 63.898438 35.351562 C 63.851562 37.449219 63.832031 39.550781 63.851562 41.648438 C 63.285156 41.648438 62.714844 41.648438 62.148438 41.648438 C 62.148438 38.015625 62.148438 34.382812 62.148438 30.75 C 62.644531 30.71875 63.125 30.753906 63.601562 30.851562 C 64.445312 32.773438 65.261719 34.707031 66.050781 36.648438 Z M 66.050781 36.648438 "/>
<path style=" stroke:none;fill-rule:evenodd;fill:rgb(99.607843%,92.941176%,71.764706%);fill-opacity:1;" d="M 67.851562 30.75 C 67.316406 30.75 66.785156 30.75 66.25 30.75 C 66.285156 32.75 66.25 34.75 66.148438 36.75 C 66.089844 36.738281 66.054688 36.703125 66.050781 36.648438 C 66.148438 34.667969 66.183594 32.667969 66.148438 30.648438 C 66.734375 30.617188 67.300781 30.652344 67.851562 30.75 Z M 67.851562 30.75 "/>
<path style=" stroke:none;fill-rule:evenodd;fill:rgb(100%,99.607843%,99.607843%);fill-opacity:1;" d="M 72.25 30.75 C 73.785156 30.75 75.316406 30.75 76.851562 30.75 C 76.851562 31.214844 76.851562 31.683594 76.851562 32.148438 C 75.984375 32.148438 75.117188 32.148438 74.25 32.148438 C 74.25 33.183594 74.25 34.214844 74.25 35.25 C 74.917969 35.25 75.582031 35.25 76.25 35.25 C 76.25 35.714844 76.25 36.183594 76.25 36.648438 C 75.582031 36.648438 74.917969 36.648438 74.25 36.648438 C 74.25 37.851562 74.25 39.050781 74.25 40.25 C 75.117188 40.25 75.984375 40.25 76.851562 40.25 C 76.851562 40.714844 76.851562 41.183594 76.851562 41.648438 C 75.316406 41.648438 73.785156 41.648438 72.25 41.648438 C 72.25 38.015625 72.25 34.382812 72.25 30.75 Z M 72.25 30.75 "/>
<path style=" stroke:none;fill-rule:evenodd;fill:rgb(100%,99.607843%,99.607843%);fill-opacity:1;" d="M 81.648438 36.550781 C 81.679688 36.628906 81.726562 36.695312 81.800781 36.75 C 81.851562 34.75 81.867188 32.75 81.851562 30.75 C 82.382812 30.75 82.917969 30.75 83.449219 30.75 C 83.449219 34.382812 83.449219 38.015625 83.449219 41.648438 C 82.988281 41.679688 82.539062 41.648438 82.101562 41.550781 C 81.234375 39.484375 80.367188 37.417969 79.5 35.351562 C 79.449219 37.449219 79.433594 39.550781 79.449219 41.648438 C 78.882812 41.648438 78.316406 41.648438 77.75 41.648438 C 77.75 38.015625 77.75 34.382812 77.75 30.75 C 78.242188 30.71875 78.726562 30.753906 79.199219 30.851562 C 80.019531 32.753906 80.835938 34.652344 81.648438 36.550781 Z M 81.648438 36.550781 "/>
<path style=" stroke:none;fill-rule:evenodd;fill:rgb(99.215686%,87.843137%,51.764706%);fill-opacity:1;" d="M 81.851562 30.75 C 81.867188 32.75 81.851562 34.75 81.800781 36.75 C 81.726562 36.695312 81.679688 36.628906 81.648438 36.550781 C 81.714844 34.617188 81.785156 32.683594 81.851562 30.75 Z M 81.851562 30.75 "/>
<path style=" stroke:none;fill-rule:evenodd;fill:rgb(100%,99.607843%,99.607843%);fill-opacity:1;" d="M 84.851562 30.75 C 86.351562 30.75 87.851562 30.75 89.351562 30.75 C 89.351562 31.183594 89.351562 31.617188 89.351562 32.050781 C 88.5 32.015625 87.664062 32.050781 86.851562 32.148438 C 86.851562 33.183594 86.851562 34.214844 86.851562 35.25 C 87.515625 35.25 88.183594 35.25 88.851562 35.25 C 88.851562 35.714844 88.851562 36.183594 88.851562 36.648438 C 88.183594 36.648438 87.515625 36.648438 86.851562 36.648438 C 86.851562 37.851562 86.851562 39.050781 86.851562 40.25 C 87.714844 40.25 88.582031 40.25 89.449219 40.25 C 89.449219 40.714844 89.449219 41.183594 89.449219 41.648438 C 87.917969 41.648438 86.382812 41.648438 84.851562 41.648438 C 84.851562 38.015625 84.851562 34.382812 84.851562 30.75 Z M 84.851562 30.75 "/>
<path style=" stroke:none;fill-rule:evenodd;fill:rgb(100%,99.607843%,99.215686%);fill-opacity:1;" d="M 90.351562 30.75 C 91.582031 30.734375 92.816406 30.75 94.050781 30.800781 C 95.3125 30.929688 96.0625 31.613281 96.300781 32.851562 C 96.476562 33.878906 96.308594 34.84375 95.800781 35.75 C 95.515625 35.9375 95.265625 36.152344 95.050781 36.398438 C 95.566406 38.132812 96.066406 39.867188 96.550781 41.601562 C 95.859375 41.679688 95.175781 41.664062 94.5 41.550781 C 94.066406 39.917969 93.652344 38.285156 93.25 36.648438 C 92.949219 36.648438 92.648438 36.648438 92.351562 36.648438 C 92.351562 38.316406 92.351562 39.984375 92.351562 41.648438 C 91.683594 41.648438 91.015625 41.648438 90.351562 41.648438 C 90.351562 38.015625 90.351562 34.382812 90.351562 30.75 Z M 90.351562 30.75 "/>
<path style=" stroke:none;fill-rule:evenodd;fill:rgb(100%,99.607843%,99.215686%);fill-opacity:1;" d="M 105.949219 30.75 C 106.410156 32.144531 106.859375 33.542969 107.300781 34.949219 C 107.726562 33.550781 108.144531 32.152344 108.550781 30.75 C 109.183594 30.734375 109.816406 30.75 110.449219 30.800781 C 109.695312 32.933594 108.976562 35.085938 108.300781 37.25 C 108.25 38.714844 108.234375 40.183594 108.25 41.648438 C 107.617188 41.648438 106.984375 41.648438 106.351562 41.648438 C 106.367188 40.25 106.351562 38.847656 106.300781 37.449219 C 105.59375 35.246094 104.878906 33.046875 104.148438 30.851562 C 104.730469 30.75 105.332031 30.71875 105.949219 30.75 Z M 105.949219 30.75 "/>
<path style=" stroke:none;fill-rule:evenodd;fill:rgb(99.607843%,91.764706%,67.45098%);fill-opacity:1;" d="M 84.851562 30.75 C 86.367188 30.652344 87.898438 30.617188 89.449219 30.648438 C 89.449219 31.148438 89.449219 31.648438 89.449219 32.148438 C 88.582031 32.148438 87.714844 32.148438 86.851562 32.148438 C 87.664062 32.050781 88.5 32.015625 89.351562 32.050781 C 89.351562 31.617188 89.351562 31.183594 89.351562 30.75 C 87.851562 30.75 86.351562 30.75 84.851562 30.75 Z M 84.851562 30.75 "/>
<path style=" stroke:none;fill-rule:evenodd;fill:rgb(98.823529%,76.862745%,8.627451%);fill-opacity:1;" d="M 92.351562 32.050781 C 94.226562 31.964844 94.875 32.828125 94.300781 34.648438 C 94.132812 35.015625 93.851562 35.234375 93.449219 35.300781 C 93.085938 35.351562 92.71875 35.367188 92.351562 35.351562 C 92.351562 34.25 92.351562 33.148438 92.351562 32.050781 Z M 92.351562 32.050781 "/>
<path style=" stroke:none;fill-rule:evenodd;fill:rgb(98.823529%,77.647059%,13.333333%);fill-opacity:1;" d="M 58.050781 33.449219 C 58.347656 34.894531 58.578125 36.359375 58.75 37.851562 C 58.285156 37.851562 57.816406 37.851562 57.351562 37.851562 C 57.582031 36.382812 57.816406 34.914062 58.050781 33.449219 Z M 58.050781 33.449219 "/>
<path style=" stroke:none;fill-rule:evenodd;fill:rgb(99.607843%,92.156863%,69.803922%);fill-opacity:1;" d="M 100.648438 36.148438 C 101.632812 36.050781 102.632812 36.015625 103.648438 36.050781 C 103.683594 37.933594 103.648438 39.800781 103.550781 41.648438 C 103.550781 39.816406 103.550781 37.984375 103.550781 36.148438 C 102.582031 36.148438 101.617188 36.148438 100.648438 36.148438 Z M 100.648438 36.148438 "/>
<path style=" stroke:none;fill-rule:evenodd;fill:rgb(99.607843%,92.54902%,70.196078%);fill-opacity:1;" d="M 51.851562 40.25 C 52.75 40.25 53.648438 40.25 54.550781 40.25 C 54.582031 40.734375 54.546875 41.203125 54.449219 41.648438 C 54.449219 41.214844 54.449219 40.785156 54.449219 40.351562 C 53.566406 40.382812 52.699219 40.347656 51.851562 40.25 Z M 51.851562 40.25 "/>
<path style=" stroke:none;fill-rule:evenodd;fill:rgb(100%,99.607843%,99.215686%);fill-opacity:1;" d="M 74.449219 56.449219 C 75.566406 56.300781 76.351562 56.734375 76.800781 57.75 C 76.867188 61.214844 76.867188 64.683594 76.800781 68.148438 C 76.277344 69.449219 75.359375 69.832031 74.050781 69.300781 C 73.605469 68.988281 73.324219 68.574219 73.199219 68.050781 C 73.132812 64.683594 73.132812 61.316406 73.199219 57.949219 C 73.347656 57.21875 73.765625 56.71875 74.449219 56.449219 Z M 74.449219 56.449219 "/>
<path style=" stroke:none;fill-rule:evenodd;fill:rgb(100%,99.607843%,99.215686%);fill-opacity:1;" d="M 56.148438 61.351562 C 56.957031 61.234375 57.640625 61.46875 58.199219 62.050781 C 59.808594 64.898438 61.441406 67.734375 63.101562 70.550781 C 63.445312 72.371094 62.695312 73.222656 60.851562 73.101562 C 60.523438 72.980469 60.242188 72.796875 60 72.550781 C 58.273438 69.597656 56.574219 66.632812 54.898438 63.648438 C 54.746094 62.558594 55.164062 61.789062 56.148438 61.351562 Z M 56.148438 61.351562 "/>
<path style=" stroke:none;fill-rule:evenodd;fill:rgb(100%,99.607843%,99.215686%);fill-opacity:1;" d="M 92.949219 61.25 C 94.675781 61.363281 95.324219 62.265625 94.898438 63.949219 C 93.300781 66.75 91.699219 69.550781 90.101562 72.351562 C 89.460938 73.09375 88.679688 73.3125 87.75 73 C 86.890625 72.488281 86.574219 71.738281 86.800781 70.75 C 88.464844 67.816406 90.132812 64.882812 91.800781 61.949219 C 92.125 61.605469 92.507812 61.371094 92.949219 61.25 Z M 92.949219 61.25 "/>
<path style=" stroke:none;fill-rule:evenodd;fill:rgb(100%,99.607843%,99.607843%);fill-opacity:1;" d="M 72.851562 73.050781 C 82.144531 72.585938 89.261719 76.253906 94.199219 84.050781 C 98.066406 91.3125 98.132812 98.613281 94.398438 105.949219 C 90.59375 112.433594 84.941406 116.183594 77.449219 117.199219 C 69.707031 117.851562 63.257812 115.300781 58.101562 109.550781 C 53.164062 103.328125 51.730469 96.363281 53.800781 88.648438 C 57.03125 79.628906 63.378906 74.429688 72.851562 73.050781 Z M 72.851562 73.050781 "/>
<path style=" stroke:none;fill-rule:evenodd;fill:rgb(100%,99.607843%,99.215686%);fill-opacity:1;" d="M 106.449219 74.851562 C 108.019531 74.835938 108.734375 75.601562 108.601562 77.148438 C 108.507812 77.519531 108.324219 77.835938 108.050781 78.101562 C 105.082031 79.800781 102.117188 81.5 99.148438 83.199219 C 97.480469 83.296875 96.730469 82.511719 96.898438 80.851562 C 96.996094 80.453125 97.214844 80.136719 97.550781 79.898438 C 100.511719 78.183594 103.480469 76.5 106.449219 74.851562 Z M 106.449219 74.851562 "/>
<path style=" stroke:none;fill-rule:evenodd;fill:rgb(100%,99.607843%,99.215686%);fill-opacity:1;" d="M 42.550781 74.949219 C 43.191406 74.871094 43.792969 74.988281 44.351562 75.300781 C 47.101562 76.925781 49.867188 78.523438 52.648438 80.101562 C 53.214844 80.828125 53.296875 81.609375 52.898438 82.449219 C 52.347656 83.15625 51.632812 83.40625 50.75 83.199219 C 47.765625 81.523438 44.800781 79.824219 41.851562 78.101562 C 40.992188 76.785156 41.226562 75.734375 42.550781 74.949219 Z M 42.550781 74.949219 "/>
<path style=" stroke:none;fill-rule:evenodd;fill:rgb(98.823529%,76.470588%,6.666667%);fill-opacity:1;" d="M 74.550781 80.25 C 75.503906 80.121094 76.1875 80.488281 76.601562 81.351562 C 76.667969 84.117188 76.667969 86.882812 76.601562 89.648438 C 76.070312 90.855469 75.222656 91.171875 74.050781 90.601562 C 73.714844 90.363281 73.496094 90.046875 73.398438 89.648438 C 73.332031 86.917969 73.332031 84.183594 73.398438 81.449219 C 73.507812 81.199219 73.640625 80.96875 73.800781 80.75 C 74.046875 80.570312 74.296875 80.402344 74.550781 80.25 Z M 74.550781 80.25 "/>
<path style=" stroke:none;fill-rule:evenodd;fill:rgb(98.823529%,76.470588%,6.27451%);fill-opacity:1;" d="M 71.25 84.050781 C 71.351562 84.050781 71.449219 84.050781 71.550781 84.050781 C 71.582031 85.484375 71.550781 86.917969 71.449219 88.351562 C 68.082031 90.421875 66.867188 93.386719 67.800781 97.25 C 69.214844 100.929688 71.898438 102.679688 75.851562 102.5 C 79.558594 101.886719 81.777344 99.738281 82.5 96.050781 C 82.78125 92.652344 81.464844 90.085938 78.550781 88.351562 C 78.417969 86.917969 78.417969 85.484375 78.550781 84.050781 C 82.867188 85.617188 85.480469 88.648438 86.398438 93.148438 C 86.945312 98.875 84.664062 103.027344 79.550781 105.601562 C 74.398438 107.484375 69.949219 106.433594 66.199219 102.449219 C 63.546875 99.09375 62.847656 95.359375 64.101562 91.25 C 65.433594 87.796875 67.820312 85.398438 71.25 84.050781 Z M 71.25 84.050781 "/>
<path style=" stroke:none;fill-rule:evenodd;fill:rgb(100%,99.607843%,99.215686%);fill-opacity:1;" d="M 37.75 93.148438 C 41.25 93.132812 44.75 93.148438 48.25 93.199219 C 49.265625 93.617188 49.683594 94.367188 49.5 95.449219 C 49.304688 96.210938 48.824219 96.660156 48.050781 96.800781 C 44.648438 96.867188 41.25 96.867188 37.851562 96.800781 C 36.417969 96.121094 36.101562 95.105469 36.898438 93.75 C 37.171875 93.523438 37.457031 93.324219 37.75 93.148438 Z M 37.75 93.148438 "/>
<path style=" stroke:none;fill-rule:evenodd;fill:rgb(100%,99.607843%,99.215686%);fill-opacity:1;" d="M 101.75 93.148438 C 105.25 93.132812 108.75 93.148438 112.25 93.199219 C 113.65625 93.917969 113.921875 94.933594 113.050781 96.25 C 112.8125 96.535156 112.511719 96.71875 112.148438 96.800781 C 108.71875 96.867188 105.28125 96.867188 101.851562 96.800781 C 100.75 96.402344 100.300781 95.617188 100.5 94.449219 C 100.734375 93.832031 101.152344 93.398438 101.75 93.148438 Z M 101.75 93.148438 "/>
<path style=" stroke:none;fill-rule:evenodd;fill:rgb(100%,99.607843%,99.215686%);fill-opacity:1;" d="M 50.851562 106.75 C 52.550781 106.667969 53.300781 107.46875 53.101562 109.148438 C 52.980469 109.472656 52.796875 109.757812 52.550781 110 C 49.667969 111.691406 46.765625 113.359375 43.851562 115 C 42.824219 115.277344 42.042969 114.964844 41.5 114.050781 C 41.195312 113.230469 41.34375 112.515625 41.949219 111.898438 C 44.921875 110.179688 47.890625 108.464844 50.851562 106.75 Z M 50.851562 106.75 "/>
<path style=" stroke:none;fill-rule:evenodd;fill:rgb(100%,99.607843%,99.215686%);fill-opacity:1;" d="M 98.050781 106.75 C 98.484375 106.734375 98.917969 106.75 99.351562 106.800781 C 102.21875 108.433594 105.082031 110.066406 107.949219 111.699219 C 108.703125 112.433594 108.851562 113.285156 108.398438 114.25 C 107.878906 114.917969 107.195312 115.167969 106.351562 115 C 103.242188 113.304688 100.191406 111.523438 97.199219 109.648438 C 96.511719 108.378906 96.792969 107.410156 98.050781 106.75 Z M 98.050781 106.75 "/>
<path style=" stroke:none;fill-rule:evenodd;fill:rgb(100%,99.607843%,99.215686%);fill-opacity:1;" d="M 60.851562 116.851562 C 62.632812 116.683594 63.417969 117.484375 63.199219 119.25 C 61.535156 122.183594 59.867188 125.117188 58.199219 128.050781 C 57.460938 128.691406 56.644531 128.808594 55.75 128.398438 C 55.003906 127.761719 54.789062 126.980469 55.101562 126.050781 C 56.699219 123.25 58.300781 120.449219 59.898438 117.648438 C 60.175781 117.320312 60.492188 117.054688 60.851562 116.851562 Z M 60.851562 116.851562 "/>
<path style=" stroke:none;fill-rule:evenodd;fill:rgb(100%,99.607843%,99.215686%);fill-opacity:1;" d="M 87.949219 116.851562 C 88.808594 116.679688 89.523438 116.914062 90.101562 117.550781 C 91.707031 120.398438 93.339844 123.234375 95 126.050781 C 95.308594 126.921875 95.125 127.671875 94.449219 128.300781 C 93.535156 128.824219 92.6875 128.742188 91.898438 128.050781 C 90.15625 125.074219 88.457031 122.074219 86.800781 119.050781 C 86.683594 118.050781 87.066406 117.316406 87.949219 116.851562 Z M 87.949219 116.851562 "/>
<path style=" stroke:none;fill-rule:evenodd;fill:rgb(100%,99.607843%,99.215686%);fill-opacity:1;" d="M 74.449219 120.449219 C 75.582031 120.265625 76.363281 120.699219 76.800781 121.75 C 76.867188 125.21875 76.867188 128.683594 76.800781 132.148438 C 76.226562 133.507812 75.277344 133.855469 73.949219 133.199219 C 73.5625 132.90625 73.3125 132.523438 73.199219 132.050781 C 73.132812 128.683594 73.132812 125.316406 73.199219 121.949219 C 73.347656 121.21875 73.765625 120.71875 74.449219 120.449219 Z M 74.449219 120.449219 "/>
</g>
</svg>
