<?xml version="1.0" encoding="UTF-8"?>
<svg xmlns="http://www.w3.org/2000/svg" xmlns:xlink="http://www.w3.org/1999/xlink" width="150px" height="150px" viewBox="0 0 150 150" version="1.1">
<g id="surface1">
<path style=" stroke:none;fill-rule:evenodd;fill:rgb(63.529412%,9.803922%,25.882353%);fill-opacity:1;" d="M -0.0507812 -0.0507812 C 49.949219 -0.0507812 99.949219 -0.0507812 149.949219 -0.0507812 C 149.949219 49.949219 149.949219 99.949219 149.949219 149.949219 C 99.949219 149.949219 49.949219 149.949219 -0.0507812 149.949219 C -0.0507812 99.949219 -0.0507812 49.949219 -0.0507812 -0.0507812 Z M -0.0507812 -0.0507812 "/>
<path style=" stroke:none;fill-rule:evenodd;fill:rgb(99.607843%,99.607843%,99.607843%);fill-opacity:1;" d="M 17.75 12.449219 C 24.011719 12.128906 26.859375 15.09375 26.300781 21.351562 C 26.074219 23.421875 25.15625 25.105469 23.550781 26.398438 C 25.183594 27.367188 26.199219 28.785156 26.601562 30.648438 C 26.960938 32.722656 26.929688 34.789062 26.5 36.851562 C 25.621094 39.960938 23.574219 41.644531 20.351562 41.898438 C 18.78125 42.058594 17.246094 41.894531 15.75 41.398438 C 14.058594 40.675781 12.878906 39.460938 12.199219 37.75 C 11.582031 35.660156 11.382812 33.527344 11.601562 31.351562 C 11.910156 29.210938 12.960938 27.5625 14.75 26.398438 C 12.792969 24.699219 11.859375 22.550781 11.949219 19.949219 C 11.847656 15.84375 13.78125 13.34375 17.75 12.449219 Z M 17.75 12.449219 "/>
<path style=" stroke:none;fill-rule:evenodd;fill:rgb(99.607843%,98.823529%,98.823529%);fill-opacity:1;" d="M 56.050781 15.148438 C 56.050781 15.683594 56.050781 16.214844 56.050781 16.75 C 55.417969 16.75 54.785156 16.75 54.148438 16.75 C 54.191406 16.003906 54.144531 15.273438 54 14.550781 C 53.371094 13.996094 52.769531 14.027344 52.199219 14.648438 C 52.167969 14.851562 52.132812 15.050781 52.101562 15.25 C 52.035156 17.285156 52.035156 19.316406 52.101562 21.351562 C 52.234375 22.261719 52.753906 22.578125 53.648438 22.300781 C 53.800781 22.214844 53.917969 22.101562 54 21.949219 C 54.144531 21.195312 54.191406 20.429688 54.148438 19.648438 C 54.816406 19.648438 55.484375 19.648438 56.148438 19.648438 C 56.390625 23.261719 54.789062 24.546875 51.351562 23.5 C 50.585938 22.992188 50.171875 22.273438 50.101562 21.351562 C 50.035156 19.214844 50.035156 17.082031 50.101562 14.949219 C 50.628906 13.125 51.847656 12.375 53.75 12.699219 C 55.1875 12.886719 55.953125 13.703125 56.050781 15.148438 Z M 56.050781 15.148438 "/>
<path style=" stroke:none;fill-rule:evenodd;fill:rgb(99.215686%,98.431373%,98.823529%);fill-opacity:1;" d="M 89.351562 12.648438 C 90.425781 12.542969 91.425781 12.757812 92.351562 13.300781 C 92.9375 13.929688 93.253906 14.679688 93.300781 15.550781 C 93.367188 17.351562 93.367188 19.148438 93.300781 20.949219 C 93.273438 22.488281 92.523438 23.4375 91.050781 23.800781 C 89.039062 24.300781 87.722656 23.582031 87.101562 21.648438 C 86.941406 19.519531 86.910156 17.386719 87 15.25 C 87.183594 13.816406 87.96875 12.949219 89.351562 12.648438 Z M 89.351562 12.648438 "/>
<path style=" stroke:none;fill-rule:evenodd;fill:rgb(90.588235%,77.254902%,81.176471%);fill-opacity:1;" d="M 74.351562 14.25 C 74.351562 13.785156 74.351562 13.316406 74.351562 12.851562 C 72.515625 12.851562 70.683594 12.851562 68.851562 12.851562 C 68.851562 13.316406 68.851562 13.785156 68.851562 14.25 C 68.816406 14.25 68.785156 14.25 68.75 14.25 C 68.75 13.75 68.75 13.25 68.75 12.75 C 70.648438 12.75 72.550781 12.75 74.449219 12.75 C 74.480469 13.269531 74.449219 13.769531 74.351562 14.25 Z M 74.351562 14.25 "/>
<path style=" stroke:none;fill-rule:evenodd;fill:rgb(90.196078%,75.686275%,80%);fill-opacity:1;" d="M 77.550781 12.851562 C 78.097656 12.75 78.664062 12.71875 79.25 12.75 C 79.25 12.882812 79.25 13.015625 79.25 13.148438 C 79.160156 13.078125 79.125 12.980469 79.148438 12.851562 C 78.617188 12.851562 78.082031 12.851562 77.550781 12.851562 Z M 77.550781 12.851562 "/>
<path style=" stroke:none;fill-rule:evenodd;fill:rgb(90.196078%,76.078431%,80.392157%);fill-opacity:1;" d="M 105.75 12.851562 C 106.367188 12.71875 107 12.71875 107.648438 12.851562 C 107.636719 12.910156 107.605469 12.945312 107.550781 12.949219 C 106.96875 12.851562 106.367188 12.816406 105.75 12.851562 Z M 105.75 12.851562 "/>
<path style=" stroke:none;fill-rule:evenodd;fill:rgb(89.803922%,75.294118%,79.607843%);fill-opacity:1;" d="M 115.148438 12.949219 C 114.417969 12.816406 113.683594 12.816406 112.949219 12.949219 C 113.277344 12.816406 113.644531 12.75 114.050781 12.75 C 114.457031 12.75 114.824219 12.816406 115.148438 12.949219 Z M 115.148438 12.949219 "/>
<path style=" stroke:none;fill-rule:evenodd;fill:rgb(99.607843%,99.215686%,99.607843%);fill-opacity:1;" d="M 37.648438 12.75 C 38.75 12.734375 39.851562 12.75 40.949219 12.800781 C 42.394531 12.84375 43.277344 13.5625 43.601562 14.949219 C 43.667969 17.050781 43.667969 19.148438 43.601562 21.25 C 43.449219 22.734375 42.632812 23.550781 41.148438 23.699219 C 39.984375 23.75 38.816406 23.765625 37.648438 23.75 C 37.648438 20.082031 37.648438 16.417969 37.648438 12.75 Z M 37.648438 12.75 "/>
<path style=" stroke:none;fill-rule:evenodd;fill:rgb(90.588235%,77.254902%,81.176471%);fill-opacity:1;" d="M 49.351562 12.851562 C 47.851562 12.851562 46.351562 12.851562 44.851562 12.851562 C 44.851562 16.484375 44.851562 20.117188 44.851562 23.75 C 44.75 20.101562 44.71875 16.433594 44.75 12.75 C 46.300781 12.71875 47.835938 12.75 49.351562 12.851562 Z M 49.351562 12.851562 "/>
<path style=" stroke:none;fill-rule:evenodd;fill:rgb(99.607843%,99.607843%,99.607843%);fill-opacity:1;" d="M 49.351562 12.851562 C 49.351562 13.316406 49.351562 13.785156 49.351562 14.25 C 48.484375 14.25 47.617188 14.25 46.75 14.25 C 46.75 15.285156 46.75 16.316406 46.75 17.351562 C 47.449219 17.351562 48.148438 17.351562 48.851562 17.351562 C 48.851562 17.816406 48.851562 18.285156 48.851562 18.75 C 48.148438 18.75 47.449219 18.75 46.75 18.75 C 46.71875 19.96875 46.75 21.167969 46.851562 22.351562 C 47.664062 22.449219 48.5 22.484375 49.351562 22.449219 C 49.351562 22.882812 49.351562 23.316406 49.351562 23.75 C 47.851562 23.75 46.351562 23.75 44.851562 23.75 C 44.851562 20.117188 44.851562 16.484375 44.851562 12.851562 C 46.351562 12.851562 47.851562 12.851562 49.351562 12.851562 Z M 49.351562 12.851562 "/>
<path style=" stroke:none;fill-rule:evenodd;fill:rgb(99.607843%,99.215686%,99.215686%);fill-opacity:1;" d="M 57.148438 12.75 C 58.683594 12.75 60.214844 12.75 61.75 12.75 C 61.75 13.25 61.75 13.75 61.75 14.25 C 60.882812 14.25 60.015625 14.25 59.148438 14.25 C 59.148438 15.285156 59.148438 16.316406 59.148438 17.351562 C 59.816406 17.351562 60.484375 17.351562 61.148438 17.351562 C 61.148438 17.816406 61.148438 18.285156 61.148438 18.75 C 60.484375 18.75 59.816406 18.75 59.148438 18.75 C 59.148438 19.949219 59.148438 21.148438 59.148438 22.351562 C 60.015625 22.351562 60.882812 22.351562 61.75 22.351562 C 61.75 22.816406 61.75 23.285156 61.75 23.75 C 60.214844 23.75 58.683594 23.75 57.148438 23.75 C 57.148438 20.082031 57.148438 16.417969 57.148438 12.75 Z M 57.148438 12.75 "/>
<path style=" stroke:none;fill-rule:evenodd;fill:rgb(99.607843%,99.215686%,99.607843%);fill-opacity:1;" d="M 66.449219 18.648438 C 66.476562 18.730469 66.527344 18.796875 66.601562 18.851562 C 66.648438 16.816406 66.667969 14.785156 66.648438 12.75 C 67.183594 12.75 67.714844 12.75 68.25 12.75 C 68.25 16.417969 68.25 20.082031 68.25 23.75 C 67.789062 23.78125 67.339844 23.746094 66.898438 23.648438 C 66.082031 21.679688 65.265625 19.714844 64.449219 17.75 C 64.402344 17.652344 64.351562 17.550781 64.300781 17.449219 C 64.25 19.550781 64.234375 21.648438 64.25 23.75 C 63.683594 23.75 63.117188 23.75 62.550781 23.75 C 62.550781 20.082031 62.550781 16.417969 62.550781 12.75 C 63.042969 12.71875 63.527344 12.753906 64 12.851562 C 64.828125 14.78125 65.644531 16.714844 66.449219 18.648438 Z M 66.449219 18.648438 "/>
<path style=" stroke:none;fill-rule:evenodd;fill:rgb(81.960784%,54.901961%,62.745098%);fill-opacity:1;" d="M 66.648438 12.75 C 66.667969 14.785156 66.648438 16.816406 66.601562 18.851562 C 66.527344 18.796875 66.476562 18.730469 66.449219 18.648438 C 66.515625 16.683594 66.582031 14.714844 66.648438 12.75 Z M 66.648438 12.75 "/>
<path style=" stroke:none;fill-rule:evenodd;fill:rgb(99.607843%,100%,99.607843%);fill-opacity:1;" d="M 74.351562 14.25 C 73.785156 14.25 73.214844 14.25 72.648438 14.25 C 72.648438 17.417969 72.648438 20.582031 72.648438 23.75 C 71.984375 23.75 71.316406 23.75 70.648438 23.75 C 70.648438 20.582031 70.648438 17.417969 70.648438 14.25 C 70.050781 14.25 69.449219 14.25 68.851562 14.25 C 68.851562 13.785156 68.851562 13.316406 68.851562 12.851562 C 70.683594 12.851562 72.515625 12.851562 74.351562 12.851562 C 74.351562 13.316406 74.351562 13.785156 74.351562 14.25 Z M 74.351562 14.25 "/>
<path style=" stroke:none;fill-rule:evenodd;fill:rgb(99.215686%,98.823529%,98.823529%);fill-opacity:1;" d="M 77.550781 12.851562 C 78.082031 12.851562 78.617188 12.851562 79.148438 12.851562 C 79.125 12.980469 79.160156 13.078125 79.25 13.148438 C 79.515625 15.285156 79.800781 17.417969 80.101562 19.550781 C 80.445312 17.347656 80.8125 15.148438 81.199219 12.949219 C 81.652344 12.757812 82.136719 12.691406 82.648438 12.75 C 82.972656 15.058594 83.355469 17.359375 83.800781 19.648438 C 84.09375 17.347656 84.375 15.050781 84.648438 12.75 C 85.21875 12.71875 85.789062 12.75 86.351562 12.851562 C 85.800781 16.410156 85.285156 19.976562 84.800781 23.550781 C 84.28125 23.742188 83.730469 23.808594 83.148438 23.75 C 82.820312 21.425781 82.402344 19.125 81.898438 16.851562 C 81.472656 19.144531 81.089844 21.441406 80.75 23.75 C 80.183594 23.75 79.617188 23.75 79.050781 23.75 C 78.558594 20.117188 78.058594 16.480469 77.550781 12.851562 Z M 77.550781 12.851562 "/>
<path style=" stroke:none;fill-rule:evenodd;fill:rgb(83.137255%,58.431373%,65.882353%);fill-opacity:1;" d="M 97.648438 12.851562 C 96.582031 12.851562 95.515625 12.851562 94.449219 12.851562 C 94.449219 16.484375 94.449219 20.117188 94.449219 23.75 C 94.351562 20.101562 94.316406 16.433594 94.351562 12.75 C 95.46875 12.71875 96.566406 12.75 97.648438 12.851562 Z M 97.648438 12.851562 "/>
<path style=" stroke:none;fill-rule:evenodd;fill:rgb(99.607843%,98.823529%,98.823529%);fill-opacity:1;" d="M 97.648438 12.851562 C 99.144531 12.820312 100.058594 13.519531 100.398438 14.949219 C 100.691406 16.40625 100.273438 17.585938 99.148438 18.5 C 99.613281 20.246094 100.113281 21.980469 100.648438 23.699219 C 99.949219 23.75 99.25 23.765625 98.550781 23.75 C 98.148438 22.082031 97.75 20.417969 97.351562 18.75 C 97.050781 18.75 96.75 18.75 96.449219 18.75 C 96.449219 20.417969 96.449219 22.082031 96.449219 23.75 C 95.785156 23.75 95.117188 23.75 94.449219 23.75 C 94.449219 20.117188 94.449219 16.484375 94.449219 12.851562 C 95.515625 12.851562 96.582031 12.851562 97.648438 12.851562 Z M 97.648438 12.851562 "/>
<path style=" stroke:none;fill-rule:evenodd;fill:rgb(99.607843%,99.215686%,99.215686%);fill-opacity:1;" d="M 103.550781 12.75 C 103.53125 14.316406 103.550781 15.882812 103.601562 17.449219 C 103.652344 17.347656 103.699219 17.246094 103.75 17.148438 C 104.378906 15.691406 105.046875 14.257812 105.75 12.851562 C 106.367188 12.816406 106.96875 12.851562 107.550781 12.949219 C 106.898438 14.535156 106.230469 16.121094 105.550781 17.699219 C 106.285156 19.695312 107.054688 21.679688 107.851562 23.648438 C 107.160156 23.78125 106.476562 23.78125 105.800781 23.648438 C 105.199219 21.984375 104.601562 20.316406 104 18.648438 C 103.867188 18.851562 103.734375 19.050781 103.601562 19.25 C 103.550781 20.75 103.53125 22.25 103.550781 23.75 C 102.882812 23.75 102.21875 23.75 101.550781 23.75 C 101.550781 20.082031 101.550781 16.417969 101.550781 12.75 C 102.21875 12.75 102.882812 12.75 103.550781 12.75 Z M 103.550781 12.75 "/>
<path style=" stroke:none;fill-rule:evenodd;fill:rgb(72.54902%,32.941176%,44.705882%);fill-opacity:1;" d="M 103.550781 12.75 C 103.617188 14.214844 103.683594 15.683594 103.75 17.148438 C 103.699219 17.246094 103.652344 17.347656 103.601562 17.449219 C 103.550781 15.882812 103.53125 14.316406 103.550781 12.75 Z M 103.550781 12.75 "/>
<path style=" stroke:none;fill-rule:evenodd;fill:rgb(99.607843%,98.823529%,98.823529%);fill-opacity:1;" d="M 115.148438 12.949219 C 115.832031 16.527344 116.566406 20.09375 117.351562 23.648438 C 116.71875 23.75 116.085938 23.78125 115.449219 23.75 C 115.273438 22.925781 115.140625 22.089844 115.050781 21.25 C 114.382812 21.25 113.71875 21.25 113.050781 21.25 C 112.9375 22.082031 112.835938 22.914062 112.75 23.75 C 112.082031 23.765625 111.414062 23.75 110.75 23.699219 C 111.527344 20.128906 112.261719 16.542969 112.949219 12.949219 C 113.683594 12.816406 114.417969 12.816406 115.148438 12.949219 Z M 115.148438 12.949219 "/>
<path style=" stroke:none;fill-rule:evenodd;fill:rgb(99.607843%,99.607843%,99.607843%);fill-opacity:1;" d="M 121.949219 18.75 C 121.957031 18.804688 121.988281 18.835938 122.050781 18.851562 C 122.148438 16.851562 122.183594 14.851562 122.148438 12.851562 C 122.683594 12.851562 123.21875 12.851562 123.75 12.851562 C 123.75 16.484375 123.75 20.117188 123.75 23.75 C 123.289062 23.78125 122.839844 23.746094 122.398438 23.648438 C 121.53125 21.582031 120.667969 19.515625 119.800781 17.449219 C 119.75 19.550781 119.734375 21.648438 119.75 23.75 C 119.183594 23.75 118.617188 23.75 118.050781 23.75 C 118.050781 20.082031 118.050781 16.417969 118.050781 12.75 C 118.519531 12.71875 118.988281 12.75 119.449219 12.851562 C 120.3125 14.808594 121.144531 16.773438 121.949219 18.75 Z M 121.949219 18.75 "/>
<path style=" stroke:none;fill-rule:evenodd;fill:rgb(90.588235%,77.254902%,81.176471%);fill-opacity:1;" d="M 123.75 12.851562 C 123.21875 12.851562 122.683594 12.851562 122.148438 12.851562 C 122.183594 14.851562 122.148438 16.851562 122.050781 18.851562 C 121.988281 18.835938 121.957031 18.804688 121.949219 18.75 C 122.050781 16.765625 122.082031 14.765625 122.050781 12.75 C 122.636719 12.71875 123.203125 12.75 123.75 12.851562 Z M 123.75 12.851562 "/>
<path style=" stroke:none;fill-rule:evenodd;fill:rgb(99.607843%,99.215686%,99.607843%);fill-opacity:1;" d="M 125.050781 12.75 C 126.152344 12.734375 127.25 12.75 128.351562 12.800781 C 129.796875 12.847656 130.679688 13.5625 131 14.949219 C 131.066406 17.050781 131.066406 19.148438 131 21.25 C 130.847656 22.734375 130.03125 23.550781 128.550781 23.699219 C 127.382812 23.75 126.21875 23.765625 125.050781 23.75 C 125.050781 20.082031 125.050781 16.417969 125.050781 12.75 Z M 125.050781 12.75 "/>
<path style=" stroke:none;fill-rule:evenodd;fill:rgb(63.529412%,10.588235%,26.27451%);fill-opacity:1;" d="M 89.648438 14.148438 C 90.40625 13.988281 90.925781 14.253906 91.199219 14.949219 C 91.265625 17.117188 91.265625 19.285156 91.199219 21.449219 C 91.140625 22.09375 90.792969 22.390625 90.148438 22.351562 C 89.605469 22.402344 89.257812 22.171875 89.101562 21.648438 C 89.035156 19.382812 89.035156 17.117188 89.101562 14.851562 C 89.195312 14.539062 89.378906 14.304688 89.648438 14.148438 Z M 89.648438 14.148438 "/>
<path style=" stroke:none;fill-rule:evenodd;fill:rgb(63.921569%,11.372549%,26.666667%);fill-opacity:1;" d="M 39.648438 14.25 C 40.085938 14.234375 40.519531 14.25 40.949219 14.300781 C 41.316406 14.46875 41.53125 14.75 41.601562 15.148438 C 41.691406 17.320312 41.65625 19.484375 41.5 21.648438 C 41.429688 21.90625 41.28125 22.089844 41.050781 22.199219 C 40.59375 22.332031 40.125 22.382812 39.648438 22.351562 C 39.648438 19.648438 39.648438 16.949219 39.648438 14.25 Z M 39.648438 14.25 "/>
<path style=" stroke:none;fill-rule:evenodd;fill:rgb(63.921569%,12.156863%,27.058824%);fill-opacity:1;" d="M 96.449219 14.148438 C 97.804688 13.902344 98.503906 14.453125 98.550781 15.800781 C 98.503906 17.160156 97.804688 17.707031 96.449219 17.449219 C 96.449219 16.351562 96.449219 15.25 96.449219 14.148438 Z M 96.449219 14.148438 "/>
<path style=" stroke:none;fill-rule:evenodd;fill:rgb(63.921569%,11.372549%,26.666667%);fill-opacity:1;" d="M 127.050781 14.25 C 127.484375 14.234375 127.917969 14.25 128.351562 14.300781 C 128.71875 14.46875 128.933594 14.75 129 15.148438 C 129.015625 16.148438 129.03125 17.148438 129.050781 18.148438 C 129.0625 19.320312 129.011719 20.488281 128.898438 21.648438 C 128.789062 21.863281 128.636719 22.046875 128.449219 22.199219 C 127.992188 22.324219 127.523438 22.371094 127.050781 22.351562 C 127.050781 19.648438 127.050781 16.949219 127.050781 14.25 Z M 127.050781 14.25 "/>
<path style=" stroke:none;fill-rule:evenodd;fill:rgb(72.54902%,32.54902%,44.313725%);fill-opacity:1;" d="M 68.75 14.25 C 68.785156 14.25 68.816406 14.25 68.851562 14.25 C 69.449219 14.25 70.050781 14.25 70.648438 14.25 C 70.648438 17.417969 70.648438 20.582031 70.648438 23.75 C 70.550781 20.632812 70.515625 17.5 70.550781 14.351562 C 69.929688 14.382812 69.332031 14.347656 68.75 14.25 Z M 68.75 14.25 "/>
<path style=" stroke:none;fill-rule:evenodd;fill:rgb(65.882353%,16.862745%,29.803922%);fill-opacity:1;" d="M 114.050781 15.75 C 114.332031 17.128906 114.566406 18.527344 114.75 19.949219 C 114.28125 19.949219 113.816406 19.949219 113.351562 19.949219 C 113.539062 18.542969 113.773438 17.140625 114.050781 15.75 Z M 114.050781 15.75 "/>
<path style=" stroke:none;fill-rule:evenodd;fill:rgb(63.529412%,10.980392%,26.27451%);fill-opacity:1;" d="M 18.75 16.550781 C 20.125 16.507812 20.910156 17.175781 21.101562 18.550781 C 21.167969 19.550781 21.167969 20.550781 21.101562 21.550781 C 21.058594 22.535156 20.710938 23.386719 20.050781 24.101562 C 18.820312 24.578125 17.96875 24.195312 17.5 22.949219 C 17.125 21.398438 17.058594 19.832031 17.300781 18.25 C 17.523438 17.445312 18.003906 16.878906 18.75 16.550781 Z M 18.75 16.550781 "/>
<path style=" stroke:none;fill-rule:evenodd;fill:rgb(83.921569%,59.607843%,66.666667%);fill-opacity:1;" d="M 56.050781 15.148438 C 56.148438 15.699219 56.183594 16.265625 56.148438 16.851562 C 55.464844 16.882812 54.796875 16.847656 54.148438 16.75 C 54.785156 16.75 55.417969 16.75 56.050781 16.75 C 56.050781 16.214844 56.050781 15.683594 56.050781 15.148438 Z M 56.050781 15.148438 "/>
<path style=" stroke:none;fill-rule:evenodd;fill:rgb(72.54902%,32.54902%,44.313725%);fill-opacity:1;" d="M 64.449219 17.75 C 64.382812 19.75 64.316406 21.75 64.25 23.75 C 64.234375 21.648438 64.25 19.550781 64.300781 17.449219 C 64.351562 17.550781 64.402344 17.652344 64.449219 17.75 Z M 64.449219 17.75 "/>
<path style=" stroke:none;fill-rule:evenodd;fill:rgb(90.588235%,76.862745%,81.176471%);fill-opacity:1;" d="M 46.851562 22.351562 C 47.714844 22.351562 48.582031 22.351562 49.449219 22.351562 C 49.480469 22.835938 49.449219 23.304688 49.351562 23.75 C 49.351562 23.316406 49.351562 22.882812 49.351562 22.449219 C 48.5 22.484375 47.664062 22.449219 46.851562 22.351562 Z M 46.851562 22.351562 "/>
<path style=" stroke:none;fill-rule:evenodd;fill:rgb(63.921569%,11.372549%,26.666667%);fill-opacity:1;" d="M 18.550781 28.851562 C 20.121094 28.625 21.035156 29.292969 21.300781 30.851562 C 21.691406 32.734375 21.621094 34.601562 21.101562 36.449219 C 20.550781 37.664062 19.636719 38.082031 18.351562 37.699219 C 17.625 37.304688 17.207031 36.6875 17.101562 35.851562 C 16.738281 34.042969 16.773438 32.242188 17.199219 30.449219 C 17.386719 29.683594 17.835938 29.148438 18.550781 28.851562 Z M 18.550781 28.851562 "/>
<path style=" stroke:none;fill-rule:evenodd;fill:rgb(99.215686%,98.431373%,98.431373%);fill-opacity:1;" d="M 45.25 30.550781 C 48.171875 30.355469 49.441406 31.722656 49.050781 34.648438 C 48.417969 34.648438 47.785156 34.648438 47.148438 34.648438 C 47.1875 33.941406 47.136719 33.242188 47 32.550781 C 46.574219 32.019531 46.054688 31.917969 45.449219 32.25 C 45.3125 32.402344 45.195312 32.570312 45.101562 32.75 C 45.035156 35.015625 45.035156 37.285156 45.101562 39.550781 C 45.527344 40.445312 46.128906 40.578125 46.898438 39.949219 C 46.984375 39.792969 47.054688 39.625 47.101562 39.449219 C 47.148438 38.816406 47.167969 38.183594 47.148438 37.550781 C 47.785156 37.550781 48.417969 37.550781 49.050781 37.550781 C 49.351562 41.234375 47.75 42.519531 44.25 41.398438 C 43.511719 40.839844 43.09375 40.089844 43 39.148438 C 42.90625 36.980469 42.941406 34.8125 43.101562 32.648438 C 43.410156 31.523438 44.125 30.824219 45.25 30.550781 Z M 45.25 30.550781 "/>
<path style=" stroke:none;fill-rule:evenodd;fill:rgb(99.215686%,98.431373%,98.431373%);fill-opacity:1;" d="M 52.351562 30.550781 C 53.433594 30.417969 54.433594 30.632812 55.351562 31.199219 C 55.898438 31.84375 56.214844 32.59375 56.300781 33.449219 C 56.394531 35.488281 56.359375 37.519531 56.199219 39.550781 C 55.894531 40.855469 55.078125 41.605469 53.75 41.800781 C 51.585938 42.101562 50.335938 41.183594 50 39.050781 C 49.933594 37.082031 49.933594 35.117188 50 33.148438 C 50.179688 31.71875 50.964844 30.851562 52.351562 30.550781 Z M 52.351562 30.550781 "/>
<path style=" stroke:none;fill-rule:evenodd;fill:rgb(99.215686%,98.039216%,98.431373%);fill-opacity:1;" d="M 66.75 30.550781 C 67.691406 30.457031 68.59375 30.605469 69.449219 31 C 70.160156 31.535156 70.578125 32.253906 70.699219 33.148438 C 70.765625 35.117188 70.765625 37.082031 70.699219 39.050781 C 70.5625 40.644531 69.714844 41.5625 68.148438 41.800781 C 66.007812 42.089844 64.757812 41.171875 64.398438 39.050781 C 64.332031 37.183594 64.332031 35.316406 64.398438 33.449219 C 64.476562 31.886719 65.261719 30.921875 66.75 30.550781 Z M 66.75 30.550781 "/>
<path style=" stroke:none;fill-rule:evenodd;fill:rgb(99.607843%,98.823529%,98.823529%);fill-opacity:1;" d="M 86.449219 30.550781 C 89.359375 30.359375 90.625 31.726562 90.25 34.648438 C 89.582031 34.648438 88.917969 34.648438 88.25 34.648438 C 88.292969 33.90625 88.242188 33.171875 88.101562 32.449219 C 87.679688 32.027344 87.195312 31.945312 86.648438 32.199219 C 86.519531 32.339844 86.40625 32.492188 86.300781 32.648438 C 86.136719 34.808594 86.101562 36.976562 86.199219 39.148438 C 86.367188 40.242188 86.949219 40.558594 87.949219 40.101562 C 88.046875 39.957031 88.128906 39.808594 88.199219 39.648438 C 88.300781 38.953125 88.351562 38.253906 88.351562 37.550781 C 88.984375 37.550781 89.617188 37.550781 90.25 37.550781 C 90.402344 38.757812 90.1875 39.890625 89.601562 40.949219 C 88.726562 41.710938 87.710938 41.996094 86.550781 41.800781 C 85.101562 41.515625 84.316406 40.632812 84.199219 39.148438 C 84.132812 37.082031 84.132812 35.015625 84.199219 32.949219 C 84.460938 31.671875 85.210938 30.875 86.449219 30.550781 Z M 86.449219 30.550781 "/>
<path style=" stroke:none;fill-rule:evenodd;fill:rgb(99.215686%,98.431373%,98.823529%);fill-opacity:1;" d="M 97.449219 36.148438 C 98.417969 36.148438 99.382812 36.148438 100.351562 36.148438 C 100.351562 37.984375 100.351562 39.816406 100.351562 41.648438 C 99.917969 41.648438 99.484375 41.648438 99.050781 41.648438 C 99.085938 41.359375 99.039062 41.09375 98.898438 40.851562 C 98.464844 41.550781 97.832031 41.882812 97 41.851562 C 95.789062 41.835938 94.953125 41.269531 94.5 40.148438 C 94.382812 39.71875 94.285156 39.285156 94.199219 38.851562 C 94.109375 36.847656 94.140625 34.847656 94.300781 32.851562 C 94.527344 31.519531 95.3125 30.769531 96.648438 30.601562 C 99.367188 30.367188 100.601562 31.617188 100.351562 34.351562 C 99.714844 34.351562 99.082031 34.351562 98.449219 34.351562 C 98.480469 33.742188 98.429688 33.140625 98.300781 32.550781 C 97.726562 31.9375 97.125 31.90625 96.5 32.449219 C 96.433594 32.582031 96.367188 32.714844 96.300781 32.851562 C 96.203125 35.121094 96.238281 37.386719 96.398438 39.648438 C 96.554688 40.085938 96.871094 40.320312 97.351562 40.351562 C 97.929688 40.300781 98.3125 40 98.5 39.449219 C 98.628906 38.789062 98.664062 38.121094 98.601562 37.449219 C 98.226562 37.355469 97.84375 37.320312 97.449219 37.351562 C 97.449219 36.949219 97.449219 36.550781 97.449219 36.148438 Z M 97.449219 36.148438 "/>
<path style=" stroke:none;fill-rule:evenodd;fill:rgb(99.607843%,99.215686%,99.215686%);fill-opacity:1;" d="M 111.050781 30.550781 C 112.078125 30.433594 113.042969 30.617188 113.949219 31.101562 C 114.613281 31.742188 114.960938 32.523438 115 33.449219 C 115.089844 35.519531 115.058594 37.585938 114.898438 39.648438 C 114.613281 40.96875 113.796875 41.6875 112.449219 41.800781 C 110.519531 42.097656 109.300781 41.316406 108.800781 39.449219 C 108.703125 37.113281 108.738281 34.777344 108.898438 32.449219 C 109.28125 31.433594 110 30.800781 111.050781 30.550781 Z M 111.050781 30.550781 "/>
<path style=" stroke:none;fill-rule:evenodd;fill:rgb(80.784314%,52.156863%,60.784314%);fill-opacity:1;" d="M 123.050781 30.75 C 123.597656 30.652344 124.164062 30.617188 124.75 30.648438 C 124.773438 30.777344 124.738281 30.878906 124.648438 30.949219 C 124.160156 30.753906 123.628906 30.6875 123.050781 30.75 Z M 123.050781 30.75 "/>
<path style=" stroke:none;fill-rule:evenodd;fill:rgb(99.607843%,99.607843%,99.607843%);fill-opacity:1;" d="M 37.648438 30.75 C 39.183594 30.75 40.714844 30.75 42.25 30.75 C 42.25 31.214844 42.25 31.683594 42.25 32.148438 C 41.382812 32.148438 40.515625 32.148438 39.648438 32.148438 C 39.648438 33.183594 39.648438 34.214844 39.648438 35.25 C 40.316406 35.25 40.984375 35.25 41.648438 35.25 C 41.648438 35.714844 41.648438 36.183594 41.648438 36.648438 C 40.984375 36.648438 40.316406 36.648438 39.648438 36.648438 C 39.648438 37.851562 39.648438 39.050781 39.648438 40.25 C 40.515625 40.25 41.382812 40.25 42.25 40.25 C 42.25 40.714844 42.25 41.183594 42.25 41.648438 C 40.714844 41.648438 39.183594 41.648438 37.648438 41.648438 C 37.648438 38.015625 37.648438 34.382812 37.648438 30.75 Z M 37.648438 30.75 "/>
<path style=" stroke:none;fill-rule:evenodd;fill:rgb(89.803922%,74.901961%,79.215686%);fill-opacity:1;" d="M 58.851562 30.75 C 58.417969 30.75 57.984375 30.75 57.550781 30.75 C 57.550781 34.382812 57.550781 38.015625 57.550781 41.648438 C 57.449219 38 57.417969 34.332031 57.449219 30.648438 C 57.9375 30.617188 58.402344 30.652344 58.851562 30.75 Z M 58.851562 30.75 "/>
<path style=" stroke:none;fill-rule:evenodd;fill:rgb(99.607843%,99.607843%,99.607843%);fill-opacity:1;" d="M 58.851562 30.75 C 59.753906 32.730469 60.640625 34.730469 61.5 36.75 C 61.550781 34.75 61.566406 32.75 61.550781 30.75 C 62.082031 30.75 62.617188 30.75 63.148438 30.75 C 63.148438 34.382812 63.148438 38.015625 63.148438 41.648438 C 62.710938 41.683594 62.277344 41.648438 61.851562 41.550781 C 61.015625 39.546875 60.183594 37.546875 59.351562 35.550781 C 59.300781 35.453125 59.25 35.351562 59.199219 35.25 C 59.148438 37.382812 59.132812 39.515625 59.148438 41.648438 C 58.617188 41.648438 58.082031 41.648438 57.550781 41.648438 C 57.550781 38.015625 57.550781 34.382812 57.550781 30.75 C 57.984375 30.75 58.417969 30.75 58.851562 30.75 Z M 58.851562 30.75 "/>
<path style=" stroke:none;fill-rule:evenodd;fill:rgb(89.803922%,74.509804%,79.215686%);fill-opacity:1;" d="M 61.550781 30.75 C 62.097656 30.652344 62.664062 30.617188 63.25 30.648438 C 63.28125 34.332031 63.25 38 63.148438 41.648438 C 63.148438 38.015625 63.148438 34.382812 63.148438 30.75 C 62.617188 30.75 62.082031 30.75 61.550781 30.75 Z M 61.550781 30.75 "/>
<path style=" stroke:none;fill-rule:evenodd;fill:rgb(99.215686%,98.823529%,98.823529%);fill-opacity:1;" d="M 72.050781 30.75 C 72.75 30.75 73.449219 30.75 74.148438 30.75 C 74.652344 33.253906 75.167969 35.753906 75.699219 38.25 C 76.28125 35.761719 76.796875 33.261719 77.25 30.75 C 77.949219 30.75 78.648438 30.75 79.351562 30.75 C 79.429688 34.382812 79.496094 38.015625 79.550781 41.648438 C 79.050781 41.648438 78.550781 41.648438 78.050781 41.648438 C 78.007812 39.28125 77.921875 36.914062 77.800781 34.550781 C 77.296875 36.914062 76.8125 39.28125 76.351562 41.648438 C 75.917969 41.648438 75.484375 41.648438 75.050781 41.648438 C 74.652344 39.269531 74.167969 36.902344 73.601562 34.550781 C 73.472656 36.914062 73.421875 39.28125 73.449219 41.648438 C 72.917969 41.648438 72.382812 41.648438 71.851562 41.648438 C 71.945312 38.015625 72.011719 34.382812 72.050781 30.75 Z M 72.050781 30.75 "/>
<path style=" stroke:none;fill-rule:evenodd;fill:rgb(99.607843%,100%,99.607843%);fill-opacity:1;" d="M 80.949219 30.75 C 81.582031 30.75 82.214844 30.75 82.851562 30.75 C 82.851562 34.382812 82.851562 38.015625 82.851562 41.648438 C 82.214844 41.648438 81.582031 41.648438 80.949219 41.648438 C 80.949219 38.015625 80.949219 34.382812 80.949219 30.75 Z M 80.949219 30.75 "/>
<path style=" stroke:none;fill-rule:evenodd;fill:rgb(89.803922%,74.117647%,78.823529%);fill-opacity:1;" d="M 80.949219 30.75 C 81.597656 30.652344 82.265625 30.617188 82.949219 30.648438 C 82.984375 34.332031 82.949219 38 82.851562 41.648438 C 82.851562 38.015625 82.851562 34.382812 82.851562 30.75 C 82.214844 30.75 81.582031 30.75 80.949219 30.75 Z M 80.949219 30.75 "/>
<path style=" stroke:none;fill-rule:evenodd;fill:rgb(99.607843%,99.215686%,99.215686%);fill-opacity:1;" d="M 101.648438 30.75 C 102.917969 30.734375 104.183594 30.75 105.449219 30.800781 C 106.660156 30.976562 107.375 31.660156 107.601562 32.851562 C 107.78125 33.886719 107.617188 34.851562 107.101562 35.75 C 106.835938 35.957031 106.585938 36.171875 106.351562 36.398438 C 106.882812 38.144531 107.382812 39.894531 107.851562 41.648438 C 107.148438 41.648438 106.449219 41.648438 105.75 41.648438 C 105.363281 39.980469 104.964844 38.316406 104.550781 36.648438 C 104.25 36.648438 103.949219 36.648438 103.648438 36.648438 C 103.648438 38.316406 103.648438 39.984375 103.648438 41.648438 C 102.984375 41.648438 102.316406 41.648438 101.648438 41.648438 C 101.648438 38.015625 101.648438 34.382812 101.648438 30.75 Z M 101.648438 30.75 "/>
<path style=" stroke:none;fill-rule:evenodd;fill:rgb(99.607843%,98.823529%,98.823529%);fill-opacity:1;" d="M 123.050781 30.75 C 123.628906 30.6875 124.160156 30.753906 124.648438 30.949219 C 124.101562 34.507812 123.601562 38.074219 123.148438 41.648438 C 122.589844 41.679688 122.039062 41.648438 121.5 41.550781 C 121.082031 39.222656 120.683594 36.886719 120.300781 34.550781 C 119.867188 36.839844 119.46875 39.140625 119.101562 41.449219 C 118.546875 41.640625 117.964844 41.710938 117.351562 41.648438 C 116.925781 38.039062 116.425781 34.4375 115.851562 30.851562 C 116.414062 30.75 116.980469 30.71875 117.550781 30.75 C 117.84375 33.015625 118.128906 35.28125 118.398438 37.550781 C 118.816406 35.289062 119.199219 33.023438 119.550781 30.75 C 120.015625 30.75 120.484375 30.75 120.949219 30.75 C 121.347656 32.914062 121.730469 35.078125 122.101562 37.25 C 122.46875 35.082031 122.785156 32.914062 123.050781 30.75 Z M 123.050781 30.75 "/>
<path style=" stroke:none;fill-rule:evenodd;fill:rgb(99.607843%,99.607843%,99.607843%);fill-opacity:1;" d="M 126.75 41.648438 C 126.75 38.484375 126.75 35.316406 126.75 32.148438 C 126.148438 32.148438 125.550781 32.148438 124.949219 32.148438 C 124.949219 31.683594 124.949219 31.214844 124.949219 30.75 C 126.816406 30.75 128.683594 30.75 130.550781 30.75 C 130.550781 31.214844 130.550781 31.683594 130.550781 32.148438 C 129.949219 32.148438 129.351562 32.148438 128.75 32.148438 C 128.75 35.316406 128.75 38.484375 128.75 41.648438 C 128.082031 41.648438 127.417969 41.648438 126.75 41.648438 Z M 126.75 41.648438 "/>
<path style=" stroke:none;fill-rule:evenodd;fill:rgb(99.607843%,99.607843%,99.607843%);fill-opacity:1;" d="M 131.148438 30.75 C 131.816406 30.75 132.484375 30.75 133.148438 30.75 C 133.148438 32.25 133.148438 33.75 133.148438 35.25 C 133.882812 35.25 134.617188 35.25 135.351562 35.25 C 135.351562 33.75 135.351562 32.25 135.351562 30.75 C 136.015625 30.75 136.683594 30.75 137.351562 30.75 C 137.351562 34.382812 137.351562 38.015625 137.351562 41.648438 C 136.683594 41.648438 136.015625 41.648438 135.351562 41.648438 C 135.351562 40.015625 135.351562 38.382812 135.351562 36.75 C 134.617188 36.75 133.882812 36.75 133.148438 36.75 C 133.148438 38.382812 133.148438 40.015625 133.148438 41.648438 C 132.484375 41.648438 131.816406 41.648438 131.148438 41.648438 C 131.148438 38.015625 131.148438 34.382812 131.148438 30.75 Z M 131.148438 30.75 "/>
<path style=" stroke:none;fill-rule:evenodd;fill:rgb(63.529412%,10.588235%,26.27451%);fill-opacity:1;" d="M 52.75 32.050781 C 53.457031 31.933594 53.9375 32.199219 54.199219 32.851562 C 54.265625 35.050781 54.265625 37.25 54.199219 39.449219 C 53.910156 40.253906 53.359375 40.503906 52.550781 40.199219 C 52.339844 40.027344 52.1875 39.808594 52.101562 39.550781 C 52.035156 37.351562 52.035156 35.148438 52.101562 32.949219 C 52.125 32.496094 52.339844 32.199219 52.75 32.050781 Z M 52.75 32.050781 "/>
<path style=" stroke:none;fill-rule:evenodd;fill:rgb(63.529412%,10.588235%,26.27451%);fill-opacity:1;" d="M 67.148438 32.050781 C 67.871094 31.917969 68.351562 32.183594 68.601562 32.851562 C 68.667969 35.050781 68.667969 37.25 68.601562 39.449219 C 68.308594 40.253906 67.757812 40.503906 66.949219 40.199219 C 66.683594 39.980469 66.53125 39.699219 66.5 39.351562 C 66.433594 37.183594 66.433594 35.015625 66.5 32.851562 C 66.628906 32.503906 66.847656 32.238281 67.148438 32.050781 Z M 67.148438 32.050781 "/>
<path style=" stroke:none;fill-rule:evenodd;fill:rgb(63.921569%,11.764706%,26.666667%);fill-opacity:1;" d="M 103.648438 32.050781 C 105.527344 31.964844 106.175781 32.828125 105.601562 34.648438 C 105.445312 34.972656 105.195312 35.191406 104.851562 35.300781 C 104.449219 35.351562 104.050781 35.367188 103.648438 35.351562 C 103.648438 34.25 103.648438 33.148438 103.648438 32.050781 Z M 103.648438 32.050781 "/>
<path style=" stroke:none;fill-rule:evenodd;fill:rgb(64.313725%,12.941176%,27.45098%);fill-opacity:1;" d="M 111.449219 32.050781 C 112.339844 31.917969 112.855469 32.285156 113 33.148438 C 113.066406 35.082031 113.066406 37.015625 113 38.949219 C 112.835938 40.316406 112.167969 40.648438 111 39.949219 C 110.894531 39.726562 110.828125 39.496094 110.800781 39.25 C 110.734375 37.148438 110.734375 35.050781 110.800781 32.949219 C 110.886719 32.546875 111.105469 32.246094 111.449219 32.050781 Z M 111.449219 32.050781 "/>
<path style=" stroke:none;fill-rule:evenodd;fill:rgb(73.72549%,35.686275%,46.666667%);fill-opacity:1;" d="M 124.949219 32.148438 C 125.550781 32.148438 126.148438 32.148438 126.75 32.148438 C 126.75 35.316406 126.75 38.484375 126.75 41.648438 C 126.648438 38.535156 126.617188 35.402344 126.648438 32.25 C 126.0625 32.28125 125.496094 32.25 124.949219 32.148438 Z M 124.949219 32.148438 "/>
<path style=" stroke:none;fill-rule:evenodd;fill:rgb(81.960784%,54.901961%,63.137255%);fill-opacity:1;" d="M 59.351562 35.550781 C 59.285156 37.582031 59.214844 39.617188 59.148438 41.648438 C 59.132812 39.515625 59.148438 37.382812 59.199219 35.25 C 59.25 35.351562 59.300781 35.453125 59.351562 35.550781 Z M 59.351562 35.550781 "/>
<path style=" stroke:none;fill-rule:evenodd;fill:rgb(88.627451%,71.372549%,76.470588%);fill-opacity:1;" d="M 97.449219 36.148438 C 98.433594 36.050781 99.433594 36.015625 100.449219 36.050781 C 100.484375 37.933594 100.449219 39.800781 100.351562 41.648438 C 100.351562 39.816406 100.351562 37.984375 100.351562 36.148438 C 99.382812 36.148438 98.417969 36.148438 97.449219 36.148438 Z M 97.449219 36.148438 "/>
<path style=" stroke:none;fill-rule:evenodd;fill:rgb(99.607843%,99.215686%,99.215686%);fill-opacity:1;" d="M 109.851562 55.550781 C 110.265625 55.472656 110.53125 55.625 110.648438 56 C 109.773438 60.117188 108.890625 64.234375 108 68.351562 C 107.847656 68.609375 107.632812 68.691406 107.351562 68.601562 C 106.417969 67.667969 105.484375 66.734375 104.550781 65.800781 C 104.484375 65.734375 104.417969 65.734375 104.351562 65.800781 C 94.285156 75.867188 84.214844 85.933594 74.148438 96 C 74.015625 96.066406 73.882812 96.066406 73.75 96 C 69.632812 91.882812 65.515625 87.765625 61.398438 83.648438 C 54.917969 90.132812 48.433594 96.617188 41.949219 103.101562 C 41.75 103.167969 41.550781 103.167969 41.351562 103.101562 C 40.265625 102.015625 39.183594 100.933594 38.101562 99.851562 C 37.96875 99.664062 37.9375 99.464844 38 99.25 C 45.714844 91.535156 53.433594 83.816406 61.148438 76.101562 C 61.285156 76.035156 61.417969 76.035156 61.550781 76.101562 C 65.617188 80.167969 69.683594 84.234375 73.75 88.300781 C 73.851562 88.367188 73.949219 88.367188 74.050781 88.300781 C 82.882812 79.464844 91.714844 70.632812 100.550781 61.800781 C 99.601562 60.851562 98.648438 59.898438 97.699219 58.949219 C 97.609375 58.699219 97.660156 58.480469 97.851562 58.300781 C 101.871094 57.410156 105.871094 56.496094 109.851562 55.550781 Z M 109.851562 55.550781 "/>
<path style=" stroke:none;fill-rule:evenodd;fill:rgb(99.607843%,99.607843%,99.607843%);fill-opacity:1;" d="M 104.148438 73.25 C 104.566406 73.183594 104.851562 73.351562 105 73.75 C 105.066406 93.082031 105.066406 112.417969 105 131.75 C 104.886719 131.960938 104.738281 132.144531 104.550781 132.300781 C 98.984375 132.367188 93.417969 132.367188 87.851562 132.300781 C 87.617188 132.136719 87.46875 131.921875 87.398438 131.648438 C 87.332031 117.683594 87.332031 103.71875 87.398438 89.75 C 87.550781 89.132812 87.867188 88.617188 88.351562 88.199219 C 93.605469 83.195312 98.871094 78.210938 104.148438 73.25 Z M 104.148438 73.25 "/>
<path style=" stroke:none;fill-rule:evenodd;fill:rgb(99.607843%,99.607843%,99.607843%);fill-opacity:1;" d="M 59.851562 92.351562 C 60.25 92.261719 60.53125 92.394531 60.699219 92.75 C 60.765625 105.78125 60.765625 118.816406 60.699219 131.851562 C 60.617188 132.066406 60.464844 132.21875 60.25 132.300781 C 54.714844 132.367188 49.183594 132.367188 43.648438 132.300781 C 43.433594 132.21875 43.285156 132.066406 43.199219 131.851562 C 43.101562 123.976562 43.132812 116.109375 43.300781 108.25 C 43.609375 107.742188 43.992188 107.289062 44.449219 106.898438 C 49.574219 102.027344 54.707031 97.175781 59.851562 92.351562 Z M 59.851562 92.351562 "/>
<path style=" stroke:none;fill-rule:evenodd;fill:rgb(99.607843%,99.607843%,99.607843%);fill-opacity:1;" d="M 82.148438 94.851562 C 82.550781 94.761719 82.832031 94.894531 83 95.25 C 83.066406 107.449219 83.066406 119.648438 83 131.851562 C 82.917969 132.066406 82.765625 132.21875 82.550781 132.300781 C 77.015625 132.367188 71.484375 132.367188 65.949219 132.300781 C 65.734375 132.21875 65.582031 132.066406 65.5 131.851562 C 65.433594 119.816406 65.433594 107.78125 65.5 95.75 C 65.578125 95.503906 65.746094 95.371094 66 95.351562 C 66.328125 95.414062 66.613281 95.5625 66.851562 95.800781 C 69.144531 98.226562 71.492188 100.578125 73.898438 102.851562 C 73.984375 102.832031 74.066406 102.816406 74.148438 102.800781 C 76.804688 100.128906 79.472656 97.476562 82.148438 94.851562 Z M 82.148438 94.851562 "/>
</g>
</svg>
