<?xml version="1.0" encoding="UTF-8"?>
<svg xmlns="http://www.w3.org/2000/svg" xmlns:xlink="http://www.w3.org/1999/xlink" width="150px" height="150px" viewBox="0 0 150 150" version="1.1">
<g id="surface1">
<path style=" stroke:none;fill-rule:evenodd;fill:rgb(99.215686%,41.176471%,14.509804%);fill-opacity:1;" d="M -0.0507812 -0.0507812 C 49.949219 -0.0507812 99.949219 -0.0507812 149.949219 -0.0507812 C 149.949219 49.949219 149.949219 99.949219 149.949219 149.949219 C 99.949219 149.949219 49.949219 149.949219 -0.0507812 149.949219 C -0.0507812 99.949219 -0.0507812 49.949219 -0.0507812 -0.0507812 Z M -0.0507812 -0.0507812 "/>
<path style=" stroke:none;fill-rule:evenodd;fill:rgb(100%,99.607843%,99.607843%);fill-opacity:1;" d="M 21.25 33.449219 C 21.367188 32.035156 21.382812 30.601562 21.300781 29.148438 C 21.226562 29.203125 21.179688 29.269531 21.148438 29.351562 C 20.132812 30.304688 18.914062 30.738281 17.5 30.648438 C 15.066406 30.683594 13.367188 29.582031 12.398438 27.351562 C 11.988281 26.285156 11.722656 25.183594 11.601562 24.050781 C 11.492188 22.175781 11.558594 20.308594 11.800781 18.449219 C 12.871094 14.011719 15.691406 12.03125 20.25 12.5 C 23.542969 12.792969 25.628906 14.542969 26.5 17.75 C 26.722656 18.5 26.855469 19.269531 26.898438 20.050781 C 26.964844 24.550781 26.964844 29.050781 26.898438 33.550781 C 26.808594 35.449219 26.34375 37.25 25.5 38.949219 C 24.546875 40.5 23.164062 41.417969 21.351562 41.699219 C 19.988281 41.855469 18.621094 41.886719 17.25 41.800781 C 14.433594 41.417969 12.75 39.832031 12.199219 37.050781 C 12.003906 36.09375 11.921875 35.125 11.949219 34.148438 C 13.683594 34.148438 15.417969 34.148438 17.148438 34.148438 C 17.105469 35.195312 17.289062 36.195312 17.699219 37.148438 C 18.339844 37.625 19.054688 37.777344 19.851562 37.601562 C 20.453125 37.351562 20.835938 36.902344 21 36.25 C 21.207031 35.328125 21.289062 34.394531 21.25 33.449219 Z M 21.25 33.449219 "/>
<path style=" stroke:none;fill-rule:evenodd;fill:rgb(100%,98.823529%,98.431373%);fill-opacity:1;" d="M 61.648438 13.949219 C 61.648438 14.015625 61.683594 14.050781 61.75 14.050781 C 61.898438 14.503906 61.964844 14.96875 61.949219 15.449219 C 61.390625 15.589844 60.824219 15.6875 60.25 15.75 C 60.320312 15.035156 60.085938 14.449219 59.550781 14 C 58.488281 13.96875 58.070312 14.488281 58.300781 15.550781 C 58.398438 15.714844 58.5 15.882812 58.601562 16.050781 C 59.464844 16.851562 60.332031 17.648438 61.199219 18.449219 C 62.261719 19.742188 62.429688 21.140625 61.699219 22.648438 C 60.597656 23.785156 59.316406 24.035156 57.851562 23.398438 C 57.085938 22.96875 56.632812 22.316406 56.5 21.449219 C 56.417969 21.054688 56.367188 20.652344 56.351562 20.25 C 56.953125 20.175781 57.554688 20.074219 58.148438 19.949219 C 58.140625 20.621094 58.289062 21.253906 58.601562 21.851562 C 59.132812 22.261719 59.632812 22.230469 60.101562 21.75 C 60.328125 21.121094 60.261719 20.523438 59.898438 19.949219 C 58.832031 18.980469 57.796875 17.980469 56.800781 16.949219 C 56.25 15.863281 56.214844 14.765625 56.699219 13.648438 C 57.824219 12.386719 59.171875 12.105469 60.75 12.800781 C 61.15625 13.097656 61.457031 13.480469 61.648438 13.949219 Z M 61.648438 13.949219 "/>
<path style=" stroke:none;fill-rule:evenodd;fill:rgb(100%,98.431373%,98.039216%);fill-opacity:1;" d="M 103.25 12.449219 C 104.179688 12.375 105.078125 12.492188 105.949219 12.800781 C 106.675781 13.203125 107.09375 13.820312 107.199219 14.648438 C 107.308594 15.796875 107.359375 16.945312 107.351562 18.101562 C 107.359375 19.222656 107.3125 20.339844 107.199219 21.449219 C 107.035156 22.613281 106.386719 23.332031 105.25 23.601562 C 102.796875 24.148438 101.378906 23.199219 101 20.75 C 100.933594 18.949219 100.933594 17.148438 101 15.351562 C 101.109375 13.859375 101.859375 12.894531 103.25 12.449219 Z M 103.25 12.449219 "/>
<path style=" stroke:none;fill-rule:evenodd;fill:rgb(100%,98.823529%,98.431373%);fill-opacity:1;" d="M 130.050781 12.449219 C 131.054688 12.363281 132.023438 12.515625 132.949219 12.898438 C 133.578125 13.40625 133.960938 14.054688 134.101562 14.851562 C 134.167969 16.984375 134.167969 19.117188 134.101562 21.25 C 133.953125 22.457031 133.304688 23.242188 132.148438 23.601562 C 131.277344 23.691406 130.410156 23.65625 129.550781 23.5 C 128.664062 23.148438 128.148438 22.496094 128 21.550781 C 127.890625 20.355469 127.839844 19.152344 127.851562 17.949219 C 127.839844 16.777344 127.890625 15.613281 128 14.449219 C 128.34375 13.421875 129.027344 12.753906 130.050781 12.449219 Z M 130.050781 12.449219 "/>
<path style=" stroke:none;fill-rule:evenodd;fill:rgb(100%,96.862745%,95.686275%);fill-opacity:1;" d="M 33.25 12.550781 C 33.949219 12.550781 34.648438 12.550781 35.351562 12.550781 C 35.351562 16.214844 35.351562 19.882812 35.351562 23.550781 C 34.648438 23.550781 33.949219 23.550781 33.25 23.550781 C 33.25 19.882812 33.25 16.214844 33.25 12.550781 Z M 33.25 12.550781 "/>
<path style=" stroke:none;fill-rule:evenodd;fill:rgb(100%,85.098039%,78.431373%);fill-opacity:1;" d="M 37.648438 12.648438 C 37.214844 12.648438 36.785156 12.648438 36.351562 12.648438 C 36.351562 16.285156 36.351562 19.917969 36.351562 23.550781 C 36.25 19.902344 36.21875 16.234375 36.25 12.550781 C 36.734375 12.519531 37.203125 12.550781 37.648438 12.648438 Z M 37.648438 12.648438 "/>
<path style=" stroke:none;fill-rule:evenodd;fill:rgb(100%,98.823529%,98.431373%);fill-opacity:1;" d="M 40.351562 12.550781 C 40.917969 12.550781 41.484375 12.550781 42.050781 12.550781 C 42.050781 16.214844 42.050781 19.882812 42.050781 23.550781 C 41.558594 23.582031 41.074219 23.546875 40.601562 23.449219 C 39.773438 21.453125 38.957031 19.453125 38.148438 17.449219 C 38.101562 17.351562 38.050781 17.253906 38 17.148438 C 37.949219 19.28125 37.933594 21.417969 37.949219 23.550781 C 37.417969 23.550781 36.882812 23.550781 36.351562 23.550781 C 36.351562 19.917969 36.351562 16.285156 36.351562 12.648438 C 36.785156 12.648438 37.214844 12.648438 37.648438 12.648438 C 38.507812 14.53125 39.339844 16.433594 40.148438 18.351562 C 40.199219 18.449219 40.25 18.546875 40.300781 18.648438 C 40.351562 16.617188 40.367188 14.582031 40.351562 12.550781 Z M 40.351562 12.550781 "/>
<path style=" stroke:none;fill-rule:evenodd;fill:rgb(99.215686%,56.078431%,36.078431%);fill-opacity:1;" d="M 40.351562 12.550781 C 40.367188 14.582031 40.351562 16.617188 40.300781 18.648438 C 40.25 18.546875 40.199219 18.449219 40.148438 18.351562 C 40.214844 16.417969 40.285156 14.484375 40.351562 12.550781 Z M 40.351562 12.550781 "/>
<path style=" stroke:none;fill-rule:evenodd;fill:rgb(100%,98.823529%,98.431373%);fill-opacity:1;" d="M 42.949219 12.550781 C 44.015625 12.535156 45.082031 12.550781 46.148438 12.601562 C 47.710938 12.652344 48.628906 13.4375 48.898438 14.949219 C 48.964844 16.949219 48.964844 18.949219 48.898438 20.949219 C 48.785156 22.367188 48.035156 23.21875 46.648438 23.5 C 45.417969 23.550781 44.183594 23.566406 42.949219 23.550781 C 42.949219 19.882812 42.949219 16.214844 42.949219 12.550781 Z M 42.949219 12.550781 "/>
<path style=" stroke:none;fill-rule:evenodd;fill:rgb(100%,98.823529%,98.431373%);fill-opacity:1;" d="M 49.648438 12.550781 C 50.285156 12.550781 50.917969 12.550781 51.550781 12.550781 C 51.535156 15.21875 51.550781 17.882812 51.601562 20.550781 C 51.625 21 51.726562 21.433594 51.898438 21.851562 C 52.898438 22.453125 53.535156 22.1875 53.800781 21.050781 C 53.851562 18.21875 53.867188 15.382812 53.851562 12.550781 C 54.515625 12.550781 55.183594 12.550781 55.851562 12.550781 C 55.867188 15.316406 55.851562 18.082031 55.800781 20.851562 C 55.664062 22.855469 54.597656 23.789062 52.601562 23.648438 C 50.835938 23.75 49.871094 22.917969 49.699219 21.148438 C 49.648438 18.285156 49.632812 15.417969 49.648438 12.550781 Z M 49.648438 12.550781 "/>
<path style=" stroke:none;fill-rule:evenodd;fill:rgb(99.215686%,55.686275%,35.686275%);fill-opacity:1;" d="M 61.851562 12.550781 C 61.851562 13.050781 61.851562 13.550781 61.851562 14.050781 C 61.816406 14.050781 61.785156 14.050781 61.75 14.050781 C 61.683594 14.050781 61.648438 14.015625 61.648438 13.949219 C 61.714844 13.484375 61.785156 13.015625 61.851562 12.550781 Z M 61.851562 12.550781 "/>
<path style=" stroke:none;fill-rule:evenodd;fill:rgb(100%,99.215686%,98.823529%);fill-opacity:1;" d="M 61.851562 12.550781 C 63.714844 12.550781 65.582031 12.550781 67.449219 12.550781 C 67.449219 13.050781 67.449219 13.550781 67.449219 14.050781 C 66.851562 14.050781 66.25 14.050781 65.648438 14.050781 C 65.648438 17.214844 65.648438 20.382812 65.648438 23.550781 C 64.984375 23.550781 64.316406 23.550781 63.648438 23.550781 C 63.648438 20.382812 63.648438 17.214844 63.648438 14.050781 C 63.050781 14.050781 62.449219 14.050781 61.851562 14.050781 C 61.851562 13.550781 61.851562 13.050781 61.851562 12.550781 Z M 61.851562 12.550781 "/>
<path style=" stroke:none;fill-rule:evenodd;fill:rgb(99.215686%,55.686275%,35.686275%);fill-opacity:1;" d="M 67.449219 12.550781 C 67.515625 12.550781 67.582031 12.550781 67.648438 12.550781 C 67.648438 16.214844 67.648438 19.882812 67.648438 23.550781 C 67.582031 20.382812 67.515625 17.214844 67.449219 14.050781 C 67.449219 13.550781 67.449219 13.050781 67.449219 12.550781 Z M 67.449219 12.550781 "/>
<path style=" stroke:none;fill-rule:evenodd;fill:rgb(100%,99.215686%,98.823529%);fill-opacity:1;" d="M 67.648438 12.550781 C 68.785156 12.535156 69.917969 12.550781 71.050781 12.601562 C 73.203125 12.984375 74.054688 14.269531 73.601562 16.449219 C 73.429688 17.234375 73.015625 17.835938 72.351562 18.25 C 72.851562 19.984375 73.351562 21.714844 73.851562 23.449219 C 73.152344 23.550781 72.453125 23.582031 71.75 23.550781 C 71.351562 21.886719 70.953125 20.21875 70.550781 18.550781 C 70.25 18.550781 69.949219 18.550781 69.648438 18.550781 C 69.648438 20.214844 69.648438 21.882812 69.648438 23.550781 C 68.984375 23.550781 68.316406 23.550781 67.648438 23.550781 C 67.648438 19.882812 67.648438 16.214844 67.648438 12.550781 Z M 67.648438 12.550781 "/>
<path style=" stroke:none;fill-rule:evenodd;fill:rgb(100%,98.823529%,98.431373%);fill-opacity:1;" d="M 73.75 12.550781 C 74.382812 12.550781 75.015625 12.550781 75.648438 12.550781 C 76.078125 13.980469 76.492188 15.414062 76.898438 16.851562 C 77.351562 15.460938 77.785156 14.0625 78.199219 12.648438 C 78.808594 12.550781 79.425781 12.519531 80.050781 12.550781 C 79.382812 14.796875 78.667969 17.03125 77.898438 19.25 C 77.851562 20.683594 77.832031 22.117188 77.851562 23.550781 C 77.214844 23.550781 76.582031 23.550781 75.949219 23.550781 C 75.964844 22.117188 75.949219 20.683594 75.898438 19.25 C 75.171875 17.015625 74.457031 14.785156 73.75 12.550781 Z M 73.75 12.550781 "/>
<path style=" stroke:none;fill-rule:evenodd;fill:rgb(99.607843%,100%,99.607843%);fill-opacity:1;" d="M 84.949219 12.648438 C 85.582031 12.648438 86.214844 12.648438 86.851562 12.648438 C 86.851562 16.285156 86.851562 19.917969 86.851562 23.550781 C 86.214844 23.550781 85.582031 23.550781 84.949219 23.550781 C 84.949219 19.917969 84.949219 16.285156 84.949219 12.648438 Z M 84.949219 12.648438 "/>
<path style=" stroke:none;fill-rule:evenodd;fill:rgb(100%,85.098039%,78.431373%);fill-opacity:1;" d="M 84.949219 12.648438 C 85.597656 12.550781 86.265625 12.519531 86.949219 12.550781 C 86.984375 16.234375 86.949219 19.902344 86.851562 23.550781 C 86.851562 19.917969 86.851562 16.285156 86.851562 12.648438 C 86.214844 12.648438 85.582031 12.648438 84.949219 12.648438 Z M 84.949219 12.648438 "/>
<path style=" stroke:none;fill-rule:evenodd;fill:rgb(99.607843%,71.764706%,58.823529%);fill-opacity:1;" d="M 89.351562 12.648438 C 88.882812 12.648438 88.417969 12.648438 87.949219 12.648438 C 87.949219 16.285156 87.949219 19.917969 87.949219 23.550781 C 87.851562 19.902344 87.816406 16.234375 87.851562 12.550781 C 88.371094 12.519531 88.871094 12.550781 89.351562 12.648438 Z M 89.351562 12.648438 "/>
<path style=" stroke:none;fill-rule:evenodd;fill:rgb(100%,99.607843%,99.607843%);fill-opacity:1;" d="M 89.351562 12.648438 C 90.199219 14.613281 91.046875 16.582031 91.898438 18.550781 C 91.949219 16.582031 91.964844 14.617188 91.949219 12.648438 C 92.484375 12.648438 93.015625 12.648438 93.550781 12.648438 C 93.550781 16.285156 93.550781 19.917969 93.550781 23.550781 C 93.113281 23.582031 92.679688 23.550781 92.25 23.449219 C 91.386719 21.425781 90.554688 19.394531 89.75 17.351562 C 89.722656 17.269531 89.671875 17.203125 89.601562 17.148438 C 89.550781 19.28125 89.535156 21.417969 89.550781 23.550781 C 89.015625 23.550781 88.484375 23.550781 87.949219 23.550781 C 87.949219 19.917969 87.949219 16.285156 87.949219 12.648438 C 88.417969 12.648438 88.882812 12.648438 89.351562 12.648438 Z M 89.351562 12.648438 "/>
<path style=" stroke:none;fill-rule:evenodd;fill:rgb(100%,85.098039%,78.431373%);fill-opacity:1;" d="M 91.949219 12.648438 C 92.496094 12.550781 93.0625 12.519531 93.648438 12.550781 C 93.683594 16.234375 93.648438 19.902344 93.550781 23.550781 C 93.550781 19.917969 93.550781 16.285156 93.550781 12.648438 C 93.015625 12.648438 92.484375 12.648438 91.949219 12.648438 Z M 91.949219 12.648438 "/>
<path style=" stroke:none;fill-rule:evenodd;fill:rgb(100%,99.607843%,99.215686%);fill-opacity:1;" d="M 98.449219 18.449219 C 98.476562 18.527344 98.527344 18.59375 98.601562 18.648438 C 98.648438 16.617188 98.667969 14.582031 98.648438 12.550781 C 99.183594 12.550781 99.714844 12.550781 100.25 12.550781 C 100.25 16.214844 100.25 19.882812 100.25 23.550781 C 99.789062 23.578125 99.339844 23.546875 98.898438 23.449219 C 98.035156 21.382812 97.167969 19.316406 96.300781 17.25 C 96.25 19.351562 96.234375 21.449219 96.25 23.550781 C 95.683594 23.550781 95.117188 23.550781 94.550781 23.550781 C 94.550781 19.882812 94.550781 16.214844 94.550781 12.550781 C 95.019531 12.515625 95.488281 12.550781 95.949219 12.648438 C 96.824219 14.570312 97.65625 16.503906 98.449219 18.449219 Z M 98.449219 18.449219 "/>
<path style=" stroke:none;fill-rule:evenodd;fill:rgb(99.607843%,70.196078%,56.862745%);fill-opacity:1;" d="M 98.648438 12.550781 C 98.667969 14.582031 98.648438 16.617188 98.601562 18.648438 C 98.527344 18.59375 98.476562 18.527344 98.449219 18.449219 C 98.515625 16.484375 98.582031 14.515625 98.648438 12.550781 Z M 98.648438 12.550781 "/>
<path style=" stroke:none;fill-rule:evenodd;fill:rgb(100%,98.431373%,98.039216%);fill-opacity:1;" d="M 107.550781 12.550781 C 108.175781 12.519531 108.792969 12.550781 109.398438 12.648438 C 109.878906 15.082031 110.347656 17.511719 110.800781 19.949219 C 111.238281 17.480469 111.6875 15.011719 112.148438 12.550781 C 112.75 12.550781 113.351562 12.550781 113.949219 12.550781 C 113.230469 16.21875 112.496094 19.886719 111.75 23.550781 C 111.082031 23.550781 110.417969 23.550781 109.75 23.550781 C 109.054688 19.875 108.320312 16.207031 107.550781 12.550781 Z M 107.550781 12.550781 "/>
<path style=" stroke:none;fill-rule:evenodd;fill:rgb(100%,98.431373%,97.647059%);fill-opacity:1;" d="M 119.949219 23.351562 C 119.394531 23.546875 118.792969 23.613281 118.148438 23.550781 C 117.980469 22.722656 117.847656 21.890625 117.75 21.050781 C 117.082031 21.050781 116.417969 21.050781 115.75 21.050781 C 115.664062 21.859375 115.53125 22.660156 115.351562 23.449219 C 114.71875 23.550781 114.085938 23.582031 113.449219 23.550781 C 114.183594 19.882812 114.917969 16.214844 115.648438 12.550781 C 116.382812 12.550781 117.117188 12.550781 117.851562 12.550781 C 118.53125 16.15625 119.230469 19.753906 119.949219 23.351562 Z M 119.949219 23.351562 "/>
<path style=" stroke:none;fill-rule:evenodd;fill:rgb(100%,99.607843%,99.215686%);fill-opacity:1;" d="M 124.851562 14.050781 C 124.25 14.050781 123.648438 14.050781 123.050781 14.050781 C 123.050781 17.214844 123.050781 20.382812 123.050781 23.550781 C 122.382812 23.550781 121.71875 23.550781 121.050781 23.550781 C 121.050781 20.382812 121.050781 17.214844 121.050781 14.050781 C 120.449219 14.050781 119.851562 14.050781 119.25 14.050781 C 119.25 13.550781 119.25 13.050781 119.25 12.550781 C 121.117188 12.550781 122.984375 12.550781 124.851562 12.550781 C 124.851562 13.050781 124.851562 13.550781 124.851562 14.050781 Z M 124.851562 14.050781 "/>
<path style=" stroke:none;fill-rule:evenodd;fill:rgb(100%,99.607843%,99.607843%);fill-opacity:1;" d="M 125.050781 12.550781 C 125.71875 12.550781 126.382812 12.550781 127.050781 12.550781 C 127.050781 16.214844 127.050781 19.882812 127.050781 23.550781 C 126.382812 23.550781 125.71875 23.550781 125.050781 23.550781 C 125.050781 19.882812 125.050781 16.214844 125.050781 12.550781 Z M 125.050781 12.550781 "/>
<path style=" stroke:none;fill-rule:evenodd;fill:rgb(99.607843%,71.764706%,58.823529%);fill-opacity:1;" d="M 136.351562 12.648438 C 135.882812 12.648438 135.417969 12.648438 134.949219 12.648438 C 134.949219 16.285156 134.949219 19.917969 134.949219 23.550781 C 134.851562 19.902344 134.816406 16.234375 134.851562 12.550781 C 135.367188 12.519531 135.867188 12.550781 136.351562 12.648438 Z M 136.351562 12.648438 "/>
<path style=" stroke:none;fill-rule:evenodd;fill:rgb(100%,99.215686%,99.215686%);fill-opacity:1;" d="M 136.351562 12.648438 C 137.210938 14.605469 138.046875 16.574219 138.851562 18.550781 C 138.878906 18.628906 138.929688 18.695312 139 18.75 C 139.050781 16.71875 139.066406 14.683594 139.050781 12.648438 C 139.582031 12.648438 140.117188 12.648438 140.648438 12.648438 C 140.648438 16.285156 140.648438 19.917969 140.648438 23.550781 C 140.179688 23.582031 139.710938 23.550781 139.25 23.449219 C 138.390625 21.386719 137.539062 19.320312 136.699219 17.25 C 136.648438 19.351562 136.632812 21.449219 136.648438 23.550781 C 136.082031 23.550781 135.515625 23.550781 134.949219 23.550781 C 134.949219 19.917969 134.949219 16.285156 134.949219 12.648438 C 135.417969 12.648438 135.882812 12.648438 136.351562 12.648438 Z M 136.351562 12.648438 "/>
<path style=" stroke:none;fill-rule:evenodd;fill:rgb(100%,85.098039%,78.431373%);fill-opacity:1;" d="M 140.648438 12.648438 C 140.117188 12.648438 139.582031 12.648438 139.050781 12.648438 C 139.066406 14.683594 139.050781 16.71875 139 18.75 C 138.929688 18.695312 138.878906 18.628906 138.851562 18.550781 C 138.949219 16.566406 138.984375 14.566406 138.949219 12.550781 C 139.535156 12.519531 140.101562 12.550781 140.648438 12.648438 Z M 140.648438 12.648438 "/>
<path style=" stroke:none;fill-rule:evenodd;fill:rgb(99.215686%,41.960784%,15.686275%);fill-opacity:1;" d="M 103.75 13.949219 C 104.421875 13.828125 104.902344 14.058594 105.199219 14.648438 C 105.265625 16.882812 105.265625 19.117188 105.199219 21.351562 C 105.097656 21.933594 104.75 22.199219 104.148438 22.148438 C 103.511719 22.195312 103.160156 21.894531 103.101562 21.25 C 103.03125 19.082031 103.03125 16.917969 103.101562 14.75 C 103.230469 14.402344 103.445312 14.136719 103.75 13.949219 Z M 103.75 13.949219 "/>
<path style=" stroke:none;fill-rule:evenodd;fill:rgb(99.215686%,41.960784%,15.686275%);fill-opacity:1;" d="M 130.550781 13.949219 C 131.410156 13.769531 131.929688 14.105469 132.101562 14.949219 C 132.167969 17.015625 132.167969 19.082031 132.101562 21.148438 C 131.925781 22.089844 131.375 22.40625 130.449219 22.101562 C 130.21875 21.9375 130.070312 21.71875 130 21.449219 C 129.933594 19.148438 129.933594 16.851562 130 14.550781 C 130.136719 14.296875 130.320312 14.097656 130.550781 13.949219 Z M 130.550781 13.949219 "/>
<path style=" stroke:none;fill-rule:evenodd;fill:rgb(99.215686%,41.176471%,14.509804%);fill-opacity:1;" d="M 44.949219 14.050781 C 45.511719 13.992188 46.042969 14.074219 46.550781 14.300781 C 46.621094 14.425781 46.703125 14.542969 46.800781 14.648438 C 46.867188 16.882812 46.867188 19.117188 46.800781 21.351562 C 46.722656 21.660156 46.539062 21.875 46.25 22 C 45.828125 22.128906 45.394531 22.179688 44.949219 22.148438 C 44.949219 19.449219 44.949219 16.75 44.949219 14.050781 Z M 44.949219 14.050781 "/>
<path style=" stroke:none;fill-rule:evenodd;fill:rgb(99.215686%,41.960784%,15.686275%);fill-opacity:1;" d="M 69.648438 13.949219 C 71.445312 13.867188 72.09375 14.699219 71.601562 16.449219 C 71.472656 16.878906 71.191406 17.128906 70.75 17.199219 C 70.386719 17.25 70.019531 17.265625 69.648438 17.25 C 69.648438 16.148438 69.648438 15.050781 69.648438 13.949219 Z M 69.648438 13.949219 "/>
<path style=" stroke:none;fill-rule:evenodd;fill:rgb(99.607843%,68.627451%,54.509804%);fill-opacity:1;" d="M 67.449219 14.050781 C 66.902344 14.148438 66.335938 14.183594 65.75 14.148438 C 65.78125 17.300781 65.75 20.433594 65.648438 23.550781 C 65.648438 20.382812 65.648438 17.214844 65.648438 14.050781 C 66.25 14.050781 66.851562 14.050781 67.449219 14.050781 Z M 67.449219 14.050781 "/>
<path style=" stroke:none;fill-rule:evenodd;fill:rgb(99.607843%,56.078431%,36.078431%);fill-opacity:1;" d="M 124.851562 14.050781 C 124.300781 14.148438 123.734375 14.183594 123.148438 14.148438 C 123.183594 17.300781 123.148438 20.433594 123.050781 23.550781 C 123.050781 20.382812 123.050781 17.214844 123.050781 14.050781 C 123.648438 14.050781 124.25 14.050781 124.851562 14.050781 Z M 124.851562 14.050781 "/>
<path style=" stroke:none;fill-rule:evenodd;fill:rgb(99.215686%,42.745098%,16.862745%);fill-opacity:1;" d="M 116.75 15.648438 C 117.046875 16.960938 117.28125 18.292969 117.449219 19.648438 C 116.984375 19.648438 116.515625 19.648438 116.050781 19.648438 C 116.261719 18.308594 116.496094 16.976562 116.75 15.648438 Z M 116.75 15.648438 "/>
<path style=" stroke:none;fill-rule:evenodd;fill:rgb(99.215686%,41.568627%,15.294118%);fill-opacity:1;" d="M 18.648438 16.550781 C 19.972656 16.386719 20.792969 16.953125 21.101562 18.25 C 21.199219 18.644531 21.265625 19.042969 21.300781 19.449219 C 21.367188 21.382812 21.367188 23.316406 21.300781 25.25 C 20.511719 26.433594 19.464844 26.75 18.148438 26.199219 C 17.523438 25.589844 17.207031 24.839844 17.199219 23.949219 C 17.113281 22.148438 17.148438 20.347656 17.300781 18.550781 C 17.386719 17.617188 17.835938 16.949219 18.648438 16.550781 Z M 18.648438 16.550781 "/>
<path style=" stroke:none;fill-rule:evenodd;fill:rgb(99.607843%,56.470588%,36.470588%);fill-opacity:1;" d="M 38.148438 17.449219 C 38.082031 19.484375 38.015625 21.515625 37.949219 23.550781 C 37.933594 21.417969 37.949219 19.28125 38 17.148438 C 38.050781 17.253906 38.101562 17.351562 38.148438 17.449219 Z M 38.148438 17.449219 "/>
<path style=" stroke:none;fill-rule:evenodd;fill:rgb(99.607843%,70.588235%,57.254902%);fill-opacity:1;" d="M 89.75 17.351562 C 89.683594 19.417969 89.617188 21.484375 89.550781 23.550781 C 89.535156 21.417969 89.550781 19.28125 89.601562 17.148438 C 89.671875 17.203125 89.722656 17.269531 89.75 17.351562 Z M 89.75 17.351562 "/>
<path style=" stroke:none;fill-rule:evenodd;fill:rgb(100%,98.039216%,97.254902%);fill-opacity:1;" d="M 79.851562 21.75 C 80.484375 21.75 81.117188 21.75 81.75 21.75 C 81.765625 22.417969 81.75 23.085938 81.699219 23.75 C 81.621094 24.695312 81.121094 25.261719 80.199219 25.449219 C 80.066406 25.199219 79.984375 24.929688 79.949219 24.648438 C 80.503906 24.496094 80.800781 24.128906 80.851562 23.550781 C 80.515625 23.550781 80.183594 23.550781 79.851562 23.550781 C 79.851562 22.949219 79.851562 22.351562 79.851562 21.75 Z M 79.851562 21.75 "/>
<path style=" stroke:none;fill-rule:evenodd;fill:rgb(99.607843%,56.862745%,37.647059%);fill-opacity:1;" d="M 119.949219 23.351562 C 120.039062 23.421875 120.074219 23.519531 120.050781 23.648438 C 119.398438 23.683594 118.765625 23.648438 118.148438 23.550781 C 118.792969 23.613281 119.394531 23.546875 119.949219 23.351562 Z M 119.949219 23.351562 "/>
<path style=" stroke:none;fill-rule:evenodd;fill:rgb(99.215686%,55.686275%,35.686275%);fill-opacity:1;" d="M 21.25 33.449219 C 21.28125 32.066406 21.25 30.699219 21.148438 29.351562 C 21.179688 29.269531 21.226562 29.203125 21.300781 29.148438 C 21.382812 30.601562 21.367188 32.035156 21.25 33.449219 Z M 21.25 33.449219 "/>
<path style=" stroke:none;fill-rule:evenodd;fill:rgb(99.607843%,69.803922%,56.078431%);fill-opacity:1;" d="M 37.050781 30.550781 C 36.308594 30.519531 35.574219 30.554688 34.851562 30.648438 C 35.175781 30.519531 35.542969 30.449219 35.949219 30.449219 C 36.335938 30.449219 36.703125 30.484375 37.050781 30.550781 Z M 37.050781 30.550781 "/>
<path style=" stroke:none;fill-rule:evenodd;fill:rgb(99.607843%,69.803922%,56.078431%);fill-opacity:1;" d="M 82.148438 30.550781 C 81.40625 30.519531 80.675781 30.554688 79.949219 30.648438 C 80.277344 30.519531 80.644531 30.449219 81.050781 30.449219 C 81.433594 30.449219 81.800781 30.484375 82.148438 30.550781 Z M 82.148438 30.550781 "/>
<path style=" stroke:none;fill-rule:evenodd;fill:rgb(100%,98.823529%,98.431373%);fill-opacity:1;" d="M 86.75 30.351562 C 89.035156 30.132812 90.167969 31.167969 90.148438 33.449219 C 89.582031 33.492188 89.011719 33.558594 88.449219 33.648438 C 88.511719 33.078125 88.378906 32.558594 88.050781 32.101562 C 86.789062 31.761719 86.304688 32.246094 86.601562 33.550781 C 87.082031 34.300781 87.699219 34.917969 88.449219 35.398438 C 89.300781 36.089844 89.917969 36.9375 90.300781 37.949219 C 90.671875 40.546875 89.554688 41.761719 86.949219 41.601562 C 85.253906 41.09375 84.488281 39.945312 84.648438 38.148438 C 85.214844 38.058594 85.78125 37.992188 86.351562 37.949219 C 86.371094 38.503906 86.488281 39.035156 86.699219 39.550781 C 87.089844 40.054688 87.574219 40.171875 88.148438 39.898438 C 88.597656 39.066406 88.515625 38.285156 87.898438 37.550781 C 87.066406 36.816406 86.234375 36.082031 85.398438 35.351562 C 84.605469 34.207031 84.4375 32.972656 84.898438 31.648438 C 85.359375 30.980469 85.972656 30.546875 86.75 30.351562 Z M 86.75 30.351562 "/>
<path style=" stroke:none;fill-rule:evenodd;fill:rgb(99.607843%,70.196078%,56.470588%);fill-opacity:1;" d="M 90.25 30.550781 C 92.132812 30.449219 94.03125 30.417969 95.949219 30.449219 C 95.949219 30.984375 95.949219 31.515625 95.949219 32.050781 C 95.351562 32.050781 94.75 32.050781 94.148438 32.050781 C 94.699219 31.949219 95.265625 31.917969 95.851562 31.949219 C 95.851562 31.484375 95.851562 31.015625 95.851562 30.550781 C 93.984375 30.550781 92.117188 30.550781 90.25 30.550781 Z M 90.25 30.550781 "/>
<path style=" stroke:none;fill-rule:evenodd;fill:rgb(100%,99.215686%,98.823529%);fill-opacity:1;" d="M 116.148438 32.851562 C 116.148438 33.382812 116.148438 33.917969 116.148438 34.449219 C 115.515625 34.449219 114.882812 34.449219 114.25 34.449219 C 114.292969 33.707031 114.242188 32.972656 114.101562 32.25 C 113.679688 31.828125 113.195312 31.746094 112.648438 32 C 112.488281 32.207031 112.339844 32.425781 112.199219 32.648438 C 112.132812 34.785156 112.132812 36.917969 112.199219 39.050781 C 112.449219 40.109375 113.050781 40.375 114 39.851562 C 114.066406 39.714844 114.132812 39.582031 114.199219 39.449219 C 114.25 38.75 114.265625 38.050781 114.25 37.351562 C 114.917969 37.351562 115.582031 37.351562 116.25 37.351562 C 116.386719 38.554688 116.167969 39.6875 115.601562 40.75 C 114.765625 41.515625 113.78125 41.796875 112.648438 41.601562 C 111.1875 41.371094 110.371094 40.523438 110.199219 39.050781 C 110.132812 36.949219 110.132812 34.851562 110.199219 32.75 C 110.679688 30.851562 111.898438 30.066406 113.851562 30.398438 C 115.289062 30.589844 116.054688 31.40625 116.148438 32.851562 Z M 116.148438 32.851562 "/>
<path style=" stroke:none;fill-rule:evenodd;fill:rgb(100%,98.823529%,98.039216%);fill-opacity:1;" d="M 37.050781 30.550781 C 37.792969 34.214844 38.527344 37.878906 39.25 41.550781 C 38.617188 41.550781 37.984375 41.550781 37.351562 41.550781 C 37.238281 40.679688 37.105469 39.8125 36.949219 38.949219 C 36.316406 38.949219 35.683594 38.949219 35.050781 38.949219 C 34.902344 39.714844 34.765625 40.480469 34.648438 41.25 C 34.34375 41.375 34.011719 41.441406 33.648438 41.449219 C 33.308594 41.449219 33.007812 41.382812 32.75 41.25 C 33.425781 37.714844 34.125 34.179688 34.851562 30.648438 C 35.574219 30.554688 36.308594 30.519531 37.050781 30.550781 Z M 37.050781 30.550781 "/>
<path style=" stroke:none;fill-rule:evenodd;fill:rgb(100%,82.352941%,74.117647%);fill-opacity:1;" d="M 41.148438 30.550781 C 40.714844 30.550781 40.285156 30.550781 39.851562 30.550781 C 39.851562 34.183594 39.851562 37.816406 39.851562 41.449219 C 40.382812 41.449219 40.917969 41.449219 41.449219 41.449219 C 40.902344 41.550781 40.335938 41.582031 39.75 41.550781 C 39.75 37.851562 39.75 34.148438 39.75 30.449219 C 40.234375 30.417969 40.703125 30.453125 41.148438 30.550781 Z M 41.148438 30.550781 "/>
<path style=" stroke:none;fill-rule:evenodd;fill:rgb(100%,99.607843%,99.607843%);fill-opacity:1;" d="M 41.148438 30.550781 C 42.007812 32.433594 42.839844 34.332031 43.648438 36.25 C 43.699219 36.347656 43.75 36.449219 43.800781 36.550781 C 43.851562 34.550781 43.867188 32.550781 43.851562 30.550781 C 44.382812 30.550781 44.917969 30.550781 45.449219 30.550781 C 45.449219 34.183594 45.449219 37.816406 45.449219 41.449219 C 45.015625 41.449219 44.582031 41.449219 44.148438 41.449219 C 43.296875 39.425781 42.464844 37.390625 41.648438 35.351562 C 41.621094 35.269531 41.570312 35.203125 41.5 35.148438 C 41.449219 37.25 41.433594 39.351562 41.449219 41.449219 C 40.917969 41.449219 40.382812 41.449219 39.851562 41.449219 C 39.851562 37.816406 39.851562 34.183594 39.851562 30.550781 C 40.285156 30.550781 40.714844 30.550781 41.148438 30.550781 Z M 41.148438 30.550781 "/>
<path style=" stroke:none;fill-rule:evenodd;fill:rgb(99.607843%,56.078431%,36.078431%);fill-opacity:1;" d="M 43.851562 30.550781 C 43.867188 32.550781 43.851562 34.550781 43.800781 36.550781 C 43.75 36.449219 43.699219 36.347656 43.648438 36.25 C 43.714844 34.351562 43.785156 32.449219 43.851562 30.550781 Z M 43.851562 30.550781 "/>
<path style=" stroke:none;fill-rule:evenodd;fill:rgb(99.607843%,70.196078%,56.862745%);fill-opacity:1;" d="M 43.851562 30.550781 C 44.398438 30.449219 44.964844 30.417969 45.550781 30.449219 C 45.550781 34.148438 45.550781 37.851562 45.550781 41.550781 C 45.0625 41.582031 44.597656 41.546875 44.148438 41.449219 C 44.582031 41.449219 45.015625 41.449219 45.449219 41.449219 C 45.449219 37.816406 45.449219 34.183594 45.449219 30.550781 C 44.917969 30.550781 44.382812 30.550781 43.851562 30.550781 Z M 43.851562 30.550781 "/>
<path style=" stroke:none;fill-rule:evenodd;fill:rgb(99.607843%,69.803922%,56.078431%);fill-opacity:1;" d="M 49.949219 30.550781 C 48.851562 30.550781 47.75 30.550781 46.648438 30.550781 C 46.648438 34.183594 46.648438 37.816406 46.648438 41.449219 C 47.714844 41.449219 48.785156 41.449219 49.851562 41.449219 C 48.769531 41.550781 47.667969 41.582031 46.550781 41.550781 C 46.550781 37.851562 46.550781 34.148438 46.550781 30.449219 C 47.703125 30.417969 48.835938 30.449219 49.949219 30.550781 Z M 49.949219 30.550781 "/>
<path style=" stroke:none;fill-rule:evenodd;fill:rgb(100%,99.215686%,98.823529%);fill-opacity:1;" d="M 49.949219 30.550781 C 51.441406 30.625 52.324219 31.390625 52.601562 32.851562 C 52.667969 34.851562 52.667969 36.851562 52.601562 38.851562 C 52.441406 40.523438 51.527344 41.390625 49.851562 41.449219 C 48.785156 41.449219 47.714844 41.449219 46.648438 41.449219 C 46.648438 37.816406 46.648438 34.183594 46.648438 30.550781 C 47.75 30.550781 48.851562 30.550781 49.949219 30.550781 Z M 49.949219 30.550781 "/>
<path style=" stroke:none;fill-rule:evenodd;fill:rgb(99.607843%,70.196078%,56.862745%);fill-opacity:1;" d="M 58.351562 30.550781 C 57.714844 30.550781 57.082031 30.550781 56.449219 30.550781 C 56.449219 34.183594 56.449219 37.816406 56.449219 41.449219 C 57.082031 41.449219 57.714844 41.449219 58.351562 41.449219 C 57.703125 41.550781 57.035156 41.582031 56.351562 41.550781 C 56.351562 37.851562 56.351562 34.148438 56.351562 30.449219 C 57.035156 30.417969 57.703125 30.449219 58.351562 30.550781 Z M 58.351562 30.550781 "/>
<path style=" stroke:none;fill-rule:evenodd;fill:rgb(99.607843%,100%,99.607843%);fill-opacity:1;" d="M 58.351562 30.550781 C 58.351562 34.183594 58.351562 37.816406 58.351562 41.449219 C 57.714844 41.449219 57.082031 41.449219 56.449219 41.449219 C 56.449219 37.816406 56.449219 34.183594 56.449219 30.550781 C 57.082031 30.550781 57.714844 30.550781 58.351562 30.550781 Z M 58.351562 30.550781 "/>
<path style=" stroke:none;fill-rule:evenodd;fill:rgb(100%,99.215686%,99.215686%);fill-opacity:1;" d="M 63.449219 36.449219 C 63.476562 36.527344 63.527344 36.59375 63.601562 36.648438 C 63.648438 34.617188 63.667969 32.582031 63.648438 30.550781 C 64.183594 30.550781 64.714844 30.550781 65.25 30.550781 C 65.25 34.214844 65.25 37.882812 65.25 41.550781 C 64.789062 41.578125 64.339844 41.546875 63.898438 41.449219 C 63.054688 39.34375 62.1875 37.242188 61.300781 35.148438 C 61.25 37.28125 61.234375 39.417969 61.25 41.550781 C 60.683594 41.550781 60.117188 41.550781 59.550781 41.550781 C 59.550781 37.851562 59.550781 34.148438 59.550781 30.449219 C 60.019531 30.417969 60.488281 30.449219 60.949219 30.550781 C 61.8125 32.507812 62.644531 34.476562 63.449219 36.449219 Z M 63.449219 36.449219 "/>
<path style=" stroke:none;fill-rule:evenodd;fill:rgb(100%,82.352941%,74.509804%);fill-opacity:1;" d="M 65.25 30.550781 C 64.714844 30.550781 64.183594 30.550781 63.648438 30.550781 C 63.667969 32.582031 63.648438 34.617188 63.601562 36.648438 C 63.527344 36.59375 63.476562 36.527344 63.449219 36.449219 C 63.550781 34.46875 63.582031 32.46875 63.550781 30.449219 C 64.136719 30.417969 64.703125 30.449219 65.25 30.550781 Z M 65.25 30.550781 "/>
<path style=" stroke:none;fill-rule:evenodd;fill:rgb(100%,99.215686%,98.823529%);fill-opacity:1;" d="M 70.851562 31.851562 C 70.015625 31.851562 69.183594 31.851562 68.351562 31.851562 C 68.316406 32.933594 68.351562 34 68.449219 35.050781 C 69.082031 35.050781 69.714844 35.050781 70.351562 35.050781 C 70.351562 35.515625 70.351562 35.984375 70.351562 36.449219 C 69.683594 36.449219 69.015625 36.449219 68.351562 36.449219 C 68.351562 38.117188 68.351562 39.785156 68.351562 41.449219 C 67.703125 41.550781 67.035156 41.582031 66.351562 41.550781 C 66.351562 37.851562 66.351562 34.148438 66.351562 30.449219 C 67.851562 30.449219 69.351562 30.449219 70.851562 30.449219 C 70.851562 30.917969 70.851562 31.382812 70.851562 31.851562 Z M 70.851562 31.851562 "/>
<path style=" stroke:none;fill-rule:evenodd;fill:rgb(100%,82.352941%,74.117647%);fill-opacity:1;" d="M 74.648438 30.550781 C 73.582031 30.550781 72.515625 30.550781 71.449219 30.550781 C 71.449219 34.183594 71.449219 37.816406 71.449219 41.449219 C 71.417969 41.449219 71.382812 41.449219 71.351562 41.449219 C 71.351562 37.785156 71.351562 34.117188 71.351562 30.449219 C 72.46875 30.417969 73.566406 30.449219 74.648438 30.550781 Z M 74.648438 30.550781 "/>
<path style=" stroke:none;fill-rule:evenodd;fill:rgb(100%,99.215686%,98.823529%);fill-opacity:1;" d="M 74.648438 30.550781 C 75.972656 30.519531 76.855469 31.117188 77.300781 32.351562 C 77.367188 33.082031 77.367188 33.816406 77.300781 34.550781 C 77.164062 35.21875 76.800781 35.71875 76.199219 36.050781 C 76.183594 36.117188 76.167969 36.183594 76.148438 36.25 C 76.632812 37.949219 77.097656 39.648438 77.550781 41.351562 C 76.902344 41.449219 76.234375 41.480469 75.550781 41.449219 C 75.164062 39.800781 74.730469 38.167969 74.25 36.550781 C 73.972656 36.453125 73.671875 36.417969 73.351562 36.449219 C 73.351562 38.117188 73.351562 39.785156 73.351562 41.449219 C 72.714844 41.449219 72.082031 41.449219 71.449219 41.449219 C 71.449219 37.816406 71.449219 34.183594 71.449219 30.550781 C 72.515625 30.550781 73.582031 30.550781 74.648438 30.550781 Z M 74.648438 30.550781 "/>
<path style=" stroke:none;fill-rule:evenodd;fill:rgb(100%,98.823529%,98.039216%);fill-opacity:1;" d="M 82.148438 30.550781 C 82.921875 34.207031 83.65625 37.875 84.351562 41.550781 C 83.714844 41.550781 83.082031 41.550781 82.449219 41.550781 C 82.308594 40.683594 82.175781 39.820312 82.050781 38.949219 C 81.414062 38.917969 80.78125 38.949219 80.148438 39.050781 C 79.976562 39.777344 79.84375 40.507812 79.75 41.25 C 79.441406 41.375 79.109375 41.441406 78.75 41.449219 C 78.410156 41.449219 78.109375 41.382812 77.851562 41.25 C 78.523438 37.714844 79.222656 34.179688 79.949219 30.648438 C 80.675781 30.554688 81.40625 30.519531 82.148438 30.550781 Z M 82.148438 30.550781 "/>
<path style=" stroke:none;fill-rule:evenodd;fill:rgb(100%,99.607843%,99.607843%);fill-opacity:1;" d="M 90.25 30.550781 C 92.117188 30.550781 93.984375 30.550781 95.851562 30.550781 C 95.851562 31.015625 95.851562 31.484375 95.851562 31.949219 C 95.265625 31.917969 94.699219 31.949219 94.148438 32.050781 C 94.050781 35.167969 94.015625 38.300781 94.050781 41.449219 C 93.417969 41.449219 92.785156 41.449219 92.148438 41.449219 C 92.183594 38.300781 92.148438 35.167969 92.050781 32.050781 C 91.449219 32.050781 90.851562 32.050781 90.25 32.050781 C 90.25 31.550781 90.25 31.050781 90.25 30.550781 Z M 90.25 30.550781 "/>
<path style=" stroke:none;fill-rule:evenodd;fill:rgb(99.607843%,69.803922%,56.470588%);fill-opacity:1;" d="M 99.550781 30.550781 C 98.449219 30.550781 97.351562 30.550781 96.25 30.550781 C 96.25 34.183594 96.25 37.816406 96.25 41.449219 C 96.917969 41.449219 97.582031 41.449219 98.25 41.449219 C 97.570312 41.550781 96.867188 41.582031 96.148438 41.550781 C 96.148438 37.851562 96.148438 34.148438 96.148438 30.449219 C 97.300781 30.417969 98.433594 30.449219 99.550781 30.550781 Z M 99.550781 30.550781 "/>
<path style=" stroke:none;fill-rule:evenodd;fill:rgb(100%,99.215686%,98.823529%);fill-opacity:1;" d="M 99.550781 30.550781 C 101.359375 30.644531 102.261719 31.59375 102.25 33.398438 C 102.324219 34.585938 101.890625 35.519531 100.949219 36.199219 C 101.46875 37.871094 101.933594 39.554688 102.351562 41.25 C 101.726562 41.445312 101.058594 41.511719 100.351562 41.449219 C 99.980469 39.808594 99.5625 38.175781 99.101562 36.550781 C 98.828125 36.457031 98.542969 36.421875 98.25 36.449219 C 98.25 38.117188 98.25 39.785156 98.25 41.449219 C 97.582031 41.449219 96.917969 41.449219 96.25 41.449219 C 96.25 37.816406 96.25 34.183594 96.25 30.550781 C 97.351562 30.550781 98.449219 30.550781 99.550781 30.550781 Z M 99.550781 30.550781 "/>
<path style=" stroke:none;fill-rule:evenodd;fill:rgb(99.607843%,69.803922%,56.078431%);fill-opacity:1;" d="M 105.050781 30.550781 C 104.417969 30.550781 103.78125 30.550781 103.148438 30.550781 C 103.148438 33.25 103.148438 35.949219 103.148438 38.648438 C 103.050781 35.933594 103.015625 33.199219 103.050781 30.449219 C 103.734375 30.417969 104.402344 30.449219 105.050781 30.550781 Z M 105.050781 30.550781 "/>
<path style=" stroke:none;fill-rule:evenodd;fill:rgb(100%,99.607843%,99.215686%);fill-opacity:1;" d="M 105.050781 30.550781 C 105.03125 33.25 105.050781 35.949219 105.101562 38.648438 C 105.179688 40.003906 105.8125 40.371094 107 39.75 C 107.175781 39.40625 107.273438 39.039062 107.300781 38.648438 C 107.351562 35.949219 107.367188 33.25 107.351562 30.550781 C 107.984375 30.550781 108.617188 30.550781 109.25 30.550781 C 109.25 33.25 109.25 35.949219 109.25 38.648438 C 109.070312 40.992188 107.804688 41.976562 105.449219 41.601562 C 103.90625 41.238281 103.140625 40.253906 103.148438 38.648438 C 103.148438 35.949219 103.148438 33.25 103.148438 30.550781 C 103.78125 30.550781 104.417969 30.550781 105.050781 30.550781 Z M 105.050781 30.550781 "/>
<path style=" stroke:none;fill-rule:evenodd;fill:rgb(99.607843%,69.803922%,56.078431%);fill-opacity:1;" d="M 107.351562 30.550781 C 107.996094 30.449219 108.664062 30.417969 109.351562 30.449219 C 109.382812 33.199219 109.351562 35.933594 109.25 38.648438 C 109.25 35.949219 109.25 33.25 109.25 30.550781 C 108.617188 30.550781 107.984375 30.550781 107.351562 30.550781 Z M 107.351562 30.550781 "/>
<path style=" stroke:none;fill-rule:evenodd;fill:rgb(100%,98.823529%,98.039216%);fill-opacity:1;" d="M 118.148438 41.449219 C 118.148438 38.285156 118.148438 35.117188 118.148438 31.949219 C 117.515625 31.949219 116.882812 31.949219 116.25 31.949219 C 116.25 31.449219 116.25 30.949219 116.25 30.449219 C 118.148438 30.449219 120.050781 30.449219 121.949219 30.449219 C 121.949219 30.984375 121.949219 31.515625 121.949219 32.050781 C 121.351562 32.050781 120.75 32.050781 120.148438 32.050781 C 120.148438 35.214844 120.148438 38.382812 120.148438 41.550781 C 119.464844 41.582031 118.796875 41.550781 118.148438 41.449219 Z M 118.148438 41.449219 "/>
<path style=" stroke:none;fill-rule:evenodd;fill:rgb(100%,99.607843%,99.215686%);fill-opacity:1;" d="M 122.148438 30.550781 C 122.78125 30.550781 123.417969 30.550781 124.050781 30.550781 C 124.015625 33.234375 124.050781 35.902344 124.148438 38.550781 C 124.109375 39.695312 124.644531 40.175781 125.75 40 C 126.171875 39.65625 126.371094 39.203125 126.351562 38.648438 C 126.449219 35.96875 126.484375 33.265625 126.449219 30.550781 C 127.082031 30.550781 127.71875 30.550781 128.351562 30.550781 C 128.394531 33.554688 128.34375 36.554688 128.199219 39.550781 C 127.777344 41.0625 126.777344 41.761719 125.199219 41.648438 C 123.671875 41.71875 122.703125 41.019531 122.300781 39.550781 C 122.15625 36.554688 122.105469 33.554688 122.148438 30.550781 Z M 122.148438 30.550781 "/>
<path style=" stroke:none;fill-rule:evenodd;fill:rgb(100%,82.745098%,74.901961%);fill-opacity:1;" d="M 122.148438 30.550781 C 122.796875 30.449219 123.464844 30.417969 124.148438 30.449219 C 124.148438 33.148438 124.148438 35.851562 124.148438 38.550781 C 124.050781 35.902344 124.015625 33.234375 124.050781 30.550781 C 123.417969 30.550781 122.78125 30.550781 122.148438 30.550781 Z M 122.148438 30.550781 "/>
<path style=" stroke:none;fill-rule:evenodd;fill:rgb(100%,82.745098%,74.901961%);fill-opacity:1;" d="M 128.351562 30.550781 C 127.71875 30.550781 127.082031 30.550781 126.449219 30.550781 C 126.484375 33.265625 126.449219 35.96875 126.351562 38.648438 C 126.351562 35.917969 126.351562 33.183594 126.351562 30.449219 C 127.035156 30.417969 127.703125 30.449219 128.351562 30.550781 Z M 128.351562 30.550781 "/>
<path style=" stroke:none;fill-rule:evenodd;fill:rgb(100%,98.823529%,98.431373%);fill-opacity:1;" d="M 132.25 36.550781 C 131.972656 36.453125 131.671875 36.417969 131.351562 36.449219 C 131.351562 38.117188 131.351562 39.785156 131.351562 41.449219 C 130.703125 41.550781 130.035156 41.582031 129.351562 41.550781 C 129.351562 37.851562 129.351562 34.148438 129.351562 30.449219 C 130.65625 30.414062 131.953125 30.460938 133.25 30.601562 C 134.3125 30.796875 134.996094 31.414062 135.300781 32.449219 C 135.367188 33.117188 135.367188 33.785156 135.300781 34.449219 C 135.183594 35.230469 134.769531 35.78125 134.050781 36.101562 C 134.59375 37.90625 135.09375 39.722656 135.550781 41.550781 C 134.882812 41.550781 134.21875 41.550781 133.550781 41.550781 C 133.148438 39.875 132.714844 38.207031 132.25 36.550781 Z M 132.25 36.550781 "/>
<path style=" stroke:none;fill-rule:evenodd;fill:rgb(100%,98.823529%,98.431373%);fill-opacity:1;" d="M 140.351562 35.050781 C 140.351562 35.515625 140.351562 35.984375 140.351562 36.449219 C 139.664062 36.417969 138.996094 36.449219 138.351562 36.550781 C 138.351562 37.714844 138.351562 38.882812 138.351562 40.050781 C 139.21875 40.050781 140.082031 40.050781 140.949219 40.050781 C 140.949219 40.550781 140.949219 41.050781 140.949219 41.550781 C 139.417969 41.550781 137.882812 41.550781 136.351562 41.550781 C 136.351562 37.851562 136.351562 34.148438 136.351562 30.449219 C 137.882812 30.449219 139.417969 30.449219 140.949219 30.449219 C 140.949219 30.949219 140.949219 31.449219 140.949219 31.949219 C 140.082031 31.949219 139.21875 31.949219 138.351562 31.949219 C 138.351562 32.984375 138.351562 34.015625 138.351562 35.050781 C 139.015625 35.050781 139.683594 35.050781 140.351562 35.050781 Z M 140.351562 35.050781 "/>
<path style=" stroke:none;fill-rule:evenodd;fill:rgb(99.215686%,41.176471%,14.509804%);fill-opacity:1;" d="M 48.648438 31.949219 C 49.125 31.925781 49.589844 31.976562 50.050781 32.101562 C 50.238281 32.253906 50.386719 32.4375 50.5 32.648438 C 50.566406 34.851562 50.566406 37.050781 50.5 39.25 C 50.410156 39.511719 50.261719 39.726562 50.050781 39.898438 C 49.59375 40.03125 49.125 40.082031 48.648438 40.050781 C 48.648438 37.351562 48.648438 34.648438 48.648438 31.949219 Z M 48.648438 31.949219 "/>
<path style=" stroke:none;fill-rule:evenodd;fill:rgb(99.607843%,60.392157%,42.352941%);fill-opacity:1;" d="M 70.851562 31.851562 C 70.070312 31.949219 69.269531 31.984375 68.449219 31.949219 C 68.449219 32.984375 68.449219 34.015625 68.449219 35.050781 C 68.351562 34 68.316406 32.933594 68.351562 31.851562 C 69.183594 31.851562 70.015625 31.851562 70.851562 31.851562 Z M 70.851562 31.851562 "/>
<path style=" stroke:none;fill-rule:evenodd;fill:rgb(99.215686%,41.176471%,14.901961%);fill-opacity:1;" d="M 73.449219 31.949219 C 74.785156 31.636719 75.453125 32.15625 75.449219 33.5 C 75.449219 34.820312 74.78125 35.371094 73.449219 35.148438 C 73.449219 34.082031 73.449219 33.015625 73.449219 31.949219 Z M 73.449219 31.949219 "/>
<path style=" stroke:none;fill-rule:evenodd;fill:rgb(99.215686%,41.960784%,15.686275%);fill-opacity:1;" d="M 98.25 31.949219 C 100.054688 31.785156 100.703125 32.585938 100.199219 34.351562 C 100.082031 34.734375 99.832031 34.984375 99.449219 35.101562 C 99.050781 35.148438 98.652344 35.167969 98.25 35.148438 C 98.25 34.082031 98.25 33.015625 98.25 31.949219 Z M 98.25 31.949219 "/>
<path style=" stroke:none;fill-rule:evenodd;fill:rgb(99.607843%,58.823529%,40%);fill-opacity:1;" d="M 132.25 31.949219 C 131.984375 31.949219 131.71875 31.949219 131.449219 31.949219 C 131.449219 33.015625 131.449219 34.082031 131.449219 35.148438 C 131.351562 34.066406 131.316406 32.96875 131.351562 31.851562 C 131.671875 31.820312 131.972656 31.851562 132.25 31.949219 Z M 132.25 31.949219 "/>
<path style=" stroke:none;fill-rule:evenodd;fill:rgb(99.215686%,41.568627%,14.901961%);fill-opacity:1;" d="M 132.25 31.949219 C 132.816406 31.957031 133.199219 32.222656 133.398438 32.75 C 133.804688 34.445312 133.15625 35.246094 131.449219 35.148438 C 131.449219 34.082031 131.449219 33.015625 131.449219 31.949219 C 131.71875 31.949219 131.984375 31.949219 132.25 31.949219 Z M 132.25 31.949219 "/>
<path style=" stroke:none;fill-rule:evenodd;fill:rgb(99.607843%,70.196078%,56.862745%);fill-opacity:1;" d="M 92.050781 32.050781 C 92.148438 35.167969 92.183594 38.300781 92.148438 41.449219 C 92.785156 41.449219 93.417969 41.449219 94.050781 41.449219 C 94.015625 38.300781 94.050781 35.167969 94.148438 32.050781 C 94.148438 35.214844 94.148438 38.382812 94.148438 41.550781 C 93.449219 41.550781 92.75 41.550781 92.050781 41.550781 C 92.050781 38.382812 92.050781 35.214844 92.050781 32.050781 Z M 92.050781 32.050781 "/>
<path style=" stroke:none;fill-rule:evenodd;fill:rgb(99.607843%,58.039216%,38.823529%);fill-opacity:1;" d="M 116.25 31.949219 C 116.882812 31.949219 117.515625 31.949219 118.148438 31.949219 C 118.148438 35.117188 118.148438 38.285156 118.148438 41.449219 C 118.050781 38.332031 118.015625 35.199219 118.050781 32.050781 C 117.429688 32.082031 116.832031 32.050781 116.25 31.949219 Z M 116.25 31.949219 "/>
<path style=" stroke:none;fill-rule:evenodd;fill:rgb(99.215686%,43.137255%,17.254902%);fill-opacity:1;" d="M 36.648438 37.550781 C 36.214844 37.550781 35.785156 37.550781 35.351562 37.550781 C 35.351562 37.417969 35.351562 37.285156 35.351562 37.148438 C 35.5 35.90625 35.71875 34.671875 36 33.449219 C 36.261719 34.8125 36.476562 36.175781 36.648438 37.550781 Z M 36.648438 37.550781 "/>
<path style=" stroke:none;fill-rule:evenodd;fill:rgb(99.215686%,43.137255%,17.647059%);fill-opacity:1;" d="M 81.75 37.550781 C 81.316406 37.550781 80.882812 37.550781 80.449219 37.550781 C 80.449219 37.417969 80.449219 37.285156 80.449219 37.148438 C 80.625 35.84375 80.839844 34.542969 81.101562 33.25 C 81.339844 34.679688 81.554688 36.113281 81.75 37.550781 Z M 81.75 37.550781 "/>
<path style=" stroke:none;fill-rule:evenodd;fill:rgb(100%,73.72549%,61.960784%);fill-opacity:1;" d="M 116.148438 32.851562 C 116.25 33.398438 116.28125 33.964844 116.25 34.550781 C 115.566406 34.582031 114.898438 34.550781 114.25 34.449219 C 114.882812 34.449219 115.515625 34.449219 116.148438 34.449219 C 116.148438 33.917969 116.148438 33.382812 116.148438 32.851562 Z M 116.148438 32.851562 "/>
<path style=" stroke:none;fill-rule:evenodd;fill:rgb(99.607843%,56.078431%,36.078431%);fill-opacity:1;" d="M 41.648438 35.351562 C 41.582031 37.382812 41.515625 39.417969 41.449219 41.449219 C 41.433594 39.351562 41.449219 37.25 41.5 35.148438 C 41.570312 35.203125 41.621094 35.269531 41.648438 35.351562 Z M 41.648438 35.351562 "/>
<path style=" stroke:none;fill-rule:evenodd;fill:rgb(99.607843%,69.803922%,56.470588%);fill-opacity:1;" d="M 140.351562 35.050781 C 140.449219 35.53125 140.480469 36.03125 140.449219 36.550781 C 139.75 36.550781 139.050781 36.550781 138.351562 36.550781 C 138.996094 36.449219 139.664062 36.417969 140.351562 36.449219 C 140.351562 35.984375 140.351562 35.515625 140.351562 35.050781 Z M 140.351562 35.050781 "/>
<path style=" stroke:none;fill-rule:evenodd;fill:rgb(99.607843%,59.215686%,40.784314%);fill-opacity:1;" d="M 70.351562 36.449219 C 69.734375 36.550781 69.101562 36.582031 68.449219 36.550781 C 68.484375 38.199219 68.449219 39.835938 68.351562 41.449219 C 68.351562 39.785156 68.351562 38.117188 68.351562 36.449219 C 69.015625 36.449219 69.683594 36.449219 70.351562 36.449219 Z M 70.351562 36.449219 "/>
<path style=" stroke:none;fill-rule:evenodd;fill:rgb(99.607843%,69.019608%,54.901961%);fill-opacity:1;" d="M 74.25 36.550781 C 73.984375 36.550781 73.714844 36.550781 73.449219 36.550781 C 73.449219 38.214844 73.449219 39.882812 73.449219 41.550781 C 72.730469 41.582031 72.03125 41.550781 71.351562 41.449219 C 71.382812 41.449219 71.417969 41.449219 71.449219 41.449219 C 72.082031 41.449219 72.714844 41.449219 73.351562 41.449219 C 73.351562 39.785156 73.351562 38.117188 73.351562 36.449219 C 73.671875 36.417969 73.972656 36.453125 74.25 36.550781 Z M 74.25 36.550781 "/>
<path style=" stroke:none;fill-rule:evenodd;fill:rgb(99.607843%,56.078431%,36.078431%);fill-opacity:1;" d="M 132.25 36.550781 C 131.984375 36.550781 131.71875 36.550781 131.449219 36.550781 C 131.484375 38.199219 131.449219 39.835938 131.351562 41.449219 C 131.351562 39.785156 131.351562 38.117188 131.351562 36.449219 C 131.671875 36.417969 131.972656 36.453125 132.25 36.550781 Z M 132.25 36.550781 "/>
<path style=" stroke:none;fill-rule:evenodd;fill:rgb(99.607843%,58.039216%,39.215686%);fill-opacity:1;" d="M 35.351562 37.148438 C 35.351562 37.285156 35.351562 37.417969 35.351562 37.550781 C 35.785156 37.550781 36.214844 37.550781 36.648438 37.550781 C 36.203125 37.648438 35.734375 37.683594 35.25 37.648438 C 35.222656 37.457031 35.253906 37.292969 35.351562 37.148438 Z M 35.351562 37.148438 "/>
<path style=" stroke:none;fill-rule:evenodd;fill:rgb(99.607843%,58.431373%,39.607843%);fill-opacity:1;" d="M 80.449219 37.148438 C 80.449219 37.285156 80.449219 37.417969 80.449219 37.550781 C 80.882812 37.550781 81.316406 37.550781 81.75 37.550781 C 81.304688 37.648438 80.835938 37.683594 80.351562 37.648438 C 80.320312 37.457031 80.355469 37.292969 80.449219 37.148438 Z M 80.449219 37.148438 "/>
<path style=" stroke:none;fill-rule:evenodd;fill:rgb(99.607843%,69.803922%,56.078431%);fill-opacity:1;" d="M 32.75 41.25 C 33.007812 41.382812 33.308594 41.449219 33.648438 41.449219 C 34.011719 41.441406 34.34375 41.375 34.648438 41.25 C 34.648438 41.351562 34.648438 41.449219 34.648438 41.550781 C 33.984375 41.550781 33.316406 41.550781 32.648438 41.550781 C 32.625 41.421875 32.660156 41.320312 32.75 41.25 Z M 32.75 41.25 "/>
<path style=" stroke:none;fill-rule:evenodd;fill:rgb(99.607843%,69.019608%,55.294118%);fill-opacity:1;" d="M 77.550781 41.351562 C 77.605469 41.355469 77.636719 41.390625 77.648438 41.449219 C 76.933594 41.582031 76.234375 41.582031 75.550781 41.449219 C 76.234375 41.480469 76.902344 41.449219 77.550781 41.351562 Z M 77.550781 41.351562 "/>
<path style=" stroke:none;fill-rule:evenodd;fill:rgb(99.607843%,70.196078%,56.470588%);fill-opacity:1;" d="M 77.851562 41.25 C 78.109375 41.382812 78.410156 41.449219 78.75 41.449219 C 79.109375 41.441406 79.441406 41.375 79.75 41.25 C 79.75 41.351562 79.75 41.449219 79.75 41.550781 C 79.082031 41.550781 78.417969 41.550781 77.75 41.550781 C 77.726562 41.421875 77.757812 41.320312 77.851562 41.25 Z M 77.851562 41.25 "/>
<path style=" stroke:none;fill-rule:evenodd;fill:rgb(99.607843%,69.411765%,55.686275%);fill-opacity:1;" d="M 102.351562 41.25 C 102.441406 41.320312 102.472656 41.421875 102.449219 41.550781 C 101.730469 41.582031 101.03125 41.550781 100.351562 41.449219 C 101.058594 41.511719 101.726562 41.445312 102.351562 41.25 Z M 102.351562 41.25 "/>
<path style=" stroke:none;fill-rule:evenodd;fill:rgb(100%,99.607843%,99.215686%);fill-opacity:1;" d="M 75.351562 55.648438 C 75.726562 55.625 76.09375 55.675781 76.449219 55.800781 C 82.742188 59.4375 89.023438 63.085938 95.300781 66.75 C 95.445312 66.925781 95.542969 67.128906 95.601562 67.351562 C 95.632812 74.351562 95.667969 81.351562 95.699219 88.351562 C 101.707031 91.847656 107.726562 95.328125 113.75 98.800781 C 113.902344 98.957031 114.019531 99.140625 114.101562 99.351562 C 114.199219 106.890625 114.164062 114.421875 114 121.949219 C 113.679688 122.238281 113.328125 122.488281 112.949219 122.699219 C 107.101562 126.039062 101.265625 129.40625 95.449219 132.800781 C 94.800781 133.328125 94.132812 133.363281 93.449219 132.898438 C 87.558594 129.496094 81.675781 126.078125 75.800781 122.648438 C 69.859375 126.113281 63.90625 129.5625 57.949219 133 C 57.5625 133.152344 57.164062 133.183594 56.75 133.101562 C 50.484375 129.5 44.214844 125.898438 37.949219 122.300781 C 37.6875 122.105469 37.507812 121.855469 37.398438 121.550781 C 37.332031 114.21875 37.332031 106.882812 37.398438 99.550781 C 37.5 99.117188 37.75 98.800781 38.148438 98.601562 C 44.089844 95.222656 50.007812 91.804688 55.898438 88.351562 C 55.933594 81.316406 55.964844 74.285156 56 67.25 C 56.066406 67.117188 56.132812 66.984375 56.199219 66.851562 C 56.609375 66.554688 57.023438 66.269531 57.449219 66 C 63.457031 62.597656 69.421875 59.148438 75.351562 55.648438 Z M 75.351562 55.648438 "/>
<path style=" stroke:none;fill-rule:evenodd;fill:rgb(99.215686%,41.176471%,14.509804%);fill-opacity:1;" d="M 58.449219 69.75 C 63.363281 72.625 68.296875 75.472656 73.25 78.300781 C 68.351562 81.148438 63.449219 84 58.550781 86.851562 C 58.449219 81.152344 58.417969 75.449219 58.449219 69.75 Z M 58.449219 69.75 "/>
<path style=" stroke:none;fill-rule:evenodd;fill:rgb(99.215686%,41.176471%,14.901961%);fill-opacity:1;" d="M 93.050781 69.75 C 93.183594 75.433594 93.183594 81.132812 93.050781 86.851562 C 88.117188 84.050781 83.21875 81.199219 78.351562 78.300781 C 83.265625 75.464844 88.167969 72.613281 93.050781 69.75 Z M 93.050781 69.75 "/>
<path style=" stroke:none;fill-rule:evenodd;fill:rgb(99.215686%,41.176471%,14.509804%);fill-opacity:1;" d="M 74.351562 80.550781 C 74.484375 83.347656 74.550781 86.183594 74.550781 89.050781 C 74.515625 91.882812 74.484375 94.714844 74.449219 97.550781 C 69.535156 94.742188 64.632812 91.910156 59.75 89.050781 C 64.621094 86.214844 69.488281 83.378906 74.351562 80.550781 Z M 74.351562 80.550781 "/>
<path style=" stroke:none;fill-rule:evenodd;fill:rgb(100%,85.098039%,78.431373%);fill-opacity:1;" d="M 77.148438 80.550781 C 77.015625 86.214844 77.015625 91.882812 77.148438 97.550781 C 77.144531 97.605469 77.109375 97.636719 77.050781 97.648438 C 76.917969 91.917969 76.917969 86.183594 77.050781 80.449219 C 77.109375 80.460938 77.144531 80.496094 77.148438 80.550781 Z M 77.148438 80.550781 "/>
<path style=" stroke:none;fill-rule:evenodd;fill:rgb(99.215686%,41.176471%,14.509804%);fill-opacity:1;" d="M 77.148438 80.550781 C 82.015625 83.378906 86.882812 86.214844 91.75 89.050781 C 86.917969 91.933594 82.050781 94.765625 77.148438 97.550781 C 77.015625 91.882812 77.015625 86.214844 77.148438 80.550781 Z M 77.148438 80.550781 "/>
<path style=" stroke:none;fill-rule:evenodd;fill:rgb(99.215686%,41.176471%,14.509804%);fill-opacity:1;" d="M 94.148438 90.550781 C 94.367188 90.539062 94.566406 90.585938 94.75 90.699219 C 99.984375 93.734375 105.21875 96.765625 110.449219 99.800781 C 105.132812 102.839844 99.832031 105.90625 94.550781 109 C 94.296875 109.027344 94.066406 108.960938 93.851562 108.800781 C 88.699219 105.773438 83.53125 102.773438 78.351562 99.800781 C 83.632812 96.730469 88.898438 93.648438 94.148438 90.550781 Z M 94.148438 90.550781 "/>
<path style=" stroke:none;fill-rule:evenodd;fill:rgb(99.607843%,70.588235%,57.254902%);fill-opacity:1;" d="M 111.550781 102.050781 C 111.554688 101.996094 111.589844 101.960938 111.648438 101.949219 C 111.78125 108.167969 111.78125 114.367188 111.648438 120.550781 C 111.683594 114.367188 111.648438 108.199219 111.550781 102.050781 Z M 111.550781 102.050781 "/>
<path style=" stroke:none;fill-rule:evenodd;fill:rgb(99.607843%,56.078431%,36.078431%);fill-opacity:1;" d="M 40.050781 102.050781 C 39.949219 108.199219 39.917969 114.367188 39.949219 120.550781 C 39.816406 114.367188 39.816406 108.167969 39.949219 101.949219 C 40.011719 101.960938 40.042969 101.996094 40.050781 102.050781 Z M 40.050781 102.050781 "/>
<path style=" stroke:none;fill-rule:evenodd;fill:rgb(99.215686%,41.176471%,14.509804%);fill-opacity:1;" d="M 40.050781 102.050781 C 45.371094 105.09375 50.667969 108.160156 55.949219 111.25 C 55.984375 117.433594 55.949219 123.601562 55.851562 129.75 C 50.550781 126.683594 45.25 123.617188 39.949219 120.550781 C 39.917969 114.367188 39.949219 108.199219 40.050781 102.050781 Z M 40.050781 102.050781 "/>
<path style=" stroke:none;fill-rule:evenodd;fill:rgb(99.215686%,41.176471%,14.509804%);fill-opacity:1;" d="M 74.449219 101.949219 C 74.566406 107.632812 74.582031 113.332031 74.5 119.050781 C 69.574219 116.214844 64.660156 113.363281 59.75 110.5 C 64.65625 107.648438 69.554688 104.796875 74.449219 101.949219 Z M 74.449219 101.949219 "/>
<path style=" stroke:none;fill-rule:evenodd;fill:rgb(99.215686%,41.176471%,14.509804%);fill-opacity:1;" d="M 111.550781 102.050781 C 111.648438 108.199219 111.683594 114.367188 111.648438 120.550781 C 106.328125 123.601562 101.011719 126.671875 95.699219 129.75 C 95.617188 123.550781 95.632812 117.351562 95.75 111.148438 C 101.019531 108.113281 106.285156 105.082031 111.550781 102.050781 Z M 111.550781 102.050781 "/>
<path style=" stroke:none;fill-rule:evenodd;fill:rgb(100%,85.490196%,78.823529%);fill-opacity:1;" d="M 55.949219 111.25 C 56.082031 117.433594 56.082031 123.632812 55.949219 129.851562 C 55.890625 129.839844 55.855469 129.804688 55.851562 129.75 C 55.949219 123.601562 55.984375 117.433594 55.949219 111.25 Z M 55.949219 111.25 "/>
<path style=" stroke:none;fill-rule:evenodd;fill:rgb(99.215686%,41.176471%,14.509804%);fill-opacity:1;" d="M 58.449219 112.648438 C 63.378906 115.515625 68.3125 118.382812 73.25 121.25 C 68.367188 124.109375 63.464844 126.941406 58.550781 129.75 C 58.449219 124.050781 58.417969 118.351562 58.449219 112.648438 Z M 58.449219 112.648438 "/>
</g>
</svg>
