<?xml version="1.0" encoding="UTF-8"?>
<!DOCTYPE svg PUBLIC "-//W3C//DTD SVG 1.1//EN" "http://www.w3.org/Graphics/SVG/1.1/DTD/svg11.dtd">
<svg xmlns="http://www.w3.org/2000/svg" version="1.1" width="221px" height="220px" style="shape-rendering:geometricPrecision; text-rendering:geometricPrecision; image-rendering:optimizeQuality; fill-rule:evenodd; clip-rule:evenodd" xmlns:xlink="http://www.w3.org/1999/xlink">
<g><path style="opacity:1" fill="#4472c4" d="M -0.5,-0.5 C 73.1667,-0.5 146.833,-0.5 220.5,-0.5C 220.5,72.8333 220.5,146.167 220.5,219.5C 146.833,219.5 73.1667,219.5 -0.5,219.5C -0.5,146.167 -0.5,72.8333 -0.5,-0.5 Z"/></g>
<g><path style="opacity:1" fill="#e9eef8" d="M 98.5,26.5 C 100.355,26.272 101.188,26.9387 101,28.5C 98.3333,31.1667 95.6667,33.8333 93,36.5C 91.7705,35.7248 91.4372,34.7248 92,33.5C 94.3722,31.2968 96.5389,28.9635 98.5,26.5 Z"/></g>
<g><path style="opacity:1" fill="#f7f9fc" d="M 116.5,25.5 C 116.5,26.8333 116.5,28.1667 116.5,29.5C 120.649,28.9197 124.316,29.5864 127.5,31.5C 123.833,31.5 120.167,31.5 116.5,31.5C 116.5,32.5 116.5,33.5 116.5,34.5C 119.833,34.5 123.167,34.5 126.5,34.5C 126.5,37.8333 126.5,41.1667 126.5,44.5C 119.167,44.5 111.833,44.5 104.5,44.5C 104.5,41.1667 104.5,37.8333 104.5,34.5C 107.5,34.5 110.5,34.5 113.5,34.5C 113.5,33.5 113.5,32.5 113.5,31.5C 98.8333,30.8333 98.8333,30.1667 113.5,29.5C 113.5,28.1667 113.5,26.8333 113.5,25.5C 114.5,25.5 115.5,25.5 116.5,25.5 Z"/></g>
<g><path style="opacity:1" fill="#7698d4" d="M 116.5,25.5 C 117.404,26.209 117.737,27.209 117.5,28.5C 121.167,28.5 124.833,28.5 128.5,28.5C 128.737,29.791 128.404,30.791 127.5,31.5C 124.316,29.5864 120.649,28.9197 116.5,29.5C 116.5,28.1667 116.5,26.8333 116.5,25.5 Z"/></g>
<g><path style="opacity:1" fill="#f2f5fb" d="M 99.5,34.5 C 100.756,34.4614 101.756,34.9614 102.5,36C 101.54,37.4194 100.707,38.9194 100,40.5C 99.5003,47.8258 99.3337,55.1591 99.5,62.5C 98.5,62.5 97.5,62.5 96.5,62.5C 96.666,57.1563 96.4994,51.8229 96,46.5C 94.9805,47.6872 93.8139,48.6872 92.5,49.5C 92.1667,48.8333 91.8333,48.1667 91.5,47.5C 94.926,43.6508 97.5927,39.3175 99.5,34.5 Z"/></g>
<g><path style="opacity:1" fill="#92acdc" d="M 106.5,36.5 C 108.167,36.5 109.833,36.5 111.5,36.5C 111.5,38.5 111.5,40.5 111.5,42.5C 109.833,42.5 108.167,42.5 106.5,42.5C 106.5,40.5 106.5,38.5 106.5,36.5 Z"/></g>
<g><path style="opacity:1" fill="#4472c4" d="M 107.5,37.5 C 108.5,37.5 109.5,37.5 110.5,37.5C 110.5,38.8333 110.5,40.1667 110.5,41.5C 109.5,41.5 108.5,41.5 107.5,41.5C 107.5,40.1667 107.5,38.8333 107.5,37.5 Z"/></g>
<g><path style="opacity:1" fill="#6287cc" d="M 113.5,36.5 C 114.833,36.5 116.167,36.5 117.5,36.5C 117.5,38.5 117.5,40.5 117.5,42.5C 116.167,42.5 114.833,42.5 113.5,42.5C 113.5,40.5 113.5,38.5 113.5,36.5 Z"/></g>
<g><path style="opacity:1" fill="#517ac7" d="M 119.5,37.5 C 120.833,37.5 122.167,37.5 123.5,37.5C 123.5,39.1667 123.5,40.8333 123.5,42.5C 122.167,42.5 120.833,42.5 119.5,42.5C 119.5,40.8333 119.5,39.1667 119.5,37.5 Z"/></g>
<g><path style="opacity:1" fill="#b1c3e6" d="M 119.5,37.5 C 120.919,36.5489 122.585,36.2155 124.5,36.5C 124.795,38.7354 124.461,40.7354 123.5,42.5C 123.5,40.8333 123.5,39.1667 123.5,37.5C 122.167,37.5 120.833,37.5 119.5,37.5 Z"/></g>
<g><path style="opacity:1" fill="#8ca8da" d="M 102.5,47.5 C 110.984,46.507 119.651,46.1736 128.5,46.5C 128.737,47.791 128.404,48.791 127.5,49.5C 119.567,47.5316 111.234,46.865 102.5,47.5 Z"/></g>
<g><path style="opacity:1" fill="#f9fbfd" d="M 102.5,47.5 C 111.234,46.865 119.567,47.5316 127.5,49.5C 122.821,49.3342 118.155,49.5008 113.5,50C 115.555,50.6872 117.221,51.8539 118.5,53.5C 117.192,54.6256 115.858,54.6256 114.5,53.5C 113.486,52.3263 112.153,51.6596 110.5,51.5C 110.611,50.8826 110.944,50.3826 111.5,50C 108.008,50.0704 105.008,49.2371 102.5,47.5 Z"/></g>
<g><path style="opacity:1" fill="#eef2f9" d="M 109.5,53.5 C 111.06,55.1561 112.06,57.1561 112.5,59.5C 115.466,59.8897 118.132,59.223 120.5,57.5C 121.645,58.7757 121.645,60.109 120.5,61.5C 117.216,62.657 113.882,62.8236 110.5,62C 109.556,59.2809 109.223,56.4475 109.5,53.5 Z"/></g>
<g><path style="opacity:1" fill="#93acdc" d="M 110.5,51.5 C 112.153,51.6596 113.486,52.3263 114.5,53.5C 112.692,54.9179 112.025,56.9179 112.5,59.5C 112.06,57.1561 111.06,55.1561 109.5,53.5C 109.833,52.8333 110.167,52.1667 110.5,51.5 Z"/></g>
<g><path style="opacity:1" fill="#f0f4fa" d="M 121.5,53.5 C 125.762,54.7266 127.428,57.3932 126.5,61.5C 124.325,59.1497 122.658,56.483 121.5,53.5 Z"/></g>
<g><path style="opacity:1" fill="#e5eaf6" d="M 104.5,53.5 C 105.995,53.4148 106.995,54.0815 107.5,55.5C 106.7,58.1332 105.2,60.1332 103,61.5C 102.5,61.1667 102,60.8333 101.5,60.5C 103.327,58.5128 104.327,56.1795 104.5,53.5 Z"/></g>
<g><path style="opacity:1" fill="#fafbfd" d="M 60.5,98.5 C 71.8382,98.3335 83.1716,98.5001 94.5,99C 96.2464,99.4709 97.913,100.138 99.5,101C 106,107.5 112.5,114 119,120.5C 120.167,126 118,128.167 112.5,127C 107.833,122.333 103.167,117.667 98.5,113C 97.365,112.251 96.365,112.417 95.5,113.5C 100.652,119.152 105.985,124.652 111.5,130C 115.584,131.282 118.918,130.282 121.5,127C 129.167,126.333 136.833,126.333 144.5,127C 147.265,129.966 146.932,132.633 143.5,135C 131.167,135.667 118.833,135.667 106.5,135C 98.9752,130.486 92.3086,124.819 86.5,118C 77.9164,116.59 69.2498,116.09 60.5,116.5C 60.5,110.5 60.5,104.5 60.5,98.5 Z"/></g>
<g><path style="opacity:1" fill="#f9fafd" d="M 121.5,99.5 C 125.192,98.9712 128.358,99.9712 131,102.5C 134.39,98.9676 138.057,98.6342 142,101.5C 142.667,103.833 142.667,106.167 142,108.5C 138.318,112.349 134.485,116.016 130.5,119.5C 126.148,115.981 122.314,111.981 119,107.5C 118.018,104.225 118.851,101.559 121.5,99.5 Z"/></g>
<g><path style="opacity:1" fill="#f7f9fc" d="M 123.5,141.5 C 133.833,141.5 144.167,141.5 154.5,141.5C 154.5,147.5 154.5,153.5 154.5,159.5C 147.825,159.334 141.158,159.5 134.5,160C 128.865,164.633 123.532,169.633 118.5,175C 116.283,176.275 113.949,177.275 111.5,178C 99.5,178.667 87.5,178.667 75.5,178C 71.5,175 71.5,172 75.5,169C 82.856,168.169 90.1893,168.335 97.5,169.5C 100.401,173.581 104.068,174.414 108.5,172C 113.682,166.985 118.682,161.819 123.5,156.5C 122.635,155.417 121.635,155.251 120.5,156C 115.801,161.034 110.801,165.7 105.5,170C 100.504,170.664 98.6703,168.498 100,163.5C 106.797,154.864 114.63,147.53 123.5,141.5 Z"/></g>
<g><path style="opacity:1" fill="#fafbfd" d="M 80.5,141.5 C 83.7845,141.269 86.2845,142.603 88,145.5C 92.0876,140.299 96.0876,140.299 100,145.5C 100.635,147.635 100.301,149.635 99,151.5C 95.3333,155.167 91.6667,158.833 88,162.5C 84.3333,158.833 80.6667,155.167 77,151.5C 75.5812,147.082 76.7478,143.749 80.5,141.5 Z"/></g>
</svg>
