<?xml version="1.0" encoding="UTF-8"?>
<svg xmlns="http://www.w3.org/2000/svg" xmlns:xlink="http://www.w3.org/1999/xlink" width="150px" height="150px" viewBox="0 0 150 150" version="1.1">
<g id="surface1">
<path style=" stroke:none;fill-rule:evenodd;fill:rgb(74.901961%,54.509804%,18.039216%);fill-opacity:1;" d="M -0.0507812 -0.0507812 C 49.949219 -0.0507812 99.949219 -0.0507812 149.949219 -0.0507812 C 149.949219 49.949219 149.949219 99.949219 149.949219 149.949219 C 99.949219 149.949219 49.949219 149.949219 -0.0507812 149.949219 C -0.0507812 99.949219 -0.0507812 49.949219 -0.0507812 -0.0507812 Z M -0.0507812 -0.0507812 "/>
<path style=" stroke:none;fill-rule:evenodd;fill:rgb(99.607843%,99.607843%,99.607843%);fill-opacity:1;" d="M 27.351562 37.148438 C 30.132812 37.25 32.933594 37.28125 35.75 37.25 C 35.75 38.648438 35.75 40.050781 35.75 41.449219 C 30.882812 41.449219 26.015625 41.449219 21.148438 41.449219 C 21.132812 40.148438 21.148438 38.847656 21.199219 37.550781 C 23.964844 33.285156 26.734375 29.015625 29.5 24.75 C 30.046875 23.824219 30.511719 22.855469 30.898438 21.851562 C 31.113281 20.894531 31.179688 19.925781 31.101562 18.949219 C 30.585938 17.152344 29.46875 16.632812 27.75 17.398438 C 26.941406 18.171875 26.523438 19.121094 26.5 20.25 C 26.449219 21.050781 26.433594 21.847656 26.449219 22.648438 C 24.683594 22.648438 22.917969 22.648438 21.148438 22.648438 C 20.945312 20.511719 21.226562 18.445312 22 16.449219 C 23.390625 13.644531 25.675781 12.3125 28.851562 12.449219 C 33.820312 12.402344 36.386719 14.855469 36.550781 19.800781 C 36.59375 21.316406 36.3125 22.765625 35.699219 24.148438 C 35.152344 25.25 34.550781 26.316406 33.898438 27.351562 C 31.691406 30.601562 29.507812 33.867188 27.351562 37.148438 Z M 27.351562 37.148438 "/>
<path style=" stroke:none;fill-rule:evenodd;fill:rgb(99.607843%,99.215686%,98.823529%);fill-opacity:1;" d="M 61.949219 12.648438 C 64.183594 12.417969 65.320312 13.417969 65.351562 15.648438 C 64.785156 15.761719 64.21875 15.863281 63.648438 15.949219 C 63.753906 15.214844 63.523438 14.628906 62.949219 14.199219 C 61.957031 14.101562 61.539062 14.554688 61.699219 15.550781 C 61.796875 15.835938 61.929688 16.105469 62.101562 16.351562 C 63.152344 17.191406 64.117188 18.125 65 19.148438 C 65.609375 20.238281 65.707031 21.371094 65.300781 22.550781 C 64.921875 23.195312 64.371094 23.613281 63.648438 23.800781 C 61.09375 24.144531 59.828125 23.042969 59.851562 20.5 C 60.414062 20.367188 60.980469 20.25 61.550781 20.148438 C 61.527344 20.667969 61.609375 21.167969 61.800781 21.648438 C 62.148438 22.347656 62.664062 22.515625 63.351562 22.148438 C 63.777344 21.394531 63.726562 20.660156 63.199219 19.949219 C 62.1875 19.09375 61.21875 18.195312 60.300781 17.25 C 59.433594 15.714844 59.617188 14.332031 60.851562 13.101562 C 61.207031 12.886719 61.570312 12.738281 61.949219 12.648438 Z M 61.949219 12.648438 "/>
<path style=" stroke:none;fill-rule:evenodd;fill:rgb(99.215686%,98.823529%,98.039216%);fill-opacity:1;" d="M 75.148438 12.648438 C 76.09375 12.566406 76.992188 12.714844 77.851562 13.101562 C 78.46875 13.519531 78.851562 14.105469 79 14.851562 C 79.199219 17.085938 79.199219 19.316406 79 21.550781 C 78.8125 22.703125 78.164062 23.453125 77.050781 23.800781 C 76.175781 23.886719 75.308594 23.855469 74.449219 23.699219 C 73.640625 23.289062 73.125 22.640625 72.898438 21.75 C 72.789062 20.585938 72.742188 19.421875 72.75 18.25 C 72.742188 17.078125 72.789062 15.914062 72.898438 14.75 C 73.222656 13.578125 73.972656 12.875 75.148438 12.648438 Z M 75.148438 12.648438 "/>
<path style=" stroke:none;fill-rule:evenodd;fill:rgb(99.607843%,99.215686%,98.431373%);fill-opacity:1;" d="M 88.851562 12.648438 C 91.175781 12.398438 92.328125 13.398438 92.300781 15.648438 C 91.785156 15.816406 91.265625 15.882812 90.75 15.851562 C 90.734375 15.257812 90.535156 14.738281 90.148438 14.300781 C 89.289062 13.996094 88.824219 14.296875 88.75 15.199219 C 88.746094 15.671875 88.894531 16.089844 89.199219 16.449219 C 90.269531 17.285156 91.234375 18.21875 92.101562 19.25 C 92.78125 20.402344 92.816406 21.566406 92.199219 22.75 C 91.855469 23.230469 91.40625 23.582031 90.851562 23.800781 C 88.195312 24.257812 86.859375 23.140625 86.851562 20.449219 C 87.410156 20.386719 87.960938 20.289062 88.5 20.148438 C 88.570312 20.777344 88.738281 21.378906 89 21.949219 C 89.472656 22.4375 89.972656 22.46875 90.5 22.050781 C 90.746094 21.351562 90.679688 20.683594 90.300781 20.050781 C 89.332031 19.148438 88.367188 18.25 87.398438 17.351562 C 86.835938 16.34375 86.703125 15.277344 87 14.148438 C 87.40625 13.375 88.019531 12.875 88.851562 12.648438 Z M 88.851562 12.648438 "/>
<path style=" stroke:none;fill-rule:evenodd;fill:rgb(90.588235%,83.137255%,69.803922%);fill-opacity:1;" d="M 56.75 14.25 C 57.566406 14.152344 58.398438 14.117188 59.25 14.148438 C 59.25 13.714844 59.25 13.285156 59.25 12.851562 C 57.75 12.851562 56.25 12.851562 54.75 12.851562 C 54.75 16.484375 54.75 20.117188 54.75 23.75 C 54.648438 20.101562 54.617188 16.433594 54.648438 12.75 C 56.214844 12.75 57.785156 12.75 59.351562 12.75 C 59.351562 13.25 59.351562 13.75 59.351562 14.25 C 58.484375 14.25 57.617188 14.25 56.75 14.25 Z M 56.75 14.25 "/>
<path style=" stroke:none;fill-rule:evenodd;fill:rgb(99.607843%,99.607843%,99.607843%);fill-opacity:1;" d="M 13.75 12.851562 C 15.183594 12.851562 16.617188 12.851562 18.050781 12.851562 C 18.050781 22.382812 18.050781 31.917969 18.050781 41.449219 C 16.25 41.449219 14.449219 41.449219 12.648438 41.449219 C 12.683594 33.816406 12.648438 26.183594 12.550781 18.550781 C 11.261719 19.058594 9.960938 19.523438 8.648438 19.949219 C 8.550781 18.632812 8.515625 17.300781 8.550781 15.949219 C 10.105469 15.246094 11.605469 14.429688 13.050781 13.5 C 13.289062 13.28125 13.523438 13.066406 13.75 12.851562 Z M 13.75 12.851562 "/>
<path style=" stroke:none;fill-rule:evenodd;fill:rgb(92.156863%,85.882353%,74.509804%);fill-opacity:1;" d="M 13.75 12.851562 C 15.199219 12.75 16.664062 12.71875 18.148438 12.75 C 18.148438 22.351562 18.148438 31.949219 18.148438 41.550781 C 16.300781 41.582031 14.464844 41.550781 12.648438 41.449219 C 14.449219 41.449219 16.25 41.449219 18.050781 41.449219 C 18.050781 31.917969 18.050781 22.382812 18.050781 12.851562 C 16.617188 12.851562 15.183594 12.851562 13.75 12.851562 Z M 13.75 12.851562 "/>
<path style=" stroke:none;fill-rule:evenodd;fill:rgb(93.333333%,87.843137%,78.431373%);fill-opacity:1;" d="M 51.050781 12.851562 C 49.917969 12.851562 48.785156 12.851562 47.648438 12.851562 C 47.648438 16.484375 47.648438 20.117188 47.648438 23.75 C 47.550781 20.101562 47.515625 16.433594 47.550781 12.75 C 48.734375 12.71875 49.902344 12.75 51.050781 12.851562 Z M 51.050781 12.851562 "/>
<path style=" stroke:none;fill-rule:evenodd;fill:rgb(99.607843%,99.215686%,98.823529%);fill-opacity:1;" d="M 51.050781 12.851562 C 52.28125 12.902344 53.101562 13.5 53.5 14.648438 C 53.585938 15.488281 53.554688 16.324219 53.398438 17.148438 C 53.351562 17.324219 53.285156 17.492188 53.199219 17.648438 C 52.910156 17.941406 52.625 18.222656 52.351562 18.5 C 52.847656 20.207031 53.3125 21.925781 53.75 23.648438 C 53.101562 23.75 52.433594 23.78125 51.75 23.75 C 51.339844 22.117188 50.921875 20.484375 50.5 18.851562 C 50.226562 18.753906 49.945312 18.722656 49.648438 18.75 C 49.648438 20.417969 49.648438 22.082031 49.648438 23.75 C 48.984375 23.75 48.316406 23.75 47.648438 23.75 C 47.648438 20.117188 47.648438 16.484375 47.648438 12.851562 C 48.785156 12.851562 49.917969 12.851562 51.050781 12.851562 Z M 51.050781 12.851562 "/>
<path style=" stroke:none;fill-rule:evenodd;fill:rgb(99.607843%,99.215686%,98.823529%);fill-opacity:1;" d="M 56.75 14.25 C 56.75 15.285156 56.75 16.316406 56.75 17.351562 C 57.417969 17.351562 58.082031 17.351562 58.75 17.351562 C 58.75 17.816406 58.75 18.285156 58.75 18.75 C 58.082031 18.75 57.417969 18.75 56.75 18.75 C 56.75 19.949219 56.75 21.148438 56.75 22.351562 C 57.566406 22.449219 58.398438 22.484375 59.25 22.449219 C 59.25 22.882812 59.25 23.316406 59.25 23.75 C 57.75 23.75 56.25 23.75 54.75 23.75 C 54.75 20.117188 54.75 16.484375 54.75 12.851562 C 56.25 12.851562 57.75 12.851562 59.25 12.851562 C 59.25 13.285156 59.25 13.714844 59.25 14.148438 C 58.398438 14.117188 57.566406 14.152344 56.75 14.25 Z M 56.75 14.25 "/>
<path style=" stroke:none;fill-rule:evenodd;fill:rgb(99.607843%,99.607843%,99.215686%);fill-opacity:1;" d="M 66.351562 12.75 C 67.722656 12.707031 69.089844 12.757812 70.449219 12.898438 C 71.367188 13.148438 71.949219 13.734375 72.199219 14.648438 C 72.765625 17.757812 71.480469 19.160156 68.351562 18.851562 C 68.351562 20.484375 68.351562 22.117188 68.351562 23.75 C 67.683594 23.75 67.015625 23.75 66.351562 23.75 C 66.351562 20.082031 66.351562 16.417969 66.351562 12.75 Z M 66.351562 12.75 "/>
<path style=" stroke:none;fill-rule:evenodd;fill:rgb(99.607843%,99.607843%,99.215686%);fill-opacity:1;" d="M 84.050781 18.648438 C 84.078125 18.730469 84.128906 18.796875 84.199219 18.851562 C 84.25 16.816406 84.265625 14.785156 84.25 12.75 C 84.785156 12.75 85.316406 12.75 85.851562 12.75 C 85.851562 16.417969 85.851562 20.082031 85.851562 23.75 C 85.390625 23.78125 84.941406 23.746094 84.5 23.648438 C 83.613281 21.558594 82.746094 19.457031 81.898438 17.351562 C 81.851562 19.484375 81.832031 21.617188 81.851562 23.75 C 81.285156 23.75 80.714844 23.75 80.148438 23.75 C 80.148438 20.082031 80.148438 16.417969 80.148438 12.75 C 80.621094 12.71875 81.089844 12.75 81.550781 12.851562 C 82.421875 14.769531 83.257812 16.703125 84.050781 18.648438 Z M 84.050781 18.648438 "/>
<path style=" stroke:none;fill-rule:evenodd;fill:rgb(87.058824%,76.862745%,58.823529%);fill-opacity:1;" d="M 84.25 12.75 C 84.265625 14.785156 84.25 16.816406 84.199219 18.851562 C 84.128906 18.796875 84.078125 18.730469 84.050781 18.648438 C 84.117188 16.683594 84.183594 14.714844 84.25 12.75 Z M 84.25 12.75 "/>
<path style=" stroke:none;fill-rule:evenodd;fill:rgb(99.607843%,100%,99.607843%);fill-opacity:1;" d="M 93.449219 12.851562 C 94.082031 12.851562 94.714844 12.851562 95.351562 12.851562 C 95.351562 16.484375 95.351562 20.117188 95.351562 23.75 C 94.714844 23.75 94.082031 23.75 93.449219 23.75 C 93.449219 20.117188 93.449219 16.484375 93.449219 12.851562 Z M 93.449219 12.851562 "/>
<path style=" stroke:none;fill-rule:evenodd;fill:rgb(93.333333%,88.235294%,79.215686%);fill-opacity:1;" d="M 93.449219 12.851562 C 94.097656 12.75 94.765625 12.71875 95.449219 12.75 C 95.484375 16.433594 95.449219 20.101562 95.351562 23.75 C 95.351562 20.117188 95.351562 16.484375 95.351562 12.851562 C 94.714844 12.851562 94.082031 12.851562 93.449219 12.851562 Z M 93.449219 12.851562 "/>
<path style=" stroke:none;fill-rule:evenodd;fill:rgb(93.333333%,88.235294%,78.823529%);fill-opacity:1;" d="M 100.050781 12.851562 C 98.949219 12.851562 97.851562 12.851562 96.75 12.851562 C 96.75 16.484375 96.75 20.117188 96.75 23.75 C 96.648438 20.101562 96.617188 16.433594 96.648438 12.75 C 97.800781 12.71875 98.933594 12.75 100.050781 12.851562 Z M 100.050781 12.851562 "/>
<path style=" stroke:none;fill-rule:evenodd;fill:rgb(99.607843%,99.215686%,98.823529%);fill-opacity:1;" d="M 100.050781 12.851562 C 101.277344 12.835938 102.09375 13.40625 102.5 14.550781 C 102.585938 15.289062 102.550781 16.023438 102.398438 16.75 C 102.160156 17.328125 101.746094 17.710938 101.148438 17.898438 C 102.441406 18.316406 103.042969 19.214844 102.949219 20.601562 C 102.992188 22.046875 102.359375 23.046875 101.050781 23.601562 C 99.621094 23.742188 98.1875 23.792969 96.75 23.75 C 96.75 20.117188 96.75 16.484375 96.75 12.851562 C 97.851562 12.851562 98.949219 12.851562 100.050781 12.851562 Z M 100.050781 12.851562 "/>
<path style=" stroke:none;fill-rule:evenodd;fill:rgb(91.764706%,85.098039%,72.941176%);fill-opacity:1;" d="M 105.851562 22.351562 C 105.75 19.199219 105.71875 16.035156 105.75 12.851562 C 105.117188 12.851562 104.484375 12.851562 103.851562 12.851562 C 103.851562 16.484375 103.851562 20.117188 103.851562 23.75 C 103.75 20.101562 103.71875 16.433594 103.75 12.75 C 104.449219 12.75 105.148438 12.75 105.851562 12.75 C 105.851562 15.949219 105.851562 19.148438 105.851562 22.351562 Z M 105.851562 22.351562 "/>
<path style=" stroke:none;fill-rule:evenodd;fill:rgb(99.607843%,99.607843%,99.607843%);fill-opacity:1;" d="M 105.851562 22.351562 C 106.664062 22.449219 107.496094 22.484375 108.351562 22.449219 C 108.351562 22.882812 108.351562 23.316406 108.351562 23.75 C 106.851562 23.75 105.351562 23.75 103.851562 23.75 C 103.851562 20.117188 103.851562 16.484375 103.851562 12.851562 C 104.484375 12.851562 105.117188 12.851562 105.75 12.851562 C 105.71875 16.035156 105.75 19.199219 105.851562 22.351562 Z M 105.851562 22.351562 "/>
<path style=" stroke:none;fill-rule:evenodd;fill:rgb(99.607843%,99.607843%,99.215686%);fill-opacity:1;" d="M 113.148438 18.75 C 112.449219 18.75 111.75 18.75 111.050781 18.75 C 111.050781 19.949219 111.050781 21.148438 111.050781 22.351562 C 111.898438 22.449219 112.765625 22.484375 113.648438 22.449219 C 113.648438 22.882812 113.648438 23.316406 113.648438 23.75 C 112.117188 23.75 110.582031 23.75 109.050781 23.75 C 109.050781 20.082031 109.050781 16.417969 109.050781 12.75 C 110.582031 12.75 112.117188 12.75 113.648438 12.75 C 113.648438 13.25 113.648438 13.75 113.648438 14.25 C 112.78125 14.25 111.917969 14.25 111.050781 14.25 C 111.050781 15.285156 111.050781 16.316406 111.050781 17.351562 C 111.75 17.351562 112.449219 17.351562 113.148438 17.351562 C 113.148438 17.816406 113.148438 18.285156 113.148438 18.75 Z M 113.148438 18.75 "/>
<path style=" stroke:none;fill-rule:evenodd;fill:rgb(74.901961%,54.509804%,18.431373%);fill-opacity:1;" d="M 75.449219 14.148438 C 76.199219 13.984375 76.71875 14.25 77 14.949219 C 77.066406 17.148438 77.066406 19.351562 77 21.550781 C 76.894531 22.136719 76.546875 22.40625 75.949219 22.351562 C 75.355469 22.40625 75.003906 22.136719 74.898438 21.550781 C 74.832031 19.316406 74.832031 17.082031 74.898438 14.851562 C 74.996094 14.539062 75.179688 14.304688 75.449219 14.148438 Z M 75.449219 14.148438 "/>
<path style=" stroke:none;fill-rule:evenodd;fill:rgb(86.666667%,75.686275%,56.078431%);fill-opacity:1;" d="M 50.648438 14.25 C 50.316406 14.25 49.984375 14.25 49.648438 14.25 C 49.648438 15.316406 49.648438 16.382812 49.648438 17.449219 C 49.550781 16.367188 49.515625 15.269531 49.550781 14.148438 C 49.9375 14.117188 50.304688 14.152344 50.648438 14.25 Z M 50.648438 14.25 "/>
<path style=" stroke:none;fill-rule:evenodd;fill:rgb(74.901961%,54.509804%,18.431373%);fill-opacity:1;" d="M 50.648438 14.25 C 51.117188 14.277344 51.433594 14.507812 51.601562 14.949219 C 52.066406 16.695312 51.417969 17.53125 49.648438 17.449219 C 49.648438 16.382812 49.648438 15.316406 49.648438 14.25 C 49.984375 14.25 50.316406 14.25 50.648438 14.25 Z M 50.648438 14.25 "/>
<path style=" stroke:none;fill-rule:evenodd;fill:rgb(74.901961%,54.509804%,18.039216%);fill-opacity:1;" d="M 68.351562 14.25 C 70.195312 14.03125 70.84375 14.828125 70.300781 16.648438 C 70.234375 17.140625 69.949219 17.390625 69.449219 17.398438 C 69.085938 17.449219 68.71875 17.464844 68.351562 17.449219 C 68.351562 16.382812 68.351562 15.316406 68.351562 14.25 Z M 68.351562 14.25 "/>
<path style=" stroke:none;fill-rule:evenodd;fill:rgb(74.901961%,54.901961%,18.823529%);fill-opacity:1;" d="M 98.75 14.25 C 100.671875 14.09375 101.289062 14.925781 100.601562 16.75 C 100.425781 16.960938 100.210938 17.113281 99.949219 17.199219 C 99.550781 17.25 99.152344 17.265625 98.75 17.25 C 98.75 16.25 98.75 15.25 98.75 14.25 Z M 98.75 14.25 "/>
<path style=" stroke:none;fill-rule:evenodd;fill:rgb(93.333333%,88.235294%,78.823529%);fill-opacity:1;" d="M 8.550781 15.949219 C 8.515625 17.300781 8.550781 18.632812 8.648438 19.949219 C 8.644531 20.003906 8.609375 20.039062 8.550781 20.050781 C 8.417969 18.667969 8.417969 17.300781 8.550781 15.949219 Z M 8.550781 15.949219 "/>
<path style=" stroke:none;fill-rule:evenodd;fill:rgb(85.882353%,74.509804%,54.117647%);fill-opacity:1;" d="M 99.648438 18.75 C 99.351562 18.75 99.050781 18.75 98.75 18.75 C 98.75 19.917969 98.75 21.082031 98.75 22.25 C 99.148438 22.25 99.550781 22.25 99.949219 22.25 C 99.535156 22.347656 99.101562 22.382812 98.648438 22.351562 C 98.648438 21.117188 98.648438 19.882812 98.648438 18.648438 C 99.003906 18.617188 99.335938 18.652344 99.648438 18.75 Z M 99.648438 18.75 "/>
<path style=" stroke:none;fill-rule:evenodd;fill:rgb(74.901961%,54.509804%,18.431373%);fill-opacity:1;" d="M 99.648438 18.75 C 100.269531 18.769531 100.6875 19.066406 100.898438 19.648438 C 100.96875 20.25 100.96875 20.851562 100.898438 21.449219 C 100.746094 21.917969 100.429688 22.1875 99.949219 22.25 C 99.550781 22.25 99.148438 22.25 98.75 22.25 C 98.75 21.082031 98.75 19.917969 98.75 18.75 C 99.050781 18.75 99.351562 18.75 99.648438 18.75 Z M 99.648438 18.75 "/>
<path style=" stroke:none;fill-rule:evenodd;fill:rgb(81.176471%,65.882353%,38.431373%);fill-opacity:1;" d="M 113.148438 18.75 C 112.503906 18.847656 111.835938 18.882812 111.148438 18.851562 C 111.148438 20.015625 111.148438 21.183594 111.148438 22.351562 C 111.117188 22.351562 111.082031 22.351562 111.050781 22.351562 C 111.050781 21.148438 111.050781 19.949219 111.050781 18.75 C 111.75 18.75 112.449219 18.75 113.148438 18.75 Z M 113.148438 18.75 "/>
<path style=" stroke:none;fill-rule:evenodd;fill:rgb(93.333333%,88.235294%,78.823529%);fill-opacity:1;" d="M 56.75 22.351562 C 57.617188 22.351562 58.484375 22.351562 59.351562 22.351562 C 59.382812 22.835938 59.347656 23.304688 59.25 23.75 C 59.25 23.316406 59.25 22.882812 59.25 22.449219 C 58.398438 22.484375 57.566406 22.449219 56.75 22.351562 Z M 56.75 22.351562 "/>
<path style=" stroke:none;fill-rule:evenodd;fill:rgb(93.333333%,88.235294%,78.823529%);fill-opacity:1;" d="M 105.851562 22.351562 C 106.71875 22.351562 107.582031 22.351562 108.449219 22.351562 C 108.480469 22.835938 108.449219 23.304688 108.351562 23.75 C 108.351562 23.316406 108.351562 22.882812 108.351562 22.449219 C 107.496094 22.484375 106.664062 22.449219 105.851562 22.351562 Z M 105.851562 22.351562 "/>
<path style=" stroke:none;fill-rule:evenodd;fill:rgb(92.156863%,85.490196%,74.117647%);fill-opacity:1;" d="M 111.050781 22.351562 C 111.082031 22.351562 111.117188 22.351562 111.148438 22.351562 C 112.015625 22.351562 112.882812 22.351562 113.75 22.351562 C 113.78125 22.835938 113.75 23.304688 113.648438 23.75 C 113.648438 23.316406 113.648438 22.882812 113.648438 22.449219 C 112.765625 22.484375 111.898438 22.449219 111.050781 22.351562 Z M 111.050781 22.351562 "/>
<path style=" stroke:none;fill-rule:evenodd;fill:rgb(80.784314%,65.490196%,38.039216%);fill-opacity:1;" d="M 53.75 23.648438 C 53.804688 23.65625 53.835938 23.6875 53.851562 23.75 C 53.132812 23.882812 52.433594 23.882812 51.75 23.75 C 52.433594 23.78125 53.101562 23.75 53.75 23.648438 Z M 53.75 23.648438 "/>
<path style=" stroke:none;fill-rule:evenodd;fill:rgb(99.607843%,98.823529%,98.431373%);fill-opacity:1;" d="M 53.449219 33.148438 C 53.449219 33.648438 53.449219 34.148438 53.449219 34.648438 C 52.816406 34.648438 52.183594 34.648438 51.550781 34.648438 C 51.59375 33.90625 51.542969 33.171875 51.398438 32.449219 C 50.980469 32.027344 50.496094 31.945312 49.949219 32.199219 C 49.710938 32.394531 49.5625 32.644531 49.5 32.949219 C 49.433594 35.015625 49.433594 37.082031 49.5 39.148438 C 49.550781 40.167969 50.070312 40.519531 51.050781 40.199219 C 51.234375 40.046875 51.386719 39.863281 51.5 39.648438 C 51.550781 38.949219 51.566406 38.25 51.550781 37.550781 C 52.214844 37.550781 52.882812 37.550781 53.550781 37.550781 C 53.527344 38.25 53.476562 38.953125 53.398438 39.648438 C 53.203125 40.945312 52.453125 41.664062 51.148438 41.800781 C 48.753906 42.035156 47.503906 40.953125 47.398438 38.550781 C 47.3125 36.679688 47.347656 34.8125 47.5 32.949219 C 47.675781 31.617188 48.425781 30.832031 49.75 30.601562 C 50.746094 30.429688 51.679688 30.59375 52.550781 31.101562 C 53.164062 31.644531 53.464844 32.328125 53.449219 33.148438 Z M 53.449219 33.148438 "/>
<path style=" stroke:none;fill-rule:evenodd;fill:rgb(99.215686%,98.823529%,98.431373%);fill-opacity:1;" d="M 56.648438 30.550781 C 57.59375 30.457031 58.492188 30.605469 59.351562 31 C 60.058594 31.535156 60.476562 32.253906 60.601562 33.148438 C 60.691406 35.320312 60.660156 37.488281 60.5 39.648438 C 60.1875 40.933594 59.371094 41.648438 58.050781 41.800781 C 55.800781 42.082031 54.550781 41.101562 54.300781 38.851562 C 54.234375 36.984375 54.234375 35.117188 54.300781 33.25 C 54.4375 31.765625 55.222656 30.867188 56.648438 30.550781 Z M 56.648438 30.550781 "/>
<path style=" stroke:none;fill-rule:evenodd;fill:rgb(99.215686%,98.823529%,98.431373%);fill-opacity:1;" d="M 70.449219 30.550781 C 72.695312 30.332031 73.832031 31.332031 73.851562 33.550781 C 73.292969 33.714844 72.726562 33.8125 72.148438 33.851562 C 72.265625 33.207031 72.097656 32.65625 71.648438 32.199219 C 70.484375 32 70.03125 32.484375 70.300781 33.648438 C 70.425781 33.941406 70.59375 34.210938 70.800781 34.449219 C 71.835938 35.25 72.769531 36.152344 73.601562 37.148438 C 74.199219 38.167969 74.296875 39.234375 73.898438 40.351562 C 73.148438 41.546875 72.066406 42.027344 70.648438 41.800781 C 68.988281 41.273438 68.253906 40.140625 68.449219 38.398438 C 68.988281 38.292969 69.519531 38.175781 70.050781 38.050781 C 70.109375 38.597656 70.222656 39.128906 70.398438 39.648438 C 70.664062 40.171875 71.078125 40.355469 71.648438 40.199219 C 71.867188 40.117188 72.015625 39.964844 72.101562 39.75 C 72.230469 39.109375 72.128906 38.507812 71.800781 37.949219 C 70.832031 37.050781 69.867188 36.148438 68.898438 35.25 C 68.257812 34.113281 68.191406 32.949219 68.699219 31.75 C 69.144531 31.136719 69.726562 30.738281 70.449219 30.550781 Z M 70.449219 30.550781 "/>
<path style=" stroke:none;fill-rule:evenodd;fill:rgb(99.607843%,98.823529%,98.431373%);fill-opacity:1;" d="M 108.351562 30.550781 C 109.378906 30.433594 110.34375 30.617188 111.25 31.101562 C 111.851562 31.691406 112.203125 32.40625 112.300781 33.25 C 112.367188 35.214844 112.367188 37.183594 112.300781 39.148438 C 111.921875 41.226562 110.671875 42.109375 108.550781 41.800781 C 107.464844 41.714844 106.714844 41.164062 106.300781 40.148438 C 106.167969 39.691406 106.066406 39.222656 106 38.75 C 105.910156 36.746094 105.945312 34.746094 106.101562 32.75 C 106.378906 31.519531 107.128906 30.785156 108.351562 30.550781 Z M 108.351562 30.550781 "/>
<path style=" stroke:none;fill-rule:evenodd;fill:rgb(99.215686%,98.823529%,98.431373%);fill-opacity:1;" d="M 65.550781 36.449219 C 65.597656 36.546875 65.648438 36.648438 65.699219 36.75 C 65.75 34.75 65.765625 32.75 65.75 30.75 C 66.289062 30.617188 66.839844 30.617188 67.398438 30.75 C 67.449219 34.382812 67.464844 38.015625 67.449219 41.648438 C 66.957031 41.679688 66.472656 41.648438 66 41.550781 C 65.171875 39.550781 64.355469 37.550781 63.550781 35.550781 C 63.523438 35.472656 63.472656 35.40625 63.398438 35.351562 C 63.351562 37.449219 63.332031 39.550781 63.351562 41.648438 C 62.785156 41.648438 62.214844 41.648438 61.648438 41.648438 C 61.648438 37.984375 61.648438 34.316406 61.648438 30.648438 C 62.144531 30.621094 62.625 30.652344 63.101562 30.75 C 63.917969 32.652344 64.734375 34.550781 65.550781 36.449219 Z M 65.550781 36.449219 "/>
<path style=" stroke:none;fill-rule:evenodd;fill:rgb(81.176471%,65.490196%,38.431373%);fill-opacity:1;" d="M 65.75 30.75 C 65.765625 32.75 65.75 34.75 65.699219 36.75 C 65.648438 36.648438 65.597656 36.546875 65.550781 36.449219 C 65.617188 34.550781 65.683594 32.648438 65.75 30.75 Z M 65.75 30.75 "/>
<path style=" stroke:none;fill-rule:evenodd;fill:rgb(99.215686%,98.823529%,98.039216%);fill-opacity:1;" d="M 74.851562 30.648438 C 75.484375 30.648438 76.117188 30.648438 76.75 30.648438 C 76.734375 33.484375 76.75 36.316406 76.800781 39.148438 C 76.988281 40.1875 77.570312 40.503906 78.550781 40.101562 C 78.703125 39.941406 78.820312 39.757812 78.898438 39.550781 C 79.042969 36.585938 79.09375 33.621094 79.050781 30.648438 C 79.683594 30.648438 80.316406 30.648438 80.949219 30.648438 C 80.964844 33.515625 80.949219 36.382812 80.898438 39.25 C 80.683594 41.035156 79.664062 41.902344 77.851562 41.851562 C 76.210938 41.90625 75.230469 41.140625 74.898438 39.550781 C 74.71875 36.578125 74.703125 33.613281 74.851562 30.648438 Z M 74.851562 30.648438 "/>
<path style=" stroke:none;fill-rule:evenodd;fill:rgb(99.215686%,98.823529%,98.039216%);fill-opacity:1;" d="M 88.148438 35.949219 C 88.167969 35.414062 88.148438 34.882812 88.101562 34.351562 C 88.019531 34.472656 87.972656 34.609375 87.949219 34.75 C 87.507812 37.054688 87.042969 39.355469 86.550781 41.648438 C 86.101562 41.707031 85.683594 41.640625 85.300781 41.449219 C 84.800781 39.117188 84.300781 36.785156 83.800781 34.449219 C 83.683594 36.847656 83.632812 39.25 83.648438 41.648438 C 83.148438 41.648438 82.648438 41.648438 82.148438 41.648438 C 82.148438 41.082031 82.148438 40.515625 82.148438 39.949219 C 82.148438 36.847656 82.183594 33.75 82.25 30.648438 C 82.949219 30.648438 83.648438 30.648438 84.351562 30.648438 C 84.851562 33.152344 85.367188 35.652344 85.898438 38.148438 C 86.476562 35.695312 87.007812 33.226562 87.5 30.75 C 88.175781 30.652344 88.859375 30.617188 89.550781 30.648438 C 89.636719 34.316406 89.703125 37.984375 89.75 41.648438 C 89.214844 41.648438 88.683594 41.648438 88.148438 41.648438 C 88.148438 39.75 88.148438 37.851562 88.148438 35.949219 Z M 88.148438 35.949219 "/>
<path style=" stroke:none;fill-rule:evenodd;fill:rgb(99.607843%,99.215686%,98.823529%);fill-opacity:1;" d="M 96.75 32.25 C 97.101562 33.496094 96.984375 34.695312 96.398438 35.851562 C 95.988281 36.25 95.503906 36.53125 94.949219 36.699219 C 94.285156 36.796875 93.621094 36.84375 92.949219 36.851562 C 92.949219 38.449219 92.949219 40.050781 92.949219 41.648438 C 92.285156 41.648438 91.617188 41.648438 90.949219 41.648438 C 90.949219 37.984375 90.949219 34.316406 90.949219 30.648438 C 92.324219 30.605469 93.6875 30.65625 95.050781 30.800781 C 95.851562 31.019531 96.417969 31.503906 96.75 32.25 Z M 96.75 32.25 "/>
<path style=" stroke:none;fill-rule:evenodd;fill:rgb(99.607843%,99.215686%,98.431373%);fill-opacity:1;" d="M 98.648438 41.648438 C 98.648438 38.484375 98.648438 35.316406 98.648438 32.148438 C 98.015625 32.148438 97.382812 32.148438 96.75 32.148438 C 96.75 31.648438 96.75 31.148438 96.75 30.648438 C 98.648438 30.648438 100.550781 30.648438 102.449219 30.648438 C 102.449219 31.183594 102.449219 31.714844 102.449219 32.25 C 101.851562 32.25 101.25 32.25 100.648438 32.25 C 100.648438 35.382812 100.648438 38.515625 100.648438 41.648438 C 99.984375 41.648438 99.316406 41.648438 98.648438 41.648438 Z M 98.648438 41.648438 "/>
<path style=" stroke:none;fill-rule:evenodd;fill:rgb(99.607843%,100%,99.607843%);fill-opacity:1;" d="M 102.949219 30.75 C 103.582031 30.75 104.21875 30.75 104.851562 30.75 C 104.851562 34.382812 104.851562 38.015625 104.851562 41.648438 C 104.21875 41.648438 103.582031 41.648438 102.949219 41.648438 C 102.949219 38.015625 102.949219 34.382812 102.949219 30.75 Z M 102.949219 30.75 "/>
<path style=" stroke:none;fill-rule:evenodd;fill:rgb(92.54902%,86.666667%,76.470588%);fill-opacity:1;" d="M 102.949219 30.75 C 103.597656 30.652344 104.265625 30.617188 104.949219 30.648438 C 104.984375 34.332031 104.949219 38 104.851562 41.648438 C 104.851562 38.015625 104.851562 34.382812 104.851562 30.75 C 104.21875 30.75 103.582031 30.75 102.949219 30.75 Z M 102.949219 30.75 "/>
<path style=" stroke:none;fill-rule:evenodd;fill:rgb(92.941176%,87.058824%,77.254902%);fill-opacity:1;" d="M 114.75 30.75 C 114.316406 30.75 113.882812 30.75 113.449219 30.75 C 113.449219 34.382812 113.449219 38.015625 113.449219 41.648438 C 113.351562 38 113.316406 34.332031 113.351562 30.648438 C 113.835938 30.617188 114.304688 30.652344 114.75 30.75 Z M 114.75 30.75 "/>
<path style=" stroke:none;fill-rule:evenodd;fill:rgb(99.607843%,98.823529%,98.431373%);fill-opacity:1;" d="M 115.25 35.550781 C 115.222656 35.472656 115.171875 35.40625 115.101562 35.351562 C 115.050781 37.449219 115.03125 39.550781 115.050781 41.648438 C 114.515625 41.648438 113.984375 41.648438 113.449219 41.648438 C 113.449219 38.015625 113.449219 34.382812 113.449219 30.75 C 113.882812 30.75 114.316406 30.75 114.75 30.75 C 115.640625 32.617188 116.472656 34.515625 117.25 36.449219 C 117.300781 36.546875 117.347656 36.648438 117.398438 36.75 C 117.449219 34.75 117.46875 32.75 117.449219 30.75 C 117.988281 30.617188 118.539062 30.617188 119.101562 30.75 C 119.148438 34.382812 119.167969 38.015625 119.148438 41.648438 C 118.679688 41.683594 118.210938 41.648438 117.75 41.550781 C 116.878906 39.5625 116.042969 37.5625 115.25 35.550781 Z M 115.25 35.550781 "/>
<path style=" stroke:none;fill-rule:evenodd;fill:rgb(81.176471%,65.882353%,38.431373%);fill-opacity:1;" d="M 117.449219 30.75 C 117.46875 32.75 117.449219 34.75 117.398438 36.75 C 117.347656 36.648438 117.300781 36.546875 117.25 36.449219 C 117.316406 34.550781 117.382812 32.648438 117.449219 30.75 Z M 117.449219 30.75 "/>
<path style=" stroke:none;fill-rule:evenodd;fill:rgb(74.901961%,54.509804%,18.431373%);fill-opacity:1;" d="M 57.050781 32.050781 C 57.710938 31.921875 58.195312 32.15625 58.5 32.75 C 58.566406 34.984375 58.566406 37.214844 58.5 39.449219 C 58.167969 40.324219 57.582031 40.542969 56.75 40.101562 C 56.578125 39.878906 56.460938 39.628906 56.398438 39.351562 C 56.332031 37.183594 56.332031 35.015625 56.398438 32.851562 C 56.53125 32.503906 56.746094 32.238281 57.050781 32.050781 Z M 57.050781 32.050781 "/>
<path style=" stroke:none;fill-rule:evenodd;fill:rgb(74.901961%,54.901961%,19.215686%);fill-opacity:1;" d="M 92.949219 32.148438 C 94.320312 31.808594 95.023438 32.324219 95.050781 33.699219 C 95.050781 35.101562 94.351562 35.652344 92.949219 35.351562 C 92.949219 34.285156 92.949219 33.214844 92.949219 32.148438 Z M 92.949219 32.148438 "/>
<path style=" stroke:none;fill-rule:evenodd;fill:rgb(74.901961%,54.509804%,18.431373%);fill-opacity:1;" d="M 108.75 32.050781 C 109.09375 32.03125 109.425781 32.082031 109.75 32.199219 C 109.980469 32.3125 110.132812 32.496094 110.199219 32.75 C 110.265625 34.984375 110.265625 37.214844 110.199219 39.449219 C 110.085938 40.011719 109.734375 40.3125 109.148438 40.351562 C 108.523438 40.304688 108.171875 39.972656 108.101562 39.351562 C 108.03125 37.183594 108.03125 35.015625 108.101562 32.851562 C 108.230469 32.503906 108.445312 32.238281 108.75 32.050781 Z M 108.75 32.050781 "/>
<path style=" stroke:none;fill-rule:evenodd;fill:rgb(81.960784%,67.45098%,41.176471%);fill-opacity:1;" d="M 96.75 32.25 C 96.75 32.214844 96.75 32.183594 96.75 32.148438 C 97.382812 32.148438 98.015625 32.148438 98.648438 32.148438 C 98.648438 35.316406 98.648438 38.484375 98.648438 41.648438 C 98.550781 38.535156 98.515625 35.402344 98.550781 32.25 C 97.949219 32.25 97.351562 32.25 96.75 32.25 Z M 96.75 32.25 "/>
<path style=" stroke:none;fill-rule:evenodd;fill:rgb(87.45098%,77.254902%,59.215686%);fill-opacity:1;" d="M 88.148438 35.949219 C 88.082031 35.550781 88.015625 35.148438 87.949219 34.75 C 87.972656 34.609375 88.019531 34.472656 88.101562 34.351562 C 88.148438 34.882812 88.167969 35.414062 88.148438 35.949219 Z M 88.148438 35.949219 "/>
<path style=" stroke:none;fill-rule:evenodd;fill:rgb(88.627451%,79.215686%,62.745098%);fill-opacity:1;" d="M 53.449219 33.148438 C 53.546875 33.664062 53.582031 34.199219 53.550781 34.75 C 52.863281 34.78125 52.199219 34.75 51.550781 34.648438 C 52.183594 34.648438 52.816406 34.648438 53.449219 34.648438 C 53.449219 34.148438 53.449219 33.648438 53.449219 33.148438 Z M 53.449219 33.148438 "/>
<path style=" stroke:none;fill-rule:evenodd;fill:rgb(81.176471%,65.882353%,38.823529%);fill-opacity:1;" d="M 63.550781 35.550781 C 63.484375 37.582031 63.417969 39.617188 63.351562 41.648438 C 63.332031 39.550781 63.351562 37.449219 63.398438 35.351562 C 63.472656 35.40625 63.523438 35.472656 63.550781 35.550781 Z M 63.550781 35.550781 "/>
<path style=" stroke:none;fill-rule:evenodd;fill:rgb(87.058824%,76.862745%,58.823529%);fill-opacity:1;" d="M 115.25 35.550781 C 115.183594 37.582031 115.117188 39.617188 115.050781 41.648438 C 115.03125 39.550781 115.050781 37.449219 115.101562 35.351562 C 115.171875 35.40625 115.222656 35.472656 115.25 35.550781 Z M 115.25 35.550781 "/>
<path style=" stroke:none;fill-rule:evenodd;fill:rgb(91.372549%,84.313725%,72.156863%);fill-opacity:1;" d="M 27.351562 37.148438 C 30.183594 37.148438 33.015625 37.148438 35.851562 37.148438 C 35.851562 38.617188 35.851562 40.082031 35.851562 41.550781 C 30.933594 41.582031 26.03125 41.550781 21.148438 41.449219 C 26.015625 41.449219 30.882812 41.449219 35.75 41.449219 C 35.75 40.050781 35.75 38.648438 35.75 37.25 C 32.933594 37.28125 30.132812 37.25 27.351562 37.148438 Z M 27.351562 37.148438 "/>
<path style=" stroke:none;fill-rule:evenodd;fill:rgb(83.529412%,69.803922%,45.490196%);fill-opacity:1;" d="M 82.148438 39.949219 C 82.148438 40.515625 82.148438 41.082031 82.148438 41.648438 C 82.648438 41.648438 83.148438 41.648438 83.648438 41.648438 C 83.136719 41.75 82.601562 41.78125 82.050781 41.75 C 82.019531 41.132812 82.050781 40.53125 82.148438 39.949219 Z M 82.148438 39.949219 "/>
<path style=" stroke:none;fill-rule:evenodd;fill:rgb(99.215686%,98.823529%,98.431373%);fill-opacity:1;" d="M 86.648438 48.550781 C 87.449219 48.535156 88.25 48.550781 89.050781 48.601562 C 90.183594 49.015625 90.835938 49.832031 91 51.050781 C 91.066406 53.050781 91.066406 55.050781 91 57.050781 C 90.597656 59.179688 89.3125 60.0625 87.148438 59.699219 C 86.105469 59.570312 85.386719 59.019531 85 58.050781 C 84.859375 57.695312 84.757812 57.328125 84.699219 56.949219 C 84.609375 54.878906 84.640625 52.8125 84.800781 50.75 C 85.023438 49.667969 85.636719 48.933594 86.648438 48.550781 Z M 86.648438 48.550781 "/>
<path style=" stroke:none;fill-rule:evenodd;fill:rgb(99.607843%,99.215686%,98.431373%);fill-opacity:1;" d="M 108.25 48.550781 C 111.398438 48.132812 112.730469 49.5 112.25 52.648438 C 111.617188 52.648438 110.984375 52.648438 110.351562 52.648438 C 110.394531 51.871094 110.34375 51.105469 110.199219 50.351562 C 110.109375 50.230469 109.992188 50.148438 109.851562 50.101562 C 109.054688 49.832031 108.539062 50.082031 108.300781 50.851562 C 108.234375 52.949219 108.234375 55.050781 108.300781 57.148438 C 108.523438 58.261719 109.125 58.53125 110.101562 57.949219 C 110.128906 57.796875 110.195312 57.664062 110.300781 57.550781 C 110.351562 56.851562 110.367188 56.152344 110.351562 55.449219 C 110.984375 55.449219 111.617188 55.449219 112.25 55.449219 C 112.265625 56.152344 112.25 56.851562 112.199219 57.550781 C 112.015625 58.800781 111.300781 59.515625 110.050781 59.699219 C 107.65625 60.007812 106.371094 58.957031 106.199219 56.550781 C 106.113281 54.613281 106.148438 52.679688 106.300781 50.75 C 106.554688 49.648438 107.203125 48.914062 108.25 48.550781 Z M 108.25 48.550781 "/>
<path style=" stroke:none;fill-rule:evenodd;fill:rgb(99.215686%,98.823529%,98.039216%);fill-opacity:1;" d="M 123.75 48.550781 C 124.449219 48.535156 125.152344 48.550781 125.851562 48.601562 C 127.101562 48.878906 127.816406 49.664062 128 50.949219 C 128.089844 53.1875 128.058594 55.417969 127.898438 57.648438 C 127.605469 58.777344 126.890625 59.460938 125.75 59.699219 C 124.386719 60.011719 123.234375 59.660156 122.300781 58.648438 C 122.042969 58.214844 121.875 57.75 121.800781 57.25 C 121.601562 55.082031 121.601562 52.917969 121.800781 50.75 C 122.050781 49.648438 122.699219 48.917969 123.75 48.550781 Z M 123.75 48.550781 "/>
<path style=" stroke:none;fill-rule:evenodd;fill:rgb(99.215686%,98.823529%,98.039216%);fill-opacity:1;" d="M 49.148438 48.648438 C 49.910156 48.617188 50.660156 48.652344 51.398438 48.75 C 52.160156 52.375 52.878906 56.007812 53.550781 59.648438 C 52.917969 59.648438 52.285156 59.648438 51.648438 59.648438 C 51.5625 58.773438 51.429688 57.910156 51.25 57.050781 C 50.617188 57.050781 49.984375 57.050781 49.351562 57.050781 C 49.214844 57.917969 49.082031 58.78125 48.949219 59.648438 C 48.316406 59.648438 47.683594 59.648438 47.050781 59.648438 C 47.722656 55.980469 48.425781 52.3125 49.148438 48.648438 Z M 49.148438 48.648438 "/>
<path style=" stroke:none;fill-rule:evenodd;fill:rgb(99.607843%,99.607843%,99.215686%);fill-opacity:1;" d="M 58.148438 54.550781 C 58.179688 54.628906 58.226562 54.695312 58.300781 54.75 C 58.351562 52.71875 58.367188 50.683594 58.351562 48.648438 C 58.882812 48.648438 59.417969 48.648438 59.949219 48.648438 C 59.949219 52.316406 59.949219 55.984375 59.949219 59.648438 C 59.488281 59.679688 59.039062 59.648438 58.601562 59.550781 C 57.722656 57.492188 56.871094 55.425781 56.050781 53.351562 C 56.023438 53.269531 55.972656 53.203125 55.898438 53.148438 C 55.851562 55.28125 55.832031 57.417969 55.851562 59.550781 C 55.316406 59.550781 54.785156 59.550781 54.25 59.550781 C 54.25 55.917969 54.25 52.285156 54.25 48.648438 C 54.742188 48.621094 55.226562 48.652344 55.699219 48.75 C 56.546875 50.675781 57.363281 52.605469 58.148438 54.550781 Z M 58.148438 54.550781 "/>
<path style=" stroke:none;fill-rule:evenodd;fill:rgb(93.333333%,88.235294%,79.215686%);fill-opacity:1;" d="M 58.351562 48.648438 C 58.367188 50.683594 58.351562 52.71875 58.300781 54.75 C 58.226562 54.695312 58.179688 54.628906 58.148438 54.550781 C 58.214844 52.582031 58.285156 50.617188 58.351562 48.648438 Z M 58.351562 48.648438 "/>
<path style=" stroke:none;fill-rule:evenodd;fill:rgb(99.607843%,99.215686%,98.431373%);fill-opacity:1;" d="M 61.148438 48.648438 C 62.382812 48.632812 63.617188 48.648438 64.851562 48.699219 C 66.023438 48.808594 66.773438 49.425781 67.101562 50.550781 C 67.257812 52.679688 67.289062 54.8125 67.199219 56.949219 C 67.050781 58.296875 66.335938 59.144531 65.050781 59.5 C 63.753906 59.636719 62.453125 59.683594 61.148438 59.648438 C 61.148438 55.984375 61.148438 52.316406 61.148438 48.648438 Z M 61.148438 48.648438 "/>
<path style=" stroke:none;fill-rule:evenodd;fill:rgb(99.607843%,99.607843%,99.215686%);fill-opacity:1;" d="M 74.648438 54.648438 C 74.148438 54.648438 73.648438 54.648438 73.148438 54.648438 C 73.148438 56.285156 73.148438 57.917969 73.148438 59.550781 C 72.503906 59.648438 71.835938 59.683594 71.148438 59.648438 C 71.148438 55.984375 71.148438 52.316406 71.148438 48.648438 C 72.484375 48.632812 73.816406 48.648438 75.148438 48.699219 C 76.285156 48.96875 76.933594 49.6875 77.101562 50.851562 C 77.222656 51.742188 77.125 52.609375 76.800781 53.449219 C 76.296875 54.226562 75.578125 54.625 74.648438 54.648438 Z M 74.648438 54.648438 "/>
<path style=" stroke:none;fill-rule:evenodd;fill:rgb(99.215686%,98.431373%,97.647059%);fill-opacity:1;" d="M 77.75 48.648438 C 79.015625 48.632812 80.285156 48.648438 81.550781 48.699219 C 82.671875 48.859375 83.390625 49.472656 83.699219 50.550781 C 83.765625 51.25 83.765625 51.949219 83.699219 52.648438 C 83.550781 53.3125 83.183594 53.8125 82.601562 54.148438 C 82.582031 54.214844 82.566406 54.285156 82.550781 54.351562 C 83.058594 56.105469 83.523438 57.871094 83.949219 59.648438 C 83.28125 59.683594 82.613281 59.648438 81.949219 59.550781 C 81.503906 57.957031 81.085938 56.359375 80.699219 54.75 C 80.429688 54.65625 80.144531 54.621094 79.851562 54.648438 C 79.867188 56.285156 79.851562 57.917969 79.800781 59.550781 C 79.125 59.648438 78.441406 59.679688 77.75 59.648438 C 77.75 55.984375 77.75 52.316406 77.75 48.648438 Z M 77.75 48.648438 "/>
<path style=" stroke:none;fill-rule:evenodd;fill:rgb(99.215686%,98.823529%,98.431373%);fill-opacity:1;" d="M 92.050781 48.648438 C 93.285156 48.632812 94.515625 48.648438 95.75 48.699219 C 96.96875 48.820312 97.71875 49.46875 98 50.648438 C 98.199219 52.917969 98.199219 55.183594 98 57.449219 C 97.621094 58.828125 96.703125 59.546875 95.25 59.601562 C 94.183594 59.648438 93.117188 59.667969 92.050781 59.648438 C 92.050781 55.984375 92.050781 52.316406 92.050781 48.648438 Z M 92.050781 48.648438 "/>
<path style=" stroke:none;fill-rule:evenodd;fill:rgb(99.215686%,98.823529%,98.039216%);fill-opacity:1;" d="M 99.050781 48.648438 C 99.714844 48.648438 100.382812 48.648438 101.050781 48.648438 C 101.03125 51.449219 101.050781 54.25 101.101562 57.050781 C 101.277344 58.144531 101.859375 58.464844 102.851562 58 C 103.003906 57.808594 103.121094 57.589844 103.199219 57.351562 C 103.25 54.449219 103.265625 51.550781 103.25 48.648438 C 103.917969 48.648438 104.582031 48.648438 105.25 48.648438 C 105.265625 51.417969 105.25 54.183594 105.199219 56.949219 C 105.09375 58.875 104.074219 59.808594 102.148438 59.75 C 100.148438 59.699219 99.132812 58.667969 99.101562 56.648438 C 99.050781 53.984375 99.035156 51.316406 99.050781 48.648438 Z M 99.050781 48.648438 "/>
<path style=" stroke:none;fill-rule:evenodd;fill:rgb(99.607843%,99.607843%,99.607843%);fill-opacity:1;" d="M 112.550781 48.648438 C 114.382812 48.648438 116.21875 48.648438 118.050781 48.648438 C 118.050781 49.117188 118.050781 49.582031 118.050781 50.050781 C 117.464844 50.019531 116.898438 50.050781 116.351562 50.148438 C 116.351562 53.316406 116.351562 56.484375 116.351562 59.648438 C 115.683594 59.648438 115.015625 59.648438 114.351562 59.648438 C 114.351562 56.484375 114.351562 53.316406 114.351562 50.148438 C 113.769531 50.050781 113.167969 50.019531 112.550781 50.050781 C 112.550781 49.582031 112.550781 49.117188 112.550781 48.648438 Z M 112.550781 48.648438 "/>
<path style=" stroke:none;fill-rule:evenodd;fill:rgb(99.607843%,99.215686%,98.431373%);fill-opacity:1;" d="M 118.648438 48.648438 C 119.316406 48.648438 119.984375 48.648438 120.648438 48.648438 C 120.648438 52.316406 120.648438 55.984375 120.648438 59.648438 C 119.984375 59.648438 119.316406 59.648438 118.648438 59.648438 C 118.648438 55.984375 118.648438 52.316406 118.648438 48.648438 Z M 118.648438 48.648438 "/>
<path style=" stroke:none;fill-rule:evenodd;fill:rgb(99.607843%,99.215686%,98.823529%);fill-opacity:1;" d="M 134.75 48.648438 C 134.75 52.285156 134.75 55.917969 134.75 59.550781 C 134.316406 59.550781 133.882812 59.550781 133.449219 59.550781 C 132.597656 57.523438 131.765625 55.492188 130.949219 53.449219 C 130.921875 53.371094 130.871094 53.304688 130.800781 53.25 C 130.75 55.351562 130.734375 57.449219 130.75 59.550781 C 130.203125 59.648438 129.636719 59.683594 129.050781 59.648438 C 129.050781 55.984375 129.050781 52.316406 129.050781 48.648438 C 129.554688 48.617188 130.054688 48.652344 130.550781 48.75 C 131.398438 50.714844 132.25 52.683594 133.101562 54.648438 C 133.148438 52.648438 133.167969 50.648438 133.148438 48.648438 C 133.683594 48.648438 134.21875 48.648438 134.75 48.648438 Z M 134.75 48.648438 "/>
<path style=" stroke:none;fill-rule:evenodd;fill:rgb(92.941176%,87.058824%,77.254902%);fill-opacity:1;" d="M 134.75 48.648438 C 134.851562 52.300781 134.882812 55.964844 134.851562 59.648438 C 134.363281 59.683594 133.898438 59.648438 133.449219 59.550781 C 133.882812 59.550781 134.316406 59.550781 134.75 59.550781 C 134.75 55.917969 134.75 52.285156 134.75 48.648438 Z M 134.75 48.648438 "/>
<path style=" stroke:none;fill-rule:evenodd;fill:rgb(75.294118%,55.686275%,20.392157%);fill-opacity:1;" d="M 73.148438 50.050781 C 74.96875 49.84375 75.652344 50.644531 75.199219 52.449219 C 75.113281 52.710938 74.960938 52.925781 74.75 53.101562 C 74.230469 53.238281 73.695312 53.289062 73.148438 53.25 C 73.148438 52.183594 73.148438 51.117188 73.148438 50.050781 Z M 73.148438 50.050781 "/>
<path style=" stroke:none;fill-rule:evenodd;fill:rgb(74.901961%,54.509804%,18.431373%);fill-opacity:1;" d="M 79.851562 50.050781 C 80.40625 50 80.941406 50.082031 81.449219 50.300781 C 81.785156 50.648438 81.917969 51.066406 81.851562 51.550781 C 81.917969 52.953125 81.253906 53.519531 79.851562 53.25 C 79.851562 52.183594 79.851562 51.117188 79.851562 50.050781 Z M 79.851562 50.050781 "/>
<path style=" stroke:none;fill-rule:evenodd;fill:rgb(74.901961%,54.509804%,18.431373%);fill-opacity:1;" d="M 87.25 50.050781 C 87.652344 50.035156 88.050781 50.050781 88.449219 50.101562 C 88.636719 50.253906 88.789062 50.4375 88.898438 50.648438 C 88.964844 52.882812 88.964844 55.117188 88.898438 57.351562 C 88.636719 58.207031 88.085938 58.457031 87.25 58.101562 C 87.027344 57.898438 86.875 57.648438 86.800781 57.351562 C 86.734375 55.148438 86.734375 52.949219 86.800781 50.75 C 86.902344 50.480469 87.050781 50.246094 87.25 50.050781 Z M 87.25 50.050781 "/>
<path style=" stroke:none;fill-rule:evenodd;fill:rgb(91.764706%,84.705882%,72.941176%);fill-opacity:1;" d="M 112.550781 48.648438 C 112.550781 49.117188 112.550781 49.582031 112.550781 50.050781 C 113.167969 50.019531 113.769531 50.050781 114.351562 50.148438 C 113.71875 50.148438 113.082031 50.148438 112.449219 50.148438 C 112.417969 49.628906 112.449219 49.128906 112.550781 48.648438 Z M 112.550781 48.648438 "/>
<path style=" stroke:none;fill-rule:evenodd;fill:rgb(93.333333%,88.235294%,79.215686%);fill-opacity:1;" d="M 118.050781 48.648438 C 118.148438 49.128906 118.183594 49.628906 118.148438 50.148438 C 117.550781 50.148438 116.949219 50.148438 116.351562 50.148438 C 116.898438 50.050781 117.464844 50.019531 118.050781 50.050781 C 118.050781 49.582031 118.050781 49.117188 118.050781 48.648438 Z M 118.050781 48.648438 "/>
<path style=" stroke:none;fill-rule:evenodd;fill:rgb(74.901961%,54.509804%,18.431373%);fill-opacity:1;" d="M 124.25 50.050781 C 124.652344 50.035156 125.050781 50.050781 125.449219 50.101562 C 125.636719 50.253906 125.789062 50.4375 125.898438 50.648438 C 125.96875 52.917969 125.96875 55.183594 125.898438 57.449219 C 125.757812 58.007812 125.390625 58.273438 124.800781 58.25 C 124.15625 58.175781 123.824219 57.808594 123.800781 57.148438 C 123.734375 55.050781 123.734375 52.949219 123.800781 50.851562 C 123.875 50.535156 124.023438 50.269531 124.25 50.050781 Z M 124.25 50.050781 "/>
<path style=" stroke:none;fill-rule:evenodd;fill:rgb(86.666667%,76.078431%,57.254902%);fill-opacity:1;" d="M 64.351562 50.148438 C 63.984375 50.148438 63.617188 50.148438 63.25 50.148438 C 63.25 52.816406 63.25 55.484375 63.25 58.148438 C 63.148438 55.46875 63.117188 52.765625 63.148438 50.050781 C 63.570312 50.019531 63.96875 50.050781 64.351562 50.148438 Z M 64.351562 50.148438 "/>
<path style=" stroke:none;fill-rule:evenodd;fill:rgb(74.901961%,54.509804%,18.039216%);fill-opacity:1;" d="M 64.351562 50.148438 C 64.742188 50.226562 64.992188 50.457031 65.101562 50.851562 C 65.167969 52.984375 65.167969 55.117188 65.101562 57.25 C 65.039062 57.554688 64.890625 57.804688 64.648438 58 C 64.191406 58.121094 63.726562 58.171875 63.25 58.148438 C 63.25 55.484375 63.25 52.816406 63.25 50.148438 C 63.617188 50.148438 63.984375 50.148438 64.351562 50.148438 Z M 64.351562 50.148438 "/>
<path style=" stroke:none;fill-rule:evenodd;fill:rgb(86.666667%,76.078431%,57.254902%);fill-opacity:1;" d="M 95.25 50.148438 C 94.882812 50.148438 94.515625 50.148438 94.148438 50.148438 C 94.148438 52.816406 94.148438 55.484375 94.148438 58.148438 C 94.050781 55.46875 94.015625 52.765625 94.050781 50.050781 C 94.46875 50.019531 94.871094 50.050781 95.25 50.148438 Z M 95.25 50.148438 "/>
<path style=" stroke:none;fill-rule:evenodd;fill:rgb(74.901961%,54.509804%,18.039216%);fill-opacity:1;" d="M 95.25 50.148438 C 95.644531 50.226562 95.894531 50.460938 96 50.851562 C 96.066406 52.949219 96.066406 55.050781 96 57.148438 C 95.96875 57.496094 95.816406 57.78125 95.550781 58 C 95.089844 58.121094 94.625 58.171875 94.148438 58.148438 C 94.148438 55.484375 94.148438 52.816406 94.148438 50.148438 C 94.515625 50.148438 94.882812 50.148438 95.25 50.148438 Z M 95.25 50.148438 "/>
<path style=" stroke:none;fill-rule:evenodd;fill:rgb(75.686275%,55.686275%,20.392157%);fill-opacity:1;" d="M 50.949219 55.351562 C 50.949219 55.449219 50.949219 55.550781 50.949219 55.648438 C 50.515625 55.648438 50.082031 55.648438 49.648438 55.648438 C 49.8125 54.242188 50.027344 52.84375 50.300781 51.449219 C 50.542969 52.746094 50.757812 54.046875 50.949219 55.351562 Z M 50.949219 55.351562 "/>
<path style=" stroke:none;fill-rule:evenodd;fill:rgb(92.54902%,86.27451%,75.294118%);fill-opacity:1;" d="M 56.050781 53.351562 C 55.949219 55.433594 55.917969 57.53125 55.949219 59.648438 C 55.363281 59.683594 54.796875 59.648438 54.25 59.550781 C 54.785156 59.550781 55.316406 59.550781 55.851562 59.550781 C 55.832031 57.417969 55.851562 55.28125 55.898438 53.148438 C 55.972656 53.203125 56.023438 53.269531 56.050781 53.351562 Z M 56.050781 53.351562 "/>
<path style=" stroke:none;fill-rule:evenodd;fill:rgb(87.058824%,76.862745%,58.823529%);fill-opacity:1;" d="M 130.949219 53.449219 C 130.882812 55.484375 130.816406 57.515625 130.75 59.550781 C 130.734375 57.449219 130.75 55.351562 130.800781 53.25 C 130.871094 53.304688 130.921875 53.371094 130.949219 53.449219 Z M 130.949219 53.449219 "/>
<path style=" stroke:none;fill-rule:evenodd;fill:rgb(82.352941%,67.843137%,42.352941%);fill-opacity:1;" d="M 74.648438 54.648438 C 74.203125 54.75 73.734375 54.78125 73.25 54.75 C 73.28125 56.367188 73.25 57.96875 73.148438 59.550781 C 73.148438 57.917969 73.148438 56.285156 73.148438 54.648438 C 73.648438 54.648438 74.148438 54.648438 74.648438 54.648438 Z M 74.648438 54.648438 "/>
<path style=" stroke:none;fill-rule:evenodd;fill:rgb(82.352941%,68.235294%,42.745098%);fill-opacity:1;" d="M 50.949219 55.351562 C 51.042969 55.457031 51.078125 55.589844 51.050781 55.75 C 50.5625 55.78125 50.097656 55.75 49.648438 55.648438 C 50.082031 55.648438 50.515625 55.648438 50.949219 55.648438 C 50.949219 55.550781 50.949219 55.449219 50.949219 55.351562 Z M 50.949219 55.351562 "/>
<path style=" stroke:none;fill-rule:evenodd;fill:rgb(99.607843%,99.607843%,99.607843%);fill-opacity:1;" d="M 48.050781 72.851562 C 54.527344 72.625 60.261719 74.542969 65.25 78.601562 C 67.828125 80.878906 70.078125 83.429688 72 86.25 C 73.34375 88.234375 74.609375 90.265625 75.800781 92.351562 C 77.207031 95.066406 78.640625 97.765625 80.101562 100.449219 C 81.902344 103.519531 84.152344 106.238281 86.851562 108.601562 C 89.789062 110.917969 93.085938 112.519531 96.75 113.398438 C 101.257812 114.257812 105.355469 113.359375 109.050781 110.699219 C 111.371094 108.714844 112.921875 106.230469 113.699219 103.25 C 114.40625 100.390625 114.640625 97.492188 114.398438 94.550781 C 113.625 86.042969 109.007812 81.160156 100.550781 79.898438 C 96.15625 79.5 92.15625 80.566406 88.550781 83.101562 C 85.75 85.234375 83.367188 87.75 81.398438 90.648438 C 81.078125 90.910156 80.761719 90.910156 80.449219 90.648438 C 79.351562 88.714844 78.25 86.785156 77.148438 84.851562 C 80.324219 80.390625 84.390625 77.007812 89.351562 74.699219 C 97.460938 71.628906 105.160156 72.425781 112.449219 77.101562 C 117.519531 80.949219 120.433594 86.066406 121.199219 92.449219 C 121.722656 96.878906 121.421875 101.246094 120.300781 105.550781 C 117.878906 113.136719 112.828125 117.984375 105.148438 120.101562 C 100.183594 121.128906 95.351562 120.691406 90.648438 118.800781 C 84.671875 116.289062 79.824219 112.375 76.101562 107.050781 C 75.464844 106.082031 74.832031 105.117188 74.199219 104.148438 C 72.597656 101.148438 71 98.148438 69.398438 95.148438 C 67.410156 91.523438 64.992188 88.207031 62.148438 85.199219 C 58.359375 81.457031 53.792969 79.660156 48.449219 79.800781 C 39.210938 80.90625 34.394531 86.125 34 95.449219 C 33.765625 98.472656 34.164062 101.40625 35.199219 104.25 C 37.441406 109.023438 41.160156 111.941406 46.351562 113 C 49.679688 113.546875 52.914062 113.214844 56.050781 112 C 56.773438 111.679688 57.457031 111.296875 58.101562 110.851562 C 58.152344 110.699219 58.101562 110.585938 57.949219 110.5 C 56.902344 109.621094 55.886719 108.703125 54.898438 107.75 C 54.773438 107.382812 54.890625 107.132812 55.25 107 C 59.648438 105.765625 64.050781 104.53125 68.449219 103.300781 C 68.875 103.164062 69.308594 103.128906 69.75 103.199219 C 69.890625 103.375 69.957031 103.574219 69.949219 103.800781 C 69.128906 108.609375 68.34375 113.425781 67.601562 118.25 C 67.378906 118.527344 67.09375 118.613281 66.75 118.5 C 65.726562 117.472656 64.640625 116.523438 63.5 115.648438 C 57.425781 119.972656 50.742188 121.253906 43.449219 119.5 C 35.082031 117.03125 29.800781 111.582031 27.601562 103.148438 C 26.871094 98.917969 26.871094 94.683594 27.601562 90.449219 C 29.597656 81.417969 35.082031 75.769531 44.050781 73.5 C 45.386719 73.21875 46.71875 73 48.050781 72.851562 Z M 48.050781 72.851562 "/>
</g>
</svg>
