<?xml version="1.0" encoding="UTF-8"?>
<svg xmlns="http://www.w3.org/2000/svg" xmlns:xlink="http://www.w3.org/1999/xlink" width="150px" height="150px" viewBox="0 0 150 150" version="1.1">
<g id="surface1">
<path style=" stroke:none;fill-rule:evenodd;fill:rgb(24.705882%,49.411765%,26.666667%);fill-opacity:1;" d="M -0.0507812 -0.0507812 C 49.949219 -0.0507812 99.949219 -0.0507812 149.949219 -0.0507812 C 149.949219 49.949219 149.949219 99.949219 149.949219 149.949219 C 99.949219 149.949219 49.949219 149.949219 -0.0507812 149.949219 C -0.0507812 99.949219 -0.0507812 49.949219 -0.0507812 -0.0507812 Z M -0.0507812 -0.0507812 "/>
<path style=" stroke:none;fill-rule:evenodd;fill:rgb(99.215686%,99.607843%,99.607843%);fill-opacity:1;" d="M 27.449219 12.449219 C 29.300781 12.289062 31.097656 12.503906 32.851562 13.101562 C 35.128906 14.207031 36.410156 16.023438 36.699219 18.550781 C 37.070312 20.828125 36.636719 22.929688 35.398438 24.851562 C 34.8125 25.550781 34.09375 26.066406 33.25 26.398438 C 35.351562 27.417969 36.5 29.097656 36.699219 31.449219 C 36.972656 33.722656 36.707031 35.921875 35.898438 38.050781 C 34.886719 40.328125 33.136719 41.613281 30.648438 41.898438 C 25.078125 42.691406 21.996094 40.308594 21.398438 34.75 C 21.351562 33.949219 21.332031 33.152344 21.351562 32.351562 C 23.183594 32.351562 25.015625 32.351562 26.851562 32.351562 C 26.691406 33.847656 26.910156 35.28125 27.5 36.648438 C 28.144531 37.3125 28.929688 37.53125 29.851562 37.300781 C 30.550781 37.066406 30.96875 36.582031 31.101562 35.851562 C 31.390625 34.324219 31.421875 32.789062 31.199219 31.25 C 31.011719 30 30.332031 29.183594 29.148438 28.800781 C 28.488281 28.679688 27.820312 28.628906 27.148438 28.648438 C 27.148438 27.316406 27.148438 25.984375 27.148438 24.648438 C 28.074219 24.703125 28.972656 24.585938 29.851562 24.300781 C 30.609375 23.835938 31.058594 23.152344 31.199219 22.25 C 31.335938 21.21875 31.367188 20.1875 31.300781 19.148438 C 30.992188 17.070312 29.84375 16.386719 27.851562 17.101562 C 27.378906 17.511719 27.097656 18.027344 27 18.648438 C 26.867188 19.710938 26.820312 20.777344 26.851562 21.851562 C 25.015625 21.851562 23.183594 21.851562 21.351562 21.851562 C 21.214844 20.113281 21.398438 18.410156 21.898438 16.75 C 22.96875 14.292969 24.820312 12.859375 27.449219 12.449219 Z M 27.449219 12.449219 "/>
<path style=" stroke:none;fill-rule:evenodd;fill:rgb(98.823529%,99.215686%,98.823529%);fill-opacity:1;" d="M 54.148438 16.75 C 53.515625 16.75 52.882812 16.75 52.25 16.75 C 52.28125 16.363281 52.25 15.996094 52.148438 15.648438 C 52.304688 14.554688 51.839844 14.074219 50.75 14.199219 C 50.425781 14.398438 50.207031 14.679688 50.101562 15.050781 C 50.035156 17.117188 50.035156 19.183594 50.101562 21.25 C 50.285156 22.355469 50.886719 22.65625 51.898438 22.148438 C 51.984375 21.992188 52.054688 21.824219 52.101562 21.648438 C 52.148438 20.984375 52.167969 20.316406 52.148438 19.648438 C 52.816406 19.648438 53.484375 19.648438 54.148438 19.648438 C 54.304688 20.859375 54.085938 21.992188 53.5 23.050781 C 53.109375 23.472656 52.625 23.722656 52.050781 23.800781 C 49.835938 24.285156 48.519531 23.4375 48.101562 21.25 C 48.035156 19.183594 48.035156 17.117188 48.101562 15.050781 C 48.582031 13.148438 49.796875 12.367188 51.75 12.699219 C 53.042969 12.859375 53.824219 13.574219 54.101562 14.851562 C 54.148438 15.484375 54.167969 16.117188 54.148438 16.75 Z M 54.148438 16.75 "/>
<path style=" stroke:none;fill-rule:evenodd;fill:rgb(79.607843%,86.27451%,80%);fill-opacity:1;" d="M 71.148438 13.25 C 71.054688 13.144531 71.023438 13.011719 71.050781 12.851562 C 70.375 12.820312 69.707031 12.855469 69.050781 12.949219 C 69.707031 12.753906 70.410156 12.6875 71.148438 12.75 C 71.148438 12.917969 71.148438 13.082031 71.148438 13.25 Z M 71.148438 13.25 "/>
<path style=" stroke:none;fill-rule:evenodd;fill:rgb(78.431373%,85.098039%,78.823529%);fill-opacity:1;" d="M 83.550781 14.25 C 83.550781 13.785156 83.550781 13.316406 83.550781 12.851562 C 81.714844 12.851562 79.882812 12.851562 78.050781 12.851562 C 78.050781 13.316406 78.050781 13.785156 78.050781 14.25 C 77.953125 13.769531 77.917969 13.269531 77.949219 12.75 C 79.851562 12.75 81.75 12.75 83.648438 12.75 C 83.683594 13.269531 83.648438 13.769531 83.550781 14.25 Z M 83.550781 14.25 "/>
<path style=" stroke:none;fill-rule:evenodd;fill:rgb(99.607843%,99.607843%,99.607843%);fill-opacity:1;" d="M 9.050781 19.949219 C 8.949219 18.632812 8.917969 17.300781 8.949219 15.949219 C 10.066406 15.457031 11.164062 14.910156 12.25 14.300781 C 12.988281 13.898438 13.65625 13.398438 14.25 12.800781 C 15.683594 12.75 17.117188 12.734375 18.550781 12.75 C 18.550781 22.351562 18.550781 31.949219 18.550781 41.550781 C 16.714844 41.550781 14.882812 41.550781 13.050781 41.550781 C 13.082031 33.882812 13.050781 26.214844 12.949219 18.550781 C 11.660156 19.058594 10.363281 19.523438 9.050781 19.949219 Z M 9.050781 19.949219 "/>
<path style=" stroke:none;fill-rule:evenodd;fill:rgb(96.862745%,97.647059%,96.862745%);fill-opacity:1;" d="M 57.148438 22.351562 C 57.964844 22.449219 58.796875 22.484375 59.648438 22.449219 C 59.648438 22.882812 59.648438 23.316406 59.648438 23.75 C 58.117188 23.75 56.582031 23.75 55.050781 23.75 C 55.050781 20.082031 55.050781 16.417969 55.050781 12.75 C 55.75 12.75 56.449219 12.75 57.148438 12.75 C 57.148438 15.949219 57.148438 19.148438 57.148438 22.351562 Z M 57.148438 22.351562 "/>
<path style=" stroke:none;fill-rule:evenodd;fill:rgb(99.607843%,100%,99.607843%);fill-opacity:1;" d="M 60.449219 12.851562 C 61.082031 12.851562 61.714844 12.851562 62.351562 12.851562 C 62.351562 16.484375 62.351562 20.117188 62.351562 23.75 C 61.714844 23.75 61.082031 23.75 60.449219 23.75 C 60.449219 20.117188 60.449219 16.484375 60.449219 12.851562 Z M 60.449219 12.851562 "/>
<path style=" stroke:none;fill-rule:evenodd;fill:rgb(81.176471%,87.058824%,81.568627%);fill-opacity:1;" d="M 60.449219 12.851562 C 61.097656 12.75 61.765625 12.71875 62.449219 12.75 C 62.484375 16.433594 62.449219 20.101562 62.351562 23.75 C 62.351562 20.117188 62.351562 16.484375 62.351562 12.851562 C 61.714844 12.851562 61.082031 12.851562 60.449219 12.851562 Z M 60.449219 12.851562 "/>
<path style=" stroke:none;fill-rule:evenodd;fill:rgb(98.823529%,99.215686%,98.823529%);fill-opacity:1;" d="M 69.050781 12.949219 C 69.707031 12.855469 70.375 12.820312 71.050781 12.851562 C 71.023438 13.011719 71.054688 13.144531 71.148438 13.25 C 71.171875 16.75 71.238281 20.25 71.351562 23.75 C 70.816406 23.75 70.285156 23.75 69.75 23.75 C 69.777344 21.382812 69.730469 19.015625 69.601562 16.648438 C 69.058594 19.007812 68.574219 21.375 68.148438 23.75 C 67.714844 23.75 67.285156 23.75 66.851562 23.75 C 66.398438 21.378906 65.914062 19.011719 65.398438 16.648438 C 65.253906 19.011719 65.203125 21.375 65.25 23.75 C 64.714844 23.75 64.183594 23.75 63.648438 23.75 C 63.722656 20.082031 63.789062 16.417969 63.851562 12.75 C 64.550781 12.75 65.25 12.75 65.949219 12.75 C 66.433594 15.222656 66.949219 17.6875 67.5 20.148438 C 68.046875 17.757812 68.566406 15.355469 69.050781 12.949219 Z M 69.050781 12.949219 "/>
<path style=" stroke:none;fill-rule:evenodd;fill:rgb(98.431373%,98.823529%,98.431373%);fill-opacity:1;" d="M 78.449219 23.648438 C 77.828125 23.78125 77.191406 23.78125 76.550781 23.648438 C 76.4375 22.886719 76.320312 22.117188 76.199219 21.351562 C 75.558594 21.253906 74.910156 21.21875 74.25 21.25 C 74.136719 22.085938 74 22.921875 73.851562 23.75 C 73.214844 23.75 72.582031 23.75 71.949219 23.75 C 72.632812 20.144531 73.351562 16.542969 74.101562 12.949219 C 74.441406 12.820312 74.808594 12.753906 75.199219 12.75 C 75.574219 12.75 75.941406 12.785156 76.300781 12.851562 C 77.023438 16.449219 77.738281 20.050781 78.449219 23.648438 Z M 78.449219 23.648438 "/>
<path style=" stroke:none;fill-rule:evenodd;fill:rgb(99.607843%,100%,99.607843%);fill-opacity:1;" d="M 83.550781 14.25 C 82.984375 14.25 82.417969 14.25 81.851562 14.25 C 81.851562 17.417969 81.851562 20.582031 81.851562 23.75 C 81.183594 23.75 80.515625 23.75 79.851562 23.75 C 79.851562 20.582031 79.851562 17.417969 79.851562 14.25 C 79.25 14.25 78.648438 14.25 78.050781 14.25 C 78.050781 13.785156 78.050781 13.316406 78.050781 12.851562 C 79.882812 12.851562 81.714844 12.851562 83.550781 12.851562 C 83.550781 13.316406 83.550781 13.785156 83.550781 14.25 Z M 83.550781 14.25 "/>
<path style=" stroke:none;fill-rule:evenodd;fill:rgb(81.176471%,87.058824%,81.568627%);fill-opacity:1;" d="M 88.648438 12.851562 C 87.148438 12.851562 85.648438 12.851562 84.148438 12.851562 C 84.148438 16.484375 84.148438 20.117188 84.148438 23.75 C 84.050781 20.101562 84.015625 16.433594 84.050781 12.75 C 85.601562 12.71875 87.132812 12.75 88.648438 12.851562 Z M 88.648438 12.851562 "/>
<path style=" stroke:none;fill-rule:evenodd;fill:rgb(99.215686%,99.607843%,99.215686%);fill-opacity:1;" d="M 88.648438 12.851562 C 88.648438 13.316406 88.648438 13.785156 88.648438 14.25 C 87.816406 14.25 86.984375 14.25 86.148438 14.25 C 86.148438 15.285156 86.148438 16.316406 86.148438 17.351562 C 86.816406 17.351562 87.484375 17.351562 88.148438 17.351562 C 88.148438 17.816406 88.148438 18.285156 88.148438 18.75 C 87.449219 18.75 86.75 18.75 86.050781 18.75 C 86.015625 19.96875 86.050781 21.167969 86.148438 22.351562 C 86.964844 22.449219 87.796875 22.484375 88.648438 22.449219 C 88.648438 22.882812 88.648438 23.316406 88.648438 23.75 C 87.148438 23.75 85.648438 23.75 84.148438 23.75 C 84.148438 20.117188 84.148438 16.484375 84.148438 12.851562 C 85.648438 12.851562 87.148438 12.851562 88.648438 12.851562 Z M 88.648438 12.851562 "/>
<path style=" stroke:none;fill-rule:evenodd;fill:rgb(43.529412%,61.960784%,45.098039%);fill-opacity:1;" d="M 78.050781 14.25 C 78.648438 14.25 79.25 14.25 79.851562 14.25 C 79.851562 17.417969 79.851562 20.582031 79.851562 23.75 C 79.75 20.632812 79.71875 17.5 79.75 14.351562 C 79.164062 14.382812 78.597656 14.347656 78.050781 14.25 Z M 78.050781 14.25 "/>
<path style=" stroke:none;fill-rule:evenodd;fill:rgb(81.176471%,87.058824%,81.568627%);fill-opacity:1;" d="M 8.949219 15.949219 C 8.917969 17.300781 8.949219 18.632812 9.050781 19.949219 C 9.042969 20.003906 9.011719 20.039062 8.949219 20.050781 C 8.816406 18.667969 8.816406 17.300781 8.949219 15.949219 Z M 8.949219 15.949219 "/>
<path style=" stroke:none;fill-rule:evenodd;fill:rgb(27.058824%,50.980392%,29.019608%);fill-opacity:1;" d="M 75.148438 15.949219 C 75.214844 16.015625 75.285156 16.082031 75.351562 16.148438 C 75.515625 17.28125 75.683594 18.414062 75.851562 19.550781 C 75.851562 19.648438 75.851562 19.75 75.851562 19.851562 C 75.417969 19.851562 74.984375 19.851562 74.550781 19.851562 C 74.71875 18.546875 74.917969 17.246094 75.148438 15.949219 Z M 75.148438 15.949219 "/>
<path style=" stroke:none;fill-rule:evenodd;fill:rgb(52.156863%,67.843137%,53.333333%);fill-opacity:1;" d="M 75.351562 16.148438 C 75.285156 16.082031 75.214844 16.015625 75.148438 15.949219 C 75.132812 15.8125 75.152344 15.679688 75.199219 15.550781 C 75.3125 15.734375 75.363281 15.933594 75.351562 16.148438 Z M 75.351562 16.148438 "/>
<path style=" stroke:none;fill-rule:evenodd;fill:rgb(61.568627%,74.509804%,62.745098%);fill-opacity:1;" d="M 52.148438 15.648438 C 52.25 15.996094 52.28125 16.363281 52.25 16.75 C 52.882812 16.75 53.515625 16.75 54.148438 16.75 C 53.503906 16.847656 52.835938 16.882812 52.148438 16.851562 C 52.148438 16.449219 52.148438 16.050781 52.148438 15.648438 Z M 52.148438 15.648438 "/>
<path style=" stroke:none;fill-rule:evenodd;fill:rgb(57.254902%,71.372549%,58.431373%);fill-opacity:1;" d="M 88.148438 18.75 C 87.503906 18.847656 86.835938 18.882812 86.148438 18.851562 C 86.148438 20.015625 86.148438 21.183594 86.148438 22.351562 C 86.050781 21.167969 86.015625 19.96875 86.050781 18.75 C 86.75 18.75 87.449219 18.75 88.148438 18.75 Z M 88.148438 18.75 "/>
<path style=" stroke:none;fill-rule:evenodd;fill:rgb(60.784314%,73.72549%,61.960784%);fill-opacity:1;" d="M 75.851562 19.550781 C 75.945312 19.65625 75.976562 19.789062 75.949219 19.949219 C 75.464844 19.980469 74.996094 19.949219 74.550781 19.851562 C 74.984375 19.851562 75.417969 19.851562 75.851562 19.851562 C 75.851562 19.75 75.851562 19.648438 75.851562 19.550781 Z M 75.851562 19.550781 "/>
<path style=" stroke:none;fill-rule:evenodd;fill:rgb(81.176471%,87.058824%,81.568627%);fill-opacity:1;" d="M 57.148438 22.351562 C 58.015625 22.351562 58.882812 22.351562 59.75 22.351562 C 59.78125 22.835938 59.75 23.304688 59.648438 23.75 C 59.648438 23.316406 59.648438 22.882812 59.648438 22.449219 C 58.796875 22.484375 57.964844 22.449219 57.148438 22.351562 Z M 57.148438 22.351562 "/>
<path style=" stroke:none;fill-rule:evenodd;fill:rgb(81.176471%,87.058824%,81.568627%);fill-opacity:1;" d="M 86.148438 22.351562 C 87.015625 22.351562 87.882812 22.351562 88.75 22.351562 C 88.78125 22.835938 88.75 23.304688 88.648438 23.75 C 88.648438 23.316406 88.648438 22.882812 88.648438 22.449219 C 87.796875 22.484375 86.964844 22.449219 86.148438 22.351562 Z M 86.148438 22.351562 "/>
<path style=" stroke:none;fill-rule:evenodd;fill:rgb(43.137255%,61.568627%,44.313725%);fill-opacity:1;" d="M 76.550781 23.648438 C 77.191406 23.78125 77.828125 23.78125 78.449219 23.648438 C 78.503906 23.65625 78.539062 23.6875 78.550781 23.75 C 78.214844 23.785156 77.882812 23.816406 77.550781 23.851562 C 77.175781 23.847656 76.84375 23.78125 76.550781 23.648438 Z M 76.550781 23.648438 "/>
<path style=" stroke:none;fill-rule:evenodd;fill:rgb(98.431373%,98.823529%,98.431373%);fill-opacity:1;" d="M 57.148438 30.550781 C 58.253906 30.40625 59.238281 30.675781 60.101562 31.351562 C 60.382812 31.746094 60.582031 32.179688 60.699219 32.648438 C 60.75 33.347656 60.765625 34.050781 60.75 34.75 C 60.117188 34.75 59.484375 34.75 58.851562 34.75 C 58.867188 34.082031 58.851562 33.414062 58.800781 32.75 C 58.425781 32.039062 57.875 31.875 57.148438 32.25 C 57.015625 32.402344 56.898438 32.570312 56.800781 32.75 C 56.734375 34.984375 56.734375 37.214844 56.800781 39.449219 C 57.039062 40.21875 57.554688 40.46875 58.351562 40.199219 C 58.589844 40.003906 58.738281 39.753906 58.800781 39.449219 C 58.851562 38.816406 58.867188 38.183594 58.851562 37.550781 C 59.484375 37.550781 60.117188 37.550781 60.75 37.550781 C 61.046875 41.238281 59.449219 42.519531 55.949219 41.398438 C 55.183594 40.8125 54.765625 40.03125 54.699219 39.050781 C 54.609375 36.914062 54.640625 34.78125 54.800781 32.648438 C 55.132812 31.429688 55.917969 30.730469 57.148438 30.550781 Z M 57.148438 30.550781 "/>
<path style=" stroke:none;fill-rule:evenodd;fill:rgb(98.431373%,98.823529%,98.431373%);fill-opacity:1;" d="M 72.550781 30.550781 C 73.632812 30.417969 74.632812 30.632812 75.550781 31.199219 C 76.09375 31.773438 76.410156 32.457031 76.5 33.25 C 76.59375 35.355469 76.5625 37.453125 76.398438 39.550781 C 76.09375 40.855469 75.277344 41.605469 73.949219 41.800781 C 71.789062 42.101562 70.539062 41.183594 70.199219 39.050781 C 70.132812 37.082031 70.132812 35.117188 70.199219 33.148438 C 70.378906 31.722656 71.160156 30.855469 72.550781 30.550781 Z M 72.550781 30.550781 "/>
<path style=" stroke:none;fill-rule:evenodd;fill:rgb(98.431373%,98.823529%,98.431373%);fill-opacity:1;" d="M 54.148438 41.550781 C 53.570312 41.648438 52.96875 41.683594 52.351562 41.648438 C 52.179688 40.835938 52.046875 40 51.949219 39.148438 C 51.285156 39.148438 50.617188 39.148438 49.949219 39.148438 C 49.859375 39.992188 49.726562 40.824219 49.550781 41.648438 C 48.917969 41.648438 48.285156 41.648438 47.648438 41.648438 C 48.367188 38.050781 49.082031 34.449219 49.800781 30.851562 C 50.140625 30.722656 50.507812 30.65625 50.898438 30.648438 C 51.273438 30.652344 51.640625 30.683594 52 30.75 C 52.773438 34.339844 53.492188 37.941406 54.148438 41.550781 Z M 54.148438 41.550781 "/>
<path style=" stroke:none;fill-rule:evenodd;fill:rgb(97.647059%,98.431373%,97.647059%);fill-opacity:1;" d="M 60.949219 30.75 C 62.816406 30.75 64.683594 30.75 66.550781 30.75 C 66.550781 31.214844 66.550781 31.683594 66.550781 32.148438 C 65.964844 32.117188 65.398438 32.152344 64.851562 32.25 C 64.851562 35.382812 64.851562 38.515625 64.851562 41.648438 C 64.148438 41.648438 63.449219 41.648438 62.75 41.648438 C 62.75 38.515625 62.75 35.382812 62.75 32.25 C 62.148438 32.25 61.550781 32.25 60.949219 32.25 C 60.949219 31.75 60.949219 31.25 60.949219 30.75 Z M 60.949219 30.75 "/>
<path style=" stroke:none;fill-rule:evenodd;fill:rgb(61.960784%,74.509804%,63.137255%);fill-opacity:1;" d="M 69.050781 41.648438 C 69.050781 38.015625 69.050781 34.382812 69.050781 30.75 C 68.417969 30.75 67.785156 30.75 67.148438 30.75 C 67.148438 34.382812 67.148438 38.015625 67.148438 41.648438 C 67.050781 38 67.015625 34.332031 67.050781 30.648438 C 67.75 30.648438 68.449219 30.648438 69.148438 30.648438 C 69.183594 34.332031 69.148438 38 69.050781 41.648438 Z M 69.050781 41.648438 "/>
<path style=" stroke:none;fill-rule:evenodd;fill:rgb(99.607843%,100%,99.607843%);fill-opacity:1;" d="M 69.050781 41.648438 C 68.417969 41.648438 67.785156 41.648438 67.148438 41.648438 C 67.148438 38.015625 67.148438 34.382812 67.148438 30.75 C 67.785156 30.75 68.417969 30.75 69.050781 30.75 C 69.050781 34.382812 69.050781 38.015625 69.050781 41.648438 Z M 69.050781 41.648438 "/>
<path style=" stroke:none;fill-rule:evenodd;fill:rgb(99.607843%,99.607843%,99.607843%);fill-opacity:1;" d="M 81.449219 36.550781 C 81.476562 36.628906 81.527344 36.695312 81.601562 36.75 C 81.648438 34.75 81.667969 32.75 81.648438 30.75 C 82.183594 30.75 82.714844 30.75 83.25 30.75 C 83.25 34.382812 83.25 38.015625 83.25 41.648438 C 82.789062 41.679688 82.339844 41.648438 81.898438 41.550781 C 81.082031 39.582031 80.265625 37.613281 79.449219 35.648438 C 79.402344 35.550781 79.351562 35.453125 79.300781 35.351562 C 79.25 37.449219 79.234375 39.550781 79.25 41.648438 C 78.683594 41.648438 78.117188 41.648438 77.550781 41.648438 C 77.550781 37.984375 77.550781 34.316406 77.550781 30.648438 C 78.019531 30.617188 78.488281 30.652344 78.949219 30.75 C 79.824219 32.667969 80.65625 34.601562 81.449219 36.550781 Z M 81.449219 36.550781 "/>
<path style=" stroke:none;fill-rule:evenodd;fill:rgb(61.960784%,74.509804%,63.137255%);fill-opacity:1;" d="M 83.25 30.75 C 82.714844 30.75 82.183594 30.75 81.648438 30.75 C 81.667969 32.75 81.648438 34.75 81.601562 36.75 C 81.527344 36.695312 81.476562 36.628906 81.449219 36.550781 C 81.550781 34.601562 81.582031 32.632812 81.550781 30.648438 C 82.136719 30.617188 82.703125 30.652344 83.25 30.75 Z M 83.25 30.75 "/>
<path style=" stroke:none;fill-rule:evenodd;fill:rgb(61.568627%,74.509804%,62.745098%);fill-opacity:1;" d="M 60.949219 30.75 C 62.832031 30.648438 64.734375 30.617188 66.648438 30.648438 C 66.648438 31.183594 66.648438 31.714844 66.648438 32.25 C 66.050781 32.25 65.449219 32.25 64.851562 32.25 C 65.398438 32.152344 65.964844 32.117188 66.550781 32.148438 C 66.550781 31.683594 66.550781 31.214844 66.550781 30.75 C 64.683594 30.75 62.816406 30.75 60.949219 30.75 Z M 60.949219 30.75 "/>
<path style=" stroke:none;fill-rule:evenodd;fill:rgb(25.098039%,49.411765%,27.058824%);fill-opacity:1;" d="M 72.949219 32.050781 C 73.660156 31.914062 74.144531 32.179688 74.398438 32.851562 C 74.464844 35.050781 74.464844 37.25 74.398438 39.449219 C 74.109375 40.253906 73.558594 40.503906 72.75 40.199219 C 72.539062 40.027344 72.386719 39.808594 72.300781 39.550781 C 72.234375 37.285156 72.234375 35.015625 72.300781 32.75 C 72.4375 32.429688 72.652344 32.199219 72.949219 32.050781 Z M 72.949219 32.050781 "/>
<path style=" stroke:none;fill-rule:evenodd;fill:rgb(28.627451%,51.764706%,30.196078%);fill-opacity:1;" d="M 50.851562 33.449219 C 50.988281 33.6875 51.070312 33.953125 51.101562 34.25 C 51.25 35.457031 51.433594 36.65625 51.648438 37.851562 C 51.183594 37.851562 50.714844 37.851562 50.25 37.851562 C 50.457031 36.382812 50.65625 34.917969 50.851562 33.449219 Z M 50.851562 33.449219 "/>
<path style=" stroke:none;fill-rule:evenodd;fill:rgb(43.529412%,61.960784%,45.098039%);fill-opacity:1;" d="M 79.449219 35.648438 C 79.382812 37.648438 79.316406 39.648438 79.25 41.648438 C 79.234375 39.550781 79.25 37.449219 79.300781 35.351562 C 79.351562 35.453125 79.402344 35.550781 79.449219 35.648438 Z M 79.449219 35.648438 "/>
<path style=" stroke:none;fill-rule:evenodd;fill:rgb(43.137255%,61.568627%,44.705882%);fill-opacity:1;" d="M 54.148438 41.550781 C 54.203125 41.554688 54.238281 41.589844 54.25 41.648438 C 53.601562 41.78125 52.96875 41.78125 52.351562 41.648438 C 52.96875 41.683594 53.570312 41.648438 54.148438 41.550781 Z M 54.148438 41.550781 "/>
<path style=" stroke:none;fill-rule:evenodd;fill:rgb(99.607843%,99.607843%,99.607843%);fill-opacity:1;" d="M 72.449219 66.148438 C 96.078125 65.476562 115.359375 74.207031 130.300781 92.351562 C 130.832031 93.082031 131.367188 93.816406 131.898438 94.550781 C 131.96875 94.648438 131.96875 94.75 131.898438 94.851562 C 121.804688 108.46875 108.484375 117.320312 91.949219 121.398438 C 78.335938 124.414062 64.96875 123.578125 51.851562 118.898438 C 39.125 113.964844 28.675781 106.050781 20.5 95.148438 C 20.363281 94.964844 20.246094 94.761719 20.148438 94.550781 C 27.972656 83.808594 38.039062 75.925781 50.351562 70.898438 C 57.472656 68.113281 64.839844 66.53125 72.449219 66.148438 Z M 72.449219 66.148438 "/>
<path style=" stroke:none;fill-rule:evenodd;fill:rgb(24.705882%,49.411765%,26.666667%);fill-opacity:1;" d="M 73.949219 71.449219 C 83.609375 71.039062 91.023438 74.875 96.199219 82.949219 C 97.246094 84.746094 98.046875 86.644531 98.601562 88.648438 C 98.734375 89.175781 98.769531 89.710938 98.699219 90.25 C 98.457031 90.957031 97.957031 91.320312 97.199219 91.351562 C 96.96875 91.351562 96.753906 91.300781 96.550781 91.199219 C 96.195312 90.894531 95.863281 90.5625 95.550781 90.199219 C 95.324219 90.042969 95.089844 90.027344 94.851562 90.148438 C 94.609375 91.078125 94.789062 91.914062 95.398438 92.648438 C 95.464844 92.816406 95.464844 92.984375 95.398438 93.148438 C 94.910156 93.671875 94.328125 94.054688 93.648438 94.300781 C 93.097656 94.40625 92.5625 94.570312 92.050781 94.800781 C 91.308594 95.613281 91.027344 96.5625 91.199219 97.648438 C 91.632812 98.5 92.050781 99.347656 92.449219 100.199219 C 92.425781 100.507812 92.257812 100.65625 91.949219 100.648438 C 90.707031 100.085938 89.625 99.285156 88.699219 98.25 C 88.019531 96.855469 87.417969 95.421875 86.898438 93.949219 C 86.21875 92.917969 85.382812 92.785156 84.398438 93.550781 C 84.367188 93.964844 84.386719 94.382812 84.449219 94.800781 C 84.316406 95.652344 84 96.4375 83.5 97.148438 C 83.277344 97.328125 83.027344 97.378906 82.75 97.300781 C 82.277344 96.757812 81.742188 96.292969 81.148438 95.898438 C 79.925781 95.414062 78.691406 94.949219 77.449219 94.5 C 77.222656 94.328125 77.007812 94.144531 76.800781 93.949219 C 76.472656 93.351562 76.238281 92.71875 76.101562 92.050781 C 75.917969 91.867188 75.734375 91.683594 75.550781 91.5 C 74.945312 91.199219 74.347656 90.898438 73.75 90.601562 C 73.269531 90.207031 72.769531 89.84375 72.25 89.5 C 72.042969 89.417969 71.84375 89.4375 71.648438 89.550781 C 71.558594 89.675781 71.539062 89.808594 71.601562 89.949219 C 71.867188 90.285156 72.132812 90.617188 72.398438 90.949219 C 73.464844 91.882812 74.464844 92.882812 75.398438 93.949219 C 75.523438 94.6875 75.273438 95.269531 74.648438 95.699219 C 73.984375 96.15625 73.25 96.390625 72.449219 96.398438 C 72.121094 96.238281 71.824219 96.039062 71.550781 95.800781 C 70.785156 94.964844 70.015625 94.132812 69.25 93.300781 C 69.121094 93.25 68.988281 93.234375 68.851562 93.25 C 68.96875 95.589844 70.105469 97.238281 72.25 98.199219 C 72.542969 98.390625 72.707031 98.65625 72.75 99 C 72.632812 99.347656 72.515625 99.699219 72.398438 100.050781 C 71.695312 100.585938 71.097656 101.222656 70.601562 101.949219 C 70.476562 102.84375 70.410156 103.742188 70.398438 104.648438 C 70.148438 105.300781 69.949219 105.96875 69.800781 106.648438 C 69.5625 106.9375 69.292969 107.203125 69 107.449219 C 68.746094 108.21875 68.480469 108.984375 68.199219 109.75 C 67.371094 111.640625 65.921875 112.523438 63.851562 112.398438 C 63.699219 112.316406 63.582031 112.199219 63.5 112.050781 C 63.019531 110.761719 62.800781 109.429688 62.851562 108.050781 C 62.546875 108.113281 62.328125 108.015625 62.199219 107.75 C 62 106.949219 61.800781 106.148438 61.601562 105.351562 C 61.171875 105.261719 60.753906 105.261719 60.351562 105.351562 C 60.28125 104.980469 60.195312 104.613281 60.101562 104.25 C 59.59375 103.835938 59.109375 103.386719 58.648438 102.898438 C 58.351562 102.832031 58.050781 102.832031 57.75 102.898438 C 57.082031 103.265625 56.417969 103.632812 55.75 104 C 55.339844 104.050781 54.957031 103.96875 54.601562 103.75 C 53.109375 100.089844 52.542969 96.289062 52.898438 92.351562 C 53.441406 91.726562 53.925781 91.058594 54.351562 90.351562 C 54.890625 90.074219 55.457031 89.957031 56.050781 90 C 56.679688 90.144531 57.316406 90.277344 57.949219 90.398438 C 59.507812 90.996094 61.074219 91.5625 62.648438 92.101562 C 63.871094 92.3125 64.855469 91.929688 65.601562 90.949219 C 65.683594 90.570312 65.652344 90.203125 65.5 89.851562 C 65.300781 89.625 65.050781 89.527344 64.75 89.550781 C 64.371094 89.640625 64.003906 89.726562 63.648438 89.800781 C 63.351562 89.433594 63.050781 89.066406 62.75 88.699219 C 62.597656 88.597656 62.429688 88.550781 62.25 88.550781 C 62.320312 89.230469 62.453125 89.898438 62.648438 90.550781 C 62.410156 90.5625 62.226562 90.460938 62.101562 90.25 C 61.683594 89.617188 61.316406 88.949219 61 88.25 C 60.332031 87.339844 59.648438 87.324219 58.949219 88.199219 C 58.035156 88.671875 57.070312 88.96875 56.050781 89.101562 C 55.570312 89.339844 55.070312 89.523438 54.550781 89.648438 C 54.21875 89.703125 54 89.566406 53.898438 89.25 C 53.710938 88.710938 53.710938 88.179688 53.898438 87.648438 C 54.507812 87.1875 55.191406 87.035156 55.949219 87.199219 C 57.398438 87.75 58.015625 87.269531 57.800781 85.75 C 58.636719 85.304688 59.453125 84.824219 60.25 84.300781 C 61.070312 84.070312 61.902344 84.003906 62.75 84.101562 C 63.332031 84.265625 63.917969 84.417969 64.5 84.550781 C 65.003906 84.558594 65.453125 84.410156 65.851562 84.101562 C 66.355469 83.421875 66.972656 82.871094 67.699219 82.449219 C 67.765625 82.351562 67.765625 82.25 67.699219 82.148438 C 67.324219 81.875 66.90625 81.792969 66.449219 81.898438 C 65.960938 82.339844 65.496094 82.804688 65.050781 83.300781 C 64.730469 83.519531 64.382812 83.632812 64 83.648438 C 62.796875 83.53125 61.695312 83.128906 60.699219 82.449219 C 60.417969 82.140625 60.386719 81.808594 60.601562 81.449219 C 61.394531 80.578125 62.375 80.0625 63.550781 79.898438 C 64.613281 79.785156 65.683594 79.683594 66.75 79.601562 C 67.570312 79.351562 68.402344 79.152344 69.25 79 C 69.804688 78.898438 70.339844 78.964844 70.851562 79.199219 C 70.953125 79.304688 70.96875 79.421875 70.898438 79.550781 C 70.035156 80 69.199219 80.5 68.398438 81.050781 C 68.257812 81.449219 68.390625 81.683594 68.800781 81.75 C 70.347656 81.191406 71.78125 80.425781 73.101562 79.449219 C 73.167969 79.316406 73.167969 79.183594 73.101562 79.050781 C 72.503906 78.621094 71.9375 78.15625 71.398438 77.648438 C 71.035156 77.023438 70.9375 76.359375 71.101562 75.648438 C 71.023438 75.472656 70.90625 75.320312 70.75 75.199219 C 69.824219 74.816406 68.855469 74.664062 67.851562 74.75 C 66.476562 74.800781 65.113281 74.882812 63.75 75 C 66.882812 73.027344 70.28125 71.84375 73.949219 71.449219 Z M 73.949219 71.449219 "/>
<path style=" stroke:none;fill-rule:evenodd;fill:rgb(26.666667%,50.588235%,28.235294%);fill-opacity:1;" d="M 59.648438 77.851562 C 60.082031 77.785156 60.46875 77.882812 60.800781 78.148438 C 60.960938 79.027344 60.679688 79.710938 59.949219 80.199219 C 59.527344 80.425781 59.09375 80.628906 58.648438 80.800781 C 58.15625 80.9375 57.738281 80.820312 57.398438 80.449219 C 57.332031 80.351562 57.332031 80.25 57.398438 80.148438 C 57.867188 79.550781 58.332031 78.949219 58.800781 78.351562 C 59.066406 78.140625 59.351562 77.976562 59.648438 77.851562 Z M 59.648438 77.851562 "/>
<path style=" stroke:none;fill-rule:evenodd;fill:rgb(26.27451%,50.196078%,28.235294%);fill-opacity:1;" d="M 58.050781 81.75 C 58.5625 81.6875 59.027344 81.804688 59.449219 82.101562 C 59.554688 82.238281 59.570312 82.390625 59.5 82.550781 C 59.058594 82.929688 58.574219 83.246094 58.050781 83.5 C 57.167969 84.515625 56.167969 85.382812 55.050781 86.101562 C 54.828125 86.183594 54.628906 86.148438 54.449219 86 C 54.949219 84.753906 55.566406 83.570312 56.300781 82.449219 C 56.824219 82.046875 57.40625 81.816406 58.050781 81.75 Z M 58.050781 81.75 "/>
<path style=" stroke:none;fill-rule:evenodd;fill:rgb(25.490196%,49.803922%,27.45098%);fill-opacity:1;" d="M 97.351562 91.851562 C 98.332031 91.78125 98.980469 92.214844 99.300781 93.148438 C 99.367188 94.382812 99.367188 95.617188 99.300781 96.851562 C 99.257812 97.738281 99.109375 98.605469 98.851562 99.449219 C 97.960938 98.675781 97.378906 97.710938 97.101562 96.550781 C 96.855469 95.691406 96.921875 94.855469 97.300781 94.050781 C 97.550781 93.769531 97.730469 93.453125 97.851562 93.101562 C 97.695312 92.675781 97.53125 92.261719 97.351562 91.851562 Z M 97.351562 91.851562 "/>
<path style=" stroke:none;fill-rule:evenodd;fill:rgb(27.058824%,50.588235%,28.627451%);fill-opacity:1;" d="M 92.351562 96.648438 C 92.742188 96.664062 93.078125 96.8125 93.351562 97.101562 C 94.261719 98.21875 93.996094 98.585938 92.550781 98.199219 C 92.289062 97.898438 92.125 97.546875 92.050781 97.148438 C 92.074219 96.929688 92.175781 96.765625 92.351562 96.648438 Z M 92.351562 96.648438 "/>
<path style=" stroke:none;fill-rule:evenodd;fill:rgb(25.882353%,50.196078%,27.843137%);fill-opacity:1;" d="M 80.75 96.851562 C 81.441406 96.824219 81.988281 97.089844 82.398438 97.648438 C 82.652344 98.0625 82.535156 98.3125 82.050781 98.398438 C 81.492188 98.5 80.960938 98.433594 80.449219 98.199219 C 80.21875 98.085938 80.085938 97.902344 80.050781 97.648438 C 80.214844 97.320312 80.445312 97.054688 80.75 96.851562 Z M 80.75 96.851562 "/>
<path style=" stroke:none;fill-rule:evenodd;fill:rgb(26.27451%,50.196078%,28.235294%);fill-opacity:1;" d="M 93.550781 99.050781 C 94.222656 99.0625 94.773438 99.328125 95.199219 99.851562 C 95.4375 100.203125 95.355469 100.453125 94.949219 100.601562 C 94.1875 100.773438 93.503906 100.621094 92.898438 100.148438 C 92.832031 99.984375 92.832031 99.816406 92.898438 99.648438 C 93.105469 99.425781 93.324219 99.226562 93.550781 99.050781 Z M 93.550781 99.050781 "/>
<path style=" stroke:none;fill-rule:evenodd;fill:rgb(25.098039%,49.411765%,27.058824%);fill-opacity:1;" d="M 96.648438 100.75 C 96.871094 100.71875 97.054688 100.785156 97.199219 100.949219 C 97.636719 101.660156 97.835938 102.429688 97.800781 103.25 C 96.621094 106.261719 94.90625 108.910156 92.648438 111.199219 C 92.484375 111.265625 92.316406 111.265625 92.148438 111.199219 C 91.84375 110.996094 91.511719 110.878906 91.148438 110.851562 C 90.75 110.921875 90.382812 111.035156 90.050781 111.199219 C 89.910156 111.105469 89.84375 110.972656 89.851562 110.800781 C 89.894531 110.617188 89.925781 110.433594 89.949219 110.25 C 89.8125 110.234375 89.679688 110.25 89.550781 110.300781 C 89.082031 110.566406 88.617188 110.832031 88.148438 111.101562 C 87.816406 111.222656 87.566406 111.136719 87.398438 110.851562 C 87.160156 109.910156 86.890625 108.976562 86.601562 108.050781 C 86.460938 105.421875 87.675781 103.769531 90.25 103.101562 C 91.703125 102.808594 93.136719 102.441406 94.550781 102 C 95.292969 101.636719 95.992188 101.21875 96.648438 100.75 Z M 96.648438 100.75 "/>
<path style=" stroke:none;fill-rule:evenodd;fill:rgb(25.882353%,50.196078%,27.843137%);fill-opacity:1;" d="M 72.648438 100.851562 C 73.316406 100.800781 73.566406 101.101562 73.398438 101.75 C 72.726562 103.207031 72.160156 104.707031 71.699219 106.25 C 71.621094 106.613281 71.40625 106.8125 71.050781 106.851562 C 70.871094 105.222656 71.019531 103.621094 71.5 102.050781 C 71.667969 101.816406 71.832031 101.582031 72 101.351562 C 72.234375 101.195312 72.453125 101.03125 72.648438 100.851562 Z M 72.648438 100.851562 "/>
<path style=" stroke:none;fill-rule:evenodd;fill:rgb(25.098039%,49.411765%,27.058824%);fill-opacity:1;" d="M 86.949219 112.851562 C 87.898438 112.789062 88.832031 112.871094 89.75 113.101562 C 89.851562 113.183594 89.949219 113.265625 90.050781 113.351562 C 86.390625 116.109375 82.257812 117.660156 77.648438 118 C 74.859375 118.179688 72.128906 117.878906 69.449219 117.101562 C 69.054688 116.550781 69.074219 116 69.5 115.449219 C 70.375 114.242188 71.558594 113.527344 73.050781 113.300781 C 74.21875 113.21875 75.386719 113.253906 76.550781 113.398438 C 78.40625 113.886719 80.238281 114.453125 82.050781 115.101562 C 82.511719 115.230469 82.976562 115.261719 83.449219 115.199219 C 84.476562 114.1875 85.640625 113.40625 86.949219 112.851562 Z M 86.949219 112.851562 "/>
</g>
</svg>
