<?xml version="1.0" encoding="UTF-8"?>
<svg xmlns="http://www.w3.org/2000/svg" xmlns:xlink="http://www.w3.org/1999/xlink" width="150px" height="150px" viewBox="0 0 150 150" version="1.1">
<g id="surface1">
<path style=" stroke:none;fill-rule:evenodd;fill:rgb(3.921569%,59.215686%,85.098039%);fill-opacity:1;" d="M -0.0507812 -0.0507812 C 49.949219 -0.0507812 99.949219 -0.0507812 149.949219 -0.0507812 C 149.949219 49.949219 149.949219 99.949219 149.949219 149.949219 C 99.949219 149.949219 49.949219 149.949219 -0.0507812 149.949219 C -0.0507812 99.949219 -0.0507812 49.949219 -0.0507812 -0.0507812 Z M -0.0507812 -0.0507812 "/>
<path style=" stroke:none;fill-rule:evenodd;fill:rgb(99.607843%,99.607843%,99.607843%);fill-opacity:1;" d="M 13.75 12.851562 C 15.183594 12.851562 16.617188 12.851562 18.050781 12.851562 C 18.050781 22.382812 18.050781 31.917969 18.050781 41.449219 C 16.25 41.449219 14.449219 41.449219 12.648438 41.449219 C 12.648438 33.816406 12.648438 26.183594 12.648438 18.550781 C 12.519531 18.527344 12.421875 18.558594 12.351562 18.648438 C 11.125 19.101562 9.890625 19.535156 8.648438 19.949219 C 8.550781 18.632812 8.515625 17.300781 8.550781 15.949219 C 9.667969 15.457031 10.769531 14.90625 11.851562 14.300781 C 12.53125 13.867188 13.164062 13.386719 13.75 12.851562 Z M 13.75 12.851562 "/>
<path style=" stroke:none;fill-rule:evenodd;fill:rgb(70.588235%,87.058824%,95.294118%);fill-opacity:1;" d="M 13.75 12.851562 C 15.199219 12.75 16.664062 12.71875 18.148438 12.75 C 18.148438 22.351562 18.148438 31.949219 18.148438 41.550781 C 16.316406 41.550781 14.484375 41.550781 12.648438 41.550781 C 12.648438 41.515625 12.648438 41.484375 12.648438 41.449219 C 14.449219 41.449219 16.25 41.449219 18.050781 41.449219 C 18.050781 31.917969 18.050781 22.382812 18.050781 12.851562 C 16.617188 12.851562 15.183594 12.851562 13.75 12.851562 Z M 13.75 12.851562 "/>
<path style=" stroke:none;fill-rule:evenodd;fill:rgb(99.607843%,99.607843%,99.607843%);fill-opacity:1;" d="M 27.949219 12.851562 C 29.984375 12.851562 32.015625 12.851562 34.050781 12.851562 C 34.015625 18.765625 34.050781 24.667969 34.148438 30.550781 C 35.082031 30.550781 36.015625 30.550781 36.949219 30.550781 C 36.949219 31.917969 36.949219 33.285156 36.949219 34.648438 C 36 34.617188 35.066406 34.652344 34.148438 34.75 C 34.050781 36.964844 34.015625 39.199219 34.050781 41.449219 C 32.417969 41.449219 30.785156 41.449219 29.148438 41.449219 C 29.148438 39.183594 29.148438 36.917969 29.148438 34.648438 C 26.285156 34.648438 23.417969 34.648438 20.550781 34.648438 C 20.535156 33.148438 20.550781 31.648438 20.601562 30.148438 C 23.058594 24.386719 25.511719 18.617188 27.949219 12.851562 Z M 27.949219 12.851562 "/>
<path style=" stroke:none;fill-rule:evenodd;fill:rgb(71.372549%,87.45098%,95.294118%);fill-opacity:1;" d="M 27.949219 12.851562 C 30 12.75 32.066406 12.71875 34.148438 12.75 C 34.148438 18.683594 34.148438 24.617188 34.148438 30.550781 C 34.050781 24.667969 34.015625 18.765625 34.050781 12.851562 C 32.015625 12.851562 29.984375 12.851562 27.949219 12.851562 Z M 27.949219 12.851562 "/>
<path style=" stroke:none;fill-rule:evenodd;fill:rgb(99.607843%,99.607843%,99.607843%);fill-opacity:1;" d="M 47.851562 12.851562 C 48.484375 12.851562 49.117188 12.851562 49.75 12.851562 C 49.71875 16.035156 49.75 19.199219 49.851562 22.351562 C 50.714844 22.351562 51.582031 22.351562 52.449219 22.351562 C 52.449219 22.816406 52.449219 23.285156 52.449219 23.75 C 50.917969 23.75 49.382812 23.75 47.851562 23.75 C 47.851562 20.117188 47.851562 16.484375 47.851562 12.851562 Z M 47.851562 12.851562 "/>
<path style=" stroke:none;fill-rule:evenodd;fill:rgb(75.686275%,89.411765%,96.078431%);fill-opacity:1;" d="M 47.851562 12.851562 C 47.851562 12.816406 47.851562 12.785156 47.851562 12.75 C 48.515625 12.75 49.183594 12.75 49.851562 12.75 C 49.851562 15.949219 49.851562 19.148438 49.851562 22.351562 C 49.75 19.199219 49.71875 16.035156 49.75 12.851562 C 49.117188 12.851562 48.484375 12.851562 47.851562 12.851562 Z M 47.851562 12.851562 "/>
<path style=" stroke:none;fill-rule:evenodd;fill:rgb(99.607843%,100%,99.607843%);fill-opacity:1;" d="M 53.148438 12.851562 C 53.785156 12.851562 54.417969 12.851562 55.050781 12.851562 C 55.050781 16.484375 55.050781 20.117188 55.050781 23.75 C 54.417969 23.75 53.785156 23.75 53.148438 23.75 C 53.148438 20.117188 53.148438 16.484375 53.148438 12.851562 Z M 53.148438 12.851562 "/>
<path style=" stroke:none;fill-rule:evenodd;fill:rgb(75.686275%,89.411765%,96.078431%);fill-opacity:1;" d="M 53.148438 12.851562 C 53.796875 12.75 54.464844 12.71875 55.148438 12.75 C 55.183594 16.433594 55.148438 20.101562 55.050781 23.75 C 55.050781 20.117188 55.050781 16.484375 55.050781 12.851562 C 54.417969 12.851562 53.785156 12.851562 53.148438 12.851562 Z M 53.148438 12.851562 "/>
<path style=" stroke:none;fill-rule:evenodd;fill:rgb(74.509804%,89.019608%,96.078431%);fill-opacity:1;" d="M 60.851562 14.148438 C 60.851562 13.714844 60.851562 13.285156 60.851562 12.851562 C 59.382812 12.851562 57.917969 12.851562 56.449219 12.851562 C 56.449219 16.484375 56.449219 20.117188 56.449219 23.75 C 56.351562 20.101562 56.316406 16.433594 56.351562 12.75 C 57.882812 12.75 59.417969 12.75 60.949219 12.75 C 60.980469 13.234375 60.949219 13.703125 60.851562 14.148438 Z M 60.851562 14.148438 "/>
<path style=" stroke:none;fill-rule:evenodd;fill:rgb(99.607843%,100%,99.607843%);fill-opacity:1;" d="M 60.851562 14.148438 C 60.015625 14.148438 59.183594 14.148438 58.351562 14.148438 C 58.316406 15.234375 58.351562 16.300781 58.449219 17.351562 C 59.082031 17.351562 59.714844 17.351562 60.351562 17.351562 C 60.351562 17.816406 60.351562 18.285156 60.351562 18.75 C 59.683594 18.75 59.015625 18.75 58.351562 18.75 C 58.351562 20.417969 58.351562 22.082031 58.351562 23.75 C 57.714844 23.75 57.082031 23.75 56.449219 23.75 C 56.449219 20.117188 56.449219 16.484375 56.449219 12.851562 C 57.917969 12.851562 59.382812 12.851562 60.851562 12.851562 C 60.851562 13.285156 60.851562 13.714844 60.851562 14.148438 Z M 60.851562 14.148438 "/>
<path style=" stroke:none;fill-rule:evenodd;fill:rgb(99.607843%,99.607843%,99.607843%);fill-opacity:1;" d="M 61.550781 12.851562 C 63.050781 12.851562 64.550781 12.851562 66.050781 12.851562 C 66.050781 13.285156 66.050781 13.714844 66.050781 14.148438 C 65.199219 14.117188 64.363281 14.152344 63.550781 14.25 C 63.550781 15.285156 63.550781 16.316406 63.550781 17.351562 C 64.214844 17.351562 64.882812 17.351562 65.550781 17.351562 C 65.550781 17.816406 65.550781 18.285156 65.550781 18.75 C 64.863281 18.71875 64.199219 18.75 63.550781 18.851562 C 63.550781 20.015625 63.550781 21.183594 63.550781 22.351562 C 64.417969 22.351562 65.285156 22.351562 66.148438 22.351562 C 66.148438 22.816406 66.148438 23.285156 66.148438 23.75 C 64.617188 23.75 63.082031 23.75 61.550781 23.75 C 61.550781 20.117188 61.550781 16.484375 61.550781 12.851562 Z M 61.550781 12.851562 "/>
<path style=" stroke:none;fill-rule:evenodd;fill:rgb(75.686275%,89.411765%,96.078431%);fill-opacity:1;" d="M 61.550781 12.851562 C 63.066406 12.75 64.597656 12.71875 66.148438 12.75 C 66.148438 13.25 66.148438 13.75 66.148438 14.25 C 65.285156 14.25 64.417969 14.25 63.550781 14.25 C 64.363281 14.152344 65.199219 14.117188 66.050781 14.148438 C 66.050781 13.714844 66.050781 13.285156 66.050781 12.851562 C 64.550781 12.851562 63.050781 12.851562 61.550781 12.851562 Z M 61.550781 12.851562 "/>
<path style=" stroke:none;fill-rule:evenodd;fill:rgb(52.156863%,79.607843%,92.54902%);fill-opacity:1;" d="M 60.851562 14.148438 C 60.070312 14.25 59.269531 14.28125 58.449219 14.25 C 58.449219 15.285156 58.449219 16.316406 58.449219 17.351562 C 58.351562 16.300781 58.316406 15.234375 58.351562 14.148438 C 59.183594 14.148438 60.015625 14.148438 60.851562 14.148438 Z M 60.851562 14.148438 "/>
<path style=" stroke:none;fill-rule:evenodd;fill:rgb(75.294118%,89.411765%,96.078431%);fill-opacity:1;" d="M 8.550781 15.949219 C 8.515625 17.300781 8.550781 18.632812 8.648438 19.949219 C 8.644531 20.003906 8.609375 20.039062 8.550781 20.050781 C 8.417969 18.667969 8.417969 17.300781 8.550781 15.949219 Z M 8.550781 15.949219 "/>
<path style=" stroke:none;fill-rule:evenodd;fill:rgb(27.843137%,69.019608%,88.627451%);fill-opacity:1;" d="M 12.351562 18.648438 C 12.421875 18.558594 12.519531 18.527344 12.648438 18.550781 C 12.648438 26.183594 12.648438 33.816406 12.648438 41.449219 C 12.648438 41.484375 12.648438 41.515625 12.648438 41.550781 C 12.617188 33.898438 12.515625 26.265625 12.351562 18.648438 Z M 12.351562 18.648438 "/>
<path style=" stroke:none;fill-rule:evenodd;fill:rgb(7.058824%,59.607843%,85.098039%);fill-opacity:1;" d="M 29.050781 18.550781 C 29.148438 22.53125 29.183594 26.53125 29.148438 30.550781 C 27.714844 30.582031 26.28125 30.550781 24.851562 30.449219 C 26.28125 26.492188 27.679688 22.523438 29.050781 18.550781 Z M 29.050781 18.550781 "/>
<path style=" stroke:none;fill-rule:evenodd;fill:rgb(42.352941%,74.901961%,90.588235%);fill-opacity:1;" d="M 60.351562 17.351562 C 60.449219 17.832031 60.480469 18.332031 60.449219 18.851562 C 59.785156 18.851562 59.117188 18.851562 58.449219 18.851562 C 58.484375 20.5 58.449219 22.132812 58.351562 23.75 C 58.351562 22.082031 58.351562 20.417969 58.351562 18.75 C 59.015625 18.75 59.683594 18.75 60.351562 18.75 C 60.351562 18.285156 60.351562 17.816406 60.351562 17.351562 Z M 60.351562 17.351562 "/>
<path style=" stroke:none;fill-rule:evenodd;fill:rgb(35.686275%,71.764706%,89.803922%);fill-opacity:1;" d="M 65.550781 17.351562 C 65.648438 17.832031 65.683594 18.332031 65.648438 18.851562 C 64.949219 18.851562 64.25 18.851562 63.550781 18.851562 C 64.199219 18.75 64.863281 18.71875 65.550781 18.75 C 65.550781 18.285156 65.550781 17.816406 65.550781 17.351562 Z M 65.550781 17.351562 "/>
<path style=" stroke:none;fill-rule:evenodd;fill:rgb(38.823529%,73.333333%,90.196078%);fill-opacity:1;" d="M 47.851562 12.75 C 47.851562 12.785156 47.851562 12.816406 47.851562 12.851562 C 47.851562 16.484375 47.851562 20.117188 47.851562 23.75 C 49.382812 23.75 50.917969 23.75 52.449219 23.75 C 50.902344 23.847656 49.335938 23.882812 47.75 23.851562 C 47.71875 20.132812 47.75 16.433594 47.851562 12.75 Z M 47.851562 12.75 "/>
<path style=" stroke:none;fill-rule:evenodd;fill:rgb(99.215686%,99.607843%,99.607843%);fill-opacity:1;" d="M 67.75 30.550781 C 68.570312 30.527344 69.371094 30.640625 70.148438 30.898438 C 70.882812 31.351562 71.332031 32 71.5 32.851562 C 71.59375 35.152344 71.558594 37.453125 71.398438 39.75 C 71.085938 40.964844 70.300781 41.648438 69.050781 41.800781 C 66.933594 42.113281 65.683594 41.230469 65.300781 39.148438 C 65.234375 37.148438 65.234375 35.148438 65.300781 33.148438 C 65.488281 31.679688 66.304688 30.8125 67.75 30.550781 Z M 67.75 30.550781 "/>
<path style=" stroke:none;fill-rule:evenodd;fill:rgb(53.333333%,80%,92.54902%);fill-opacity:1;" d="M 86.148438 30.75 C 85.617188 30.75 85.082031 30.75 84.550781 30.75 C 84.550781 30.882812 84.550781 31.015625 84.550781 31.148438 C 84.453125 31.007812 84.421875 30.839844 84.449219 30.648438 C 85.035156 30.617188 85.601562 30.652344 86.148438 30.75 Z M 86.148438 30.75 "/>
<path style=" stroke:none;fill-rule:evenodd;fill:rgb(51.372549%,79.215686%,92.156863%);fill-opacity:1;" d="M 91.648438 30.75 C 92.199219 30.652344 92.765625 30.617188 93.351562 30.648438 C 93.375 30.777344 93.339844 30.878906 93.25 30.949219 C 92.761719 30.753906 92.226562 30.6875 91.648438 30.75 Z M 91.648438 30.75 "/>
<path style=" stroke:none;fill-rule:evenodd;fill:rgb(55.294118%,80.784314%,92.941176%);fill-opacity:1;" d="M 99.351562 30.75 C 101.199219 30.648438 103.066406 30.617188 104.949219 30.648438 C 104.949219 31.183594 104.949219 31.714844 104.949219 32.25 C 104.351562 32.25 103.75 32.25 103.148438 32.25 C 103.699219 32.152344 104.265625 32.117188 104.851562 32.148438 C 104.851562 31.683594 104.851562 31.214844 104.851562 30.75 C 103.015625 30.75 101.183594 30.75 99.351562 30.75 Z M 99.351562 30.75 "/>
<path style=" stroke:none;fill-rule:evenodd;fill:rgb(98.823529%,99.215686%,99.607843%);fill-opacity:1;" d="M 47.851562 30.75 C 49.222656 30.710938 50.589844 30.757812 51.949219 30.898438 C 53.199219 31.273438 53.796875 32.125 53.75 33.449219 C 53.8125 34.613281 53.3125 35.398438 52.25 35.800781 C 53.53125 36.207031 54.128906 37.089844 54.050781 38.449219 C 54.125 40.300781 53.261719 41.367188 51.449219 41.648438 C 50.25 41.648438 49.050781 41.648438 47.851562 41.648438 C 47.851562 38.015625 47.851562 34.382812 47.851562 30.75 Z M 47.851562 30.75 "/>
<path style=" stroke:none;fill-rule:evenodd;fill:rgb(99.215686%,99.607843%,99.607843%);fill-opacity:1;" d="M 54.949219 30.75 C 56.449219 30.75 57.949219 30.75 59.449219 30.75 C 59.449219 31.183594 59.449219 31.617188 59.449219 32.050781 C 58.597656 32.015625 57.765625 32.050781 56.949219 32.148438 C 56.949219 33.183594 56.949219 34.214844 56.949219 35.25 C 57.617188 35.25 58.285156 35.25 58.949219 35.25 C 58.949219 35.714844 58.949219 36.183594 58.949219 36.648438 C 58.285156 36.648438 57.617188 36.648438 56.949219 36.648438 C 56.949219 37.851562 56.949219 39.050781 56.949219 40.25 C 57.816406 40.25 58.683594 40.25 59.550781 40.25 C 59.550781 40.714844 59.550781 41.183594 59.550781 41.648438 C 58.015625 41.648438 56.484375 41.648438 54.949219 41.648438 C 54.949219 38.015625 54.949219 34.382812 54.949219 30.75 Z M 54.949219 30.75 "/>
<path style=" stroke:none;fill-rule:evenodd;fill:rgb(72.941176%,88.235294%,95.686275%);fill-opacity:1;" d="M 62.25 30.75 C 61.617188 30.75 60.984375 30.75 60.351562 30.75 C 60.351562 34.382812 60.351562 38.015625 60.351562 41.648438 C 60.25 38 60.21875 34.332031 60.25 30.648438 C 60.933594 30.617188 61.601562 30.652344 62.25 30.75 Z M 62.25 30.75 "/>
<path style=" stroke:none;fill-rule:evenodd;fill:rgb(99.607843%,99.607843%,99.607843%);fill-opacity:1;" d="M 62.25 30.75 C 62.21875 33.933594 62.25 37.101562 62.351562 40.25 C 63.164062 40.347656 64 40.382812 64.851562 40.351562 C 64.851562 40.785156 64.851562 41.214844 64.851562 41.648438 C 63.351562 41.648438 61.851562 41.648438 60.351562 41.648438 C 60.351562 38.015625 60.351562 34.382812 60.351562 30.75 C 60.984375 30.75 61.617188 30.75 62.25 30.75 Z M 62.25 30.75 "/>
<path style=" stroke:none;fill-rule:evenodd;fill:rgb(98.823529%,99.215686%,99.607843%);fill-opacity:1;" d="M 75.449219 41.648438 C 74.917969 41.648438 74.382812 41.648438 73.851562 41.648438 C 73.875 41.519531 73.839844 41.421875 73.75 41.351562 C 73.308594 37.820312 72.808594 34.304688 72.25 30.800781 C 72.535156 30.785156 72.816406 30.765625 73.101562 30.75 C 73.425781 30.753906 73.726562 30.824219 74 30.949219 C 74.273438 33.117188 74.539062 35.28125 74.800781 37.449219 C 75.253906 35.234375 75.636719 33.003906 75.949219 30.75 C 76.441406 30.71875 76.925781 30.753906 77.398438 30.851562 C 77.734375 33.023438 78.101562 35.1875 78.5 37.351562 C 78.839844 35.191406 79.140625 33.027344 79.398438 30.851562 C 79.941406 30.753906 80.492188 30.71875 81.050781 30.75 C 80.542969 34.382812 80.042969 38.015625 79.550781 41.648438 C 78.984375 41.648438 78.417969 41.648438 77.851562 41.648438 C 77.554688 39.269531 77.167969 36.902344 76.699219 34.550781 C 76.300781 36.933594 75.886719 39.300781 75.449219 41.648438 Z M 75.449219 41.648438 "/>
<path style=" stroke:none;fill-rule:evenodd;fill:rgb(98.823529%,99.607843%,99.607843%);fill-opacity:1;" d="M 86.148438 30.75 C 86.421875 32.949219 86.722656 35.148438 87.050781 37.351562 C 87.503906 35.164062 87.871094 32.964844 88.148438 30.75 C 88.648438 30.75 89.148438 30.75 89.648438 30.75 C 89.941406 32.929688 90.308594 35.097656 90.75 37.25 C 91.109375 35.089844 91.40625 32.921875 91.648438 30.75 C 92.226562 30.6875 92.761719 30.753906 93.25 30.949219 C 92.757812 34.519531 92.257812 38.085938 91.75 41.648438 C 91.167969 41.707031 90.621094 41.640625 90.101562 41.449219 C 89.753906 39.140625 89.355469 36.839844 88.898438 34.550781 C 88.453125 36.839844 88.070312 39.140625 87.75 41.449219 C 87.214844 41.636719 86.644531 41.703125 86.050781 41.648438 C 85.558594 38.148438 85.058594 34.648438 84.550781 31.148438 C 84.550781 31.015625 84.550781 30.882812 84.550781 30.75 C 85.082031 30.75 85.617188 30.75 86.148438 30.75 Z M 86.148438 30.75 "/>
<path style=" stroke:none;fill-rule:evenodd;fill:rgb(98.823529%,99.215686%,99.607843%);fill-opacity:1;" d="M 99.75 41.550781 C 99.46875 41.617188 99.167969 41.648438 98.851562 41.648438 C 98.488281 41.640625 98.15625 41.574219 97.851562 41.449219 C 97.703125 40.691406 97.601562 39.925781 97.550781 39.148438 C 96.882812 39.148438 96.214844 39.148438 95.550781 39.148438 C 95.417969 39.949219 95.285156 40.75 95.148438 41.550781 C 94.519531 41.648438 93.886719 41.683594 93.25 41.648438 C 93.972656 38.085938 94.6875 34.519531 95.398438 30.949219 C 96.121094 30.753906 96.871094 30.6875 97.648438 30.75 C 98.324219 34.351562 99.023438 37.953125 99.75 41.550781 Z M 99.75 41.550781 "/>
<path style=" stroke:none;fill-rule:evenodd;fill:rgb(99.607843%,100%,99.607843%);fill-opacity:1;" d="M 99.351562 30.75 C 101.183594 30.75 103.015625 30.75 104.851562 30.75 C 104.851562 31.214844 104.851562 31.683594 104.851562 32.148438 C 104.265625 32.117188 103.699219 32.152344 103.148438 32.25 C 103.148438 35.382812 103.148438 38.515625 103.148438 41.648438 C 102.484375 41.648438 101.816406 41.648438 101.148438 41.648438 C 101.148438 38.484375 101.148438 35.316406 101.148438 32.148438 C 100.550781 32.148438 99.949219 32.148438 99.351562 32.148438 C 99.351562 31.683594 99.351562 31.214844 99.351562 30.75 Z M 99.351562 30.75 "/>
<path style=" stroke:none;fill-rule:evenodd;fill:rgb(70.588235%,87.058824%,95.294118%);fill-opacity:1;" d="M 109.949219 30.75 C 108.449219 30.75 106.949219 30.75 105.449219 30.75 C 105.449219 34.382812 105.449219 38.015625 105.449219 41.648438 C 105.351562 38 105.316406 34.332031 105.351562 30.648438 C 106.902344 30.617188 108.433594 30.652344 109.949219 30.75 Z M 109.949219 30.75 "/>
<path style=" stroke:none;fill-rule:evenodd;fill:rgb(99.607843%,99.607843%,99.607843%);fill-opacity:1;" d="M 109.949219 30.75 C 109.949219 31.214844 109.949219 31.683594 109.949219 32.148438 C 109.082031 32.148438 108.21875 32.148438 107.351562 32.148438 C 107.351562 33.183594 107.351562 34.214844 107.351562 35.25 C 108.050781 35.25 108.75 35.25 109.449219 35.25 C 109.449219 35.714844 109.449219 36.183594 109.449219 36.648438 C 108.75 36.648438 108.050781 36.648438 107.351562 36.648438 C 107.316406 37.867188 107.351562 39.066406 107.449219 40.25 C 108.265625 40.347656 109.097656 40.382812 109.949219 40.351562 C 109.949219 40.785156 109.949219 41.214844 109.949219 41.648438 C 108.449219 41.648438 106.949219 41.648438 105.449219 41.648438 C 105.449219 38.015625 105.449219 34.382812 105.449219 30.75 C 106.949219 30.75 108.449219 30.75 109.949219 30.75 Z M 109.949219 30.75 "/>
<path style=" stroke:none;fill-rule:evenodd;fill:rgb(32.54902%,70.980392%,89.411765%);fill-opacity:1;" d="M 114.050781 30.75 C 112.949219 30.75 111.851562 30.75 110.75 30.75 C 110.75 34.382812 110.75 38.015625 110.75 41.648438 C 110.648438 38 110.617188 34.332031 110.648438 30.648438 C 111.800781 30.617188 112.933594 30.652344 114.050781 30.75 Z M 114.050781 30.75 "/>
<path style=" stroke:none;fill-rule:evenodd;fill:rgb(99.215686%,99.607843%,99.607843%);fill-opacity:1;" d="M 114.050781 30.75 C 115.933594 30.867188 116.832031 31.867188 116.75 33.75 C 116.84375 34.894531 116.410156 35.761719 115.449219 36.351562 C 115.925781 38.09375 116.425781 39.828125 116.949219 41.550781 C 116.28125 41.683594 115.617188 41.683594 114.949219 41.550781 C 114.488281 39.925781 114.054688 38.289062 113.648438 36.648438 C 113.351562 36.648438 113.050781 36.648438 112.75 36.648438 C 112.75 38.316406 112.75 39.984375 112.75 41.648438 C 112.082031 41.648438 111.417969 41.648438 110.75 41.648438 C 110.75 38.015625 110.75 34.382812 110.75 30.75 C 111.851562 30.75 112.949219 30.75 114.050781 30.75 Z M 114.050781 30.75 "/>
<path style=" stroke:none;fill-rule:evenodd;fill:rgb(67.45098%,85.882353%,94.901961%);fill-opacity:1;" d="M 54.949219 30.75 C 56.464844 30.652344 58 30.617188 59.550781 30.648438 C 59.550781 31.148438 59.550781 31.648438 59.550781 32.148438 C 58.683594 32.148438 57.816406 32.148438 56.949219 32.148438 C 57.765625 32.050781 58.597656 32.015625 59.449219 32.050781 C 59.449219 31.617188 59.449219 31.183594 59.449219 30.75 C 57.949219 30.75 56.449219 30.75 54.949219 30.75 Z M 54.949219 30.75 "/>
<path style=" stroke:none;fill-rule:evenodd;fill:rgb(7.058824%,59.607843%,85.098039%);fill-opacity:1;" d="M 49.851562 32.148438 C 51.96875 32.066406 52.535156 32.980469 51.550781 34.898438 C 51.007812 35.121094 50.441406 35.203125 49.851562 35.148438 C 49.851562 34.148438 49.851562 33.148438 49.851562 32.148438 Z M 49.851562 32.148438 "/>
<path style=" stroke:none;fill-rule:evenodd;fill:rgb(11.764706%,60.392157%,85.490196%);fill-opacity:1;" d="M 68.050781 32.050781 C 68.816406 31.90625 69.300781 32.207031 69.5 32.949219 C 69.566406 35.117188 69.566406 37.285156 69.5 39.449219 C 69.207031 40.253906 68.65625 40.503906 67.851562 40.199219 C 67.523438 39.964844 67.339844 39.648438 67.300781 39.25 C 67.234375 37.183594 67.234375 35.117188 67.300781 33.050781 C 67.382812 32.574219 67.632812 32.242188 68.050781 32.050781 Z M 68.050781 32.050781 "/>
<path style=" stroke:none;fill-rule:evenodd;fill:rgb(9.019608%,59.607843%,85.098039%);fill-opacity:1;" d="M 112.75 32.050781 C 114.628906 31.96875 115.277344 32.835938 114.699219 34.648438 C 114.589844 34.863281 114.4375 35.046875 114.25 35.199219 C 113.761719 35.339844 113.261719 35.390625 112.75 35.351562 C 112.75 34.25 112.75 33.148438 112.75 32.050781 Z M 112.75 32.050781 "/>
<path style=" stroke:none;fill-rule:evenodd;fill:rgb(32.156863%,70.588235%,89.411765%);fill-opacity:1;" d="M 99.351562 32.148438 C 99.949219 32.148438 100.550781 32.148438 101.148438 32.148438 C 101.148438 35.316406 101.148438 38.484375 101.148438 41.648438 C 101.050781 38.535156 101.015625 35.402344 101.050781 32.25 C 100.464844 32.28125 99.898438 32.25 99.351562 32.148438 Z M 99.351562 32.148438 "/>
<path style=" stroke:none;fill-rule:evenodd;fill:rgb(15.686275%,61.568627%,85.882353%);fill-opacity:1;" d="M 96.449219 33.449219 C 96.523438 33.492188 96.570312 33.558594 96.601562 33.648438 C 96.804688 35.050781 97.023438 36.453125 97.25 37.851562 C 96.785156 37.851562 96.316406 37.851562 95.851562 37.851562 C 96.027344 36.378906 96.226562 34.914062 96.449219 33.449219 Z M 96.449219 33.449219 "/>
<path style=" stroke:none;fill-rule:evenodd;fill:rgb(8.627451%,59.607843%,85.098039%);fill-opacity:1;" d="M 49.851562 36.550781 C 51.855469 36.507812 52.570312 37.476562 52 39.449219 C 51.839844 39.84375 51.558594 40.09375 51.148438 40.199219 C 50.71875 40.25 50.285156 40.265625 49.851562 40.25 C 49.851562 39.015625 49.851562 37.785156 49.851562 36.550781 Z M 49.851562 36.550781 "/>
<path style=" stroke:none;fill-rule:evenodd;fill:rgb(52.156863%,79.607843%,92.54902%);fill-opacity:1;" d="M 109.449219 36.648438 C 108.800781 36.75 108.136719 36.78125 107.449219 36.75 C 107.449219 37.917969 107.449219 39.082031 107.449219 40.25 C 107.351562 39.066406 107.316406 37.867188 107.351562 36.648438 C 108.050781 36.648438 108.75 36.648438 109.449219 36.648438 Z M 109.449219 36.648438 "/>
<path style=" stroke:none;fill-rule:evenodd;fill:rgb(75.686275%,89.411765%,96.078431%);fill-opacity:1;" d="M 62.351562 40.25 C 63.214844 40.25 64.082031 40.25 64.949219 40.25 C 64.980469 40.734375 64.949219 41.203125 64.851562 41.648438 C 64.851562 41.214844 64.851562 40.785156 64.851562 40.351562 C 64 40.382812 63.164062 40.347656 62.351562 40.25 Z M 62.351562 40.25 "/>
<path style=" stroke:none;fill-rule:evenodd;fill:rgb(75.686275%,89.411765%,96.078431%);fill-opacity:1;" d="M 107.449219 40.25 C 108.316406 40.25 109.183594 40.25 110.050781 40.25 C 110.082031 40.734375 110.050781 41.203125 109.949219 41.648438 C 109.949219 41.214844 109.949219 40.785156 109.949219 40.351562 C 109.097656 40.382812 108.265625 40.347656 107.449219 40.25 Z M 107.449219 40.25 "/>
<path style=" stroke:none;fill-rule:evenodd;fill:rgb(61.176471%,83.137255%,93.72549%);fill-opacity:1;" d="M 34.148438 34.75 C 34.148438 37.015625 34.148438 39.285156 34.148438 41.550781 C 32.464844 41.582031 30.800781 41.550781 29.148438 41.449219 C 30.785156 41.449219 32.417969 41.449219 34.050781 41.449219 C 34.015625 39.199219 34.050781 36.964844 34.148438 34.75 Z M 34.148438 34.75 "/>
<path style=" stroke:none;fill-rule:evenodd;fill:rgb(39.215686%,73.333333%,90.196078%);fill-opacity:1;" d="M 47.851562 30.75 C 47.851562 34.382812 47.851562 38.015625 47.851562 41.648438 C 49.050781 41.648438 50.25 41.648438 51.449219 41.648438 C 50.234375 41.75 49 41.78125 47.75 41.75 C 47.71875 38.066406 47.75 34.398438 47.851562 30.75 Z M 47.851562 30.75 "/>
<path style=" stroke:none;fill-rule:evenodd;fill:rgb(38.823529%,73.333333%,90.196078%);fill-opacity:1;" d="M 54.949219 30.75 C 54.949219 34.382812 54.949219 38.015625 54.949219 41.648438 C 56.484375 41.648438 58.015625 41.648438 59.550781 41.648438 C 58 41.75 56.433594 41.78125 54.851562 41.75 C 54.816406 38.066406 54.851562 34.398438 54.949219 30.75 Z M 54.949219 30.75 "/>
<path style=" stroke:none;fill-rule:evenodd;fill:rgb(33.72549%,70.980392%,89.411765%);fill-opacity:1;" d="M 73.75 41.351562 C 73.839844 41.421875 73.875 41.519531 73.851562 41.648438 C 74.382812 41.648438 74.917969 41.648438 75.449219 41.648438 C 74.902344 41.75 74.335938 41.78125 73.75 41.75 C 73.75 41.617188 73.75 41.484375 73.75 41.351562 Z M 73.75 41.351562 "/>
<path style=" stroke:none;fill-rule:evenodd;fill:rgb(31.372549%,70.196078%,89.019608%);fill-opacity:1;" d="M 87.75 41.449219 C 87.75 41.550781 87.75 41.648438 87.75 41.75 C 87.164062 41.78125 86.597656 41.75 86.050781 41.648438 C 86.644531 41.703125 87.214844 41.636719 87.75 41.449219 Z M 87.75 41.449219 "/>
<path style=" stroke:none;fill-rule:evenodd;fill:rgb(30.588235%,69.803922%,89.019608%);fill-opacity:1;" d="M 97.851562 41.449219 C 98.15625 41.574219 98.488281 41.640625 98.851562 41.648438 C 99.167969 41.648438 99.46875 41.617188 99.75 41.550781 C 99.804688 41.554688 99.835938 41.589844 99.851562 41.648438 C 99.1875 41.75 98.519531 41.78125 97.851562 41.75 C 97.851562 41.648438 97.851562 41.550781 97.851562 41.449219 Z M 97.851562 41.449219 "/>
<path style=" stroke:none;fill-rule:evenodd;fill:rgb(99.215686%,99.607843%,99.607843%);fill-opacity:1;" d="M 52.550781 59.351562 C 52.6875 59.335938 52.820312 59.351562 52.949219 59.398438 C 57.125 62.835938 61.890625 64.167969 67.25 63.398438 C 69.828125 62.726562 72.0625 61.460938 73.949219 59.601562 C 74.167969 59.460938 74.402344 59.429688 74.648438 59.5 C 78.828125 63.507812 83.695312 64.644531 89.25 62.898438 C 91.710938 62.054688 93.976562 60.871094 96.050781 59.351562 C 101.492188 64.355469 107.5625 65.238281 114.25 62 C 114.492188 61.929688 114.710938 61.980469 114.898438 62.148438 C 114.96875 63.484375 114.96875 64.816406 114.898438 66.148438 C 110.457031 70.042969 105.640625 70.558594 100.449219 67.699219 C 99.734375 67.257812 99.03125 66.792969 98.351562 66.300781 C 97.726562 65.710938 97.078125 65.160156 96.398438 64.648438 C 90.664062 69.933594 84.382812 70.652344 77.550781 66.800781 C 76.460938 66.105469 75.394531 65.390625 74.351562 64.648438 C 72.542969 66.054688 70.578125 67.203125 68.449219 68.101562 C 63.886719 69.941406 59.519531 69.574219 55.351562 67 C 54.304688 66.253906 53.285156 65.46875 52.300781 64.648438 C 50.636719 66.242188 48.75 67.523438 46.648438 68.5 C 41.871094 70.394531 37.585938 69.613281 33.800781 66.148438 C 33.734375 64.851562 33.734375 63.550781 33.800781 62.25 C 33.949219 61.992188 34.164062 61.910156 34.449219 62 C 38.398438 64.042969 42.496094 64.410156 46.75 63.101562 C 48.972656 62.273438 50.90625 61.023438 52.550781 59.351562 Z M 52.550781 59.351562 "/>
<path style=" stroke:none;fill-rule:evenodd;fill:rgb(99.607843%,99.607843%,99.607843%);fill-opacity:1;" d="M 52.449219 71.851562 C 53.027344 71.972656 53.527344 72.257812 53.949219 72.699219 C 56.363281 74.320312 58.996094 75.421875 61.851562 76 C 66.589844 76.660156 70.65625 75.328125 74.050781 72 C 74.25 71.933594 74.449219 71.933594 74.648438 72 C 78.691406 75.894531 83.425781 77.058594 88.851562 75.5 C 91.457031 74.6875 93.84375 73.472656 96 71.851562 C 96.082031 71.867188 96.167969 71.882812 96.25 71.898438 C 100.941406 76.324219 106.34375 77.457031 112.449219 75.300781 C 113.066406 75.070312 113.667969 74.804688 114.25 74.5 C 114.503906 74.410156 114.71875 74.460938 114.898438 74.648438 C 114.96875 75.984375 114.96875 77.316406 114.898438 78.648438 C 110.703125 82.328125 106.085938 82.945312 101.050781 80.5 C 99.457031 79.652344 98.023438 78.585938 96.75 77.300781 C 96.628906 77.222656 96.492188 77.171875 96.351562 77.148438 C 94.707031 78.691406 92.839844 79.90625 90.75 80.800781 C 86.957031 82.066406 83.222656 81.898438 79.550781 80.300781 C 77.703125 79.4375 75.984375 78.386719 74.398438 77.148438 C 73.265625 77.910156 72.113281 78.660156 70.949219 79.398438 C 64.183594 83.078125 57.980469 82.328125 52.351562 77.148438 C 51.289062 78.046875 50.191406 78.898438 49.050781 79.699219 C 43.753906 82.996094 38.707031 82.679688 33.898438 78.75 C 33.785156 78.042969 33.738281 77.328125 33.75 76.601562 C 33.765625 75.949219 33.785156 75.300781 33.800781 74.648438 C 33.980469 74.460938 34.199219 74.410156 34.449219 74.5 C 39.109375 76.847656 43.808594 76.945312 48.550781 74.800781 C 50 74.007812 51.300781 73.027344 52.449219 71.851562 Z M 52.449219 71.851562 "/>
<path style=" stroke:none;fill-rule:evenodd;fill:rgb(99.607843%,99.607843%,99.607843%);fill-opacity:1;" d="M 34.25 91.449219 C 39.128906 91.921875 43.359375 93.804688 46.949219 97.101562 C 49.417969 99.402344 51.46875 102.019531 53.101562 104.949219 C 59.03125 100.074219 65.613281 96.257812 72.851562 93.5 C 81.398438 90.378906 89.765625 90.8125 97.949219 94.800781 C 104.828125 98.445312 110.644531 103.359375 115.398438 109.550781 C 115.542969 109.804688 115.574219 110.070312 115.5 110.351562 C 110.476562 117.007812 104.226562 122.160156 96.75 125.800781 C 91.085938 128.347656 85.183594 129.144531 79.050781 128.199219 C 75.355469 127.433594 71.789062 126.269531 68.351562 124.699219 C 62.890625 122.078125 57.804688 118.898438 53.101562 115.148438 C 50.964844 118.882812 48.183594 122.066406 44.75 124.699219 C 41.589844 126.996094 38.058594 128.265625 34.148438 128.5 C 33.980469 128.308594 33.929688 128.09375 34 127.851562 C 36.875 123.230469 38.742188 118.230469 39.601562 112.851562 C 40.011719 109.167969 39.644531 105.570312 38.5 102.050781 C 37.3125 98.519531 35.792969 95.132812 33.949219 91.898438 C 34.03125 91.734375 34.132812 91.585938 34.25 91.449219 Z M 34.25 91.449219 "/>
<path style=" stroke:none;fill-rule:evenodd;fill:rgb(5.490196%,59.215686%,85.098039%);fill-opacity:1;" d="M 92.75 101.949219 C 95.667969 101.800781 97.585938 103.101562 98.5 105.851562 C 98.875 108.183594 98.089844 110 96.148438 111.300781 C 93.304688 112.617188 90.988281 112.003906 89.199219 109.449219 C 88 106.828125 88.515625 104.609375 90.75 102.800781 C 91.390625 102.425781 92.054688 102.144531 92.75 101.949219 Z M 92.75 101.949219 "/>
</g>
</svg>
