<?xml version="1.0" encoding="UTF-8"?>
<svg xmlns="http://www.w3.org/2000/svg" xmlns:xlink="http://www.w3.org/1999/xlink" width="150px" height="150px" viewBox="0 0 150 150" version="1.1">
<g id="surface1">
<path style=" stroke:none;fill-rule:evenodd;fill:rgb(86.666667%,65.882353%,22.745098%);fill-opacity:1;" d="M -0.0507812 -0.0507812 C 49.949219 -0.0507812 99.949219 -0.0507812 149.949219 -0.0507812 C 149.949219 49.949219 149.949219 99.949219 149.949219 149.949219 C 99.949219 149.949219 49.949219 149.949219 -0.0507812 149.949219 C -0.0507812 99.949219 -0.0507812 49.949219 -0.0507812 -0.0507812 Z M -0.0507812 -0.0507812 "/>
<path style=" stroke:none;fill-rule:evenodd;fill:rgb(99.607843%,99.607843%,99.607843%);fill-opacity:1;" d="M 18.050781 37.148438 C 20.832031 37.25 23.632812 37.28125 26.449219 37.25 C 26.449219 38.648438 26.449219 40.050781 26.449219 41.449219 C 21.582031 41.449219 16.714844 41.449219 11.851562 41.449219 C 11.832031 40.148438 11.851562 38.847656 11.898438 37.550781 C 14.800781 33.050781 17.699219 28.550781 20.601562 24.050781 C 21.71875 22.28125 22.050781 20.378906 21.601562 18.351562 C 20.878906 17.007812 19.828125 16.691406 18.449219 17.398438 C 17.589844 18.226562 17.171875 19.242188 17.199219 20.449219 C 17.148438 21.183594 17.132812 21.914062 17.148438 22.648438 C 15.382812 22.648438 13.617188 22.648438 11.851562 22.648438 C 11.660156 20.4375 11.976562 18.304688 12.800781 16.25 C 14.230469 13.574219 16.480469 12.308594 19.550781 12.449219 C 24.636719 12.4375 27.203125 14.972656 27.25 20.050781 C 27.234375 21.546875 26.917969 22.980469 26.300781 24.351562 C 25.992188 25 25.660156 25.632812 25.300781 26.25 C 22.859375 29.871094 20.445312 33.503906 18.050781 37.148438 Z M 18.050781 37.148438 "/>
<path style=" stroke:none;fill-rule:evenodd;fill:rgb(99.607843%,99.215686%,98.431373%);fill-opacity:1;" d="M 60.351562 12.648438 C 62.757812 12.339844 64.074219 13.375 64.300781 15.75 C 64.367188 17.417969 64.367188 19.082031 64.300781 20.75 C 64.230469 22.816406 63.164062 23.886719 61.101562 23.949219 C 59.257812 23.976562 58.226562 23.074219 58 21.25 C 57.933594 19.25 57.933594 17.25 58 15.25 C 58.179688 13.820312 58.964844 12.953125 60.351562 12.648438 Z M 60.351562 12.648438 "/>
<path style=" stroke:none;fill-rule:evenodd;fill:rgb(96.078431%,89.803922%,76.862745%);fill-opacity:1;" d="M 43.851562 13.949219 C 43.851562 13.582031 43.851562 13.214844 43.851562 12.851562 C 42.285156 12.851562 40.714844 12.851562 39.148438 12.851562 C 39.148438 13.285156 39.148438 13.714844 39.148438 14.148438 C 39.050781 13.703125 39.019531 13.234375 39.050781 12.75 C 40.683594 12.75 42.316406 12.75 43.949219 12.75 C 43.980469 13.171875 43.949219 13.570312 43.851562 13.949219 Z M 43.851562 13.949219 "/>
<path style=" stroke:none;fill-rule:evenodd;fill:rgb(99.607843%,99.607843%,99.215686%);fill-opacity:1;" d="M 43.851562 13.949219 C 42.863281 16.710938 41.898438 19.476562 40.949219 22.25 C 40.894531 22.257812 40.863281 22.289062 40.851562 22.351562 C 41.882812 22.449219 42.914062 22.484375 43.949219 22.449219 C 43.949219 22.882812 43.949219 23.316406 43.949219 23.75 C 42.285156 23.75 40.617188 23.75 38.949219 23.75 C 38.933594 23.25 38.949219 22.75 39 22.25 C 39.945312 19.65625 40.863281 17.058594 41.75 14.449219 C 41.839844 14.378906 41.875 14.277344 41.851562 14.148438 C 40.949219 14.148438 40.050781 14.148438 39.148438 14.148438 C 39.148438 13.714844 39.148438 13.285156 39.148438 12.851562 C 40.714844 12.851562 42.285156 12.851562 43.851562 12.851562 C 43.851562 13.214844 43.851562 13.582031 43.851562 13.949219 Z M 43.851562 13.949219 "/>
<path style=" stroke:none;fill-rule:evenodd;fill:rgb(96.470588%,90.980392%,79.607843%);fill-opacity:1;" d="M 47.050781 14.25 C 47.863281 14.152344 48.699219 14.117188 49.550781 14.148438 C 49.550781 13.714844 49.550781 13.285156 49.550781 12.851562 C 48.050781 12.851562 46.550781 12.851562 45.050781 12.851562 C 45.050781 16.484375 45.050781 20.117188 45.050781 23.75 C 44.949219 20.101562 44.917969 16.433594 44.949219 12.75 C 46.515625 12.75 48.082031 12.75 49.648438 12.75 C 49.648438 13.25 49.648438 13.75 49.648438 14.25 C 48.785156 14.25 47.917969 14.25 47.050781 14.25 Z M 47.050781 14.25 "/>
<path style=" stroke:none;fill-rule:evenodd;fill:rgb(99.607843%,99.607843%,98.823529%);fill-opacity:1;" d="M 47.050781 14.25 C 47.050781 15.285156 47.050781 16.316406 47.050781 17.351562 C 47.714844 17.351562 48.382812 17.351562 49.050781 17.351562 C 49.050781 17.816406 49.050781 18.285156 49.050781 18.75 C 48.382812 18.75 47.714844 18.75 47.050781 18.75 C 47.050781 19.949219 47.050781 21.148438 47.050781 22.351562 C 47.863281 22.449219 48.699219 22.484375 49.550781 22.449219 C 49.550781 22.882812 49.550781 23.316406 49.550781 23.75 C 48.050781 23.75 46.550781 23.75 45.050781 23.75 C 45.050781 20.117188 45.050781 16.484375 45.050781 12.851562 C 46.550781 12.851562 48.050781 12.851562 49.550781 12.851562 C 49.550781 13.285156 49.550781 13.714844 49.550781 14.148438 C 48.699219 14.117188 47.863281 14.152344 47.050781 14.25 Z M 47.050781 14.25 "/>
<path style=" stroke:none;fill-rule:evenodd;fill:rgb(93.72549%,84.313725%,64.313725%);fill-opacity:1;" d="M 54.148438 12.851562 C 53.015625 12.851562 51.882812 12.851562 50.75 12.851562 C 50.75 16.484375 50.75 20.117188 50.75 23.75 C 50.648438 20.101562 50.617188 16.433594 50.648438 12.75 C 51.835938 12.71875 53 12.75 54.148438 12.851562 Z M 54.148438 12.851562 "/>
<path style=" stroke:none;fill-rule:evenodd;fill:rgb(99.607843%,99.215686%,98.823529%);fill-opacity:1;" d="M 54.148438 12.851562 C 55.242188 12.886719 56.027344 13.386719 56.5 14.351562 C 56.652344 15.175781 56.6875 16.011719 56.601562 16.851562 C 56.523438 17.179688 56.390625 17.476562 56.199219 17.75 C 55.945312 18.007812 55.695312 18.257812 55.449219 18.5 C 55.933594 20.214844 56.398438 21.929688 56.851562 23.648438 C 56.203125 23.75 55.535156 23.78125 54.851562 23.75 C 54.433594 22.117188 54.019531 20.484375 53.601562 18.851562 C 53.328125 18.753906 53.042969 18.722656 52.75 18.75 C 52.75 20.417969 52.75 22.082031 52.75 23.75 C 52.082031 23.75 51.417969 23.75 50.75 23.75 C 50.75 20.117188 50.75 16.484375 50.75 12.851562 C 51.882812 12.851562 53.015625 12.851562 54.148438 12.851562 Z M 54.148438 12.851562 "/>
<path style=" stroke:none;fill-rule:evenodd;fill:rgb(93.333333%,83.137255%,61.568627%);fill-opacity:1;" d="M 39.148438 14.148438 C 40.050781 14.148438 40.949219 14.148438 41.851562 14.148438 C 41.875 14.277344 41.839844 14.378906 41.75 14.449219 C 40.90625 14.285156 40.039062 14.183594 39.148438 14.148438 Z M 39.148438 14.148438 "/>
<path style=" stroke:none;fill-rule:evenodd;fill:rgb(86.666667%,65.882353%,23.137255%);fill-opacity:1;" d="M 60.648438 14.148438 C 61.398438 13.984375 61.917969 14.25 62.199219 14.949219 C 62.265625 17.082031 62.265625 19.214844 62.199219 21.351562 C 62.035156 22.292969 61.484375 22.609375 60.550781 22.300781 C 60.273438 22.125 60.125 21.875 60.101562 21.550781 C 60.035156 19.316406 60.035156 17.082031 60.101562 14.851562 C 60.195312 14.539062 60.378906 14.304688 60.648438 14.148438 Z M 60.648438 14.148438 "/>
<path style=" stroke:none;fill-rule:evenodd;fill:rgb(92.941176%,81.960784%,58.823529%);fill-opacity:1;" d="M 53.75 14.25 C 53.417969 14.25 53.082031 14.25 52.75 14.25 C 52.75 15.316406 52.75 16.382812 52.75 17.449219 C 52.652344 16.367188 52.617188 15.269531 52.648438 14.148438 C 53.035156 14.117188 53.402344 14.152344 53.75 14.25 Z M 53.75 14.25 "/>
<path style=" stroke:none;fill-rule:evenodd;fill:rgb(86.666667%,65.882353%,23.137255%);fill-opacity:1;" d="M 53.75 14.25 C 54.222656 14.277344 54.539062 14.511719 54.699219 14.949219 C 55.1875 16.71875 54.535156 17.550781 52.75 17.449219 C 52.75 16.382812 52.75 15.316406 52.75 14.25 C 53.082031 14.25 53.417969 14.25 53.75 14.25 Z M 53.75 14.25 "/>
<path style=" stroke:none;fill-rule:evenodd;fill:rgb(96.862745%,91.764706%,80.784314%);fill-opacity:1;" d="M 40.949219 22.25 C 41.949219 22.316406 42.949219 22.382812 43.949219 22.449219 C 42.914062 22.484375 41.882812 22.449219 40.851562 22.351562 C 40.863281 22.289062 40.894531 22.257812 40.949219 22.25 Z M 40.949219 22.25 "/>
<path style=" stroke:none;fill-rule:evenodd;fill:rgb(96.470588%,91.372549%,80%);fill-opacity:1;" d="M 47.050781 22.351562 C 47.917969 22.351562 48.785156 22.351562 49.648438 22.351562 C 49.683594 22.835938 49.648438 23.304688 49.550781 23.75 C 49.550781 23.316406 49.550781 22.882812 49.550781 22.449219 C 48.699219 22.484375 47.863281 22.449219 47.050781 22.351562 Z M 47.050781 22.351562 "/>
<path style=" stroke:none;fill-rule:evenodd;fill:rgb(89.803922%,74.117647%,41.568627%);fill-opacity:1;" d="M 56.851562 23.648438 C 56.90625 23.65625 56.9375 23.6875 56.949219 23.75 C 56.234375 23.882812 55.535156 23.882812 54.851562 23.75 C 55.535156 23.78125 56.203125 23.75 56.851562 23.648438 Z M 56.851562 23.648438 "/>
<path style=" stroke:none;fill-rule:evenodd;fill:rgb(99.607843%,99.215686%,98.431373%);fill-opacity:1;" d="M 66.148438 38.75 C 66.25 38.304688 66.28125 37.835938 66.25 37.351562 C 65.851562 37.351562 65.449219 37.351562 65.050781 37.351562 C 65.050781 36.917969 65.050781 36.484375 65.050781 36.050781 C 66.050781 36.050781 67.050781 36.050781 68.050781 36.050781 C 68.050781 37.917969 68.050781 39.785156 68.050781 41.648438 C 67.617188 41.667969 67.183594 41.648438 66.75 41.601562 C 66.671875 41.292969 66.621094 40.976562 66.601562 40.648438 C 66.015625 41.691406 65.132812 42.074219 63.949219 41.800781 C 62.902344 41.550781 62.253906 40.902344 62 39.851562 C 61.753906 37.890625 61.6875 35.925781 61.800781 33.949219 C 61.875 31.441406 63.160156 30.324219 65.648438 30.601562 C 66.699219 30.730469 67.414062 31.28125 67.800781 32.25 C 67.9375 32.945312 68.019531 33.644531 68.050781 34.351562 C 67.382812 34.351562 66.714844 34.351562 66.050781 34.351562 C 66.066406 33.847656 66.050781 33.347656 66 32.851562 C 65.757812 32.167969 65.273438 31.917969 64.550781 32.101562 C 64.226562 32.257812 64.011719 32.507812 63.898438 32.851562 C 63.832031 34.984375 63.832031 37.117188 63.898438 39.25 C 64.066406 40.191406 64.613281 40.507812 65.550781 40.199219 C 66.011719 39.839844 66.210938 39.359375 66.148438 38.75 Z M 66.148438 38.75 "/>
<path style=" stroke:none;fill-rule:evenodd;fill:rgb(90.588235%,75.294118%,44.313725%);fill-opacity:1;" d="M 41.351562 30.75 C 40.683594 30.75 40.015625 30.75 39.351562 30.75 C 39.351562 34.382812 39.351562 38.015625 39.351562 41.648438 C 39.25 38 39.21875 34.332031 39.25 30.648438 C 39.96875 30.617188 40.667969 30.652344 41.351562 30.75 Z M 41.351562 30.75 "/>
<path style=" stroke:none;fill-rule:evenodd;fill:rgb(99.607843%,99.607843%,99.607843%);fill-opacity:1;" d="M 41.351562 30.75 C 41.351562 32.25 41.351562 33.75 41.351562 35.25 C 42.082031 35.25 42.816406 35.25 43.550781 35.25 C 43.550781 33.75 43.550781 32.25 43.550781 30.75 C 44.214844 30.75 44.882812 30.75 45.550781 30.75 C 45.550781 34.382812 45.550781 38.015625 45.550781 41.648438 C 44.882812 41.648438 44.214844 41.648438 43.550781 41.648438 C 43.550781 40.015625 43.550781 38.382812 43.550781 36.75 C 42.816406 36.75 42.082031 36.75 41.351562 36.75 C 41.351562 38.382812 41.351562 40.015625 41.351562 41.648438 C 40.683594 41.648438 40.015625 41.648438 39.351562 41.648438 C 39.351562 38.015625 39.351562 34.382812 39.351562 30.75 C 40.015625 30.75 40.683594 30.75 41.351562 30.75 Z M 41.351562 30.75 "/>
<path style=" stroke:none;fill-rule:evenodd;fill:rgb(90.588235%,75.294118%,44.313725%);fill-opacity:1;" d="M 43.550781 30.75 C 44.230469 30.652344 44.929688 30.617188 45.648438 30.648438 C 45.683594 34.332031 45.648438 38 45.550781 41.648438 C 45.550781 38.015625 45.550781 34.382812 45.550781 30.75 C 44.882812 30.75 44.214844 30.75 43.550781 30.75 Z M 43.550781 30.75 "/>
<path style=" stroke:none;fill-rule:evenodd;fill:rgb(99.607843%,99.215686%,98.431373%);fill-opacity:1;" d="M 51.25 38.648438 C 51.351562 36.035156 51.382812 33.402344 51.351562 30.75 C 51.949219 30.75 52.550781 30.75 53.148438 30.75 C 53.148438 33.515625 53.148438 36.285156 53.148438 39.050781 C 53.023438 40.910156 52.023438 41.84375 50.148438 41.851562 C 48.335938 41.851562 47.316406 40.949219 47.101562 39.148438 C 47.050781 36.316406 47.035156 33.484375 47.050781 30.648438 C 47.710938 30.617188 48.359375 30.652344 49 30.75 C 49.035156 33.617188 49.066406 36.484375 49.101562 39.351562 C 49.304688 40.1875 49.824219 40.472656 50.648438 40.199219 C 51.113281 39.789062 51.316406 39.273438 51.25 38.648438 Z M 51.25 38.648438 "/>
<path style=" stroke:none;fill-rule:evenodd;fill:rgb(96.078431%,90.196078%,77.647059%);fill-opacity:1;" d="M 53.148438 39.050781 C 53.148438 36.285156 53.148438 33.515625 53.148438 30.75 C 52.550781 30.75 51.949219 30.75 51.351562 30.75 C 51.382812 33.402344 51.351562 36.035156 51.25 38.648438 C 51.25 35.984375 51.25 33.316406 51.25 30.648438 C 51.917969 30.648438 52.582031 30.648438 53.25 30.648438 C 53.28125 33.46875 53.25 36.265625 53.148438 39.050781 Z M 53.148438 39.050781 "/>
<path style=" stroke:none;fill-rule:evenodd;fill:rgb(99.607843%,99.215686%,98.431373%);fill-opacity:1;" d="M 58.75 30.75 C 59.285156 30.75 59.816406 30.75 60.351562 30.75 C 60.351562 34.382812 60.351562 38.015625 60.351562 41.648438 C 59.910156 41.683594 59.476562 41.648438 59.050781 41.550781 C 58.1875 39.527344 57.355469 37.492188 56.550781 35.449219 C 56.523438 35.371094 56.472656 35.304688 56.398438 35.25 C 56.351562 37.382812 56.332031 39.515625 56.351562 41.648438 C 55.785156 41.648438 55.214844 41.648438 54.648438 41.648438 C 54.632812 38.015625 54.648438 34.382812 54.699219 30.75 C 55.167969 30.617188 55.632812 30.617188 56.101562 30.75 C 57.003906 32.734375 57.871094 34.734375 58.699219 36.75 C 58.75 34.75 58.765625 32.75 58.75 30.75 Z M 58.75 30.75 "/>
<path style=" stroke:none;fill-rule:evenodd;fill:rgb(96.470588%,90.588235%,78.039216%);fill-opacity:1;" d="M 58.75 30.75 C 59.296875 30.652344 59.863281 30.617188 60.449219 30.648438 C 60.484375 34.332031 60.449219 38 60.351562 41.648438 C 60.351562 38.015625 60.351562 34.382812 60.351562 30.75 C 59.816406 30.75 59.285156 30.75 58.75 30.75 Z M 58.75 30.75 "/>
<path style=" stroke:none;fill-rule:evenodd;fill:rgb(96.078431%,89.411765%,76.078431%);fill-opacity:1;" d="M 74.050781 30.75 C 72.550781 30.75 71.050781 30.75 69.550781 30.75 C 69.550781 34.382812 69.550781 38.015625 69.550781 41.648438 C 69.515625 41.648438 69.484375 41.648438 69.449219 41.648438 C 69.449219 37.984375 69.449219 34.316406 69.449219 30.648438 C 71 30.617188 72.535156 30.652344 74.050781 30.75 Z M 74.050781 30.75 "/>
<path style=" stroke:none;fill-rule:evenodd;fill:rgb(99.607843%,99.607843%,99.215686%);fill-opacity:1;" d="M 74.050781 30.75 C 74.050781 31.214844 74.050781 31.683594 74.050781 32.148438 C 73.183594 32.148438 72.316406 32.148438 71.449219 32.148438 C 71.449219 33.183594 71.449219 34.214844 71.449219 35.25 C 72.148438 35.25 72.851562 35.25 73.550781 35.25 C 73.550781 35.714844 73.550781 36.183594 73.550781 36.648438 C 72.851562 36.648438 72.148438 36.648438 71.449219 36.648438 C 71.417969 37.867188 71.449219 39.066406 71.550781 40.25 C 72.382812 40.25 73.214844 40.25 74.050781 40.25 C 74.050781 40.714844 74.050781 41.183594 74.050781 41.648438 C 72.550781 41.648438 71.050781 41.648438 69.550781 41.648438 C 69.550781 38.015625 69.550781 34.382812 69.550781 30.75 C 71.050781 30.75 72.550781 30.75 74.050781 30.75 Z M 74.050781 30.75 "/>
<path style=" stroke:none;fill-rule:evenodd;fill:rgb(96.078431%,89.803922%,76.862745%);fill-opacity:1;" d="M 78.25 30.75 C 77.25 30.75 76.25 30.75 75.25 30.75 C 75.25 34.382812 75.25 38.015625 75.25 41.648438 C 75.148438 38 75.117188 34.332031 75.148438 30.648438 C 76.203125 30.617188 77.234375 30.652344 78.25 30.75 Z M 78.25 30.75 "/>
<path style=" stroke:none;fill-rule:evenodd;fill:rgb(99.607843%,99.215686%,98.431373%);fill-opacity:1;" d="M 78.25 30.75 C 79.652344 30.65625 80.601562 31.257812 81.101562 32.550781 C 81.167969 33.285156 81.167969 34.015625 81.101562 34.75 C 80.953125 35.414062 80.585938 35.914062 80 36.25 C 79.984375 36.316406 79.964844 36.382812 79.949219 36.449219 C 80.4375 38.183594 80.90625 39.917969 81.351562 41.648438 C 80.683594 41.648438 80.015625 41.648438 79.351562 41.648438 C 78.917969 39.984375 78.484375 38.316406 78.050781 36.648438 C 77.785156 36.648438 77.515625 36.648438 77.25 36.648438 C 77.25 38.316406 77.25 39.984375 77.25 41.648438 C 76.582031 41.648438 75.917969 41.648438 75.25 41.648438 C 75.25 38.015625 75.25 34.382812 75.25 30.75 C 76.25 30.75 77.25 30.75 78.25 30.75 Z M 78.25 30.75 "/>
<path style=" stroke:none;fill-rule:evenodd;fill:rgb(86.666667%,65.882353%,23.137255%);fill-opacity:1;" d="M 77.25 32.148438 C 77.761719 32.117188 78.261719 32.167969 78.75 32.300781 C 79.160156 32.652344 79.328125 33.101562 79.25 33.648438 C 79.28125 35.003906 78.613281 35.570312 77.25 35.351562 C 77.25 34.285156 77.25 33.214844 77.25 32.148438 Z M 77.25 32.148438 "/>
<path style=" stroke:none;fill-rule:evenodd;fill:rgb(96.470588%,91.372549%,80.392157%);fill-opacity:1;" d="M 56.550781 35.449219 C 56.484375 37.515625 56.417969 39.582031 56.351562 41.648438 C 56.332031 39.515625 56.351562 37.382812 56.398438 35.25 C 56.472656 35.304688 56.523438 35.371094 56.550781 35.449219 Z M 56.550781 35.449219 "/>
<path style=" stroke:none;fill-rule:evenodd;fill:rgb(90.980392%,76.470588%,47.058824%);fill-opacity:1;" d="M 73.550781 36.648438 C 72.902344 36.75 72.234375 36.78125 71.550781 36.75 C 71.550781 37.917969 71.550781 39.082031 71.550781 40.25 C 71.449219 39.066406 71.417969 37.867188 71.449219 36.648438 C 72.148438 36.648438 72.851562 36.648438 73.550781 36.648438 Z M 73.550781 36.648438 "/>
<path style=" stroke:none;fill-rule:evenodd;fill:rgb(95.686275%,88.627451%,73.72549%);fill-opacity:1;" d="M 18.050781 37.148438 C 20.882812 37.148438 23.714844 37.148438 26.550781 37.148438 C 26.550781 38.617188 26.550781 40.082031 26.550781 41.550781 C 21.632812 41.582031 16.734375 41.550781 11.851562 41.449219 C 16.714844 41.449219 21.582031 41.449219 26.449219 41.449219 C 26.449219 40.050781 26.449219 38.648438 26.449219 37.25 C 23.632812 37.28125 20.832031 37.25 18.050781 37.148438 Z M 18.050781 37.148438 "/>
<path style=" stroke:none;fill-rule:evenodd;fill:rgb(91.372549%,77.254902%,48.627451%);fill-opacity:1;" d="M 65.050781 37.351562 C 65.449219 37.351562 65.851562 37.351562 66.25 37.351562 C 66.28125 37.835938 66.25 38.304688 66.148438 38.75 C 66.148438 38.316406 66.148438 37.882812 66.148438 37.449219 C 65.761719 37.480469 65.394531 37.449219 65.050781 37.351562 Z M 65.050781 37.351562 "/>
<path style=" stroke:none;fill-rule:evenodd;fill:rgb(90.588235%,75.686275%,45.098039%);fill-opacity:1;" d="M 74.050781 40.25 C 74.148438 40.730469 74.183594 41.230469 74.148438 41.75 C 72.566406 41.78125 71 41.75 69.449219 41.648438 C 69.484375 41.648438 69.515625 41.648438 69.550781 41.648438 C 71.050781 41.648438 72.550781 41.648438 74.050781 41.648438 C 74.050781 41.183594 74.050781 40.714844 74.050781 40.25 Z M 74.050781 40.25 "/>
<path style=" stroke:none;fill-rule:evenodd;fill:rgb(99.607843%,99.607843%,99.215686%);fill-opacity:1;" d="M 62.75 93.148438 C 61.011719 93.214844 59.3125 93.148438 57.648438 92.949219 C 58.679688 90.070312 58.328125 87.371094 56.601562 84.851562 C 55.671875 83.621094 54.703125 82.421875 53.699219 81.25 C 51.183594 77.078125 50.714844 72.679688 52.300781 68.050781 C 52.960938 66.09375 53.863281 64.261719 55 62.550781 C 56.105469 61.4375 57.355469 61.253906 58.75 62 C 59.636719 62.621094 59.886719 63.4375 59.5 64.449219 C 57.707031 67.148438 56.722656 70.117188 56.550781 73.351562 C 56.4375 75.292969 56.886719 77.089844 57.898438 78.75 C 59.105469 80.253906 60.273438 81.789062 61.398438 83.351562 C 63.277344 86.433594 63.726562 89.699219 62.75 93.148438 Z M 62.75 93.148438 "/>
<path style=" stroke:none;fill-rule:evenodd;fill:rgb(99.607843%,99.607843%,99.607843%);fill-opacity:1;" d="M 78.648438 93.148438 C 76.898438 93.183594 75.164062 93.148438 73.449219 93.050781 C 74.46875 90.277344 74.1875 87.644531 72.601562 85.148438 C 71.703125 83.953125 70.769531 82.789062 69.800781 81.648438 C 67.367188 78.085938 66.636719 74.1875 67.601562 69.949219 C 68.230469 67.289062 69.296875 64.820312 70.800781 62.550781 C 71.660156 61.574219 72.707031 61.292969 73.949219 61.699219 C 75.277344 62.234375 75.726562 63.183594 75.300781 64.550781 C 72.953125 67.894531 72.019531 71.59375 72.5 75.648438 C 72.761719 76.738281 73.160156 77.769531 73.699219 78.75 C 74.804688 80.089844 75.871094 81.453125 76.898438 82.851562 C 79.007812 86.019531 79.589844 89.453125 78.648438 93.148438 Z M 78.648438 93.148438 "/>
<path style=" stroke:none;fill-rule:evenodd;fill:rgb(99.607843%,99.607843%,99.215686%);fill-opacity:1;" d="M 94.449219 93.148438 C 92.699219 93.183594 90.964844 93.148438 89.25 93.050781 C 90.203125 90.417969 89.984375 87.886719 88.601562 85.449219 C 87.675781 84.125 86.675781 82.859375 85.601562 81.648438 C 83.039062 77.800781 82.371094 73.632812 83.601562 69.148438 C 84.195312 67.027344 85.0625 65.027344 86.199219 63.148438 C 87.363281 61.386719 88.847656 61.070312 90.648438 62.199219 C 91.214844 62.808594 91.398438 63.527344 91.199219 64.351562 C 89.628906 66.691406 88.628906 69.257812 88.199219 72.050781 C 87.84375 74.894531 88.507812 77.460938 90.199219 79.75 C 91.855469 81.441406 93.15625 83.375 94.101562 85.550781 C 94.964844 88.046875 95.082031 90.582031 94.449219 93.148438 Z M 94.449219 93.148438 "/>
<path style=" stroke:none;fill-rule:evenodd;fill:rgb(96.862745%,91.372549%,80.392157%);fill-opacity:1;" d="M 57.648438 92.949219 C 59.3125 93.148438 61.011719 93.214844 62.75 93.148438 C 61.035156 93.25 59.300781 93.28125 57.550781 93.25 C 57.527344 93.121094 57.558594 93.019531 57.648438 92.949219 Z M 57.648438 92.949219 "/>
<path style=" stroke:none;fill-rule:evenodd;fill:rgb(96.470588%,91.372549%,80.392157%);fill-opacity:1;" d="M 73.449219 93.050781 C 75.164062 93.148438 76.898438 93.183594 78.648438 93.148438 C 76.898438 93.28125 75.132812 93.28125 73.351562 93.148438 C 73.363281 93.089844 73.394531 93.054688 73.449219 93.050781 Z M 73.449219 93.050781 "/>
<path style=" stroke:none;fill-rule:evenodd;fill:rgb(96.470588%,91.372549%,80%);fill-opacity:1;" d="M 89.25 93.050781 C 90.964844 93.148438 92.699219 93.183594 94.449219 93.148438 C 92.699219 93.28125 90.933594 93.28125 89.148438 93.148438 C 89.164062 93.089844 89.195312 93.054688 89.25 93.050781 Z M 89.25 93.050781 "/>
<path style=" stroke:none;fill-rule:evenodd;fill:rgb(99.607843%,99.607843%,99.607843%);fill-opacity:1;" d="M 32.75 96.449219 C 59.449219 96.433594 86.148438 96.449219 112.851562 96.5 C 113.304688 96.703125 113.539062 97.054688 113.550781 97.550781 C 112.015625 106.070312 108.050781 113.222656 101.648438 119 C 97.304688 122.875 92.335938 125.726562 86.75 127.550781 C 86.667969 128.480469 86.617188 129.414062 86.601562 130.351562 C 86.488281 130.5625 86.335938 130.746094 86.148438 130.898438 C 77.589844 131.066406 69.023438 131.097656 60.449219 131 C 60.105469 130.890625 59.855469 130.671875 59.699219 130.351562 C 59.683594 129.492188 59.632812 128.640625 59.550781 127.800781 C 48.910156 124.425781 40.894531 117.878906 35.5 108.148438 C 33.808594 104.777344 32.660156 101.226562 32.050781 97.5 C 32.105469 97.027344 32.339844 96.679688 32.75 96.449219 Z M 32.75 96.449219 "/>
</g>
</svg>
