<?xml version="1.0" encoding="UTF-8"?>
<svg xmlns="http://www.w3.org/2000/svg" xmlns:xlink="http://www.w3.org/1999/xlink" width="150px" height="150px" viewBox="0 0 150 150" version="1.1">
<g id="surface1">
<path style=" stroke:none;fill-rule:evenodd;fill:rgb(100%,22.745098%,12.941176%);fill-opacity:1;" d="M -0.0507812 -0.0507812 C 49.949219 -0.0507812 99.949219 -0.0507812 149.949219 -0.0507812 C 149.949219 49.949219 149.949219 99.949219 149.949219 149.949219 C 99.949219 149.949219 49.949219 149.949219 -0.0507812 149.949219 C -0.0507812 99.949219 -0.0507812 49.949219 -0.0507812 -0.0507812 Z M -0.0507812 -0.0507812 "/>
<path style=" stroke:none;fill-rule:evenodd;fill:rgb(100%,98.823529%,98.823529%);fill-opacity:1;" d="M 45.25 15.148438 C 45.25 15.550781 45.25 15.949219 45.25 16.351562 C 44.648438 16.351562 44.050781 16.351562 43.449219 16.351562 C 43.480469 16.027344 43.449219 15.730469 43.351562 15.449219 C 43.367188 14.425781 42.867188 14.007812 41.851562 14.199219 C 41.601562 14.316406 41.417969 14.5 41.300781 14.75 C 41.136719 16.910156 41.101562 19.078125 41.199219 21.25 C 41.414062 22.316406 42.03125 22.632812 43.050781 22.199219 C 43.257812 21.949219 43.40625 21.664062 43.5 21.351562 C 43.550781 20.75 43.566406 20.152344 43.550781 19.550781 C 43.148438 19.550781 42.75 19.550781 42.351562 19.550781 C 42.351562 19.082031 42.351562 18.617188 42.351562 18.148438 C 43.351562 18.148438 44.351562 18.148438 45.351562 18.148438 C 45.351562 20.015625 45.351562 21.882812 45.351562 23.75 C 44.910156 23.78125 44.476562 23.75 44.050781 23.648438 C 43.976562 23.355469 43.925781 23.054688 43.898438 22.75 C 43.625 23.394531 43.140625 23.777344 42.449219 23.898438 C 40.816406 24.109375 39.765625 23.425781 39.300781 21.851562 C 39.191406 20.601562 39.140625 19.351562 39.148438 18.101562 C 39.136719 16.945312 39.1875 15.792969 39.300781 14.648438 C 39.929688 13.027344 41.113281 12.375 42.851562 12.699219 C 44.34375 12.84375 45.140625 13.660156 45.25 15.148438 Z M 45.25 15.148438 "/>
<path style=" stroke:none;fill-rule:evenodd;fill:rgb(100%,71.764706%,67.843137%);fill-opacity:1;" d="M 69.25 14.25 C 70.066406 14.152344 70.898438 14.117188 71.75 14.148438 C 71.75 13.714844 71.75 13.285156 71.75 12.851562 C 70.25 12.851562 68.75 12.851562 67.25 12.851562 C 67.25 16.484375 67.25 20.117188 67.25 23.75 C 67.148438 20.101562 67.117188 16.433594 67.148438 12.75 C 68.714844 12.75 70.285156 12.75 71.851562 12.75 C 71.851562 13.25 71.851562 13.75 71.851562 14.25 C 70.984375 14.25 70.117188 14.25 69.25 14.25 Z M 69.25 14.25 "/>
<path style=" stroke:none;fill-rule:evenodd;fill:rgb(100%,99.215686%,99.215686%);fill-opacity:1;" d="M 11.949219 33.25 C 13.714844 33.25 15.484375 33.25 17.25 33.25 C 17.21875 33.570312 17.253906 33.871094 17.351562 34.148438 C 17.339844 35.15625 17.523438 36.121094 17.898438 37.050781 C 18.109375 37.429688 18.425781 37.679688 18.851562 37.800781 C 20.070312 38.101562 20.917969 37.683594 21.398438 36.550781 C 21.679688 35.742188 21.8125 34.90625 21.800781 34.050781 C 21.867188 32.785156 21.867188 31.515625 21.800781 30.25 C 21.773438 29.277344 21.570312 28.34375 21.199219 27.449219 C 20.578125 26.648438 19.761719 26.367188 18.75 26.601562 C 17.710938 27.109375 17.109375 27.941406 16.949219 29.101562 C 15.382812 29.148438 13.816406 29.167969 12.25 29.148438 C 12.359375 23.714844 12.476562 18.285156 12.601562 12.851562 C 17.007812 12.75 21.425781 12.71875 25.851562 12.75 C 25.851562 14.351562 25.851562 15.949219 25.851562 17.550781 C 22.949219 17.550781 20.050781 17.550781 17.148438 17.550781 C 17.007812 19.613281 16.921875 21.683594 16.898438 23.75 C 18.046875 22.828125 19.367188 22.394531 20.851562 22.449219 C 23.476562 22.394531 25.261719 23.59375 26.199219 26.050781 C 26.8125 27.796875 27.097656 29.597656 27.050781 31.449219 C 27.058594 33.515625 26.808594 35.550781 26.300781 37.550781 C 25.402344 40.148438 23.585938 41.597656 20.851562 41.898438 C 19.296875 42.035156 17.765625 41.933594 16.25 41.601562 C 13.875 40.757812 12.527344 39.074219 12.199219 36.550781 C 12.011719 35.457031 11.929688 34.359375 11.949219 33.25 Z M 11.949219 33.25 "/>
<path style=" stroke:none;fill-rule:evenodd;fill:rgb(100%,79.607843%,76.862745%);fill-opacity:1;" d="M 48.851562 14.25 C 49.664062 14.152344 50.5 14.117188 51.351562 14.148438 C 51.351562 13.714844 51.351562 13.285156 51.351562 12.851562 C 49.851562 12.851562 48.351562 12.851562 46.851562 12.851562 C 46.851562 16.484375 46.851562 20.117188 46.851562 23.75 C 46.75 20.101562 46.71875 16.433594 46.75 12.75 C 48.316406 12.75 49.882812 12.75 51.449219 12.75 C 51.449219 13.25 51.449219 13.75 51.449219 14.25 C 50.582031 14.25 49.714844 14.25 48.851562 14.25 Z M 48.851562 14.25 "/>
<path style=" stroke:none;fill-rule:evenodd;fill:rgb(100%,98.823529%,98.823529%);fill-opacity:1;" d="M 48.851562 14.25 C 48.851562 15.285156 48.851562 16.316406 48.851562 17.351562 C 49.515625 17.351562 50.183594 17.351562 50.851562 17.351562 C 50.851562 17.816406 50.851562 18.285156 50.851562 18.75 C 50.183594 18.75 49.515625 18.75 48.851562 18.75 C 48.851562 19.949219 48.851562 21.148438 48.851562 22.351562 C 49.664062 22.449219 50.5 22.484375 51.351562 22.449219 C 51.351562 22.882812 51.351562 23.316406 51.351562 23.75 C 49.851562 23.75 48.351562 23.75 46.851562 23.75 C 46.851562 20.117188 46.851562 16.484375 46.851562 12.851562 C 48.351562 12.851562 49.851562 12.851562 51.351562 12.851562 C 51.351562 13.285156 51.351562 13.714844 51.351562 14.148438 C 50.5 14.117188 49.664062 14.152344 48.851562 14.25 Z M 48.851562 14.25 "/>
<path style=" stroke:none;fill-rule:evenodd;fill:rgb(100%,80.392157%,78.039216%);fill-opacity:1;" d="M 53.949219 12.851562 C 53.484375 12.851562 53.015625 12.851562 52.550781 12.851562 C 52.550781 16.484375 52.550781 20.117188 52.550781 23.75 C 52.449219 20.101562 52.417969 16.433594 52.449219 12.75 C 52.96875 12.71875 53.46875 12.75 53.949219 12.851562 Z M 53.949219 12.851562 "/>
<path style=" stroke:none;fill-rule:evenodd;fill:rgb(100%,99.607843%,99.607843%);fill-opacity:1;" d="M 53.949219 12.851562 C 54.769531 14.859375 55.621094 16.859375 56.5 18.851562 C 56.550781 16.851562 56.566406 14.851562 56.550781 12.851562 C 57.082031 12.851562 57.617188 12.851562 58.148438 12.851562 C 58.148438 16.484375 58.148438 20.117188 58.148438 23.75 C 57.710938 23.78125 57.277344 23.75 56.851562 23.648438 C 55.988281 21.625 55.15625 19.59375 54.351562 17.550781 C 54.320312 17.472656 54.273438 17.40625 54.199219 17.351562 C 54.148438 19.484375 54.132812 21.617188 54.148438 23.75 C 53.617188 23.75 53.082031 23.75 52.550781 23.75 C 52.550781 20.117188 52.550781 16.484375 52.550781 12.851562 C 53.015625 12.851562 53.484375 12.851562 53.949219 12.851562 Z M 53.949219 12.851562 "/>
<path style=" stroke:none;fill-rule:evenodd;fill:rgb(100%,80.392157%,78.039216%);fill-opacity:1;" d="M 56.550781 12.851562 C 57.097656 12.75 57.664062 12.71875 58.25 12.75 C 58.28125 16.433594 58.25 20.101562 58.148438 23.75 C 58.148438 20.117188 58.148438 16.484375 58.148438 12.851562 C 57.617188 12.851562 57.082031 12.851562 56.550781 12.851562 Z M 56.550781 12.851562 "/>
<path style=" stroke:none;fill-rule:evenodd;fill:rgb(100%,80%,77.254902%);fill-opacity:1;" d="M 63.25 12.851562 C 62.117188 12.851562 60.984375 12.851562 59.851562 12.851562 C 59.851562 16.484375 59.851562 20.117188 59.851562 23.75 C 59.75 20.101562 59.71875 16.433594 59.75 12.75 C 60.933594 12.71875 62.101562 12.75 63.25 12.851562 Z M 63.25 12.851562 "/>
<path style=" stroke:none;fill-rule:evenodd;fill:rgb(100%,98.431373%,98.039216%);fill-opacity:1;" d="M 63.25 12.851562 C 64.519531 12.90625 65.335938 13.539062 65.699219 14.75 C 65.859375 16.8125 65.890625 18.878906 65.800781 20.949219 C 65.777344 21.914062 65.394531 22.699219 64.648438 23.300781 C 64.390625 23.417969 64.125 23.519531 63.851562 23.601562 C 62.523438 23.742188 61.1875 23.789062 59.851562 23.75 C 59.851562 20.117188 59.851562 16.484375 59.851562 12.851562 C 60.984375 12.851562 62.117188 12.851562 63.25 12.851562 Z M 63.25 12.851562 "/>
<path style=" stroke:none;fill-rule:evenodd;fill:rgb(100%,99.215686%,99.215686%);fill-opacity:1;" d="M 69.25 14.25 C 69.25 15.285156 69.25 16.316406 69.25 17.351562 C 69.917969 17.351562 70.582031 17.351562 71.25 17.351562 C 71.25 17.816406 71.25 18.285156 71.25 18.75 C 70.582031 18.75 69.917969 18.75 69.25 18.75 C 69.25 19.949219 69.25 21.148438 69.25 22.351562 C 70.117188 22.351562 70.984375 22.351562 71.851562 22.351562 C 71.851562 22.816406 71.851562 23.285156 71.851562 23.75 C 70.316406 23.75 68.785156 23.75 67.25 23.75 C 67.25 20.117188 67.25 16.484375 67.25 12.851562 C 68.75 12.851562 70.25 12.851562 71.75 12.851562 C 71.75 13.285156 71.75 13.714844 71.75 14.148438 C 70.898438 14.117188 70.066406 14.152344 69.25 14.25 Z M 69.25 14.25 "/>
<path style=" stroke:none;fill-rule:evenodd;fill:rgb(100%,64.313725%,59.607843%);fill-opacity:1;" d="M 76.148438 12.851562 C 75.082031 12.851562 74.015625 12.851562 72.949219 12.851562 C 72.949219 16.484375 72.949219 20.117188 72.949219 23.75 C 72.851562 20.101562 72.816406 16.433594 72.851562 12.75 C 73.96875 12.71875 75.066406 12.75 76.148438 12.851562 Z M 76.148438 12.851562 "/>
<path style=" stroke:none;fill-rule:evenodd;fill:rgb(100%,98.823529%,98.823529%);fill-opacity:1;" d="M 76.148438 12.851562 C 77.988281 12.886719 78.921875 13.820312 78.949219 15.648438 C 78.960938 16.355469 78.808594 17.023438 78.5 17.648438 C 78.210938 17.941406 77.925781 18.222656 77.648438 18.5 C 78.140625 20.179688 78.605469 21.863281 79.050781 23.550781 C 78.457031 23.746094 77.824219 23.8125 77.148438 23.75 C 76.65625 22.109375 76.222656 20.441406 75.851562 18.75 C 75.550781 18.75 75.25 18.75 74.949219 18.75 C 74.949219 20.417969 74.949219 22.082031 74.949219 23.75 C 74.285156 23.75 73.617188 23.75 72.949219 23.75 C 72.949219 20.117188 72.949219 16.484375 72.949219 12.851562 C 74.015625 12.851562 75.082031 12.851562 76.148438 12.851562 Z M 76.148438 12.851562 "/>
<path style=" stroke:none;fill-rule:evenodd;fill:rgb(100%,22.745098%,12.941176%);fill-opacity:1;" d="M 61.851562 14.25 C 62.324219 14.226562 62.792969 14.277344 63.25 14.398438 C 63.4375 14.554688 63.585938 14.738281 63.699219 14.949219 C 63.714844 16.015625 63.734375 17.082031 63.75 18.148438 C 63.761719 19.355469 63.710938 20.554688 63.601562 21.75 C 63.515625 21.964844 63.367188 22.117188 63.148438 22.199219 C 62.726562 22.320312 62.292969 22.371094 61.851562 22.351562 C 61.851562 19.648438 61.851562 16.949219 61.851562 14.25 Z M 61.851562 14.25 "/>
<path style=" stroke:none;fill-rule:evenodd;fill:rgb(100%,23.529412%,13.72549%);fill-opacity:1;" d="M 74.949219 14.148438 C 76.703125 14.019531 77.355469 14.820312 76.898438 16.550781 C 76.808594 17.023438 76.523438 17.304688 76.050781 17.398438 C 75.683594 17.449219 75.316406 17.464844 74.949219 17.449219 C 74.949219 16.351562 74.949219 15.25 74.949219 14.148438 Z M 74.949219 14.148438 "/>
<path style=" stroke:none;fill-rule:evenodd;fill:rgb(100%,74.901961%,71.764706%);fill-opacity:1;" d="M 45.25 15.148438 C 45.347656 15.5625 45.382812 15.996094 45.351562 16.449219 C 44.683594 16.449219 44.015625 16.449219 43.351562 16.449219 C 43.351562 16.117188 43.351562 15.785156 43.351562 15.449219 C 43.449219 15.730469 43.480469 16.027344 43.449219 16.351562 C 44.050781 16.351562 44.648438 16.351562 45.25 16.351562 C 45.25 15.949219 45.25 15.550781 45.25 15.148438 Z M 45.25 15.148438 "/>
<path style=" stroke:none;fill-rule:evenodd;fill:rgb(100%,61.568627%,56.470588%);fill-opacity:1;" d="M 54.351562 17.550781 C 54.285156 19.617188 54.214844 21.683594 54.148438 23.75 C 54.132812 21.617188 54.148438 19.484375 54.199219 17.351562 C 54.273438 17.40625 54.320312 17.472656 54.351562 17.550781 Z M 54.351562 17.550781 "/>
<path style=" stroke:none;fill-rule:evenodd;fill:rgb(100%,80%,77.647059%);fill-opacity:1;" d="M 48.851562 22.351562 C 49.714844 22.351562 50.582031 22.351562 51.449219 22.351562 C 51.480469 22.835938 51.449219 23.304688 51.351562 23.75 C 51.351562 23.316406 51.351562 22.882812 51.351562 22.449219 C 50.5 22.484375 49.664062 22.449219 48.851562 22.351562 Z M 48.851562 22.351562 "/>
<path style=" stroke:none;fill-rule:evenodd;fill:rgb(100%,43.137255%,36.078431%);fill-opacity:1;" d="M 79.050781 23.550781 C 79.140625 23.621094 79.171875 23.722656 79.148438 23.851562 C 78.464844 23.882812 77.796875 23.847656 77.148438 23.75 C 77.824219 23.8125 78.457031 23.746094 79.050781 23.550781 Z M 79.050781 23.550781 "/>
<path style=" stroke:none;fill-rule:evenodd;fill:rgb(100%,99.215686%,98.823529%);fill-opacity:1;" d="M 47.148438 30.550781 C 48.175781 30.433594 49.144531 30.617188 50.050781 31.101562 C 50.488281 31.503906 50.804688 31.988281 51 32.550781 C 51.160156 34.746094 51.195312 36.945312 51.101562 39.148438 C 51.007812 40.1875 50.523438 40.972656 49.648438 41.5 C 49.964844 41.816406 50.285156 42.132812 50.601562 42.449219 C 50.582031 42.886719 50.515625 43.320312 50.398438 43.75 C 50.359375 43.796875 50.308594 43.828125 50.25 43.851562 C 49.4375 43.351562 48.769531 42.703125 48.25 41.898438 C 47.015625 41.96875 46.03125 41.519531 45.300781 40.550781 C 45.160156 40.265625 45.058594 39.964844 45 39.648438 C 44.839844 37.386719 44.804688 35.121094 44.898438 32.851562 C 45.203125 31.632812 45.953125 30.863281 47.148438 30.550781 Z M 47.148438 30.550781 "/>
<path style=" stroke:none;fill-rule:evenodd;fill:rgb(100%,60.784314%,55.294118%);fill-opacity:1;" d="M 75.550781 30.75 C 78.082031 30.617188 80.617188 30.617188 83.148438 30.75 C 82.53125 30.71875 81.929688 30.75 81.351562 30.851562 C 81.285156 31.285156 81.214844 31.714844 81.148438 32.148438 C 81.148438 31.683594 81.148438 31.214844 81.148438 30.75 C 79.285156 30.75 77.417969 30.75 75.550781 30.75 Z M 75.550781 30.75 "/>
<path style=" stroke:none;fill-rule:evenodd;fill:rgb(100%,97.647059%,97.254902%);fill-opacity:1;" d="M 39.351562 30.75 C 40.851562 30.75 42.351562 30.75 43.851562 30.75 C 43.851562 31.183594 43.851562 31.617188 43.851562 32.050781 C 43 32.015625 42.164062 32.050781 41.351562 32.148438 C 41.351562 33.183594 41.351562 34.214844 41.351562 35.25 C 42.015625 35.25 42.683594 35.25 43.351562 35.25 C 43.351562 35.75 43.351562 36.25 43.351562 36.75 C 42.683594 36.75 42.015625 36.75 41.351562 36.75 C 41.351562 37.917969 41.351562 39.082031 41.351562 40.25 C 42.214844 40.25 43.082031 40.25 43.949219 40.25 C 43.949219 40.714844 43.949219 41.183594 43.949219 41.648438 C 42.382812 41.648438 40.816406 41.648438 39.25 41.648438 C 39.21875 38 39.25 34.367188 39.351562 30.75 Z M 39.351562 30.75 "/>
<path style=" stroke:none;fill-rule:evenodd;fill:rgb(100%,99.215686%,99.215686%);fill-opacity:1;" d="M 52.449219 30.75 C 53.082031 30.75 53.714844 30.75 54.351562 30.75 C 54.316406 33.46875 54.351562 36.167969 54.449219 38.851562 C 54.460938 39.945312 54.992188 40.394531 56.050781 40.199219 C 56.433594 39.832031 56.632812 39.382812 56.648438 38.851562 C 56.75 36.167969 56.78125 33.46875 56.75 30.75 C 57.382812 30.75 58.015625 30.75 58.648438 30.75 C 58.695312 33.753906 58.644531 36.753906 58.5 39.75 C 58.09375 41.238281 57.109375 41.941406 55.550781 41.851562 C 53.992188 41.941406 53.011719 41.242188 52.601562 39.75 C 52.453125 36.753906 52.40625 33.753906 52.449219 30.75 Z M 52.449219 30.75 "/>
<path style=" stroke:none;fill-rule:evenodd;fill:rgb(100%,77.254902%,74.509804%);fill-opacity:1;" d="M 52.449219 30.75 C 53.097656 30.652344 53.765625 30.617188 54.449219 30.648438 C 54.449219 33.382812 54.449219 36.117188 54.449219 38.851562 C 54.351562 36.167969 54.316406 33.46875 54.351562 30.75 C 53.714844 30.75 53.082031 30.75 52.449219 30.75 Z M 52.449219 30.75 "/>
<path style=" stroke:none;fill-rule:evenodd;fill:rgb(100%,77.254902%,74.509804%);fill-opacity:1;" d="M 58.648438 30.75 C 58.015625 30.75 57.382812 30.75 56.75 30.75 C 56.78125 33.46875 56.75 36.167969 56.648438 38.851562 C 56.648438 36.117188 56.648438 33.382812 56.648438 30.648438 C 57.335938 30.617188 58.003906 30.652344 58.648438 30.75 Z M 58.648438 30.75 "/>
<path style=" stroke:none;fill-rule:evenodd;fill:rgb(100%,98.431373%,98.039216%);fill-opacity:1;" d="M 66.050781 41.550781 C 65.46875 41.648438 64.867188 41.683594 64.25 41.648438 C 64.066406 40.867188 63.898438 40.066406 63.75 39.25 C 63.121094 39.152344 62.488281 39.117188 61.851562 39.148438 C 61.742188 39.988281 61.609375 40.820312 61.449219 41.648438 C 60.816406 41.648438 60.183594 41.648438 59.550781 41.648438 C 60.28125 37.984375 61.015625 34.316406 61.75 30.648438 C 62.476562 30.617188 63.191406 30.652344 63.898438 30.75 C 64.613281 34.351562 65.328125 37.953125 66.050781 41.550781 Z M 66.050781 41.550781 "/>
<path style=" stroke:none;fill-rule:evenodd;fill:rgb(100%,78.039216%,75.294118%);fill-opacity:1;" d="M 69.050781 30.75 C 68.417969 30.75 67.785156 30.75 67.148438 30.75 C 67.148438 34.382812 67.148438 38.015625 67.148438 41.648438 C 67.050781 38 67.015625 34.332031 67.050781 30.648438 C 67.734375 30.617188 68.402344 30.652344 69.050781 30.75 Z M 69.050781 30.75 "/>
<path style=" stroke:none;fill-rule:evenodd;fill:rgb(100%,98.431373%,98.039216%);fill-opacity:1;" d="M 69.050781 30.75 C 69.148438 33.898438 69.183594 37.066406 69.148438 40.25 C 69.964844 40.347656 70.796875 40.382812 71.648438 40.351562 C 71.648438 40.785156 71.648438 41.214844 71.648438 41.648438 C 70.148438 41.648438 68.648438 41.648438 67.148438 41.648438 C 67.148438 38.015625 67.148438 34.382812 67.148438 30.75 C 67.785156 30.75 68.417969 30.75 69.050781 30.75 Z M 69.050781 30.75 "/>
<path style=" stroke:none;fill-rule:evenodd;fill:rgb(100%,99.607843%,99.215686%);fill-opacity:1;" d="M 72.75 30.648438 C 73.417969 30.648438 74.082031 30.648438 74.75 30.648438 C 74.75 34.316406 74.75 37.984375 74.75 41.648438 C 74.082031 41.648438 73.417969 41.648438 72.75 41.648438 C 72.75 37.984375 72.75 34.316406 72.75 30.648438 Z M 72.75 30.648438 "/>
<path style=" stroke:none;fill-rule:evenodd;fill:rgb(100%,97.254902%,96.862745%);fill-opacity:1;" d="M 75.550781 30.75 C 77.417969 30.75 79.285156 30.75 81.148438 30.75 C 81.148438 31.214844 81.148438 31.683594 81.148438 32.148438 C 80.601562 32.25 80.035156 32.28125 79.449219 32.25 C 79.449219 35.382812 79.449219 38.515625 79.449219 41.648438 C 78.75 41.648438 78.050781 41.648438 77.351562 41.648438 C 77.351562 38.515625 77.351562 35.382812 77.351562 32.25 C 76.75 32.25 76.148438 32.25 75.550781 32.25 C 75.550781 31.75 75.550781 31.25 75.550781 30.75 Z M 75.550781 30.75 "/>
<path style=" stroke:none;fill-rule:evenodd;fill:rgb(100%,98.823529%,98.823529%);fill-opacity:1;" d="M 81.351562 30.851562 C 81.929688 30.75 82.53125 30.71875 83.148438 30.75 C 83.644531 32.121094 84.097656 33.523438 84.5 34.949219 C 84.933594 33.550781 85.367188 32.148438 85.800781 30.75 C 86.40625 30.652344 87.023438 30.617188 87.648438 30.648438 C 86.945312 32.882812 86.226562 35.117188 85.5 37.351562 C 85.449219 38.78125 85.433594 40.214844 85.449219 41.648438 C 84.816406 41.648438 84.183594 41.648438 83.550781 41.648438 C 83.566406 40.214844 83.550781 38.78125 83.5 37.351562 C 82.773438 35.183594 82.054688 33.015625 81.351562 30.851562 Z M 81.351562 30.851562 "/>
<path style=" stroke:none;fill-rule:evenodd;fill:rgb(100%,73.72549%,70.196078%);fill-opacity:1;" d="M 39.351562 30.75 C 40.867188 30.652344 42.398438 30.617188 43.949219 30.648438 C 43.949219 31.148438 43.949219 31.648438 43.949219 32.148438 C 43.082031 32.148438 42.214844 32.148438 41.351562 32.148438 C 42.164062 32.050781 43 32.015625 43.851562 32.050781 C 43.851562 31.617188 43.851562 31.183594 43.851562 30.75 C 42.351562 30.75 40.851562 30.75 39.351562 30.75 Z M 39.351562 30.75 "/>
<path style=" stroke:none;fill-rule:evenodd;fill:rgb(100%,25.098039%,15.294118%);fill-opacity:1;" d="M 47.550781 32.050781 C 48.328125 31.929688 48.84375 32.230469 49.101562 32.949219 C 49.167969 35.050781 49.167969 37.148438 49.101562 39.25 C 49.019531 39.523438 48.917969 39.792969 48.800781 40.050781 C 48.289062 40.398438 47.773438 40.417969 47.25 40.101562 C 47.09375 39.835938 46.976562 39.550781 46.898438 39.25 C 46.832031 37.148438 46.832031 35.050781 46.898438 32.949219 C 46.988281 32.546875 47.203125 32.246094 47.550781 32.050781 Z M 47.550781 32.050781 "/>
<path style=" stroke:none;fill-rule:evenodd;fill:rgb(100%,78.039216%,74.901961%);fill-opacity:1;" d="M 11.949219 33.25 C 13.734375 33.148438 15.53125 33.117188 17.351562 33.148438 C 17.351562 33.484375 17.351562 33.816406 17.351562 34.148438 C 17.253906 33.871094 17.21875 33.570312 17.25 33.25 C 15.484375 33.25 13.714844 33.25 11.949219 33.25 Z M 11.949219 33.25 "/>
<path style=" stroke:none;fill-rule:evenodd;fill:rgb(100%,25.882353%,15.686275%);fill-opacity:1;" d="M 63.449219 37.351562 C 63.449219 37.484375 63.449219 37.617188 63.449219 37.75 C 63.015625 37.75 62.582031 37.75 62.148438 37.75 C 62.324219 36.378906 62.539062 35.011719 62.800781 33.648438 C 63.082031 34.871094 63.296875 36.105469 63.449219 37.351562 Z M 63.449219 37.351562 "/>
<path style=" stroke:none;fill-rule:evenodd;fill:rgb(100%,44.705882%,37.647059%);fill-opacity:1;" d="M 63.449219 37.351562 C 63.546875 37.492188 63.578125 37.660156 63.550781 37.851562 C 63.0625 37.882812 62.597656 37.847656 62.148438 37.75 C 62.582031 37.75 63.015625 37.75 63.449219 37.75 C 63.449219 37.617188 63.449219 37.484375 63.449219 37.351562 Z M 63.449219 37.351562 "/>
<path style=" stroke:none;fill-rule:evenodd;fill:rgb(100%,80%,77.647059%);fill-opacity:1;" d="M 69.148438 40.25 C 70.015625 40.25 70.882812 40.25 71.75 40.25 C 71.78125 40.734375 71.75 41.203125 71.648438 41.648438 C 71.648438 41.214844 71.648438 40.785156 71.648438 40.351562 C 70.796875 40.382812 69.964844 40.347656 69.148438 40.25 Z M 69.148438 40.25 "/>
<path style=" stroke:none;fill-rule:evenodd;fill:rgb(100%,41.176471%,34.117647%);fill-opacity:1;" d="M 66.050781 41.550781 C 66.105469 41.554688 66.136719 41.589844 66.148438 41.648438 C 65.5 41.78125 64.867188 41.78125 64.25 41.648438 C 64.867188 41.683594 65.46875 41.648438 66.050781 41.550781 Z M 66.050781 41.550781 "/>
<path style=" stroke:none;fill-rule:evenodd;fill:rgb(100%,99.607843%,99.215686%);fill-opacity:1;" d="M 103.050781 75.75 C 103.082031 73.382812 103.050781 71.015625 102.949219 68.648438 C 102.890625 68.664062 102.855469 68.695312 102.851562 68.75 C 100.183594 71.449219 97.519531 74.148438 94.851562 76.851562 C 99.5625 83.882812 100.546875 91.417969 97.800781 99.449219 C 95.261719 106.019531 90.777344 110.738281 84.351562 113.601562 C 82.53125 114.324219 80.664062 114.871094 78.75 115.25 C 78.648438 117.664062 78.617188 120.097656 78.648438 122.550781 C 81.148438 122.550781 83.648438 122.550781 86.148438 122.550781 C 86.210938 122.5625 86.261719 122.59375 86.300781 122.648438 C 86.382812 125.007812 86.367188 127.355469 86.25 129.699219 C 83.75 129.75 81.25 129.765625 78.75 129.75 C 78.765625 132.117188 78.75 134.484375 78.699219 136.851562 C 78.648438 136.898438 78.601562 136.949219 78.550781 137 C 76.25 137.066406 73.949219 137.066406 71.648438 137 C 71.601562 136.949219 71.550781 136.898438 71.5 136.851562 C 71.449219 134.484375 71.433594 132.117188 71.449219 129.75 C 68.949219 129.765625 66.449219 129.75 63.949219 129.699219 C 63.835938 127.355469 63.816406 125.007812 63.898438 122.648438 C 63.9375 122.59375 63.988281 122.5625 64.050781 122.550781 C 66.550781 122.550781 69.050781 122.550781 71.550781 122.550781 C 71.582031 120.132812 71.550781 117.734375 71.449219 115.351562 C 62.140625 113.785156 55.589844 108.6875 51.800781 100.050781 C 48.625 91.304688 49.789062 83.203125 55.300781 75.75 C 61.519531 68.363281 69.4375 65.347656 79.050781 66.699219 C 83.042969 67.480469 86.640625 69.097656 89.851562 71.550781 C 92.597656 68.851562 95.332031 66.132812 98.050781 63.398438 C 95.550781 63.367188 93.050781 63.332031 90.550781 63.300781 C 90.433594 61.089844 90.417969 58.875 90.5 56.648438 C 93.691406 56.582031 96.894531 56.550781 100.101562 56.550781 C 103.308594 56.550781 106.507812 56.582031 109.699219 56.648438 C 109.765625 63.015625 109.765625 69.382812 109.699219 75.75 C 107.472656 75.882812 105.257812 75.882812 103.050781 75.75 Z M 103.050781 75.75 "/>
<path style=" stroke:none;fill-rule:evenodd;fill:rgb(100%,80.392157%,78.039216%);fill-opacity:1;" d="M 102.851562 68.75 C 102.855469 68.695312 102.890625 68.664062 102.949219 68.648438 C 103.050781 71.015625 103.082031 73.382812 103.050781 75.75 C 102.984375 73.417969 102.917969 71.082031 102.851562 68.75 Z M 102.851562 68.75 "/>
<path style=" stroke:none;fill-rule:evenodd;fill:rgb(100%,22.745098%,12.941176%);fill-opacity:1;" d="M 73.148438 72.851562 C 80.585938 72.589844 86.300781 75.558594 90.300781 81.75 C 93.53125 87.796875 93.566406 93.863281 90.398438 99.949219 C 86.035156 106.804688 79.785156 109.757812 71.648438 108.800781 C 65.796875 107.644531 61.449219 104.460938 58.601562 99.25 C 56.496094 94.949219 56.0625 90.480469 57.300781 85.851562 C 59.308594 79.742188 63.355469 75.660156 69.449219 73.601562 C 70.679688 73.265625 71.914062 73.015625 73.148438 72.851562 Z M 73.148438 72.851562 "/>
<path style=" stroke:none;fill-rule:evenodd;fill:rgb(100%,98.823529%,98.823529%);fill-opacity:1;" d="M 63.648438 83.449219 C 71.050781 83.433594 78.449219 83.449219 85.851562 83.5 C 85.898438 83.550781 85.949219 83.601562 86 83.648438 C 86.082031 85.507812 86.066406 87.355469 85.949219 89.199219 C 78.484375 89.25 71.015625 89.265625 63.550781 89.25 C 63.519531 87.308594 63.550781 85.375 63.648438 83.449219 Z M 63.648438 83.449219 "/>
<path style=" stroke:none;fill-rule:evenodd;fill:rgb(100%,98.823529%,98.823529%);fill-opacity:1;" d="M 63.648438 92.949219 C 71.050781 92.933594 78.449219 92.949219 85.851562 93 C 85.898438 93.050781 85.949219 93.101562 86 93.148438 C 86.082031 95.007812 86.066406 96.855469 85.949219 98.699219 C 78.484375 98.75 71.015625 98.765625 63.550781 98.75 C 63.519531 96.808594 63.550781 94.875 63.648438 92.949219 Z M 63.648438 92.949219 "/>
<path style=" stroke:none;fill-rule:evenodd;fill:rgb(100%,48.627451%,41.568627%);fill-opacity:1;" d="M 71.449219 115.351562 C 71.550781 117.734375 71.582031 120.132812 71.550781 122.550781 C 69.050781 122.550781 66.550781 122.550781 64.050781 122.550781 C 66.5 122.449219 68.964844 122.417969 71.449219 122.449219 C 71.449219 120.082031 71.449219 117.71875 71.449219 115.351562 Z M 71.449219 115.351562 "/>
<path style=" stroke:none;fill-rule:evenodd;fill:rgb(100%,48.627451%,41.960784%);fill-opacity:1;" d="M 78.75 115.25 C 78.75 117.648438 78.75 120.050781 78.75 122.449219 C 81.234375 122.417969 83.699219 122.449219 86.148438 122.550781 C 83.648438 122.550781 81.148438 122.550781 78.648438 122.550781 C 78.617188 120.097656 78.648438 117.664062 78.75 115.25 Z M 78.75 115.25 "/>
</g>
</svg>
