<?xml version="1.0" encoding="UTF-8"?>
<!DOCTYPE svg PUBLIC "-//W3C//DTD SVG 1.1//EN" "http://www.w3.org/Graphics/SVG/1.1/DTD/svg11.dtd">
<svg xmlns="http://www.w3.org/2000/svg" version="1.1" width="221px" height="220px" style="shape-rendering:geometricPrecision; text-rendering:geometricPrecision; image-rendering:optimizeQuality; fill-rule:evenodd; clip-rule:evenodd" xmlns:xlink="http://www.w3.org/1999/xlink">
<g><path style="opacity:1" fill="#4472c4" d="M -0.5,-0.5 C 73.1667,-0.5 146.833,-0.5 220.5,-0.5C 220.5,72.8333 220.5,146.167 220.5,219.5C 146.833,219.5 73.1667,219.5 -0.5,219.5C -0.5,146.167 -0.5,72.8333 -0.5,-0.5 Z"/></g>
<g><path style="opacity:1" fill="#edf1f9" d="M 123.5,37.5 C 119.768,39.1307 115.768,40.1307 111.5,40.5C 111.5,41.5 111.5,42.5 111.5,43.5C 116.833,43.5 122.167,43.5 127.5,43.5C 127.5,44.5 127.5,45.5 127.5,46.5C 121.833,46.5 116.167,46.5 110.5,46.5C 110.5,47.5 110.5,48.5 110.5,49.5C 116.167,49.5 121.833,49.5 127.5,49.5C 127.5,50.5 127.5,51.5 127.5,52.5C 122.786,52.1734 118.12,52.5067 113.5,53.5C 117.316,57.4079 121.982,59.7412 127.5,60.5C 126.829,61.9458 125.662,62.6125 124,62.5C 117.628,61.4492 112.962,58.1159 110,52.5C 105.525,60.0233 99.3585,62.69 91.5,60.5C 109.56,55.1703 109.56,52.5037 91.5,52.5C 91.5,51.5 91.5,50.5 91.5,49.5C 96.8333,49.5 102.167,49.5 107.5,49.5C 107.5,48.5 107.5,47.5 107.5,46.5C 102.251,46.1413 97.2514,45.1413 92.5,43.5C 97.5,43.5 102.5,43.5 107.5,43.5C 107.5,42.5 107.5,41.5 107.5,40.5C 103.5,40.5 99.5,40.5 95.5,40.5C 95.5,39.5 95.5,38.5 95.5,37.5C 99.5,37.5 103.5,37.5 107.5,37.5C 107.5,36.5 107.5,35.5 107.5,34.5C 102.833,34.5 98.1667,34.5 93.5,34.5C 93.5,33.5 93.5,32.5 93.5,31.5C 96.1873,31.6641 98.854,31.4974 101.5,31C 100.743,29.4878 99.7433,28.1545 98.5,27C 101.814,25.8353 103.814,27.0019 104.5,30.5C 107.833,31.8333 111.167,31.8333 114.5,30.5C 115.51,27.4983 117.51,26.3317 120.5,27C 119.743,28.5122 118.743,29.8455 117.5,31C 120.146,31.4974 122.813,31.6641 125.5,31.5C 125.5,32.5 125.5,33.5 125.5,34.5C 120.833,34.5 116.167,34.5 111.5,34.5C 111.5,35.5 111.5,36.5 111.5,37.5C 115.5,37.5 119.5,37.5 123.5,37.5 Z"/></g>
<g><path style="opacity:1" fill="#9fb6e0" d="M 123.5,37.5 C 124.404,38.209 124.737,39.209 124.5,40.5C 120.167,40.5 115.833,40.5 111.5,40.5C 115.768,40.1307 119.768,39.1307 123.5,37.5 Z"/></g>
<g><path style="opacity:1" fill="#b4c5e7" d="M 92.5,43.5 C 97.2514,45.1413 102.251,46.1413 107.5,46.5C 102.167,46.5 96.8333,46.5 91.5,46.5C 91.2627,45.209 91.596,44.209 92.5,43.5 Z"/></g>
<g><path style="opacity:1" fill="#fbfcfd" d="M 103.5,87.5 C 118.59,85.8468 129.256,91.8468 135.5,105.5C 120.009,105.993 109.176,113.326 103,127.5C 101.734,131.395 101.234,135.395 101.5,139.5C 85.9186,133.34 80.0852,122.007 84,105.5C 87.9448,96.6304 94.4448,90.6304 103.5,87.5 Z"/></g>
<g><path style="opacity:1" fill="#fcfcfe" d="M 126.5,110.5 C 149.361,109.86 160.194,120.86 159,143.5C 156.676,153.657 150.509,159.99 140.5,162.5C 139.863,141.196 128.863,130.196 107.5,129.5C 110.831,120.169 117.164,113.836 126.5,110.5 Z"/></g>
<g><path style="opacity:1" fill="#fbfcfd" d="M 77.5,111.5 C 79.343,132.842 91.0097,144.342 112.5,146C 106.277,159.781 95.6104,165.781 80.5,164C 63.7025,157.91 57.2025,146.076 61,128.5C 62.497,124.835 64.497,121.502 67,118.5C 70.3075,115.771 73.8075,113.438 77.5,111.5 Z"/></g>
<g><path style="opacity:1" fill="#fcfcfe" d="M 117.5,135.5 C 127.076,137.908 133.243,143.908 136,153.5C 137.672,176.828 126.838,187.995 103.5,187C 93.5354,184.387 87.202,178.22 84.5,168.5C 105.843,167.823 116.843,156.823 117.5,135.5 Z"/></g>
</svg>
