<?xml version="1.0" encoding="UTF-8"?>
<!DOCTYPE svg PUBLIC "-//W3C//DTD SVG 1.1//EN" "http://www.w3.org/Graphics/SVG/1.1/DTD/svg11.dtd">
<svg xmlns="http://www.w3.org/2000/svg" version="1.1" width="221px" height="220px" style="shape-rendering:geometricPrecision; text-rendering:geometricPrecision; image-rendering:optimizeQuality; fill-rule:evenodd; clip-rule:evenodd" xmlns:xlink="http://www.w3.org/1999/xlink">
<g><path style="opacity:0.995" fill="#58b531" d="M -0.5,-0.5 C 73.1667,-0.5 146.833,-0.5 220.5,-0.5C 220.5,72.8333 220.5,146.167 220.5,219.5C 146.833,219.5 73.1667,219.5 -0.5,219.5C -0.5,146.167 -0.5,72.8333 -0.5,-0.5 Z"/></g>
<g><path style="opacity:1" fill="#f3f9f0" d="M 111.5,32.5 C 116.833,32.5 122.167,32.5 127.5,32.5C 127.5,33.5 127.5,34.5 127.5,35.5C 125.208,35.2436 123.041,35.5769 121,36.5C 119.193,42.1176 116.36,47.1176 112.5,51.5C 113.748,53.4586 115.415,54.9586 117.5,56C 120.961,57.2305 124.294,58.7305 127.5,60.5C 127.113,61.7199 126.28,62.3865 125,62.5C 119.331,60.7493 114.165,58.0827 109.5,54.5C 104.457,58.8707 98.7903,61.204 92.5,61.5C 92.2907,60.914 91.9574,60.414 91.5,60C 97.1531,58.1775 102.153,55.3441 106.5,51.5C 103.034,46.865 100.2,41.865 98,36.5C 95.9592,35.5769 93.7925,35.2436 91.5,35.5C 91.5,34.5 91.5,33.5 91.5,32.5C 96.8333,32.5 102.167,32.5 107.5,32.5C 108.165,30.6309 108.831,28.6309 109.5,26.5C 110.169,28.6309 110.835,30.6309 111.5,32.5 Z"/></g>
<g><path style="opacity:1" fill="#afdb9c" d="M 111.5,32.5 C 110.835,30.6309 110.169,28.6309 109.5,26.5C 108.831,28.6309 108.165,30.6309 107.5,32.5C 107.5,30.1667 107.5,27.8333 107.5,25.5C 108.833,25.5 110.167,25.5 111.5,25.5C 111.5,27.8333 111.5,30.1667 111.5,32.5 Z"/></g>
<g><path style="opacity:1" fill="#60b83b" d="M 101.5,35.5 C 107.176,35.3339 112.843,35.5006 118.5,36C 116.355,41.1394 113.355,45.6394 109.5,49.5C 105.57,45.5665 102.903,40.8998 101.5,35.5 Z"/></g>
<g><path style="opacity:1" fill="#fdfefd" d="M 157.5,119.5 C 126.167,119.5 94.8333,119.5 63.5,119.5C 63.5,117.833 63.5,116.167 63.5,114.5C 78.556,105.552 94.056,97.2187 110,89.5C 125.229,97.1981 140.396,105.031 155.5,113C 157.229,114.789 157.896,116.956 157.5,119.5 Z"/></g>
<g><path style="opacity:1" fill="#abda98" d="M 63.5,114.5 C 63.5,116.167 63.5,117.833 63.5,119.5C 94.8333,119.5 126.167,119.5 157.5,119.5C 126.004,120.498 94.3377,120.832 62.5,120.5C 62.2053,118.265 62.5386,116.265 63.5,114.5 Z"/></g>
<g><path style="opacity:1" fill="#fefefe" d="M 67.5,124.5 C 75.8333,124.5 84.1667,124.5 92.5,124.5C 93.172,127.908 92.172,130.575 89.5,132.5C 88.5011,144.148 88.1678,155.814 88.5,167.5C 82.8333,167.5 77.1667,167.5 71.5,167.5C 71.8322,155.814 71.4989,144.148 70.5,132.5C 67.828,130.575 66.828,127.908 67.5,124.5 Z"/></g>
<g><path style="opacity:1" fill="#fdfefd" d="M 97.5,124.5 C 106.167,124.5 114.833,124.5 123.5,124.5C 124.227,128.224 122.894,130.891 119.5,132.5C 118.501,144.148 118.168,155.814 118.5,167.5C 112.833,167.5 107.167,167.5 101.5,167.5C 101.832,155.814 101.499,144.148 100.5,132.5C 98.0162,130.464 97.0162,127.798 97.5,124.5 Z"/></g>
<g><path style="opacity:1" fill="#fefefe" d="M 149.5,132.5 C 148.505,143.988 148.172,155.655 148.5,167.5C 143.167,167.5 137.833,167.5 132.5,167.5C 132.828,155.655 132.495,143.988 131.5,132.5C 128.11,131.056 126.777,128.39 127.5,124.5C 136.167,124.5 144.833,124.5 153.5,124.5C 154.223,128.39 152.89,131.056 149.5,132.5 Z"/></g>
<g><path style="opacity:1" fill="#aeda9a" d="M 131.5,132.5 C 132.495,143.988 132.828,155.655 132.5,167.5C 137.833,167.5 143.167,167.5 148.5,167.5C 148.172,155.655 148.505,143.988 149.5,132.5C 149.5,144.5 149.5,156.5 149.5,168.5C 143.5,168.5 137.5,168.5 131.5,168.5C 131.5,156.5 131.5,144.5 131.5,132.5 Z"/></g>
<g><path style="opacity:1" fill="#fefefe" d="M 62.5,172.5 C 94.1684,172.333 125.835,172.5 157.5,173C 158,173.5 158.5,174 159,174.5C 159.667,178.167 159.667,181.833 159,185.5C 158.5,186 158,186.5 157.5,187C 126.167,187.667 94.8333,187.667 63.5,187C 61.051,185.137 60.051,182.637 60.5,179.5C 60.3187,176.837 60.9854,174.503 62.5,172.5 Z"/></g>
</svg>
