<?xml version="1.0" encoding="UTF-8"?>
<!DOCTYPE svg PUBLIC "-//W3C//DTD SVG 1.1//EN" "http://www.w3.org/Graphics/SVG/1.1/DTD/svg11.dtd">
<svg xmlns="http://www.w3.org/2000/svg" version="1.1" width="221px" height="220px" style="shape-rendering:geometricPrecision; text-rendering:geometricPrecision; image-rendering:optimizeQuality; fill-rule:evenodd; clip-rule:evenodd" xmlns:xlink="http://www.w3.org/1999/xlink">
<g><path style="opacity:1" fill="#4472c4" d="M -0.5,-0.5 C 73.1667,-0.5 146.833,-0.5 220.5,-0.5C 220.5,72.8333 220.5,146.167 220.5,219.5C 146.833,219.5 73.1667,219.5 -0.5,219.5C -0.5,146.167 -0.5,72.8333 -0.5,-0.5 Z"/></g>
<g><path style="opacity:1" fill="#f3f6fb" d="M 109.5,37.5 C 107.076,37.1924 104.743,37.5258 102.5,38.5C 102.624,39.1067 102.957,39.44 103.5,39.5C 106.189,40.1894 107.856,41.856 108.5,44.5C 107.833,44.5 107.167,44.5 106.5,44.5C 105.143,43.3146 103.643,42.3146 102,41.5C 99.8439,42.9851 97.6772,44.4851 95.5,46C 93.9262,46.6987 92.5929,46.3654 91.5,45C 94.5952,44.0646 96.9286,42.2313 98.5,39.5C 99.0431,39.44 99.3764,39.1067 99.5,38.5C 96.9135,37.52 94.2469,37.1866 91.5,37.5C 91.5774,36.2502 92.244,35.4169 93.5,35C 92.8333,34.6667 92.1667,34.3333 91.5,34C 93.2208,31.3806 95.0541,28.8806 97,26.5C 98.8261,27.0104 98.9928,27.8438 97.5,29C 101.211,29.1747 104.878,29.6747 108.5,30.5C 106.604,31.4656 104.604,31.7989 102.5,31.5C 102.5,32.8333 102.5,34.1667 102.5,35.5C 105.388,34.9898 107.721,35.6565 109.5,37.5 Z"/></g>
<g><path style="opacity:1" fill="#f4f7fb" d="M 111.5,29.5 C 116.167,29.5 120.833,29.5 125.5,29.5C 125.5,34.1667 125.5,38.8333 125.5,43.5C 120.833,43.5 116.167,43.5 111.5,43.5C 111.5,38.8333 111.5,34.1667 111.5,29.5 Z"/></g>
<g><path style="opacity:1" fill="#4c77c6" d="M 96.5,31.5 C 97.5,31.5 98.5,31.5 99.5,31.5C 99.5,32.8333 99.5,34.1667 99.5,35.5C 94.4935,36.3923 93.4935,35.059 96.5,31.5 Z"/></g>
<g><path style="opacity:1" fill="#4e78c6" d="M 114.5,31.5 C 117.167,31.5 119.833,31.5 122.5,31.5C 122.5,34.5 122.5,37.5 122.5,40.5C 119.833,40.5 117.167,40.5 114.5,40.5C 114.5,37.5 114.5,34.5 114.5,31.5 Z"/></g>
<g><path style="opacity:1" fill="#a4bae2" d="M 91.5,37.5 C 94.2469,37.1866 96.9135,37.52 99.5,38.5C 99.3764,39.1067 99.0431,39.44 98.5,39.5C 96.1667,38.8333 93.8333,38.1667 91.5,37.5 Z"/></g>
<g><path style="opacity:1" fill="#9eb6e0" d="M 109.5,37.5 C 107.5,38.1667 105.5,38.8333 103.5,39.5C 102.957,39.44 102.624,39.1067 102.5,38.5C 104.743,37.5258 107.076,37.1924 109.5,37.5 Z"/></g>
<g><path style="opacity:1" fill="#7194d2" d="M 106.5,44.5 C 107.167,44.5 107.833,44.5 108.5,44.5C 113.167,45.1667 117.833,45.8333 122.5,46.5C 114.167,46.5 105.833,46.5 97.5,46.5C 100.5,45.8333 103.5,45.1667 106.5,44.5 Z"/></g>
<g><path style="opacity:1" fill="#f5f7fb" d="M 97.5,46.5 C 105.833,46.5 114.167,46.5 122.5,46.5C 122.5,51.8333 122.5,57.1667 122.5,62.5C 114.167,61.1667 105.833,61.1667 97.5,62.5C 97.5,57.1667 97.5,51.8333 97.5,46.5 Z"/></g>
<g><path style="opacity:1" fill="#7b9ad5" d="M 100.5,49.5 C 106.645,48.5098 112.978,48.1765 119.5,48.5C 119.768,50.099 119.434,51.4324 118.5,52.5C 118.5,51.5 118.5,50.5 118.5,49.5C 112.5,49.5 106.5,49.5 100.5,49.5 Z"/></g>
<g><path style="opacity:1" fill="#4472c4" d="M 100.5,49.5 C 106.5,49.5 112.5,49.5 118.5,49.5C 118.5,50.5 118.5,51.5 118.5,52.5C 112.5,52.5 106.5,52.5 100.5,52.5C 100.5,51.5 100.5,50.5 100.5,49.5 Z"/></g>
<g><path style="opacity:1" fill="#4e78c7" d="M 118.5,54.5 C 118.5,55.8333 118.5,57.1667 118.5,58.5C 112.5,58.5 106.5,58.5 100.5,58.5C 100.5,57.1667 100.5,55.8333 100.5,54.5C 106.5,54.5 112.5,54.5 118.5,54.5 Z"/></g>
<g><path style="opacity:1" fill="#cad7ee" d="M 118.5,54.5 C 119.451,55.9187 119.784,57.5853 119.5,59.5C 112.978,59.8235 106.645,59.4902 100.5,58.5C 106.5,58.5 112.5,58.5 118.5,58.5C 118.5,57.1667 118.5,55.8333 118.5,54.5 Z"/></g>
<g><path style="opacity:1" fill="#f8fafc" d="M 77.5,100.5 C 87.7862,99.0617 97.2862,101.062 106,106.5C 106.667,127.167 106.667,147.833 106,168.5C 96.2525,162.405 85.7525,160.905 74.5,164C 71.344,164.937 68.5106,166.437 66,168.5C 65.3333,147.833 65.3333,127.167 66,106.5C 69.5735,103.822 73.4068,101.822 77.5,100.5 Z"/></g>
<g><path style="opacity:1" fill="#fbfcfd" d="M 149.5,106.5 C 150.155,126.861 149.488,146.861 147.5,166.5C 146.292,165.766 144.959,165.433 143.5,165.5C 139.26,163.092 134.593,162.092 129.5,162.5C 123.604,162.029 118.271,163.362 113.5,166.5C 112.417,166.539 111.417,166.873 110.5,167.5C 109.167,146.833 109.167,126.167 110.5,105.5C 119.244,100.73 128.577,99.2303 138.5,101C 142.472,102.319 146.139,104.153 149.5,106.5 Z"/></g>
<g><path style="opacity:1" fill="#ced9ef" d="M 149.5,106.5 C 150.663,126.996 150.829,147.663 150,168.5C 149.005,167.934 148.172,167.267 147.5,166.5C 149.488,146.861 150.155,126.861 149.5,106.5 Z"/></g>
<g><path style="opacity:1" fill="#abc0e4" d="M 72.5,112.5 C 72.5,117.5 72.5,122.5 72.5,127.5C 76.5,127.5 80.5,127.5 84.5,127.5C 80.3656,128.485 76.0323,128.818 71.5,128.5C 71.1786,122.974 71.5119,117.64 72.5,112.5 Z"/></g>
<g><path style="opacity:1" fill="#4472c4" d="M 72.5,112.5 C 76.5,112.5 80.5,112.5 84.5,112.5C 84.5,117.5 84.5,122.5 84.5,127.5C 80.5,127.5 76.5,127.5 72.5,127.5C 72.5,122.5 72.5,117.5 72.5,112.5 Z"/></g>
<g><path style="opacity:1" fill="#4b76c6" d="M 87.5,112.5 C 91.8333,112.5 96.1667,112.5 100.5,112.5C 100.5,113.5 100.5,114.5 100.5,115.5C 96.1667,115.5 91.8333,115.5 87.5,115.5C 87.5,114.5 87.5,113.5 87.5,112.5 Z"/></g>
<g><path style="opacity:1" fill="#4773c4" d="M 115.5,112.5 C 124.833,112.5 134.167,112.5 143.5,112.5C 143.5,113.5 143.5,114.5 143.5,115.5C 134.167,115.5 124.833,115.5 115.5,115.5C 115.5,114.5 115.5,113.5 115.5,112.5 Z"/></g>
<g><path style="opacity:1" fill="#7797d4" d="M 99.5,121.5 C 98.1286,120.213 96.2953,119.547 94,119.5C 91.7047,119.547 89.8714,120.213 88.5,121.5C 87.596,120.791 87.2627,119.791 87.5,118.5C 91.8333,118.5 96.1667,118.5 100.5,118.5C 100.737,119.791 100.404,120.791 99.5,121.5 Z"/></g>
<g><path style="opacity:1" fill="#7697d3" d="M 143.5,118.5 C 143.5,118.833 143.5,119.167 143.5,119.5C 134.105,118.862 125.105,119.529 116.5,121.5C 116.167,121.5 115.833,121.5 115.5,121.5C 115.5,120.5 115.5,119.5 115.5,118.5C 124.833,118.5 134.167,118.5 143.5,118.5 Z"/></g>
<g><path style="opacity:1" fill="#4472c4" d="M 99.5,121.5 C 95.8333,121.5 92.1667,121.5 88.5,121.5C 89.8714,120.213 91.7047,119.547 94,119.5C 96.2953,119.547 98.1286,120.213 99.5,121.5 Z"/></g>
<g><path style="opacity:1" fill="#4472c4" d="M 143.5,119.5 C 134.895,121.471 125.895,122.138 116.5,121.5C 125.105,119.529 134.105,118.862 143.5,119.5 Z"/></g>
<g><path style="opacity:1" fill="#b9cae9" d="M 143.5,118.5 C 144.434,119.568 144.768,120.901 144.5,122.5C 134.652,122.827 124.986,122.494 115.5,121.5C 115.833,121.5 116.167,121.5 116.5,121.5C 125.895,122.138 134.895,121.471 143.5,119.5C 143.5,119.167 143.5,118.833 143.5,118.5 Z"/></g>
<g><path style="opacity:1" fill="#91abdc" d="M 87.5,124.5 C 91.8333,124.5 96.1667,124.5 100.5,124.5C 100.5,125.833 100.5,127.167 100.5,128.5C 96.1667,128.5 91.8333,128.5 87.5,128.5C 87.5,127.167 87.5,125.833 87.5,124.5 Z"/></g>
<g><path style="opacity:1" fill="#4472c4" d="M 88.5,125.5 C 92.226,125.177 95.8927,125.511 99.5,126.5C 97.6667,126.833 95.8333,127.167 94,127.5C 91.7047,127.453 89.8714,126.787 88.5,125.5 Z"/></g>
<g><path style="opacity:1" fill="#94aedd" d="M 143.5,125.5 C 144.404,126.209 144.737,127.209 144.5,128.5C 134.833,128.5 125.167,128.5 115.5,128.5C 115.5,127.167 115.5,125.833 115.5,124.5C 125.015,124.173 134.348,124.506 143.5,125.5 Z"/></g>
<g><path style="opacity:1" fill="#4472c4" d="M 143.5,125.5 C 139.386,126.826 134.886,127.493 130,127.5C 125.5,127.167 121,126.833 116.5,126.5C 125.475,125.502 134.475,125.168 143.5,125.5 Z"/></g>
<g><path style="opacity:1" fill="#547dc8" d="M 72.5,131.5 C 81.8333,131.5 91.1667,131.5 100.5,131.5C 100.5,132.5 100.5,133.5 100.5,134.5C 91.1667,134.5 81.8333,134.5 72.5,134.5C 72.5,133.5 72.5,132.5 72.5,131.5 Z"/></g>
<g><path style="opacity:1" fill="#668ace" d="M 116.5,131.5 C 120.614,132.826 125.114,133.493 130,133.5C 134.886,133.493 139.386,132.826 143.5,131.5C 144.404,132.209 144.737,133.209 144.5,134.5C 134.833,134.5 125.167,134.5 115.5,134.5C 115.263,133.209 115.596,132.209 116.5,131.5 Z"/></g>
<g><path style="opacity:1" fill="#4472c4" d="M 116.5,131.5 C 125.5,131.5 134.5,131.5 143.5,131.5C 139.386,132.826 134.886,133.493 130,133.5C 125.114,133.493 120.614,132.826 116.5,131.5 Z"/></g>
<g><path style="opacity:1" fill="#4573c4" d="M 72.5,137.5 C 81.8333,137.5 91.1667,137.5 100.5,137.5C 100.5,138.5 100.5,139.5 100.5,140.5C 91.1667,140.5 81.8333,140.5 72.5,140.5C 72.5,139.5 72.5,138.5 72.5,137.5 Z"/></g>
<g><path style="opacity:1" fill="#4773c4" d="M 115.5,137.5 C 124.833,137.5 134.167,137.5 143.5,137.5C 143.5,138.5 143.5,139.5 143.5,140.5C 134.167,140.5 124.833,140.5 115.5,140.5C 115.5,139.5 115.5,138.5 115.5,137.5 Z"/></g>
<g><path style="opacity:1" fill="#7495d3" d="M 72.5,144.5 C 81.6517,143.506 90.985,143.173 100.5,143.5C 100.737,144.791 100.404,145.791 99.5,146.5C 90.8955,144.529 81.8955,143.862 72.5,144.5 Z"/></g>
<g><path style="opacity:1" fill="#7697d3" d="M 143.5,143.5 C 143.5,143.833 143.5,144.167 143.5,144.5C 134.105,143.862 125.105,144.529 116.5,146.5C 116.167,146.5 115.833,146.5 115.5,146.5C 115.5,145.5 115.5,144.5 115.5,143.5C 124.833,143.5 134.167,143.5 143.5,143.5 Z"/></g>
<g><path style="opacity:1" fill="#4472c4" d="M 72.5,144.5 C 81.8955,143.862 90.8955,144.529 99.5,146.5C 90.1045,147.138 81.1045,146.471 72.5,144.5 Z"/></g>
<g><path style="opacity:1" fill="#4472c4" d="M 143.5,144.5 C 134.895,146.471 125.895,147.138 116.5,146.5C 125.105,144.529 134.105,143.862 143.5,144.5 Z"/></g>
<g><path style="opacity:1" fill="#b9cae9" d="M 143.5,143.5 C 144.434,144.568 144.768,145.901 144.5,147.5C 134.652,147.827 124.986,147.494 115.5,146.5C 115.833,146.5 116.167,146.5 116.5,146.5C 125.895,147.138 134.895,146.471 143.5,144.5C 143.5,144.167 143.5,143.833 143.5,143.5 Z"/></g>
<g><path style="opacity:1" fill="#94aedd" d="M 72.5,150.5 C 81.6517,149.506 90.985,149.173 100.5,149.5C 100.5,150.833 100.5,152.167 100.5,153.5C 90.8333,153.5 81.1667,153.5 71.5,153.5C 71.2627,152.209 71.596,151.209 72.5,150.5 Z"/></g>
<g><path style="opacity:1" fill="#4472c4" d="M 72.5,150.5 C 81.5246,150.168 90.5246,150.502 99.5,151.5C 95,151.833 90.5,152.167 86,152.5C 81.1139,152.493 76.6139,151.826 72.5,150.5 Z"/></g>
<g><path style="opacity:1" fill="#94aedd" d="M 143.5,150.5 C 144.404,151.209 144.737,152.209 144.5,153.5C 134.833,153.5 125.167,153.5 115.5,153.5C 115.5,152.167 115.5,150.833 115.5,149.5C 125.015,149.173 134.348,149.506 143.5,150.5 Z"/></g>
<g><path style="opacity:1" fill="#4472c4" d="M 143.5,150.5 C 139.386,151.826 134.886,152.493 130,152.5C 125.5,152.167 121,151.833 116.5,151.5C 125.475,150.502 134.475,150.168 143.5,150.5 Z"/></g>
<g><path style="opacity:1" fill="#5d82cb" d="M 143.5,165.5 C 142.833,165.5 142.5,165.833 142.5,166.5C 135.96,164.628 129.294,164.128 122.5,165C 120.509,165.374 118.842,166.207 117.5,167.5C 116.399,168.598 115.066,168.765 113.5,168C 116.097,167.221 116.097,166.721 113.5,166.5C 118.271,163.362 123.604,162.029 129.5,162.5C 134.593,162.092 139.26,163.092 143.5,165.5 Z"/></g>
<g><path style="opacity:1" fill="#eff3fa" d="M 95.5,165.5 C 92.5,166.167 89.5,166.833 86.5,167.5C 79.9546,168.022 74.1213,170.355 69,174.5C 68.1923,172.421 68.359,170.421 69.5,168.5C 77.7778,164.452 86.4445,163.452 95.5,165.5 Z"/></g>
<g><path style="opacity:1" fill="#e9eef8" d="M 142.5,166.5 C 146.7,167.575 148.2,170.242 147,174.5C 138.198,168.116 128.365,165.783 117.5,167.5C 118.842,166.207 120.509,165.374 122.5,165C 129.294,164.128 135.96,164.628 142.5,166.5 Z"/></g>
<g><path style="opacity:1" fill="#b7c8e8" d="M 95.5,165.5 C 97.6301,166.032 99.6301,166.865 101.5,168C 96.5601,167.674 91.5601,167.508 86.5,167.5C 89.5,166.833 92.5,166.167 95.5,165.5 Z"/></g>
</svg>
