<?xml version="1.0" encoding="UTF-8"?>
<!DOCTYPE svg PUBLIC "-//W3C//DTD SVG 1.1//EN" "http://www.w3.org/Graphics/SVG/1.1/DTD/svg11.dtd">
<svg xmlns="http://www.w3.org/2000/svg" version="1.1" width="221px" height="220px" style="shape-rendering:geometricPrecision; text-rendering:geometricPrecision; image-rendering:optimizeQuality; fill-rule:evenodd; clip-rule:evenodd" xmlns:xlink="http://www.w3.org/1999/xlink">
<g><path style="opacity:0.995" fill="#58b531" d="M -0.5,-0.5 C 73.1667,-0.5 146.833,-0.5 220.5,-0.5C 220.5,72.8333 220.5,146.167 220.5,219.5C 146.833,219.5 73.1667,219.5 -0.5,219.5C -0.5,146.167 -0.5,72.8333 -0.5,-0.5 Z"/></g>
<g><path style="opacity:1" fill="#fafdf9" d="M 92.5,43.5 C 97.2514,41.8587 102.251,40.8587 107.5,40.5C 108.043,40.44 108.376,40.1067 108.5,39.5C 104.555,38.5091 100.555,38.1758 96.5,38.5C 96.5,34.8333 96.5,31.1667 96.5,27.5C 105.167,27.5 113.833,27.5 122.5,27.5C 122.5,31.1667 122.5,34.8333 122.5,38.5C 118.833,38.5 115.167,38.5 111.5,38.5C 111.5,39.5 111.5,40.5 111.5,41.5C 116.875,41.1718 122.208,41.5052 127.5,42.5C 115.852,43.4989 104.186,43.8322 92.5,43.5 Z"/></g>
<g><path style="opacity:1" fill="#6fbe4d" d="M 99.5,29.5 C 106.167,29.5 112.833,29.5 119.5,29.5C 119.5,30.5 119.5,31.5 119.5,32.5C 112.833,32.5 106.167,32.5 99.5,32.5C 99.5,31.5 99.5,30.5 99.5,29.5 Z"/></g>
<g><path style="opacity:1" fill="#69bb46" d="M 99.5,33.5 C 106.167,33.5 112.833,33.5 119.5,33.5C 119.5,34.5 119.5,35.5 119.5,36.5C 112.833,36.5 106.167,36.5 99.5,36.5C 99.5,35.5 99.5,34.5 99.5,33.5 Z"/></g>
<g><path style="opacity:1" fill="#abda98" d="M 107.5,40.5 C 102.251,40.8587 97.2514,41.8587 92.5,43.5C 91.596,42.791 91.2627,41.791 91.5,40.5C 96.8333,40.5 102.167,40.5 107.5,40.5 Z"/></g>
<g><path style="opacity:1" fill="#f1f8ed" d="M 121.5,53.5 C 117.958,53.1872 114.625,53.5206 111.5,54.5C 113.126,61.8776 110.459,64.2109 103.5,61.5C 104.689,60.5713 106.022,60.238 107.5,60.5C 108.468,58.3926 108.802,56.0593 108.5,53.5C 104.833,53.5 101.167,53.5 97.5,53.5C 97.5,50.8333 97.5,48.1667 97.5,45.5C 105.5,45.5 113.5,45.5 121.5,45.5C 121.5,48.1667 121.5,50.8333 121.5,53.5 Z"/></g>
<g><path style="opacity:1" fill="#9bd183" d="M 100.5,48.5 C 106.645,47.5098 112.978,47.1765 119.5,47.5C 119.768,49.099 119.434,50.4324 118.5,51.5C 118.5,50.5 118.5,49.5 118.5,48.5C 112.5,48.5 106.5,48.5 100.5,48.5 Z"/></g>
<g><path style="opacity:1" fill="#58b530" d="M 100.5,48.5 C 106.5,48.5 112.5,48.5 118.5,48.5C 118.5,49.5 118.5,50.5 118.5,51.5C 112.5,51.5 106.5,51.5 100.5,51.5C 100.5,50.5 100.5,49.5 100.5,48.5 Z"/></g>
<g><path style="opacity:1" fill="#a6d791" d="M 97.5,53.5 C 101.167,53.5 104.833,53.5 108.5,53.5C 108.802,56.0593 108.468,58.3926 107.5,60.5C 107.5,58.5 107.5,56.5 107.5,54.5C 105.585,54.2155 103.919,54.5489 102.5,55.5C 101.833,55.5 101.167,55.5 100.5,55.5C 99.5,54.8333 98.5,54.1667 97.5,53.5 Z"/></g>
<g><path style="opacity:1" fill="#abda99" d="M 111.5,54.5 C 114.625,53.5206 117.958,53.1872 121.5,53.5C 120.167,54.1667 118.833,54.8333 117.5,55.5C 117.167,55.5 116.833,55.5 116.5,55.5C 115.081,54.5489 113.415,54.2155 111.5,54.5 Z"/></g>
<g><path style="opacity:1" fill="#f0f8ec" d="M 100.5,55.5 C 101.167,55.5 101.833,55.5 102.5,55.5C 103.332,56.3285 102.999,57.1618 101.5,58C 99.0602,59.3034 96.5602,60.47 94,61.5C 92.9412,61.3699 92.1079,60.8699 91.5,60C 94.5266,58.4867 97.5266,56.9867 100.5,55.5 Z"/></g>
<g><path style="opacity:1" fill="#f0f8ed" d="M 116.5,55.5 C 116.833,55.5 117.167,55.5 117.5,55.5C 120.965,56.3974 123.965,58.0641 126.5,60.5C 126,60.8333 125.5,61.1667 125,61.5C 121.919,59.7091 118.752,58.0424 115.5,56.5C 115.624,55.8933 115.957,55.56 116.5,55.5 Z"/></g>
<g><path style="opacity:1" fill="#fbfdfa" d="M 78.5,88.5 C 83.7594,90.5278 88.7594,93.0278 93.5,96C 89.5606,105.511 85.0606,114.678 80,123.5C 74.8306,121.832 69.9972,119.498 65.5,116.5C 69.8474,107.14 74.1807,97.8071 78.5,88.5 Z"/></g>
<g><path style="opacity:1" fill="#fbfdfa" d="M 127.5,151.5 C 126.5,151.5 125.5,151.5 124.5,151.5C 124.179,156.695 124.513,161.695 125.5,166.5C 129.824,172.471 134.157,178.471 138.5,184.5C 137.573,186.946 135.906,187.779 133.5,187C 130.667,183.5 127.833,180 125,176.5C 124.501,180.486 124.334,184.486 124.5,188.5C 122.5,188.5 120.5,188.5 118.5,188.5C 118.665,184.818 118.499,181.152 118,177.5C 115.5,180.667 113,183.833 110.5,187C 108.361,187.264 106.694,186.431 105.5,184.5C 109.862,178.638 114.028,172.638 118,166.5C 118.499,161.511 118.666,156.511 118.5,151.5C 117.5,151.5 116.5,151.5 115.5,151.5C 115.5,149.5 115.5,147.5 115.5,145.5C 116.5,145.5 117.5,145.5 118.5,145.5C 118.777,142.552 118.444,139.719 117.5,137C 107.351,132.757 97.351,128.257 87.5,123.5C 90.6721,115.822 94.3388,108.489 98.5,101.5C 112.323,108.245 125.99,115.245 139.5,122.5C 136.694,129.446 133.361,136.112 129.5,142.5C 125.602,139.31 123.935,140.31 124.5,145.5C 125.5,145.5 126.5,145.5 127.5,145.5C 127.5,147.5 127.5,149.5 127.5,151.5 Z"/></g>
<g><path style="opacity:1" fill="#fafcf9" d="M 144.5,125.5 C 148.053,125.943 151.053,127.443 153.5,130C 150.698,136.446 147.531,142.613 144,148.5C 141.073,147.623 138.573,146.123 136.5,144C 139.041,137.754 141.708,131.587 144.5,125.5 Z"/></g>
<g><path style="opacity:1" fill="#97d17f" d="M 127.5,151.5 C 125.64,156.193 124.974,161.193 125.5,166.5C 124.513,161.695 124.179,156.695 124.5,151.5C 125.5,151.5 126.5,151.5 127.5,151.5 Z"/></g>
</svg>
