<?xml version="1.0" encoding="UTF-8"?>
<!DOCTYPE svg PUBLIC "-//W3C//DTD SVG 1.1//EN" "http://www.w3.org/Graphics/SVG/1.1/DTD/svg11.dtd">
<svg xmlns="http://www.w3.org/2000/svg" version="1.1" width="221px" height="220px" style="shape-rendering:geometricPrecision; text-rendering:geometricPrecision; image-rendering:optimizeQuality; fill-rule:evenodd; clip-rule:evenodd" xmlns:xlink="http://www.w3.org/1999/xlink">
<g><path style="opacity:0.995" fill="#58b531" d="M -0.5,-0.5 C 73.1667,-0.5 146.833,-0.5 220.5,-0.5C 220.5,72.8333 220.5,146.167 220.5,219.5C 146.833,219.5 73.1667,219.5 -0.5,219.5C -0.5,146.167 -0.5,72.8333 -0.5,-0.5 Z"/></g>
<g><path style="opacity:1" fill="#f2f9ee" d="M 107.5,27.5 C 108.5,27.5 109.5,27.5 110.5,27.5C 110.941,41.5594 116.941,52.3928 128.5,60C 127.667,60.8333 126.833,61.6667 126,62.5C 117.705,57.3577 112.205,50.0244 109.5,40.5C 107.372,49.1178 102.705,55.9511 95.5,61C 93.9262,61.6987 92.5929,61.3654 91.5,60C 102.547,52.0716 107.88,41.2383 107.5,27.5 Z"/></g>
<g><path style="opacity:1" fill="#eef7e9" d="M 88.5,100.5 C 101.493,99.6611 107.66,105.661 107,118.5C 103.337,127.916 96.5039,131.416 86.5,129C 79.1562,124.464 76.6562,117.964 79,109.5C 81.4301,105.566 84.5967,102.566 88.5,100.5 Z"/></g>
<g><path style="opacity:1" fill="#edf7e9" d="M 121.5,100.5 C 138.318,100.808 143.818,108.808 138,124.5C 133.426,129.15 127.926,130.65 121.5,129C 118.804,128.31 116.637,126.81 115,124.5C 115.621,118.657 115.454,112.823 114.5,107C 116.425,104.375 118.758,102.208 121.5,100.5 Z"/></g>
<g><path style="opacity:1" fill="#eef7ea" d="M 77.5,133.5 C 78.8221,133.33 79.9887,133.663 81,134.5C 84.5038,140.844 88.5038,146.844 93,152.5C 97.1667,146.333 101.333,140.167 105.5,134C 114.454,136.614 120.621,142.447 124,151.5C 125.434,155.406 125.767,159.406 125,163.5C 109.632,178.106 92.1316,181.273 72.5,173C 67.1766,170.008 62.8433,166.008 59.5,161C 61.3738,148.99 67.3738,139.824 77.5,133.5 Z"/></g>
<g><path style="opacity:1" fill="#eef7e9" d="M 138.5,133.5 C 148.878,137.383 155.712,144.716 159,155.5C 159.667,158.167 159.667,160.833 159,163.5C 148.977,173.76 136.81,178.26 122.5,177C 126.633,173.869 130.466,170.369 134,166.5C 134.846,159.797 134.013,153.297 131.5,147C 133.958,142.585 136.291,138.085 138.5,133.5 Z"/></g>
</svg>
