<?xml version="1.0" encoding="UTF-8"?>
<!DOCTYPE svg PUBLIC "-//W3C//DTD SVG 1.1//EN" "http://www.w3.org/Graphics/SVG/1.1/DTD/svg11.dtd">
<svg xmlns="http://www.w3.org/2000/svg" version="1.1" width="221px" height="220px" style="shape-rendering:geometricPrecision; text-rendering:geometricPrecision; image-rendering:optimizeQuality; fill-rule:evenodd; clip-rule:evenodd" xmlns:xlink="http://www.w3.org/1999/xlink">
<g><path style="opacity:1" fill="#4472c4" d="M -0.5,-0.5 C 73.1667,-0.5 146.833,-0.5 220.5,-0.5C 220.5,72.8333 220.5,146.167 220.5,219.5C 146.833,219.5 73.1667,219.5 -0.5,219.5C -0.5,146.167 -0.5,72.8333 -0.5,-0.5 Z"/></g>
<g><path style="opacity:1" fill="#f4f6fb" d="M 114.5,25.5 C 116.176,26.1834 116.843,27.5168 116.5,29.5C 117.5,29.5 118.5,29.5 119.5,29.5C 120.167,24.1667 120.833,24.1667 121.5,29.5C 123.167,29.5 124.833,29.5 126.5,29.5C 126.5,33.5 126.5,37.5 126.5,41.5C 120.833,41.5 115.167,41.5 109.5,41.5C 109.5,37.5 109.5,33.5 109.5,29.5C 111.167,29.5 112.833,29.5 114.5,29.5C 114.5,28.1667 114.5,26.8333 114.5,25.5 Z"/></g>
<g><path style="opacity:1" fill="#89a4d9" d="M 120.5,31.5 C 121.833,31.5 123.167,31.5 124.5,31.5C 124.5,32.5 124.5,33.5 124.5,34.5C 123.167,34.5 121.833,34.5 120.5,34.5C 120.5,33.5 120.5,32.5 120.5,31.5 Z"/></g>
<g><path style="opacity:1" fill="#6388cd" d="M 111.5,31.5 C 112.5,31.5 113.5,31.5 114.5,31.5C 114.5,32.5 114.5,33.5 114.5,34.5C 113.5,34.5 112.5,34.5 111.5,34.5C 111.5,33.5 111.5,32.5 111.5,31.5 Z"/></g>
<g><path style="opacity:1" fill="#6287cd" d="M 116.5,31.5 C 117.5,31.5 118.5,31.5 119.5,31.5C 119.5,32.5 119.5,33.5 119.5,34.5C 118.5,34.5 117.5,34.5 116.5,34.5C 116.5,33.5 116.5,32.5 116.5,31.5 Z"/></g>
<g><path style="opacity:1" fill="#7695d3" d="M 111.5,36.5 C 112.5,36.5 113.5,36.5 114.5,36.5C 114.5,37.5 114.5,38.5 114.5,39.5C 113.5,39.5 112.5,39.5 111.5,39.5C 111.5,38.5 111.5,37.5 111.5,36.5 Z"/></g>
<g><path style="opacity:1" fill="#7594d2" d="M 116.5,36.5 C 117.5,36.5 118.5,36.5 119.5,36.5C 119.5,37.5 119.5,38.5 119.5,39.5C 118.5,39.5 117.5,39.5 116.5,39.5C 116.5,38.5 116.5,37.5 116.5,36.5 Z"/></g>
<g><path style="opacity:1" fill="#88a2d8" d="M 120.5,36.5 C 121.833,36.5 123.167,36.5 124.5,36.5C 124.5,37.5 124.5,38.5 124.5,39.5C 123.167,39.5 121.833,39.5 120.5,39.5C 120.5,38.5 120.5,37.5 120.5,36.5 Z"/></g>
<g><path style="opacity:1" fill="#7c9cd6" d="M 107.5,38.5 C 108.434,39.5676 108.768,40.901 108.5,42.5C 115.167,42.5 121.833,42.5 128.5,42.5C 128.737,43.791 128.404,44.791 127.5,45.5C 124.742,44.1818 121.576,43.5152 118,43.5C 114.648,43.5018 111.482,43.8351 108.5,44.5C 108.167,44.5 107.833,44.5 107.5,44.5C 107.5,42.5 107.5,40.5 107.5,38.5 Z"/></g>
<g><path style="opacity:1" fill="#f5f7fb" d="M 107.5,38.5 C 107.5,40.5 107.5,42.5 107.5,44.5C 105.708,49.7455 104.874,55.4121 105,61.5C 103.035,62.885 101.202,62.7184 99.5,61C 100.448,60.5172 101.448,60.3505 102.5,60.5C 102.5,58.8333 102.5,57.1667 102.5,55.5C 100.833,55.5 99.1667,55.5 97.5,55.5C 97.5,57.8333 97.5,60.1667 97.5,62.5C 96.5,62.5 95.5,62.5 94.5,62.5C 94.9311,55.3816 94.2644,48.3816 92.5,41.5C 94.112,36.9675 94.7787,32.3008 94.5,27.5C 98.1667,27.5 101.833,27.5 105.5,27.5C 104.92,31.649 105.586,35.3157 107.5,38.5 Z"/></g>
<g><path style="opacity:1" fill="#567ec9" d="M 94.5,40.5 C 98.1667,40.5 101.833,40.5 105.5,40.5C 105.5,41.5 105.5,42.5 105.5,43.5C 101.833,43.5 98.1667,43.5 94.5,43.5C 94.5,42.5 94.5,41.5 94.5,40.5 Z"/></g>
<g><path style="opacity:1" fill="#567fc9" d="M 100.5,34.5 C 101.5,34.5 102.5,34.5 103.5,34.5C 103.5,35.8333 103.5,37.1667 103.5,38.5C 102.5,38.5 101.5,38.5 100.5,38.5C 100.5,37.1667 100.5,35.8333 100.5,34.5 Z"/></g>
<g><path style="opacity:1" fill="#6389cd" d="M 96.5,29.5 C 98.8333,29.5 101.167,29.5 103.5,29.5C 103.5,30.5 103.5,31.5 103.5,32.5C 101.833,32.5 100.167,32.5 98.5,32.5C 98.7989,34.604 98.4656,36.604 97.5,38.5C 96.5159,35.5719 96.1826,32.5719 96.5,29.5 Z"/></g>
<g><path style="opacity:1" fill="#fefffe" d="M 127.5,45.5 C 120.978,45.8235 114.645,45.4902 108.5,44.5C 111.482,43.8351 114.648,43.5018 118,43.5C 121.576,43.5152 124.742,44.1818 127.5,45.5 Z"/></g>
<g><path style="opacity:1" fill="#6b8ccf" d="M 96.5,45.5 C 98.8333,45.5 101.167,45.5 103.5,45.5C 103.5,46.5 103.5,47.5 103.5,48.5C 101.167,48.5 98.8333,48.5 96.5,48.5C 96.5,47.5 96.5,46.5 96.5,45.5 Z"/></g>
<g><path style="opacity:1" fill="#4472c4" d="M 97.5,50.5 C 99.1667,50.5 100.833,50.5 102.5,50.5C 102.5,51.5 102.5,52.5 102.5,53.5C 100.833,53.5 99.1667,53.5 97.5,53.5C 97.5,52.5 97.5,51.5 97.5,50.5 Z"/></g>
<g><path style="opacity:1" fill="#f2f5fa" d="M 125.5,47.5 C 125.5,49.8333 125.5,52.1667 125.5,54.5C 121.774,54.1774 118.107,54.5108 114.5,55.5C 114.624,56.1067 114.957,56.44 115.5,56.5C 115.418,58.2517 116.251,59.2517 118,59.5C 119.749,59.2517 120.582,58.2517 120.5,56.5C 121.391,55.8902 122.391,55.5569 123.5,55.5C 122.176,58.7947 123.509,60.128 127.5,59.5C 121.25,61.4589 114.584,62.1255 107.5,61.5C 109.025,59.9642 111.025,58.9642 113.5,58.5C 112.289,57.2798 112.289,56.1131 113.5,55C 112.552,54.5172 111.552,54.3505 110.5,54.5C 110.5,52.1667 110.5,49.8333 110.5,47.5C 115.5,47.5 120.5,47.5 125.5,47.5 Z"/></g>
<g><path style="opacity:1" fill="#b3c5e7" d="M 122.5,49.5 C 123.434,50.5676 123.768,51.901 123.5,53.5C 119.629,53.815 115.962,53.4816 112.5,52.5C 115.833,52.5 119.167,52.5 122.5,52.5C 122.5,51.5 122.5,50.5 122.5,49.5 Z"/></g>
<g><path style="opacity:1" fill="#4673c4" d="M 122.5,49.5 C 122.5,50.5 122.5,51.5 122.5,52.5C 119.167,52.5 115.833,52.5 112.5,52.5C 112.5,51.5 112.5,50.5 112.5,49.5C 115.833,49.5 119.167,49.5 122.5,49.5 Z"/></g>
<g><path style="opacity:1" fill="#4874c5" d="M 120.5,56.5 C 120.582,58.2517 119.749,59.2517 118,59.5C 116.251,59.2517 115.418,58.2517 115.5,56.5C 117.167,55.1667 118.833,55.1667 120.5,56.5 Z"/></g>
<g><path style="opacity:1" fill="#92acdc" d="M 125.5,47.5 C 126.473,49.9479 126.806,52.6146 126.5,55.5C 125.5,55.5 124.5,55.5 123.5,55.5C 122.391,55.5569 121.391,55.8902 120.5,56.5C 118.833,55.1667 117.167,55.1667 115.5,56.5C 114.957,56.44 114.624,56.1067 114.5,55.5C 118.107,54.5108 121.774,54.1774 125.5,54.5C 125.5,52.1667 125.5,49.8333 125.5,47.5 Z"/></g>
<g><path style="opacity:1" fill="#a0b7e1" d="M 127.5,59.5 C 128.404,60.209 128.737,61.209 128.5,62.5C 121.313,62.8245 114.313,62.4912 107.5,61.5C 114.584,62.1255 121.25,61.4589 127.5,59.5 Z"/></g>
<g><path style="opacity:1" fill="#f8fafd" d="M 79.5,109.5 C 88.5226,109.062 91.1893,112.895 87.5,121C 79.2463,124.081 75.7463,121.248 77,112.5C 78.045,111.627 78.8783,110.627 79.5,109.5 Z"/></g>
<g><path style="opacity:1" fill="#f9fafd" d="M 132.5,121.5 C 129.552,121.777 126.719,121.444 124,120.5C 120.849,114.525 122.349,110.525 128.5,108.5C 136.112,110.892 137.446,115.225 132.5,121.5 Z"/></g>
<g><path style="opacity:1" fill="#f9fafd" d="M 132.5,121.5 C 134.527,121.338 136.527,121.505 138.5,122C 145.133,125.409 152.133,127.742 159.5,129C 162.167,131.667 162.167,134.333 159.5,137C 155.123,136.922 150.79,136.588 146.5,136C 148.625,142.562 151.958,148.395 156.5,153.5C 159.191,151.797 161.857,150.13 164.5,148.5C 169.268,149.184 170.601,151.684 168.5,156C 165.319,158.092 162.319,160.425 159.5,163C 157.045,164.631 154.545,164.797 152,163.5C 150.056,159.89 147.723,156.557 145,153.5C 141.667,159.5 138.333,165.5 135,171.5C 129.286,176.239 126.619,174.905 127,167.5C 130.5,161.167 134,154.833 137.5,148.5C 135.544,143.623 133.211,138.956 130.5,134.5C 128.032,135.803 125.699,137.303 123.5,139C 119.859,140.315 117.526,139.149 116.5,135.5C 113.025,133.192 109.692,130.692 106.5,128C 107.025,127.308 107.692,126.808 108.5,126.5C 111.5,128.5 114.5,130.5 117.5,132.5C 122.745,129.056 127.745,125.39 132.5,121.5 Z"/></g>
<g><path style="opacity:1" fill="#f9fafd" d="M 81.5,123.5 C 90.9244,125.298 99.0911,129.631 106,136.5C 106.656,140.021 105.156,142.021 101.5,142.5C 97.957,141.129 94.7904,139.129 92,136.5C 92.44,141.82 94.1067,146.82 97,151.5C 100.667,157.5 104.333,163.5 108,169.5C 108.445,175.198 105.945,176.865 100.5,174.5C 96.6667,168.167 92.8333,161.833 89,155.5C 85.0166,161.553 86.3499,166.219 93,169.5C 93.1414,176.957 89.9748,178.457 83.5,174C 76.2142,166.853 75.5475,159.02 81.5,150.5C 80.9479,148.667 80.1145,147 79,145.5C 74.4643,148.742 71.2976,147.742 69.5,142.5C 69.6082,141.558 69.9415,140.725 70.5,140C 72.7538,138.623 74.9205,137.123 77,135.5C 76.581,130.658 78.081,126.658 81.5,123.5 Z"/></g>
</svg>
