<?xml version="1.0" encoding="UTF-8"?>
<!DOCTYPE svg PUBLIC "-//W3C//DTD SVG 1.1//EN" "http://www.w3.org/Graphics/SVG/1.1/DTD/svg11.dtd">
<svg xmlns="http://www.w3.org/2000/svg" version="1.1" width="221px" height="220px" style="shape-rendering:geometricPrecision; text-rendering:geometricPrecision; image-rendering:optimizeQuality; fill-rule:evenodd; clip-rule:evenodd" xmlns:xlink="http://www.w3.org/1999/xlink">
<g><path style="opacity:0.995" fill="#58b531" d="M -0.5,-0.5 C 73.1667,-0.5 146.833,-0.5 220.5,-0.5C 220.5,72.8333 220.5,146.167 220.5,219.5C 146.833,219.5 73.1667,219.5 -0.5,219.5C -0.5,146.167 -0.5,72.8333 -0.5,-0.5 Z"/></g>
<g><path style="opacity:1" fill="#f6fbf3" d="M 96.5,26.5 C 97.5,26.5 98.5,26.5 99.5,26.5C 99.5,29.5 99.5,32.5 99.5,35.5C 101.167,35.5 102.833,35.5 104.5,35.5C 104.5,36.5 104.5,37.5 104.5,38.5C 102.833,38.5 101.167,38.5 99.5,38.5C 99.1774,42.226 99.5108,45.8927 100.5,49.5C 101.736,48.7542 103.07,48.4208 104.5,48.5C 104.5,49.5 104.5,50.5 104.5,51.5C 100.268,53.1136 95.9343,54.4469 91.5,55.5C 91.5,54.5 91.5,53.5 91.5,52.5C 92.9305,52.5792 94.2638,52.2458 95.5,51.5C 96.4922,47.2172 96.8256,42.8839 96.5,38.5C 94.8333,38.5 93.1667,38.5 91.5,38.5C 91.5,37.5 91.5,36.5 91.5,35.5C 93.1667,35.5 94.8333,35.5 96.5,35.5C 96.5,32.5 96.5,29.5 96.5,26.5 Z"/></g>
<g><path style="opacity:1" fill="#f5faf3" d="M 118.5,35.5 C 120.68,34.8829 122.68,33.8829 124.5,32.5C 125.086,32.7093 125.586,33.0426 126,33.5C 126.667,38.8333 126.667,44.1667 126,49.5C 124.164,51.6044 121.998,51.9377 119.5,50.5C 120.689,49.5713 122.022,49.238 123.5,49.5C 123.666,45.1539 123.499,40.8206 123,36.5C 121.933,37.1905 120.766,37.6905 119.5,38C 118.208,43.3036 116.874,48.4702 115.5,53.5C 115.5,49.1667 115.5,44.8333 115.5,40.5C 114.209,40.2627 113.209,40.596 112.5,41.5C 111.504,41.4142 110.671,41.7476 110,42.5C 109.333,47.8333 109.333,53.1667 110,58.5C 114.413,59.6324 118.913,59.7991 123.5,59C 125.004,57.5093 125.837,55.676 126,53.5C 129.006,55.9432 128.839,58.4432 125.5,61C 119.833,61.6667 114.167,61.6667 108.5,61C 108,60.5 107.5,60 107,59.5C 106.501,54.5111 106.334,49.5111 106.5,44.5C 101.397,43.8857 101.23,42.5523 106,40.5C 106.499,36.8484 106.665,33.1817 106.5,29.5C 107.5,29.5 108.5,29.5 109.5,29.5C 109.335,32.8499 109.502,36.1832 110,39.5C 111.33,38.4178 112.83,37.7512 114.5,37.5C 115.166,33.9792 115.833,30.3125 116.5,26.5C 117.167,29.6417 117.834,32.6417 118.5,35.5 Z"/></g>
<g><path style="opacity:1" fill="#97d17f" d="M 118.5,35.5 C 117.834,32.6417 117.167,29.6417 116.5,26.5C 115.833,30.3125 115.166,33.9792 114.5,37.5C 114.5,33.5 114.5,29.5 114.5,25.5C 115.833,25.5 117.167,25.5 118.5,25.5C 118.5,28.8333 118.5,32.1667 118.5,35.5 Z"/></g>
<g><path style="opacity:1" fill="#95d07c" d="M 112.5,41.5 C 113.209,40.596 114.209,40.2627 115.5,40.5C 115.5,44.8333 115.5,49.1667 115.5,53.5C 115.131,49.2325 114.131,45.2325 112.5,41.5 Z"/></g>
<g><path style="opacity:1" fill="#fcfefc" d="M 101.5,88.5 C 128.194,86.8716 143.527,99.2049 147.5,125.5C 147.18,131.96 145.347,137.96 142,143.5C 132.751,156.995 123.751,170.662 115,184.5C 112.03,189.249 108.697,189.582 105,185.5C 96,171.833 87,158.167 78,144.5C 66.8438,117.817 74.6771,99.1501 101.5,88.5 Z"/></g>
<g><path style="opacity:1" fill="#5db738" d="M 103.5,105.5 C 123.825,104.317 132.325,113.651 129,133.5C 123.975,144.428 115.475,148.595 103.5,146C 91.1655,140.657 86.6655,131.49 90,118.5C 93.101,112.563 97.601,108.23 103.5,105.5 Z"/></g>
<g><path style="opacity:1" fill="#fbfdfa" d="M 105.5,113.5 C 118.506,112.995 123.673,118.995 121,131.5C 116.675,137.941 110.842,139.774 103.5,137C 95.0336,128.367 95.7003,120.534 105.5,113.5 Z"/></g>
</svg>
