<?xml version="1.0" encoding="UTF-8"?>
<!DOCTYPE svg PUBLIC "-//W3C//DTD SVG 1.1//EN" "http://www.w3.org/Graphics/SVG/1.1/DTD/svg11.dtd">
<svg xmlns="http://www.w3.org/2000/svg" version="1.1" width="221px" height="220px" style="shape-rendering:geometricPrecision; text-rendering:geometricPrecision; image-rendering:optimizeQuality; fill-rule:evenodd; clip-rule:evenodd" xmlns:xlink="http://www.w3.org/1999/xlink">
<g><path style="opacity:1" fill="#4472c4" d="M -0.5,-0.5 C 73.1667,-0.5 146.833,-0.5 220.5,-0.5C 220.5,72.8333 220.5,146.167 220.5,219.5C 146.833,219.5 73.1667,219.5 -0.5,219.5C -0.5,146.167 -0.5,72.8333 -0.5,-0.5 Z"/></g>
<g><path style="opacity:1" fill="#a4bae2" d="M 93.5,28.5 C 98.3054,27.5128 103.305,27.1795 108.5,27.5C 108.5,29.8333 108.5,32.1667 108.5,34.5C 107.539,32.7354 107.205,30.7354 107.5,28.5C 102.833,28.5 98.1667,28.5 93.5,28.5 Z"/></g>
<g><path style="opacity:1" fill="#f0f3fa" d="M 93.5,28.5 C 98.1667,28.5 102.833,28.5 107.5,28.5C 107.205,30.7354 107.539,32.7354 108.5,34.5C 110.117,33.962 111.784,33.6287 113.5,33.5C 113.753,31.1727 113.086,29.1727 111.5,27.5C 112,27.1667 112.5,26.8333 113,26.5C 115.223,28.2802 116.39,30.6135 116.5,33.5C 118.167,33.5 119.833,33.5 121.5,33.5C 121.453,30.427 122.619,28.0937 125,26.5C 125.5,26.6667 126,26.8333 126.5,27C 125.308,28.9124 124.308,30.9124 123.5,33C 124.793,33.49 126.127,33.6567 127.5,33.5C 127.5,34.5 127.5,35.5 127.5,36.5C 125.167,36.5 122.833,36.5 120.5,36.5C 120.5,38.1667 120.5,39.8333 120.5,41.5C 122.5,41.5 124.5,41.5 126.5,41.5C 126.5,42.5 126.5,43.5 126.5,44.5C 124.5,44.5 122.5,44.5 120.5,44.5C 120.5,46.5 120.5,48.5 120.5,50.5C 123.167,50.5 125.833,50.5 128.5,50.5C 128.5,51.5 128.5,52.5 128.5,53.5C 125.833,53.5 123.167,53.5 120.5,53.5C 120.5,56.5 120.5,59.5 120.5,62.5C 119.5,62.5 118.5,62.5 117.5,62.5C 117.5,59.5 117.5,56.5 117.5,53.5C 115.167,53.5 112.833,53.5 110.5,53.5C 110.5,52.5 110.5,51.5 110.5,50.5C 112.833,50.5 115.167,50.5 117.5,50.5C 117.5,48.5 117.5,46.5 117.5,44.5C 115.5,44.5 113.5,44.5 111.5,44.5C 111.5,43.5 111.5,42.5 111.5,41.5C 113.5,41.5 115.5,41.5 117.5,41.5C 117.5,39.8333 117.5,38.1667 117.5,36.5C 111.11,34.8356 108.11,37.1689 108.5,43.5C 105.482,43.3354 102.482,43.502 99.5,44C 98.6634,45.0113 98.33,46.1779 98.5,47.5C 101.833,47.5 105.167,47.5 108.5,47.5C 108.5,51.8333 108.5,56.1667 108.5,60.5C 103.985,60.2716 99.6516,60.9383 95.5,62.5C 95.6646,59.4816 95.498,56.4816 95,53.5C 93.4203,56.2545 92.2536,56.0878 91.5,53C 93.0892,50.4884 94.4225,47.8217 95.5,45C 94.9777,44.0497 94.311,43.2164 93.5,42.5C 96.3418,41.9955 97.6751,40.3289 97.5,37.5C 95.5,37.5 93.5,37.5 91.5,37.5C 91.5,36.5 91.5,35.5 91.5,34.5C 93.8333,34.5 96.1667,34.5 98.5,34.5C 98.5,33.1667 98.5,31.8333 98.5,30.5C 96.2188,30.9227 94.5521,30.256 93.5,28.5 Z"/></g>
<g><path style="opacity:1" fill="#4e78c7" d="M 101.5,30.5 C 102.833,30.5 104.167,30.5 105.5,30.5C 105.5,31.8333 105.5,33.1667 105.5,34.5C 104.167,34.5 102.833,34.5 101.5,34.5C 101.5,33.1667 101.5,31.8333 101.5,30.5 Z"/></g>
<g><path style="opacity:1" fill="#9bb3df" d="M 100.5,37.5 C 101.919,36.5489 103.585,36.2155 105.5,36.5C 105.5,38.1667 105.5,39.8333 105.5,41.5C 103.5,41.5 101.5,41.5 99.5,41.5C 99.2322,39.901 99.5655,38.5676 100.5,37.5 Z"/></g>
<g><path style="opacity:1" fill="#4472c4" d="M 100.5,37.5 C 101.833,37.5 103.167,37.5 104.5,37.5C 104.5,38.5 104.5,39.5 104.5,40.5C 103.167,40.5 101.833,40.5 100.5,40.5C 100.5,39.5 100.5,38.5 100.5,37.5 Z"/></g>
<g><path style="opacity:1" fill="#4472c4" d="M 98.5,50.5 C 100.833,50.5 103.167,50.5 105.5,50.5C 105.5,52.8333 105.5,55.1667 105.5,57.5C 103.167,57.5 100.833,57.5 98.5,57.5C 98.5,55.1667 98.5,52.8333 98.5,50.5 Z"/></g>
<g><path style="opacity:1" fill="#f7f9fc" d="M 88.5,111.5 C 97.7446,110.899 100.411,114.732 96.5,123C 89.388,125.554 85.888,123.054 86,115.5C 86.6622,114.016 87.4955,112.683 88.5,111.5 Z"/></g>
<g><path style="opacity:1" fill="#f8f9fc" d="M 106.5,111.5 C 112.093,110.451 115.426,112.617 116.5,118C 114.435,124.118 110.601,125.618 105,122.5C 102.689,118.374 103.189,114.707 106.5,111.5 Z"/></g>
<g><path style="opacity:1" fill="#f7f9fc" d="M 123.5,111.5 C 130.497,110.666 133.664,113.666 133,120.5C 128.819,125.769 124.819,125.769 121,120.5C 119.927,116.9 120.76,113.9 123.5,111.5 Z"/></g>
<g><path style="opacity:1" fill="#f7f9fc" d="M 80.5,125.5 C 91.2155,125.755 93.2155,129.922 86.5,138C 79.2149,138.962 76.3816,135.795 78,128.5C 79.045,127.627 79.8783,126.627 80.5,125.5 Z"/></g>
<g><path style="opacity:1" fill="#f7f9fc" d="M 98.5,125.5 C 105.497,124.666 108.664,127.666 108,134.5C 103.819,139.769 99.8195,139.769 96,134.5C 94.9271,130.9 95.7605,127.9 98.5,125.5 Z"/></g>
<g><path style="opacity:1" fill="#f9fafd" d="M 115.5,125.5 C 124.351,125.368 126.684,129.202 122.5,137C 114.735,139.575 111.568,136.742 113,128.5C 113.698,127.309 114.531,126.309 115.5,125.5 Z"/></g>
<g><path style="opacity:1" fill="#f7f9fc" d="M 131.5,125.5 C 140.745,124.899 143.411,128.732 139.5,137C 133.557,139.911 129.89,138.078 128.5,131.5C 128.984,129.199 129.984,127.199 131.5,125.5 Z"/></g>
<g><path style="opacity:1" fill="#f6f8fc" d="M 72.5,141.5 C 81.9142,141.85 84.2475,145.85 79.5,153.5C 71.3678,155.869 68.2012,152.869 70,144.5C 71.045,143.627 71.8783,142.627 72.5,141.5 Z"/></g>
<g><path style="opacity:1" fill="#f8fafd" d="M 90.5,141.5 C 98.5431,142.02 100.876,145.854 97.5,153C 89.8092,156.306 86.3092,153.806 87,145.5C 87.6897,143.65 88.8564,142.316 90.5,141.5 Z"/></g>
<g><path style="opacity:1" fill="#f7f8fc" d="M 106.5,141.5 C 113.88,141.043 116.713,144.376 115,151.5C 110.601,155.654 106.601,155.321 103,150.5C 102.333,148.833 102.333,147.167 103,145.5C 104.376,144.295 105.542,142.962 106.5,141.5 Z"/></g>
<g><path style="opacity:1" fill="#f8fafd" d="M 124.5,141.5 C 132.845,141.691 135.178,145.524 131.5,153C 123.95,155.984 120.45,153.484 121,145.5C 122.102,144.051 123.269,142.718 124.5,141.5 Z"/></g>
<g><path style="opacity:1" fill="#f8f9fc" d="M 141.5,141.5 C 148.88,141.043 151.713,144.376 150,151.5C 145.648,155.665 141.648,155.331 138,150.5C 137.333,148.833 137.333,147.167 138,145.5C 139.376,144.295 140.542,142.962 141.5,141.5 Z"/></g>
<g><path style="opacity:1" fill="#fafbfd" d="M 89.5,161.5 C 89.5,166.167 89.5,170.833 89.5,175.5C 88.1667,175.5 86.8333,175.5 85.5,175.5C 85.8128,171.958 85.4794,168.625 84.5,165.5C 83.5206,168.625 83.1872,171.958 83.5,175.5C 78.1667,175.5 72.8333,175.5 67.5,175.5C 66.8333,160.833 66.1667,160.833 65.5,175.5C 63.8333,175.5 62.1667,175.5 60.5,175.5C 60.3341,170.489 60.5007,165.489 61,160.5C 62.2273,158.274 64.0607,156.774 66.5,156C 72.5,155.333 78.5,155.333 84.5,156C 87.079,157.076 88.7457,158.909 89.5,161.5 Z"/></g>
<g><path style="opacity:1" fill="#f7f8fc" d="M 117.5,175.5 C 112.167,175.5 106.833,175.5 101.5,175.5C 101.823,171.774 101.489,168.107 100.5,164.5C 99.8933,164.624 99.56,164.957 99.5,165.5C 99.5,168.833 99.5,172.167 99.5,175.5C 97.8333,175.5 96.1667,175.5 94.5,175.5C 94.0962,169.71 94.5962,164.044 96,158.5C 99.866,155.963 104.199,154.963 109,155.5C 112.167,155.667 115.333,155.833 118.5,156C 120.286,156.785 121.786,157.951 123,159.5C 124.397,164.708 124.897,170.041 124.5,175.5C 122.5,175.5 120.5,175.5 118.5,175.5C 118.167,160.833 117.833,160.833 117.5,175.5 Z"/></g>
<g><path style="opacity:1" fill="#f8fafd" d="M 159.5,175.5 C 157.833,175.5 156.167,175.5 154.5,175.5C 154.823,171.774 154.489,168.107 153.5,164.5C 152.893,164.624 152.56,164.957 152.5,165.5C 152.5,168.833 152.5,172.167 152.5,175.5C 147.167,175.5 141.833,175.5 136.5,175.5C 135.833,160.833 135.167,160.833 134.5,175.5C 132.833,175.5 131.167,175.5 129.5,175.5C 128.987,169.642 129.654,163.975 131.5,158.5C 132.5,157.667 133.5,156.833 134.5,156C 141.167,155.333 147.833,155.333 154.5,156C 156.333,157.167 157.833,158.667 159,160.5C 159.499,165.489 159.666,170.489 159.5,175.5 Z"/></g>
<g><path style="opacity:1" fill="#93addc" d="M 89.5,161.5 C 90.4872,166.305 90.8205,171.305 90.5,176.5C 88.5,176.5 86.5,176.5 84.5,176.5C 84.5,172.833 84.5,169.167 84.5,165.5C 85.4794,168.625 85.8128,171.958 85.5,175.5C 86.8333,175.5 88.1667,175.5 89.5,175.5C 89.5,170.833 89.5,166.167 89.5,161.5 Z"/></g>
<g><path style="opacity:1" fill="#6f91d1" d="M 136.5,175.5 C 135.833,175.5 135.167,175.5 134.5,175.5C 135.167,160.833 135.833,160.833 136.5,175.5 Z"/></g>
<g><path style="opacity:1" fill="#88a5d9" d="M 152.5,165.5 C 152.56,164.957 152.893,164.624 153.5,164.5C 154.489,168.107 154.823,171.774 154.5,175.5C 156.167,175.5 157.833,175.5 159.5,175.5C 157.735,176.461 155.735,176.795 153.5,176.5C 153.815,172.629 153.482,168.962 152.5,165.5 Z"/></g>
<g><path style="opacity:1" fill="#7a9ad5" d="M 99.5,165.5 C 99.56,164.957 99.8933,164.624 100.5,164.5C 101.489,168.107 101.823,171.774 101.5,175.5C 106.833,175.5 112.167,175.5 117.5,175.5C 112.025,176.489 106.358,176.822 100.5,176.5C 100.815,172.629 100.482,168.962 99.5,165.5 Z"/></g>
</svg>
