<?xml version="1.0" encoding="UTF-8"?>
<!DOCTYPE svg PUBLIC "-//W3C//DTD SVG 1.1//EN" "http://www.w3.org/Graphics/SVG/1.1/DTD/svg11.dtd">
<svg xmlns="http://www.w3.org/2000/svg" version="1.1" width="221px" height="220px" style="shape-rendering:geometricPrecision; text-rendering:geometricPrecision; image-rendering:optimizeQuality; fill-rule:evenodd; clip-rule:evenodd" xmlns:xlink="http://www.w3.org/1999/xlink">
<g><path style="opacity:0.995" fill="#58b531" d="M -0.5,-0.5 C 73.1667,-0.5 146.833,-0.5 220.5,-0.5C 220.5,72.8333 220.5,146.167 220.5,219.5C 146.833,219.5 73.1667,219.5 -0.5,219.5C -0.5,146.167 -0.5,72.8333 -0.5,-0.5 Z"/></g>
<g><path style="opacity:1" fill="#85c96a" d="M 108.5,26.5 C 108.5,27.5 108.5,28.5 108.5,29.5C 103.833,29.5 99.1667,29.5 94.5,29.5C 99.279,29.0465 103.946,28.0465 108.5,26.5 Z"/></g>
<g><path style="opacity:1" fill="#8ecc74" d="M 108.5,26.5 C 109.209,25.596 110.209,25.2627 111.5,25.5C 111.5,26.5 111.5,27.5 111.5,28.5C 116.363,28.1805 121.03,28.5139 125.5,29.5C 120.5,29.5 115.5,29.5 110.5,29.5C 110.715,27.8212 110.048,26.8212 108.5,26.5 Z"/></g>
<g><path style="opacity:1" fill="#f5faf2" d="M 108.5,26.5 C 110.048,26.8212 110.715,27.8212 110.5,29.5C 115.5,29.5 120.5,29.5 125.5,29.5C 121.858,30.943 118.191,32.7763 114.5,35C 118.343,37.8622 122.676,39.0289 127.5,38.5C 127.5,39.5 127.5,40.5 127.5,41.5C 117.5,41.5 107.5,41.5 97.5,41.5C 98.3452,49.1064 96.8452,56.1064 93,62.5C 92.3076,61.9747 91.8076,61.3081 91.5,60.5C 94.1737,53.4409 95.1737,46.1075 94.5,38.5C 98.4176,37.3506 102.418,36.1839 106.5,35C 103.188,32.6266 99.1876,30.7933 94.5,29.5C 99.1667,29.5 103.833,29.5 108.5,29.5C 108.5,28.5 108.5,27.5 108.5,26.5 Z"/></g>
<g><path style="opacity:1" fill="#86c869" d="M 103.5,32.5 C 107.311,31.3547 111.311,31.1881 115.5,32C 111.588,33.7545 107.588,33.9212 103.5,32.5 Z"/></g>
<g><path style="opacity:1" fill="#69bc46" d="M 115.5,37.5 C 112.167,38.8333 108.833,38.8333 105.5,37.5C 108.814,36.2926 112.148,36.2926 115.5,37.5 Z"/></g>
<g><path style="opacity:1" fill="#afdb9d" d="M 105.5,37.5 C 108.833,38.8333 112.167,38.8333 115.5,37.5C 116.289,37.7828 116.956,38.2828 117.5,39C 112.167,39.6667 106.833,39.6667 101.5,39C 102.901,38.5899 104.234,38.0899 105.5,37.5 Z"/></g>
<g><path style="opacity:1" fill="#f8fcf6" d="M 124.5,45.5 C 121.452,47.1187 118.119,48.1187 114.5,48.5C 114.5,49.5 114.5,50.5 114.5,51.5C 117.797,51.89 120.797,52.89 123.5,54.5C 120.5,54.5 117.5,54.5 114.5,54.5C 114.5,56.1667 114.5,57.8333 114.5,59.5C 119.294,58.9031 123.627,59.5698 127.5,61.5C 117.773,62.1389 108.44,61.4722 99.5,59.5C 103.5,59.5 107.5,59.5 111.5,59.5C 111.5,57.8333 111.5,56.1667 111.5,54.5C 99.5,53.8333 99.5,53.1667 111.5,52.5C 111.5,51.1667 111.5,49.8333 111.5,48.5C 107.397,47.7691 103.897,48.7691 101,51.5C 100.5,51 100,50.5 99.5,50C 101.221,47.3806 103.054,44.8806 105,42.5C 106.826,43.0104 106.993,43.8438 105.5,45C 107.473,45.4955 109.473,45.6621 111.5,45.5C 111.5,44.5 111.5,43.5 111.5,42.5C 112.5,42.5 113.5,42.5 114.5,42.5C 114.5,43.5 114.5,44.5 114.5,45.5C 117.833,45.5 121.167,45.5 124.5,45.5 Z"/></g>
<g><path style="opacity:1" fill="#bde2ae" d="M 124.5,45.5 C 125.404,46.209 125.737,47.209 125.5,48.5C 121.833,48.5 118.167,48.5 114.5,48.5C 118.119,48.1187 121.452,47.1187 124.5,45.5 Z"/></g>
<g><path style="opacity:1" fill="#9ad283" d="M 114.5,51.5 C 117.833,51.5 121.167,51.5 124.5,51.5C 124.737,52.791 124.404,53.791 123.5,54.5C 120.797,52.89 117.797,51.89 114.5,51.5 Z"/></g>
<g><path style="opacity:1" fill="#98d07f" d="M 99.5,59.5 C 108.44,61.4722 117.773,62.1389 127.5,61.5C 118.014,62.4938 108.348,62.8271 98.5,62.5C 98.2627,61.209 98.596,60.209 99.5,59.5 Z"/></g>
<g><path style="opacity:1" fill="#fbfdfb" d="M 103.5,95.5 C 104.873,95.3433 106.207,95.51 107.5,96C 118.578,102.734 129.911,109.067 141.5,115C 142.639,120.416 142.806,125.916 142,131.5C 134.523,130.173 127.023,130.34 119.5,132C 116.073,133.431 113.24,135.598 111,138.5C 109.705,151.072 109.038,163.738 109,176.5C 107.915,177.293 106.748,177.96 105.5,178.5C 93.5,171.833 81.5,165.167 69.5,158.5C 68.1667,144.167 68.1667,129.833 69.5,115.5C 81.0352,109.007 92.3685,102.34 103.5,95.5 Z"/></g>
<g><path style="opacity:1" fill="#5eb739" d="M 104.5,104.5 C 107.589,105.739 110.589,107.239 113.5,109C 105.237,113.38 97.0704,117.88 89,122.5C 86.4334,121.132 83.9334,119.632 81.5,118C 89.2297,113.474 96.8964,108.974 104.5,104.5 Z"/></g>
<g><path style="opacity:1" fill="#5fb739" d="M 120.5,113.5 C 123.714,114.44 126.714,115.94 129.5,118C 121.732,122.633 113.899,127.133 106,131.5C 102.945,130.389 100.112,128.889 97.5,127C 105.559,122.978 113.225,118.478 120.5,113.5 Z"/></g>
<g><path style="opacity:1" fill="#59b533" d="M 76.5,125.5 C 79.3425,126.172 81.8425,127.506 84,129.5C 84.6667,138.833 84.6667,148.167 84,157.5C 81.6667,156.167 79.3333,154.833 77,153.5C 76.5002,144.173 76.3335,134.839 76.5,125.5 Z"/></g>
<g><path style="opacity:1" fill="#fafdf9" d="M 125.5,134.5 C 133.503,133.708 141.169,134.875 148.5,138C 152.715,142.958 152.381,147.625 147.5,152C 137.51,156.608 127.51,156.608 117.5,152C 111.988,146.592 112.321,141.592 118.5,137C 120.927,136.098 123.26,135.264 125.5,134.5 Z"/></g>
<g><path style="opacity:1" fill="#65ba41" d="M 92.5,134.5 C 95.4234,135.295 98.0901,136.628 100.5,138.5C 101.833,147.833 101.833,157.167 100.5,166.5C 98.0038,165.42 95.6705,164.086 93.5,162.5C 92.5017,153.19 92.1684,143.857 92.5,134.5 Z"/></g>
<g><path style="opacity:1" fill="#f9fcf8" d="M 113.5,154.5 C 125.979,161.087 138.479,161.087 151,154.5C 152.361,159.274 150.861,162.774 146.5,165C 135.512,169.001 125.012,168.168 115,162.5C 113.748,159.986 113.248,157.32 113.5,154.5 Z"/></g>
<g><path style="opacity:1" fill="#f6fbf4" d="M 113.5,167.5 C 125.822,172.795 138.155,172.795 150.5,167.5C 152.299,171.525 151.299,174.692 147.5,177C 137.51,181.608 127.51,181.608 117.5,177C 114.038,174.761 112.705,171.594 113.5,167.5 Z"/></g>
</svg>
